<?xml version="1.0" standalone="no"?>
<svg xmlns="http://www.w3.org/2000/svg" id="map" version="1.2" width="800" height="800" viewBox="150 240 150 150"> 

<path id="Alta_Floresta_D_Oeste" fill="#ccccb8" stroke="#000" stroke-width=".25" d="m241.2 333.1.62-.15.15.18 1.3-.1.25.49.5.29.04 1.04-.74.35.01 1.8h-.68v.83l-.7-.01v2.4h.12l.01 3.3v5.94l-.34.5-.15 1.22-.22.32-.92.12-.2.6-1 .57-.09.42-.5.43-.78.3-.25.58-1.2.42v-.38l-.65.05-.55.4-.53.23-.45-.7-1.05.07-.38-.32-.4.15-1.16-.57-.37-.55.07-.26-.56-.46-.25.38-.4.2-.48-.02-.16.36-.8-.22-.27-.25-.26-.58.1-.31-1.18-.6-.42-.67.03-.25.47.36.41-.28.95.18h.52l.44.32.1.6.45-.08.16-.33.51.07.36-.42.4-.2.8-1.1.52-.22.46.23.07-.47.32-.5.65-.14.2-.34.44-.31.48-.88.56-.7.14-.4.6-.43 1.03-1.13-.13-.65.3-.4.11-.5-.06-.56-.64-1.27-.16-.04-1.1.4-.56.08-.4-.34-.9-.44-.3.05-.6-.34-1-.27-.3-.33-.5.1-.38-.31.6-.76.1-.78-.22-.54.07-.6 1.17-.66.57-.71.3-.01.75-.7.32-.48.47-.26.16-.28 1.91-.2 1.04.17.46-1.35.31-.07.27.47.44.09.51-.3.5-.06.1.55z" data-originalStrokeWidth="0.25" style="shape-rendering: auto; stroke: rgb(0, 0, 0);"></path>

<path id="Ariquemes" fill="#ccccb8" stroke="#000" stroke-width=".25" d="m234.62 296.64-.01.02-.4.24-.13.68v.85l-.27.57-.63.47-.1.54-.2.22-.23.79-.66.26-.15.93-.3 1.24-.36.1-.93 1.65-.01-.01-1.74-1.2-1.1-.8-.02-.13-6.66-.01.32-.6.79-.65v-.41l.31-.37.28-.91h-8.56l-.32-.6-.01-.6.65-1-.03-1.52.19-.3.08-.73-.14-.29 1.3-.02v2.1h3.67l.07-.7.99-.11 2.5-.1-.2-.52 4.69-.03.53.5.19.38.85.17.3.23.95.36.29-.56.08-.48.47-.27.35-.58.48-.24.5-.92.32 1.09.72.7 1.06.15z" data-originalStrokeWidth="0.25" style="shape-rendering: auto; stroke: rgb(0, 0, 0);"></path>


<path id="Cabixi" fill="#ccccb8" stroke="#000" stroke-width=".25" d="m264.9 365.38-1.06-.16-.02-.34-.7-.17-.33-.46-.29.04-.6-.25-.52-.58-.18-.63.46.16.38-.2.43-.53.25-.58.55-.65.58-.94.88-.02.24-1.2 5.9-.1.1.24-.24.76.11.65-.26.75-.4.13-.35.36-1.42.38-.37.25-.07.34-.74.5-.82.07-1.1.99v.24l-.49.66z" data-originalStrokeWidth="0.25" style="shape-rendering: auto; stroke: rgb(0, 0, 0);"></path>


<path id="Cacoal" fill="#ccccb8" stroke="#000" stroke-width=".25" d="m256.02 327.13-.5-.01-.95-.53-.38.17-.7-.06-.29.1.05 1.28.29.62-3.47.02-.32-.28-.84-.34-.28-.41h-.34l-.6-.25-.08-.25-.52-.37-.39-1.74-.81-.08-.2-.2.17.09.56-.42.23-.8h4.26v-3.88h1.31l-.04-2.23 7.57.08v7.18l-.3.35-.68.12-.46.24-.48.43-.31.54-1.11.3z" data-originalStrokeWidth="0.25" style="shape-rendering: auto; stroke: rgb(0, 0, 0);"></path>


<path id="Cerejeiras" fill="#ccccb8" stroke="#000" stroke-width=".25" d="m264.31 355.3.3.32-.22.88-.01.42.24.6.13 1.2-.41.16-.58.1-.62-.08h-2.5v-1.38l-1.56-.05v2.06l-5.56.03-.25-1.22.1-1.17-.8.07-.53.5-.65-.08-.4.51-.78-.07-.9.38-.3-.17-.6.13-.5-.13-.46-.39-1.05-.15-.29.45-.53.2-.9-.17-.6.07-.33-.47 1.32-1.1.8-.14.54.21h.63l.91-.47.57-.54.2-1-.28-.65 1.15-.62.9.26.42-.6.38.13.8.01.98.57.33-.06.77.26.31.23h.48l.3.23.87.11.43.4 1.2.1.86.13.5-.03.61-.3.68.54.54-.24 1.02-.19.42-.25.84.38.73.23z" data-originalStrokeWidth="0.25" style="shape-rendering: auto; stroke: rgb(0, 0, 0);"></path>


<path id="Colorado_do_Oeste" fill="#ccccb8" stroke="#000" stroke-width=".25" d="m271.56 357.7-.33.26v.33l-.35.47-5.9.11h-.64l.4-.16-.12-1.19-.24-.6v-.43l.23-.88-.3-.32.26-.74-.23-.32.07-.34.48-.29.12-.57h.58l.33-.23.4-.17.3.36.37-.43.37.33.33-.49.84.16.55.54.65.08.28.21.09.55.63.77.6.6-.19 1.31z" data-originalStrokeWidth="0.25" style="shape-rendering: auto; stroke: rgb(0, 0, 0);"></path>


<path id="Corumbiara" fill="#ccccb8" stroke="#000" stroke-width=".25" d="m265.92 352.8-.33.23H265l-.12.58-.48.29-.07.34.23.32-.25.74-.35.16-.73-.23-.84-.38-.42.25-1.02.19-.54.24-.68-.54-.61.3-.5.03-.86-.14-1.2-.1-.43-.4-.87-.1-.3-.23h-.49l-.3-.24-.78-.26-.33.06-.99-.57h-.79l-.38-.13-.26-.2.42-.93.05-.42.33-.36.17-.62-.16-.32.48-.85.01-.5.3-.65.93-.27-.24-.67.32-.12.16-.4.37-.38.02.54-.2.24.06.38.83.51 1.12.21.05.23.56.05.15.26.42-.18v-.37l.75-.08.82-.45.4.06.22.75.46.34.6-.3.3.6v.7l-.33 1.15.22.34.04.54.6-.39.11-.47.55-.77.46-.16.8-.54.22.24.44-.08.1.56.43-.37.54-.24.7.33.55.44.26.82.04.78z" data-originalStrokeWidth="0.25" style="shape-rendering: auto; stroke: rgb(0, 0, 0);"></path>


<path id="Costa_Marques" fill="#ccccb8" stroke="#000" stroke-width=".25" d="m212.4 329.17.49.8 1.34.42.52.25-.05.54-.63.28-.38.47.45.68h-3.65l-.54-.1-.12.67h-.41l-.26.4.08.48-.74.8-.82.26-.31.54-.47.26-.17.6.1.5-.7 1.13-.45.4-.45.19.6.58.36.1 1.1-.16.56.05.56-.57.96-.03.06.16.86.1.23-.11.32.65.32.19.12.92.5.75h1.18l-.06.29.49.93-.08.39-.4.34-.6.15-.86-.26-.6.05-.33-.24-.33.36-.52.27-.7-.3-.48.64.06.3-.75.48-.41.05-.5-.43-.86.17-.3-.4-.44.16-.24-.3-.36.35-.26-.48-.29.44-.48-.02.05-.54-1.12-.26-.88.84-.25-.22.07-.58-.9.04-1.07-.23-.76-.71-.22-.37-.67-.33-.24-.41.2-.22.16-.71-.2-1-.16-.21-.7.33-.28-.4-.46-.06.14-.54.59-.07.25.6.9-.12.73-.63-.04-.4.47-.62.7-.11.17-.92.95-.86.25.15.35-.35.48-.1.33-.31-.31-.33.95-.8.77.05.27-.3.4-.83.2-.72.59-.66h.22l.7-.44.1.32 1.16-.58.5-.01.37-.2.43.17.55-.62.5-.34.79-.23.26.08.68-.44.3.18z" data-originalStrokeWidth="0.25" style="shape-rendering: auto; stroke: rgb(0, 0, 0);"></path>


<path id="Espigão_D_Oeste" fill="#ccccb8" stroke="#000" stroke-width=".25" d="m269.31 317.6-.27.99-.67.36-.02.45-.24.44.13.24.01.68-.22.25.08 1.27.78.68-.23.9.17.3.44.16.34.66.1.7-.46.32-.49.32-.36-.07-.2.27-.36.99-.37.18-.23.42-.28.08.04.56-.87.52-.56.8h-1.1l-.48.24-.39-.16-.69-.03-.38.42-1.33.08-.12.37-5.06-3.86.38-.33 1.11-.3.31-.54.48-.43.46-.24.68-.12.3-.35.01-7.18v-.07l3.63.02z" data-originalStrokeWidth="0.25" style="shape-rendering: auto; stroke: rgb(0, 0, 0);"></path>


<path id="Guajará_Mirim" fill="#ccccb8" stroke="#000" stroke-width=".25" d="m211.91 314.94.4-.12 1.06.15.27-.27.58.1.1.77-.58.2-.1.47.12.47.34.58-.07.54-.7.03.81.46-.03.67-.19.46-.17.84.26.7.06.8-.17.56 1.15 1.4.13.35-.77.96-.5.07-.28 1.17.27.4-.32.3-.06.36.2 1.05-.93.12-.4.63-.46.12-.3-.18-.68.44-.26-.08-.78.23-.51.34-.55.62-.43-.16-.37.2h-.5l-1.16.58-.1-.32-.7.45h-.23l-.58.65-.2.72-.4.84-.28.3-.77-.06-.95.8.31.33-.33.31-.48.1-.35.35-.25-.15-.95.86-.17.92-.7.11-.47.62.04.4-.72.63-.9.13-.26-.6-.59.06-.14.54-.38-.02-.98-.39-.47-.08-.25-.24-.1-.55.35-.7-.14-.26-.57.2.09.32-.14.58-.48-.09.16-.76-.51-.3-.37.15-.25.47-.33-.23.18-.47.39-.3-.05-.35-.47-.6-.78.05-.6.26-.55-.62-.57.42-.35-.42-.5.08.02-.92.23-.74-.07-.2-.73-.17-.2-.47.2-1.16-.54-1.47-.67.23-.96.02.16.55-.55-.06-.81-.5-.11-.44.69-.78-.21-.5.09-.4-.18-.43.4-.82-.3-.26-.5-.03-.84-.22-.25-.96-.12-1-.18-.6.2-.32.47-.07-.06-.34-.68-.06-.36-.96-.02-.6.62-.22v-.44h-.44l-.22-.7.21-.45.46-.32.64-.16.11-.63-.25-.58.82-.73-.63-1.09.35-.02-.16-.9-.73-.8-.8-.42.25-.41-.03-.63.11-.77-.26-.75-.83-.29-.2-.43.33-.63-.37-.73.14-.47-.34-.57.45-.3.41-.6.47.04.28.3.14.51.28.18.31.95.38.17 1 .03.24.2.4-.45.81.01.86-.25.47.06 1.02-.1.56-.18.67.18.18.31.42.04.32-.25 1.01-.48.27.15.35-.56h.3l.54-.39 1.48 5.4.35.46.82.4.45-.03.4-.29.36.43.54.26.56-.07.25.14.7-.2v-.55l.6-.4.54-.23.8.05.82-.12.55.12.74 1 .42.25.33.52h.95l.63.2.6-.18.1-.4.4-.04.97.65z" data-originalStrokeWidth="0.25" style="shape-rendering: auto; stroke: rgb(0, 0, 0);"></path>


<path id="Jaru" fill="#ccccb8" stroke="#000" stroke-width=".25" d="m239.7 304.06-.2.73.13.33-.01.76.32.5-2.44 2.15-4.7 4.1-3.38 3-3.08 2.69h-1.38l-.66.17-.64-.03-.42.37-.46-.1-.44.3h-.44l-.01-.72.47-.56.58-.4 1.47-.63v-.49l.39-.36.8-.38.37-.77.83.2.64-.43.67-.63.03-.97.94-.41.45-.53h.69l.49-.73-.1-.3.43-.33.1-.67.68-.17.17-.53-.3-.3-.45.35-.28-.03-.6.28-.63-.18-.62.1-.95-.64 2.08-3.62v.01l1.99 1.5 1.6-1.6.2.29.68.04.97.43.92-.77.73-.27.4-.32.79-.12.54-.32z" data-originalStrokeWidth="0.25" style="shape-rendering: auto; stroke: rgb(0, 0, 0);"></path>


<path id="Ji_Paraná" fill="#ccccb8" stroke="#000" stroke-width=".25" d="m250.22 300.1-.27.68-.28.14-.53 1.84.77.56-.28.48-.05.7.54.88.27.6.5.37-.01.4.46.6.27.17-.34 1.2.05.78.2.17-.23.49.06.68-.23.42.19.2-.1.55-.27.44.4.42-.05 1.16-.45-.06-.07.84-.28.42.08 1.13-.17 1.05-.36.12h-1.44l-5.48.02-.28.5.24.76-.12.5-1.13.73-.2.43.1.39-.31.69-.22-.84.13-.57-.94-1.57.06-.66-.44-.1-.47.5-.2-.07-.14-.45.73-1.8 2.86-7.08.6-.24.25-.54-.04-.52.29-.77-.1-.73.26-.3.59-.32.5-.03-.68-1.72-.43-.21-.45-.5.1-.86-.23-.38-.87-.5v-.31l-.37-.5.53-.65.16-.62.3-.03.5.73.65-.02.25-.28-.32-1.2.45-.46.24-.45-.01-.75.48-.13.29-.78.04-.7.56.17.86.04.38-.21.8-.22.62-.4.62.59.77.39-.26.8.37.19.3 1.16-.05.6-.25.2.04.7z" data-originalStrokeWidth="0.25" style="shape-rendering: auto; stroke: rgb(0, 0, 0);"></path>


<path id="Machadinho_D_Oeste" fill="#ccccb8" stroke="#000" stroke-width=".25" d="m243.8 280 .76-.17-.02-.88.31-.43.04-.7.23-.12.4.27h.55l.45-.44.13-.5.5-.13.14.34.56-.04.84.42-.06.43.42.74.4.07.71.36.28-.04.24.35.02.42.77 1.05-.36.31-.29.51-.88 2.23v.7l.57.84.07.32-.1.8-.77-.1-.55.33-.22.44-.07.81-.3.05-.45 1.08-.44-.08v.94l-.3.65-.57.43h-1.72l-.53 1.2-1.03-.29-.5 1.92.45.53-.95 1.7-.7-.18.12-.56.35-.37-.55-.32.03-.6.43.1.2-.33-.03-.64-.4-.37v-.49l-.19-.6-.45.01-.44 1.12-.58.3-.3.42-.14.63-.5.43-.66.08-.22.55-.77.32-.8-.4-.45.01-.57.41-.32.01-.37.41-.6.38-.24-.43-1.06-.15-.72-.7-.32-1.09.62.03.3-.73.77-.59.06-.55.53-.47.06-.26-.08-.57.33-1.38.4-.38-.05-.42.51-.38.42.05.5-.8-.14-.13-.36-1.45.14-1.1v-.74l-.17-.79v-.85l-.22-.49.35-.25.11-.59-.38-.2.3-.56.1-.53.46-.29.11-.47-.38-.44-.55-.3-.05-.53-.4-.23.04-1.26.32.08.31.58.94-.12.56-.4.13-1.03-.15-.52-.39-.3.71.27.8.14.16.52-.46.3.63.61-.12.27.4.41-.1.38.53 1.1.47.13.42-.19.77.02.17.43.3.11.44.76.73.15.57-.12z" data-originalStrokeWidth="0.25" style="shape-rendering: auto; stroke: rgb(0, 0, 0);"></path>


<path id="Nova_Brasilândia_D_Oeste" fill="#ccccb8" stroke="#000" stroke-width=".25" d="m240.56 326.63-.6.47-.36-.08-.57.44.16.32-.22.36.08.48-.34.68-.06.49-.33.66.41 1.04.03.65-.33.35-.46 1.35-1.04-.16-1.9.19-.17.28-.47.26-.32.49-.2-.17v-1.67l-.24-.08-.02-2.08.06-1.53-.03-1.43.23.44.48.2.47-.8.53-.08.2-.42.41-.24.44-.48.55-.86.9-.34 1 .07 1.11-1.13.27-1.15.21-.14.7.18.6-.02.32-.28.6.19.26-.17-.73.77-.46.7-.02.4-.35.62-.67.49z" data-originalStrokeWidth="0.25" style="shape-rendering: auto; stroke: rgb(0, 0, 0);"></path>


<path id="Ouro_Preto_do_Oeste" fill="#ccccb8" stroke="#000" stroke-width=".25" d="m239.93 316-3.23-1.14-.84 1.04-3.05-3.26 4.69-4.11.78.85-.43 1.6 2.47.78 1.07-3.72 1.46-5.04.83-.83-.1.87.45.49.43.2.68 1.72-.5.04-.6.32-.25.3.1.73-.3.77.05.52-.24.54-.61.24z" data-originalStrokeWidth="0.25" style="shape-rendering: auto; stroke: rgb(0, 0, 0);"></path>


<path id="Pimenta_Bueno" fill="#ccccb8" stroke="#000" stroke-width=".25" d="m265.95 340.07-.4-.15-.65-1.24-.05-.3-8.27.02.45-.63.2-.56.02-.49-.16-.69h-.19l-.5-.56-.3-.22-.22-.57-.1-.86-.34-.39.11-.79.3-.4.15-.57.32-.26.02-.44-1.35.01.1-.3h-2.84l.18.24h-2.12l-.52-.88-.18-.5.27-.16.18-.67 3.47-.02-.29-.62-.04-1.28.3-.1.7.06.37-.17.94.53.51.01 5.06 3.86.12-.37 1.33-.08.38-.42.7.03.38.16.48-.24h1.1l.56-.8.87-.52-.04-.56.28-.08.23-.42.37-.18.36-.99.2-.27.36.07.5-.32-.12.4.54.15-.17 1.13.15.23.05.67-.3.3.07 1.13.31.34-.35.64-.19.61.65.52.71 1.04.17.48.04.63.38.25-.27.53-.34.21.4 1.46.54.51.4.88-.07.3.18.7.06.92z" data-originalStrokeWidth="0.25" style="shape-rendering: auto; stroke: rgb(0, 0, 0);"></path>


<path id="Porto_Velho" fill="#ccccb8" stroke="#000" stroke-width=".25" d="m237.34 274.92.39.3.15.52-.13 1.03-.56.4-.94.11-.31-.58-.32-.08-.05 1.26-.91-.16-.33.1-.22.52-.37.04-.23-.6-.3-.1-.6.34-.42-.19-.5.26-.66.04-.1.35-.43-.02-.14.37-.72.29-.4-.23-.66-.04.14-.31-.2-.35.17-.64.04-.7.35-.17.05-.31-.2-.8-1.24-.9-.1-.4-.42-.55.38-.13h-11.1l-.02.26-.55.77.53.2-.12.45-.93.23-.39.65-.54-.33.07.56-.55.46-1.04.38-.8.18.15.27-.59.8.28.17-.04.6-.66.24-.12.68.12.41-.09 1.14-.1.4-.57.54-.17.6.35.28-.3 1.17.3.18-.16.72.25.4-.15.8.25.56-.33.97.16.77.34.3.36.35v.5l.45.1.44-.52.46.4.81-.41.56-.14.11.49.26.33.24.87-.24.2.24.59-1.17 1.14-.07.66-.78 1.17-.43 1.43.03.59h-7.96l-.41-.2-.5.36-.26-.14-.43.24-.6-.28-.92.34-.26.58.06.74-.37.63.06.69h-14.6l-.5-.68-.61.12-.82-.1-.73-.46-.28.13.08-.41.7-.98.03-.46-.61-.5-.1-.5-.52-1.11-.61-.58-.92-.32v.4l-1.02.67-.05.67-.17.45-.7.19-.26.6-.98-.04-.42-.35-.42-.62-.43.55-.27-.08.45-1.03-.86.24-.22.33-.47-.41-.2.5-.38.03-.3-.37-.55.48-.32-.06v-.67l-.57.24-.26-.25-.97.44-.21.5-.3-.2-.42.29-.12-.4-.67-.07-.35.5-.17-.5-.4.12-.51-.1-.76.37v.39l-.37.07-.4-.32-.26.3-.6.24-.47-.22-.74.28-.05.28-.8-.01-1.1.22-.13-.13-1.07.29-.45-.07-.5.34-.7-.04-3.24-1.41.52-.48.1-.67.3.13.58-.08.59-.4.13-.33 1.07-.6.26-.28.4.15.62-.27.26-.26.64-.18.1-.56.99-.84.18-.37.65-.58.06-.64-.13-.47-.33-.28.1-.26.6.34 1-.11.2.3.4-.1-.1-.33.54-.03.29.32.68-.06.55.15.88-.45 1.14.17.3-.28.7.03.58.16.68.6.24.55.66.16.58.79.4-.03.13.56.32.4 1.24-.38.6-.98.26-.13.03-.87.52-.07.15-.24.94-.35.7.22.8.77h.83l.43-.2-.2-.68-.23-.33.16-.4.13-1.18.54.18.28.3.29-.26.46-.02.15-.25.63-.31.65-.5.42-.1.62.38.05.54.36.62-.14.54.4.18-.21.73.76.35.95-.38.19-.43.43.02.32-.48.62-1.24.26-.22h.4l.48-.64.29-.63-.36-1.7.43-.88-.03-.55h.4l.43-.55.55-.32.56-.15.53.16.29.46.54-.14.3-.33.54-.01.2.38.54-.15.54.18.4-.13.17-.37.5-.18 1.83-.02 1.18-.54 1-.31.25.1-.3.8.27.29.96-.14.42.07 1.03-.56.45-.03.13-.25-.16-.7.04-.57-.17-.53.5-.67-.26-.51.03-.6.33-.45.52.2 1.05-.61.34-.46.2-.74.25-.15.08-.56.7.42.39-.6.03-.3-.4-.14.03-.42-.48-.5-.04-.36.57-.46-.22-.43-.41-.32.55-.4.03-1 .59-.04.28-.46.42-.24.8.3.6.49.32-.22.48-.9.42-.36-.46-.74.13-.31.85-.56.55-1.01-.08-.35.79-.92v-.94h8.9l4.45-.01.6.33.4.54.43.02.74.34.34.42.58.42.34.93-.24.5.47.46.09.52.97.76.26-.01.52.62-.1.12.39.79.37.47.7-.7.24-.1.72.63.72.04.4.37-.14.84.05.84.5.4.2.84-.22.4.06.4.82.53.18-.17-.27-.42z" data-originalStrokeWidth="0.25" style="shape-rendering: auto; stroke: rgb(0, 0, 0);"></path>


<path id="Presidente_Médici" fill="#ccccb8" stroke="#000" stroke-width=".25" d="m246.65 323.67-.23.8-.56.42-.16-.08-1.13-.51-.41-.64-.21-.08-.41-.63-.61-.04-.27.17-.6-.2-.32.29-.6.02-.7-.18-.3-.24-.48.27-.1-.3-.7.03.32-.78.45-.55.33-.17-.51-.82.06-.65-.32-.29.09-.54.26-.66.47-.5.44.1-.06.65.94 1.57-.13.57.22.84.32-.69-.11-.39.2-.43 1.12-.73.12-.5-.24-.75.28-.5 5.48-.02v2.33h-.62l.02 2.16-.08.27-.59.26-.06.44-.66.5z" data-originalStrokeWidth="0.25" style="shape-rendering: auto; stroke: rgb(0, 0, 0);"></path>


<path id="Rio_Crespo" fill="#ccccb8" stroke="#000" stroke-width=".25" d="m223.06 291.7 1.35.03 4.35-.02h5.87l-.06.26-.53.46-.06.55-.77.6-.3.73-.63-.03-.5.92-.48.24-.35.58-.47.27-.08.48-.29.56-.94-.36-.3-.23-.86-.17-.19-.37-.53-.5-4.68.03-.33-.54.38-.96.42-.33.06-.61z" data-originalStrokeWidth="0.25" style="shape-rendering: auto; stroke: rgb(0, 0, 0);"></path>


<path id="Rolim_de_Moura" fill="#ccccb8" stroke="#000" stroke-width=".25" d="m250.06 328.71-.18.67-.27.15.18.51.52.87.24.28-.07.5-.5 1.03-.18.2h-4.74l-.12.2-.8.3-.11.38-.5-.29-.25-.49-1.31.1-.15-.17-.62.15.23-.3-.02-.44.77-.99.4-.7-.15-.92.37-.32-.05-.5.63-.27.23-.55 5.3-.02.83.34z" data-originalStrokeWidth="0.25" style="shape-rendering: auto; stroke: rgb(0, 0, 0);"></path>


<path id="Santa_Luzia_D_Oeste" fill="#ccccb8" stroke="#000" stroke-width=".25" d="m250.38 337.02-2.6.01.04 6.01-.27-.53-.46-.32-.16-.88-.49-1 .23-.4-.12-.94-.48-.86-.45-.55-.09-.38-.54-.49.06-.86-.18-.55-.49-.1-.32-.34-.04-1.04.12-.38.8-.3.11-.2h5.34z" data-originalStrokeWidth="0.25" style="shape-rendering: auto; stroke: rgb(0, 0, 0);"></path>


<path id="Vilhena" fill="#ccccb8" stroke="#000" stroke-width=".25" d="m281.35 341.49-.24.08-.46.58-.42.82-.03.74-.95.61.04.61-.91 1.11-.45.2-.15-.31-.84.46-.55.8-.1.52.17.2-.33.52.22.41-.06.94-.3.74.06.5-.4.57-.27.82-1.17.14-.54.7-.03.35-.46.21-.48.66-.28.16.28 1.06-.62.6-.08.36-.38.64-.06.4-.41-1.07.18-1.32-.6-.59-.63-.77-.1-.55-.27-.2-.65-.08-.55-.54-.84-.16-.33.48-.37-.33-.37.43.4-1-.11-.31.26-.93-.08-.27.22-1.01.2-.38.48.39.32-.01 1.3.82-.05-5.36-3.42.05.2-1.67-3.21.07.02-1.28.42-.14.53-.44.6-.15.65-.67-.02-.62h.63l6.15-.05-.06-.92-.18-.7.07-.3-.4-.88-.54-.51-.4-1.46.34-.21.27-.53-.38-.25-.04-.63-.17-.48-.71-1.04-.65-.52.19-.62.35-.64-.31-.34-.07-1.13.3-.3-.05-.66-.15-.23.17-1.13-.54-.16.1-.4.46-.31-.1-.7-.33-.66-.44-.16-.17-.3.23-.9-.78-.68-.08-1.27.22-.25-.01-.68-.13-.24.24-.44.02-.45.67-.36.27-1 .53.84.33.17.35.83.73.25.14-.45.72-.45.34.12.03.5.7.09.88.3.26-.27 1.79.11.16.28.6.12.98-.1-.32.46.13.4.42.32-.31.26.03.63.2.24.16.74.57.3.17.47-.14.42.08.64-.24.45-.74.27-.16.54-.58.47-.23.02-.47.8-.64.36-.37.51.09.42-.22 1.18v.53l.26.65-.1.18.29.64-.12.42.27.77.4.5 1.04.07.4.35-.05.8.28.18.03 1.1.13.42.58.4.52.69v.87l-.2.35.17.67.26.37z" data-originalStrokeWidth="0.25" style="shape-rendering: auto; stroke: rgb(0, 0, 0);"></path>


<path id="São_Miguel_do_Guaporé" fill="#ccccb8" stroke="#000" stroke-width=".25" d="m213.32 317.87.8.1.48.5.96.06.34-.27.85.05.36.35.51.13.35.3.4-.18.11.45.86 1.13.57-.02.38-.44.67-.42.41.23.32-.06.26.29-.19.54.15.65.48.28-.08.78.23.33.17.65-.1.37.3.42.7-.34 1.3.14.56.17.66-.62 1.14-.3.24.56.4.04.05.32.41.55.76.14.08.32-.47.49.74.13.33-.26.96.19.71.73.8-.3.5.16.65 1.04.21.69.03 1.43-.07 1.53.02 2.08.24.08.01 1.67.2.17-.76.69h-.29l-.57.72-1.17.67-.07.59.22.54-.1.78-.6.76-1.57-2.25-.09.32-.38.25-.15.57-.58.2-.26.28-.74-.13-1.06.04-.68.17-1.37-.2-1.32.17-.4-.05.2-.72-.17-.74.17-.7.58-.74.46-.18.8-.69.08-.32 1-.4.84-.1.22.2.74-.79.23-.42-.27-.49-.13-.72-.38.04-.63-.23-.36-.6-.46-.34-.49-.08.02-.55-.14-.89.15-.5.27-.23-.08-.53-.44-.76-.77.15-.4-.57-.4.24-.43-.2-.32-.6-.62-.26-1.12.06-.69.23-.23.32-.88.28-.7.01-.85.4h-.72l-.54-.25-.45.63-.36.25-.87.3-.28-.12-.19-1.05.06-.37.32-.3-.27-.39.28-1.17.5-.07.77-.96-.13-.35-1.15-1.4.17-.56-.06-.8-.26-.7.17-.84.2-.46.02-.67z" data-originalStrokeWidth="0.25" style="shape-rendering: auto; stroke: rgb(0, 0, 0);"></path>


<path id="Nova_Mamoré" fill="#ccccb8" stroke="#000" stroke-width=".25" d="M200.7 300.1h1.36l.14.63.44.8-.2.29.25.9-.12.35.46.5.32 1.33-.16.38-.44.44.04.54.7.79.87.84.6.13.12.25.54.19.55-.14.41.17.07.35.47.33-.12.42-.54.5-.02.39.7.68.74.12.04.49.47.54.17.68-.04.39.8.54.72.35.46-.1.33.38 1.08.4-3.96.59-.97-.65-.4.03-.1.4-.6.19-.63-.2h-.95l-.33-.52-.42-.26-.74-1-.55-.11-.82.12-.8-.05-.55.22-.6.4v.55l-.69.2-.25-.13-.56.07-.54-.26-.36-.43-.4.29-.45.02-.82-.4-.35-.46-1.48-5.4-.54.39h-.3l-.35.57-.27-.15-1 .48-.32.25-.42-.04-.18-.31-.67-.18-.56.17-1.02.1-.47-.05-.86.25-.81-.01-.4.44-.25-.2-1-.02-.38-.17-.3-.95-.29-.18-.14-.52-.28-.3-.47-.04.04-.36-.23-.61.8-.93.35-.3.36-.97.32-.53-.33-.97.12-1.13-.34-.38-.17-.64.15-.72-.22-1.03.28-.13.73.46.82.1.62-.12.5.68z" data-originalStrokeWidth="0.25" style="shape-rendering: auto; stroke: rgb(0, 0, 0);"></path>


<path id="Alvorada_D_Oeste" fill="#ccccb8" stroke="#000" stroke-width=".25" d="m239.28 318.98-.1.54.32.29-.06.65.51.82-.33.17-.45.55-.32.78.7-.03.1.29.48-.27.31.24-.2.14-.28 1.15-1.12 1.13-1-.07-.89.34-.55.86-.44.48-.4.24-.2.42-.54.09-.47.79-.48-.2-.23-.44-.2-.7-.67-1.03-.5-.15-.79.29-.7-.73-.97-.2-.33.27-.74-.13.47-.5-.08-.31-.76-.14-.4-.55-.07-.32-.39-.04-.24-.56-1.14.3-.66.62-.57-.17-1.29-.14-.7.34-.3-.42.1-.37-.17-.65-.23-.33.08-.78-.47-.28-.15-.65.19-.54-.26-.3-.32.07-.42-.23-.02-.37.73.07.66 1.34.1.57 1.08-.24.52.04.38.32.57-.03.52.15.58-.07.32.12.5-.32.4.14.4-.24.3.17.44-.08.64-.47.24-.43.55-.21 1.9 1.68 2.45-.85 3.19-.07.46-1.14.44-.3-.06-.26.4-.33z" data-originalStrokeWidth="0.25" style="shape-rendering: auto; stroke: rgb(0, 0, 0);"></path>


<path id="Alto_Alegre_dos_Parecis" fill="#ccccb8" stroke="#000" stroke-width=".25" d="m244.06 334.85.32.33.5.1.18.56-.06.86.54.49.09.38.45.55.47.86.12.93-.23.4.5 1 .16.89.46.32.27.53 1.54.75.39-.08.3.7.38.54-.11.54.13.86-.2.79-.44.57-.6.22-.66.4-.83.27-1.45 1.14-.92.33-.19.34-.53.28-.46-.05-.27.42-.06.84-.27.18v.5l-.77.48-.93 1.5-.16.5-.65.7-.43.13-.47.44-.12-.31-.49-.05-.47-.47-.38.34-.42-.76-.54.17v.43l-.96.1-.3-.29-.63.16-1.16-.43.53-.22.55-.4.65-.06v.38l1.2-.42.25-.58.78-.3.5-.43.1-.42.99-.57.2-.6.93-.12.22-.32.15-1.2.33-.52v-9.23h-.12l-.01-2.4h.7V337l.68.01v-1.8z" data-originalStrokeWidth="0.25" style="shape-rendering: auto; stroke: rgb(0, 0, 0);"></path>


<path id="Alto_Paraíso" fill="#ccccb8" stroke="#000" stroke-width=".25" d="m218.65 290-.01.08 3.99.35.03.49.38.48.02.3.09 1.59-.06.62-.42.33-.38.96.33.53.2.51-2.51.1-1 .1-.06.7-3.66.01v-2.1l-1.31.02.14.3-.08.72-.2.3.04 1.52-.65 1v.6l.33.6h-2.92l-.04-.24.47-.39.64-1.87.29-.47-.03-.59.43-1.43.79-1.17.07-.66 1.17-1.14-.24-.59.23-.2-.24-.87-.26-.33-.1-.49-.57.14-.8.41-.47-.4-.45.53-.45-.1.01-.5-.36-.35 4.6.34z" data-originalStrokeWidth="0.25" style="shape-rendering: auto; stroke: rgb(0, 0, 0);"></path>


<path id="Buritis" fill="#ccccb8" stroke="#000" stroke-width=".25" d="m212.3 297.14-.3.47-.64 1.87-.47.4.05.23h2.92l.23.52-.1.5.08.85.14.1-.15.85.02.69.33.74.47-.05.26.2h-3.07l-.55-.07-.02.58-.57.33.02.45-.92.12-.18.4-1.36.16.07-1.17-.63-.34.03-.28-.59-.47-.36-.5-.32-.2-.06-.43-.3-.24-.27.4-.42 1.28-.87-.14-.47-.6-1.27-.23-.46-.5.12-.34-.25-.9.2-.3-.45-.79-.14-.63h-1.35l-.06-.69.37-.63-.06-.74.26-.58.92-.34.6.28.43-.24.26.14.5-.35.41.2z" data-originalStrokeWidth="0.25" style="shape-rendering: auto; stroke: rgb(0, 0, 0);"></path>


<path id="Novo_Horizonte_do_Oeste" fill="#ccccb8" stroke="#000" stroke-width=".25" d="m243.62 328.12-.23.55-.63.27.05.5-.37.32.14.9-.4.71-.76 1v.43l-.22.3-.64.06-.1-.55-.5.06-.5.3-.44-.09-.27-.46-.31.07.33-.35-.03-.65-.41-1.04.33-.66.06-.5.34-.68-.08-.48.22-.36-.16-.32.57-.44.36.08.6-.47h1.52l-.02 1.5z" data-originalStrokeWidth="0.25" style="shape-rendering: auto; stroke: rgb(0, 0, 0);"></path>


<path id="Cacaulândia" fill="#ccccb8" stroke="#000" stroke-width=".25" d="m230.24 305.19-2.08 3.62-3.74-.02-3.78.02-.38-.17.04-.77-.38-.3.13-.4-.26-.47.03-.62.23-.01.27-.94-.12-.38.07-.56.44-1.14h6.66l.03.13 1.1.81z" data-originalStrokeWidth="0.25" style="shape-rendering: auto; stroke: rgb(0, 0, 0);"></path>


<path id="Campo_Novo_de_Rondônia" fill="#ccccb8" stroke="#000" stroke-width=".25" d="m215.15 304.51.68.36.44.67-.3.52.32.67v.4l-.61.3-.06.52-.62.36.05.5-.1.66-.4.49.47.68-.22.52-.31.29.2 1-.1.57-.4.02-.07.87.27.37-.17.52-.57-.1-.27.28-1.06-.15-.4.12-1.08-.4-.33-.37-.46.09-.73-.35-.8-.54.04-.4-.17-.68-.47-.54-.04-.49-.75-.12-.69-.68.02-.38.54-.5.12-.42-.47-.34-.07-.35-.4-.17-.55.14-.54-.19-.13-.25-.6-.13-.88-.84-.68-.79-.04-.54.44-.44.16-.38-.32-1.33 1.27.23.47.6.87.14.42-1.29.27-.39.3.24.06.43.32.2.36.5.59.47-.03.28.63.34-.07 1.17 1.36-.17.18-.39.92-.12-.02-.46.57-.33.02-.58.55.07z" data-originalStrokeWidth="0.25" style="shape-rendering: auto; stroke: rgb(0, 0, 0);"></path>


<path id="Candeias_do_Jamari" fill="#ccccb8" stroke="#000" stroke-width=".25" d="m228.59 278.85-.51-.07.04.56-.37.25-.2.92-.48.3-.26.4-.42-.17-.23.17-.44-.17-.46.85-.51.22-.17.32h-3.87l-.04-.58-.91-.66-.1-.66-.51-.38-.34-.06-.02.49.28.26-.5.46.1.96-.64.96.1.33-.71.54-.88-.1.33-.55-.4-.93-.53.26-.58.86-.31.21.28.54v.4l1.1.4-.11.62 1.12.11-.18 1 .16.37.73-.05.6.31.2.5.04 1.47-.34.48-3.02-.25-4.6-.34-.33-.3-.16-.78.33-.97-.25-.55.15-.8-.25-.4.16-.73-.31-.18.3-1.17-.34-.27.17-.6.56-.55.1-.4.1-1.13-.12-.4.12-.69.66-.24.04-.6-.28-.17.59-.8-.16-.27.8-.18 1.05-.38.55-.46-.07-.56.54.33.39-.65.93-.23.12-.45-.53-.2.54-.78.02-.26h11.1l-.37.13.4.56.12.4 1.23.9.2.8-.04.3-.35.17-.04.7-.17.64.2.35z" data-originalStrokeWidth="0.25" style="shape-rendering: auto; stroke: rgb(0, 0, 0);"></path>


<path id="Castanheiras" fill="#ccccb8" stroke="#000" stroke-width=".25" d="m245.7 324.8.19.2.82.08.38 1.74.51.37.08.25.6.26.34-.01.28.4-5.29.03h-1.55l.02-1.5h-1.52l.13-.74.67-.49.35-.6.02-.42.46-.7.73-.77.61.04.41.63.21.08.41.64z" data-originalStrokeWidth="0.25" style="shape-rendering: auto; stroke: rgb(0, 0, 0);"></path>


<path id="Chupinguaia" fill="#ccccb8" stroke="#000" stroke-width=".25" d="M265.95 340.07h-.63l.02.62-.64.67-.6.15-.54.44-.42.14-.02 1.28 3.21-.07-.2 1.67 3.42-.05.05 5.36-1.3-.82-.32.01-.47-.39-.2.38-.22 1.01.08.27-.27.93.11.31-.4 1.01-.29-.36-.4.16.15-.6-.04-.78-.25-.82-.55-.44-.7-.33-.54.24-.43.37-.1-.56-.44.08-.22-.24-.8.54-.46.16-.55.77-.12.47-.59.4-.04-.54-.22-.34.32-1.16.01-.7-.3-.6-.6.3-.46-.34-.22-.75-.4-.06-.82.45-.75.08v.37l-.42.18-.15-.26-.56-.05-.05-.23-1.12-.2-.83-.51-.07-.38.21-.24-.02-.54h-.07l.23-.81.23-.28.2-.69.18-.1.3-.77.41-.59.7-1.5.38-.26.22-.56-.3-1.63.3-.93 8.27-.02.06.3.65 1.24z" data-originalStrokeWidth="0.25" style="shape-rendering: auto; stroke: rgb(0, 0, 0);"></path>


<path id="Cujubim" fill="#ccccb8" stroke="#000" stroke-width=".25" d="m235.56 277.88.41.23.05.52.55.31.39.44-.11.47-.46.3-.1.53-.3.55.37.2-.1.6-.36.25.21.49.01.85.17.79v.74l-.14 1.1.36 1.45.14.12-.5.8-.42-.04-.5.38.05.42-.4.38-.33 1.38.07.57h-5.87l-4.35.02-1.35-.03-.02-.3-.38-.48 6.47-1.61-.04-6.88h1.9l-.23-.7.07-.49-.41-.15-.1-.65-.38-.56-.4-.04-.33-.51-.42-.14-.2-.34.67.04.4.23.72-.3.14-.35.43.02.09-.35.66-.04.5-.27.42.2.6-.35.3.1.24.6.37-.04.2-.52.34-.1z" data-originalStrokeWidth="0.25" style="shape-rendering: auto; stroke: rgb(0, 0, 0);"></path>


<path id="Governador_Jorge_Teixeira" fill="#ccccb8" stroke="#000" stroke-width=".25" d="m228.16 308.8.95.64.61-.1.63.18.6-.28.28.03.45-.36.3.31-.17.53-.68.17-.1.67-.43.32.1.31-.49.73h-.69l-.45.52-.94.41-.03.97-.67.63-.64.43-.82-.19-.36.77-.82.38-.39.36v.5l-1.47.63-.58.39-.47.56.01.73-.67-.1-.29.3.02.37-.66.42-.38.44-.57.02-.85-1.13-.11-.45-.4.19-.35-.31-.51-.13-.36-.35-.85-.05-.34.27-.96-.06-.5-.5-.79-.1.72-.03.07-.54-.34-.58-.12-.47.09-.48.58-.2-.1-.78.17-.52-.27-.36.08-.87.4-.02.09-.56-.2-1.01.3-.3.23-.51-.46-.68.39-.5.1-.65h5.59l3.78-.02z" data-originalStrokeWidth="0.25" style="shape-rendering: auto; stroke: rgb(0, 0, 0);"></path>


<path id="Itapuã_do_Oeste" fill="#ccccb8" stroke="#000" stroke-width=".25" d="m228.59 278.85.19.34.42.14.34.5.39.04.37.56.1.66.41.16-.07.49.24.69h-1.9l.04 6.88-6.47 1.6-.03-.49-3.99-.35.01-.08.34-.48-.03-1.47-.2-.5-.6-.3-.74.04-.16-.38.18-.99-1.12-.1.12-.64-1.1-.39v-.4l-.29-.54.31-.2.58-.86.53-.26.4.93-.33.55.88.1.71-.54-.1-.34.65-.96-.1-.96.5-.46-.29-.26.02-.5.34.07.51.38.1.66.91.66.04.58h3.87l.17-.32.51-.22.46-.85.44.17.23-.17.42.17.27-.4.48-.3.2-.92.36-.25-.04-.56z" data-originalStrokeWidth="0.25" style="shape-rendering: auto; stroke: rgb(0, 0, 0);"></path>


<path id="Ministro_Andreazza" fill="#ccccb8" stroke="#000" stroke-width=".25" d="m246.65 323.67-.04-.17.66-.5.06-.44.59-.26.08-.27-.02-2.16h.6l.02-2.33 1.44-.01 2.15.03.04 2.23h-1.31l-.01 3.88z" data-originalStrokeWidth="0.25" style="shape-rendering: auto; stroke: rgb(0, 0, 0);"></path>


<path id="Mirante_da_Serra" fill="#ccccb8" stroke="#000" stroke-width=".25" d="m232.38 318.94-.42.33-.26-.39-.53.46-.45-.24-.42.2.09.4-.52.36-.55.21-.24.43-.64.47-.43.08-.31-.17-.4.24-.4-.14-.5.32-.32-.12-.58.07-.52-.15-.57.03-.38-.32-.52-.04-1.08.24-.1-.57-.66-1.34-.73-.07.29-.29.67.1.44-.02.44-.3.46.1.42-.37.64.03.65-.17h1.38l3.08-2.69 2.02 2.16z" data-originalStrokeWidth="0.25" style="shape-rendering: auto; stroke: rgb(0, 0, 0);"></path>


<path id="Monte_Negro" fill="#ccccb8" stroke="#000" stroke-width=".25" d="m220.72 303.05-.44 1.14-.07.56.12.38-.27.94h-.23l-.03.62.26.47-.13.4.37.3-.04.77.38.17h-5.6l-.04-.49.62-.36.06-.52.62-.3-.01-.4-.31-.67.29-.52-.44-.67-.68-.36-.26-.2-.47.05-.33-.74-.02-.7.15-.84-.14-.1-.1-.85.12-.5-.24-.52h8.56l-.27.9-.31.38-.01.4-.8.67z" data-originalStrokeWidth="0.25" style="shape-rendering: auto; stroke: rgb(0, 0, 0);"></path>


<path id="Nova_União" fill="#ccccb8" stroke="#000" stroke-width=".25" d="m233.34 318.25-.96.7-.95-1.16-2.02-2.17 3.4-2.99 3.04 3.26-.66.85z" data-originalStrokeWidth="0.25" style="shape-rendering: auto; stroke: rgb(0, 0, 0);"></path>


<path id="Parecis" fill="#ccccb8" stroke="#000" stroke-width=".25" d="m256.57 338.4-.3.93.3 1.63-.22.57-.39.26-.69 1.5-.42.6-.29.76-.19.1-.19.7-.23.26-.22.81-.48-1.02v-.63l-.23-.17-.07-.64h-.26l-.38.38-.27-.12-.68-.66-.9.08-.7-.03-.4.08-1.53-.75-.05-6 2.6-.02 1.04-.02.6-.22.38.2.33-.6.57-.29.59-.63h2.52l.5.56.19.01.16.7-.02.48-.21.56z" data-originalStrokeWidth="0.25" style="shape-rendering: auto; stroke: rgb(0, 0, 0);"></path>


<path id="Pimenteiras_do_Oeste" fill="#ccccb8" stroke="#000" stroke-width=".25" d="M253.72 346.52h.07l-.37.37-.16.41-.32.12.24.67-.94.28-.29.65v.5l-.48.85.16.32-.17.62-.33.35-.05.42-.42.93.26.2-.42.6-.9-.26-1.15.62.28.64-.2 1-.57.55-.91.47h-.63l-.54-.21-.8.13-1.32 1.1.32.47.6-.07.9.17.54-.2.29-.44 1.05.15.45.39.5.13.6-.13.3.17.9-.38.78.07.4-.51.66.08.52-.51.8-.07-.1 1.17.25 1.22 5.56-.03v-2.06l1.57.05v1.38h2.49l.62.08.58-.1h.64l-.24 1.19-.88.02-.58.94-.55.65-.25.58-.43.54-.4.19-.45-.16-.56.06-.3-.26-.67.23-.16-1.11-.47.36-.83-.28-.28.42-.88.2-.32-.3-.89.36-.46-.6-.47.17-.95-.04-.38.3-.7-.02-.22.32-1.2.3-.67-.12-1.37-.83-.4.19-.76.13-.31-.25-.44.06-1.13.57-1.05-.23-.3.2-.62-.2-.25-.53-.08-1-.47-.13-.85-.75-.32-.45h-.4l-1.17-1.23-.27-.1-.55-.57.12-.7-.11-.97.12.3.47-.43.43-.13.65-.7.16-.5.93-1.5.77-.48v-.5l.27-.18.06-.84.27-.42.46.05.53-.28.19-.34.92-.33 1.45-1.14.83-.27.66-.4.6-.22.43-.57.2-.8-.13-.85.1-.54-.37-.54-.3-.7.7.03.9-.08.68.66.27.12.38-.38h.26l.07.64.23.17v.63z" data-originalStrokeWidth="0.25" style="shape-rendering: auto; stroke: rgb(0, 0, 0);"></path>


<path id="Primavera_de_Rondônia" fill="#ccccb8" stroke="#000" stroke-width=".25" d="M256.4 335.46h-2.52l-.59.63-.57.28-.33.6v-2.55l.7-.68-.25-.26v-2.56h-.4l-.19-.25h2.84l-.1.31h1.35l-.02.43-.32.26-.15.56-.3.41-.1.8.32.39.11.86.21.57z" data-originalStrokeWidth="0.25" style="shape-rendering: auto; stroke: rgb(0, 0, 0);"></path>


<path id="São_Felipe_D_Oeste" fill="#ccccb8" stroke="#000" stroke-width=".25" d="M250.31 330.92h2.52l.01 2.56.24.26-.7.68.02 2.55-.37-.19-.61.23-1.03.02v-4.11h-.6l.18-.2.51-1.04.07-.49z" data-originalStrokeWidth="0.25" style="shape-rendering: auto; stroke: rgb(0, 0, 0);"></path>


<path id="São_Francisco_do_Guaporé" fill="#ccccb8" stroke="#000" stroke-width=".25" d="m222.13 339.02.4.05 1.32-.17 1.37.2.68-.17 1.06-.04.74.13.27-.28.58-.2.15-.57.38-.26.09-.32 1.57 2.25.38.31.49-.1.3.33 1 .27.6.34.3-.05.9.44.4.34.55-.08 1.12-.4.16.04.64 1.27.06.57-.12.5-.3.4.14.64-1.04 1.13-.6.44-.13.4-.56.7-.48.87-.45.31-.2.34-.64.14-.32.5-.07.47-.46-.23-.53.23-.8 1.1-.4.2-.35.41-.51-.07-.16.33-.45.1-.1-.62-.44-.32h-.52l-.95-.18-.41.28-.47-.36-.51-.32-.4.25-1.12-.27-.03-.43-.44-.6-.37-.89-.43-.05-.07-.29.36-.48-.6-.03-.28-.42-.48-.22-.44-.55-.33.2-.34.53-.74.2.22.3-1.13-.06-.97-.44-.33.05-.56-.42-.14-.4-.5-.5.05-.32-.7-.1-.5.11-.44-.39-.41-.65-1.13-.4-.12-.22-1.13-.36.6-.15.4-.34.08-.39-.5-.93.07-.29h-1.17l-.51-.75-.12-.92-.32-.19-.32-.65-.23.11-.86-.1-.06-.16-.96.03-.56.57-.56-.05-1.1.17-.36-.1-.6-.59.45-.19.45-.4.7-1.13-.1-.49.17-.6.47-.27.3-.54.83-.25.74-.8-.08-.49.26-.39h.4l.13-.68.54.1h3.65l3.8.01-.32.51.12.32.82.9.93.33.39 1.3-.17.4-.4.37-.07.95-.27.4-.05.52-.33.7.02 1.2.5.4.43-.49.58.32.23-.4-.1-.44.6-.39.5.18z" data-originalStrokeWidth="0.25" style="shape-rendering: auto; stroke: rgb(0, 0, 0);"></path>


<path id="Seringueiras" fill="#ccccb8" stroke="#000" stroke-width=".25" d="m222.13 339.02-.79.67-.5-.18-.6.4.1.43-.23.4-.58-.32-.42.5-.5-.42-.02-1.19.33-.7.05-.52.27-.4.08-.95.39-.37.17-.4-.4-1.3-.92-.34-.82-.89-.12-.32.32-.5-3.8-.01-.45-.68.38-.47.63-.28.05-.54-.52-.25-1.34-.42-.5-.8.4-.64.93-.12.28.12.87-.3.36-.25.45-.63.54.25h.72l.84-.4h.7l.89-.28.23-.32.69-.23 1.12-.06.62.25.32.6.42.2.4-.24.4.57.77-.15.44.76.08.53-.27.22-.15.51.14.9-.02.55.5.08.45.33.36.6.63.23.38-.04.13.72.27.5-.23.42-.74.79-.22-.21-.84.1-1 .4-.09.33-.79.69-.46.18-.58.73-.17.7.17.75z" data-originalStrokeWidth="0.25" style="shape-rendering: auto; stroke: rgb(0, 0, 0);"></path>


<path id="Teixeirópolis" fill="#ccccb8" stroke="#000" stroke-width=".25" d="m239.34 318.24-1-.37-3.48.19-1.44.26-.07-.07 1.85-1.5.66-.85.83-1.04 3.23 1.13-.73 1.8z" data-originalStrokeWidth="0.25" style="shape-rendering: auto; stroke: rgb(0, 0, 0);"></path>


<path id="Theobroma" fill="#ccccb8" stroke="#000" stroke-width=".25" d="m242.9 299.2-.16.62-.53.66.37.5v.32l-.11.45-.7.53-.37.53-.43.37-.84.34-.43.54-.65-.02-.54.32-.79.12-.4.32-.73.27-.92.77-.96-.43-.68-.04-.2-.29-1.6 1.6-1.98-1.49.93-1.65.37-.1.29-1.24.15-.93.66-.26.23-.79.2-.2.1-.55.63-.47.27-.57v-.85l.14-.68.39-.24.04.5.28.54.08.81.72-.09 1.2.44.75.74.1.5.57.54.9.42.93-.22.71-.95.7-.28.21-.42z" data-originalStrokeWidth="0.25" style="shape-rendering: auto; stroke: rgb(0, 0, 0);"></path>


<path id="Urupá" fill="#ccccb8" stroke="#000" stroke-width=".25" d="m239.34 318.24.2.08-.26.66-.63-.18-.4.33.06.27-.44.29-.46 1.14-3.2.07-2.45.85-1.9-1.68.52-.36-.08-.41.42-.2.45.24.54-.46.25.4.42-.33.96-.7.08.07 1.44-.26 3.48-.2z" data-originalStrokeWidth="0.25" style="shape-rendering: auto; stroke: rgb(0, 0, 0);"></path>


<path id="Vale_do_Anari" fill="#ccccb8" stroke="#000" stroke-width=".25" d="m249.6 295.1-.62-.59-.6.4-.82.22-.38.22-.86-.04-.56-.16-.04.69-.29.78-.48.12.01.75-.24.45-.45.47.32 1.2-.25.27-.65.02-.49-.73-.3.03h-1.1l-.2.41-.7.28-.72.95-.93.22-.9-.42-.58-.54-.1-.5-.75-.74-1.2-.44-.72.1-.08-.82-.28-.55-.04-.49.01-.02.61-.38.37-.4.32-.02.57-.4.45-.02.8.4.77-.32.22-.55.65-.08.51-.43.14-.63.3-.43.58-.29.44-1.12.45-.02.18.61.01.5.4.36.03.64-.2.32-.43-.09-.03.6.55.32-.35.37-.13.56.71.18.95-1.7-.45-.53.5-1.92 1.03.28.53-1.19h1.72l.56-.43.31-.65v-.94l.44.08.45-1.08.3-.05-.2.44 1.22.6.15.52-.11.37-.45.41.57.94.73.5-.04.43.25.17v.88l.34.1-.44.94-.54.51-.36-.08z" data-originalStrokeWidth="0.25" style="shape-rendering: auto; stroke: rgb(0, 0, 0);"></path>


<path id="Vale_do_Paraíso" fill="#ccccb8" stroke="#000" stroke-width=".25" d="m243.68 302.17-.83.83-1.46 5.04-1.07 3.72-2.47-.78.43-1.6-.78-.85 2.44-2.15-.32-.5v-.75l-.12-.33.2-.73.43-.54.84-.34.43-.38.37-.53.7-.53.1-.45.88.49z" data-originalStrokeWidth="0.25" style="shape-rendering: auto; stroke: rgb(0, 0, 0);"></path>

</svg>