<?xml version="1.0" standalone="no"?>
<svg xmlns="http://www.w3.org/2000/svg" id="map" version="1.2" width="800" height="800" viewBox="15 200 150 150"> 

<path id="Acrelândia" fill="#ccccb8" stroke="#000" stroke-width=".25" d="m157.06 296.88 3.24 1.41-.17.8-.35-.12-.33.55-.77.12-1.26.85-.32.49-.57.36-.07.29-.47-.1-.04.36-.38.16-.3.64-.62.24-.08.47-.56.19-.34.57-.01-.48h-1.3v-2.02l-.43.28-.43-2.37.6-.22-.2-.5-1.47-3.87-.04-.32.85-.14.08-.15z" data-originalStrokeWidth="0.25" style="shape-rendering: auto; stroke: rgb(0, 0, 0);"></path>


<path id="Assis_Brasil" fill="#ccccb8" stroke="#000" stroke-width=".25" d="m109.36 309.02-.05.91-.7 1.05-1.8 1.3-.32.75-1.5.18-.4.7.93.82.16-.07.87.23.09.42.42-.26.83.33.4-.13.29.2.56-.35.64-.96-.23-.8v-.86l.43.18.68-.13.75.5.04 1.68-.6 1.77-.97.5-.74-.33-.35.26-.78-.2-.87.33-.44-.1-1.06.4-.36-.17-.37-.46-.91-.25-1.08.09-.5-.18-.84.08-.46.42-1.57.78-.46-.13-.74.68-1.24.54-.7-.1-.72.13-.47.26-1.14-.18-.15-.18-.7-.2-.3-.22-.26-.53-.36-.22-1.01-.87-1.61 1.14v-5.2l1.16-.31.42.15.02.35.86.13.32-.29 1.45.26.7-.3.5.14.43-.29.2.2 1.09-.39.66.08.05-.26.7-.23 1.18-.82.9-.35.49-.45.43.06.5-.15.56-.39.52.3.2-.33.6-.02.1-.49.5-.17.23-.75.36.02.37-.27.26.13.87-.56.3.07.65-.43.17-.3.6-.13.5.34.25.4-.04.57.18.57z" data-originalStrokeWidth="0.25" style="shape-rendering: auto; stroke: rgb(0, 0, 0);"></path>


<path id="Brasiléia" fill="#ccccb8" stroke="#000" stroke-width=".25" d="m121.27 313.18.86 1.65.03.63.9.54.82.67-.02.54-1.08.9-1.1-.43-.32.2-.36-.24-.18.42-.62-.18-.3.27-.37-.29-.27.11-.32-.4-.62.36-.75-.49-.72-.19-.24.16-.42-.22-.62-.08-.79-.26-.26.18-.29-.32-.69.03-.36.15-.63-.03-.45-.22-.63.06-.62-.23.6-1.77-.05-1.67-.75-.5-.68.12-.43-.18v.87l.23.8-.64.95-.56.35-.29-.2-.4.13-.83-.33-.42.26-.09-.4-.87-.24-.15.07-.93-.82.4-.7 1.5-.19.32-.74 1.8-1.3.7-1.05.05-.9 2.94-.36.34-.23.61-.03.7-.28.03-.3.48-.4.64-.28.6-.03.31-.22.06.25-.52 1.2-.19.17.2.63.41.04.81.76.44.57 1.16-.18h1.65l-.06.42-.29.2.18.41-.33.68-.29.02.01.63-.56.72.08.3 1.33.08.4-.3h.44z" data-originalStrokeWidth="0.25" style="shape-rendering: auto; stroke: rgb(0, 0, 0);"></path>


<path id="Bujari" fill="#ccccb8" stroke="#000" stroke-width=".25" d="m132.13 286.71 4.3 1.94-.37.11-.6-.27-.24.16-.25.7.06.35.66.84-.17.57-.79.57-.3.6 3.19 1.98-.22.42.29.33.54.15.19.36 1.22.37-.48.23-.2 1.03.15.33-.44.14-.25-.32-.64.03-.86.18-.73.02-.96.66-.41.05-.54.62-.64.08-.32.47-2.03-2.43-.57-.51-1.18-.25-.41.15-1.12.98.55-2.7-.31-.87-.27-.3.5-.46.16-.95.37-.77.72-.2.34-.46.1-.43-1.23-2.06.6-.43.56-.16.33.09.57-.22.3-.31.37-.04z" data-originalStrokeWidth="0.25" style="shape-rendering: auto; stroke: rgb(0, 0, 0);"></path>


<path id="Capixaba" fill="#ccccb8" stroke="#000" stroke-width=".25" d="m142.43 306.62-.36.53-.42-.11-.1.32-.43.54.54.61 1.07.08.2.42.74.1-.67.43-.08.5-.46.31-.43.61-.28-.17-.5 1.68-.46.24-.49-.48-.58-.16-.66-.46-1.03-.2-.8.28-.56-.1-.23.23-.46-.25-.15-.68.43-.33-.48-.37-.27-.5-.25-1.23-.37-.84.41-.64.26-.34-.22-.32.73-.63.66-.04.24-.47h1.76l.08-.31.52-.8.14-.48.34.27.12.5.43.53.68.35.35.58.2.58z" data-originalStrokeWidth="0.25" style="shape-rendering: auto; stroke: rgb(0, 0, 0);"></path>


<path id="Cruzeiro_do_Sul" fill="#ccccb8" stroke="#000" stroke-width=".25" d="m62.31 257.69 3.96.46-.98 3.2-1.52.95-.39.56-.83.77-.47.16-.57.51-.19.8-.37.27-.2.63-.15 3.34-.3-.88-.33-.09-.3.42-1.37.44h-.37l-.77-.4-.82.02-.22-.29-.8-.5-1.22-.05-.7.67-.92-.19-.23.32-.3-.5-.63.07-.27-1.49-.44.24-1.11.93-.5.12-.46.35-.23-.06-.73.24-.21.54-.4.48-.74.22-.37.77-1.36.64-.44.08-2.3 1.7-.57-.2-.52.07-.22-.85-.26-.23-1.07-.27-.4-.23-.57-.59.12-.54-.18-.35v-.57l-.56-.58-.26-.77-.08-.78.1-.34-.15-.45-.68-.67 4.12-.51v-.3l.34-.38.68-.12.3.2.49-.13.52-.63.54-.2.65-.64.52-.17.3.09 1.08-.26-.35.5-.05.33.68.22.62-.2.59-.02.98.26.77-.37.32.04.67-.34 1.3-.3.2-.27.54-.04.14-.36.84-.53.44.17.29-.2.09-.57.27-.31-.1-.38-.36-.45-.14-.57-1.53.54-.94-.65-1.16-.26.09-.27.89.1.38-.07-1.05-.94-.4-.42-.1-.38-.32-.32-.2-1.87 5.58 2.02z" data-originalStrokeWidth="0.25" style="shape-rendering: auto; stroke: rgb(0, 0, 0);"></path>


<path id="Epitaciolândia" fill="#ccccb8" stroke="#000" stroke-width=".25" d="m129.16 318.5-.32.23-.5-.38-.19.24-.74.09-.98 1.07-3.06.6.08-.3-.17-.45-.37-.11-.41-.55-.02-.25.3-.58 1.09-.9.02-.54-.82-.67-.91-.54-.03-.63-.86-1.65.52-.43-.15-.41.14-.38.4-.11.52.1.42-.42.53-.26.89-.24.1.64.68.05.95 1.04.26.44-.44.51.34.42.64.26.5.47.35-.35.43.2.47.52.1.67-.3.23-.07.45.32.43-.06.66.12.63z" data-originalStrokeWidth="0.25" style="shape-rendering: auto; stroke: rgb(0, 0, 0);"></path>


<path id="Feijó" fill="#ccccb8" stroke="#000" stroke-width=".25" d="m104.17 265.82 6.32 5.4-.1.51-.3.23-.67.81-.12.74-.54.92-.16.65-.29.48-.08.56-.63.32-.37.34-.55.01-1.17 1.45-.66.37-.57.98-.55 1.42-.23.42-.45.23-3.98.3-1.83-.11-2.22-.07-.8.33-.68.64-.6 1.19-.28.32-.82.05-.5.56-.79 1.32-.98 1-.03.64-.18.12.14 1.13-1.1-.1-.72.78-.64.12-.36.47h-1.15l-.82 1.04-.86.5-.1.9-1.57.98-.6 1.02-.15.71-.23.18.22.5-.2.66.4.21-.44.42h-.45l-.62.42-.32.74-.43.53-.1.34-.75-.05-.32.26-.81.23-.38-.34-.68.5h-14.2v-.28l.44-.43-.32-.68.59-.78-.44-.88.22-.55.75-.6 1.34-.35.47.2.29-.67.69-.05.42.15.16-.65.63-.32.26-.54.6-.25-.07-.35.59-.7-.03-.59.29-.83h.23l.83-.73.15-.54-.04-1.13.22-.67.24-.13-.04-.58.55-.37.53-.56.4-.9-.14-.43.34-.46v-.54l.23-.38-.16-.36.27-.56.05-.45.39-.69.47-.19.14-.47.82-.44.26-.29.44.02.3.28.5-.13.46.28.48-.43.6-.09.26-.32.29.07.84-.16.16-.35.64-.33.43-.07.69-.48 1.03-.32.07-.2.6-.44.66-.84.13-.35.63-.49.27-.36.26.05.43.64h.32l.28.52.38-.42.92-.1.29-.53.45-.03.27-.69.68-.82-.25-.82.88-.19-.41-.5-.07-.98.97-.74-.15-.53.82-1.37.39-.42-.26-.22.42-.74-.38-.78v-.98l.15-.12-.35-.99-.76-.16-.2-.97.76-.62.29-.37.1-.55.57-.37-.01-.2.56-.3 8.13.93z" data-originalStrokeWidth="0.25" style="shape-rendering: auto; stroke: rgb(0, 0, 0); filter: none;"></path>


<path id="Jordão" fill="#ccccb8" stroke="#000" stroke-width=".25" d="m74.47 280.38-.82.44-.14.47-.47.19-.39.69-.05.45-.26.56.16.36-.22.38-.01.54-.34.46.13.42-.4.9-.53.57-.55.37.04.58-.24.13-.21.67.04 1.13-.15.54-.83.72H69l-.3.84.03.58-.59.7.07.36-.6.25-.26.54-.63.32-.16.65-.42-.15-.69.05-.29.66-.47-.2-1.34.36-.75.6-.39-.26-.7-.14-.99-.52.35-.91.08-.65-.4-.64-.35-.32.12-.93-.15-.25-.57.1-.3-.57.63-.01.55-.37.42-.76.47-.52.7-.46.4.09.71-1.33.4-.45.95-1.7-.42-.4-.03-.33.3-.24.36-1.3-.19-.71.24-.47.01-.55-.13-.46-.3-.2.16-.6-.6-.56v-.36l.5-.2.4-.42.74-.48h.88l1.13.56.77.1.58-.08.54-.36.16-.57.7-.4.58-.64.44-.01.82-.73.92-.2.02.58.22.37.07.5-.55.34-.44.88-.35.29.01.66 1.15-.13.53.4.35-.07z" data-originalStrokeWidth="0.25" style="shape-rendering: auto; stroke: rgb(0, 0, 0);"></path>


<path id="Mâncio_Lima" fill="#ccccb8" stroke="#000" stroke-width=".25" d="m49.4 254.8.2 1.87.33.32.1.38.39.42 1.05.94-.38.07-.9-.1-.08.27-.96-.17-.6.5-.53-.23-1.1-.18-2.39 1.01-1.35 1.17-1-.26.07-.32-1.03-.55-.2.4-.3-.09-1.14.42-.63-.53-.7-.4-2.55.4-.33.55-.82-.66-1.45-.29-.44-.75-.46-.07-.24-.62-.99-.66-.46-.55-.26-.02-.13-.54.76-.17.5-1.08-.2-.7-.5-.84-.13-.47.62.01.38.46.58.08.43-.63.62-.2.41.15.43-.22.41.21.5-.26.34-.58-.29-.5.03-.6-.73-.63-.08-.42-.74-1.1 1.12.4 7.87 2.84z" data-originalStrokeWidth="0.25" style="shape-rendering: auto; stroke: rgb(0, 0, 0);"></path>


<path id="Manoel_Urbano" fill="#ccccb8" stroke="#000" stroke-width=".25" d="m114.58 274.71 5.15 4.42-.2.3-.67.19-.32.4-.6.39-.83.16-.25.62-.47.45-1.16-.24-.43.24-.4.7-.19.79-.4.1-1.65.02-.66.83-.8.43-.46.48-1.77.6-.52-.01-.44.54-.98.48-.4-.12-1.4 1.93-.49-.08.25.82-.6.78h-.53l-.36.75-.03.96-.16.37-.93 1.22.07.3-.33.82-.47.57-.09.33v1l-.77.88-.3.6.1.47-.2.69.11.37-.09.66-1.22 2.84-.44.78-.46.6-1.14 1.13.14.35-.37.53-.27.93v.54l-6.46-.01v-6.11l.7-.91.46-.1.42-.25.52-.76.51-.1.48-.37.32-.66.5-.28 1-1.3.33-.93.52-.32.63-1 .6-.37.18-.48.51-.31.2-.6.7-.68.47-.18.56.08.7-.24.04-.4-2.12-.57-.87-.61-1.18-.31-1.05-.43.61-.55-.06-.43h.48l.2-.45.78-.4.5-.37.64-.01.53.3.7-.12.34.16.5-.07.41-.56.42.15.4-.42.92.07.1-.24 1.01-.76.34-.52.5-.41.2-.41-.47-.57-.2-.9-.23-.23-.39-1.01.45-.23.23-.42.55-1.42.57-.98.66-.37 1.17-1.45.55-.01.37-.34.63-.32.08-.56.3-.48.14-.65.54-.92.12-.74.68-.81.3-.23.1-.51z" data-originalStrokeWidth="0.25" style="shape-rendering: auto; stroke: rgb(0, 0, 0); filter: none;"></path>


<path id="Marechal_Thaumaturgo" fill="#ccccb8" stroke="#000" stroke-width=".25" d="m61.52 277.13 1.24.2.35 2.06.83.7.6.57-.18.6.31.19.13.46v.54l-.25.47.2.71-.37 1.3-.3.24.03.34.42.4-.95 1.7-.4.44-.72 1.33-.39-.09-.7.46-.47.52-.42.76-.55.37-.64.01-.46-.33-1.34-.17-.67.11-.14-.13-.64.17-.13-.26-1.22-.33-.38-.18-.73.04-.35-.27-.37.02-.28-.39h-8.7l.33-.33.13-.58.52-.15.31-.52.68-.31-.19-.4.45-.65.53-.34.2.2.4-.2.47-.63-.23-.4.78-.36.36-.8.07-.59-.3-1.02.31-.24-.47-.31-.5-1.05-.86-.08-.22-.15-.38-.81-.62-.81.02-.41-.3-.37.66-.34.51.2.86-.18.4.05.64-.2.58.28.53-.24.45.08.34-.38.28.12.35-.23.66.05.95-.66.27-.02.66.6.08.5.56.43.98-.15 1.4.19.9-.38.5-.1.71.3.33.25.98-.34.81-.66z" data-originalStrokeWidth="0.25" style="shape-rendering: auto; stroke: rgb(0, 0, 0);"></path>


<path id="Plácido_de_Castro" fill="#ccccb8" stroke="#000" stroke-width=".25" d="m153.66 304.15-.14.4-.73.26-.06.22-.52.2-.25-.15-.48.15-.15.44-.64.4-.94-.4-.53.24-1.1-.18-.07 1.11-.32-.09-.75.08-.37-.17-.4.35.23.48-.45.52-1.93.84-.38.25-.75-.09-.2-.42-1.06-.08-.54-.6.43-.55.09-.33.42.11.36-.53.26-.87 1.04-.53 1.06-.43.05-.4.3-.33.43-.8.33-.32.2-.58.03-.55 1.44-.6h.83l.86-.6 1.53-.77.7-.26.44 2.37.43-.28v2.02h1.3z" data-originalStrokeWidth="0.25" style="shape-rendering: auto; stroke: rgb(0, 0, 0);"></path>


<path id="Porto_Walter" fill="#ccccb8" stroke="#000" stroke-width=".25" d="m60.6 269.35.72.36-.72 1.95.61.34.06 1.88.48.62-.5.8.27 1.84-.76.4-.8.66-.99.35-.32-.25-.72-.3-.5.1-.9.37-1.4-.19-.97.15-.57-.42-.07-.5-.67-.6-.26.01-.96.66-.66-.05-.34.23-.28-.12-.35.38-.44-.08-.54.24-.58-.28-.63.2-.41-.05-.85.2-.52-.22-.65.34-.18-.2-.08-.66-.6-.5-.56-.24-.7.12-.66-.37-.61-.93-.43-.2.28-1.5-.07-.74 2.29-1.71.44-.08 1.36-.64.37-.76.74-.22.4-.48.2-.54.74-.25.22.06.47-.35.5-.12 1.1-.93.44-.24.28 1.5.62-.08.3.5.24-.32.91.2.71-.68 1.22.04.8.51.22.3.82-.03.77.4h.37l1.36-.44.31-.42.33.1z" data-originalStrokeWidth="0.25" style="shape-rendering: auto; stroke: rgb(0, 0, 0);"></path>


<path id="Rio_Branco" fill="#ccccb8" stroke="#000" stroke-width=".25" d="m128.63 292.06-.16.95-.5.46.27.3.31.87-.55 2.7 1.12-.98.41-.15 1.18.25.57.51 2.03 2.43.32-.47.64-.08.54-.62.41-.05.96-.66.73-.02.86-.18.64-.03.26.32.44-.14-.15-.33.2-1.03.47-.23.03.36.9-.75.71.84-.27.33.14.54.45-.05.56.52.72-.07.55-.39.23.23.74.17.23.46-.06.37.61.36-.25.88.08.44-.3.42-.32-.08-.59.67-.36.2-.52-.38-.48.2-.16.37-.43.38-1.2.12-.63-.01-.72-.36-.24.58.42 1.37-.14.48-.52.79-.08.3h-1.76l-.24.48-.66.04-.73.63.22.32-.26.34-.5-.1-.4-.35-.56.2-.44-.08-.94.07-.6.22-.65.03-.15.25-.59.28-.19-.44-1.1-.25.57-.38.07-.46-.44-.36-.7-.08-.04-.73-.57-.23-.08-.66.2-.42-.4-.1-.09.52-.34.23-.05.37-1.08.53-.18-.13-.93.6-.36-.04-.68.43-.1.41-.43.21-.2.38H116l-.3.22-.6.03-.65.28-.48.4-.04.3-.69.28-.6.03-.35.23-.39-.39.38-1.07.55-.68 2.45-1.37.91-.3 1.48-1.86 2.7-1.8 1.47-1.78 1.9-1.33.5-.8-.48-1.6-.13-1.27.5-2.1.68-.79.45-.18.12.58.3.02 1.24.87.46-.3.38-.45z" data-originalStrokeWidth="0.25" style="shape-rendering: auto; stroke: rgb(0, 0, 0);"></path>


<path id="Rodrigues_Alves" fill="#ccccb8" stroke="#000" stroke-width=".25" d="m50.1 258.98 1.16.26.94.65 1.53-.54.14.56.37.45.1.38-.28.31-.09.57-.29.2-.44-.17-.84.53-.14.36-.53.04-.2.28-1.3.3-.68.33-.32-.04-.77.37-.98-.26-.59.03-.62.2-.68-.22.05-.33.35-.5-1.07.25-.3-.09-.53.17-.65.64-.54.2-.52.63-.49.13-.3-.19-.68.12-.33.38v.3l-4.13.5.1-.66-.4-.34-.47.1-.38-.85-.87-.13-.08-.52-.34-.32.31-.28-.23-.34 1.1.04.35-.5.03-.96-.2-.33.33-.55 2.54-.4.71.4.63.53 1.14-.42.3.1.2-.4 1.03.54-.07.32 1 .26 1.35-1.17 2.38-1 1.12.17.51.23.62-.5z" data-originalStrokeWidth="0.25" style="shape-rendering: auto; stroke: rgb(0, 0, 0);"></path>


<path id="Santa_Rosa_do_Purus" fill="#ccccb8" stroke="#000" stroke-width=".25" d="m103.06 281.67.39 1 .23.23.2.9.47.57-.2.41-.5.42-.34.52-1.01.76-.1.24-.93-.07-.4.42-.42-.15-.42.56-.49.07-.34-.16-.7.13-.53-.31h-.64l-.5.39-.78.39-.2.46-.48-.01.06.43-.6.55 1.04.43 1.18.3.87.62 2.12.58-.04.39-.7.24-.56-.08-.48.18-.7.69-.19.59-.5.3-.19.48-.6.39-.63.99-.52.32-.34.94-1 1.29-.49.28-.32.66-.48.38-.5.09-.53.76-.42.26-.46.09-.7.9v-4.36l.14-.48.38-.03.25-.46.3.2.4-.37.18-.74-.25-.79-.54-.37-.46-.95.22-.56 1.3-1.66-.17-.42.48-.3v-.27l-.95.16-.38-.04-.5.5-.46.2-.18.4-.3.1-.17.4-.57.23-.64.57-.3-.08-.17.66-.53.25-.07.3-.85.44-.54.15-.2.41-.8.95h-.48l-.39.36-.4 1h-.75l-.68.16-.4-.2.2-.66-.22-.5.23-.18.16-.71.6-1.02 1.57-1 .1-.88.86-.5.82-1.04h1.15l.36-.47.64-.12.72-.78 1.1.1-.14-1.13.18-.12.03-.64.98-1.01.78-1.32.51-.56.82-.05.27-.32.61-1.2.67-.63.81-.33 2.22.07 1.83.1z" data-originalStrokeWidth="0.25" style="shape-rendering: auto; stroke: rgb(0, 0, 0);"></path>


<path id="Senador_Guiomard" fill="#ccccb8" stroke="#000" stroke-width=".25" d="m151.5 299.56-.71.26-1.53.77-.86.61h-.84l-1.44.6-.03.55-.2.58-.33.32-.42.8-.3.33-.06.4-1.06.44-1.04.52-.26.87-.83-.2-.2-.59-.35-.58-.68-.35-.43-.54-.12-.49-.34-.27-.42-1.37.24-.58.72.36.63.01 1.2-.12.43-.38.16-.36.48-.2.52.38.36-.2.6-.66.3.07.31-.42-.08-.44.25-.88.55-.16.24-.65v-.8l.54-.54.69-.4.63-1.08-.08-.67.2-.38-.24-.66.24-.57 3.37 1.47-.08.15-.85.14.04.32 1.47 3.88.21.5z" data-originalStrokeWidth="0.25" style="shape-rendering: auto; stroke: rgb(0, 0, 0);"></path>


<path id="Sena_Madureira" fill="#ccccb8" stroke="#000" stroke-width=".25" d="m132.13 286.71-.47.36-.36.04-.3.31-.58.22-.33-.08-.55.16-.6.43 1.22 2.06-.1.43-.34.46-.72.2-.37.77h-.86l-.38.45-.46.3-1.24-.86-.3-.02-.12-.58-.45.18-.69.79-.49 2.1.13 1.26.47 1.6-.5.8-1.89 1.34-1.48 1.78-2.69 1.8-1.48 1.85-.9.3-2.46 1.38-.55.68-.38 1.07.4.39-2.95.35-.44-.36-.18-.57.04-.58-.25-.4-.5-.33-.6.12-.17.3-.65.44-.3-.07-.87.56-.26-.13-.37.27-.36-.02-.23.75-.5.17-.1.49-.6.02-.2.33-.52-.3-.56.39-.5.15-.43-.06-.48.45-.9.35-1.19.82-.7.23-.05.26-.66-.08-1.08.39-.2-.2-.43.29-.5-.15-.7.3-1.46-.25-.32.29-.86-.13-.02-.36-.42-.15-1.15.3v-4.95h6.45l.01-.53.27-.93.37-.53-.14-.35 1.14-1.12.46-.61.44-.78 1.22-2.84.1-.66-.12-.37.2-.7-.1-.46.3-.6.77-.87v-1.01l.1-.33.46-.57.33-.81-.07-.31.93-1.22.16-.37.03-.96.36-.75h.53l.6-.78-.25-.82.5.08 1.4-1.93.4.12.97-.48.44-.54.52.02 1.77-.61.46-.48.8-.43.66-.83 1.65-.01.4-.11.18-.8.4-.7.43-.23 1.16.24.47-.45.25-.62.84-.16.6-.38.31-.41.67-.2.21-.28 4.85 4.16z" data-originalStrokeWidth="0.25" style="shape-rendering: auto; stroke: rgb(0, 0, 0);"></path>


<path id="Tarauacá" fill="#ccccb8" stroke="#000" stroke-width=".25" d="m74.47 280.38-.37-.26-.35.08-.53-.41-1.15.12v-.66l.34-.29.44-.88.55-.33-.07-.5-.22-.38-.02-.57-.92.2-.82.72-.44.01-.58.64-.7.4-.16.57-.54.36-.58.1-.77-.12-1.13-.55h-.88l-.74.47-.4.42-.5.2v.36l-.83-.7-.34-2.06-1.24-.19-.28-1.84.51-.8-.48-.62-.06-1.88-.6-.34.71-1.95-.72-.36.15-3.34.2-.63.37-.27.2-.8.56-.5.47-.16.83-.77.4-.56 1.51-.95.98-3.21 5.3.62 4.67.54 5.18.6 6.25.72 3.9.45-.57.29.01.2-.56.38-.1.55-.3.37-.75.62.2.97.75.16.35.99-.15.12v.98l.38.78-.42.74.26.22-.39.42-.82 1.37.15.53-.97.74.07.98.41.5-.88.19.25.82-.68.82-.27.69-.45.03-.29.52-.92.1-.38.43-.28-.52h-.32l-.43-.64-.26-.05-.27.36-.63.49-.13.35-.66.84-.6.44-.07.2-1.03.32-.69.48-.43.07-.64.33-.16.35-.84.16-.29-.07-.26.32-.6.09-.48.43-.46-.28-.49.13-.3-.28-.45-.02z" data-originalStrokeWidth="0.25" style="shape-rendering: auto; stroke: rgb(0, 0, 0);"></path>


<path id="Xapuri" fill="#ccccb8" stroke="#000" stroke-width=".25" d="m135.3 306.98-.4.64.37.84.25 1.23.27.5.48.37-.43.33.15.68-1.31.64-.51.53.02 1.02-.88.85-.93 1.06-.02.37-.38.33-.18.65-.7.56-.5.04-.42.37-.26-.15-.7.25-.05.4-.24-.19-.12-.63.06-.66-.32-.43.07-.45.3-.23-.1-.67-.47-.52-.43-.2-.35.35-.5-.47-.64-.26-.34-.42.44-.5-.26-.45-.95-1.04-.67-.05-.11-.64-.9.24-.52.26-.42.42-.52-.1-.4.1-.14.38.15.41-.52.43-.32.32h-.44l-.4.31-1.33-.08-.08-.3.56-.72-.01-.63.29-.02.33-.68-.18-.42.29-.19.06-.43-1.65.01-1.16.18-.44-.57-.81-.76-.42-.04-.2-.63.2-.17.52-1.2-.06-.25h7.33l.2-.38.43-.2.1-.42.69-.43.36.04.93-.6.18.13 1.08-.53.05-.37.34-.23.09-.53.39.11-.2.41.09.66.57.23.03.73.7.09.45.36-.07.46-.58.38 1.1.25.2.44.59-.28.15-.25.65-.03.6-.22.94-.07.44.08.55-.2.4.35z" data-originalStrokeWidth="0.25" style="shape-rendering: auto; stroke: rgb(0, 0, 0);"></path>


<path id="Porto_Acre" fill="#ccccb8" stroke="#000" stroke-width=".25" d="m136.44 288.65 3.73 1.7 4.4 1.98 3.37.56h0l-.24.57.24.66-.2.38.07.67-.63 1.08-.69.4-.54.54.02.8-.24.65-.55.16-.62-.36.06-.37-.23-.46-.74-.17-.23-.23-.55.4-.72.06-.56-.52-.45.05-.14-.54.27-.33-.72-.84-.89.75-.02-.36-1.22-.37-.2-.36-.53-.15-.3-.33.23-.42-3.2-1.98.32-.6.79-.57.17-.57-.66-.83-.06-.35.25-.7.24-.16.6.27z" data-originalStrokeWidth="0.25" style="shape-rendering: auto; stroke: rgb(0, 0, 0);"></path>

</svg>