<?xml version="1.0" standalone="no"?>
<svg xmlns="http://www.w3.org/2000/svg" id="map" version="1.2" width="800" height="800" viewBox="350 30 150 150"> 

<path id="Serra_do_Navio" fill="#ccccb8" stroke="#000" stroke-width=".25" d="m418.58 80.25-.44.23.05 1.44-.48.95.02.46.48.53-.08.99.21 1.1.34.55.04.71.15.15-.37 1.22.13.57-.3.65-.48.44.12.2.1 1.3-.15 1.3.13.66.44.55-.02.55-.3.7.06.71.28.66-.12.5-.3.34.15.85.5.56-.14.75.43.17.06.55-.24.1.02.8-.16.82.33.16-.06.75.28.8-.09.68.56-.1.22.32.35-.27.76.36.63-.06.1.4.33.23.01.48-.53.34-1.13.34-.48 1.24-.38.34-.6-.2-.67.05-.5-.4.17-1 .42-.4.11-.48-.2-.3-.34.08-.43-.19-.55.35-1.04-.5-.53.12-.14-.58-.37-.32-.94-.13-.6-1.22-.42-.19-.43.06-.22-.74-.74-1.04-.39-.18-.23-.5-.84-.07.24-.33.02-.47.53-.69-.44-.5.03-.78-.42-1.52.26-.17-.42-.4.41-.34-.54-1.2-.42-.22-.38-.78.04-.35-.59-.2-.28-.52-.82-.56-.2-.49-.75-.29-.36-.36-.54-.06-.28-.36-.27-.68.07-.54-1.5-1.2.2-.29.5-.2-.08-.53.35-.04.3.23.63-.12 1.1.2 1.12.6.4.35.96-.15.1.21 1.18-.49.81-.14.58.17-.16-.79.1-.22.75-.45.22-.4.64-.3.67.02.51-.2.15-.58-.1-.66.32-.46.67.05.17-.58.6-.2.56-.9-.1-.23.2-.56h.5l.43.17.25-.79z" data-originalStrokeWidth="0.25" style="shape-rendering: auto; stroke: rgb(0, 0, 0);"></path>


<path id="Amapá" fill="#ccccb8" stroke="#000" stroke-width=".25" d="m446.26 86.03.8-.04.19.34.6.61-.03.63.72.83.08.5-.88 1.01-1.03.4-.52-.38-.2-.6-.43-.75-.15-.52-.4-.2.3-1.56.64-.1zm-4.13-.6.03.17.7.37.8.87-.05.4.31.9.43.6.58.47.3.73.6.88.9.6.88.05.87-.25.62.14 2.31-.06.47.26 1.77.65 1.31.7.66.58.36 1.5.03.8.3 1.01.1 1.37-.14 1.47-.35.78.05.98-1.53.33-.95.13-.45-.05-.94.23-.44-.3.03-.4.34-.65-.13-.87-.51.03-.95-.13-1.12.3-.42.47-.08.34.4.76.02.37-.46.58-.54.15-.52-.05-.5-.4-.48.09.04-.68-.25-.25-1.14-2.18-1.07-1.93.44-.34-.1-.29.08-.69-.07-.89-.7-1.46.2-.59-.29-.34-.47-.06-.09-.58-.29-.45-.14-.63h-.85l-.69.24-.35-.25-.39.07-.5.71-.3-.47-.3.03-.64-.37-.59.16-.75-.08-.4-.2h-.45l-.76-.53-1.27.33-.5-.25-.3-.36-.53-.13-.45.05-.52.28-.47-.37h-.39l-.4.5-.96.33-.1.55-.24.38-.68.5-.44-.1-.65-.68-.95-.73h-.35l-.66-.58-.95.15.02-.89-.23-.47.5-.74.73-.5-.22-.45.54-1.16.8 1.32.56.28.33-.12.19-.4.4-.18.55.34.3.4.35.06 1.67-1.09.7-.36.27-.46.32.1.83-.53.5-.02.25-.24h.43l.3-.28 1.65.5.4-.36.8.4.75-.25.21.41.31.03.52-.66.46.13.2.4.58.5.26-.5.34.21zm3.1-.74.8.05.7.62.02.5-.63.06-.19.2-.69.07-.34-.6-.4-.3.47-.55z" data-originalStrokeWidth="0.25" style="shape-rendering: auto; stroke: rgb(0, 0, 0);"></path>


<path id="Pedra_Branca_do_Amapari" fill="#ccccb8" stroke="#000" stroke-width=".25" d="m422.13 106.06.56-.32.12.42-.93.66-.12.4.86.46.07.34.36.35.1.63.6 1.3.35.57-.25.28-.1.7-.28.51-.23-.55-.32-.13-.34.34-.24-.22.06-.39-.26-.2-.72.32-.46-.69-.87.26-.92-.1-.64.06-.72.51-.86.08-.17.56-.83-.19-.33.3-.2.48-.74.16-.42.53-.18.6-.69.4-.08.4-.6.78-.69-.63-.16-.54-.37-.2.06-.62-.44-.44-.33-.04-.42-.78-.4-.46.05-.53-.57-.44-.24-.42-.39-.07-.27-.3-.46.07-.15-.38-.76-.58.03-.67-1.64.11.1-.52-.78-.57-.56.19-.24-.4.22-.57-.75-.65-.2-.58-.02-.72-.2-.15-.07-.7-.64-.47-.52-.2-.22-1.41.34-1.05.46-.23-.01-.7.23-.7.47-.63.34-.9-.03-.42.13-.92-.1-.27-.48-.37-1.21-.04-.46-.87-.04-.72.34-1.23-.3-.67-.4-.55.3-.63-.53-.55-.01-.37-.45-.7-.12-.58.3-.53.59-.03.17.42.84.15.66-.03.24-.3-.14-.77.23-.35.49.07 1.5 1.2-.07.54.27.69.28.36.54.06.36.36.75.29.2.49.82.56.28.52.59.2-.04.35.38.78.42.22.54 1.2-.41.34.42.4-.26.17.42 1.52-.03.77.44.5-.53.7-.02.47-.24.33.84.06.23.5.39.19.74 1.04.22.74.43-.06.4.19.62 1.22.94.13.37.32.14.58.53-.13 1.04.5.55-.34.43.19.33-.1.2.32-.1.48-.42.4-.17 1 .5.4.66-.05.6.2.39-.34.48-1.24 1.13-.34z" data-originalStrokeWidth="0.25" style="shape-rendering: auto; stroke: rgb(0, 0, 0);"></path>


<path id="Calçoene" fill="#ccccb8" stroke="#000" stroke-width=".25" d="m442.13 85.42-.45.15-.34-.21-.25.5-.6-.5-.18-.4-.46-.12-.52.66-.31-.03-.21-.41-.75.24-.81-.4-.4.36-1.64-.5-.3.28h-.43l-.25.24-.51.02-.83.53-.32-.1-.26.46-.71.36-1.67 1.1-.35-.07-.3-.4-.54-.34-.41.17-.2.41-.32.12-.56-.28-.8-1.32-.54 1.16.22.45-.73.5-.5.74.23.47-.02.9-.48 1.02-.18.21-.23 1-.18.27.08.41-.22 1.13-.41 1-.73.33-.35.67-.4.22-.8.97-.1.41-.9 1-.53-.18-.34.6.08.4-.38.42-.43-.17.13-.75-.5-.56-.16-.85.31-.35.12-.49-.28-.66-.06-.72.3-.69.02-.55-.44-.55-.13-.66.14-1.3-.09-1.3-.12-.2.47-.44.32-.65-.13-.57.37-1.22-.15-.15-.04-.7-.34-.56-.21-1.1.08-1-.48-.52-.02-.46.48-.95-.05-1.44.44-.23.36.55.19-.18.52.16.05.41.4.12.26.36.49.28.37-.15.26-.36.05-.49.49.43.43-.27.48.13.37-.76.36-.2.69-.88.19-.79.46-.1.24-.57-.32-.32.3-.6.6-.74.66-.65.29-.62.34-.44.26-.84-.15-.33.79-.26.29-.57.53-.24.2-.52-.28-.4.84-1.12-.1-.4.7-.53.89-.3.38-.43-.07-.48.44.08.4-.3-.03-.79-.16-.2.54-.47.56-.18.12-.7.19-.5.02-.79-.32-1.69.18-1.68-.1-1.69-.2-.6.12-1.02.16-.44.34-2.24.22-.8h.87l.37.5-.18 2.6.09 2.58.07.57-.16 1.4-.32.53.4 1.77.38 1.1.57 1.31-.21 1.41.54.86-.12.6.39.72.27 1.3.6 1.1-.08.67.16.34.69.64v.44l.33.2.12 1.08.22.13.36.65.06.7.49 1.73.4.08.42.8.04.81.38.96.1.78.32.37-.04.62.68 1.1z" data-originalStrokeWidth="0.25" style="shape-rendering: auto; stroke: rgb(0, 0, 0);"></path>


<path id="Cutias" fill="#ccccb8" stroke="#000" stroke-width=".25" d="m453.04 101.8-.44 1.06-.34.32-.5.17-.16.48-.52.08-.2.33.06.5-2.14 1.89-.36-.01-.25.33-.28-.15-.42.17-.35-.19-.35-.45-.8.76-.6-.18-.08.31-.54.66h-.76l-.53-.33-.26.4h-.69l-.22.47-.76.45-.91-.1-.47-.36-.42.3-.53.14-.68.37-.52-.1-.63-.45.02-.57.23-.55.42-.07v-.52l-.17-.27.55-.93.34.58.34.12.5-.13.3-.33-.12-.34.36-.54.8-.21h.58l.36-.28.26.07.35.47.51-.05-.19-.76.21-.3.61-.04.4.26.34-.26.51.88.75-.47.3-.48-.06-.45.18-.63.67-.54.48-.08.5.39.52.05.54-.15.46-.59-.02-.37-.4-.76.08-.34.42-.47 1.12-.29.95.13.5-.03.14.87-.34.65-.03.4.44.3z" data-originalStrokeWidth="0.25" style="shape-rendering: auto; stroke: rgb(0, 0, 0);"></path>


<path id="Ferreira_Gomes" fill="#ccccb8" stroke="#000" stroke-width=".25" d="m438.44 105.75-.55.93.17.27v.52l-.42.07-.23.55-.02.57.63.45.52.1-.5.54.2.45-.17.24-1.07.57-.38.91.13.7-.22.56.24.41.63.46.46.17-.28.32-.62-.12-.45.12-.24.71-.3.05.04.45-.32.08.07-.22-1.02-.7-.54-.73-.3-.84-.9-.55-.92-.3-.5-.37-.59-.1-.77-.34-.22-.67.22-.47.33-.24-.26-.78-.3.2.03.38-.46.2-.52-.22-.52-.37-.46-.67-.1-.84-.45-.42-.48.01-1.36.77-.21-.54.43-.44.12-.6-.77-.54-.43-.1-.04-.49-.85-.1-.46.27-.76-.28-.56.32-.01-.48-.34-.24-.1-.39-.62.06-.76-.36-.35.27-.22-.32-.56.1.09-.68-.28-.8.06-.75-.33-.16.16-.82-.02-.8.24-.1-.06-.55 8.66-.13 1.97.02-.3.94-.36.1-.31.5.15.86-.17.1v.67l-.15.52-.52.47.29.35.68.11.38.2-.05.93.47.43.09.4.46-.13.16-.42.7-.14.16.25.56-.06.49.35.92-1.34.56.07.4.37.72-.26.92.33-.01.28.6.87.25-.2.1-.52.66-.22z" data-originalStrokeWidth="0.25" style="shape-rendering: auto; stroke: rgb(0, 0, 0);"></path>


<path id="Itaubal" fill="#ccccb8" stroke="#000" stroke-width=".25" d="m446.98 112.3-.47.42-.54 1.22-.17.87-.49.82-.35 1.1-.52 1.06-.47.75-.35.37-.8.72-1.06-1.58.01-.77.3.06.05-.74-.43-1.05-.76-.74-.44-1.13-.55.34-.29-.47-.75-.45-.7.19-.07-.6-.27-.84-.27-.37.58-.3.3.22.72-1.43.4.06.33.54.55.45.01.2.53.74h.6l.22.54.91.1.31-.32.27-1.2-.08-.74.12-.31.6.17.18-.5 1.28.29.3.43h.42l.35.79-.1.42z" data-originalStrokeWidth="0.25" style="shape-rendering: auto; stroke: rgb(0, 0, 0);"></path>


<path id="Laranjal_do_Jari" fill="#ccccb8" stroke="#000" stroke-width=".25" d="m396.25 84.67.57.62.78.31 1.12.58.14 1.47.27.18.1.48.3.06.27.47.34.07.12.58.45.69.01.36.53.56-.29.64.4.55.3.66-.35 1.23.04.71.46.87 1.21.04.5.38.08.27-.13.92.03.43-.34.89-.47.63-.23.7.01.7-.46.23-.34 1.05.22 1.4.52.2.64.48.07.7.2.15.03.72.2.58.74.65-.22.58.24.39.56-.18.78.57-.1.52-.02.3.52.42.7.28.18.7-.16.43-.14 1.13.2 1.02.33.7.9.84.12.43.6 1.08-.04.46.7.79.67.9.11.59-.25.4.22.74-.18.4-.28 1.8.2.77v.65l-.52.84.1.27-.47.3.05.88.55-.07.4-.45.64-.16.47.03 1.48.62.26.49.11.58.8.86.88.13.7-.05.91.5.35.1.51.7.27.1-.1.83.1 1.14.23.22.03.56-.3.4.15.6.48 1-.14.64.6.7.61.12.15.65.77.77-.05.66-.34.67.35.49-.68-.06-.14.19-.84.42-.56.38-.38-.25-.87.1-.32-.25-.83-1.17-1.19-.56-.35-.08h-1.52l-1.47.56-.98.47-.47.03-.08-.39.44-.47-.02-.6.3-.5.07-.63-.23-.57-.05-1.05-.39-.81-.73.04-.64.33-.48-.18-.98-1.56.08-.34-.2-.32.41-.63-.33-.54.28-.94-.04-.45-.3-.38h-.27l-.67-.54-.1-.44-1.35-.9-.27-.64-.36-.13-.57.2-.5-.21-.49-1.4-.16-.24-.25-1.47-.56-.46.07-.63-.32-.17-.4-.93-.75-.67-.2-.74.2-.38-.3-.5-.36-.16-.09-.53-.68-.98.24-.3-.1-.84.21-.6-.26-.24.32-.68-.05-.55.13-.66.44-.52.3-.88-.33-.31-.4-.05-.19-.51-.48-.33-.1-.37-1.15-.72-.57-.65-.6-.46-1.59-1.01.01-.94-.28-.18.08-.73-.24-.46-.35-.31-.06-1 .26-.31.75-.05.1-.44-.38-.42-.15-.41-.84-.23-.9.48-.38-.3.4-.57-.52-.34-.17-.46.52-.28-.1-.33-1-.3-.67.19-.56-.5-.65-.04-.2-.33-.34.18-.9-.3-.72.24-1.13-.32.2-.43-.34-.41-1.26-.52-.16.22-.46-.2.04-.38-.36-.2-.56.39-.3-.12-.53-.88-.33-.13.27-.46-.73-1-.75-.23-.26.14-1.1-.75-.12-.3-1.45-.86-.92-.1-.95.02-.68.2-.6-.35-1.27-.31-.74.28-.49.05-.42-.14-.88-.04-.17-.4.28-.46-.26-.47v-.43l-.3-.9.25-.85-.23-.38-.6-.53-.06-2 .68-.74.1-.38-.87-1.13.27-.91-.2-.42-1.19-1.3.05-.33 1.32-.1.94-.57 1.05.44-.13 1.5.53.62 1.07-.18 2.92 2.25 4.37.55 3.32-.91.47-.04.7-.48-.12-.33.96-.36.07-.31.43-.07.28.19.78-.98.57-.25.45.07.3.46-.42.64h.94l.7.5h1.02l.25.27.6.19.53-.14.83.17.21-.61.37.19 1.3-.71.12-.51.65.04.27.52.44.14.95.84-.83.66z" data-originalStrokeWidth="0.25" style="shape-rendering: auto; stroke: rgb(0, 0, 0);"></path>


<path id="Macapá" fill="#ccccb8" stroke="#000" stroke-width=".25" d="m455.96 101.4.12 1.02.2.23-.05 1.02.03 1.13-.09.6-.67.51-.29.45-.8.35-.24.58.25.56-.56.28-.29.47-1.07 1.15-.99.31-.23-.08-.96.2-.19.23.1.6-1.82.38-.53.26-.9.65-.59-.67.1-.42-.35-.8h-.42l-.3-.43-1.28-.28-.18.5-.6-.18-.12.31.08.75-.27 1.2-.3.32-.92-.1-.23-.54h-.59l-.53-.75v-.2l-.56-.45-.34-.54-.39-.06-.72 1.43-.3-.2-.58.28.27.37.27.84.06.6.71-.19.75.45.3.47.54-.34.44 1.13.76.74.43 1.05-.06.74-.29-.06v.77l1.05 1.58-.4.42-1.35.97-.73.32-2.4.64-.96.61-.39.67-.36.25-.9 1.21-.88.33-.4-.72-.07-.42.68-.38.02-.2h-1.74l-.56-.32-.15-.53.35-.2.52-.69.15-.64-.07-.39-1-.27-.42.14-.35-.72-.62-.4-.36-.73-.78-1.2-.45-.55-.55-.07-.3-.98-.53-.73.34-.14.23-.53.63.04.25.34.75-.04.65.35.4-.13.58.36h.24l.48.88.33.1.17.36-.08.62.1.46.53.18.71-.49.35-.73v-.32l.41-.6.57-.26.23.34.32-.08-.05-.45.31-.05.24-.7.45-.13.62.12.28-.32-.46-.17-.63-.46-.24-.4.22-.57-.13-.7.38-.9 1.07-.58.16-.24-.2-.45.51-.54.68-.37.53-.13.41-.3.47.36.91.1.76-.45.23-.47h.7l.25-.4.53.32.76.01.54-.66.08-.3.6.17.8-.76.34.45.35.2.42-.18.28.15.25-.34.36.01 2.14-1.88-.06-.5.2-.34.52-.08.16-.47.5-.18.34-.32.44-1.05.45.05.95-.13z" data-originalStrokeWidth="0.25" style="shape-rendering: auto; stroke: rgb(0, 0, 0);"></path>


<path id="Mazagão" fill="#ccccb8" stroke="#000" stroke-width=".25" d="m412.71 115.67.2.86.33.11.4-.26.25.4.81.07-.05-.45.64-.9.03-.28.63-.19.34-.3.98-.36 1.07.64.17-.15 1.56.58.77-.05.48.25.8-.29.4.12.58.66.4.1.37-.16.35.22.18.8-.13.57.37.32 1.76 1.3.08.2-.07 1.28.55 1 .2.67.71.22.03.18.72.3.24.8.57.51 1.36.33.15-.14 1.75.23.17.52-.48.47-1.19 1.93-.36.2-.44.63-.26 1.21-1.08 1.21-.16.65-.44.71-.5.58-.52.36-1.42 1.49-.68 1.07-.87 1.5-.65.22-.17.3v.59l-.7.17-.7-.1-.25.83-.25-.01-.79-.51-.99-.17-.35-.5.34-.66.05-.66-.77-.77-.15-.65-.62-.12-.59-.7.14-.64-.48-1-.16-.6.31-.4-.03-.56-.24-.22-.09-1.14.1-.82-.27-.11-.5-.7-.36-.1-.92-.5-.69.05-.89-.13-.79-.86-.1-.58-.27-.5-1.48-.61-.47-.03-.65.16-.39.45-.55.07-.05-.87.46-.31-.09-.27.51-.84v-.65l-.19-.76.28-1.81.18-.4-.22-.73.25-.41-.1-.6-.69-.9-.69-.78.04-.46-.6-1.08-.12-.43-.9-.84-.33-.7-.2-1.02.14-1.13.16-.42-.19-.7-.69-.28-.52-.43.02-.3 1.64-.11-.03.67.76.58.16.38.46-.07.27.3.4.07.23.42.57.44-.05.53.4.46.42.77.33.04.44.45-.06.6.37.21.16.54z" data-originalStrokeWidth="0.25" style="shape-rendering: auto; stroke: rgb(0, 0, 0);"></path>


<path id="Oiapoque" fill="#ccccb8" stroke="#000" stroke-width=".25" d="m433.88 54.13-.22.81-.35 2.25-.16.44-.12 1 .21.61.1 1.7-.19 1.67.32 1.7-.02.78-.19.5-.12.7-.56.18-.54.47.16.2.04.78-.4.31-.45-.08.07.48-.38.44-.89.3-.7.53.1.39-.84 1.12.28.4-.2.53-.53.24-.29.57-.79.25.15.33-.26.84-.34.44-.29.62-.65.65-.6.75-.3.6.31.32-.24.57-.46.1-.19.78-.69.87-.36.2-.37.77-.48-.13-.43.28-.49-.43-.05.49-.26.36-.37.15-.49-.28-.25-.36-.4-.12-.06-.41-.52-.17-.19.18-.36-.55h-.53l-.25.8-.44-.18h-.5l-.2.57.11.22-.56.9-.6.2-.17.59-.67-.05-.32.46.1.66-.15.57-.5.2-.68-.02-.64.3-.22.4-.76.45-.09.23.16.79-.58-.17-.8.14-1.19.49-.1-.21-.96.15-.4-.35-1.12-.6-1.1-.2-.64.12-.29-.23-.35.04.07.53-.5.2-.19.28-.49-.06-.23.35.14.77-.24.29-.66.04-.84-.15-.17-.42-.59.03-.3.53-.34-.07-.27-.47-.3-.06-.1-.47-.27-.18-.14-1.48-1.12-.57-.78-.31-.57-.62.64-.38.4.25 1.44-.33.96-.01.56.4 1 .24.15.14.87-.22.07-.24.54.1.56-1.23.32-.1.21-.48.68-.15.45-.32 1.1-.46.11-.26.87-.27.07-.53.36-.72.36-.02v-.53h.33l.57-.72.08-.54.6-.63-.5-1.01.45-.21.96-1.98-.04-.32.58-1.21.44-.76.53-.1-.09-.58.43-.78.15-.73.61-.96-.3-.47-.12-.44.4-.78.52-.2-.06-.38.18-.47.75-.43.3.18.78-1.1 1.2-2.14.46-.67.15-.5.45-.52.74-1.32.54-.58-.08-.28.37-1.11.3-.26.54-.04.16-.41-.19-.38.51-.55.42-.1.31-.51.58-.46.44-.5.31-.67-.02-.7.65-.65 1.23-.61.35-.32.33-1.4.05-.76.23-.34-.03-.54-.46-.73-.48-1.16-.05-.6.28-1-.1-.54.56-.97 2.22 1.08.46.19 1.62 1.27 1.32 1.42.64.6.35.6.83 1.18.5 1.29.22 1.17-.09.85.03.77z" data-originalStrokeWidth="0.25" style="shape-rendering: auto; stroke: rgb(0, 0, 0);"></path>


<path id="Porto_Grande" fill="#ccccb8" stroke="#000" stroke-width=".25" d="m435.7 115.83-.23-.34-.58.26-.42.6.01.32-.35.73-.7.5-.54-.19-.1-.46.08-.62-.17-.36-.33-.1-.48-.88h-.24l-.59-.36-.39.13-.65-.35-.75.04-.25-.34-.63-.04-.23.53-.34.14-.3.2-.08.48-.37.18.15 2.15-.35.64.02.45-.4.33-.09-.19-1.76-1.3-.37-.32.13-.57-.18-.8-.35-.22-.38.17-.39-.1-.58-.66-.4-.12-.8.29-.48-.25-.77.05-1.56-.58-.17.15-1.07-.64-.98.35-.34.3-.63.2-.03.28-.64.9.05.45-.8-.08-.26-.4-.4.27-.33-.11-.2-.86.6-.78.09-.41.69-.4.18-.6.42-.52.74-.16.19-.48.33-.3.83.19.17-.57.86-.07.72-.51.64-.06.92.1.87-.26.46.69.72-.33.26.2-.06.4.24.22.34-.34.32.13.23.55.29-.52.09-.7.25-.27-.35-.57-.6-1.3-.1-.63-.35-.35-.07-.34-.86-.46.12-.41.93-.66-.12-.41.76.28.46-.28.85.1.04.49.43.1.77.55-.12.6-.43.44.2.54 1.36-.77.49-.01.46.42.09.84.47.67.52.37.52.22.46-.2-.04-.4.3-.18.26.78-.33.24-.22.47.22.67.77.33.58.1.51.37.91.3.9.56.31.84.54.72 1.02.7z" data-originalStrokeWidth="0.25" style="shape-rendering: auto; stroke: rgb(0, 0, 0);"></path>


<path id="Pracuúba" fill="#ccccb8" stroke="#000" stroke-width=".25" d="m444.31 97.28-5.3-2.12-.85.11-.45-.57-.43.33-.45.06-.57-.2-.03-.6-.19-.09-.47.55-.6.3-1.1-.09-.33-.52h-.56l-.1-.28-.48-.06-.36-.47-1.22-.2-1.84.9-.02.3-.45.4.22.36-.04.87.4.12.32.58.07.5.4.19.16.4-.25.45-.18 1.2.06.23-1.97-.02-8.66.13.37-.42-.07-.4.34-.6.53.18.9-1 .1-.4.8-.98.4-.22.34-.67.73-.33.41-1 .22-1.13-.08-.4.19-.28.23-1 .18-.2.48-1.03.95-.15.66.57h.35l.95.74.65.68.44.1.68-.5.25-.38.09-.55.96-.33.4-.5h.4l.47.37.52-.28.45-.05.52.13.3.36.5.25 1.28-.33.76.53h.44l.4.2.76.08.59-.16.64.37.3-.03.3.47.5-.71.39-.07.35.25.69-.24h.85l.14.63.29.45.09.58.47.06.29.34-.2.59.69 1.46.07.89-.08.69.1.29z" data-originalStrokeWidth="0.25" style="shape-rendering: auto; stroke: rgb(0, 0, 0);"></path>


<path id="Santana" fill="#ccccb8" stroke="#000" stroke-width=".25" d="m434.45 125.05-.95.1-.64.23-.17-.51-1.75-.23-.15.14-1.36-.33-.57-.52-.24-.8-.72-.3-.03-.17-.7-.22-.2-.68-.55-1 .07-1.29.4-.33-.01-.45.34-.64-.15-2.15.37-.18.08-.49.3-.19.53.73.3.98.56.07.45.54.78 1.21.36.72.62.41.35.72.42-.14 1 .27.07.4-.15.63-.52.7-.35.2.15.52.56.31h1.74l-.02.21-.68.38.07.42z" data-originalStrokeWidth="0.25" style="shape-rendering: auto; stroke: rgb(0, 0, 0);"></path>


<path id="Tartarugalzinho" fill="#ccccb8" stroke="#000" stroke-width=".25" d="m444.31 97.28 1.07 1.93 1.14 2.19.26.25-.04.68-.67.54-.18.63.06.45-.3.48-.75.47-.5-.88-.36.26-.39-.26-.6.05-.22.29.2.76-.52.05-.35-.47-.26-.07-.37.29-.58-.01-.79.2-.36.55.11.34-.29.33-.5.13-.35-.12-.34-.58-.92-.01-.66.22-.1.52-.24.2-.6-.87v-.28l-.92-.33-.72.26-.4-.37-.56-.07-.92 1.34-.49-.35-.56.06-.16-.25-.7.14-.16.42-.46.13-.09-.4-.47-.43.05-.94-.38-.2-.68-.1-.29-.35.52-.47.15-.52v-.68l.17-.1-.15-.85.31-.5.36-.1.3-.94-.06-.24.18-1.2.25-.44-.16-.41-.4-.2-.07-.5-.32-.56-.4-.12.04-.87-.22-.36.46-.4.02-.3 1.84-.9 1.21.2.36.47.48.06.11.28h.56l.33.52 1.1.09.6-.3.47-.55.2.09.02.6.57.2.45-.06.43-.33.44.57.85-.11z" data-originalStrokeWidth="0.25" style="shape-rendering: auto; stroke: rgb(0, 0, 0);"></path>


<path id="Vitória_do_Jari" fill="#ccccb8" stroke="#000" stroke-width=".25" d="m422.79 143.47-.54.3-1.3.16-.27-.07-.45-.52-.47.64-.3-.28-.16-.58-.32.15.11.63-1.2.22-.14.28.27.38-.4.38-.72-.37.07-.56-.23-.65-.47.04-.57-.34-.63.1-.43-.16-.6.04-.4-.19-.66-.03-.45-.94-.74-.34-.3-.32-.03-.94-.35-.5.21-.44.4-.1.05-.56-.2-.34-.76-.57 1.47-.56h1.52l.35.07 1.2.56.82 1.17.32.25.87-.1.38.25.56-.38.84-.42.14-.19.68.06 1 .17.78.51.25.01.24-.83.7.1.71-.17v-.59l.17-.3.65-.22-.22 2.28.18 1.56-.26.9-.97.9z" data-originalStrokeWidth="0.25" style="shape-rendering: auto; stroke: rgb(0, 0, 0);"></path>

</svg>