<?xml version="1.0" standalone="no"?>
<svg xmlns="http://www.w3.org/2000/svg" id="map" version="1.2" width="800" height="800" viewBox="400 200 200 200"> 


<path id="Abreulândia" fill="#ccccb8" stroke="#000" stroke-width=".25" d="m473.88 296.05-.37-.65-.56-.25-.64-.13-.82.29-.47-.13-.78.03-1.29.34-1.04-.54-.7-.04-.61-.9-.3-.63-.33-.23-.38-.58-.5-.3-.72-.83-.14-.64-.54-.65-.93-.47-.3.04-.58-.26-.05-.72-.5-.81-1.14.03-.72.27-.35.3.24-1-.29-.37.33-.52-.14-.45.21-.38-.17-.35.56.04.36.43.53.13.31.27.21.56.75.25.42-.23 1.33.34.13-.69.87-.9.17-.65.38.83.23 1.04.37.16.25.55.8.67.17.29.06 1.1.27.63.51.74.32.07.85 1.32.61-.11 1.3.18.15.25.47-.07.72.28.53 1.02.45.05.56.47-.07.38.35.46-.02.38z" data-originalStrokeWidth="0.25" style="shape-rendering: auto; stroke: rgb(0, 0, 0);"></path>


<path id="Aguiarnópolis" fill="#ccccb8" stroke="#000" stroke-width=".25" d="m497.06 236.74.54.49.24-.23.74.09.28.24.42-.08.37-.4-.05.32.3.77-.16.24-.55.73-.15.76-.3.12-2.7-2.44.9-.61z" data-originalStrokeWidth="0.25" style="shape-rendering: auto; stroke: rgb(0, 0, 0);"></path>


<path id="Aliança_do_Tocantins" fill="#ccccb8" stroke="#000" stroke-width=".25" d="m480 324.56-.5.22-.68-.26-.52.17-1.18-.21-.47-.43-.59.23-.33.79-.09.62-.56.27-.71.13-.35.66-.05.67-.45.16-.73-.65-.81-.56-.42-.65-.8-.66-.15-.26-.65.04-.13-.48-.48-.7-.74-.1-.28.3-.3-.31-.34.08-.46-.48-.55-.2-.13-.32-.5-.42.65-.36.23.14 1.26-.11.65-.46.42.4 1.37.42 1.53-.14.42.1.64-.43.27.47.58-.11.46-.24.6.03.25-.38.93-.3h.42l.2-.6.5.45.63.24.09.67.36.74.34-.08 1.04 1.3z" data-originalStrokeWidth="0.25" style="shape-rendering: auto; stroke: rgb(0, 0, 0);"></path>


<path id="Almas" fill="#ccccb8" stroke="#000" stroke-width=".25" d="m512.49 320.07-.17 1.4-.48-.2-.35.34h-.44l-.37.22-.13.52-1.3.7-.26.58-.37.3-.45-.06-.39.38-.15.52-.68-.75-.62.03-.7.16-.1.36.26.5-.05.45-.45.13.38.85.14.58-1.19 1.61-.07.63.32.94-.36.5.03.23-.46.44-.06.73-.47.52-.35-.06-.72.16-.5.56-.55.02-.3.4-.58.2-.23.47-.92.34-.56.04-.3-.16-.18-.44-.29-.22-.6-.13.14-.53.6-.36.11-.27.86-.12.54-1.06-.54-1.26.23-.35.2-.8-.33-.4.3-.36.2-.6-.24-.3-.75-.55.11-.5-.19-.42.26-.55-.02-.42.33-.63.41-.37.4-.75.15-.65-.3-.07.54-.29.3-.54.22-.77.68-.36-.05-.66-.39-.63.24-.5-.13-.93 1.24-.48.18.4.55.14.6.52.57.18.47 1h.4l.25.3.66.2.44.43.81.12.88-.4.47-.35.9-.23.23-.19.85-.14.72.3.14.24z" data-originalStrokeWidth="0.25" style="shape-rendering: auto; stroke: rgb(0, 0, 0);"></path>


<path id="Alvorada" fill="#ccccb8" stroke="#000" stroke-width=".25" d="m473.3 340.64.18.01.15.44-.41.41-.18.46.1.47-.4.26-.82.23-.15.33.26.56-.09.4-.49.04-.09 1.34-.4.78-.74.2-1.17-1.36h-.77l-.92.21-.52-.42-.84-.15.04-.4.76-.7.37-.6.28-.8.24-.14.18-.52-.21-.6.58-.83.38-.27-.15-.45.36-.23.65.6h.5l.25-.63.7-.7.27.36.1.51.56.58.58.08z" data-originalStrokeWidth="0.25" style="shape-rendering: auto; stroke: rgb(0, 0, 0);"></path>


<path id="Ananás" fill="#ccccb8" stroke="#000" stroke-width=".25" d="m485.62 229.46.38 1.47.25.3.58.29.5-.13 1.1.26.47-.02.84.54.34.47-.13.36.38.4.2.92-.42 1.03.13.43-.26.99-.72.08-.14.23-.83-.06-.54.19-.44-.33-.07-1.01-.62-.34h-.94l-.29.13-.75.04-.65.4-.35-.06-.18-.34-.53-.22-.23-.4-.5-.42.08-.3-.42-1.42.08-.42.72-.55.45.02.73-.26.64-.61.1-.3-.28-.54-.56-.18-.08-.63.67-.61.63-.13.5-.28-.14.74z" data-originalStrokeWidth="0.25" style="shape-rendering: auto; stroke: rgb(0, 0, 0);"></path>


<path id="Angico" fill="#ccccb8" stroke="#000" stroke-width=".25" d="m492.7 236.94-.68 2.02-1.7.23-1 .27-.2-.8.14-.58.74-.34.17-.8-.19-.17.26-1-.13-.43.42-1.03.44.15.3.4.7.56.83-.1.29.64z" data-originalStrokeWidth="0.25" style="shape-rendering: auto; stroke: rgb(0, 0, 0);"></path>


<path id="Aparecida_do_Rio_Negro" fill="#ccccb8" stroke="#000" stroke-width=".25" d="m491.44 296.05.27 1.16.69.74-.03.49-.33.46.46.48.03.64.25.4-.22.56-.38.52-.44.23-.33.7-1.18.78-.9-.04-.12-1-.85.04-.95-.17-.45.38-.38.03-.02-.95.16-.25-.23-.5-.43-.32-.1-.52-.33-.46-.08-.22.77-.31.48.17.41-.16.52-.41.1-.32 2.47-1.76.33.1z" data-originalStrokeWidth="0.25" style="shape-rendering: auto; stroke: rgb(0, 0, 0);"></path>


<path id="Aragominas" fill="#ccccb8" stroke="#000" stroke-width=".25" d="m482.08 246.65-.4.83.05.33-.44.62.15.63.3.57.28.13-.23.43-.84.63.11.8-.62.77-.49.19-.32-.62.23-.34-.24-.66.11-1.3-.12-1.2-.6-.24-.2-.71-.23-.05v-.85l-.15-.5-.44.08-.3.35.03.32-3.52-2.36.17-.53-.22-.3.36-.74-.02-.3.48.1 1.01-.42.7-.73.82-.21.3-.24.15.63.26.46-.36.5.56 1.07-.15.59.7-.25.2.36.7.08.01.38-.28 1.15.61.25.55.43.68-.45z" data-originalStrokeWidth="0.25" style="shape-rendering: auto; stroke: rgb(0, 0, 0);"></path>


<path id="Araguacema" fill="#ccccb8" stroke="#000" stroke-width=".25" d="m466.77 276.08.75.93.25.53.17.84-.35.72.01.42-.46.45.28.46.44.08.1.88-.59.2-.66-.03-1.48-.6-.44.25.37.27-.03 1.11.1.27-.18 1.5-.18.27.07.44-.17.65-.87.9-.13.7-1.33-.35-.42.23-.75-.25-.2-.56-.32-.27-.53-.13-.36-.43-.56-.04-2.45-1.98.15-.64.87-.85.45-.8 1.48-1.37 1.62-.3.87-1.38.95-1.23.14-.32.53-1.09.74-.57.18-.62h.78l.71 1.2.4.23z" data-originalStrokeWidth="0.25" style="shape-rendering: auto; stroke: rgb(0, 0, 0);"></path>


<path id="Araguaçu" fill="#ccccb8" stroke="#000" stroke-width=".25" d="m465.5 344.87.02.5.28.86.28.34-.36 1.69.02 1.17 1 .42.21.39.31.06.15.62.28.16-.24.83-.52.7.02.33-.4.7-.6.6-.33.78.23.3-.24.56.15.21-.03.87.17.64-.52.34-5.99-3.3-3.56-1.95-1.22-.6-.8-.23-.27.13-.3-.27-.6-.22-1-.09-.7-.16-.69-.37-.02-.23-.67-.3-.39-.06-.39-.39-.06-.46.24-.9.03-.53.21-.49.36-.29-.09-.26.56-.49-.14-.47.91-.6.45.9.6.14.42-.23.6.22.61.7.78-.3.48-.05.97.47.39-.16 1.03.5.42-.06.42.36.72-.2.7-1.05.37-.2.89-.23.38.04.75-.75.88-.67-.38-.78-.22-1.22.83.51-.04.27.34.44.34-.33.24.27.55.04.31.36z" data-originalStrokeWidth="0.25" style="shape-rendering: auto; stroke: rgb(0, 0, 0);"></path>


<path id="Araguaína" fill="#ccccb8" stroke="#000" stroke-width=".25" d="m486.32 247.34-.23.9.05.76.24.32.73-.08.65.71.42.12-.3.68.4.25-.07.95.04.6.5.84-.56 1.62-.48.56.2.44.14.73-.66-.28-.49-.06-.6-.08-.28-.36-.64-.25-.44.05-.34-.17-.18-.51-.7-.13-.2.24-.58.22-.41.54-.4-.15-.22.18-.65-.36-.18-.6-.67-.18-.58.15-.7-.04.09.8-.25.89.15.37-.65-.6.32-.2-.46-.36-.37.14-.3-.26-.94.12-.24-.18-.83-.03.06-.26-.32-.46-.47.2-.96-.2-.51.34-.21.3-.5-.7-.93.64-.11.4-1.03.04-2.08-.12-.26.14-.7-.4.05-.62-.34-.47.07-.44-.17-.52.53-.63.48-1.03.38-.62-.02-.68 1.19.2.47.3.39.04.74.47.56-.05.57-.36.6-.02.95.43 1.3.23.89-.07.42.19.7-.02.08.16 2.17-.1.32.63.49-.2.62-.76-.11-.8.84-.63.23-.43.56-.24h1.1l.49-.34.16-1.29-.15-.39-.06-.69.28-.8.04.4.63.48.49-.04.37.36z" data-originalStrokeWidth="0.25" style="shape-rendering: auto; stroke: rgb(0, 0, 0);"></path>


<path id="Araguanã" fill="#ccccb8" stroke="#000" stroke-width=".25" d="m482.75 244.44.57.26-.11.33.84.24-.07.46-1.35.52-.55.4-.65-.32-.68.45-.55-.43-.6-.25.27-1.15-.02-.38-.7-.08-.2-.37-.69.25.15-.59-.57-1.07.36-.5-.26-.46-.15-.63.26-.43-.04-.68-.18-.59.32-1.04.22-.3v.68l.15.88.36.05.55.9.31.04.74.57.27-.18.43.07.34.52.01.58-.28.7.21.72.56.58z" data-originalStrokeWidth="0.25" style="shape-rendering: auto; stroke: rgb(0, 0, 0);"></path>


<path id="Araguatins" fill="#ccccb8" stroke="#000" stroke-width=".25" d="m485.13 217.32.34.1.36.71.7.33.71.47.16.38.47-.06.32.2.26.06.92.7.08.4.47.41.21.57.6.17.52.81.33.32.2.58.42.01.22-.29.68.46.43.53.3 1.13-.28.08-.9-.44-.67.06.23 2.04-.61.2.1 1.14-.42.35-.61.11-.43-.54-.66-.22-.14-.38-1.23-.43-.22.7.28.78-.74.15-.56.48-.45.15-.34-.15-.57.06-.29-.26.14-.74.05-.44-.28-.46-.44-.44-.38-.6-.14-.74.18-.92.26-.3.8.04 1.03-.36.55-.96.16-.64-.11-.27-1-.7-1.48-.4-.88-.78-.34-1.08-.46-.58-.35-.15-.85.25.03-.56-.18-.74.22-.27.56-.1.02-.33.64-.26h.66l.16.32.85.13z" data-originalStrokeWidth="0.25" style="shape-rendering: auto; stroke: rgb(0, 0, 0);"></path>


<path id="Arapoema" fill="#ccccb8" stroke="#000" stroke-width=".25" d="m476.18 257.74.3.68-.64 2.66-.5 1.24-.26.27-.5.15-.57-.16-.44-.5-.58.09-.46.3-.63.1-.55-.09-.4.18-1.18-.25-.48.03-.34-.24.04-.42.26-.36-.2-.37-.43-.14-.62-.39-.34-.37-1-.78-.47-.26-.34-.46.66-.05 1-.5.2-.28 1.52.02.44-.21.8.29.29-.1.53.23.75-.42.72.09.62-.33.9-.12.38.13.54-.24.3.03.3.45z" data-originalStrokeWidth="0.25" style="shape-rendering: auto; stroke: rgb(0, 0, 0);"></path>


<path id="Arraias" fill="#ccccb8" stroke="#000" stroke-width=".25" d="m507.58 341.94.61.18.8.43.15 1.09.43-.1.2.36.87.29.02.22.54.59.51.22.18.43.56.14.48.67.6.64.36.1.34.92-.01.29.24.47-.13.52.13.28-.55.85.05.6-.25 1.47-2.04-.01-1.28.67-.55.84-.01.23-.7-.24-.92.8-.57.39h-.4l-.17.35-.67.28-.56.09-.2.2-.72.08-.03.4-.37.17-.74-.3h-.5l-.48.34-.51.92-.25-.28-.57.06-.92-.38-.24.56-.42.15-.65-.33.37-.24-.13-.27-.44.07-.41-.27.19-.44-1.12.08-.43-.2-.06-1.12.94.32.44-.43 1.6.17.07-.78-.38-.9-.32-.06.01-.75-.38-.4.3-.4.58.15.76-.23.39-.32.38-.6.05-.4 1.05-.31.11-.43-.57.07-.17-.45-.58-.45-.34-.1-.28-.4-.18-.6.4-.21.55.05.97-.53.32-.53.62-.47-.73-.81.33-.8-.17-.41-.37-.11-.34-.62-.2-.07.49-.48.57.19.52-.17.6-.42.45-.53.48-.12.55-.21.7.34.62.06z" data-originalStrokeWidth="0.25" style="shape-rendering: auto; stroke: rgb(0, 0, 0);"></path>


<path id="Augustinópolis" fill="#ccccb8" stroke="#000" stroke-width=".25" d="m489.95 219.19.88.45-.13-.54.43-.21.75.19.74-.54-.06 1.01-.43.28-.06.75.07.52-.09.62.34.62.03.85-.22.3-.42-.02-.2-.58-.33-.32-.52-.8-.6-.18-.2-.57-.48-.42-.08-.4-.92-.68-.26-.06.26-1.03z" data-originalStrokeWidth="0.25" style="shape-rendering: auto; stroke: rgb(0, 0, 0);"></path>


<path id="Aurora_do_Tocantins" fill="#ccccb8" stroke="#000" stroke-width=".25" d="m521.42 344.37-.46.43-.8.4-.1.77-.55.73.69.25v.28l-.61.32.18.41.43.15-.26.84-1.1-.12-.45.18-.45-.39-.82.46-.24-.09-.58-.66-.03-.84-.44.26-.42-.06-1.03-.58-.5.08-.36-.1-.59-.64-.48-.67.38-.22.43.43h.78l.4-.25.37.25.58-.36.35.08.6-.27h.37l.46.3.85-.07.91-.65.72-.23.54.02z" data-originalStrokeWidth="0.25" style="shape-rendering: auto; stroke: rgb(0, 0, 0);"></path>


<path id="Axixá_do_Tocantins" fill="#ccccb8" stroke="#000" stroke-width=".25" d="m493.98 225.28-.14.04v0l-.3-1.13-.43-.53-.68-.46-.03-.85 2.88-.1-.28.6-.32.16-.74 1.33z" data-originalStrokeWidth="0.25" style="shape-rendering: auto; stroke: rgb(0, 0, 0);"></path>


<path id="Babaçulândia" fill="#ccccb8" stroke="#000" stroke-width=".25" d="m497.58 247.35-.49.6-.4.23-.37.5-.16.53-.58.52-.89-.24-.6.44-.08.58.2.38.95.51-.3.74-1.13 1.2-1 .25-.48.26-.49-.19-.39.38-.32-.18-.6.15-.28.42-.3-.1-1.12-.94-.5-.84-.05-.6.08-.95-.4-.25.3-.68-.42-.12-.65-.72 4.75-1.73 2.41-.72-.37-1.38.88.07.14.42.36.2.75.76 1.06.15z" data-originalStrokeWidth="0.25" style="shape-rendering: auto; stroke: rgb(0, 0, 0);"></path>


<path id="Bandeirantes_do_Tocantins" fill="#ccccb8" stroke="#000" stroke-width=".25" d="m480.42 260.06.34 1.44.02.63-.9.92-.76.6-.39.03-.29.44.16.35-.22.7-.24-.07-.26.45.56.16.06.33-.44.7.57.33.05.5-.23.22.24.57-.4.54.17.32-.15.4.38.31-.2.38.1.32-.16.52.18.42-.25.24-.04-.84-.5-.65-.05-.58-.43-.1.03-.7-.22-.34-.15-.6-.29-.03-.34-.62-.69-.89-.13-.82-.25-.8.2-.4-.4-.72.15-.27-.18-.4-.5-.31.5-.15.26-.27.5-1.24.64-2.66-.3-.68.92-.43.36.13.44.65.83-.01.23.69.74.29.06.43z" data-originalStrokeWidth="0.25" style="shape-rendering: auto; stroke: rgb(0, 0, 0);"></path>


<path id="Barra_do_Ouro" fill="#ccccb8" stroke="#000" stroke-width=".25" d="m499.65 256.74-.4.28-.32.77-.63.48-.07.48-.92 1.17.66.23.32.5.44-.01.17.5.02.59-.6.69.08.78.25.35.39.03.02.64-.81-.12-.45.42-.35.07-.46-.52-.35.03-.34-.7-.62-.22-.71-1.02.12-.52-.46-.18-.32-1.24.24-.83.42-.17.78-.58.39-.68-.05-.8.17-.84-.2-.37.74-1.1.55.16.58-.29.44.1.12.75.6.66.59.11z" data-originalStrokeWidth="0.25" style="shape-rendering: auto; stroke: rgb(0, 0, 0);"></path>


<path id="Barrolândia" fill="#ccccb8" stroke="#000" stroke-width=".25" d="m475.01 301.1-1-.53-.15.65-.2-.64.34-.46.2-.9.27-.38.07-.52-.23-.47-.34-.21-.2-.44-.66-.14-.64.44-.09-.22.76-1.68.74.45.47-.24.01-.48.54.28.62.02.54-.21.17.33.89.3.93-.26-.1.5.49.82.09.6-.27.56-.24.1-.76-.18-.6.27-.23.68-.01.45-.5.77z" data-originalStrokeWidth="0.25" style="shape-rendering: auto; stroke: rgb(0, 0, 0);"></path>


<path id="Bernardo_Sayão" fill="#ccccb8" stroke="#000" stroke-width=".25" d="m474.57 262.74.5.3.18.4-.16.27.4.73-.19.4.25.8.13.83-.45.46-.65.11-.23-.32-.6-.15-.65.2-.16-.2-.68.05-.54-.4-.75.02-.06-.25-.5-.68-.46-.34-1.16-.06-.1-.57.21-.4.11-.58-.07-1.15.34.24.48-.03 1.18.25.4-.18.55.09.63-.11.46-.3.58-.1.44.5z" data-originalStrokeWidth="0.25" style="shape-rendering: auto; stroke: rgb(0, 0, 0);"></path>


<path id="Bom_Jesus_do_Tocantins" fill="#ccccb8" stroke="#000" stroke-width=".25" d="m497.67 281.31-1.21 1.6.09.38-.33.55.13 1.07-.57.58-.63.18-.5-.25-.1-.63.25-.27-.24-.62-.33.33-.62.32-.51-.14-.7.1-.35-.1-.53.4-.7.03-.45-.37-.65.02-.21.17-.82-.82-.34.02-.78-.58-.45-.78-.7-.88.15-1.02.55-1.1.24-.25v.2l.53.53.4.2 1.3.13 1.3 1 .09.32.69.07.24-.18.59.15.74-.2.82.4 1.02-.3.22.08 1.02-.1.19-.2.33-.95z" data-originalStrokeWidth="0.25" style="shape-rendering: auto; stroke: rgb(0, 0, 0);"></path>


<path id="Brasilândia_do_Tocantins" fill="#ccccb8" stroke="#000" stroke-width=".25" d="m484.35 267.31-.32.45-.33 1.2-.37.28.54.4.72 1.06h-.84l-.53.75-.31.2-.94.14-.26-.16-.64.58-1.56-1.09-.5-.05-.42-.44-.1-.32.2-.38-.37-.3.73.13.24-.38.74-.57.29.07.19.51.42-.09.37-.76.56-.24.18-.39.57-.13-.04-.4.32-.2.52-.22.64.1z" data-originalStrokeWidth="0.25" style="shape-rendering: auto; stroke: rgb(0, 0, 0);"></path>


<path id="Brejinho_de_Nazaré" fill="#ccccb8" stroke="#000" stroke-width=".25" d="m481.5 316.49-1.06.56-.25.65-.5.63.3.74.04.42.34.5.06.6.5 1.08.62.75-.09.78-.34.99-.7.52-.43-.15-.1-.6-1.05-1.3-.34.07-.36-.74-.09-.67-.63-.24-.5-.44.13-.49-.72.14-.25-.28-.47.2-.56-.4-.64-.2.5-.86-.2-.94-.24-.19.03-.4.34-.1.45-.6.26-1.1-.2-.22.28-1.06.68.28.46-.14.6.61.81.08.16.51.5-.44 1.06.2v-.4l.77-.92h.54l.38-.36.65-.19.33.3v1.08l-.35.81z" data-originalStrokeWidth="0.25" style="shape-rendering: auto; stroke: rgb(0, 0, 0);"></path>


<path id="Buriti_do_Tocantins" fill="#ccccb8" stroke="#000" stroke-width=".25" d="m488.36 216.5.26.81-.12.37-.56.5.52.25-.26 1.03-.32-.2-.47.06-.17-.38-.7-.47-.7-.33-.36-.71-.35-.1 1.42-.83-.24-.24.58.12z" data-originalStrokeWidth="0.25" style="shape-rendering: auto; stroke: rgb(0, 0, 0);"></path>


<path id="Cachoeirinha" fill="#ccccb8" stroke="#000" stroke-width=".25" d="m495.01 229.69-.42.36-.38 1.4-.52.58-1.52-.01-.63-.12-1.47.74-.34-.47.33-.06.3-.38V231l-.26-.47 1.1.14.27-.93.55.15.6-.16.59.06.7-.14z" data-originalStrokeWidth="0.25" style="shape-rendering: auto; stroke: rgb(0, 0, 0);"></path>


<path id="Campos_Lindos" fill="#ccccb8" stroke="#000" stroke-width=".25" d="m512.09 271.51-.9-.26-.44.67.12.4-.08.45-.41.36h-.45l.05 1.05-1.5-.55-.9-.13-.85.12-.52-.62-.54.12-.61-.25-.06-.42-.4-.2-.3-.56-.1-.63.34-.03.25-1.13.53-.22.74-.1.18-.52.25-.22-.08-.42.25-.9.32-.31.14-.52-.12-.9.9-.35.4-.73.49-.31.26.12.27-.41.96-.04.4-.2 1.47-.52 1.28-.2.8-.23.43.2.55.75.28.03.58.36.44.74-.06.5.25.53-.3.32-.58 1.42.42.37-.22.52-.07.84-.64.85-.88.17-.69-.16-.52.3-.72.23z" data-originalStrokeWidth="0.25" style="shape-rendering: auto; stroke: rgb(0, 0, 0);"></path>


<path id="Cariri_do_Tocantins" fill="#ccccb8" stroke="#000" stroke-width=".25" d="m472.06 334.68-.57.49-.12.38-.53.36-.1.8-.38.3-1.05-.34-.9.79-.39.02-.46.48h-.48l-1.2.3-.78-.18.65-.68.4-.76.1-.57.83-.55.25-.65-.44-1.05-1.02-1.2-.15-.5-.47-.06-.1-.43-.43-.42 1.36-.3.67.18.66-.16h1.53l.17-.15.74.26.1.49.48.4-.43 1.2-.04.36.29.24.5.06.7.5.41.47z" data-originalStrokeWidth="0.25" style="shape-rendering: auto; stroke: rgb(0, 0, 0);"></path>


<path id="Carmolândia" fill="#ccccb8" stroke="#000" stroke-width=".25" d="m483.99 245.74.42.28-.28.8.06.69.15.39-.16 1.29-.48.34-1.11-.01-.56.24-.28-.13-.3-.57-.15-.63.44-.62-.06-.33.4-.83.56-.4z" data-originalStrokeWidth="0.25" style="shape-rendering: auto; stroke: rgb(0, 0, 0);"></path>


<path id="Carrasco_Bonito" fill="#ccccb8" stroke="#000" stroke-width=".25" d="m489.31 215.91 1.38 1.97-.16.6-.58.7-1.5-.76-.52-.24.56-.5.12-.37-.26-.8.3-.07z" data-originalStrokeWidth="0.25" style="shape-rendering: auto; stroke: rgb(0, 0, 0);"></path>


<path id="Caseara" fill="#ccccb8" stroke="#000" stroke-width=".25" d="m459.13 288.58-.12.96.32.87.04.56.5 1-.06.36-.8.53-.28-.14-.74.48-.28.52.04.5-.63.02-.25.22-1.31.04-.56-.28-.68.11.1-.63-.16-.54.25-.52-.17-.83.29-.91-.15-.33.04-.5-.31-.76.44-.25-.02-.38.26-.84-.18-.34.18-.5-.08-.5.37-.47.72-.6.15-.47.6-1.1.2-.31 2.46 1.98.17.35-.21.38.14.45-.33.5.29.38z" data-originalStrokeWidth="0.25" style="shape-rendering: auto; stroke: rgb(0, 0, 0);"></path>


<path id="Centenário" fill="#ccccb8" stroke="#000" stroke-width=".25" d="m503.05 281.69-.24 1.34.02.98-.33.96.15.68-.4.54-.26.68-.6.05-.25.57-.61-.65-.55-.25-1 .15-.59.29-.36-.08.05.6-.78.46-.59-.25-.38.5-.35-.01-.28.45-.54-.38-.76-.01.06-.24.37-.25.3-.51-.15-.42.17-1.22.63-.18.57-.58-.13-1.06.33-.55-.1-.38 1.22-1.6 1.22-2.48.43.29.38-.01.42-.32.34.43.25.58.38.12.26-.3.84-.26.48.3.19-.1.55.38-.23.58v1.02z" data-originalStrokeWidth="0.25" style="shape-rendering: auto; stroke: rgb(0, 0, 0);"></path>


<path id="Chapada_de_Areia" fill="#ccccb8" stroke="#000" stroke-width=".25" d="m464.86 299.4.49.34.29.01.74.52.15.33.7.52h.4l.56.27.36.5.28-.08.65.64.46.3 1.22 1.2.62 1.1.27.13.22 1.26-.3.21-.9-.08-.4-.57-.36.16-.08-.6.24-.32-.18-.32-.52.13-.82-.1-.13-.33-.42-.1-.11-.9-1.2-.72-.55-.05-.84-.44-.28-1-.55-.57-.82-.6.24-.12.47-.64z" data-originalStrokeWidth="0.25" style="shape-rendering: auto; stroke: rgb(0, 0, 0);"></path>


<path id="Chapada_da_Natividade" fill="#ccccb8" stroke="#000" stroke-width=".25" d="m496.25 325.6-.8.38-.47.63.12.69.35.2-.26.8-.25.2.05.56-.24.42-.38.11-1.5 1.1-.25.54-1.53-.5-.12.18-.62-.07-.16-.38-.41-.14-.23.2-.8-.22-.76.25-.86-.24-.27-.4.14-.43-.5-1 .6.25.42-.44.8-.14.32.14.32-.26.37.27.41-.44.8-1.6.27-.23.13-.91.25-.35 1.13-.4.7-.4-.2-.37.12-.7.6-.31.53.57.3-.2.75.42.33.05.84-.28.25.6-.12.5.27.28z" data-originalStrokeWidth="0.25" style="shape-rendering: auto; stroke: rgb(0, 0, 0);"></path>


<path id="Colinas_do_Tocantins" fill="#ccccb8" stroke="#000" stroke-width=".25" d="m482.88 267.19-.32.2.04.4-.57.12-.17.4-.56.23-.37.76-.42.1-.2-.52-.29-.07-.74.57-.24.38-.73-.14.15-.4-.18-.32.41-.54-.24-.57.23-.23-.05-.49-.57-.33.44-.7-.06-.33-.56-.16.26-.45.24.06.22-.69-.16-.35.3-.45.38-.03.76-.59.9-.92.56.08.25.45.23 1.94-.15.42.06.53-.16.35.43.5.03.55.77.03z" data-originalStrokeWidth="0.25" style="shape-rendering: auto; stroke: rgb(0, 0, 0);"></path>


<path id="Combinado" fill="#ccccb8" stroke="#000" stroke-width=".25" d="m517.54 350-.26 1.89-.23.1-.85-.33-.1-.27-.68-.03-.39-.5v-.9l-.58-.28-.13-.28.13-.52-.24-.47.6.35.33.54.54.04.85.29.55.37z" data-originalStrokeWidth="0.25" style="shape-rendering: auto; stroke: rgb(0, 0, 0);"></path>


<path id="Conceição_do_Tocantins" fill="#ccccb8" stroke="#000" stroke-width=".25" d="m503.56 332.69 2.7 1.9-.2.15-.55-.1-.44-.25-.35.51.26.58-.05.4.52.43.54.68-.2.75-.35.58-.04.71-.28 1 .26.56.31.21-.18.54-.33.51-.48.12-.45.53-.6.42-.53.17-.57-.19-.49.48-.5.1-.7-.18-.65.07-.19-.46-.72.05-.43.55-.78-.27-.08-.98-.22-1.22.27-1.17-.27-.04-.57-1.02.2-.4 1.1.33.2-.35.17-1.47-.02-.38.48-1.12-.5-.6.55-.05.92-.34.23-.48.57-.19.31-.4.55-.02.5-.56.72-.16z" data-originalStrokeWidth="0.25" style="shape-rendering: auto; stroke: rgb(0, 0, 0);"></path>


<path id="Couto_Magalhães" fill="#ccccb8" stroke="#000" stroke-width=".25" d="m469.74 276.18-.45.49-.7.13-.46-.58-1.35-.13-.06-.28-.4-.23-.7-1.21h-.78l.14-.97.26-.61.49-.65.89-.4.28-.28.28-.81.32-1.4.5-.9.26.66.6.3.44-.05 1-.61.43.1.67-.1.27-.28.61-.22.16.65-.14.29.31.27.04.6-.8 1.42.6.63-.42 1.5-.42.14-.6.73z" data-originalStrokeWidth="0.25" style="shape-rendering: auto; stroke: rgb(0, 0, 0);"></path>


<path id="Cristalândia" fill="#ccccb8" stroke="#000" stroke-width=".25" d="m470.75 309-.14.53v.62l.32.51-.4.56.06.42.83.12.18.46.58-.36.42-.02v.57l-.17.45.18.35-.1.32-.87.3-.3.07-.74.6-.48-.16-.22.18-.72-.42-.55.2-.3-.06-.3-.55-.42-.26-.55.05-1.13-.3-.92.33-.63.42-.27.36-1.07.34-.24.26-.73-.18.54-.39.3-.73.57-.09.5-.63-.8-.53-.38-.04-.4-.46-.17-.78-.69-.9-.62.1-.46-.42-.95-.16-.3-.25-.45-.02-.3-.25.72-.19.23.28.4-.16.33.17.67-.26.66-.07.41-.4.4.17.66-.1.8-.54.47-.18.51.05.86.44.3.44.44.04.59.34.6.2.31.31 1.27-.24.57.33.71-.2z" data-originalStrokeWidth="0.25" style="shape-rendering: auto; stroke: rgb(0, 0, 0);"></path>


<path id="Crixás_do_Tocantins" fill="#ccccb8" stroke="#000" stroke-width=".25" d="m474.42 319.62.64.2.56.39.47-.2.25.28.72-.14-.13.5-.2.59h-.41l-.93.3-.25.37-.61-.03-.46.24-.58.11-.27-.47-.64.43-.42-.1-1.53.14-1.37-.4-.42-.42-.65.46-1.26.11-.23-.14-.65.36h-.15l-.52-.79-.62-.47-.4.13-.28-.24.3-.09.85-.99 1.12-.26.08.28.4.22.4-.05.49-.36.4.16.4-.67.44.08.27.46.34.16h.58l.85.31.99-.15.4.04.5-.18.35-.34.83.02z" data-originalStrokeWidth="0.25" style="shape-rendering: auto; stroke: rgb(0, 0, 0);"></path>


<path id="Darcinópolis" fill="#ccccb8" stroke="#000" stroke-width=".25" d="m498.49 241.72.04.95-.4.69-.22.66.15.22.24.56-.01.62-.4.68.03.44-.33.81-.5-.35-1.05-.15-.75-.77-.36-.19-.14-.42-.88-.07-1.11.02-1.07-.77-.07-.5-.4-.53.12-.22-.54-.6-.92-.5-.23-.44-.7-.25-.51-.54-.78-.15-.4-.53.07-.66.98.17.2.13.62-.27.15-.3 1-.28 1.7-.23-.16.8.6-.13 1.18 1.13.4.72.67.42.7.1.87-.2.52.15.42-.14.59.08.37.27z" data-originalStrokeWidth="0.25" style="shape-rendering: auto; stroke: rgb(0, 0, 0);"></path>


<path id="Dianópolis" fill="#ccccb8" stroke="#000" stroke-width=".25" d="m522.93 328.49.57.32h-1.13l-.89-.05-.37-.14-.43-.47-1.65-.29-.64.36-.4.4-.63.25-.58.5-.7-.1-.66.12-.51-.08-1.78.4-.48.34-.53-.16-.38.43-.31.97-.08.56-.35.4.26 1.1.35.8.1.81.19.21-.01.61-.2.41-.27.42-.11.5-.37.7-.44.33-.66 1.08-.41.11-.02-.57.32-.26-.16-.47.04-.7.44-.37-.06-.59-.32-1.07-.45-.44-.81-.13-.27-.33-.57.12-.74-.05-.57.12-2.7-1.9.47-.52.06-.73.46-.44.56-.05.38-.32.37-.57.33-.82.32-.21-.11-.78.22-.63.12-.7.4.04.19.45.57-.52.05-.83.53-.26.13-.36-.04-.54.35-.13 1.34 1.34.96-.06.48.22.43-.28.46-.05.58-.37.24-.41.7-.41.32-.01.6-.4.5.1.15 1.54 1.49 1 1.57-.25 1.77.54.72.86z" data-originalStrokeWidth="0.25" style="shape-rendering: auto; stroke: rgb(0, 0, 0);"></path>


<path id="Divinópolis_do_Tocantins" fill="#ccccb8" stroke="#000" stroke-width=".25" d="m473.88 296.05-.74-.45-.76 1.68.1.22-.79.08-.67.23-.22.24.1.7.16.3-.95.5-.74.04-.27-.25h-.59l-.91-.51-1.32.18-.28-.12-1.14.52-.1.08.12-1.14h-.28l-.9-.35-.2-.33-.84-.36.29-1.07.49-.24.42-1.2-.46-.37-.33-.55-1.18-.7-.08-.41-.98-.54h-.44l-.52-.27-.5-.99-.04-.56-.32-.87.12-.96.35-.3.72-.27 1.14-.03.5.81.05.72.58.27.3-.04.93.48.54.65.13.64.72.83.5.29.39.58.32.23.3.63.6.9.72.03 1.04.54 1.29-.34.78-.02.47.13.82-.3.64.14.56.25z" data-originalStrokeWidth="0.25" style="shape-rendering: auto; stroke: rgb(0, 0, 0);"></path>


<path id="Dois_Irmãos_do_Tocantins" fill="#ccccb8" stroke="#000" stroke-width=".25" d="m467.95 281.4.5-.15.83.35.51.54 1.03.58.43.08.25.46.34.22.44-.03.84.39.34-.2.64-.06 1.04.19.21.53.5.58-.14.7.54.35.1.55-.39 1.19.14.29.23 1.66-.65-.01-.24.59-.3.2.02.64-.32.88-.65.48-.08.33.3.43-.08.76.07.42-.2.28.16.7v.48l-.48.24.32-.29.02-.38-.35-.46.07-.38-.56-.46-.45-.05-.53-1.02-.72-.28-.47.07-.16-.25-1.29-.18-.6.1-.86-1.31-.32-.07-.5-.74-.28-.63-.06-1.1-.18-.3-.79-.66-.25-.55-.37-.16-.23-1.04-.38-.83-.07-.44.18-.28.17-1.49-.09-.27.03-1.1-.37-.28.44-.26 1.48.61.66.02z" data-originalStrokeWidth="0.25" style="shape-rendering: auto; stroke: rgb(0, 0, 0);"></path>


<path id="Dueré" fill="#ccccb8" stroke="#000" stroke-width=".25" d="m464.07 320.83.3.24.39-.13.62.47.52.78.15.01.5.42.12.33.55.2.46.48.34-.08.3.32.28-.3.74.1.48.69.13.48.65-.04.15.26.8.66.42.65.81.56.04.25-.72.62-.07.34-.9-.03v.33l-.92-.04-.13.65-.5.46-.57.2-.22.98.15.24h-1.53l-.66.16-.67-.17-1.37.29-.38-.5-.37-.13-.42-.51-.36-.78-.09-1.14-.24-.15-.15-.53-.28-.07-.36-.7-.47-.1.16-.93-.1-.34-.7-.86-.69.42-.36-.23-.52-.93h-.22l-.16-.7-.48-.83.12-.5-.25-.27.07-.56-.19-.65-.63-.67-.22-.07-.09-1.26.45-.51.44.16.58.83.4.28.45.57.42.12.22.36.67.07.57.52.3-.11.28.35.9.22.46-.22z" data-originalStrokeWidth="0.25" style="shape-rendering: auto; stroke: rgb(0, 0, 0);"></path>


<path id="Esperantina" fill="#ccccb8" stroke="#000" stroke-width=".25" d="m480.96 215.13.28.3.17.54.44-.06.73.41-.16.6-.02.33-.56.1-.22.27.18.74-.03.56-1.28.39-.77-.23-.7.1-.56-.22-.38-.44-1.52-.2-.33-.43.76.06.23-.58.35-.25.37.04.5.44.43.06.66-.95.13-.93.74-.67z" data-originalStrokeWidth="0.25" style="shape-rendering: auto; stroke: rgb(0, 0, 0);"></path>


<path id="Fátima" fill="#ccccb8" stroke="#000" stroke-width=".25" d="m475.63 314.14-.28 1.06.2.22-.26 1.1-.45.6-.33.1.03-.54-.37-.4.04-.54-.26-.6-.36-.13-1.66-.03-.28-1.15.87-.3.32-.03.47-.47 1.54-.08.89-.55.16.27v.8z" data-originalStrokeWidth="0.25" style="shape-rendering: auto; stroke: rgb(0, 0, 0);"></path>


<path id="Figueirópolis" fill="#ccccb8" stroke="#000" stroke-width=".25" d="m473.3 340.64-.86-.53-.58-.08-.56-.57-.1-.51-.26-.36-.71.7-.24.63h-.51l-.65-.6-.36.23.15.45-.38.27-.58.82.2.6-.18.52-.24.14-.28.8-.37.6-.76.7-.03.4-.5.01-.87-.46-.3-.36-.55-.04-.24-.27-.35.33-.35-.44.04-.27-.83-.5-.64-.29.04-.49-.34-.59.56-.55-.31-.47-.47-.28-.4.07-.03-.82.67.21.14-.14.68.01.4.15.56-.25.62.08.8-.6.36-.67.42-.15.78.18 1.19-.29h.48l.47-.49.39-.02.89-.79 1.05.34.38-.29.1-.8.53-.37.12-.38.57-.49.1-.25.3.45-.2.72.3.5-.06.25.42.42.29.81-.46.33-.32.84.43.01.54.35.13.57-.26.7z" data-originalStrokeWidth="0.25" style="shape-rendering: auto; stroke: rgb(0, 0, 0);"></path>


<path id="Filadélfia" fill="#ccccb8" stroke="#000" stroke-width=".25" d="m496.8 254.84-.74 1.11.2.38-.17.84.05.8-.4.67-.78.58-.41.17-.95.67-.36.35-.65.2-.16-.51-.44-.12-1-1.25-.48-.12-.15-.33-.35-.02-.16-.52-.87-.25-.15-.27-.78-.47-.14-.73-.2-.44.48-.56.57-1.62 1.12.94.3.1.28-.42.6-.15.32.18.39-.38.49.19.48-.26 1-.25 1.12-1.2.3-.74.6 1 .42-.02.34-.51.28-.14.86.02.77.5.38.76-.26.69-1.54.76z" data-originalStrokeWidth="0.25" style="shape-rendering: auto; stroke: rgb(0, 0, 0);"></path>


<path id="Formoso_do_Araguaia" fill="#ccccb8" stroke="#000" stroke-width=".25" d="m464.71 331.2.43.42.1.43.47.06.16.5 1.02 1.2.44 1.05-.25.65-.83.55-.1.57-.4.76-.65.68-.42.15-.36.67-.8.6-.62-.08-.55.25-.4-.15h-.69l-.14.14-.67-.21-.46-.43-.05-.34-.79-.1-.5-1-4.67-.8-.5.17-.46.76-.34.27-.09.5.16.44-.32.12.02.37-.5-.04v.65l.2.19.09.66-.22.8.16.27-.47.51-.53.18v.28l-.6.42-.85.3-.14.26-.77.27-.5.5.04.27-.68.4-.29.55-.55.6-.3.61.05.54-.84.42.24.34-.39.23.21.47-.3.22.16.45-.22.65-.26.27-.03-.29-.95-.02-.6-.34.33-.44-.77.01-.08-.42.13-.74-.21-.16-.36-.82-.02-.58-.5.03-.3-.08-.1-.59.12-.26.47.1.1-.3-.33-.26.43-.65.27-.83-.11-.45.52-.08.1-.47-.27-.27.12-.52-.32-.68.12-.36-.2-.47.3-.53-.33-.42.13-.39-.67-.1.04-1.1.2-1.6-.34-.5.16-.3-.07-.5.45-.43-.2-.65.48-.48.03-.32-.46-.36-.37-.1-.1-.73-.54-1.37.09-.22.94-.88.1-1.5-.21-.2 6.65-1.29 4.78-.92 6.1-1.19.36.23.68-.42.7.86.1.34-.15.94.47.1.36.7.28.06.15.53.24.15.09 1.14.36.78.42.51.37.13z" data-originalStrokeWidth="0.25" style="shape-rendering: auto; stroke: rgb(0, 0, 0);"></path>


<path id="Tabocão" fill="#ccccb8" stroke="#000" stroke-width=".25" d="M483.07 283.74h-.73l-1.02-.23h-.54l-.23.99-.42.2-.17 1.62-.37.02-.26-.23h-.59l-.32-.33-.35.46-.05.4-.7-.6-.4-.55-.29.16.87-.65.4-.58.08-.58-.33-.5.05-.41.3-.22-.06-.4.1.22.66.06.24-.24.93-.1-.06-.46.93-.24.76-.32 1.12.76.46-.01.13.83-.22.75z" data-originalStrokeWidth="0.25" style="shape-rendering: auto; stroke: rgb(0, 0, 0);"></path>


<path id="Goianorte" fill="#ccccb8" stroke="#000" stroke-width=".25" d="M469.74 276.18h.92l.7.38.68.14.35.4.65.23.29.45.68.55v.37l.8.6.39.98-.08.42.47.8.2.12.2.99.3.3-.03 1.02-.24.58.47.58-.08.33.14.47-.3.03-.53-.35.14-.7-.5-.58-.21-.53-1.04-.19-.64.06-.34.2-.84-.39-.44.03-.34-.22-.25-.46-.43-.08-1.03-.58-.51-.54-.83-.35-.5.15-.1-.88-.43-.08-.28-.46.46-.45-.01-.42.35-.72-.17-.84-.25-.53-.75-.93 1.35.13.47.58.69-.13z" data-originalStrokeWidth="0.25" style="shape-rendering: auto; stroke: rgb(0, 0, 0);"></path>


<path id="Goiatins" fill="#ccccb8" stroke="#000" stroke-width=".25" d="m507 265.79.12.9-.14.52-.32.3-.25.9.08.42-.25.22-.18.52-.74.1-.53.22-.25 1.15-.33.03.1.63-.71.82-.41.62-.36.09-.67-.45-.35.3-1.08.17-.64-.06-.73.18-.46-.04-.43-.43-.98.13-.41-.37-.88-.23-1.27.43-.32-.13-.54-.78-.55-.42-.4-.79h-.28l-.58-1.19-.35-.32-.14-.4-.33-.1.19-.44-.32-.63-.01-.44.19-.46-.12-.42.27-.29-.2-.82-.24-.29-.1-.59-.52-.54-.2-.39.26-.32.08-.69.3-.17.42-1.16 1.15-.48.65-.19.36-.35.95-.67-.24.83.32 1.24.46.18-.12.52.7 1.01.62.22.34.71.35-.03.46.52.35-.07.45-.42.81.11-.02-.64-.39-.03-.25-.35-.07-.78.6-.69-.02-.59-.17-.5-.44.01-.32-.49-.66-.23.92-1.17.07-.48.63-.49.32-.77.4-.28.53.37-.06.36.36.2-.1.55.11.42.3.01.14-.69.75.81-.38.04.34.71.07.47.43-.02.45.41.31.5.1.58.58.35.48.46.72 1.17.24-.03.36.5.11.58.65.34.3.86z" data-originalStrokeWidth="0.25" style="shape-rendering: auto; stroke: rgb(0, 0, 0);"></path>


<path id="Guaraí" fill="#ccccb8" stroke="#000" stroke-width=".25" d="m484.4 273.96.42.51.97-.04v.18l.54.41h.52l.38-.67-.04 1 .09.62.12.7-.08 1.16-.26.75-.53-.2-1.14.19-.42-.17-.61.54-.38.77.02.24-.5.88-.54.27-.32.31-.01.57-1.12-.76-.76.32-.93.24.06.47-.93.1-.24.23-.67-.06-.1-.22.22-.3-.27-.58-.45-.3.26-1.19-.2-.04.02-.83-.3-.1.05-.4.3-.32-.11-.42-.38-.42.54-.5.76-1 .05-.55-.41-1.03.2-.38 1.3-.02.39.44 1.05.35.09.44.35.08 1.2-.56.83-.18.6-.46z" data-originalStrokeWidth="0.25" style="shape-rendering: auto; stroke: rgb(0, 0, 0);"></path>


<path id="Gurupi" fill="#ccccb8" stroke="#000" stroke-width=".25" d="m479.5 324.77-.39.53.17.43-.12.5-.68.78-.17-.1-.72.1-.5.92-.26.71-.07.84-.4.7-.3.75-.38-.14-.39.12-.2.45-.41.3.15.44-.38.76-.4-.06-.25.28-.42-.16-.48.8-.8.37.06.33-.1.25-.2.08-.4-.47-.7-.5-.52-.06-.29-.24.04-.36.43-1.19-.48-.4-.09-.5-.74-.26-.17.16-.15-.24.22-.98.56-.2.51-.47.13-.65.91.04v-.33l.91.03.08-.34.72-.62-.04-.25.73.65.45-.16.05-.67.35-.66.7-.13.58-.27.09-.62.33-.79.59-.23.46.43 1.18.21.52-.17z" data-originalStrokeWidth="0.25" style="shape-rendering: auto; stroke: rgb(0, 0, 0);"></path>


<path id="Ipueiras" fill="#ccccb8" stroke="#000" stroke-width=".25" d="m484.08 319.3-.14.82.87.62.14.44.57.03.21.27-.37.97-.37.3-.44.28-1.16-.15-.62-.3-.68.02-.54-.19-.62-.75-.5-1.08-.07-.6-.33-.5-.04-.42-.3-.74.5-.63.24-.65 1.06-.56-.27.37.33.47.83.54.45-.03.33.18.67.63-.09.4z" data-originalStrokeWidth="0.25" style="shape-rendering: auto; stroke: rgb(0, 0, 0);"></path>


<path id="Itacajá" fill="#ccccb8" stroke="#000" stroke-width=".25" d="m491.3 267.67.32.63-.19.44.33.09.14.4.35.32.6 1.2h.27l.4.79.54.42.54.78.32.13 1.27-.43.88.23.41.37.98-.13.43.43.46.04.73-.18.64.06 1.08-.17.35-.3.67.44-.3.58-.13.63-.23.3-.66 1.39.17.7-.16.62.38.47-1.19.5-.32-.08-.27.46-.42.32h-.38l-.43-.29-.79.26-.18.34-.54.12-.86-.48-.83-.05-.54-.14-.28-.67.06-.46.31-.64-1.13.53-.74.2-.5-.1-.77.2-1.17-.24-.35-.82-1.3-.63-.12-.5.85-.3.54-.6-.37-.26-.09-.36-.42-.2.61-.65.24-.54-.64-.78-.15-.9.76-.7-.3-.46.13-.3-.35-1.28.46-.51.36.1z" data-originalStrokeWidth="0.25" style="shape-rendering: auto; stroke: rgb(0, 0, 0);"></path>


<path id="Itaguatins" fill="#ccccb8" stroke="#000" stroke-width=".25" d="m498.82 222.97.06.44-.35.85.2.87.27.33.43.93.08.48-.28.3-1.1.1-.38.52-.19-.08-.7.45-.57-.08-1.4.05-.4-.16-.18-.32.26-.57-.38-.28.07-.58-.27-.25.07-.54-.23-.12.14-.04 2.8-1.62.82-.02.7-.67z" data-originalStrokeWidth="0.25" style="shape-rendering: auto; stroke: rgb(0, 0, 0);"></path>


<path id="Itapiratins" fill="#ccccb8" stroke="#000" stroke-width=".25" d="m491.3 267.67-.52.35-.35-.11-.46.5.35 1.28-.13.31.3.46-.76.7.15.9.64.78-.24.54-.61.64.42.21.09.36.37.26-.54.6-.85.3.1.5-.19.28-.56.05-.77-.2-.47-.4-.09-.64.04-.99.14-.32.44-.16.28-.84-.02-.97-.75-.83-.08-1.4-.22-1-.3-.62.17-.8.31-.64.54-.53 1.06.05 1.08-.28.66-.4-.22-1.79.08-.4.19.4.52.54.1.59.25.29.19.82-.27.29.12.42-.2.46z" data-originalStrokeWidth="0.25" style="shape-rendering: auto; stroke: rgb(0, 0, 0);"></path>


<path id="Itaporã_do_Tocantins" fill="#ccccb8" stroke="#000" stroke-width=".25" d="m478.36 271.81-.36.33-.3 1.07.31.24.21.5-.2.38.4 1.03-.05.53-.76 1.01v-.39l-.42-.19-.18-.47-.46.1-.59-.48-.93-.27-.62.1-.42-.28-.42-.73-.2-.8 1.06-1.15 1.7-4.22 1.02.49.22.34-.03.7.44.1.05.58.49.65z" data-originalStrokeWidth="0.25" style="shape-rendering: auto; stroke: rgb(0, 0, 0);"></path>


<path id="Jaú_do_Tocantins" fill="#ccccb8" stroke="#000" stroke-width=".25" d="m477.01 342.51.51.25-.27.51.51.31.27.33.72.34.58-.12.25-.5.63-.16.44-.58.43-.12.6.4-.2.2.1.84-.31.88.24.41-.31.24-.01.44-.54.03-.23.58-.15 1.15-.35.43.4.85.38.2-.47.36.21.38-.67.63.15.54-.3.58.58.8.33.18-.04 1.33.41.3-.13.61-.32.45-.25.95-.42.2v1.76l-.46.17-.35-.44.2-.59.16-1.5-.23-.22.3-.59-.39-.73-.05-.42-.48-.14-.18-.6-.57-.38-.84.1-.25-.3-.08-1.1-.69-.62-.69-.42-.12-.35h-.33l-.13-.6-.4-.1.25-.33.76.15v-.42l-.4-.52.55-.1.54.1.01-.32-.3-.74.18-.42-1.06-.38-.22-.75.3-.59.48-.1-.1-.5.28-.24.28-1.37.58-.2z" data-originalStrokeWidth="0.25" style="shape-rendering: auto; stroke: rgb(0, 0, 0);"></path>


<path id="Juarina" fill="#ccccb8" stroke="#000" stroke-width=".25" d="m471.73 266.23.39.4.05.55-.23.29.35.68-.61.22-.27.29-.67.1-.43-.11-1 .6-.45.06-.6-.3-.26-.66.2-.5.04-.86.25-.9.29-.26.02-.92 1.16.06.45.34.5.68.07.25z" data-originalStrokeWidth="0.25" style="shape-rendering: auto; stroke: rgb(0, 0, 0);"></path>


<path id="Lagoa_da_Confusão" fill="#ccccb8" stroke="#000" stroke-width=".25" d="m462.07 314.71-.29.44-.1.67-.9.65-.63-.22-.5.21-.3-.33-.84-.1-.4.55.04.3-.36.82-.45.51.09 1.26.22.07.63.67.19.65-.07.56.25.27-.12.5.48.83.16.71h.22l.52.92-6.1 1.2-4.78.91-6.65 1.3-.81-.06-.41-.6.08-.58-.13-.9.25-.78-.01-.6.29-.4.2-.84.52-.46.27-.82.02-.45-.17-1.12.37-.5.16-.47.44-.52-.27-1.48.08-.26-.22-.65.57-.56v-.33l-.34-.3-.04-.45.18-.5.27-.1.46-.94-.36-1.27-.22-.35v0l6.35-.87 5.37-.73 3.17-1 .31.24.45.02.3.24.95.16.46.42.62-.09.7.9.16.78.4.46.38.04.8.53-.5.63-.57.1-.3.72z" data-originalStrokeWidth="0.25" style="shape-rendering: auto; stroke: rgb(0, 0, 0);"></path>


<path id="Lagoa_do_Tocantins" fill="#ccccb8" stroke="#000" stroke-width=".25" d="m501.9 307.88-.7.6-.9.63-1.08.47-.72-1.12-.8-.85-.9-.27-1.37-.3-.02-.16.86-.59-.38-.44.16-.58-.19-.48.44-.2.9-.14-.18-.34-.06-.75.22-.35.48.25.3-.45.25.38.66.26.47-.54.2.1.44.65-.3.36.26.3.84.04.24.72-.42.55.01.7.22.43.6.1.11.64z" data-originalStrokeWidth="0.25" style="shape-rendering: auto; stroke: rgb(0, 0, 0);"></path>


<path id="Lajeado" fill="#ccccb8" stroke="#000" stroke-width=".25" d="m485.56 299.23.08.22-.8.27-.3-.23-.07-.64-.95.12-.46-.22.56-.68.1-.71-.12-.45-.66-.5v-.6l.24-.2-.07-.89.41.21.11.4.73.44.27-.22.41.15-.04.36.47 1.7.47.3.3.47z" data-originalStrokeWidth="0.25" style="shape-rendering: auto; stroke: rgb(0, 0, 0);"></path>


<path id="Lavandeira" fill="#ccccb8" stroke="#000" stroke-width=".25" d="m519.95 348.95-.5.56.65.36-.03.43-.44.3.17.77-.38.16.08.58.34.18.42-.22.76.19.39-.06.57-.33.4.05.55-.23-.67.35-.49.03-.34.3-.56.01-1.33.36-1.17.17-.06-.44.17-.5-.01-1.26-.56-.2-.36-.51h-.47l-.55-.37-.85-.3-.54-.03-.33-.54-.6-.35.01-.3-.34-.92.5-.08 1.03.58.42.06.44-.26.03.84.58.66.24.1.82-.47.45.4.45-.19z" data-originalStrokeWidth="0.25" style="shape-rendering: auto; stroke: rgb(0, 0, 0);"></path>


<path id="Lizarda" fill="#ccccb8" stroke="#000" stroke-width=".25" d="m506.57 282.43-.34.93.9.52.56-.01.63-.32.49.34-.32.4.07.51.47-.12.19.25.5.07.23.38-.08.32.43.15.15.31-.16.5.17.31-.5.61.5.2.35.62.72.75.07.58.55-.3 1.02-.09.58.35-.27.28v.35l.4.34.92.2.24.3-.26.46.6.52.03.18-.78.45-.41.78-.12.63-.71.5.16.82.36.18.49-.06.47.4-.18.47.3.26.88-.24.7 1.42-.03.47-.6-.7-.77-.14-.73.68-.55.34-.58.05-1.13-.05-.21.3-.88.34-.55.38-.83-.12-.44.21-1.08.2-.5.01-.7.23-.37.52-1.03.71-.36-.53-1.01-.1-.17-.26-.4-.02.09-1.15.37-.02.39-.73.3.01-.06-.68.48-.57.64-.4.14-.35-.34-.62.14-.35-.3-.95.59-.82-.41-1.37-.13-.93.26-.5-.28-.5-.97-.63-.47-.02-.32-.38-.53-.08-.51-.66-.11-.36-1.1-.29-.38-.6.25-.58.6-.05.26-.68.4-.54-.15-.69.33-.96-.02-.98.24-1.34.78-.23.28-.26.7-.13.74.21.19.3.37.02z" data-originalStrokeWidth="0.25" style="shape-rendering: auto; stroke: rgb(0, 0, 0);"></path>


<path id="Luzinópolis" fill="#ccccb8" stroke="#000" stroke-width=".25" d="m493.7 232.03.68.6.12 1.86-.61-.1-1.3-.44-.4-.04-.43-.55-.66-.1-.43.38-.35-.24-.38-.4.13-.36 1.47-.74.63.11z" data-originalStrokeWidth="0.25" style="shape-rendering: auto; stroke: rgb(0, 0, 0);"></path>


<path id="Marianópolis_do_Tocantins" fill="#ccccb8" stroke="#000" stroke-width=".25" d="m464.75 299.49-.47.64-.24.1-.65-.5-.75-.12-.57-.41-.4.17-1.07.74-.23-.24-.38.14-1.05-.36-1-.91-.36-.44-1.02.3-.67.07-.07-.45h-.45l-.23-.43-.28-.12-.45-.92-.68-.66.34-.75-.38-.52.62-.49.68-.1.56.27 1.31-.04.25-.22.63-.03-.04-.49.28-.52.74-.48.28.14.8-.53.06-.37.52.26h.44l.98.54.08.41 1.18.71.33.55.46.37-.42 1.2-.49.24-.29 1.07.85.36.2.33.9.35h.27z" data-originalStrokeWidth="0.25" style="shape-rendering: auto; stroke: rgb(0, 0, 0);"></path>


<path id="Mateiros" fill="#ccccb8" stroke="#000" stroke-width=".25" d="m521.49 303.33.56.54.58-.13.67.06.6-.43.53-.15.28 1.3-.28.48.5.35.51 1.1 1.06.2.42-.53-.5-.5.33-.85.53-.18 1.3.24.87-.5.3-.63-.14-.41.21-.44.38.42.05 1.4-.49.96-1.26.19-.39 2.34-.9.83-1.03.32-.8.54-1.53.85-1.18.36-.39.27-.19.42.18.57-.26.54-.49.36-.24.98-.35-.26-.6.52-.13 2.17-1.3.07-2.2 3.44-1.55 2.33-.77-.32-.27.05-.44-.37-.7-.21-.24-.28.08-.57-.33-.7-.6-.18-.06-.4-.7-.58-1.23.07-.24-.4.33-.52.35-.08-.04-.44.38-.2.2-.36-.29-.83-.66-.31-.69-.13.02-.91.23-.6-.36-.42-.09-.68.26-.6-.07-.4-.66-.31h-.4l-.2-1.22-.55-.26-.16-1.23-.3-.14-.62.17-.5-.77.04-.27-.45-.2.3-1.25.66-.82.41.25.27-1.15.37-.2.02-.41.45-.5.26-.6.82.33.76-.01.75-.57.31.06.82-.26.7.05.58.19.5.58.78.54 1.3-.41 1 .02.88.23.62-.08.4.2.42-.24.45-.02.4.37.27-.04.38-.54h.77z" data-originalStrokeWidth="0.25" style="shape-rendering: auto; stroke: rgb(0, 0, 0);"></path>


<path id="Maurilândia_do_Tocantins" fill="#ccccb8" stroke="#000" stroke-width=".25" d="m499.49 229.6-.48.76-.48.05-.22.35-1.03.91-.69.17-1.04.52-.63-.1-.55.36-.68-.6.52-.58.38-1.4.42-.36-.28-.32.15-1.23 1.41-.06.57.08.7-.45.2.09.36-.52 1.11-.1.28-.3.11.15.02 1.27-.3.92z" data-originalStrokeWidth="0.25" style="shape-rendering: auto; stroke: rgb(0, 0, 0);"></path>


<path id="Miracema_do_Tocantins" fill="#ccccb8" stroke="#000" stroke-width=".25" d="m483.1 288.44.15.83-.32.82.1 1.02-.21 1.35-.4.85.07.4.63 1.01.07.9-.24.2v.6l.66.48.1.45-.08.71-.56.68v.43l.33.4.22.52.09.73-.47.22-.57-.02-.83-.6-.5.26-.33-.08-.48.26-1.01-.26-.84.61-.12.25-.86.24-.62-.15-.32-.38-.03-.35-.9-.26-.38.4-.43.14.9-.75.5-.77v-.45l.25-.68.59-.27.76.2.24-.11.27-.55-.1-.6-.47-.83.09-.5-.93.25-.9-.3-.16-.33-.54.21-.61-.02-.54-.28-.16-.7.2-.28-.07-.42.08-.76-.3-.43h2.39l.52.14.45.35.33.04.27-.27.47-.08 1.46-1.07.48-.25-.06-.25-.52-.13-.14-.32-.44-.34.13-.68.82.12.37-.52.62-.35.28.03.5-.33h.76z" data-originalStrokeWidth="0.25" style="shape-rendering: auto; stroke: rgb(0, 0, 0);"></path>


<path id="Miranorte" fill="#ccccb8" stroke="#000" stroke-width=".25" d="m479.6 286.33-.13.6-.37.54.08.46.28.12-.11 1.2-.32.55.43.06-.13.68.44.34.14.32.52.13.06.25-.48.25-1.46 1.07-.47.08-.27.28-.34-.04-.45-.35-.52-.14h-2.39l.08-.34.65-.48.32-.88-.02-.64.3-.2.24-.59.65.01-.23-1.66-.14-.29.38-1.19-.09-.55.3-.03.09-.24.28-.16.4.55.7.6.05-.4.35-.46.32.32h.6z" data-originalStrokeWidth="0.25" style="shape-rendering: auto; stroke: rgb(0, 0, 0);"></path>


<path id="Monte_do_Carmo" fill="#ccccb8" stroke="#000" stroke-width=".25" d="m492.13 305.58-.22.36.04.8.5.33-.08.17.25.84.02.46-.37.9.13.26-.26.31.54 1.5.37.36.3.87-.36.2-.23.52.38.23.52 1.11.47 1.32-.64.42-.29.34-.56-.06-.59.18-.38.28-.04.34.41 1.98-.6.18-.47-.04-.49.74-.6.3-.75.04-.77-.33-.3-.42-.62-.1-.16-.43-.44-.36-.1-.46-1.06-1.1-.09-.37-.49-.56.47-.37.46.01.02-.45.37-.46-.46-.07-.08-.25-.89-.06-.26-.75.11-.4.88-1.09.86-.4.18-.33-1.52-.94-.4-.09-.71-.7.7-.93-.55-.37.29-.34.52.25.42-.1.38-.47.57-.28.35.1 1.3.03.35-.38.34-.86.29.15.35-.33.45-.86.58-.25.42-.39.17.27.65.14z" data-originalStrokeWidth="0.25" style="shape-rendering: auto; stroke: rgb(0, 0, 0);"></path>


<path id="Monte_Santo_do_Tocantins" fill="#ccccb8" stroke="#000" stroke-width=".25" d="m473.86 301.21-1.05 1.07-.61.17-.34-.1-.87.41-.13-.17-.6-.03-.31.18-.47-.29-.66-.64-.28.07-.36-.49-.56-.27h-.39l-.7-.52-.15-.33-.74-.51-.3-.01-.48-.34 1.14-.52.28.12 1.32-.18.91.52.6-.01.26.25.74-.03.95-.5-.16-.3-.1-.71.22-.24.67-.23.78-.08.63-.44.66.14.21.44.34.2.23.48-.07.52-.27.39-.2.89-.35.46z" data-originalStrokeWidth="0.25" style="shape-rendering: auto; stroke: rgb(0, 0, 0);"></path>


<path id="Palmeiras_do_Tocantins" fill="#ccccb8" stroke="#000" stroke-width=".25" d="m499.04 239.66-.07.7-.52.9.04.45-.31.44-.37-.27-.6-.08-.41.14-.52-.16-.87.2-.7-.09-.66-.42-.41-.72-1.18-1.13-.6.13.16-.8.62.48.99-.2.33-.78.38-.27.54.05.24-.34.67-.19.25-.36 2.7 2.44z" data-originalStrokeWidth="0.25" style="shape-rendering: auto; stroke: rgb(0, 0, 0);"></path>


<path id="Muricilândia" fill="#ccccb8" stroke="#000" stroke-width=".25" d="m479.63 251.96-2.17.09.32-2.62-.02-.3-.64-.36-.49-.74-.52-.12-.17.72-.42.37-.28-.07-1.55-1.03-.59-.97-.34-.08-.32-.37-.3.03-.31-.3-.2-.65.04-.55-.24-.39.15-.58-.34-.35.33-.45.98-.08.88-.39 1.07-.15.02.3-.36.75.21.3-.17.52 3.52 2.36-.04-.32.31-.35.44-.08.14.5.01.85.23.05.2.71.6.24.12 1.22-.1 1.29.23.66z" data-originalStrokeWidth="0.25" style="shape-rendering: auto; stroke: rgb(0, 0, 0);"></path>


<path id="Natividade" fill="#ccccb8" stroke="#000" stroke-width=".25" d="m499.94 322.55.3.07-.15.65-.4.75-.4.37-.33.63.02.42-.26.55.19.4-.11.52.75.54.23.3-.2.6-.3.36.33.4-.2.8-.23.36.54 1.26-.54 1.06-.86.12-.12.27-.59.36-.14.53.6.13.3.22.17.44.3.16.52.6-.48 1.13.02.38-.18 1.47-.2.35-1.1-.33-.2.4-.67.4-.02-.35-.44-.16-.41-.93-.35.18h-1.14l-.74-.14-.32.34-.13-.34.3-.48.5-.42-.11-.61-.78.29-.34.32-.4-.47-.3-.75.27-.4.2-.7-.42-1.27-.44-.27-.97-.22-.92-.58.03-.26-.41-.5-.32.13-.76-.25-.13-.83.76-.25.79.23.23-.21.4.14.17.39.62.07.13-.18 1.53.49.25-.54 1.5-1.1.38-.1.24-.42-.05-.56.25-.2.26-.81-.35-.2-.12-.7.47-.62.79-.38.49-.34.13-.71.33-.27.63.03.9-.9.03-.37.3-.46.05-.42z" data-originalStrokeWidth="0.25" style="shape-rendering: auto; stroke: rgb(0, 0, 0);"></path>


<path id="Nazaré" fill="#ccccb8" stroke="#000" stroke-width=".25" d="m494.5 234.49.56.32.2.45.48.5.15.48.36-.12.95.3-.14.31h-.13l-.22-.16-.97.12-.63-.16-.79.15-.28.23-.4-.24-.95.26.4-.97-.3-.64-.83.1-.7-.57-.3-.39-.43-.15-.2-.92.35.24.43-.38.66.1.42.55.4.04 1.3.45z" data-originalStrokeWidth="0.25" style="shape-rendering: auto; stroke: rgb(0, 0, 0);"></path>


<path id="Nova_Olinda" fill="#ccccb8" stroke="#000" stroke-width=".25" d="m486.9 256.4-.12.23.21.55-.08.8-.35.59-.57.3.05.5.47.42.11.52.44.42v.76l-.44.31-.35-.3-.44.18-1.04-.32-.37-.34-.56.02-.6.17-.4-.24-.56.25-.44.54-.04.6-.48-.14-.57-.08-.02-.63-.34-1.44-.27-.63.34-.56-.19-.67-.07-.67-.82-.78-.29.25-.15-.37.25-.9-.08-.8.7.05.57-.15.67.19.18.59.65.36.23-.18.4.15.4-.54.58-.22.21-.24.7.13.18.5.34.18.44-.05.64.25.28.36z" data-originalStrokeWidth="0.25" style="shape-rendering: auto; stroke: rgb(0, 0, 0);"></path>


<path id="Nova_Rosalândia" fill="#ccccb8" stroke="#000" stroke-width=".25" d="m475.35 308.82-.03.86-.38.36-.45.23-.2.76-.37.15-.18.37-.46-.05-.68.35-.42.02-.58.36-.18-.46-.83-.12-.05-.42.4-.56-.32-.51-.01-.62.14-.53.28-.63-.33-.37.98-1.01.63-.5.1.18-.2.14.35.8-.32.48.72.45.03.7.4.35.68.06.54-.45z" data-originalStrokeWidth="0.25" style="shape-rendering: auto; stroke: rgb(0, 0, 0);"></path>


<path id="Novo_Acordo" fill="#ccccb8" stroke="#000" stroke-width=".25" d="m503.65 300.45.4.02.16.26 1.01.1.36.53.78.53.04.34.96.28.17.28.63.4-.26.6-.45.5-.02.4-.37.2-.27 1.15-.4-.25-.66.82-.26-.5-.29.25-.19.52-.33.22-1.12.18-.3-.29-.99.27-.07.38-.29.24-.35-.39-.12-.63-.59-.1-.22-.43-.02-.7.42-.56-.24-.72-.84-.04-.26-.3.31-.36-.44-.65-.2-.1-.47.54-.66-.26-.25-.38-.3.45-.48-.25-.22.35.06.75.18.34-.94-.24-.92-.64-.93-.06-.85-.5h-.34l-.29-1.17.13-.84-.29-.57-.25-.4-.03-.65-.46-.48.33-.46.03-.49.36.1.56.67.67.1.6.4.9.25.08.17.84.27.25-.18 1.42.07 1.15.27.58.46.12.25.64.15.2-.18 1.04.04.54.31.41-.28z" data-originalStrokeWidth="0.25" style="shape-rendering: auto; stroke: rgb(0, 0, 0);"></path>


<path id="Novo_Alegre" fill="#ccccb8" stroke="#000" stroke-width=".25" d="m517.05 352-.16.63-3.19-.03.25-1.47-.05-.6.55-.85.58.28v.9l.4.5.67.03.1.27z" data-originalStrokeWidth="0.25" style="shape-rendering: auto; stroke: rgb(0, 0, 0);"></path>


<path id="Novo_Jardim" fill="#ccccb8" stroke="#000" stroke-width=".25" d="m522.38 328.81-.18.45-.78-.03-.5-.2-.3-.55-1.71.09-.77.29.82.27.18.6.36.18-.61.9-.62.2.06.35.64.46v.33l-.44-.6-1.38-.42-.68.13-.52.3-.51.6.05.75-.58.84-.4.22-.03.74-.54.05-.47.46-.6.36-.02.17-.99.3-.17.14.2-.4v-.62l-.19-.2-.1-.82-.35-.8-.26-1.1.35-.4.08-.56.31-.97.38-.43.53.15.48-.34 1.78-.39.51.08.66-.12.7.1.58-.5.64-.25.4-.4.64-.36 1.66.3.42.46.37.14z" data-originalStrokeWidth="0.25" style="shape-rendering: auto; stroke: rgb(0, 0, 0);"></path>


<path id="Oliveira_de_Fátima" fill="#ccccb8" stroke="#000" stroke-width=".25" d="m475.74 312.4-.9.55-1.53.08-.47.47-.32.04.1-.32-.18-.35.17-.45-.01-.57.68-.35.46.05.18-.37.37-.15.2-.75.45-.23.08.4-.05.88.3.17z" data-originalStrokeWidth="0.25" style="shape-rendering: auto; stroke: rgb(0, 0, 0);"></path>


<path id="Palmeirante" fill="#ccccb8" stroke="#000" stroke-width=".25" d="m488.06 256.75.78.47.15.27.86.25.16.52.35.02.15.33.48.11 1 1.25.44.12.16.51-1.15.48-.42 1.16-.3.17-.08.7-.25.32-.08.4.23 1.78-.66.4-1.08.28-1.06-.05-.54.53-.31.63-.55.26-1-.73-.28.24-.71.14-.3-.26-.64-.09-.52.22-.08-.2-.77-.03-.03-.55-.43-.5.16-.35-.06-.53.15-.42-.23-1.94-.25-.45.48.15.04-.6.44-.55.55-.25.4.24.6-.17h.57l.36.33 1.04.32.44-.18.35.3.44-.3v-.77l-.43-.42-.11-.52-.47-.42-.05-.5.57-.3.35-.6.08-.8-.21-.55.12-.23.49.07z" data-originalStrokeWidth="0.25" style="shape-rendering: auto; stroke: rgb(0, 0, 0);"></path>


<path id="Palmeirópolis" fill="#ccccb8" stroke="#000" stroke-width=".25" d="m485.67 350.26.57.81.02.44.43.9.42.5-.21 1.26.4.7-.26.95h-.64l-.28.21-.7.21-.26.36-.74.41-.88.21-.76.58-1.36.2-.27-1.73.15-.34-.46-.38-.38.03.32-.45.13-.6-.41-.32.04-1.33-.33-.18-.58-.79.3-.58-.15-.54.67-.63-.21-.38.47-.36.52.17.74.75.85-.55.99-.07 1.15.43z" data-originalStrokeWidth="0.25" style="shape-rendering: auto; stroke: rgb(0, 0, 0);"></path>


<path id="Paraíso_do_Tocantins" fill="#ccccb8" stroke="#000" stroke-width=".25" d="m475.01 301.1.43-.14.4-.4.89.27.02.35.32.38.62.15-.08.55-.26.42-.15.79.53.9.52.1.46.57.3.79-.89.42-.36.42-.22-.02-.78.65-.26-.33-.9.19-.53-.05-.63-.42-.14-.62-.42-.42-.49-.3-.77.13-.26.78.05.42-.1-.18-.05-.05-.22-1.26-.26-.13-.62-1.1-1.22-1.21.31-.18.6.03.13.17.87-.42.34.1.61-.16 1.05-1.07.15-.65z" data-originalStrokeWidth="0.25" style="shape-rendering: auto; stroke: rgb(0, 0, 0);"></path>


<path id="Paranã" fill="#ccccb8" stroke="#000" stroke-width=".25" d="m493.13 338.15.32-.34.74.14h1.14l.35-.18.4.93.45.16.02.35.68-.4.57 1.03.27.04-.27 1.17.22 1.22.08.98.78.27.43-.55.72-.05.19.46.65-.07.69.17.5-.1.21.08.34.62.36.1.17.42-.33.8.73.8-.62.48-.32.53-.97.53-.55-.05-.4.22.18.59.3.4.34.1.58.45.17.45.57-.07-.11.43-1.05.32-.06.39-.39.6-.39.32-.76.23-.58-.14-.29.39.38.4v.75l.32.07.38.89-.07.78-1.61-.17-.44.43-.94-.32-.86-.23-.52.29.01.54-.38 1.02.48.99-.33.54.15.95.46.48-.24.25-.32.68-.27.23-.16.47-2.09-2.46-.45-.3-1.09.15-.14-.22-.77-.31-.51.4-.26-.51-.31-.17H489l-.52-.7-.24.2-.06.69-1.36.4-.24-.14.29-.36-.23-.83.24-.24-.23-.53.39-.65.27-.96-.41-.7.2-1.26-.42-.5-.43-.9-.02-.43-.57-.81-.33-.6.24-1.03-.7-.02-.06-.27.46-.43-.75-.53-.03-.4.28-.3-.04-.51.33-.3-.58-.4.98-.46.03-.81.42-.28-.08-.27-.89-.04.02-.48.58-.77-.5-.82.01-.57-1-.76.44-.45.48-1.27.72-.22.45.43.7-.07.13-.43.43-.36.14-.85.72-.32.16-.3.48.2.33-.35.44.24.96-.11.89.68.46.56h.3l-.13.6.23.23-.24.68.68.15.07-.77z" data-originalStrokeWidth="0.25" style="shape-rendering: auto; stroke: rgb(0, 0, 0);"></path>


<path id="Pau_D_Arco" fill="#ccccb8" stroke="#000" stroke-width=".25" d="m479.12 257 .29-.25.82.78.07.67.19.67-.34.56.27.63-.66-.58-.06-.43-.74-.29-.23-.69-.84.01-.44-.65-.36-.13-.92.43-.37-.1-.3-.45-.3-.03-.55.25-.37-.13-.9.12-.63.33-.72-.1-.75.43-.53-.23-.28.1-.8-.3-.45.22-1.52-.02-.2.28-1 .5-.66.06-.33-.72-.36-.81-.04-.45.1-.84 1.37-1.51.65-.82.17.52-.07.44.34.47-.04.63.7.39.25-.14 2.08.12 1.03-.03.11-.41.94-.64.5.7.2-.3.51-.33.96.2.47-.21.32.46-.05.26.83.03.24.18.94-.12.3.26.36-.14.46.37-.32.19z" data-originalStrokeWidth="0.25" style="shape-rendering: auto; stroke: rgb(0, 0, 0);"></path>


<path id="Pedro_Afonso" fill="#ccccb8" stroke="#000" stroke-width=".25" d="m495.14 285.67-.17 1.22.16.42-.3.5-.37.26-.3.27-.44-.23h-.9l-.35.4-.45.12-.28-.3-.49.08-.07-.29-.46-.3-.34.38-.53.37-.27.67-.57.18-.65-.13-.17.54-.52.3-.72.17-.7-.13-.32-1.55-.48-.42-.44.06-.25.25-.58-.6-.45-.07-.32-.33.22-.67.3-.45.08-.6.58-.97 1.06-1.4.5-.41.24-.72.04-.67.69.88.45.78.78.58.34-.02.82.82.2-.17.66-.03.45.37.7-.03.53-.39.35.1.7-.1.5.13.62-.32.33-.33.24.62-.25.27.11.63z" data-originalStrokeWidth="0.25" style="shape-rendering: auto; stroke: rgb(0, 0, 0);"></path>


<path id="Peixe" fill="#ccccb8" stroke="#000" stroke-width=".25" d="m487.55 337-.14.85-.44.36-.13.43-.7.07-.44-.43-.72.22-.48 1.27-.44.45-.42-.3-.9-.3-.12.82.1.47-.14.35.17.63-.17.69-.2.3-.7.3-.6-.4-.42.12-.44.58-.63.15-.25.5-.58.13-.72-.34-.27-.33-.51-.31.27-.51-.51-.25-.75-.25-.82.04-.78.44-1.23 1.14-1.35.36-.14-.04.09-.4-.26-.55.15-.33.82-.23.39-.26-.1-.47.18-.46.4-.41-.14-.44.98-.23.64.37.62.02.32.3.32-.2-.04-.37.29-.28.37.09.74-.82.5.02.29-.33-.3-.82v-.46l-.34-.27-.22.28-.9.12-.42-.36-.54.1.13-1.16.3-1.33-.35-.42-.4.08-.57-.2-.17-.48-.27-.11-.7-.91.05-.2.25-.28.39.06.38-.76-.15-.45.4-.3.22-.44.39-.12.38.14.29-.76.4-.7.07-.83.26-.71.5-.92.72-.11.17.1.68-.77.13-.5-.17-.43.39-.53.49-.22.43.15.69-.52-.06.55.36 1.1-.23.38.28.35-.08.55.28.64.67.59v.57l.4.19.17.45-.1.66.15.4-.1.52.26.7.17.88.25.2-.14.5.25.62.6.56 1.56.95.03.9.55.16.16-.31z" data-originalStrokeWidth="0.25" style="shape-rendering: auto; stroke: rgb(0, 0, 0);"></path>


<path id="Pequizeiro" fill="#ccccb8" stroke="#000" stroke-width=".25" d="m475.69 266.46.69.9.34.61.28.03.15.6-1.02-.49-1.7 4.23-1.06 1.15.2.8.42.73.42.28-1.37 2.03-.64-.23-.35-.4-.68-.14-.71-.38h-.92l1.27-1.8.6-.74.42-.14.43-1.5-.61-.63.8-1.4-.03-.62-.31-.27.14-.29-.16-.65-.36-.68.23-.29-.05-.55-.39-.4.54.4.68-.05.16.2.64-.2.61.15.23.32.66-.1z" data-originalStrokeWidth="0.25" style="shape-rendering: auto; stroke: rgb(0, 0, 0);"></path>


<path id="Colméia" fill="#ccccb8" stroke="#000" stroke-width=".25" d="m477.62 276.9-.54.5.38.42.12.42-.3.31-.05.41.28.1v.84l.19.04-.26 1.19.46.3.27.58-.23.3.05.4-.29.22-.05.42.33.5-.08.58-.4.58-.87.65-.09.24-.14-.47.08-.33-.47-.58.24-.58.04-1.02-.3-.31-.2-1-.2-.11-.47-.8.07-.41-.39-1-.8-.59v-.36l-.68-.55-.29-.45 1.37-2.03.62-.1.94.27.6.48.45-.1.18.47.42.19z" data-originalStrokeWidth="0.25" style="shape-rendering: auto; stroke: rgb(0, 0, 0);"></path>


<path id="Pindorama_do_Tocantins" fill="#ccccb8" stroke="#000" stroke-width=".25" d="m501.36 317.87.13.92-.24.5.39.63.05.66-.68.37-.22.77-.3.54-.55.29-.84-.4-.05.43-.3.46-.02.37-.9.9-.64-.03-.33.27-.13.7-.49.35.45-1.07-.27-.27.12-.5-.26-.61-.84.28-.33-.05-.75-.42-.29.2-.54-.58.15-.46-.62-.66.82-1.25.41-.48.74-1.1-.3-.28-.12-.69-.23-.22.04-.54 1.13.2.75.26.23.23.46.03.23.34 1.6.1.22.2.7-.3.45.08.5-.26z" data-originalStrokeWidth="0.25" style="shape-rendering: auto; stroke: rgb(0, 0, 0);"></path>


<path id="Piraquê" fill="#ccccb8" stroke="#000" stroke-width=".25" d="m487.37 239.74-.06.66-.02 7.27-.96-.33-.4-.12-.36-.36-.5.03-.62-.48-.04-.4-.42-.28.06-.46-.84-.24.1-.33-.56-.26.5-.75-.17-.37-.35-2.5.47-1.02.75-.34.68-1.1-.07-.37.16-.46-.23-.2.3-.22.97.24.46.48.17.5.33.02.46.44z" data-originalStrokeWidth="0.25" style="shape-rendering: auto; stroke: rgb(0, 0, 0);"></path>


<path id="Pium" fill="#ccccb8" stroke="#000" stroke-width=".25" d="m454.31 294.33-.62.5.38.52-.34.74.68.66.45.92.28.12.23.43h.45l.07.45.67-.08 1.02-.28.35.43 1.01.9 1.05.37.38-.14.23.24 1.06-.74.41-.17.58.4.75.13.65.5.82.62.55.56.28 1 .84.45.54.05 1.2.72.11.9.42.1.13.32.82.1.52-.12.18.32-.24.32.08.6.37-.16.4.57.9.08.3-.21.03.05-.63.5-.98 1 .33.38-.28.63-.37.58-.7.2-.58-.32-1.27.24-.3-.31-.61-.2-.6-.34-.44-.04-.29-.44-.86-.44-.5-.05-.49.18-.79.53-.66.1-.4-.17-.4.4-.67.08-.67.26-.33-.17-.4.16-.23-.28-.73.19-3.17 1-5.37.74-6.36.86.37-.28.34-.58.4-.04.37-.82.05-1.01.61-.28-.08-.5.23-1 .45-.24.54-.65-.09-.48.35-.86.38-1.18-.29-1 .36-.8.67-.87.66-.45.2-.71.23-.43.22-1.03.72-1.27.38-.88.08-.52.87-1.22.21-1.2.54-.54v-.4l.31-.46-.27-1.24.26-.78.44-.54.22-.5-.03-.67.3-.8.62-.43.1-.48.54-.12.08.5-.18.49.18.34-.26.84.02.38-.44.25.3.77-.04.49.15.33-.29.9.17.84-.25.52.16.54z" data-originalStrokeWidth="0.25" style="shape-rendering: auto; stroke: rgb(0, 0, 0);"></path>


<path id="Ponte_Alta_do_Bom_Jesus" fill="#ccccb8" stroke="#000" stroke-width=".25" d="m518.97 332.14-.62.34-.14.62.23.38.32-.03.76.47.86-.03.18.14 1.02-.28-.06.3-.7.28-1.13.03-.7.29-.48.65-1.03.66-.6.02.07.44 1.1-.1.03.48.3.42-.87.25-.47-.01-.67-.28-.9.56-.42.88-.56.23-.32.63-.93.77-.45.1-.34-.22-.56-.1-.66.29-.26.7-.37-.24-.65.74-.53.12-.25-.13-.97.6-.61-.17.34-.16.3-.61-.06-.24.53-.54.26-.06.4-.62.06-.37.41-.12.66-1.09.44-.33.37-.69.11-.5.28-.42.17-.14 1-.3.02-.17.6-.36.47-.46.54-.05.03-.74.39-.22.58-.84-.05-.76.5-.59.52-.3.68-.13 1.38.42z" data-originalStrokeWidth="0.25" style="shape-rendering: auto; stroke: rgb(0, 0, 0);"></path>


<path id="Ponte_Alta_do_Tocantins" fill="#ccccb8" stroke="#000" stroke-width=".25" d="m505.73 306.62-.3 1.25.45.2-.04.27.5.77.6-.18.31.14.16 1.23.55.26.2 1.22h.4l.66.32.07.4-.26.6.1.67.36.43-.23.6-.02.9.69.13.66.31.29.83-.2.37-.38.2.04.43-.35.08-.33.52.24.4 1.22-.07.7.58.07.4.6.2-.77-.18-.14-.25-.72-.29-.85.14-.23.2-.9.22-.47.34-.88.41-.81-.12-.44-.44-.66-.19-.26-.3h-.4l-.46-1-.58-.18-.6-.52-.54-.15-.18-.39-1.24.48-.66-.08-.5.26-.45-.08-.7.3-.22-.2-1.6-.1-.23-.34-.46-.03-.23-.23-.75-.26-1.13-.2-.34-.23.05-.55-.47-1.32-.52-1.1-.38-.24.23-.52.36-.2-.31-.87-.37-.36-.54-1.5.26-.3-.13-.28.37-.89-.02-.46-.25-.84.08-.17.27.23.83-.02.24.2.92-.33.24.1.49-.2 1.36.29.9.27.8.85.73 1.13 1.07-.47.9-.63.7-.6.29-.24.07-.38.98-.27.3.29 1.13-.18.33-.22.19-.52.29-.25z" data-originalStrokeWidth="0.25" style="shape-rendering: auto; stroke: rgb(0, 0, 0);"></path>


<path id="Porto_Alegre_do_Tocantins" fill="#ccccb8" stroke="#000" stroke-width=".25" d="m508.63 323.94-.06.96.04.54-.13.36-.53.26-.05.83-.57.52-.2-.46-.4-.04-.11.7-.22.63.1.78-.31.21-.33.82-.37.57-.38.32-.56.05-.03-.23.36-.5-.32-.94.07-.63 1.19-1.6-.14-.59-.38-.85.45-.13.05-.45-.26-.5.1-.36.69-.16.62-.03.68.75.16-.52.39-.38z" data-originalStrokeWidth="0.25" style="shape-rendering: auto; stroke: rgb(0, 0, 0);"></path>


<path id="Porto_Nacional" fill="#ccccb8" stroke="#000" stroke-width=".25" d="m483.24 301.05-.46.5-.65 1.96.17.57.47.17-.03.52-.3.7-.1.94.14.42.65.52.78.07.98-.06.5-.4.86-.19.24.38.16.84.16.2-.35-.09-.57.28-.38.47-.42.1-.52-.25-.3.34.56.37-.7.93.7.7.42.1 1.52.93-.18.32-.86.41-.88 1.1-.11.4.26.74.89.06.08.25.46.07-.37.46-.02.45h-.46l-.47.36.49.56.09.36-.6.26-.12.28-1.03.81.15.34-.34-.27.09-.4-.67-.63-.33-.17-.45.03-.83-.54-.33-.47.27-.37.73-.92.34-.8v-1.1l-.32-.29-.65.2-.38.35h-.54l-.77.91v.41l-1.06-.2-.5.44-.16-.5-.81-.09-.6-.6-.46.13-.68-.28.27-.68-.01-.8-.16-.27-.46-.9-.31-.17.05-.87-.08-.4.38-.37.03-.86-.08-.38.68-.23.28-.79.54-.13.78-.65.22.02.36-.42.89-.42-.3-.79-.46-.56-.52-.1-.53-.9.15-.8.26-.42.08-.55.86-.24.12-.25.84-.6 1 .25.49-.26.33.08.5-.27.83.61z" data-originalStrokeWidth="0.25" style="shape-rendering: auto; stroke: rgb(0, 0, 0);"></path>


<path id="Praia_Norte" fill="#ccccb8" stroke="#000" stroke-width=".25" d="m495.23 219.06-.45.56-.12 1.02-.24.17-.4 1-.11-.29-.7-.22-.81 1.04-.34-.62.09-.62-.07-.52.06-.75.43-.28.06-1v0l1.47-.13z" data-originalStrokeWidth="0.25" style="shape-rendering: auto; stroke: rgb(0, 0, 0);"></path>


<path id="Presidente_Kennedy" fill="#ccccb8" stroke="#000" stroke-width=".25" d="m478.58 270.63.42.44.5.05 1.56 1.1.64-.59.26.16.94-.14.31-.2.53-.74h.84l.31.44-.1.55-.43.66-.03.49.35.2-.3.53.01.39-.36.07-.6.46-.83.18-1.2.56-.36-.08-.09-.44-1.05-.35-.39-.44-1.29.02-.2-.5-.32-.24.3-1.07.35-.33.25-.24-.18-.42z" data-originalStrokeWidth="0.25" style="shape-rendering: auto; stroke: rgb(0, 0, 0);"></path>


<path id="Pugmil" fill="#ccccb8" stroke="#000" stroke-width=".25" d="m476.76 307.3-.54.13-.28.79-.68.23.08.38-.74.38-.54.45-.67-.06-.4-.34-.04-.71-.72-.45.32-.48-.34-.8.2-.14-.05-.42.26-.78.77-.12.5.29.41.42.14.62.63.42.52.05.91-.2z" data-originalStrokeWidth="0.25" style="shape-rendering: auto; stroke: rgb(0, 0, 0);"></path>


<path id="Recursolândia" fill="#ccccb8" stroke="#000" stroke-width=".25" d="m509.98 274.19-.52.37-.47.55.08.26-.34.57v.27l.48.38.05.29-.5.39-.2.48.38.7.04.7-.27.75-.56.23-.5-.04-.26.19.4.63-.73.56-.17.73-.31.22-.47-.83-.37-.02-.2-.3-.74-.2-.7.13-.28.26-.77.23.13-.14v-1.02l.23-.58-.55-.38-.2.1-.47-.3-.84.27-.26.29-.38-.12-.25-.58-.34-.43.27-.45.32.08 1.19-.5-.38-.47.16-.62-.17-.71.66-1.4.23-.3.13-.62.3-.58.36-.1.4-.61.72-.82.29.56.4.2.06.42.6.25.55-.12.52.62.86-.12.89.13z" data-originalStrokeWidth="0.25" style="shape-rendering: auto; stroke: rgb(0, 0, 0);"></path>


<path id="Riachinho" fill="#ccccb8" stroke="#000" stroke-width=".25" d="m489.99 236.76.19.17-.17.8-.74.34-.14.6.19.79-.15.3-.61.27-.21-.13-.98-.17-.2-.93-.46-.44-.32-.03-.17-.5-.46-.48-.96-.23-.31.2-.3-.82-.54-.45.35.06.65-.41.75-.04.29-.13h.94l.62.34.07 1 .44.34.54-.2.83.07.14-.23z" data-originalStrokeWidth="0.25" style="shape-rendering: auto; stroke: rgb(0, 0, 0);"></path>


<path id="Rio_da_Conceição" fill="#ccccb8" stroke="#000" stroke-width=".25" d="m515.15 322.46-.4 1.36.29.52-.61.4h-.31l-.71.41-.24.41-.58.37-.47.05-.43.28-.48-.22-.96.06-1.34-1.34-.35.13.06-.96.37-.3.26-.59 1.3-.69.12-.52.37-.22h.44l.35-.34.48.2.17-1.4.33.7-.08.57.24.28.7.2.44.37.27-.05z" data-originalStrokeWidth="0.25" style="shape-rendering: auto; stroke: rgb(0, 0, 0);"></path>


<path id="Rio_dos_Bois" fill="#ccccb8" stroke="#000" stroke-width=".25" d="m483.07 283.74.28.14.08.64.5.2.65.1-.58.96-.08.6-.3.45-.22.67-.3.94-.29.37h-.77l-.49.33-.28-.03-.61.35-.37.53-.82-.12-.43-.06.3-.55.12-1.2-.28-.12-.08-.46.37-.55.13-.6.37-.01.17-1.62.42-.2.23-1 .54.02 1.02.23z" data-originalStrokeWidth="0.25" style="shape-rendering: auto; stroke: rgb(0, 0, 0);"></path>


<path id="Rio_Sono" fill="#ccccb8" stroke="#000" stroke-width=".25" d="m501.13 287.5.38.6 1.1.3.11.36.51.66.53.08.32.38.47.02.97.63.29.5-.26.5.13.93.4 1.37-.58.82.3.95-.14.35.34.62-.14.34-.64.4-.48.58.06.68-.3-.01-.4.73-.36.02-.08 1.15-.9.36-.41.28-.54-.31-1.05-.04-.2.18-.63-.15-.12-.25-.58-.46-1.15-.27-1.42-.07-.25.18-.84-.27-.08-.17-.91-.26-.6-.4-.66-.1-.56-.66-.36-.1-.7-.74-.26-1.16-.24-2.08-.18-.6-.07-1.04-.25-.36.2-.44-.08-.54.53-1.53.06-.51-.15-.53.49-.08.28.29.45-.12.35-.4h.9l.43.23.3-.27-.06.24h.76l.54.39.28-.45.35.02.39-.51.59.25.78-.45-.05-.61.36.08.58-.3 1-.14.55.26z" data-originalStrokeWidth="0.25" style="shape-rendering: auto; stroke: rgb(0, 0, 0);"></path>


<path id="Sampaio" fill="#ccccb8" stroke="#000" stroke-width=".25" d="m490.69 215.94.92.37.22.21.1.58-.01.67.43.59.28.19v0l-.74.53-.75-.2-.43.22.13.54-.88-.45.58-.71.16-.6-1.38-1.96.24-.07z" data-originalStrokeWidth="0.25" style="shape-rendering: auto; stroke: rgb(0, 0, 0);"></path>


<path id="Sandolândia" fill="#ccccb8" stroke="#000" stroke-width=".25" d="m460.45 339.44.03.82.4-.07.47.28.31.46-.56.55.35.6-.04.49.64.28.22 1.21.38.78-.88.67-.75.75-.38-.04-.89.22-.37.21-.7 1.05-.72.2-.42-.36-.42.05-1.03-.49-.38.16-.97-.47-.48.05-.78.3-.6-.7-.6-.22-.43.23-.6-.15-.45-.89-.64-.56.2-.33.05-.54 1.3-1.53.47-.51-.16-.27.21-.81-.09-.66-.2-.2.01-.64.5.04-.02-.37.32-.12-.16-.44.1-.5.33-.27.45-.76.51-.17 4.66.8.51 1 .8.1.04.34z" data-originalStrokeWidth="0.25" style="shape-rendering: auto; stroke: rgb(0, 0, 0);"></path>


<path id="Santa_Fé_do_Araguaia" fill="#ccccb8" stroke="#000" stroke-width=".25" d="m477.46 252.04-.08-.16-.7.02-.42-.19-.88.07-1.3-.23-.95-.43-.6.02-.57.37-.56.05-.74-.47-.4-.04-.47-.3-1.19-.2-.13-1.2v-1.56l-.42-1.4.14-.64.67-.57 1-.41.56-.47.81-.6.34.35-.15.58.24.39-.03.55.2.65.32.3.29-.03.33.37.34.08.58.97 1.55 1.03.28.07.42-.37.17-.72.52.12.5.73.63.36.02.3z" data-originalStrokeWidth="0.25" style="shape-rendering: auto; stroke: rgb(0, 0, 0);"></path>


<path id="Santa_Maria_do_Tocantins" fill="#ccccb8" stroke="#000" stroke-width=".25" d="m489.26 276.25 1.31.63.35.82 1.17.23.78-.19.5.1.74-.2 1.13-.53-.31.64-.06.46.28.67.54.14.83.05.86.48.54-.12.18-.34.79-.25-1.22 2.48-.83-.91-.33.95-.2.2-1.01.1-.22-.1-1.02.3-.82-.38-.74.2-.6-.15-.23.18-.7-.07-.07-.33-1.31-1-1.3-.12-.4-.2-.52-.53-.01-.2.2-.41.04-.58-.28-.43.08-1.17-.12-.7.47.42.77.2.56-.05z" data-originalStrokeWidth="0.25" style="shape-rendering: auto; stroke: rgb(0, 0, 0);"></path>


<path id="Santa_Rita_do_Tocantins" fill="#ccccb8" stroke="#000" stroke-width=".25" d="m471.64 313.82.28 1.15 1.66.03.36.13.26.6-.04.55.37.4-.03.53-.04.41.24.2.21.94-.5.86-.35-.14-.83-.02-.34.34-.5.18-.4-.04-1 .15-.85-.31h-.58l-.34-.16-.27-.47-.43-.08-.4.67-.4-.16-.48.36-.4.05-.41-.22-.08-.28-1.12.26-.85 1-.3.09-.6.02-.47.21-.9-.22-.29-.35-.29.11-.57-.52-.67-.07-.22-.36-.42-.12-.45-.57-.4-.28-.58-.83-.44-.16.37-.82-.04-.3.4-.55.84.1.3.33.5-.2.62.22.9-.65.11-.67.3-.44.72.18.24-.26 1.07-.34.27-.36.63-.42.92-.34 1.13.3.55-.04.41.26.3.55.31.06.55-.2.72.42.23-.18.47.16.74-.61z" data-originalStrokeWidth="0.25" style="shape-rendering: auto; stroke: rgb(0, 0, 0);"></path>


<path id="Santa_Rosa_do_Tocantins" fill="#ccccb8" stroke="#000" stroke-width=".25" d="m493.06 321.46.62.66-.15.46-.58.32-.12.7.2.37-.71.4-1.13.4-.25.34-.13.91-.27.24-.8 1.6-.4.43-.37-.27-.32.26-.32-.14-.8.14-.42.44-.6-.25-.47-.49-.25.2-.42-.3-.24-.42-.59-.2-.15-.72-.18-.22-.62-.22-.37-.44.27-.4-.56-.5-.19-.53-.25.03-.63-.39-.4-.68.1-.78.53.2.68-.03.62.3 1.16.15.44-.28.66-.02 1.17-.18.4.66.67.2.42-.69 1.03-.32.35-.29.58.13 1.03-.34.63-.53.29.26z" data-originalStrokeWidth="0.25" style="shape-rendering: auto; stroke: rgb(0, 0, 0);"></path>


<path id="Santa_Tereza_do_Tocantins" fill="#ccccb8" stroke="#000" stroke-width=".25" d="m497.2 304.44-.9.15-.44.2.2.48-.16.58.38.44-.86.6.01.15-.49.21-.24-.1-.92.33-.24-.2-.83.02-.27-.23-.49-.33-.04-.8.22-.36-.04-.39.46-.4.26-.5.04-.55.37-.74h.34l.85.5.93.06.92.64z" data-originalStrokeWidth="0.25" style="shape-rendering: auto; stroke: rgb(0, 0, 0);"></path>


<path id="Santa_Terezinha_do_Tocantins" fill="#ccccb8" stroke="#000" stroke-width=".25" d="m496.94 236.74-.9.6-.25.37-.67.19-.24.34-.54-.05-.38.27-.33.77-1 .2-.62-.47.68-2.02.95-.26.4.24.28-.23.8-.15.62.16.97-.12z" data-originalStrokeWidth="0.25" style="shape-rendering: auto; stroke: rgb(0, 0, 0);"></path>


<path id="São_Bento_do_Tocantins" fill="#ccccb8" stroke="#000" stroke-width=".25" d="m493.83 225.31.23.12-.07.54.27.25-.07.58.38.28-.26.57.18.32.4.16-.15 1.23.28.32-1.1-.03-.72.14-.58-.06-.6.16-.55-.15-.28.93-1.1-.14.26.47v.72l-.29.38-.33.06-.84-.54-.47.02-1.1-.26-.5.13-.58-.29-.25-.3-.38-1.47.57-.06.34.15.45-.15.56-.48.74-.15-.29-.78.22-.7 1.23.43.14.38.66.22.43.54.61-.1.43-.36-.1-1.14.6-.2-.23-2.04.67-.05.9.44z" data-originalStrokeWidth="0.25" style="shape-rendering: auto; stroke: rgb(0, 0, 0);"></path>


<path id="São_Félix_do_Tocantins" fill="#ccccb8" stroke="#000" stroke-width=".25" d="m516.53 298.4.17.58-.2.35v.58l.35.5v.5l.21.55.43.06.65.7.3.86.75.25.34-.1.66.07 1.01-.2.28.23-.4.25h-.78l-.38.54-.27.04-.4-.37-.45.02-.42.25-.4-.2-.62.08-.88-.23-1-.02-1.3.4-.79-.53-.49-.58-.59-.2-.69-.04-.82.26-.3-.06-.76.57h-.76l-.82-.32-.63-.4-.17-.28-.96-.27-.04-.34-.78-.53 1.03-.71.37-.52.71-.23.5-.01 1.07-.2.44-.21.83.12.55-.4.88-.33.21-.3 1.13.05.58-.05.55-.34.73-.68.78.14z" data-originalStrokeWidth="0.25" style="shape-rendering: auto; stroke: rgb(0, 0, 0);"></path>


<path id="São_Miguel_do_Tocantins" fill="#ccccb8" stroke="#000" stroke-width=".25" d="m498.77 222.7.05.28-.54-.01-.69.67-.83.02.07-1.97-1.13-.41-.4.49-.65-.06-.63.1.4-1 .23-.17.12-1.02.45-.56 1.1.78.67.18.36-.12 1.06 1.1.3.7z" data-originalStrokeWidth="0.25" style="shape-rendering: auto; stroke: rgb(0, 0, 0);"></path>


<path id="São_Salvador_do_Tocantins" fill="#ccccb8" stroke="#000" stroke-width=".25" d="m484.06 340.21 1 .76-.02.57.5.82-.58.77-.01.48.89.04.08.27-.42.28-.03.81-.98.47.58.4-.34.3.04.51-.28.3.03.4.75.52-.46.43.06.27.7.02-.23 1.03.33.6-.71-.1-1.15-.44-1 .07-.84.55-.74-.75-.52-.17-.4-.2-.38-.85.35-.43.14-1.15.23-.58.54-.03v-.44l.32-.24-.24-.4.3-.89-.1-.85.2-.19.7-.3.2-.3.18-.69-.16-.63.14-.35-.1-.47.12-.82.89.31z" data-originalStrokeWidth="0.25" style="shape-rendering: auto; stroke: rgb(0, 0, 0);"></path>


<path id="São_Sebastião_do_Tocantins" fill="#ccccb8" stroke="#000" stroke-width=".25" d="m485.6 215.88.71.38.24.24-1.42.83-.4-.21-.85-.13-.16-.32h-.66l-.64.26.16-.6-.73-.41-.44.06-.17-.55-.28-.3.26-.11 1.92-.33.62.5.63.13z" data-originalStrokeWidth="0.25" style="shape-rendering: auto; stroke: rgb(0, 0, 0);"></path>


<path id="São_Valério" fill="#ccccb8" stroke="#000" stroke-width=".25" d="m486.5 328.48.5 1-.14.43.27.4.86.24.13.83.76.25.32-.13.41.5-.03.26.93.58.97.22.44.27.43 1.28-.21.7-.27.38.3.75.4.47.34-.32.78-.29.12.61-.51.42-.3.48.13.34-.24.33-.07.77-.68-.15.24-.68-.23-.22.13-.6h-.3l-.46-.57-.9-.68-.95.11-.44-.24-.32.36-.48-.2-.16.3-.72.31-1-.7-.16.31-.55-.15-.03-.9-1.57-.96-.59-.56-.24-.6.14-.5-.25-.22-.17-.87-.27-.7.1-.51-.15-.41.1-.67-.17-.45-.4-.19v-.57l-.67-.59-.28-.64.08-.55-.28-.35.23-.38-.36-1.1.06-.55.35-.99.4.68.63.4.25-.04.19.52.56.5-.27.41.37.44.62.22.18.22.15.71.59.21.24.41.42.31.24-.2z" data-originalStrokeWidth="0.25" style="shape-rendering: auto; stroke: rgb(0, 0, 0);"></path>


<path id="Silvanópolis" fill="#ccccb8" stroke="#000" stroke-width=".25" d="m494.43 316.9-.04.54.23.22.12.7.3.28-.74 1.1-.41.48-.82 1.25-.85.17-.3-.26-.63.53-1.03.34-.58-.13-.35.29-1.03.32-.42.68-.67-.2-.4-.65-1.16.18-.66.02.37-.3.37-.97-.2-.28-.57-.03-.14-.44-.87-.62.14-.82-.15-.34 1.03-.8.12-.28.6-.26 1.04 1.1.11.47.44.36.16.42.61.1.31.43.77.33.75-.04.6-.3.5-.74.47.04.6-.18-.41-1.98.04-.34.38-.28.59-.18.56.06.29-.34.64-.42-.05.55z" data-originalStrokeWidth="0.25" style="shape-rendering: auto; stroke: rgb(0, 0, 0);"></path>


<path id="Sítio_Novo_do_Tocantins" fill="#ccccb8" stroke="#000" stroke-width=".25" d="m494.02 221.81.63-.1.64.05.41-.49 1.13.41-.07 1.97-2.79 1.62-.04-.94.74-1.33.32-.15.28-.6-2.88.1.82-1.05.7.22z" data-originalStrokeWidth="0.25" style="shape-rendering: auto; stroke: rgb(0, 0, 0);"></path>


<path id="Sucupira" fill="#ccccb8" stroke="#000" stroke-width=".25" d="m473.8 333.08-.04.2.7.91.27.11.17.48.57.2.4-.08.35.43-.3 1.33-.14 1.16.54-.1.42.36.9-.12.22-.28.35.27v.46l.3.82-.28.33-.51-.02-.74.82-.37-.1-.3.29.05.38-.32.19-.32-.3-.62-.02-.64-.37-.98.23-.18-.01-.03-.27.26-.7-.13-.57-.54-.35-.43-.01.32-.84.46-.33-.3-.81-.42-.42.06-.25-.29-.5.2-.72-.3-.45-.06-.33.8-.38.48-.8z" data-originalStrokeWidth="0.25" style="shape-rendering: auto; stroke: rgb(0, 0, 0);"></path>


<path id="Taguatinga" fill="#ccccb8" stroke="#000" stroke-width=".25" d="m518.38 337.21-.01.42-.37.83.2.2.2.88-.33.31.32.4-.25.4.63.1-.38.84.45.33.3-.17.49.12.06.31-.45.45-.15.62.12.42.6-.84.35.25-.17.4.33.34-.08.44 1.19.1-1.23.45-.54-.02-.72.23-.91.65-.85.06-.46-.29h-.37l-.6.27-.35-.08-.58.36-.38-.25-.4.25h-.77l-.43-.43-.38.22-.56-.14-.18-.43-.51-.22-.54-.59-.02-.22-.87-.28-.21-.36-.43.1-.15-1.1-.8-.43.98-.6.25.12.53-.12.65-.74.37.24.26-.7.66-.28.56.1.34.21.45-.1.93-.77.32-.63.56-.23.42-.88.9-.56.67.28.47.01z" data-originalStrokeWidth="0.25" style="shape-rendering: auto; stroke: rgb(0, 0, 0);"></path>


<path id="Taipas_do_Tocantins" fill="#ccccb8" stroke="#000" stroke-width=".25" d="m509.43 339.33-.07.37-.4.62-.25.06-.53.54.06.24-.31.61-.34.17-.54.1-.62-.05-.7-.34-.54.2.33-.5.18-.54-.31-.21-.26-.57.28-1 .04-.7.35-.58.2-.75-.54-.68-.52-.44.05-.4-.26-.57.35-.51.44.25.55.09.19-.15.57-.12.74.05.57-.11.27.33.8.13.46.44.32 1.07.06.59-.44.37-.04.7.16.47-.32.26z" data-originalStrokeWidth="0.25" style="shape-rendering: auto; stroke: rgb(0, 0, 0);"></path>


<path id="Talismã" fill="#ccccb8" stroke="#000" stroke-width=".25" d="m477.01 342.51-.68.42-.58.2-.28 1.37-.29.23.11.51-.49.1-.29.6.22.75 1.06.38-.19.42.31.74v.3l-.54-.1-.56.11.4.52v.42l-.76-.15-.26.33-.17.24-1.69 2.47-.49-.41-.13-.34-.39-.21-.32.1-.66-.31.26-.63-.55-.34-.24-.81-.47.5-.73.52-.44.54-.48.1-.28-.16-.15-.62-.3-.06-.23-.4-.99-.41-.02-1.17.36-1.7-.28-.33-.28-.86-.02-.5.5-.01.84.15.52.42.91-.21h.77l1.17 1.36.75-.21.4-.78.1-1.34.48-.04.14.04 1.35-.36 1.23-1.14.78-.44.82-.04z" data-originalStrokeWidth="0.25" style="shape-rendering: auto; stroke: rgb(0, 0, 0);"></path>


<path id="Palmas" fill="#ccccb8" stroke="#000" stroke-width=".25" d="m485.63 299.44.33.46.1.52.43.32.23.5-.16.25.02.95.38-.03.45-.38.95.17.85-.04.11 1 .91.04 1.18-.77.33-.7.44-.23.37-.52.22-.55.3.57-.13.84.29 1.17-.37.74-.04.55-.26.49-.46.4.04.4-.43.14-.65-.14-.17-.27-.42.39-.58.25-.45.86-.35.33-.3-.15-.32.86-.35.38-1.31-.04-.16-.2-.16-.84-.24-.38-.85.18-.51.4-.98.07-.79-.07-.65-.52-.13-.42.1-.95.3-.7.03-.52-.47-.17-.18-.57.65-1.96.46-.5.47-.22-.09-.73-.22-.52-.33-.4v-.43l.46.22.95-.12.07.64.3.23z" data-originalStrokeWidth="0.25" style="shape-rendering: auto; stroke: rgb(0, 0, 0);"></path>


<path id="Tocantínia" fill="#ccccb8" stroke="#000" stroke-width=".25" d="m491.25 288.42.15.53-.06.5-.53 1.53.08.54-.2.44.25.36.07 1.05.18.6.24 2.07-.8.5-.33-.1-2.48 1.75-.09.32-.52.41-.4.16-.48-.17-.77.31.68-.7-.3-.47-.47-.3-.47-1.69.04-.36-.4-.16-.28.22-.73-.44-.1-.39-.42-.2-.63-1.02-.06-.4.4-.85.2-1.35-.1-1.02.32-.82-.15-.83.31-.94.32.34.45.07.58.6.25-.26.44-.06.48.42.33 1.55.7.13.71-.17.52-.29.17-.54.65.13.57-.18.27-.67.54-.37.34-.38.46.3z" data-originalStrokeWidth="0.25" style="shape-rendering: auto; stroke: rgb(0, 0, 0);"></path>


<path id="Tocantinópolis" fill="#ccccb8" stroke="#000" stroke-width=".25" d="m499.65 230.6-.08.44.2 1.18.75 1.59.04.4-.53.98-.01.68-.37.99-.37.39-.42.08-.28-.24-.73-.1-.24.23-.54-.49.14-.32-.95-.29-.36.12-.15-.48-.48-.5-.21-.45-.56-.32-.12-1.86.55-.36.63.1 1.04-.52.69-.17 1.02-.91.22-.35.48-.06.48-.76.2.48z" data-originalStrokeWidth="0.25" style="shape-rendering: auto; stroke: rgb(0, 0, 0);"></path>


<path id="Tupirama" fill="#ccccb8" stroke="#000" stroke-width=".25" d="m487.36 279.25-.24.25-.55 1.1-.14 1.02-.04.66-.24.73-.5.4-1.06 1.4-.66-.08-.5-.21-.08-.64-.28-.14-.08-.18.22-.75-.12-.83h-.46v-.56l.33-.32.54-.27.5-.88-.02-.24.38-.77.6-.54.43.17 1.14-.2.53.22.26-.75.28.43-.04.58z" data-originalStrokeWidth="0.25" style="shape-rendering: auto; stroke: rgb(0, 0, 0);"></path>


<path id="Tupiratins" fill="#ccccb8" stroke="#000" stroke-width=".25" d="m486.88 267.4-.17.81.3.61.22 1.01.08 1.4.75.83.02.97-.28.84-.44.16-.14.32-.38.67h-.5l-.54-.4-.01-.19-.97.04-.42-.5-.02-.4.3-.53-.35-.2.03-.48.42-.66.11-.55-.3-.44-.72-1.06-.55-.4.37-.28.33-1.2.32-.45.71-.14.3-.24.98.73z" data-originalStrokeWidth="0.25" style="shape-rendering: auto; stroke: rgb(0, 0, 0);"></path>


<path id="Wanderlândia" fill="#ccccb8" stroke="#000" stroke-width=".25" d="m493.9 245.4.37 1.38-2.4.72-4.76 1.73-.73.08-.24-.32-.05-.76.23-.9.96.33.02-7.26.4.53.77.15.51.54.7.25.23.44.92.49.54.6-.12.23.4.53.07.49 1.07.78z" data-originalStrokeWidth="0.25" style="shape-rendering: auto; stroke: rgb(0, 0, 0);"></path>


<path id="Xambioá" fill="#ccccb8" stroke="#000" stroke-width=".25" d="m483.64 236.04.54.45.3.83.23.21-.15.46.07.36-.68 1.12-.75.34-.47 1 .34 2.52.17.37-.5.75-.72-.25-.56-.58-.2-.72.28-.7-.02-.58-.34-.52-.43-.07-.27.18-.74-.57-.3-.05-.55-.9-.36-.04-.15-.88v-.7l.14-.22.33-.54 1.17-.83.52-.78.2-.11h.92l.46.13.7.37.11-.6.53.21z" data-originalStrokeWidth="0.25" style="shape-rendering: auto; stroke: rgb(0, 0, 0);"></path>

</svg>