<?xml version="1.0" standalone="no"?>
<svg xmlns="http://www.w3.org/2000/svg" id="map" version="1.2" width="800" height="800" viewBox="450 130 180 180"> 

<path id="Açailândia" fill="#ccccb8" stroke="#000" stroke-width=".25" d="m510.05 201-.03.37-.26.32-.15.61-.55.32-.1.83-.62.93-.11.57.19 1-.05 1.4.3.87-.18.84.13.56-.05.67.24.33-.15.27.25.77-.4.4-.52.31-.65.2-.53.01-.3.2-.7-.07-.27.41-.41.15-.27.97-1.08.33-.4.05-.31-.46-.22-.63-.38-.38-.73-.1-.22-.58-.46-.3-2.23.36-.2.52-.46-.23-.71.57-2.21-.94-.6-.6-.07-.39-1.7-1.15-.42-.76-.38-.38-1.08-.47-.85-.68-1.02-.23 3.7-2.9.42-.5.68.09.52.28.79.03-.22.72.19 1.13.46.03.17.23.54-.45.73.09 1.4-.11-.01-.87.48-.04.4-.25.87.23.55.38.53.17.48.33.38-.02 1-1.07.1-.63-.16-.73-.35-.91.2-1.25.36-.22.6-.64.87-1.24.22-.61.45-.34.19-.41.3-.1v.67l-.27.52.45.73.1.4.47.39.26.5.29.17.62-.03.55.3.73-.26h.4z" data-originalStrokeWidth="0.25" style="shape-rendering: auto; stroke: rgb(0, 0, 0);"></path>


<path id="Afonso_Cunha" fill="#ccccb8" stroke="#000" stroke-width=".25" d="m574.25 200.49-3.87-2.51 2.88-2.64.39.76.3.1.05.88-.18.25.08.69-.03 1.1.2.33z" data-originalStrokeWidth="0.25" style="shape-rendering: auto; stroke: rgb(0, 0, 0);"></path>


<path id="Água_Doce_do_Maranhão" fill="#ccccb8" stroke="#000" stroke-width=".25" d="m590.17 177.99 2.35-4.4.05-.51.81-.24.2-.78.34.04.46.98-.29.36-.15.73.23.65-.52.28-.31.32.06.7 1.39.05-.32.47-1.06.4-.37.31-.75.23-1.12.18-.45-.02z" data-originalStrokeWidth="0.25" style="shape-rendering: auto; stroke: rgb(0, 0, 0);"></path>


<path id="Alcântara" fill="#ccccb8" stroke="#000" stroke-width=".25" d="m550.48 169.22-.57-.32-1.1.45-.4.45-.68-.04v0l.46-1.43-.2-.57-.43-.43.3-.47.79-.48-.12-.32.23-.34.04-.56-.3-.48.06-.34.34-.43.3-.1.07-.4 1.4-1.26.24-.64.8-.25.41-.01.47.36.65.87.26 1.09.35.63.11.43-.39.4.13.38-.27.5-.97.09-.62-.05.55.54.06.28-.6.53-.18.52-.88.49z" data-originalStrokeWidth="0.25" style="shape-rendering: auto; stroke: rgb(0, 0, 0);"></path>


<path id="Aldeias_Altas" fill="#ccccb8" stroke="#000" stroke-width=".25" d="m576.5 201.91-.69 1.13-.22.93-.45.5-.79.68-.13.84-.9.63-.33-.32-.96-.4-.55-.49-.64-.24-1.07.21-.3.15-.2.46-.28.12-.9-.15-.46-.29-.46-.38-.54-.94-.67-.6-1.12-1.31.32-.07.5.37 3.45-2.02 2.34-1.35-1.08-1.4 3.87 2.52z" data-originalStrokeWidth="0.25" style="shape-rendering: auto; stroke: rgb(0, 0, 0);"></path>


<path id="Altamira_do_Maranhão" fill="#ccccb8" stroke="#000" stroke-width=".25" d="m535.14 195.22-.07.37-.38.54.3.4.5-.47.46.03.36.26-.14.66-.37.04-.3.3-.3 1.17-.12.2-.6.27h-2.07l-.5.12-.37-.45.12-.46.43-.26v-.45l.06-.66.18-.3.01-.56.33-.52.07-.36-.27-.7.21-.59h.2l1.11 1.35.73.2z" data-originalStrokeWidth="0.25" style="shape-rendering: auto; stroke: rgb(0, 0, 0);"></path>


<path id="Alto_Alegre_do_Maranhão" fill="#ccccb8" stroke="#000" stroke-width=".25" d="m555.55 198.94-.58-.15-.99-.02-.8.57-.09.36-1.17-.29-.07-.45h-.5l.1-.42.35-.37-.12-1.84.7-.01 1.85-.52z" data-originalStrokeWidth="0.25" style="shape-rendering: auto; stroke: rgb(0, 0, 0);"></path>


<path id="Alto_Alegre_do_Pindaré" fill="#ccccb8" stroke="#000" stroke-width=".25" d="m531.26 187.41-.34 2.12-.37.38-.07.37-.32.26-.7.2-.13-.35-.6.7-.43-.26-.53-.05-.12.33v.8l-.98.41-.15.5-.32.36-.9.52-.67.24-.59.1-.76.6-3.19 4.73-.32-.41-.13-.62.26-.28.02-.88.28-.86.97-1.41-.23-.7-.77-.36.31-.67.83-.46.01-.9.38-.52.08-.54.37-.71.96-.8.04-.21.64-.07.38-.22.47.08.57-.4.76.39.51-.26.35-.47.8-.1.63-.4 1.02.15.33-.15.91.06z" data-originalStrokeWidth="0.25" style="shape-rendering: auto; stroke: rgb(0, 0, 0);"></path>


<path id="Alto_Parnaíba" fill="#ccccb8" stroke="#000" stroke-width=".25" d="m526.02 278.65-.38.5.18.52-.4.31.1.25-.5.9.06.4.42.47.56 1.1-.09.3.32.61-.12.66.21.56.36.46v.85l-.18 1.14.36.9.7.13.34.31.52.77.28 1.11-.14.05-.36.37-.54 1.04.07.56.32.42-.23.61.07.48-.16.3.3.76v.6l-.3.42-.45 1.14.1.82.27.56-.2 1-.16.16-.3.99.19.15-.15.72-.38.75-.81.77-.18.44.17.66-.5-.18-.67.04-.28-1.3-.53.15-.61.43-.67-.06-.58.13-.56-.54-.28-.24-1.01.2-.66-.08-.34.11-.76-.25-.3-.86-.64-.7-.43-.06-.22-.56v-.49l-.35-.5v-.58l.2-.35-.16-.58.04-.47-.71-1.42-.87.24-.31-.26.18-.47-.47-.4-.5.06-.35-.18-.16-.83.7-.49.13-.63.4-.78.79-.45-.03-.18-.6-.52.26-.47-.24-.29-.92-.2-.4-.34v-.35l.27-.28-.13-.2.4-.75-.6-.32-.28-.58v-.52l.39-.22.02-1.01.66-1.01-.07-.55-.28-.28.22-.28.64-.1.66-.43.1-.9.19-.4v-.51l.36-.44.6-.07.9-.28.45-.35.98-1.11.04-.26.87-.97.45.76.3.13.77-.04 1.19.54.64-.11.48-.36 1.32-.18.74-.31z" data-originalStrokeWidth="0.25" style="shape-rendering: auto; stroke: rgb(0, 0, 0);"></path>


<path id="Amapá_do_Maranhão" fill="#ccccb8" stroke="#000" stroke-width=".25" d="m527.2 154.87-1.08.06-.26.13-.91-.13-1-.82.38-1.32.18-2.62.14.09 1.44.92 1.89.58.18.19-.1.5-.33.16-.33.43.2.6-.47.73z" data-originalStrokeWidth="0.25" style="shape-rendering: auto; stroke: rgb(0, 0, 0);"></path>


<path id="Amarante_do_Maranhão" fill="#ccccb8" stroke="#000" stroke-width=".25" d="m516.72 209.07 6.64.06h1.27l.1.17-.27.91.01.32-.5.6-.28.58-.77.81-.41.16-.52-.02-.42.31-.52 1.12-.3.13-.84.75-.04.28-.47.36-.14.77-.47.56.32.67v5.68l-.34.41-.5.02-.07.3-.52.5h-.48l-.56.47-1.42-.3-.94.1-.13.19-1.23.25-.25-.36-.65.06-.57 1.25-.34.2-.22.74.22.48-.85-.11-.35.24-.48.05-.3-.35.28-1-.44-.8-.18-.86-.02-.53-.35-.68-.03-.65-.18-.16.05-.42-.22-.3.18-1.26.23-.18v-.73l.54-.85.05-.52-.12-.5.1-.27-.21-1 .42-1.07.02-.32.3-1.2-.16-.4.16-.32-.54-.98-.1-.76-.25-.77.15-.27-.24-.33.05-.68-.13-.56z" data-originalStrokeWidth="0.25" style="shape-rendering: auto; stroke: rgb(0, 0, 0);"></path>


<path id="Anajatuba" fill="#ccccb8" stroke="#000" stroke-width=".25" d="m550.47 177.25.26.24-.15.39 1.39 1.6.18.32.38.03.05.37.16.63-.75 1.1-.32-.13-.1.48-.76 1.15-.86.9-.17-.1-.7-.35-1.03-.82-.99-1.44-.56-1.3.24-.32.98-.3.38-.23.26-.42.18-.11 1.5-1.67z" data-originalStrokeWidth="0.25" style="shape-rendering: auto; stroke: rgb(0, 0, 0);"></path>


<path id="Anapurus" fill="#ccccb8" stroke="#000" stroke-width=".25" d="m575.53 184.59.15.23 2.9-1-.4.85.2.32-.16.36-.03.78-.25.62.31.43v.3l-.56 1.17-.02.75-1.88-.85.18-.94.44-.9-.15-.93-.56-.09-.36.47-.43-.04-.36-.62-.5.04-.3.34-1 .22-.28-.26 1.34-2.69.35.17.59.86.4.05z" data-originalStrokeWidth="0.25" style="shape-rendering: auto; stroke: rgb(0, 0, 0);"></path>


<path id="Apicum_Açu" fill="#ccccb8" stroke="#000" stroke-width=".25" d="m543.45 150.9.05.12-1.03.25-.56.36-.6.09-.1.3-.76.37-.8-.8.29-.43-.41-.67-.38-.86.34.14.32-.38.46.18.52-.2.12-.32.47.44.75.22.34-.12.32.47.47.42zm-2.56-3.08-.14.44-.38-.44.22-.4z" data-originalStrokeWidth="0.25" style="shape-rendering: auto; stroke: rgb(0, 0, 0);"></path>


<path id="Araguanã" fill="#ccccb8" stroke="#000" stroke-width=".25" d="m531.34 174.63.25 2.66-.27.53-.05.64-1.23-.32-.51.94-.71 1.1-.04.38-.44-.15-2.1.12-.43-.88.56-1.1-.21-.47.36-1.07.14-.18.2-.42.75-.26.16-.62.9.33.3-.42.25.23.42-.41.42.2.62-.32z" data-originalStrokeWidth="0.25" style="shape-rendering: auto; stroke: rgb(0, 0, 0);"></path>


<path id="Araioses" fill="#ccccb8" stroke="#000" stroke-width=".25" d="m598.73 172.06-.4.47.06.53-.37 1 .56.8.48.4.17.4-.46 1-.82.75-.47.6-.5.34v.44l-.4.63-.45.34-.13.41-.1.11-4.6-.4-1.13-1.9.54-.23.45.02 1.12-.18.75-.23.37-.31 1.06-.4.32-.47-1.39-.05-.06-.7.31-.32.53-.28-.23-.65.15-.73.3-.37-.47-.98-.34-.04v-.18l-.64-.47-.74-.18-.49-.31.17-.1 1.33.14 1.17-.13.5.75.47.14-.04-.42.62.16 1.3-.07 1.34.09.48.1z" data-originalStrokeWidth="0.25" style="shape-rendering: auto; stroke: rgb(0, 0, 0);"></path>


<path id="Arame" fill="#ccccb8" stroke="#000" stroke-width=".25" d="m532.5 210.72-.58.66-.03.2-.24-.09-1.13.9-.72.16-.8 1.17-.44.15.02.45-.82 1.03-.28-.01-.19.52-.69.36-.48 1.02-.65-.2-.29-.21-.44.27-.95-.2-.58-.02-.29-.26-.46.09-.84-.21-.32.97-.78.45h-.48l-.55.18-.39-.48-.32-.67.47-.56.14-.77.47-.36.04-.28.84-.75.3-.13.52-1.12.42-.31.52.02.41-.16.77-.81.28-.58.51-.6v-.32l.26-.92-.1-.17-.18-.3-.02-.56-.2-.27.32-.57.38-.41.44-.2.3-.43v-.36l.53-.3.11-.81-.02.43.98-.22.33 2.06 2.42.55.1 1.03 1.91 1.07.46.45z" data-originalStrokeWidth="0.25" style="shape-rendering: auto; stroke: rgb(0, 0, 0);"></path>


<path id="Arari" fill="#ccccb8" stroke="#000" stroke-width=".25" d="m547.07 181.62.99 1.44 1.03.82.7.36-.3.65-.26.13.04.79.23 2.2v3.18l-.45-.14-.31-.57-1.08-1.11-.62-.31.16-.4-.32-.37-.27.4-.57.14-.2-.48.42-.36-.36-.33.2-.51-.1-.28-.56-.37.15-.47-.29-.4-.1-.46.6-.44-.78-2.25.02-.3-.29-.56.11-.26.34-.1.46.18.27-.32.38.45.4.17z" data-originalStrokeWidth="0.25" style="shape-rendering: auto; stroke: rgb(0, 0, 0);"></path>


<path id="Axixá" fill="#ccccb8" stroke="#000" stroke-width=".25" d="m559.4 172.96.01 1.14-.2.49.02.1-1.36.74-.16-.5.32-.36-.22-.45.22-.23-.06-.67-.3-.96.58-.35.65-.08.2.64-.07.46z" data-originalStrokeWidth="0.25" style="shape-rendering: auto; stroke: rgb(0, 0, 0);"></path>


<path id="Bacabal" fill="#ccccb8" stroke="#000" stroke-width=".25" d="m549.25 191.54.24.63-.2.64-.26.16.13.75-.01.64h-.94l-.74.36-.39.38-.1.61h.95l.27-.35.43.33h.53l-.07.37h1.06l-.08-.4 1.61-.01v.68l.12 1.84-.36.38-.1.42-4.14.03-2.35 1.83-.14-.56-3.48-.93v-.9l.25-.1 1.8-1.27-.43-.37-.45-.65 3-.02-.17-.57.4-.07.5-.52-.05-.77.18-.42.35-.11.36-.51.76-.24-.09-.22.67-.65.3.05z" data-originalStrokeWidth="0.25" style="shape-rendering: auto; stroke: rgb(0, 0, 0);"></path>


<path id="Bacabeira" fill="#ccccb8" stroke="#000" stroke-width=".25" d="m555.3 172.22.05.4-.25.74.35.35.01.41-.34 1.42.62.23-.49 1.36-.56-.2-.12.7.02.57-2.58-1.14-.49-.25.83-.8.42-.65.33-1.1-.06-1.46.34-.03.05-.58.35-.15.67.44z" data-originalStrokeWidth="0.25" style="shape-rendering: auto; stroke: rgb(0, 0, 0);"></path>


<path id="Bacuri" fill="#ccccb8" stroke="#000" stroke-width=".25" d="m543.5 151.01.24.23-.03.42.3.22.3.72-1.27.08-.6.37-1.33.22-.07.6-.7.88.83.37-.04.25-.6.41-1.07.35-.76.1-.46-.73.2-.48-.65-1.08-.29-.09-.53.25-.5-.16-.16-.35.57-2.04 1 .02.32-.2.24-.59.42-.4.29-.75.38.86.4.67-.28.43.8.8.76-.36.1-.31.6-.1.56-.36z" data-originalStrokeWidth="0.25" style="shape-rendering: auto; stroke: rgb(0, 0, 0);"></path>


<path id="Bacurituba" fill="#ccccb8" stroke="#000" stroke-width=".25" d="m550.48 169.22-.54 1.1-.37.55-.36.24.06.59-.36.75-.11.46-.35-.24-.79-.02-1.66.06-.19.08.15-.42.1-.95-.1-.32.43-.6.84-.7.5-.03.68.03.4-.45 1.1-.45z" data-originalStrokeWidth="0.25" style="shape-rendering: auto; stroke: rgb(0, 0, 0);"></path>


<path id="Balsas" fill="#ccccb8" stroke="#000" stroke-width=".25" d="m527.23 252.16.54.25.6.45.67.17.86.54.35.42.45.26-.25.42-.52.3-.48-.16-.18.23-.46-.13-.61.17-.3.44.18.3.12.93.38.61-.11.43-.01.9.16.8-.07.38-.86.75v.66l-.28.23.31 1.05-.07.66.33.7-.25.46.37.16.47.57.5.46.08.41-.3.57-1.12.07-1.3.6.04.8-.23.22-1.35-.62-.37-1.23-.6-.5-.08-.36-.53-.36-.17.57-.77.36-.07.66.24.45.26 1.54.31.15-.06 1.07.3.34.11.44-.24.34.01 2.1-.35.82.07.82-.37.48-.19.5-1.07.48-.6.44-.2.63-.43.22-.23.56-.87.97-.04.26-.98 1.11-.44.35-.9.28-.6.07-.36.44v.51l-.2.41-.1.9-.66.43-.64.1-.22.27.28.28.07.55-.66 1.01-.02 1.01-.38.22v.52l.27.58.61.32-.4.75.12.21-.58-.35-1.02.08-.55.31-.07-.58-.72-.75-.35-.62-.5-.2.5-.6-.17-.32.16-.5-.15-.3-.43-.16.08-.32-.23-.38-.5-.07-.19-.25-.47.12-.07-.5.32-.42-.49-.34-.63.32-.56.01-.89-.52.34-.93.31-.22.17-.73.73-.57-.4-.63.26-.19.5.04.56-.23.27-.75-.04-.69-.37-.7.2-.49.5-.39-.05-.29-.48-.38v-.27l.33-.57-.08-.26.47-.55.52-.37-.05-1.05h.45l.41-.37.08-.45-.12-.39.45-.67.9.26.35.5.58.05.72-.14.28.26.9-.34.8.16.11.3.8-.14.77-.76.24-.9-.16-.5.36-1.28-.09-1.09.2-.27-.12-.64-.34-.46.28-.4-.1-1.1.1-.28-.3-.67-.37-.13.33-.87-.23-.69-.33-.47.3-.37-.49-.68.27-.28.05-.59.53-.38.55-4.06 3.91-1.76-.56-1.9 2.23-1.73z" data-originalStrokeWidth="0.25" style="shape-rendering: auto; stroke: rgb(0, 0, 0);"></path>


<path id="Barão_de_Grajaú" fill="#ccccb8" stroke="#000" stroke-width=".25" d="m579.98 238.3-.01 1.3-.37.5-.13.75-.06.36-.5.59-.54.28-.27.55-.32.2-.65.03-.7-.2-.25.3-.82.28-.54-.28h-1.23l-.41.44-.8.16-.5-.07-.82.65-.5.17-.62.04.93-4.18.35-.33.05-1 .17-.12-.67-1.38-.02-.63-.24-.24.81-.19.57.02-.22-.74 1.05-.13 3.48 1.46 3.53 1.4z" data-originalStrokeWidth="0.25" style="shape-rendering: auto; stroke: rgb(0, 0, 0);"></path>


<path id="Barra_do_Corda" fill="#ccccb8" stroke="#000" stroke-width=".25" d="m543.76 212.1.28.3.47-.13.4.22.24 1.1.38.12.2.58 1.07.63-.21.38-.53.3-.2.68-.96 1.5-.44.2-.54.58.1.28-.34.72-.09.66-.38.55.16 1-.2 1 .78.84.1.51-.1 1.54-2.93 1.11-.1-.03-1.54.47-1.57 2.1-.3-.34-.13-1-.3-.05-1.12.27-2.22-2.24-1.28-1.32.44-.35-.07-.3.9-.66.35-.63h.34l.63-.3-1.7-1.68 1.81-1.1-.3-.43-.12-.47-.68-1.75.42-.5.6.37 1-.18.53-.59-.36-.38.34-.32.22-.14.02-.38.22-.23v-.52l-.28-.22 3.64.02 1.83 1.52.3-.55.09-.48.52-.63v-.57l.23-.6z" data-originalStrokeWidth="0.25" style="shape-rendering: auto; stroke: rgb(0, 0, 0);"></path>


<path id="Barreirinhas" fill="#ccccb8" stroke="#000" stroke-width=".25" d="m584.3 169.72-1.28 4.54-.19.3-.44.07-.49 1.73.4.68-.05.3-.12.33.02.87-.63.45-.46 1.19-3.83-1.52-.03.13-.9-.5-.99-.4.17-.15-.2-.61-.5-.86-.74.47-.37-.53.56-.4.45-.19 1.53-.76.52-.56-.35-.3-.22-.48.03-.38-.39-.77.55-.07.64-.38.34-.7-.02-1-.55-.46.31-.79-.04-.79.13-.47.5-.23.04-.73.87.32 2.42 1.22.3.08.9-.03.21.25.4-.1.53.33z" data-originalStrokeWidth="0.25" style="shape-rendering: auto; stroke: rgb(0, 0, 0);"></path>


<path id="Belágua" fill="#ccccb8" stroke="#000" stroke-width=".25" d="m572.33 176.75.88.72-.17.32-1.16.37-.65.55-.55.3-.7.6-1.07.7-.1.3-1.52-.08-.14-.05.1-1.08 1.14-.75-.52-1.62.36-.3.9-.11.23-.45.54-.1z" data-originalStrokeWidth="0.25" style="shape-rendering: auto; stroke: rgb(0, 0, 0);"></path>


<path id="Bela_Vista_do_Maranhão" fill="#ccccb8" stroke="#000" stroke-width=".25" d="M540.03 189.26v.02l-1.02.94-.28-.22-.64.47-.76.02-.47.8-.02-.52.16-.6-.1-.6-.36-1.12.34.2.63.4z" data-originalStrokeWidth="0.25" style="shape-rendering: auto; stroke: rgb(0, 0, 0);"></path>


<path id="Benedito_Leite" fill="#ccccb8" stroke="#000" stroke-width=".25" d="m554.5 245.91.66.4.28.01.44.75-.52.66.05.36v.3l-.66.78-.25-.15-.66.2-.38-.02-.79.54-.75.26-.68.48-.17.44-.77.18-.11.35-.4.33-.38.74-.8.36-.31.53-.21.65-.71-.1-.2-.5-.68.3-.65-.3-.06.25-.47.18-.37.63-.55.06-.42.75-1.1.24-.07.03 3.56-4.13 1.59.1-.13-.32.34-.84-.6-.06.04-.62-.97-.46-.2-.44 1.28-.98.2-.57.05-.66 1.47-.22 1.19.72.2.22.4-1.6.33-.72.59.2.33-.6.6-.44.34.15.19.56.77.68z" data-originalStrokeWidth="0.25" style="shape-rendering: auto; stroke: rgb(0, 0, 0);"></path>


<path id="Bequimão" fill="#ccccb8" stroke="#000" stroke-width=".25" d="m548.3 163.63.6.28-.34.43-.06.34.3.48-.04.56-.23.34.12.32-.8.48-.3.47.44.43.2.57-.46 1.43-.44-.3-.25-.45-1.11.03-.01-.88-.38-.38-1.42.1-.36-.15-.42-.94.07-.57.68-.63.32-.12.63-.47-.11-.36.93-.69.64-.1.34-.39.8.05.31.21z" data-originalStrokeWidth="0.25" style="shape-rendering: auto; stroke: rgb(0, 0, 0);"></path>


<path id="Bernardo_do_Mearim" fill="#ccccb8" stroke="#000" stroke-width=".25" d="M547.08 204.04v.66l.39.83.6.14.82-.18.9.2.2 1.26.23.31-.11.32-3.2-.87.03-.1-.76-1.84-.05-.69z" data-originalStrokeWidth="0.25" style="shape-rendering: auto; stroke: rgb(0, 0, 0);"></path>


<path id="Boa_Vista_do_Gurupi" fill="#ccccb8" stroke="#000" stroke-width=".25" d="m523.73 153.85-.8 1.63-1.94 1.7-.1-.48-.26-.18.5-.57.08-.27-.34-.49-.51-.14-.9.2-.26-.6.17-.55.35-.26.52.11.32-.2.47.17.3-.46.52-.08.33-.45-.14-.38.05-.55.93.4.28.54.43.02.1.31z" data-originalStrokeWidth="0.25" style="shape-rendering: auto; stroke: rgb(0, 0, 0);"></path>


<path id="Bom_Jardim" fill="#ccccb8" stroke="#000" stroke-width=".25" d="m533 185.01.16.67.23.2.02.73h.24l.28.54.46-.33.42.02.65-.3.1.6-.6.13-.55.34.02.36-.25.43-.4.3-.4-.66-.58-.04-.93.4-.26-.32-.1-.57-.25-.1-.74.25-.9-.06-.33.15-1.02-.15-.64.4-.8.09-.35.47-.5.26-.76-.4-.57.4-.47-.07-.38.22-.64.07-.04.2-.96.8-.37.72-.08.54-.39.53v.89l-.84.46-.3.67-.1.2-.8.7-.29.1-.68.57-.18.4-.85.52-.25.59-.6.55-.34.42-.59.39-.1.5-.88.52-.77.65-.86.16-1.03.68-.49-.18-.78.05-.55.34-.48.59h-.4l-.73.26-.55-.3-.62.03-.29-.16-.26-.51-.47-.38-.1-.41-.45-.73.27-.52.01-.66.76-.3.34-.8.75-.98.1-.5.62-.07.47-.2.15-.56.4-.21.45-.51.7-.08.76-.41.07-1.24.85-.48.21-.41-.48-.28-.23-1.11.46-.57.27-.7.65-.15.57.1.18-.4.31-.07.42-.46.64-.4.18.1.71-.25.16-.25.7-.51.64.3.7-.38-.04-.18.97-.24.93.35.31.33.36.08.54-.27.9.43.5.12-.27-.84.15-.66.26-.05-.1-.56 3.3-.01 4.16.03z" data-originalStrokeWidth="0.25" style="shape-rendering: auto; stroke: rgb(0, 0, 0);"></path>


<path id="Bom_Jesus_das_Selvas" fill="#ccccb8" stroke="#000" stroke-width=".25" d="M516.72 209.07h-8.23l.19-.84-.31-.88.05-1.4-.2-1 .11-.57.64-.92.09-.83.55-.32.15-.61.26-.32.03-.37.54-.34.78-.05.5.18 1.02-.68.86-.16.77-.65.88-.51.1-.51.6-.4.34-.41.04.64-.12.29.18.52-.33.2.05.65-.27.95.1.56.03 1.49.12.6.01 1.47.25.73-.27.25.56 1.63-.34.44-.08.43z" data-originalStrokeWidth="0.25" style="shape-rendering: auto; stroke: rgb(0, 0, 0);"></path>


<path id="Bom_Lugar" fill="#ccccb8" stroke="#000" stroke-width=".25" d="m544.86 200.82-2.04 1.32-1.02.38-.26-.44-.5-.1-.08-.47-.6-.18v-.83l.36-.66-.05-.74.4-.5-.2-.32.2-.67.92-.36.14-.63.37-.3-.1-.28.45.65.42.37-1.79 1.28-.26.1.01.9 3.48.92z" data-originalStrokeWidth="0.25" style="shape-rendering: auto; stroke: rgb(0, 0, 0);"></path>


<path id="Brejo" fill="#ccccb8" stroke="#000" stroke-width=".25" d="m584.46 187.53-.74.72-.15.38.24.6-.25.66.22.46-.22.2-.67 1.43-.1-.06-5.12-2.51.02-.76.56-1.17v-.3l-.3-.42.25-.62 3.35-.41z" data-originalStrokeWidth="0.25" style="shape-rendering: auto; stroke: rgb(0, 0, 0);"></path>


<path id="Brejo_de_Areia" fill="#ccccb8" stroke="#000" stroke-width=".25" d="M532.1 197.5v.45l-.43.26-.12.45.37.45.5-.12h2.07l.6-.27-.42.54.5.53-.86.37-.2.4-.54.47.75.56.82-.19.02.42-1.84-.23-1.1.74-.1 1.1-.78-.8-1.07.26-.24.91-.86-.43-.46-.69-.06-.64-.28-.4-.3-.04.33-.81.25-1.03-.2-.76.33-.54 1.96-.73.13-.18.68-.11z" data-originalStrokeWidth="0.25" style="shape-rendering: auto; stroke: rgb(0, 0, 0);"></path>


<path id="Buriti" fill="#ccccb8" stroke="#000" stroke-width=".25" d="m580.51 195.44-.07-.05-2.49-.46-3.18-.43-.5-.15.2-4.16 1.31-1.64 1.88.85 5.12 2.51.1.07-.3.76-.74.48-.17.44-.46.24-.5.8z" data-originalStrokeWidth="0.25" style="shape-rendering: auto; stroke: rgb(0, 0, 0);"></path>


<path id="Buriti_Bravo" fill="#ccccb8" stroke="#000" stroke-width=".25" d="m567.25 224.75-1.26.53-.7.62-.04.79.77.43-.13.67-.5.9-.53.38-1.1.15-.1.15-1.69.1-2.7-2.3-.3-.43-.02-.6.75-.44.17-.47.84-.47.46-.52.34-.62.68-.7-.05-.42.17-.37.67-.28.45-.45.64.23.47.5 1.64.18v.56l.5.4.44.14.47.7z" data-originalStrokeWidth="0.25" style="shape-rendering: auto; stroke: rgb(0, 0, 0);"></path>


<path id="Buriticupu" fill="#ccccb8" stroke="#000" stroke-width=".25" d="m520.1 199.37.16.1.42 1.17.3.3-.17.97.28.43.25.03.17.7.61.87-.34.7-.55.42h-.33l.46 2.28 1.53.85.46.95-6.64-.06-.34-.75.08-.43.34-.44-.56-1.63.27-.25-.25-.73v-1.47l-.12-.6-.04-1.5-.1-.55.27-.95-.06-.65.33-.2-.17-.52.12-.3-.04-.63.59-.55.25-.6.85-.5.19-.41.68-.56.29-.11.79-.7.1-.2.77.36.23.7-.97 1.4-.28.87-.02.88-.26.28.13.62z" data-originalStrokeWidth="0.25" style="shape-rendering: auto; stroke: rgb(0, 0, 0);"></path>


<path id="Buritirana" fill="#ccccb8" stroke="#000" stroke-width=".25" d="m508.92 217.99.12.5-.05.52-.53.86-.01.73-.23.18-.18 1.26.22.3-.05.42-.51.29-1.96.54-.6-.32-.28-.1-.47-.91-.64-.33-.3.05-.65-.4-.03-.27-.47-.05.44-.5.94-.63.5-.44 2.28-.85 1.16-.61z" data-originalStrokeWidth="0.25" style="shape-rendering: auto; stroke: rgb(0, 0, 0);"></path>


<path id="Cachoeira_Grande" fill="#ccccb8" stroke="#000" stroke-width=".25" d="m563.84 181.53-.01.02h-4.03l-.04-.06.05-.22-.26-.62-.04-.59.23-.4.38-.06v-.42l.27-.6-.37-.46.45-.44-.22-.23-.35.18-.3-.14-.1-.38-.78-.37.37-.68-.06-.74.2-.63-.03-.1.47-.02.23.4-.11.46.45.63 1.09.6.69.26.27.32 1.29.52.54.1.3.26.19.48v.8l-.5.73.15.62-.26.18z" data-originalStrokeWidth="0.25" style="shape-rendering: auto; stroke: rgb(0, 0, 0);"></path>


<path id="Cajapió" fill="#ccccb8" stroke="#000" stroke-width=".25" d="m550.6 177.15-.13.1-.43.02-.2-.2zm-1.8-4.24.3.72-.34.84-1.44-.12-.89.16-.14-.13.2-.74-.1-.46-.58-.38v-.02l.2-.08 1.66-.06.78.02zm2.98-1.4.09 1-.1.45.1 1.42-.04 1.23-.2.23-1.25.91-.35.16-.2-.29-.7-.49-.17-.32.47-.34.38-.85.22-.82-.1-.73.88-1.06.54-.44z" data-originalStrokeWidth="0.25" style="shape-rendering: auto; stroke: rgb(0, 0, 0);"></path>


<path id="Cajari" fill="#ccccb8" stroke="#000" stroke-width=".25" d="m544.87 181.37-.11.26.29.55-.02.3-.55.45-.1.94-.3.1-.25.57-.3-.08-.45-.54-.63.06-.05.47-.66.95.6.42-.28.62-.47.02-.85-.26-.3.18-.1-1.06.43-.39.32-.5.05-.64-3.33-.5.2-.37.1-.88.7.19h1.15l.36-.1.76-.95.25-.15.7-.44.24.7v.63l.46.36.38-.08.33.18.3-.22-.12-.4.8-.07z" data-originalStrokeWidth="0.25" style="shape-rendering: auto; stroke: rgb(0, 0, 0);"></path>


<path id="Campestre_do_Maranhão" fill="#ccccb8" stroke="#000" stroke-width=".25" d="m502.98 231.31.63.15.38-.2.35.12.93.77.43-.04.34.5.46.26-.93.32-.32.31-1.27.5-.65.11-.84.35-.58-.64-.3.07-.4-.22-.68.14-.75-1.6-.2-1.18.08-.44.12.28.46-.09 1.03.12.45-.27.32.3z" data-originalStrokeWidth="0.25" style="shape-rendering: auto; stroke: rgb(0, 0, 0);"></path>


<path id="Cândido_Mendes" fill="#ccccb8" stroke="#000" stroke-width=".25" d="m534.2 149.47-.89.63-1.08.54-.28.28-1.92 3.7 1.59 3.18-.31.26-.21.63.35 1.85.05 1-.18.62-.32-.82-.06-.73-.28-.9.08-.44-.4-1.09-.83-.76-.82-.35-.5-1.15-1-.69v-.37l-.05-.5.46-.72-.2-.6.33-.44.33-.16.1-.5-.18-.19.42-.69.35.2.38-.37-.23-.63.18-1.4 1.24-.99.04-.33.98.03.39-.52-.06-.83.15-.37.4-.08.26.3.45-.17.03.4.49.32-.15.71.4.32.5-.92.5-.27v-.29l.67.16.04.4-.25.5-.94.34-.17.75-.07.97zm-1.07-4.45-.74.05-.03-.61.71.17z" data-originalStrokeWidth="0.25" style="shape-rendering: auto; stroke: rgb(0, 0, 0);"></path>


<path id="Cantanhede" fill="#ccccb8" stroke="#000" stroke-width=".25" d="m558.74 185.84.38.4.28.04-.01.46.26 1.07.08.7-.3.29-.86-1.43-1 .48-.53.8-.38.24-.98-.25-.5.37.5.74-.44.12-1.63-1.3-.45.05-.32.35-.69-.87.2-.86-.05-.95.92-.56.04.14z" data-originalStrokeWidth="0.25" style="shape-rendering: auto; stroke: rgb(0, 0, 0);"></path>


<path id="Capinzal_do_Norte" fill="#ccccb8" stroke="#000" stroke-width=".25" d="m554.59 208.78-.52-.48-.03-.49-.94-.64-.21-.4-.56-.41.92-.55-.28-.86.59-.61.5-.19.09-.26 2.68-.54-.4.41-.27 1.26.13.42.34.16.17 1.32-.4.53-.23.53-.36.42-1.02.54z" data-originalStrokeWidth="0.25" style="shape-rendering: auto; stroke: rgb(0, 0, 0);"></path>


<path id="Carolina" fill="#ccccb8" stroke="#000" stroke-width=".25" d="m508.29 247.4.37.2.6-.22.39.5.47.3 1.05.3.2.3-.14.55.8.57.06.55.4.64-.19.16-3.75-.36-.47.26-.52.47-.12.34.27.44.11.55-.27.38-.43.04-.34.45-1.05.42-.4.51-.18.55-.1.93-.35.44-.88.55-.32.84.2.41.57-.02.74.21.35-.12.88.13.56.7 1.9.31.45.6.98-.28.44.24.3.38-.15.66-.53.32.05.3-.28.72.71 1.25-.4.2-.96.03-.27.41-.26-.12-.48.31-.4.73-.9.35-.55-.1-.3-.86-.65-.34-.11-.58-.36-.5-.24.03-.73-1.17-.48-.46-.58-.35-.1-.58-.3-.5-.46-.4-.43.01-.07-.47-.34-.7.38-.05-.75-.8-.15.68h-.29l-.1-.43.1-.55-.37-.2.06-.36-.53-.37.02-.39-.59-.1-.6-.67-.12-.75-.44-.1-.58.3-.55-.18.21-.38 1.54-.76.26-.69-.38-.76-.77-.5-.86-.02-.28.14-.34.51-.42.02-.59-1-.95-.5-.2-.39.08-.58.6-.44.9.24.58-.52.16-.54.37-.49.4-.23.49-.6.33-.8-.02-.45.39-.68v-.62l-.24-.56.46-.03.7.66 1 .53.2.34.64.2 1.53.88.8.06.54-.17.66.43.78.06.23.23.58.1 1.16-.17.46.12z" data-originalStrokeWidth="0.25" style="shape-rendering: auto; stroke: rgb(0, 0, 0);"></path>


<path id="Carutapera" fill="#ccccb8" stroke="#000" stroke-width=".25" d="M527.64 144.76v.3l-.63.64.03.33-.48.27-1.92 3.95-.14-.09-.18 2.62-.38 1.32-.22-.25.1-.58-.1-.3-.43-.03-.27-.54-.93-.4.49-.72-.2-1.13-.56-.72.58-.49-.17-.42.68-1.3-.33-.75h-.25l-.25-.49.38-.6-.2-.28.32-.39.51-.15.48-.1.03-.62 1.01-1.42.74-.25.23.76.1 1.51.2.01.92-1.47-.03-.2.44-.86.3.01.19.53-.37.45v.4l-.32.32.02.31.35.28-.12.33z" data-originalStrokeWidth="0.25" style="shape-rendering: auto; stroke: rgb(0, 0, 0);"></path>


<path id="Caxias" fill="#ccccb8" stroke="#000" stroke-width=".25" d="m579.87 209.72.05.12-2.64.58-.07 2.63-.37.1-.76-.2-.46.3v.36l-1.3.63h-.4v.7l-.67.42-1.52-.26-1.7.57.2.9-.22.22-1.39-1.06-.68.05-2.37 1.2-.22.24-.48-.05-1.26-.33-.06-.1.56-.2.4-1.26.46-.02.5-.52.72-.35.48-.68.32.11.49-.27-.3-.48 1.1-1.62-.3-1.89-.53.08-1.21-.58-.87.24-.51-.31-.27.12-.68-.35-.23-.51-.33-.24-.15-.6 2-.31.39-.13.75.4.46-.26.46-1.06.38-.37.46.29.9.15.28-.12.19-.46.3-.15 1.08-.21.64.23.55.5.96.4.33.32.9-.63.13-.84.79-.68.45-.5.22-.93.69-1.14 2.37-1.07h.38l.54.3.44.46-.12.52.44.3.06.42-.44.72.15.49-.88 1.5-.5.36-.15.28.46.52.02.6-.42.32.2.7.73.6z" data-originalStrokeWidth="0.25" style="shape-rendering: auto; stroke: rgb(0, 0, 0);"></path>


<path id="Cedral" fill="#ccccb8" stroke="#000" stroke-width=".25" d="m550.08 159.2-.67.1-.5.41-1.37.3.15-.29.5-.1-.45-.4-.22-.99.3-.14.25.31.71.1.61-.38-.27-.45.58-.83.83-.13.43-.17.27.18.37.98-.07.48.24.29-.45.37-.5.19-.5-.08z" data-originalStrokeWidth="0.25" style="shape-rendering: auto; stroke: rgb(0, 0, 0);"></path>


<path id="Central_do_Maranhão" fill="#ccccb8" stroke="#000" stroke-width=".25" d="m546.43 161.97-.26.63.66.86-.34.38-.64.11-.93.7.11.36-.63.47-.45-.44-.19-.53v-1.7l.51-.64.66-.56v-.55l.72.3h.57l-.04.4z" data-originalStrokeWidth="0.25" style="shape-rendering: auto; stroke: rgb(0, 0, 0);"></path>


<path id="Centro_do_Guilherme" fill="#ccccb8" stroke="#000" stroke-width=".25" d="m525.17 161.37-.14 1.04.1.23-.02.82-.14.8.12.73-.23 1.1-.28.27-.18.55-.26.15-.35 1.74.14.26-.1 1.32-.22.35h-1.9l-.4-.64-.5-.24-.32-.38.13-.4-.23-.31-.04-.45-.34-.62-.06-.41.94-.44v-.55l.42-.78.27-.25.06-.96.24-.82.25-.2.2-.67.38-.12.57-.53.44-.62.3-.12.84.27z" data-originalStrokeWidth="0.25" style="shape-rendering: auto; stroke: rgb(0, 0, 0);"></path>


<path id="Centro_Novo_do_Maranhão" fill="#ccccb8" stroke="#000" stroke-width=".25" d="m522.33 162.62-.2.66-.25.2-.24.82-.06.96-.27.25-.41.78-.01.55-.94.44.06.4.34.63.04.45.23.3-.13.4.33.39.49.24.4.64h1.9l.19.08-.3.57.22.4-.4.8v.38l-.57.7-.15.44.13.69-.8.62-.3.56-.1.65-.67.55-.52.2-.82.56-1.28 1.36-.32.5-.06.6.16.8-.08.32-.05.97-.27.97-.8 1.49-.63.19-.93.83-.57.64-.9.6-1.21 1.28.05.34-.27.69-.46.57.23 1.1.48.29-.21.4-.85.49-.07 1.24-.77.4-.7.09-.44.5-.4.22-.15.57-.47.19.19-.17.07-.64-.14-.87-.28-.54-.16-.67.15-.94-.46-1.53-.37-1.02-.81-.77.09-1.2-.11-.17-.14-.72.39-.18.83-.73-.23-.3.72-.83-.26-.4.15-.42.37-.46.77-.7.44.1.47-.51.3-.04.23-.8-.08-.37.49-.07.17-.75.82-.7-.47-.61 1.08-.56.27-.45-.08-.6.16-.72.33.06.04-.47-.45-.43.32-.23-.33-.7.09-.3.52.14-.04-.52.92-.15-.17-.88-.48.19-.22-.28.13-.35-.68-.64-.03-.51.59-.33.34-.4-.06-.35.63-.1.34-.22 1.07-.18-.05-.46.64-.78.77-.17-.12-.51V167l-.05-1.02.47-.6-.34-.26-.38.38-.17-.42.56-.48-.03-.6.3-.48-.25-.68.35-.12.34.38.78-.5.35-.63.78-.56-.3-.15.48-.46.07-.52-.1-.63.2-.1 3.62.03-.71.74-.16.74-.76 1.06z" data-originalStrokeWidth="0.25" style="shape-rendering: auto; stroke: rgb(0, 0, 0);"></path>


<path id="Chapadinha" fill="#ccccb8" stroke="#000" stroke-width=".25" d="m570.07 181.96.22.22.2.64-.26.72.06.49.49.12v.98l.27.37-.16.27.23.32.06.6.35.8-.06.35.48.2.1.39 1.84.42.28.95.3.4-.2 4.16-1.01.97-2.88 2.64-1.52-.64-1.4.73-.06-.77.17-.67-.3-.38.1-1.29-.82-.8-1.36-1.08-.11-.19 2.16-5.59h0z" data-originalStrokeWidth="0.25" style="shape-rendering: auto; stroke: rgb(0, 0, 0);"></path>


<path id="Cidelândia" fill="#ccccb8" stroke="#000" stroke-width=".25" d="m497.45 213.4.28 1.07-1.53.06-.73.13-.36-.18-.27.9-.05.48-.38-.1-.47.37-.42.57-.77.78-.35.13-.47-.5-.1-.59-.23-.2-.92-.38.37-.32.47-.87-.89-1.2-.08-.24-.7-.78.08-.66-.2-.48-.46-.59.04-1.5-.3-.57-.47-.49.58-.46 1.02.23.85.68 1.08.48.38.38.42.76 1.7 1.15.07.4.6.6z" data-originalStrokeWidth="0.25" style="shape-rendering: auto; stroke: rgb(0, 0, 0);"></path>


<path id="Codó" fill="#ccccb8" stroke="#000" stroke-width=".25" d="m567.63 205.68-.38.37-.46 1.06-.46.27-.75-.41-.38.13-2 .3.14.6-.25.42-.03.85-.17.36.38.28v.6l-.3.22-.14.6-.26.39-.98.45-.6.44-.4-.35-.07-.37-.6-.54-.8.25-.74-.1-.08-.33-.4-.37.35-.45-.12-.34-.85.14-.28-.58-.38.06-.17.44-.91.1-.67-.02-.9-.3-.04-.34.27-.48.39-.25.2.16 1.02-.54.36-.42.23-.53.4-.53-.17-1.32-.34-.16-.13-.42.28-1.26.39-.4 1.92-.39-.11-.2 1.65-1.75 1.12-1.07.28-.44.4.29.44.54.68-.2.48-.36.98-1.47 2.79-.24 1.4-.73 1.52.64 1.08 1.39-2.34 1.34-3.45 2.02-.5-.37-.32.07 1.11 1.32.67.6.54.93z" data-originalStrokeWidth="0.25" style="shape-rendering: auto; stroke: rgb(0, 0, 0);"></path>


<path id="Coelho_Neto" fill="#ccccb8" stroke="#000" stroke-width=".25" d="m578.98 196.99-.77.94.03 1.12.34.68.02.68.28.44-2.37 1.07-2.26-1.43-.18-1.04-.2-.32.03-1.11-.08-.7.18-.24-.05-.87-.3-.11-.4-.76 1.02-.98.5.15.37.65.35.27.08.44.3.27 1.12-.48-.09.48.3.93.37.17z" data-originalStrokeWidth="0.25" style="shape-rendering: auto; stroke: rgb(0, 0, 0);"></path>


<path id="Colinas" fill="#ccccb8" stroke="#000" stroke-width=".25" d="m561.98 229.47-.45.62-.02 1.34-.24 1.12-.26.23.1.56-.34.95.12.32-2.36.98-1.27-1.68-1.2-1.59-1.32-2.5-.33-.04-.54-.36-.84.04-.24.18-.67-.39-.55-.15-.95.23-.3-.08-.67.43v-3.33l.84-.02.24-.13.18.47.72.41.32-.14-.1.34.35.57 1.12-.15 1.6.37.56.28.1.23 1.91-.74.91-.72.28-.57.27-.42.02.61.3.43z" data-originalStrokeWidth="0.25" style="shape-rendering: auto; stroke: rgb(0, 0, 0);"></path>


<path id="Conceição_do_Lago_Açu" fill="#ccccb8" stroke="#000" stroke-width=".25" d="m545.84 188.34.2.48.57-.14.27-.4.32.38-.16.4.62.3 1.08 1.11.3.57.47.14v.15l-.21.06-5.5 1.16-.42-.77-1.52-2.64.2-.12 1.53-.36.37.26.1.74.39-.22.3.1.27-.84.33-.53z" data-originalStrokeWidth="0.25" style="shape-rendering: auto; stroke: rgb(0, 0, 0);"></path>


<path id="Coroatá" fill="#ccccb8" stroke="#000" stroke-width=".25" d="m562.13 193.47-1.82 5.02-.27.26-.5.11-.4.35.08.65-.08.47.23.54 2.03-.92-1.12 1.08-1.65 1.75-1.53-2.8-1.55-1.03-1.31-3.15-1.85.51-.22-.38.13-.39.89.02-.1-.76.35-.27-.02-.36.6-.63-.2-.76.24-.08.15-.45.43-.32-.06-.3 2.2 1.12.58-.3.19-1.3 2.87.1.97 2.79z" data-originalStrokeWidth="0.25" style="shape-rendering: auto; stroke: rgb(0, 0, 0);"></path>


<path id="Cururupu" fill="#ccccb8" stroke="#000" stroke-width=".25" d="m549.41 154.5-.19.33.11.58-.63.36-.2.49-1.1.45-.44.58-.46.4-2.57.02.2-.45-.02-.7-.24-.04-.75-.6v-.3l.84-.2.34.03.27-.9-.62-.86.76-.16.67-.51.36.23.27-.42-.1-.35-.62-.34-.1-.22.31-.77.6.27.45-.22.33.27.62-.63.32-.05.85.6.37.5-.4.78-.29-.33-1.12.16-.36.4-.33.13.41.66.96.24-1.05.9.12.12 1.86-.54-.09-.76.92.44zm-3.22-4.07-.2.49-.35-.1-.09-.37zm.81-1.15.16.43-.15.44-.72-.06.3-.33-.02-.3zm-2.45 2.39-.54.22-.3-.22.02-.42-.24-.23-.05-.12.08-.38-.45-.68.67-.35.65-.6.25-.47.43-.15.53.29-.23.9-.53.2-.47.8-.28.2.06.85zm-1.35-5.87.66-.09.9.33.2.76-.35.3-.26-.15-.74.5-.44.46-.66.18-.28-.3.12-.54-.34-.27.1-.36.72.08-.25-.55.26-.45z" data-originalStrokeWidth="0.25" style="shape-rendering: auto; stroke: rgb(0, 0, 0);"></path>


<path id="Davinópolis" fill="#ccccb8" stroke="#000" stroke-width=".25" d="m502.3 221.26.47.05.03.26.66.41.29-.06.64.33.47.91.29.11-3.24.07-.4-.34-.55.17-.7-.06-.8-1.18.28-.98.34-.25.58.5.4.04.56.3.14-.28z" data-originalStrokeWidth="0.25" style="shape-rendering: auto; stroke: rgb(0, 0, 0);"></path>


<path id="Dom_Pedro" fill="#ccccb8" stroke="#000" stroke-width=".25" d="m554.1 213.66-.73-.12-.57.35-.57-.75-.09.75-.49.08.03-.73-.19-.76.22-.48-.2-.71 1.5-.01v-.46l.51-.33.44-.63.9.3-.1 1.98z" data-originalStrokeWidth="0.25" style="shape-rendering: auto; stroke: rgb(0, 0, 0);"></path>


<path id="Duque_Bacelar" fill="#ccccb8" stroke="#000" stroke-width=".25" d="m580.51 195.44-.25.44-.54.23.18.66-.59-.04-.34.25-1.4.25-.37-.17-.3-.93.1-.48-1.12.48-.3-.27-.08-.44-.35-.27-.37-.65 3.18.42 2.48.46z" data-originalStrokeWidth="0.25" style="shape-rendering: auto; stroke: rgb(0, 0, 0);"></path>


<path id="Esperantinópolis" fill="#ccccb8" stroke="#000" stroke-width=".25" d="m548.9 209.15.02.04-.23.29-.7.25-.18.29-1.3.4-.45-.04-1.4.42-.19.32-.66.5v.33l-1.3-.84-.4-.1-.21-.55v-.3l.07-.67.9-.89 2.9.28 1.04.68.24-.39.44-.15z" data-originalStrokeWidth="0.25" style="shape-rendering: auto; stroke: rgb(0, 0, 0);"></path>


<path id="Estreito" fill="#ccccb8" stroke="#000" stroke-width=".25" d="m503.5 239.51.06.24.75.58.26.51.5.25.3-.07 1.3.2.46-.2.54-.02.29.4.49.07.99-.12.64.8.38-.02.1.38-.73.05-.5.54-.17.55-.5.31-.16.85.02 1.15.33.48-.27.64-.3.32-.49.08-.46-.12-1.16.16-.58-.09-.23-.23-.78-.06-.66-.43-.55.17-.79-.06-1.53-.89-.65-.19-.2-.34-.99-.53-.7-.66-.46.03-.15-.22.23-.67.4-.69-.04-.95-.04-.46.52-.89.06-.7.15-.75.55-.73.48.1.25.27.6-.13.64.55.44-.04.31.4z" data-originalStrokeWidth="0.25" style="shape-rendering: auto; stroke: rgb(0, 0, 0);"></path>


<path id="Feira_Nova_do_Maranhão" fill="#ccccb8" stroke="#000" stroke-width=".25" d="m518.92 246-1.14 1.04-.82 1.2-1.03.66-.5.15-.39 1.02.14.32-.13.67-.72.4-2.18.53-.2-.28.36-.47.19-.16-.41-.64-.06-.55-.8-.57.14-.54-.2-.3-1.05-.3-.47-.3-.4-.5.04-.5.33-.16.03-.37.46-.53 1.38-.42.13-.3 1.25-.89.37.15.7-.48.75-.1.91.34.5.51.52.1.79-.07.17.5-.16.3.16.4.74-.2z" data-originalStrokeWidth="0.25" style="shape-rendering: auto; stroke: rgb(0, 0, 0);"></path>


<path id="Fernando_Falcão" fill="#ccccb8" stroke="#000" stroke-width=".25" d="m546.15 231.47-.58.5-.6.28-.22.71-.25.24-.33.75-.15.63-.8.83-.7.2-.73-.13-.47.05-.03-.4-.52-.03-.44-.3-.63-.07-.9.28-.4.37-1.1.63-.09.27-.78.36-.47.07-.4.27-.5-.12-.53.07-.72-.13-.33.3-.48.05-.19.25-.44-.03-.87.45-.59.02-.79-.17-.4.82.12.27-1.02 1.05-1.07.19.1-1.9.23-2.01-.3-1.37.17-.44.26-.05.57-.73.34.09.38-.62.7-.21.7-.43.03-.26.8-.55.03-.25.91-.52.13-.36.52-.61.01-.37.54-.2.25-.31 1.13-.58.71-.12 1.11-.27.31.05.12 1 .31.34 1.57-2.1 1.53-.47.11.03 2.92-1.11.26.77.23.15.5.8.3.2.3.83-.2.68z" data-originalStrokeWidth="0.25" style="shape-rendering: auto; stroke: rgb(0, 0, 0);"></path>


<path id="Formosa_da_Serra_Negra" fill="#ccccb8" stroke="#000" stroke-width=".25" d="m527.77 234.72.31 1.37-.24 2-.09 1.9-.83.56-.12.21-.56.06-.25-.15-.72.09-.27.49-.79.4-.35-.42-.37.28-.52-.26-.38.3.05.38-.45.05.07.98-.6.12-.92-.03.1.27-.3.73-.83.44.06.39-.26.55-.69.09-.45-.6.02-.62-.65-.2-.18-.28-.6-.36-.27.28.01-3.36.01-6.01.25-.25 6.78-.38.78.32.76-.13.45.15.91.53.3.86.8-.36z" data-originalStrokeWidth="0.25" style="shape-rendering: auto; stroke: rgb(0, 0, 0);"></path>


<path id="Fortaleza_dos_Nogueiras" fill="#ccccb8" stroke="#000" stroke-width=".25" d="m526.25 240.81-.4.5 1.71.83-1.07.09-.4-.14-.8.73-.34.6-.4.28.1.5.23.14.19.6.03.75 1.04.67.47-.07.47-.26.98.37-.2.5-.37.44-.91.72-.5-.18-.42.08 1.57 4.2-3.56-2.27-2.71-2.19-2.06-.67h-1.11l1.14-1.04.59-.57.26-.54-.06-.4.83-.43.3-.73-.1-.27.92.03.6-.12-.07-.98.45-.05-.05-.37.38-.31.52.26.37-.28.35.42.79-.4.27-.5.72-.09z" data-originalStrokeWidth="0.25" style="shape-rendering: auto; stroke: rgb(0, 0, 0);"></path>


<path id="Fortuna" fill="#ccccb8" stroke="#000" stroke-width=".25" d="m563.43 221.4-.45.45-.67.28-.17.37.05.42-.68.7-.34.62-.46.52-.84.47-.17.47-.75.43-.27.42-2.5-1.34.19-.54.34-.3.67-.17.3-.55.58-.59.66-.24.28-.33.32-.02.43-.98-.06-.5.53-.3.33.53.37.12-.1-.99z" data-originalStrokeWidth="0.25" style="shape-rendering: auto; stroke: rgb(0, 0, 0);"></path>


<path id="Godofredo_Viana" fill="#ccccb8" stroke="#000" stroke-width=".25" d="m530.4 145.69-.34-.4.02-.38.36-.66.21.13.14.55-.04.53zm1.42.17-.16.36.06.83-.39.52-.98-.02-.04.33-1.24.98-.18 1.4.23.64-.38.37-.35-.2-.42.69-1.89-.58.34-.72.45-.44.34-.68-.03-.24 1.05-1 .39-.75-.26-.81-.3-.04-.3-.53.3-.26.49-.78-.01-.7.13.08.13.1.22.1.47-1.02.34-.23.57.37-.8 1.03.03.5.5.62.29.06.77-.73-.03-.31.24-1.17.36.15-.1.43-.32.26-.1.63.18.32-.15.35z" data-originalStrokeWidth="0.25" style="shape-rendering: auto; stroke: rgb(0, 0, 0);"></path>


<path id="Gonçalves_Dias" fill="#ccccb8" stroke="#000" stroke-width=".25" d="m561 212.6-.75 2.01-.25.04-2.02 1.11-3.11 1.8-.7-.95h-.21l-.2-.89.5-.54-.38-.36.31-.23-.14-.8.45-.03.88-.42 1.2.05 2.53-1.78.81-.25.6.54.06.37z" data-originalStrokeWidth="0.25" style="shape-rendering: auto; stroke: rgb(0, 0, 0);"></path>


<path id="Governador_Archer" fill="#ccccb8" stroke="#000" stroke-width=".25" d="m559.12 211.6-2.53 1.78-1.2-.05-.88.42-.45.04.05-.14.65-1.52.1-1.98.67.02.91-.1.17-.44.38-.06.28.58.85-.14.12.35-.35.45.4.37.08.32z" data-originalStrokeWidth="0.25" style="shape-rendering: auto; stroke: rgb(0, 0, 0);"></path>


<path id="Governador_Edison_Lobão" fill="#ccccb8" stroke="#000" stroke-width=".25" d="m500.25 223.12.7.06.55-.17.4.34 3.24-.07.6.32-.87 1-.62.17-.39.46-.35.16-.39-.13-.3.15-.66-.1-.96.84-.54.23-.89-.17-.34.19-.43-.93-.28-.33-.19-.87.35-.85-.06-.44-.05-.28z" data-originalStrokeWidth="0.25" style="shape-rendering: auto; stroke: rgb(0, 0, 0);"></path>


<path id="Governador_Eugênio_Barros" fill="#ccccb8" stroke="#000" stroke-width=".25" d="m562.57 217.38-.22.61.02.57.4.73-.24.42.14.84.23.34.62.34-.08.17-2.42-1.05-2.02-.93.08.4-1.14-.1-.57.11-.39-.15-.35.23-1.77-2.35 3.11-1.8.63 2.12.78-.34.2-.25.54-.07.99.34.79-.22z" data-originalStrokeWidth="0.25" style="shape-rendering: auto; stroke: rgb(0, 0, 0);"></path>


<path id="Governador_Luiz_Rocha" fill="#ccccb8" stroke="#000" stroke-width=".25" d="m561.02 220.35.1 1-.37-.12-.33-.53-.53.29.06.5-.43.98-.32.02-.28.33-.66.24-.58.6-.3.55-.31-.53.09-.48.92-.88.04-.2-.6-1.2-.7.43-.24-1.43h.05l.35-.23.4.15.56-.11 1.14.1-.08-.4z" data-originalStrokeWidth="0.25" style="shape-rendering: auto; stroke: rgb(0, 0, 0);"></path>


<path id="Governador_Newton_Bello" fill="#ccccb8" stroke="#000" stroke-width=".25" d="m533.02 184.93-.02.09-2.55-.05-4.17-.03h-6.18l.2-.33-.52-.6.22-.45.02-1.09.25-.48 1.19.77 2.4.01.73.26.43-.18.34.1.65-.13.53.22.55-1.1 1.4.34 2.46.05.49.54.69 1.01.85.78z" data-originalStrokeWidth="0.25" style="shape-rendering: auto; stroke: rgb(0, 0, 0);"></path>


<path id="Governador_Nunes_Freire" fill="#ccccb8" stroke="#000" stroke-width=".25" d="m531.32 162.16-.8.52-.45.3-.67-.95-.93-.64-1.12.5-1.47.4.2.83-.96.34.02-.82-.1-.23.14-1.04.04-.61 1.28-1.93-.22-.34.24-.23.03-.67.32-.4-.06-.35.24-.5.15-1.1 1 .69.49 1.15.82.35.83.76.4 1.09-.08.43.28.9.06.74z" data-originalStrokeWidth="0.25" style="shape-rendering: auto; stroke: rgb(0, 0, 0);"></path>


<path id="Graça_Aranha" fill="#ccccb8" stroke="#000" stroke-width=".25" d="m554.87 217.56 1.77 2.35h-.05l-.5.2-.2.45-.86.02-.17-.43-.8-.34-.5.21h-.82l.45-.4.06-1.07.75-.9.19-.43-.23-.6h.2z" data-originalStrokeWidth="0.25" style="shape-rendering: auto; stroke: rgb(0, 0, 0);"></path>


<path id="Grajaú" fill="#ccccb8" stroke="#000" stroke-width=".25" d="m526.13 217.24-.72.4-.5.48 1.73 1.15.32.29.79-.56.74.65 1.04-.82.52 3.3 1.82 3.3.6-.8 1.28 1.33 2.22 2.24-.71.12-1.13.58-.25.32-.54.19-.01.37-.52.6-.13.37-.91.52-.03.25-.8.55-.03.26-.71.43-.7.2-.37.63-.34-.1-.57.74-.26.05-.18.44-.04.39-.8.36-.3-.86-.9-.53-.45-.15-.76.13-.78-.32-6.78.38-.25.25v-4.97l-.08-4.41.56-.47h.48l.52-.5.08-.3.49-.01.34-.41v-5.68l.39.48.55-.18h.48l.78-.45.32-.97.84.2.46-.08.29.26.58.03.95.19.44-.27.29.2z" data-originalStrokeWidth="0.25" style="shape-rendering: auto; stroke: rgb(0, 0, 0);"></path>


<path id="Guimarães" fill="#ccccb8" stroke="#000" stroke-width=".25" d="m548.3 163.63-.35.1-.3-.21-.81-.06-.66-.86.26-.63v-.3l.55-.58-.04-.3.58-.79 1.39-.29.49-.42.67-.1.22-.14.83.23.36.26-1.01.85-.2.5-.4.2.03.51-.83 1.11-.84.47z" data-originalStrokeWidth="0.25" style="shape-rendering: auto; stroke: rgb(0, 0, 0);"></path>


<path id="Humberto_de_Campos" fill="#ccccb8" stroke="#000" stroke-width=".25" d="m569.8 167.28.22 1.28-.23.6.32.25.16.69-.16.79.08.7-.12.2.14.65-.3.48-.1.47.1.92.68.57-.14.56-.55.62-.54.1-.22.45-.91.12-.36.3-.48-1.32-2.6-5.77.98-.59.04-.62-.33-.16-.07-.7.24-.1.48-.36.35-.03.46.31.57-.35.23.28.37-.47.06-.57.3-.45.46.28-.17.3.25.4zm-.79-1.45-.5.04.1-.5.4.1zm-.63-.78-.03.47-.32.65-.35-.01-.33-.3-.22-.5.25-.2.72-.2zm-3.52 1.32-.37-.3.62-.56.03-.32-.25-.32.31-.5.03-.54.34-.22 1.3-.5.41.13.18.44-.55.43-.06.9-.28.76-.74-.07-.43.53z" data-originalStrokeWidth="0.25" style="shape-rendering: auto; stroke: rgb(0, 0, 0);"></path>


<path id="Icatu" fill="#ccccb8" stroke="#000" stroke-width=".25" d="m564.5 166.07.37.3-.33.54-.14.5h.34l.56-.33.35.7-.24.08.07.71.33.16-.04.62-.98.6v3h-5.38l-.38-.03.08-.46-.21-.64 1.32-1.87.84-.29.45-1.06.7-.12.03-.37.3-.32.4-.1.22-1.65.62-.46.08.86z" data-originalStrokeWidth="0.25" style="shape-rendering: auto; stroke: rgb(0, 0, 0);"></path>


<path id="Igarapé_do_Meio" fill="#ccccb8" stroke="#000" stroke-width=".25" d="m542.05 186.44.6.3-.89 2.3-.72.09-.39.46-.62-.32-2.52-.22.11-.35.46-.05.37-.47v-.25l.65-.51h.28l.38-.38.54-.28.15-.37.28-.18.85.26z" data-originalStrokeWidth="0.25" style="shape-rendering: auto; stroke: rgb(0, 0, 0);"></path>


<path id="Igarapé_Grande" fill="#ccccb8" stroke="#000" stroke-width=".25" d="M547.08 202.06v1.98l-.95.04.05.7.76 1.82-3.46-.32.31-.46.53-.39.2-.58v-.49l.71-.65.15-.75-.1-.87z" data-originalStrokeWidth="0.25" style="shape-rendering: auto; stroke: rgb(0, 0, 0);"></path>


<path id="Imperatriz" fill="#ccccb8" stroke="#000" stroke-width=".25" d="m500.82 216.28-.22.45-.25.04-.72.82.2 2.03.08.4.3.22-.14.46-.34.25-.27.98.8 1.18-1.48-.42-.06-1-.3-.7-1.07-1.1-.36.13-.67-.18-1.1-.78-1.13-.63-1.47.12-.28-.2-.43-.58.02-.66.47.5.35-.13.77-.78.42-.57.47-.37.38.1.05-.48.27-.9.36.18.73-.13 1.53-.06.21.38.43-.7.32.69 1.21.99.58.68z" data-originalStrokeWidth="0.25" style="shape-rendering: auto; stroke: rgb(0, 0, 0);"></path>


<path id="Itaipava_do_Grajaú" fill="#ccccb8" stroke="#000" stroke-width=".25" d="m531.9 211.59.04-.01 5.72 1.1-.87.72-.03.47.28.22.01.52-.22.23-.02.39-.22.14.13-.18-.2-.71-.48-.27-.57-.1-.66-.32-.75-.86-.64 1.27-.22.88-1.53-.66-1.16.46-1.1 1.86-.52-.04-.6.5 1.23 1.63-1.04.82-.74-.65-.79.56-.32-.3-1.73-1.14.5-.47.72-.41.48-1.02.7-.36.19-.53.28.01.82-1.03-.02-.45.44-.15.8-1.17.72-.15 1.13-.9z" data-originalStrokeWidth="0.25" style="shape-rendering: auto; stroke: rgb(0, 0, 0);"></path>


<path id="Itapecuru_Mirim" fill="#ccccb8" stroke="#000" stroke-width=".25" d="m559.46 181.49.15.8-.33.5-.14.6.04.7-.33.75-.23.75.11.25-5.48.03-.04-.14-.1-.34.36-.62-.33-.27-1.17.44-.53-.35-.38.1-.62-.31-.49-.05.86-.9.75-1.15.11-.48.32.13.75-1.1-.17-.63.22-.11.94.19.23.45.44.3h.53l.18.4.55.04.34.33.6-.98.69.26 1.19-.24-.27-.43.28-.2.66-.55z" data-originalStrokeWidth="0.25" style="shape-rendering: auto; stroke: rgb(0, 0, 0);"></path>


<path id="Itinga_do_Maranhão" fill="#ccccb8" stroke="#000" stroke-width=".25" d="m508.55 195.56-.62.07-.1.5-.75.98-.34.81-.76.3-.31.08-.2.41-.45.34-.21.61-.87 1.24-.6.64-.35.22-.22 1.25.35.91.16.73-.08.63-1.01 1.07-.38.02-.48-.33-.53-.17-.55-.38-.86-.23-.41.25-.48.04v.87l-1.4.11-.73-.09-.54.45-.17-.23-.46-.03-.19-1.13.22-.72 1.15-.86.55-.65.4-.89.43-.37.64-.89.44-.79-.06-.5.67-.72.72-.35.5-.4-.07-.38.34-.82.3-.01-.17-.65.04-.54.51-1.08.45.08.21-.33.47-.25.25-.34.8-.26.47-.8-.07-.3.67-.39.14-.44.42-.06.32-.3-.01-.5.24-.17.34-1.26.25-1.31-.21-.34.1-.52.26-.34.1.17-.08 1.2.8.77.38 1.02.46 1.53-.15.94.16.67.28.54.14.87-.07.64z" data-originalStrokeWidth="0.25" style="shape-rendering: auto; stroke: rgb(0, 0, 0);"></path>


<path id="Jatobá" fill="#ccccb8" stroke="#000" stroke-width=".25" d="m558.68 226.56-.28.57-.9.72-1.91.74-.11-.23-.55-.28-1.6-.37-1.12.15-.35-.57.09-.34.23-.63-.7-.45 4.7-.65z" data-originalStrokeWidth="0.25" style="shape-rendering: auto; stroke: rgb(0, 0, 0);"></path>


<path id="Jenipapo_dos_Vieiras" fill="#ccccb8" stroke="#000" stroke-width=".25" d="m536.6 215.37-.34.32.36.38-.54.59-1 .18-.6-.37-.42.5.69 1.75.1.47.31.42-1.8 1.1 1.7 1.67-.63.3h-.34l-.36.63-.9.66.07.31-.43.35-.6.8-1.82-3.3-.52-3.3-1.23-1.63.6-.5.52.04 1.1-1.86 1.16-.46 1.53.66.21-.88.64-1.27.75.86.66.31.57.1.47.27.21.71z" data-originalStrokeWidth="0.25" style="shape-rendering: auto; stroke: rgb(0, 0, 0);"></path>


<path id="João_Lisboa" fill="#ccccb8" stroke="#000" stroke-width=".25" d="m509.25 215.34-.18.16-.86-.02-.94.9-.57.31-.57.56h-.84l-.75.3-.38.35-.47.08-.43-.21-.83.39.04.28-.7.1-.46.96-.6.3-.5.45-.3-.22-.09-.4-.18-2.03.72-.82.25-.04.22-.45.48.08.42.78.64.12.89-.84.1-.27.63-.53.1-.5.4-.26.1-.42.27-.2.27-.97.4-.15.29-.41.7.06.29-.2h.53l.65-.2.53-.32.39-.4.1.77.54.98-.16.33.17.39z" data-originalStrokeWidth="0.25" style="shape-rendering: auto; stroke: rgb(0, 0, 0);"></path>


<path id="Joselândia" fill="#ccccb8" stroke="#000" stroke-width=".25" d="m548.64 213.2-.45.38-.68.78-.54.18-.18.38-1.06-.63-.2-.58-.38-.12-.24-1.1-.4-.22-.47.13-.28-.3.04-.14.01-.34.66-.5.2-.32 1.39-.42.45.05 1.3-.41.17-.3.71-.24.23-.3.03.32.4.46.12.8-.15.33.23.29-.57 1 .02.39-.49-.04z" data-originalStrokeWidth="0.25" style="shape-rendering: auto; stroke: rgb(0, 0, 0);"></path>


<path id="Junco_do_Maranhão" fill="#ccccb8" stroke="#000" stroke-width=".25" d="m525.86 155.06-.61.5-1.21 1.5-.46.22-.1.51.58.9-.17.88-3.6-.03.2-.83.27-.63.23-.9 1.95-1.7.79-1.63.22.25 1 .82z" data-originalStrokeWidth="0.25" style="shape-rendering: auto; stroke: rgb(0, 0, 0);"></path>


<path id="Lago_da_Pedra" fill="#ccccb8" stroke="#000" stroke-width=".25" d="m541.8 202.53-.25 1.59-.38.47-.05.47.69.79.08.32.02.08-1.85.89-.2 2.14.53.9.12.47 1.38-.5v.31l-.3.31-.83.38-.5.5-1.06.03-.82.3.01-.64-.67-.39-.13-.52.05-.58-.19-.74-.45-.8-.55-.25-1.06.05-.3-.47.12-1.39.3-.04 1-.72.76.32.76-.3.4-.48.55-.34.1-.59-.25-.3.93-.6 1.2-1.69.07.47.5.1z" data-originalStrokeWidth="0.25" style="shape-rendering: auto; stroke: rgb(0, 0, 0);"></path>


<path id="Lago_do_Junco" fill="#ccccb8" stroke="#000" stroke-width=".25" d="m545.28 202.1.1.87-.5-.33-.85.14-.15.46-1.25 1.28.01.68-.76.96-.08-.32-.69-.79.05-.47.38-.47.25-1.59 1.02-.38 2.04-1.31-.17.53.34.08z" data-originalStrokeWidth="0.25" style="shape-rendering: auto; stroke: rgb(0, 0, 0);"></path>


<path id="Lago_Verde" fill="#ccccb8" stroke="#000" stroke-width=".25" d="m549.25 191.54-.64.45-.3-.05-.66.65.09.22-.76.24-.36.51-.35.11-.18.42.04.77-.5.52-.4.07.18.57-3 .02-.2-1.17-.12-.12.34-1.35.95-1.62.42.77 5.5-1.16z" data-originalStrokeWidth="0.25" style="shape-rendering: auto; stroke: rgb(0, 0, 0);"></path>


<path id="Lagoa_do_Mato" fill="#ccccb8" stroke="#000" stroke-width=".25" d="m567.25 224.75.15.63.66-.02v.57l.42.58-.59 1.19.07.15 4.1-.03.48 1.93-.14.09-.24 1.45.26 1.52-.1 1.2-1.39.25-.37-.22-.55-.05-.72.15-.54-.15-.57.2-.43-.16.44-1.27.24-.34-.13-.61-.82-.68-.17-.42-.66-.58-.4-.6-.14-1.25-.21-.5.13-.67-.77-.43.04-.79.7-.61z" data-originalStrokeWidth="0.25" style="shape-rendering: auto; stroke: rgb(0, 0, 0);"></path>


<path id="Lago_dos_Rodrigues" fill="#ccccb8" stroke="#000" stroke-width=".25" d="m545.38 202.97-.15.75-.7.65v.49l-.2.58-.54.39-.3.46-.45-.04-.05-.35-1.08.35-.02-.08.76-.96-.01-.68 1.25-1.28.15-.47.85-.14z" data-originalStrokeWidth="0.25" style="shape-rendering: auto; stroke: rgb(0, 0, 0);"></path>


<path id="Lagoa_Grande_do_Maranhão" fill="#ccccb8" stroke="#000" stroke-width=".25" d="m535.09 207.65.3.47 1.06-.05.55.24.45.8.2.74-.05.59.13.52.67.39-.01.63-.38.23-.34.48-5.73-1.11h-.05l.03-.2.58-.67.3-.8.5-.16.1-.29.58-.13.48-.9.1-.47z" data-originalStrokeWidth="0.25" style="shape-rendering: auto; stroke: rgb(0, 0, 0);"></path>


<path id="Lajeado_Novo" fill="#ccccb8" stroke="#000" stroke-width=".25" d="m511.08 228.8.35.2.51.63-.13.37.51.62-.24.29.61.44.35.4-.38.53-.13.46-1.1.1-.51-.09-.14.24-.83-.16-.12-.1-1.04.38-.11.17-.7.19-1.42-.34-.06-.25-.46-.26-.34-.51-.43.04-.93-.77-.35-.12-.38.2-.63-.15.35-.56-.22-.74.44-.03.34-.23.19.25 1.44-.28.19.17.82-.04.27.35.7.08.6-.2.21-.45h.7l.73-.36.29-.46.72.08z" data-originalStrokeWidth="0.25" style="shape-rendering: auto; stroke: rgb(0, 0, 0);"></path>


<path id="Lima_Campos" fill="#ccccb8" stroke="#000" stroke-width=".25" d="m554.14 203.9-.09.26-.5.18-.59.6.28.87-1.54-.28-.17-.55-.45-.22-.34-.6-.06-.68-.56-.27-.16-.41.12-.36 2.6.1z" data-originalStrokeWidth="0.25" style="shape-rendering: auto; stroke: rgb(0, 0, 0);"></path>


<path id="Loreto" fill="#ccccb8" stroke="#000" stroke-width=".25" d="m543.38 242.41-.41.96.78 1.35-1 2.77.37.94-.29.43-1.74 7.08-.72.22-.5-.03-.46.52-.6.44-.32-.31-.5.39-1.3.1-.13.28-.53.45-.4-.07-.05.44-1.02.54-.56-.58-.5-.15-.4-.56-.67-.15h-.57l-.65.3 2.56-3.3 3.15-3.95.17-.84h.39l.34-.48.14-.54-.22-.55.02-.86.49-.42.05-.54-.22-.26-.38-.01-.72-1.48-.24-.65.17-.68.44.25.78-.14 1.03.28.51-.1.83.3 1.02-.73.38-.48.73-.3z" data-originalStrokeWidth="0.25" style="shape-rendering: auto; stroke: rgb(0, 0, 0);"></path>


<path id="Luís_Domingues" fill="#ccccb8" stroke="#000" stroke-width=".25" d="m528.53 144.22.01.7-.48.78-.3.26.3.53.3.04.25.81-.39.75-1.05 1 .03.24-.34.68-.44.44-.34.72-1.44-.92 1.92-3.95.48-.27-.03-.33.63-.64v-.3l.37-.26.12-.55z" data-originalStrokeWidth="0.25" style="shape-rendering: auto; stroke: rgb(0, 0, 0);"></path>


<path id="Magalhães_de_Almeida" fill="#ccccb8" stroke="#000" stroke-width=".25" d="m593.42 182.47-.37.18-.07.53-.78.23-.13.56-.4-.07-.85.31-.07-3.15.55-1.19 4.6.41-.49.45h-.49l-.5.3-.97.04.06.78z" data-originalStrokeWidth="0.25" style="shape-rendering: auto; stroke: rgb(0, 0, 0);"></path>


<path id="Maracaçumé" fill="#ccccb8" stroke="#000" stroke-width=".25" d="M527.2 154.87v.37l-.15 1.1-.24.5.06.36-.32.39-.03.67-.24.23.22.33-1.28 1.93-.04.61-.32.13-.83-.27-.31.12-.44.62-.57.53-.39.12-.06-.5.76-1.06.16-.74.71-.74.17-.88-.58-.9.1-.5.45-.22 1.21-1.51.61-.5.26-.13z" data-originalStrokeWidth="0.25" style="shape-rendering: auto; stroke: rgb(0, 0, 0);"></path>


<path id="Marajá_do_Sena" fill="#ccccb8" stroke="#000" stroke-width=".25" d="m529.99 203.91.6.95.6.23.64-.62.16.27h1.07l.6.16.53-.04.7-.72.87.23.39.38.03.51.33.23-1 .72-.3.04-.12 1.4-.53.31-.1.46-.48.91-.58.13-.1.3-.5.14-.3.81v-.43l-.46-.45-1.92-1.07-.1-1.03-2.41-.55-.33-2.06-.98.22.02-.43.03-1z" data-originalStrokeWidth="0.25" style="shape-rendering: auto; stroke: rgb(0, 0, 0);"></path>


<path id="Maranhãozinho" fill="#ccccb8" stroke="#000" stroke-width=".25" d="m529.4 162.03-.5-.04-.52.26-.48.47-.12 1.05-.24 1.02-.85 1.2-.06.28v.7l-.13 1.06-.31.32-.3.56-.67.59-.25.95.15.53-1.32-.17-.2-.08.22-.35.1-1.32-.13-.26.35-1.74.27-.14.18-.55.28-.27.23-1.11-.12-.73.14-.8.96-.34-.2-.82 1.47-.41 1.12-.5z" data-originalStrokeWidth="0.25" style="shape-rendering: auto; stroke: rgb(0, 0, 0);"></path>


<path id="Mata_Roma" fill="#ccccb8" stroke="#000" stroke-width=".25" d="m575.78 188.56-1.3 1.64-.31-.4-.28-.96-1.84-.42-.1-.37-.48-.21.06-.35-.35-.8-.06-.6.93.2.42-.44.28.26 1-.23.3-.34.5-.04.35.62.43.04.36-.47.56.1.15.92-.44.9z" data-originalStrokeWidth="0.25" style="shape-rendering: auto; stroke: rgb(0, 0, 0);"></path>


<path id="Matinha" fill="#ccccb8" stroke="#000" stroke-width=".25" d="M544.22 177.06h.9l.84.46-.52.16.62.84-1.06-.57-1.05 1.24-.44.09-.33.37-.42-.6-1.12-.2-.31-.3-.16-.6-.4-.12-.28-.35-.36.06-.1-.94.9-1.46h.2l.24.96.43.5.58.16 2.13.97-.36-.45z" data-originalStrokeWidth="0.25" style="shape-rendering: auto; stroke: rgb(0, 0, 0);"></path>


<path id="Matões" fill="#ccccb8" stroke="#000" stroke-width=".25" d="m578.52 219.72-.09.55-.39.42-.15.61-.36.33-.16.55-.86.13-.23.27-1.57-.2-2.69-.7-.7-.91-.45-.93-.19-.12-.8-.02-.46-.7-.85-.3-.35.14-.42-.22-.08-.28-.82-.46-1.7.65-.47-.77-.17-.46.31-.14.48.05.22-.23 2.37-1.2.68-.05 1.4 1.06.21-.21-.2-.92 1.7-.57 1.51.26.67-.42v-.69h.41l.04.4.38.05.41.57-.09.88-.45.65.68 1.19.94.54.68-.02z" data-originalStrokeWidth="0.25" style="shape-rendering: auto; stroke: rgb(0, 0, 0);"></path>


<path id="Matões_do_Norte" fill="#ccccb8" stroke="#000" stroke-width=".25" d="m555.24 189.87-.47.08-.4.4-.28.56-.05.45-.13.28-.45.24-.12.33-.41.3.02.36-1.14-.26-.01-.26-.44-1-1.85-.01v-.15l-.01-3.18.79-.96.6.09 1.4-.85.05.95-.19.86.68.87.32-.35.45-.04z" data-originalStrokeWidth="0.25" style="shape-rendering: auto; stroke: rgb(0, 0, 0);"></path>


<path id="Milagres_do_Maranhão" fill="#ccccb8" stroke="#000" stroke-width=".25" d="m585.7 186.25-.1.19-.73.28-.12.43-.3.38-2.9-1.8-3.35.4.03-.78.16-.36-.21-.32.4-.85.58-.62 3.17.47 3.28 2.55z" data-originalStrokeWidth="0.25" style="shape-rendering: auto; stroke: rgb(0, 0, 0);"></path>


<path id="Mirador" fill="#ccccb8" stroke="#000" stroke-width=".25" d="m557.25 233.91-5.15 4.76-2.96 2.73-.67.36-2.17.24-1.08-.19-.57.01-.88.2-.4.4-.74-.12-.73.28-.38.48-1.02.74-.83-.3-.5.1-1.03-.29-.78.14-.44-.25-.57-.02-.26-.38-.56-.03-.45.3-1.34.51-.96.06-.3.23-.55-.09-.32-.29-.36-.73-.63-.5-1-.28-.2-.22-.96.33-.9.04-1.7-.83.38-.49.56-.05.12-.2.83-.57 1.07-.19 1.02-1.05-.12-.27.4-.82.8.17.58-.02.87-.45.44.03.2-.25.47-.04.33-.3.72.12.52-.07.51.12.4-.27.47-.07.78-.36.08-.27 1.11-.63.4-.37.9-.28.63.08.44.3.52.02.03.4.47-.05.73.14.7-.2.8-.84.15-.63.33-.74.25-.24.22-.7.6-.29.58-.5 1.03-.5.89-.68.4-.05.34-.28.54-.07.3-.2.66-.44.31.08.95-.23.55.15.67.4.24-.19.84-.04.54.36.33.04 1.32 2.5z" data-originalStrokeWidth="0.25" style="shape-rendering: auto; stroke: rgb(0, 0, 0);"></path>


<path id="Miranda_do_Norte" fill="#ccccb8" stroke="#000" stroke-width=".25" d="m553.22 185.72-.92.56-1.41.85-.6-.09-.8.96-.22-2.2-.04-.79.26-.12.3-.65.17.09.49.05.62.3.38-.1.53.36 1.17-.44.33.27-.37.62z" data-originalStrokeWidth="0.25" style="shape-rendering: auto; stroke: rgb(0, 0, 0);"></path>


<path id="Mirinzal" fill="#ccccb8" stroke="#000" stroke-width=".25" d="m547.83 158.1-.3.14.22.97.45.41-.51.1-.15.28-.58.8.04.3-.55.56-.01.31-.25-.22.04-.39h-.57l-.72-.3v.54l-.66.56-.51.64-.47.2-.1-1.3-.05-2.77h.79v-1.23l2.57-.02.46-.4.43-.58.52 1.1z" data-originalStrokeWidth="0.25" style="shape-rendering: auto; stroke: rgb(0, 0, 0);"></path>


<path id="Monção" fill="#ccccb8" stroke="#000" stroke-width=".25" d="m538 182.91-.2.38 3.33.5-.05.64-.32.5-.42.4.1 1.05-.15.37-.53.28-.38.38h-.28l-.65.51v.25l-.36.47-.46.05-.11.35-.63-.39-.12-.4.22-.63.66-.68-.14-.38-.6.44-.4.02-.17-.46-.65-.16-.22.14-.65.3-.42-.02-.46.33-.28-.55-.24.01-.02-.74-.23-.19-.16-.67.02-.09 1.74-1.5-.82-1.65-1.1-.48-.48-.68 2.28.98 1.06.93.48.3.5-.45z" data-originalStrokeWidth="0.25" style="shape-rendering: auto; stroke: rgb(0, 0, 0);"></path>


<path id="Montes_Altos" fill="#ccccb8" stroke="#000" stroke-width=".25" d="m511.1 227.6-.15.46.14.75-.34.09-.72-.08-.3.46-.73.36h-.69l-.2.44-.6.2-.71-.07-.27-.35-.82.04-.2-.17-1.43.28-.2-.25.22-.32-.16-.28.17-.42-.27-.54.56-.7-.21-.48-.78-.01-.52-.17-.73.02-.72-.31-.23-.4.96-.83.66.09.3-.15.39.13.35-.16.39-.46.62-.16.86-1.01 1.96-.55.5-.3.19.17.03.65.35.68.02.53.18.86.44.8-.27 1 .29.35.48-.05.35-.25z" data-originalStrokeWidth="0.25" style="shape-rendering: auto; stroke: rgb(0, 0, 0);"></path>


<path id="Morros" fill="#ccccb8" stroke="#000" stroke-width=".25" d="m567.87 177.03.52 1.62-1.14.75-3.13 2.13h-.28l.17-.6.26-.18-.15-.62.5-.73v-.8l-.18-.48-.31-.26-.54-.1-1.3-.52-.26-.32-.7-.26-1.08-.6-.45-.63.1-.46-.22-.4-.47.02.2-.5v-1.13h5.39l-.01-3.01 2.6 5.77z" data-originalStrokeWidth="0.25" style="shape-rendering: auto; stroke: rgb(0, 0, 0);"></path>


<path id="Nina_Rodrigues" fill="#ccccb8" stroke="#000" stroke-width=".25" d="M567.25 187.28zl-.93-.53-.7-.17-.75-.77-.57-.16-.24-.63-.45-.25-3.04.43-.18-.39.63-.97.26-.1 1.71-2.2h.84l-.07.38.28.3.36-.21.32.5.14.58.5.35-.45.53.65.88z" data-originalStrokeWidth="0.25" style="shape-rendering: auto; stroke: rgb(0, 0, 0);"></path>


<path id="Nova_Colinas" fill="#ccccb8" stroke="#000" stroke-width=".25" d="m523.66 249.9-2.23 1.73-.83 1.47-.23.12-.63-.17-.23-.35-.1-.61.34-1.5-2.79-2.36.82-1.2h1.11l2.06.67z" data-originalStrokeWidth="0.25" style="shape-rendering: auto; stroke: rgb(0, 0, 0);"></path>


<path id="Nova_Iorque" fill="#ccccb8" stroke="#000" stroke-width=".25" d="m563.99 239.03.66 2.8-.38.2-.28-.22-.52.44-.6.14-.54.4-.52-.1-.3.32-.45-.49-.55.25-.81.05-.35.14-.1.71-.32.23-.21-.32-.48.05.3.6-.47-.08-.27.53-.54.35-.05.62-.48.22-.13.66-.49.51-.23.03-.45-.75-.28-.02-.66-.39 2-3.38z" data-originalStrokeWidth="0.25" style="shape-rendering: auto; stroke: rgb(0, 0, 0);"></path>


<path id="Nova_Olinda_do_Maranhão" fill="#ccccb8" stroke="#000" stroke-width=".25" d="m531.34 174.63-.65.5-.62.32-.42-.2-.42.41-.25-.22-.31.42-.9-.33-.15.62-.75.26-.21.42-.4.11-.37.6h-1.04l-.31.25-.54.17-.15.34-.55.23-.11.43-.74.1-.2.14-1.6.08-.4-.12-.28.6-.53-.04-.68.41-.74 1.06-.16-.8.06-.6.32-.5 1.28-1.37.82-.55.52-.2.68-.56.09-.65.3-.56.8-.62-.13-.69.15-.44.57-.7v-.38l.4-.8-.21-.4.29-.57 1.32.17 3.39-.83.76-.49 2 .61z" data-originalStrokeWidth="0.25" style="shape-rendering: auto; stroke: rgb(0, 0, 0);"></path>


<path id="Olho_d_Água_das_Cunhãs" fill="#ccccb8" stroke="#000" stroke-width=".25" d="m542.43 193.4-.34 1.35.12.12.2 1.17.1.28-.37.3-.14.63-.92.36-.2.67.2.31-.4.51.05.74-1.72-2.32-.21-.59-.65-.28.76-1.46.02-.58.03-1.08 2.34-.97.3.56z" data-originalStrokeWidth="0.25" style="shape-rendering: auto; stroke: rgb(0, 0, 0);"></path>


<path id="Olinda_Nova_do_Maranhão" fill="#ccccb8" stroke="#000" stroke-width=".25" d="m543.07 175.28.26.57.37.09.52 1.13-.07.2.36.45-2.13-.97-.58-.16-.43-.5-.23-.96-.21.01-.43.08-.11-.28 1.73-.58.17.2.02.66.38-.18z" data-originalStrokeWidth="0.25" style="shape-rendering: auto; stroke: rgb(0, 0, 0);"></path>


<path id="Paço_do_Lumiar" fill="#ccccb8" stroke="#000" stroke-width=".25" d="M559.2 167.28v.65l-.28.3-1.05.25-.87-.04.14-.8-.1-.81.18-.05.07.29.6-.27.77-.08.53.1z" data-originalStrokeWidth="0.25" style="shape-rendering: auto; stroke: rgb(0, 0, 0);"></path>


<path id="Palmeirândia" fill="#ccccb8" stroke="#000" stroke-width=".25" d="m541.88 168.25.28.4 1.44.96 1.23.14-.07.24.68.34-.76.76-4.65 2.33-.2.05-.47-.69.33-.54.63-.4.01-.48.35-.46.06-.6.52-.85.03-.75z" data-originalStrokeWidth="0.25" style="shape-rendering: auto; stroke: rgb(0, 0, 0);"></path>


<path id="Paraibano" fill="#ccccb8" stroke="#000" stroke-width=".25" d="m563.46 238.44-.4.08-.51-.13-.97.6-2.31-3.08-.74-.32 2.36-.98 1.16.03.73-.22.4 1.08-.04.6.4.75.57.58-.43.22z" data-originalStrokeWidth="0.25" style="shape-rendering: auto; stroke: rgb(0, 0, 0);"></path>


<path id="Parnarama" fill="#ccccb8" stroke="#000" stroke-width=".25" d="m564.88 217.16-.31.13.17.46.46.77 1.7-.65.83.46.08.28.42.22.35-.13.85.3.46.7.8.02.19.12.44.93.7.9 2.7.72 1.57.19.27.6-.15.4.22 1.14-.45.4.19.87-.07.49.34.52-.37.79-4.2.03-4.1.03-.07-.15.59-1.18-.42-.58v-.58l-.66.02-.15-.63.33-.63-.47-.7-.44-.14-.5-.4v-.56l-1.63-.18-.47-.5-.64-.23v0l.08-.17-.62-.34-.23-.34-.14-.84.24-.42-.4-.73-.02-.57.22-.61.26-.34.73-.31.06.1z" data-originalStrokeWidth="0.25" style="shape-rendering: auto; stroke: rgb(0, 0, 0);"></path>


<path id="Passagem_Franca" fill="#ccccb8" stroke="#000" stroke-width=".25" d="m567.75 234.03-.54.66-.08.4-.66-.1-3.7-.58-.73.23-1.16-.03-.12-.32.34-.95-.1-.56.26-.23.24-1.12.02-1.34.45-.62 1.7-.1.1-.15 1.1-.15.53-.38.5-.9.2.5.16 1.25.39.6.66.58.17.42.82.67.14.6-.24.34z" data-originalStrokeWidth="0.25" style="shape-rendering: auto; stroke: rgb(0, 0, 0);"></path>


<path id="Pastos_Bons" fill="#ccccb8" stroke="#000" stroke-width=".25" d="m563.46 238.44.19-.08.34.66-7.5 3.51-2 3.38-.11-.35-.77-.68-.2-.56-.32-.15.1-.32-.4-.4-1.47-.82 3.57-3.02 4.38-3.7 2.3 3.08.97-.6.53.13z" data-originalStrokeWidth="0.25" style="shape-rendering: auto; stroke: rgb(0, 0, 0);"></path>


<path id="Paulino_Neves" fill="#ccccb8" stroke="#000" stroke-width=".25" d="m587.02 171.1.8.36.1.42-.53.03-.02.66.4.8-.99 1.45-.52.22h-.75l.1.38-.44.33.36.62-.63.55-.66.14-.74.35-1.25-.06.04-.3-.39-.69.5-1.73.44-.08.19-.29 1.28-4.54.96.78.43.16h1.04z" data-originalStrokeWidth="0.25" style="shape-rendering: auto; stroke: rgb(0, 0, 0);"></path>


<path id="Paulo_Ramos" fill="#ccccb8" stroke="#000" stroke-width=".25" d="m540.96 201.51-1.2 1.7-.93.58.25.31-.1.6-.55.34-.4.48-.76.3-.76-.32-.33-.23-.03-.51-.4-.38-.86-.23-.7.72-.53.04-.6-.17H532l-.16-.26-.64.62-.61-.23-.6-.95.04-.11.24-.91 1.07-.27.78.8.1-1.1 1.1-.73 1.84.23 1.53-.3h.7l1-.54 1.97.34z" data-originalStrokeWidth="0.25" style="shape-rendering: auto; stroke: rgb(0, 0, 0);"></path>


<path id="Pedreiras" fill="#ccccb8" stroke="#000" stroke-width=".25" d="m550.09 202.44-.12.36.16.4.56.28.05.68.34.6.45.22.17.55-1.54 1.03-.1.43.18.22.08.39-.24.29-.99.79-.1.6-.07-.1-.02-.04.03-.65.58-.28.6-.62.1-.32-.22-.31-.2-1.27-.9-.2-.83.18-.6-.13 1.16-.31.03-.47.86-.61.1-1.26.12-.28-.06-.58z" data-originalStrokeWidth="0.25" style="shape-rendering: auto; stroke: rgb(0, 0, 0);"></path>


<path id="Pedro_do_Rosário" fill="#ccccb8" stroke="#000" stroke-width=".25" d="m536.28 171.85.47.54.47.17.52.41.43-.09.55.17-.18.35.25 1.32-.03.8-.16.27-.07.78-.8.81-.04.37-.72.82-.7.91-2.49.72-1.43.37-.35-.9-.42-2.38-.25-2.66.15-.34.63-.3.34.4.27-.47.74-.24.28-.2.87-.29.26-.55-.48-.77.54.1.56-.26.3.1.25.5z" data-originalStrokeWidth="0.25" style="shape-rendering: auto; stroke: rgb(0, 0, 0);"></path>


<path id="Penalva" fill="#ccccb8" stroke="#000" stroke-width=".25" d="m536.97 178.57 1.05.28 1.15.48.88.21.16.35 1.11 1.13-.25.15-.76.95-.36.1h-1.15l-.7-.19-.1.88-1.32-.54-.5.45-.48-.3-1.06-.93-2.28-.98v-.04l1.42-.37 2.5-.72z" data-originalStrokeWidth="0.25" style="shape-rendering: auto; stroke: rgb(0, 0, 0);"></path>


<path id="Peri_Mirim" fill="#ccccb8" stroke="#000" stroke-width=".25" d="m543.34 166.8.42.93.36.15 1.42-.1.38.38v.88l1.11-.03.25.45.44.3v0l-.49.04-.84.7-.6.07-.36-.24-.68-.34.07-.24-1.23-.14-1.44-.97-.28-.39.03-.6.62-.77z" data-originalStrokeWidth="0.25" style="shape-rendering: auto; stroke: rgb(0, 0, 0);"></path>


<path id="Peritoró" fill="#ccccb8" stroke="#000" stroke-width=".25" d="m555.55 198.94 1.55 1.03 1.53 2.8.11.2-1.92.38-2.68.54-1.47-1.36.13-1.16.5-1.72-.2.05.08-.36.8-.57 1 .02z" data-originalStrokeWidth="0.25" style="shape-rendering: auto; stroke: rgb(0, 0, 0);"></path>


<path id="Pindaré_Mirim" fill="#ccccb8" stroke="#000" stroke-width=".25" d="m536.99 187.63-.47.05-.7-.17-.43.47-.27 1.15-1.19 1.8-.66.49v-1.03l-.16-1.64.67-.05.4-.3.25-.42-.02-.36.54-.34.61-.13-.1-.6.22-.14.65.16.18.46.4-.02.6-.44.13.38z" data-originalStrokeWidth="0.25" style="shape-rendering: auto; stroke: rgb(0, 0, 0);"></path>


<path id="Pinheiro" fill="#ccccb8" stroke="#000" stroke-width=".25" d="m543.2 161.7.1 1.3.47-.2v1.7l.19.53.45.44-.32.12-.68.63-.07.57-.81.1-.62.76-.03.6-.58.45-.03.75-.52.84-.06.61-.35.46-.01.48-.63.4-.33.54-.23.33-.41-.06-.55-.17-.43.1-.52-.41-.47-.17-.47-.54 1.45-.78.58-3.77-.56-.83-.4-.23-.05-.3 2.47-1.13 2.36-2.46z" data-originalStrokeWidth="0.25" style="shape-rendering: auto; stroke: rgb(0, 0, 0);"></path>


<path id="Pio_XII" fill="#ccccb8" stroke="#000" stroke-width=".25" d="m541.76 189.03.1.11 1.52 2.65-.94 1.62-.84-.28-.3-.56-2.35.97-.03 1.08-.2-.03.38-3.93.4-.37.52-1 .01-.02.62.31.4-.46z" data-originalStrokeWidth="0.25" style="shape-rendering: auto; stroke: rgb(0, 0, 0);"></path>


<path id="Pirapemas" fill="#ccccb8" stroke="#000" stroke-width=".25" d="m559.43 188.8.98 2.44-2.87-.1-.19 1.3-.58.3-2.19-1.1-.55-.28.05-.46.28-.56.4-.4.47-.08.44-.12-.5-.74.5-.37.98.26.4-.24.52-.8 1-.48z" data-originalStrokeWidth="0.25" style="shape-rendering: auto; stroke: rgb(0, 0, 0);"></path>


<path id="Poção_de_Pedras" fill="#ccccb8" stroke="#000" stroke-width=".25" d="m548.9 209.15-1.4-.13-.44.16-.24.39-1.05-.68-2.9-.28-.9.88-.07.66-1.38.5-.12-.48-.53-.9.19-2.14 1.85-.89 1.08-.35.05.36.45.04 3.45.32-.02.1 3.19.87-.6.62-.57.29z" data-originalStrokeWidth="0.25" style="shape-rendering: auto; stroke: rgb(0, 0, 0);"></path>


<path id="Porto_Franco" fill="#ccccb8" stroke="#000" stroke-width=".25" d="m509.94 232.84.1.3.65.42-.09.79.26.29.23.74-1.07-.36-.1-.44-.28-.13-.75.18-.43-.29-.68-.2-.87.35-.03.48-.6.77-.1.35-1.13.1-.25.57.55.36.22.77.47 1.16-.9-.25-.26-.2-.5.12-.43.49-.45.3-1.04-.17-.31-.41-.44.04-.65-.55-.6.13-.24-.26-.48-.11.16-.24-.3-.77.05-.31.37-1 .02-.68.53-.98-.04-.4.68-.14.4.22.3-.06.58.64.84-.35.65-.1 1.27-.5.32-.32.93-.32.06.25 1.43.34.69-.19.1-.17 1.05-.37z" data-originalStrokeWidth="0.25" style="shape-rendering: auto; stroke: rgb(0, 0, 0);"></path>


<path id="Porto_Rico_do_Maranhão" fill="#ccccb8" stroke="#000" stroke-width=".25" d="m550.53 156.7-.83.14-.58.83.27.45-.6.38-.72-.1-.25-.3.1-.3-.53-1.1 1.11-.45.2-.49.63-.36-.1-.58.18-.33.48.28.42.43-.07.37.52.46z" data-originalStrokeWidth="0.25" style="shape-rendering: auto; stroke: rgb(0, 0, 0);"></path>


<path id="Presidente_Dutra" fill="#ccccb8" stroke="#000" stroke-width=".25" d="m554.1 213.66-.05.14.15.78-.31.23.38.36-.51.55.2.9.23.6-.2.43-.74.9-.06 1.07-.45.4-.38.48-.22-.8-.8-.06-.01.36-.38.04-.24-.46-.12-.86-.26-.6.33-.36-.43-1.6.28-.1.26-.46-.1-.89.36-.8.35-.27.28.32.49-.08.09-.75.57.75.57-.35z" data-originalStrokeWidth="0.25" style="shape-rendering: auto; stroke: rgb(0, 0, 0);"></path>


<path id="Presidente_Juscelino" fill="#ccccb8" stroke="#000" stroke-width=".25" d="m559.76 181.5-.3-.01-.31-1.82-.66.55.16-.38-.53-.24-.16-.52-.04-1.4-.16-.34v-1.16l.12-.75 1.36-.74-.2.63.06.74-.37.68.79.37.09.38.3.14.35-.18.22.23-.45.44.37.46-.26.6-.01.42-.38.06-.23.4.04.6.26.62z" data-originalStrokeWidth="0.25" style="shape-rendering: auto; stroke: rgb(0, 0, 0);"></path>


<path id="Presidente_Médici" fill="#ccccb8" stroke="#000" stroke-width=".25" d="M530.52 162.69v1.8l.8.55-.05.02-2.87 1.17-1.77.04.06-.28.85-1.2.24-1.03.12-1.05.48-.47.52-.26.5.04.67.96z" data-originalStrokeWidth="0.25" style="shape-rendering: auto; stroke: rgb(0, 0, 0);"></path>


<path id="Presidente_Sarney" fill="#ccccb8" stroke="#000" stroke-width=".25" d="m536.28 171.85-.24.46-.25-.5-.3-.1-.56.26-.53-.1.13-.57-.23-.26.18-.86.28-.46.08-.6-.17-.48-.37-.21-.42-.86.22-.2 3.2-1.42.06.3.4.23.56.83-.58 3.77z" data-originalStrokeWidth="0.25" style="shape-rendering: auto; stroke: rgb(0, 0, 0);"></path>


<path id="Presidente_Vargas" fill="#ccccb8" stroke="#000" stroke-width=".25" d="m562.99 181.54-1.71 2.2-.26.1-.63.98.18.4-.57.1-.6-.46-.55-.03.33-.74-.04-.7.14-.6.33-.5-.15-.8h.3l.05.06z" data-originalStrokeWidth="0.25" style="shape-rendering: auto; stroke: rgb(0, 0, 0);"></path>


<path id="Primeira_Cruz" fill="#ccccb8" stroke="#000" stroke-width=".25" d="m571.28 164.72.86.02.26.46-.06.28.24 1.62-.52.13-.12.29.07.82-.17.15.43.88.06.67 1.09 1.6-.48 1.05.44.93.59.86.24.7.48.45-.45.18-.56.4-.97.53h-.38l-2.43-.67.55-.62.14-.56-.67-.57-.11-.92.1-.47.3-.48-.13-.65.12-.21-.08-.7.16-.8-.16-.68-.32-.25.23-.6-.22-1.28.17-.75-.55-1.04.4-.62.97-.26z" data-originalStrokeWidth="0.25" style="shape-rendering: auto; stroke: rgb(0, 0, 0);"></path>


<path id="Raposa" fill="#ccccb8" stroke="#000" stroke-width=".25" d="m559.37 166.91-.16.36-.02-.46-.53-.1-.77.08-.6.28-.07-.3.35-.38 1.05-.52 1.1-.01.1.8z" data-originalStrokeWidth="0.25" style="shape-rendering: auto; stroke: rgb(0, 0, 0);"></path>


<path id="Riachão" fill="#ccccb8" stroke="#000" stroke-width=".25" d="m521.43 251.63.56 1.9-3.9 1.77-.56 4.06-.53.38-.05.59-.27.28.5.67-.3.37.33.47.23.7-.33.87.36.13.3.67-.1.28.1 1.09-.27.4.34.46.12.64-.2.27.09 1.1-.36 1.27.16.5-.24.9-.78.76-.8.13-.11-.29-.8-.16-.9.34-.27-.26-.72.14-.58-.05-.36-.5.42-.62.72-.23.52-.3.69.16.88-.17.64-.85.07-.84.22-.52-.42-.37.58-1.43.3-.32-.25-.53.06-.49-.44-.74-.58-.36-.28-.03-.55-.75-.43-.2-.8.22-1.28.21-1.48.52-.71-1.25.28-.72-.05-.3.53-.32.15-.66-.3-.38-.44-.24-.98.27-.45-.59-1.9-.32-.56-.69-.88-.13-.35.12-.74-.2-.57.01-.2-.4.32-.85.88-.55.35-.44.1-.93.17-.55.4-.5 1.06-.43.34-.45.43-.04.27-.38-.11-.55-.27-.44.12-.34.52-.48.47-.26 3.75.36-.36.47.2.28 2.19-.54.72-.39.13-.67-.14-.32.39-1.02.5-.15 1.03-.67 2.79 2.36-.35 1.5.1.6.24.35.63.17.23-.12z" data-originalStrokeWidth="0.25" style="shape-rendering: auto; stroke: rgb(0, 0, 0);"></path>


<path id="Ribamar_Fiquene" fill="#ccccb8" stroke="#000" stroke-width=".25" d="m501.2 226.15.23.4.72.3.74-.01.52.17h.78l.2.48-.56.7.27.54-.17.42.16.28-.2.32-.34.23-.44.03.22.74-.35.56-.94-.38-.32-.3-.45.27-1.03-.12-.46.1-.12-.29.03-.52-.2-.48-.14-.39.3-.92-.02-1.27-.11-.15-.08-.47.34-.19.89.17z" data-originalStrokeWidth="0.25" style="shape-rendering: auto; stroke: rgb(0, 0, 0);"></path>


<path id="Rosário" fill="#ccccb8" stroke="#000" stroke-width=".25" d="m557.66 172.25.31.96.06.67-.22.23.22.45-.32.36.16.5-.12.75v1.16l.16.35.04 1.4.16.51-1.62.01.02-.89-.67-1.05.18-.54-.77.01.5-1.36-.63-.23.34-1.42v-.4l-.36-.36.25-.74-.05-.4.3-.1.15.31 1.15-.24z" data-originalStrokeWidth="0.25" style="shape-rendering: auto; stroke: rgb(0, 0, 0);"></path>


<path id="Sambaíba" fill="#ccccb8" stroke="#000" stroke-width=".25" d="m536.91 243.2-.17.69.24.65.72 1.48h.37l.22.26-.04.54-.5.42-.01.86.22.55-.14.54-.34.48h-.4l-.16.84-3.15 3.96-2.56 3.3.65-.3h.57l.68.14.4.56.49.15.56.58-.25.35v.43l-.31.26.1.34-.15.7-.34.23-.03.41-.48.67-1.44-.96-.87-.3-.85-.02-.37-.16-.61.17-.87.42-.24.58.14 1.36.74.35.24.87-.4.51-.47-.57-.37-.16.25-.46-.33-.7.07-.66-.3-1.05.27-.23v-.66l.86-.75.07-.38-.16-.8v-.9l.12-.43-.38-.6-.12-.95-.17-.29.29-.44.6-.17.47.13.18-.23.49.16.52-.3.25-.42.3-.1.64-.9.36-.1.07-.45.69-.03.43-.4.15-.4 2.74-6.58-.21-1.4.22-.08.25-.63z" data-originalStrokeWidth="0.25" style="shape-rendering: auto; stroke: rgb(0, 0, 0);"></path>


<path id="Santa_Filomena_do_Maranhão" fill="#ccccb8" stroke="#000" stroke-width=".25" d="m550.59 218.72.12.86.24.46.38-.03v-.36l.8.06.22.8-.5-.02-.19.65.27.76-.15-.03-1.85.42-.37.14-1.05.96-1.07-.29.1-.64-.58-.33.18-.97-.03-.62 1.01-1.2.7-.6.24.03.83-.39z" data-originalStrokeWidth="0.25" style="shape-rendering: auto; stroke: rgb(0, 0, 0);"></path>


<path id="Santa_Helena" fill="#ccccb8" stroke="#000" stroke-width=".25" d="m539.25 159.38 1.68.18 2.26 2.13-1.06.66-2.36 2.46-2.47 1.13-3.2 1.42-.23.2.42.86.37.21.17.48-.08.6-.28.46-.18.87.23.26-.13.57.48.77-.26.55-.87.28-.28.21-.74.24-.27.47-.34-.4-.63.3-.15.35-.07-4.37.84-.88v-.86l.6-1.34-1.44-.41.01-1.72.04-.01.45.08.5.34.69-.41.53.05.82-.8.7-.24.72-.5.19.57.57.48.12-.82.54-1.02.39-.36.17-.54-.14-.24.8-1.05-.16-.52.14-.3.43.02.06-.37z" data-originalStrokeWidth="0.25" style="shape-rendering: auto; stroke: rgb(0, 0, 0);"></path>


<path id="Santa_Inês" fill="#ccccb8" stroke="#000" stroke-width=".25" d="m536.99 187.63-.22.63.12.4-.34-.21.36 1.12.09.6-.16.6.02.52-.25.44-.58.66.06.7.2.67-.51.2-.28.5-.01.54-.34.22-.42.13-.73-.2-1.11-1.35h-.5l-.06-.7-.3-.57.62-.65.63-.47.66-.49 1.19-1.8.27-1.15.43-.47.69.17z" data-originalStrokeWidth="0.25" style="shape-rendering: auto; stroke: rgb(0, 0, 0);"></path>


<path id="Santa_Luzia" fill="#ccccb8" stroke="#000" stroke-width=".25" d="m532.03 192.53.3.56.06.71h.3l-.22.58.27.72-.07.36-.33.52v.56l-.19.3-.06.66-.55-.06-.68.1-.13.19-1.96.73-.32.54.2.76-.26 1.03-.32.8.3.05.27.4.06.65.46.69.86.43-.04.1h-3.64l-.03 1-.1.82-.55.3.01.36-.3.43-.44.2-.38.4-.32.58.2.27.02.56.17.3h-1.27l-.46-.94-1.53-.85-.46-2.28h.33l.55-.41.34-.71-.6-.86-.18-.71-.25-.03-.28-.43.17-.97-.3-.3-.43-1.17-.16-.1 3.2-4.72.76-.61.59-.1.67-.23.9-.52.31-.36.15-.5.97-.42.01-.8.12-.32.53.05.42.25.61-.7.13.35.7-.2.32-.25.07-.37.38-.38.65-.23z" data-originalStrokeWidth="0.25" style="shape-rendering: auto; stroke: rgb(0, 0, 0);"></path>


<path id="Santa_Luzia_do_Paruá" fill="#ccccb8" stroke="#000" stroke-width=".25" d="m531.26 170.26-2-.6-.76.48-3.39.83-.15-.53.25-.95.68-.59.3-.56.3-.32.13-1.06.01-.7 1.77-.03 2.87-1.17v1.72l1.42.4-.59 1.35v.86z" data-originalStrokeWidth="0.25" style="shape-rendering: auto; stroke: rgb(0, 0, 0);"></path>


<path id="Santa_Quitéria_do_Maranhão" fill="#ccccb8" stroke="#000" stroke-width=".25" d="m581.07 180.18-.5.33 3.75 2.22 2.54 1.5-.19.49-.35.22-.05.46-.42.47-.16.38-.08-.02-3.28-2.55-3.17-.48-.58.62-2.9 1-.14-.23-.45-.58.06-1.3.59-.36-.13-.8.13-.57.25-.3.45-.02v-.46l.99-.8-.22-.62.03-.13z" data-originalStrokeWidth="0.25" style="shape-rendering: auto; stroke: rgb(0, 0, 0);"></path>


<path id="Santa_Rita" fill="#ccccb8" stroke="#000" stroke-width=".25" d="M555.25 177.13h.77l-.18.54.67 1.05-.02.89 1.62-.02.53.24-.16.38-.28.2.27.43-1.19.24-.69-.25-.6.98-.34-.33-.55-.04-.18-.4-.53-.01-.44-.3-.23-.45-.93-.2-.22.11-.05-.36-.38-.03-.18-.31-1.39-1.61.15-.4-.26-.23.13-.1.93-.33.5.25 2.58 1.14-.02-.59.12-.7z" data-originalStrokeWidth="0.25" style="shape-rendering: auto; stroke: rgb(0, 0, 0);"></path>


<path id="Santana_do_Maranhão" fill="#ccccb8" stroke="#000" stroke-width=".25" d="m583.5 177.4-.17.05v2l2.86-1.47h3.98l-5.84 4.75-3.75-2.22.49-.33.46-1.2.63-.44-.02-.86.12-.33z" data-originalStrokeWidth="0.25" style="shape-rendering: auto; stroke: rgb(0, 0, 0);"></path>


<path id="Santo_Amaro_do_Maranhão" fill="#ccccb8" stroke="#000" stroke-width=".25" d="m577.7 166.75-.04.74-.5.23-.12.47.04.79-.31.79.55.45.02 1-.34.7-.64.38-.55.07.39.77-.03.38.22.48.35.3-.52.56-1.53.76-.48-.44-.24-.7-.6-.87-.43-.93.48-1.04-1.1-1.6-.06-.68-.42-.88.17-.15-.07-.82.13-.29.52-.13-.24-1.62.06-.27-.26-.46-.86-.02 1.17-.06 1.31.35 1.47.67.76.3z" data-originalStrokeWidth="0.25" style="shape-rendering: auto; stroke: rgb(0, 0, 0);"></path>


<path id="Santo_Antônio_dos_Lopes" fill="#ccccb8" stroke="#000" stroke-width=".25" d="m554.59 208.78-.4.25-.27.48.05.34-.44.63-.52.33v.46l-1.5.01h-.3l-2.21-2 .1-.6.99-.8.24-.28-.1-.4-.18-.21.12-.43 1.54-1.03 1.54.28-.92.55.56.4.2.42.94.64.04.49z" data-originalStrokeWidth="0.25" style="shape-rendering: auto; stroke: rgb(0, 0, 0);"></path>


<path id="São_Benedito_do_Rio_Preto" fill="#ccccb8" stroke="#000" stroke-width=".25" d="m570.07 181.96-2.82 5.33-1.7-2.43-.65-.88.45-.53-.5-.35-.14-.57-.32-.51-.36.2-.28-.3.07-.37.01-.02h.28l3.13-2.13-.1 1.08.14.05 2.58.87z" data-originalStrokeWidth="0.25" style="shape-rendering: auto; stroke: rgb(0, 0, 0);"></path>


<path id="São_Bento" fill="#ccccb8" stroke="#000" stroke-width=".25" d="m546.4 170.5-.44.6.1.32-.1.95-.15.41v.02l-.44.17-1.07-.27-.55.24-.46.6-1 .25-3.14.98-.35-.05-.25-1.32.18-.35.4.06.23-.33.46.7.21-.06 4.65-2.33.75-.76.36.24z" data-originalStrokeWidth="0.25" style="shape-rendering: auto; stroke: rgb(0, 0, 0);"></path>


<path id="São_Bernardo" fill="#ccccb8" stroke="#000" stroke-width=".25" d="m590.83 184.22-.51.13-.57-.31-.4.28-.59-.02-.19.44-.44-.38-.4.44-.4.1-.33-.19-.14-.48-2.54-1.5 5.85-4.74 1.13 1.88-.55 1.2z" data-originalStrokeWidth="0.25" style="shape-rendering: auto; stroke: rgb(0, 0, 0);"></path>


<path id="São_Domingos_do_Azeitão" fill="#ccccb8" stroke="#000" stroke-width=".25" d="m549.14 241.4 2.17 1.23 1.48.82.4.4-.1.32-.62.44-.33.61-.59-.2-.33.71-.4 1.6-.2-.22-1.19-.72-1.47.22-.23-.59-.5-.24-.26-.6-.27-.16-.4-3.02 2.17-.24z" data-originalStrokeWidth="0.25" style="shape-rendering: auto; stroke: rgb(0, 0, 0);"></path>


<path id="São_Domingos_do_Maranhão" fill="#ccccb8" stroke="#000" stroke-width=".25" d="m556.59 219.91.24 1.43.69-.43.6 1.2-.04.2-.92.88-.1.48.32.53-.67.16-.34.31-.2.54-4.7.65.7.45-.22.63-.32.14-.72-.4-.18-.48-.06-.65.43-.6.98-.24.2-.76.1-1.39-.24-.1-.2-.57-.27-.76.19-.65.5.02.38-.48h.82l.5-.2.8.33.17.43.86-.02.2-.46z" data-originalStrokeWidth="0.25" style="shape-rendering: auto; stroke: rgb(0, 0, 0);"></path>


<path id="São_Félix_de_Balsas" fill="#ccccb8" stroke="#000" stroke-width=".25" d="m546.3 242 .4 3.02.27.16.25.6.51.24.23.6-.04.66-.2.57-1.28.98.2.43.97.46-.03.62.59.06-.34.84.13.33-1.6-.1-3.56 4.13-1.06.54-.64-.2 1.74-7.08.29-.43-.37-.94.99-2.77-.78-1.35.4-.96.4-.4.88-.19h.57z" data-originalStrokeWidth="0.25" style="shape-rendering: auto; stroke: rgb(0, 0, 0);"></path>


<path id="São_Francisco_do_Brejão" fill="#ccccb8" stroke="#000" stroke-width=".25" d="m504.86 214.25-.27.2-.1.42-.4.25-.1.5-.63.53-.1.27-.9.84-.64-.12-.42-.78-.48-.08-.34.22-.58-.68-1.2-.99-.32-.69-.43.7-.21-.38-.28-1.07.7-.57.48.23.19-.52 2.23-.36.46.3.22.58.73.1.38.38.22.63.3.46.4-.05z" data-originalStrokeWidth="0.25" style="shape-rendering: auto; stroke: rgb(0, 0, 0);"></path>


<path id="São_Francisco_do_Maranhão" fill="#ccccb8" stroke="#000" stroke-width=".25" d="m578.35 231.84.15.69.65.27.6.53.42.05.37.43.13.5-.04.53.36.57-.4.32-.06.42-.4.6.22 1.16-.37.4-.24-.01-3.53-1.4-3.48-1.46-1.05.13.66-.38-.35-.8-.53.22-.52-.35 1.39-.25.1-1.2-.26-1.52.24-1.45.14-.1-.48-1.92 4.2-.03.16.17.05.68.59.57.03.43-.47.5.02.27.45.78.28.17.73.1z" data-originalStrokeWidth="0.25" style="shape-rendering: auto; stroke: rgb(0, 0, 0);"></path>


<path id="São_João_Batista" fill="#ccccb8" stroke="#000" stroke-width=".25" d="m548.76 174.47-.49.46v1.06l.3.6 1.26.49.2.19-1.49 1.67-.18.1-.3-.35-.92-.22-1.16-.78-.01-.16-.84-.46h-.91l-.52-1.13-.37-.1-.26-.57.75-.36.52.32.7.16 1.26-1.02.14.13.89-.16z" data-originalStrokeWidth="0.25" style="shape-rendering: auto; stroke: rgb(0, 0, 0);"></path>


<path id="São_João_do_Carú" fill="#ccccb8" stroke="#000" stroke-width=".25" d="m523 184.94.1.56-.26.05-.15.66.26.84-.5-.12-.9-.43-.53.27-.36-.08-.31-.33-.93-.35-.97.24.04.18-.7.38-.65-.3-.7.51-.16.25-.7.26-.18-.1-.64.4-.42.45-.31.07-.18.41-.57-.1-.65.15-.05-.34 1.2-1.28.9-.6.58-.64.93-.83.63-.19.8-1.49.27-.97.05-.97 2.08.97-.02 1.1-.22.43.52.61-.2.33z" data-originalStrokeWidth="0.25" style="shape-rendering: auto; stroke: rgb(0, 0, 0);"></path>


<path id="São_João_do_Paraíso" fill="#ccccb8" stroke="#000" stroke-width=".25" d="m512.52 232.75.34.22 1.23.14-.13.64-.43.53-.74.32-.11.84.26.54-.3.46-.38.3.16.32-.34.35.15.9-.6 1.08-.17.56.09.48.31.46.1.58-1.02.13-.99-.35-.52.1-.99.13-.49-.07-.29-.4h-.54l-.46.22-1.3-.2-.29.07-.5-.25-.27-.51-.75-.58-.06-.24.45-.31.44-.5.5-.1.26.19.9.25-.48-1.16-.22-.77-.55-.36.25-.57 1.14-.1.1-.35.6-.77.02-.48.87-.34.68.2.43.29.75-.18.28.12.1.43 1.08.36-.23-.74-.26-.29.1-.79-.67-.42-.09-.3.83.16.14-.24.51.1z" data-originalStrokeWidth="0.25" style="shape-rendering: auto; stroke: rgb(0, 0, 0);"></path>


<path id="São_João_do_Soter" fill="#ccccb8" stroke="#000" stroke-width=".25" d="m564.1 216.54-4.1-1.89.25-.04.75-2 .6-.44.98-.45.26-.4.14-.6.3-.21v-.6l-.38-.28.17-.36.02-.85.25-.41.33.24.23.5.68.36.27-.12.51.3.87-.23 1.21.59.53-.08.31 1.89-1.1 1.62.3.48-.5.27-.32-.11-.48.68-.72.34-.5.52-.46.02z" data-originalStrokeWidth="0.25" style="shape-rendering: auto; stroke: rgb(0, 0, 0);"></path>


<path id="São_João_dos_Patos" fill="#ccccb8" stroke="#000" stroke-width=".25" d="m570.87 240.16-.93 4.18-.6-.44-.36-.4-.58-.17-.36-.72-.4.16-.94-.67-.63-.22-.42.06-.33-.2-.68.09-.66-2.8-.34-.66-.19.08.22-.8.43-.22-.56-.58-.4-.75.04-.6-.4-1.08 3.7.58v.43l.41.65.12.96.24.97.35-.16.36.57.31.1.96 1.09.4-.1.17.38.36-.16z" data-originalStrokeWidth="0.25" style="shape-rendering: auto; stroke: rgb(0, 0, 0);"></path>


<path id="São_José_de_Ribamar" fill="#ccccb8" stroke="#000" stroke-width=".25" d="m559.2 167.28.16-.36.5.8-.18.67-.81.24-.38.6-.06.57-.47.47-.11.45-.66.36.09-.78-.13-.6.28-.29-.76-.98.24-.5-.52-.88.66-.23.09.82-.14.8.87.03 1.06-.24.28-.3z" data-originalStrokeWidth="0.25" style="shape-rendering: auto; stroke: rgb(0, 0, 0);"></path>


<path id="São_José_dos_Basílios" fill="#ccccb8" stroke="#000" stroke-width=".25" d="m548.92 209.19.07.09 2.21 2h.31l.2.71-.22.48.2.76-.03.73-.28-.32-.35.27-.36.8-.27-.06-.65-.55-.52-.16-.1-.4-.48-.34-.13-.48.49.04-.02-.39.57-1-.23-.29.15-.33-.12-.8-.4-.46z" data-originalStrokeWidth="0.25" style="shape-rendering: auto; stroke: rgb(0, 0, 0);"></path>


<path id="São_Luís" fill="#ccccb8" stroke="#000" stroke-width=".25" d="m557.18 171.09-.69.37-.65.16-.25.5-.29.1-.85.27-.67-.44-.35.15-.05.58-.34.03.12-.53.25-.28-.03-.57.64-2.1-.4-.65.4-.3-.01-.3.6-.08.3-.7.52-.01.96-.23.52.87-.24.5.76.99-.28.28.13.6z" data-originalStrokeWidth="0.25" style="shape-rendering: auto; stroke: rgb(0, 0, 0);"></path>


<path id="São_Luís_Gonzaga_do_Maranhão" fill="#ccccb8" stroke="#000" stroke-width=".25" d="m553.1 199.7.2-.04-.5 1.72-.12 1.16-2.6-.1-.4-.41-2.6.04-1.8.03-.25-.66-.34-.08.17-.54 2.35-1.83 4.14-.03h.5l.07.45z" data-originalStrokeWidth="0.25" style="shape-rendering: auto; stroke: rgb(0, 0, 0);"></path>


<path id="São_Mateus_do_Maranhão" fill="#ccccb8" stroke="#000" stroke-width=".25" d="m549.5 191.34 1.85.02.44.99.02.26 1.14.26-.02-.35.4-.31.12-.33.45-.24.14-.28.55.27.06.3-.43.31-.15.45-.24.08.2.76-.6.63.02.36-.35.27.09.76h-.9l-.12.38.22.38-.7.01v-.68l-1.61.02.08.4h-1.06l.07-.38-.53.01-.43-.33-.27.34-.96.01.1-.6.4-.39.73-.36h.94v-.64l-.12-.75.26-.16.2-.64-.23-.63.04-.15z" data-originalStrokeWidth="0.25" style="shape-rendering: auto; stroke: rgb(0, 0, 0);"></path>


<path id="São_Pedro_da_Água_Branca" fill="#ccccb8" stroke="#000" stroke-width=".25" d="m485.6 215.88-1.2-.56-.63-.13-.62-.5-1.92.33-.26.12-.57-.03-.74.67-.13.93-.66.95-.43-.06-.5-.44-.37-.04-.35.25-.24.58-.76-.06 5.36-4.2 1.4-1.05 2.84-2.25.44 1-.1.7-.36.45-.16.48.21.4.2.97-.39.77z" data-originalStrokeWidth="0.25" style="shape-rendering: auto; stroke: rgb(0, 0, 0);"></path>


<path id="São_Pedro_dos_Crentes" fill="#ccccb8" stroke="#000" stroke-width=".25" d="m511.96 241.47.32.27.47.02.74.5.53-.41.4.17.36-.13.34.55.55.1.12.43.29.18.08.5.53.09.26-.28.61.36.18.28.65.2-.02.62.45.6.7-.1-.6.58-.6-.34-.74.2-.16-.4.15-.3-.17-.5-.79.07-.52-.1-.49-.5-.9-.35-.75.1-.7.49-.37-.15-1.25.88-.13.3-1.4.43-.46.53-.02.37-.33.16-.03.49-.6.22-.37-.2.3-.31.26-.64-.33-.48-.02-1.15.16-.85.5-.31.18-.55.49-.54.74-.05-.11-.38-.38.02-.64-.8.52-.11.99.35z" data-originalStrokeWidth="0.25" style="shape-rendering: auto; stroke: rgb(0, 0, 0);"></path>


<path id="São_Raimundo_das_Mangabeiras" fill="#ccccb8" stroke="#000" stroke-width=".25" d="m536.35 243.19-.25.63-.22.08.2 1.4-2.74 6.57-.15.4-.43.4-.68.04-.07.45-.36.1-.63.89-.31.1-.45-.26-.35-.42-.86-.53-.67-.17-.61-.45-.54-.25-1.57-4.2.43-.08.48.18.91-.72.37-.44.2-.5-.98-.37-.47.26-.47.06-1.04-.67-.03-.75-.19-.6-.22-.14-.1-.5.4-.28.33-.6.81-.73.4.14 1.07-.1.9-.03.95-.33.2.22 1.01.27.63.5.36.74.32.29.55.09.3-.23.96-.06 1.34-.52.45-.3.56.04z" data-originalStrokeWidth="0.25" style="shape-rendering: auto; stroke: rgb(0, 0, 0);"></path>


<path id="São_Raimundo_do_Doca_Bezerra" fill="#ccccb8" stroke="#000" stroke-width=".25" d="m543.14 213.75-.52.63-.09.48-.3.54-1.83-1.52-3.64-.02.03-.47.87-.7.34-.49.38-.23.82-.29.08.28.45.21.24-.35 2.05.94.08.46z" data-originalStrokeWidth="0.25" style="shape-rendering: auto; stroke: rgb(0, 0, 0);"></path>


<path id="São_Roberto" fill="#ccccb8" stroke="#000" stroke-width=".25" d="m543.8 211.96-.04.14-.38.49-.23.59v.57l-1.05-.53-.08-.46-2.05-.94-.24.36-.44-.21-.08-.28 1.05-.03.5-.5.83-.38.3-.31.21.55.41.1z" data-originalStrokeWidth="0.25" style="shape-rendering: auto; stroke: rgb(0, 0, 0);"></path>


<path id="São_Vicente_Ferrer" fill="#ccccb8" stroke="#000" stroke-width=".25" d="m545.8 172.8.58.37.11.47-.2.74-1.25 1.02-.7-.16-.53-.32-.75.36-.38-.23-.38.18-.02-.67-.17-.2-1.73.59-1.62.58.03-.8.35.05 3.14-.98 1.01-.26.46-.6.55-.23 1.06.27z" data-originalStrokeWidth="0.25" style="shape-rendering: auto; stroke: rgb(0, 0, 0);"></path>


<path id="Satubinha" fill="#ccccb8" stroke="#000" stroke-width=".25" d="m540.02 189.28-.53 1-.39.37-.38 3.93.2.03-.01.58-.76 1.47-.31-.5-.77-.46-.1-.46.45-.78-.27-.3.02-.46-.26-.27.2-.95-.41-.14-.1-.6.26-.45.47-.8.76-.02.64-.47.28.22z" data-originalStrokeWidth="0.25" style="shape-rendering: auto; stroke: rgb(0, 0, 0);"></path>


<path id="Senador_Alexandre_Costa" fill="#ccccb8" stroke="#000" stroke-width=".25" d="m563.55 216.74-.73.3-.26.35-.67-.04-.79.22-.99-.34-.54.07-.19.25-.78.34-.63-2.12 2.02-1.11 4.11 1.89z" data-originalStrokeWidth="0.25" style="shape-rendering: auto; stroke: rgb(0, 0, 0);"></path>


<path id="Senador_La_Rocque" fill="#ccccb8" stroke="#000" stroke-width=".25" d="m508.92 217.99-1.3.24-1.16.6-2.28.86-.5.44-.94.63-.44.5h-.54l-.14.29-.55-.3-.41-.04-.59-.5.14-.46.5-.45.6-.3.46-.95.7-.11-.05-.28.83-.4.43.23.47-.08.38-.35.75-.3h.84l.57-.56.57-.31.94-.91.86.02.18-.16-.02.32-.42 1.07.22 1z" data-originalStrokeWidth="0.25" style="shape-rendering: auto; stroke: rgb(0, 0, 0);"></path>


<path id="Serrano_do_Maranhão" fill="#ccccb8" stroke="#000" stroke-width=".25" d="m545.2 151.91.1.22.6.34.12.35-.27.42-.36-.23-.67.51-.76.16.62.86-.27.9-.34-.02-.84.2v.3l.75.6.24.03.02.7-.2.45v1.23h-.8l.06 2.76v0l-2.26-2.13-1.68-.18.16-.17.12-1.3.3-.03v-.46l.23-.45-.57-.36-.03-.48 1.07-.35.6-.4.04-.26-.83-.37.7-.88.07-.6 1.32-.22.6-.37 1.28-.08-.3-.72.54-.22.32-.04z" data-originalStrokeWidth="0.25" style="shape-rendering: auto; stroke: rgb(0, 0, 0);"></path>


<path id="Sítio_Novo" fill="#ccccb8" stroke="#000" stroke-width=".25" d="m516.63 224.99.1 4.4-.01 4.98-.01 6-.01 3.36-.53-.07-.1-.51-.29-.18-.11-.43-.55-.1-.34-.55-.36.13-.4-.18-.52.42-.74-.5-.47-.02-.32-.28-.1-.58-.32-.46-.1-.48.18-.55.6-1.08-.15-.9.34-.35-.16-.32.39-.3.29-.46-.26-.54.1-.84.76-.32.43-.53.13-.65-1.23-.14-.34-.22.13-.46.39-.53-.35-.4-.61-.45.24-.29-.51-.62.13-.37-.51-.63-.35-.19-.13-.75.15-.46-.22-.48.22-.74.34-.2.57-1.25.65-.06.25.36 1.23-.25.13-.18.94-.1z" data-originalStrokeWidth="0.25" style="shape-rendering: auto; stroke: rgb(0, 0, 0);"></path>


<path id="Sucupira_do_Norte" fill="#ccccb8" stroke="#000" stroke-width=".25" d="m551.32 242.63-2.17-1.23 2.96-2.73 5.15-4.75 1.27 1.68.74.32-4.38 3.7z" data-originalStrokeWidth="0.25" style="shape-rendering: auto; stroke: rgb(0, 0, 0);"></path>


<path id="Sucupira_do_Riachão" fill="#ccccb8" stroke="#000" stroke-width=".25" d="m570.93 234.25.52.35.53-.22.35.8-.66.38.22.74-.57-.02-.8.2.24.24.02.63.66 1.38-.18.12-.05.99-.35.33-.7-.44-.36.16-.17-.38-.4.1-.96-1.08-.3-.11-.36-.57-.35.16-.24-.97-.12-.96-.41-.66-.01-.43.66.1.08-.4.54-.67.43.16.56-.2.54.15.72-.15.55.05z" data-originalStrokeWidth="0.25" style="shape-rendering: auto; stroke: rgb(0, 0, 0);"></path>


<path id="Tasso_Fragoso" fill="#ccccb8" stroke="#000" stroke-width=".25" d="m533.1 262.3.32.4-.38.25.04.35-.28.94-.23.42.27.2-.43.4.25.27-.1.45-.3.45.16.33-.2.27.07.49-.55.6.1.24-.95.81-.07.67-.4.84-.3.92-.31.13-.11.59-.26.43.12.85-.33.46.06.27-.33.58-.4.3.32.45-.5.1-.3.44.04.28-.37.91-.87.44-.85.82-.27-.08-.74.31-1.32.18-.49.36-.64.11-1.19-.53-.76.04-.3-.13-.46-.76.23-.56.43-.22.2-.63.6-.44 1.07-.5.2-.49.37-.48-.07-.82.35-.83-.01-2.09.24-.33-.12-.44-.3-.34.07-1.07-.31-.15-.26-1.54-.24-.45.07-.66.77-.36.17-.57.53.36.08.36.59.49.37 1.23 1.35.62.23-.21-.04-.8 1.3-.6 1.12-.07.3-.57-.07-.41-.5-.46.39-.51-.24-.87-.74-.35-.14-1.36.24-.58.87-.42.6-.18.38.16.85.02.87.3z" data-originalStrokeWidth="0.25" style="shape-rendering: auto; stroke: rgb(0, 0, 0);"></path>


<path id="Timbiras" fill="#ccccb8" stroke="#000" stroke-width=".25" d="m567.46 198.06-2.8.24-.97 1.47-.48.37-.67.2-.44-.54-.41-.3-.28.46-2.03.92-.23-.54.08-.47-.08-.65.4-.35.5-.11.27-.26 1.82-5.02 2.94-.6.1.2 1.37 1.06.82.81-.1 1.3.3.37-.17.67z" data-originalStrokeWidth="0.25" style="shape-rendering: auto; stroke: rgb(0, 0, 0);"></path>


<path id="Timon" fill="#ccccb8" stroke="#000" stroke-width=".25" d="m581.23 217.34-.17.5-.7.39-.39.4-.43.07-.34.77-.67.25-1.61-1.22-.68.01-.94-.54-.68-1.19.45-.65.09-.88-.41-.57-.38-.04-.04-.4 1.3-.63v-.36l.46-.3.76.2.36-.1.07-2.63 2.64-.58.63.75-.16.55.33 1 .16.88.32.48.33 1.56-.54.87.3.77z" data-originalStrokeWidth="0.25" style="shape-rendering: auto; stroke: rgb(0, 0, 0);"></path>


<path id="Trizidela_do_Vale" fill="#ccccb8" stroke="#000" stroke-width=".25" d="m547.47 205.53-.4-.83v-2.64l2.6-.04.07.58-.13.29-.1 1.26-.86.6-.03.48z" data-originalStrokeWidth="0.25" style="shape-rendering: auto; stroke: rgb(0, 0, 0);"></path>


<path id="Tufilândia" fill="#ccccb8" stroke="#000" stroke-width=".25" d="m531.26 187.41.25.1.1.57.26.31.93-.4.58.04.4.66-.67.05.16 1.64v1.03l-.63.47-.6.65-.46-3.23-.66.23z" data-originalStrokeWidth="0.25" style="shape-rendering: auto; stroke: rgb(0, 0, 0);"></path>


<path id="Tuntum" fill="#ccccb8" stroke="#000" stroke-width=".25" d="m550.66 214.72.1.89-.26.44-.28.1.43 1.61-.33.35.26.61-.69-.34-.83.4-.25-.05-.69.61-1 1.2.02.62-.18.97.58.33-.1.64 1.07.3 1.05-.98.37-.14 1.85-.42.15.03.2.58.25.1-.1 1.39-.2.75-.99.24-.43.6.06.65-.24.13-.84.02.01 3.33-.3.21-.54.08-.34.28-.4.05-.9.67-1.02.5-.83-2.37.21-.68-.3-.83-.3-.2-.5-.8-.23-.16-.26-.77.1-1.54-.09-.5-.78-.85.2-1-.16-1 .38-.56.1-.66.34-.72-.1-.28.54-.57.44-.2.96-1.5.19-.68.53-.3.2-.39.19-.38.54-.18.68-.78.45-.37.48.34.1.4.52.16.65.55z" data-originalStrokeWidth="0.25" style="shape-rendering: auto; stroke: rgb(0, 0, 0);"></path>


<path id="Turiaçu" fill="#ccccb8" stroke="#000" stroke-width=".25" d="m536.88 151.56-.57 2.04.16.35.5.16.53-.26.3.1.64 1.08-.2.48.46.72.06.68-.5.7-.13.4-.59.32-.47.9-.7.08-.92-.24-.3.28-.46-.27-.47-.01-.49.3-.65.17-1.15.99-.49.02-.35-1.85.21-.63.31-.26-1.59-3.2 1.92-3.68.28-.28 1.1-.54.88-.63.31-.17.4-.73.55-.14.58-.42-.06-.55.64-.9.6.38-.06.54.16 1.16-1.49.6 1.2.35.12.18-.23.87-.39.73z" data-originalStrokeWidth="0.25" style="shape-rendering: auto; stroke: rgb(0, 0, 0);"></path>


<path id="Turilândia" fill="#ccccb8" stroke="#000" stroke-width=".25" d="m539.47 156.13.03.48.57.36-.23.45v.46l-.3.03-.12 1.3-.16.17-.43.03-.06.38-.43-.02-.14.3.17.51-.81 1.05.14.24-.17.54-.4.36-.53 1.02-.12.83-.57-.48-.2-.57-.7.5-.71.24-.82.8-.53-.05-.7.4-.48-.33-.45-.08-.8-.55v-1.81l.8-.52.18-.62-.05-1 .49-.03 1.15-.99.65-.17.49-.3.47.01.46.27.3-.28.92.24.7-.08.47-.9.59-.3.12-.4.5-.72-.05-.68z" data-originalStrokeWidth="0.25" style="shape-rendering: auto; stroke: rgb(0, 0, 0);"></path>


<path id="Tutóia" fill="#ccccb8" stroke="#000" stroke-width=".25" d="m591.72 170.91.49.31.74.18.63.47v.18l-.2.78-.8.24-.05.53-2.35 4.39-3.98-.01-2.86 1.48v-2l.17-.05.74-.35.66-.14.63-.55-.36-.62.44-.33-.1-.38h.75l.52-.22.99-1.46-.4-.79.02-.66.53-.03-.1-.42-.8-.36.2-.06.96.25 1 .03.46.6 1.34.16.15-1.46z" data-originalStrokeWidth="0.25" style="shape-rendering: auto; stroke: rgb(0, 0, 0);"></path>


<path id="Urbano_Santos" fill="#ccccb8" stroke="#000" stroke-width=".25" d="m577.2 178.78.22.62-.98.8v.47h-.45l-.25.32-.13.57.13.8-.6.35-.06 1.3.45.58-.38-.35-.4-.05-.6-.86-.34-.17-1.34 2.69-.42.44-.93-.2-.23-.32.16-.27-.27-.37v-.98l-.5-.12-.05-.5.26-.71-.2-.64-.22-.22-.2-.56-2.58-.87 1.52.08.1-.3 1.08-.7.69-.6.55-.3.65-.55 1.16-.37.17-.32-.89-.72.38-.01.97-.52.37.53.73-.48.51.86.2.6-.17.17 1 .39z" data-originalStrokeWidth="0.25" style="shape-rendering: auto; stroke: rgb(0, 0, 0);"></path>


<path id="Vargem_Grande" fill="#ccccb8" stroke="#000" stroke-width=".25" d="m567.24 187.3-2.16 5.58-2.94.6-.75.56-.97-2.8-.98-2.45.28-.28-.08-.7-.26-1.07.01-.46-.28-.04-.38-.4-.1-.25.21-.75.55.03.61.46.56-.11 3.03-.43.45.25.24.63.57.16.75.77.7.17z" data-originalStrokeWidth="0.25" style="shape-rendering: auto; stroke: rgb(0, 0, 0);"></path>


<path id="Viana" fill="#ccccb8" stroke="#000" stroke-width=".25" d="m540.92 175.15-.89 1.46.1.94.36-.06.29.34.39.12.16.6.3.3 1.12.2.42.6.33-.37.44-.1 1.05-1.22 1.07.57-.62-.84.52-.16.01.16 1.16.78.92.22.31.36-.26.42-.38.23-.98.3-.24.33.56 1.29-.35.13-.4-.17-.39-.45-.26.32-.46-.2-.34.12-.44.32-.8.07.12.4-.3.22-.34-.18-.38.08-.46-.36v-.63l-.24-.7-.7.44-1.12-1.13-.16-.35-.88-.21-1.15-.48-1.05-.28.72-.82.04-.37.81-.81.07-.78.16-.27 1.62-.58.11.28z" data-originalStrokeWidth="0.25" style="shape-rendering: auto; stroke: rgb(0, 0, 0);"></path>


<path id="Vila_Nova_dos_Martírios" fill="#ccccb8" stroke="#000" stroke-width=".25" d="m488.55 208.25.46.49.3.56-.04 1.5.45.6.21.48-.08.66.7.78.08.23.9 1.2-.48.87-.37.32-1.13-.1-.24.07-.66.52-.3.07-1.46-.13-.58-.12-.7-.38.05-.7.38-.77-.19-.98-.2-.4.15-.49.35-.45.11-.7-.44-1 .31-.24z" data-originalStrokeWidth="0.25" style="shape-rendering: auto; stroke: rgb(0, 0, 0);"></path>


<path id="Vitória_do_Mearim" fill="#ccccb8" stroke="#000" stroke-width=".25" d="m545.02 182.47.78 2.25-.6.44.1.46.3.4-.16.47.56.37.1.28-.2.52.36.33-.43.36-.49-.17-.33.53-.26.83-.3-.1-.4.23-.1-.74-.37-.26-1.53.36-.2.12-.09-.11.9-2.3-.6-.3.27-.61-.6-.42.66-.95.05-.47.63-.06.46.53.3.08.25-.57.3-.1.1-.94z" data-originalStrokeWidth="0.25" style="shape-rendering: auto; stroke: rgb(0, 0, 0);"></path>


<path id="Vitorino_Freire" fill="#ccccb8" stroke="#000" stroke-width=".25" d="m538.14 196.66.65.28.21.59 1.72 2.32-.36.66v.83l-1.96-.34-1 .54-.71-.01-1.54.3-.02-.42-.82.19-.75-.56.55-.47.2-.4.87-.37-.51-.53.42-.54.11-.2.3-1.18.3-.3.37-.03.14-.66-.36-.26-.46-.03-.5.47-.3-.4.38-.54.07-.37.34-.22.01-.54.28-.5.51-.2-.2-.67-.06-.7.58-.66.1.6.4.15-.2.94.26.27-.02.46.27.3-.45.78.1.46.77.47z" data-originalStrokeWidth="0.25" style="shape-rendering: auto; stroke: rgb(0, 0, 0);"></path>


<path id="Zé_Doca" fill="#ccccb8" stroke="#000" stroke-width=".25" d="m526.65 176.84-.14.18-.36 1.07.21.47-.56 1.1.44.88 2.1-.12.44.15.04-.38.7-1.1.52-.94 1.23.32.05-.64.27-.53.42 2.37.35.9v.05l.5.68 1.09.48.82 1.64-1.74 1.5-.05-.26-.85-.78-.7-1-.48-.54-2.45-.05-1.41-.35-.55 1.1-.53-.21-.65.13-.34-.1-.43.18-.72-.26-2.41-.01-1.2-.77-.24.48-2.08-.97.08-.31.74-1.06.68-.41.53.04.28-.6.4.12 1.6-.08.2-.14.74-.1.1-.43.56-.23.15-.34.54-.17.3-.25 1.04-.01.38-.6z" data-originalStrokeWidth="0.25" style="shape-rendering: auto; stroke: rgb(0, 0, 0);"></path>

</svg>