<?xml version="1.0" standalone="no"?>
<svg xmlns="http://www.w3.org/2000/svg" id="map" version="1.2" width="800" height="800" viewBox="500 150 180 180"> 

<path id="Acauã" fill="#ccccb8" stroke="#000" stroke-width=".25" d="m614.34 266.9.83.56.7-.12.17.5.5-.04.3.22.3.86.35.17-.34.32.07.6-.23.42-.44.02-.03.72-.32.35-.44-.18-.19-.24-.44.17.13.35-.3.26.08.39-.43.4-.9-.84-.38.03-.13.37-.56.19-.33.8-.34-.08-.24.7-.64.53-.41-.14.1-.22-.34-.88-.78-.21-.2-.34.24-.4-.02-.5.16-.6.65-.61-.04-.42-.32-.52.34-.32 1.2-.88.36-.62.46-.52h.35l.24-.3.5-.01.09.32z" data-originalStrokeWidth="0.25" style="shape-rendering: auto; stroke: rgb(0, 0, 0);"></path>


<path id="Agricolândia" fill="#ccccb8" stroke="#000" stroke-width=".25" d="m584.75 225.12-.48.5-.22.8-1.13-.26-.08-1.25-.37-.51.37-.2.41.15.37.47.38-.2.45.08z" data-originalStrokeWidth="0.25" style="shape-rendering: auto; stroke: rgb(0, 0, 0);"></path>


<path id="Água_Branca" fill="#ccccb8" stroke="#000" stroke-width=".25" d="m585.97 228.4-.57.07-1.46.08-.43.1.17-1.1.26-.02.04-.54 1.02-.2-.2.62.48.27.02.3.65.23z" data-originalStrokeWidth="0.25" style="shape-rendering: auto; stroke: rgb(0, 0, 0);"></path>


<path id="Alagoinha_do_Piauí" fill="#ccccb8" stroke="#000" stroke-width=".25" d="m615.97 246.8-.07.62-1.04 1-.82.55-.67.53-.06-.86.27-1.75.07-1.31-.04-1.41.04-1.13 1.49-.04.26.4.62-.14.15.2.19 2.34z" data-originalStrokeWidth="0.25" style="shape-rendering: auto; stroke: rgb(0, 0, 0);"></path>


<path id="Alegrete_do_Piauí" fill="#ccccb8" stroke="#000" stroke-width=".25" d="m618.77 249.88-.45.86.3.32-.53.32-.4.18-.82.11-.87.44-.43-.41-.19-.37.35-1.16-.32-.32.45-.17.21-.38 1.21.15.83.45z" data-originalStrokeWidth="0.25" style="shape-rendering: auto; stroke: rgb(0, 0, 0);"></path>


<path id="Alto_Longá" fill="#ccccb8" stroke="#000" stroke-width=".25" d="m595.74 214.68-.34 1.68.37.43-.66.36-.04.58.49.14.26.7.82.33-.24.65-.73 1.17v.2l-.52.6-.43.1-1.14.7-.4.3-.03.47-.27.14-.8.05-.46.3h-.01l-.13-.54-.36-.35-.3-1.36-.42-1.02-.08-.5-.28-.3-.3-.81-.38-.26.12-.31-.34-.76.74-.4.25-1.1h.56l.47-.78.46-.47.52-.32.12-.47.57.16.34-.07.36.23.72-.26.72.63z" data-originalStrokeWidth="0.25" style="shape-rendering: auto; stroke: rgb(0, 0, 0);"></path>


<path id="Altos" fill="#ccccb8" stroke="#000" stroke-width=".25" d="m585.05 215.15-.04-1.68v-3.45l4.09-1.28 1.02 1.89-1.37 3.54.2.24-.31.37-.58.27-.27.43-.35-.18-.31-.61h-1.72z" data-originalStrokeWidth="0.25" style="shape-rendering: auto; stroke: rgb(0, 0, 0);"></path>


<path id="Alvorada_do_Gurguéia" fill="#ccccb8" stroke="#000" stroke-width=".25" d="m566.82 269.4-.93 5.93-.76-.02-.74-.25-4.53.35-.06.12-3.2.3.06-1.3-3.6-1.62.45-1.7 4.9.07.83.2.82.38 1.66-.28.7-1.3.96.04.05-1.1 3.09-.03z" data-originalStrokeWidth="0.25" style="shape-rendering: auto; stroke: rgb(0, 0, 0);"></path>


<path id="Amarante" fill="#ccccb8" stroke="#000" stroke-width=".25" d="m582.92 233.19.1.85.79.48 1.35 3.53-1.06.26-2.44.3-.9 3.25-.27-.77-1.03-.25.13-.75.37-.5.01-1.29.37-.4-.2-1.15.4-.6.06-.43.38-.32-.36-.57.04-.53-.13-.5-.37-.43-.42-.05-.6-.53-.65-.27-.15-.69 3.27-.68-.13.83.22.98.33-.28.77-.2z" data-originalStrokeWidth="0.25" style="shape-rendering: auto; stroke: rgb(0, 0, 0);"></path>


<path id="Angical_do_Piauí" fill="#ccccb8" stroke="#000" stroke-width=".25" d="m582.63 229.6-.01.42.05.21.52.57.38 1.03-.04.7.02.64-.63.01-.12-.7-.77.2-.33.28-.22-.98.13-.83.03-.56-.34-1.3.55-.55-.09.92z" data-originalStrokeWidth="0.25" style="shape-rendering: auto; stroke: rgb(0, 0, 0);"></path>


<path id="Anísio_de_Abreu" fill="#ccccb8" stroke="#000" stroke-width=".25" d="m578.28 284.71.11.48.16.45-.35.4.01 1.07.36.75-1 .2-.54.26-.12 1.11-.27.06-.23-1.98-.34-.8.42-.79-.05-.55-.38-.36-.06-.8.14-.09.2-.13 1.32-.02z" data-originalStrokeWidth="0.25" style="shape-rendering: auto; stroke: rgb(0, 0, 0);"></path>


<path id="Antônio_Almeida" fill="#ccccb8" stroke="#000" stroke-width=".25" d="m559.07 250.59-.38.35.34.88-2 2.64-1.28-2.56-.16-.54-.56.36-.95-.63.33-.35.07-.83.28-.75.66-.78v-.29h.48l.28.44.57.1.58.56.3-.05z" data-originalStrokeWidth="0.25" style="shape-rendering: auto; stroke: rgb(0, 0, 0);"></path>


<path id="Aroazes" fill="#ccccb8" stroke="#000" stroke-width=".25" d="m601.52 228.9-.19 1.07.67.7-1.35 1.55-.32.88 1.78 1.09-.68.07-.18-.17-.66.04-.5-.27-.88.07-.5-.43-.58-.2-.25-.34-.7-.08-.7-.3-.99.24-.24.23-.4-.39v-.77l.14-.52-.42-1.07 1.57.63 1.21-.45.36-.04.73-.77.3-.45.45-.29.63.97z" data-originalStrokeWidth="0.25" style="shape-rendering: auto; stroke: rgb(0, 0, 0);"></path>


<path id="Aroeiras_do_Itaim" fill="#ccccb8" stroke="#000" stroke-width=".25" d="m605.14 250.38 1.16 1.34-.55.2-.73.68-1.5-.13-.17-.2-.72-.06-.15.65-1-.13-.15-.3.54-.18-.16-.28.16-.7.68-.24.33.07.25-.6.45-.5.53-.13.4.05.12.27z" data-originalStrokeWidth="0.25" style="shape-rendering: auto; stroke: rgb(0, 0, 0);"></path>


<path id="Arraial" fill="#ccccb8" stroke="#000" stroke-width=".25" d="m585.15 238.06.2.5 4.02-.02.1-.2.7.01v.12l-.82.25-.34 2.62-.58-.25-.17.16-1.05-.07.09.24-.3.49-.41.2-.31-.25-.41.32-.3 1.13-.64.36-.3-.18-.43-.65.62-1.72-.57-.97-.15-1.84z" data-originalStrokeWidth="0.25" style="shape-rendering: auto; stroke: rgb(0, 0, 0);"></path>


<path id="Assunção_do_Piauí" fill="#ccccb8" stroke="#000" stroke-width=".25" d="M608.75 231.34v-4.15l1.6-1.58v-2.57l4.6.02-.13.31-.42.24.45.91.07.72.08 1.48.2.64-.06.28.3.3.12.96-.53.85-.05.45z" data-originalStrokeWidth="0.25" style="shape-rendering: auto; stroke: rgb(0, 0, 0);"></path>


<path id="Avelino_Lopes" fill="#ccccb8" stroke="#000" stroke-width=".25" d="m565.73 301.14-.12.33-1.06-.06-.25.43.13.4-.07.53-.26.71-.93 1.03v.92l-1.02.93-.37.68.03.45-.4.31-.71-.08-.23-.24-1.35-3.54-.48-.45-1.12-1.08 1.22-1.43.48-.6.79-.35h.43l.4-.29.2.86.69.65.65-.14.88-.46.39.05.73-.18.3.06.47.41z" data-originalStrokeWidth="0.25" style="shape-rendering: auto; stroke: rgb(0, 0, 0);"></path>


<path id="Baixa_Grande_do_Ribeiro" fill="#ccccb8" stroke="#000" stroke-width=".25" d="m544.05 262.44 1.26 6.94.07.03v.85l.38.36.15.83-.25.83-.37 1.28-.5.6.05.53-.19.77-.04 2.42-.3.76-.02.34-.3.6-.58.51-.4.83-.66.65-.8.36-.43.41-.8.66-.91.92-.5.93-.55.44-.32.62-.94.8-3.53-1.26-.4-.55.1-.63-.44-.49-.16-.46.36-.22.64-.74.04-.37.35-.2.18-.46.88-.99.39-.22.19-.82-.13-.48.12-.8-.05-.65.23-.56-.06-.48-.37-.4 1.35-5.12-1.71.12-.38-1.26 1.12-3.87.53.28.69-.32 1.44-1.3.05-.53-1.31-.77 1.04-1.93.8-.24.67.81.72-.05z" data-originalStrokeWidth="0.25" style="shape-rendering: auto; stroke: rgb(0, 0, 0);"></path>


<path id="Barra_D_Alcântara" fill="#ccccb8" stroke="#000" stroke-width=".25" d="m594 237.47.46-.21.95-.02v.53l-.65.34-.2.6.08 1.32-.44.18-.1.42-.63.14-.4-.03-.34-1.53.32-.16-.7-1.04-.06-.48.28-.2.65.41.18-.74.46.06z" data-originalStrokeWidth="0.25" style="shape-rendering: auto; stroke: rgb(0, 0, 0);"></path>


<path id="Barras" fill="#ccccb8" stroke="#000" stroke-width=".25" d="m595.7 198.37-.07.48-.53-.1-.58.13-.85-.14-.77.14-.42-.08-.26.48.27.51-.07.41.14.41-.38.15-4.46-.82-.6.17-1.17.02-1.2-1.9-.54-1.89 1 .04.6-.5.38-.08.4-1.03.98-.8.3-.5.9.31.52-.2.9.42.36-.4.37-.65.41-.22.25.83-.14.42-.48.24.18 1.18-.16.21.22.66-.27.6.43.11.14.5-.06.52.53.02.26-.15.65.06.7-.24.7-.03.46-.42.95.47z" data-originalStrokeWidth="0.25" style="shape-rendering: auto; stroke: rgb(0, 0, 0);"></path>


<path id="Barreiras_do_Piauí" fill="#ccccb8" stroke="#000" stroke-width=".25" d="m535.91 299.75-3.02-.1-.14.7.35.51.4.88.07 1.21-.59.23-.2.75-.27-.64.08-.73-.64-.56-.78.33-.75.51h-.6l-.2.44.14.41-.3.64-.88.5-1.3-.25-.52.18-.33.86.5.5-.42.53-1.06-.2-.51-1.1-.5-.36.28-.47.68-.04.49.18-.17-.66.18-.44.8-.77.38-.75.15-.72-.18-.15.3-.99.16-.15.2-1-.27-.57-.1-.82.45-1.14.3-.42v-.6l-.3-.76.16-.29.4.15.88.68.4.45 1.23.9 1.9-1.13.28.18-.05.6.52.5 1 .71.8 1.03.32.13.04.6z" data-originalStrokeWidth="0.25" style="shape-rendering: auto; stroke: rgb(0, 0, 0);"></path>


<path id="Barro_Duro" fill="#ccccb8" stroke="#000" stroke-width=".25" d="m587.4 227.53-.34-.41-.47-.14-.59-.38.11-.76-.65-.57.07-.54.5-.21.4.03.29.45.98.15.12.7-.26.53.1.74z" data-originalStrokeWidth="0.25" style="shape-rendering: auto; stroke: rgb(0, 0, 0);"></path>


<path id="Batalha" fill="#ccccb8" stroke="#000" stroke-width=".25" d="m597.36 192.03-.13.95 1.1.58-.14 1.18-.89.03-.24.35.4.42-.43 1.74.05.7-.62-.05-.44.45-.31-.02-.01-.66-.95-.47-.46.42-.7.03-.7.24-.66-.06-.26.15-.53-.02.06-.52-.14-.49-.43-.1.27-.6-.22-.67.16-.2-.18-1.19.48-.24.14-.42-.25-.83.44-.5.26.36.62-.5.36.24.52-.1.25.32.58.03.5-.73.94-.1.25-.49-.21-.22.27-.38-.37-.18-.45.18-.53-.32v-1.97h1.56l-.2.17-.15 1.67 1.47.22z" data-originalStrokeWidth="0.25" style="shape-rendering: auto; stroke: rgb(0, 0, 0);"></path>


<path id="Bela_Vista_do_Piauí" fill="#ccccb8" stroke="#000" stroke-width=".25" d="m600.41 264.05-.15.47.41 1.2.4.24-.83.35-.66.5-1.1.04-.36-.1.06-.85-.82-.91-.8-.01-.82-.47-.66-.2.17-.7-.04-.49 1.55-.07.4-.5.6.37.42.76.64-.15.8.04z" data-originalStrokeWidth="0.25" style="shape-rendering: auto; stroke: rgb(0, 0, 0);"></path>


<path id="Belém_do_Piauí" fill="#ccccb8" stroke="#000" stroke-width=".25" d="m613.47 251.53.35.94.02.26.6.4-.08.29.18.65v.79l.15.42-.23.56-.1.17-.82.45-.37-.83-.16-.85.2-.2-.23-.94-.4-1.25-.03-.44.04-.37z" data-originalStrokeWidth="0.25" style="shape-rendering: auto; stroke: rgb(0, 0, 0);"></path>


<path id="Beneditinos" fill="#ccccb8" stroke="#000" stroke-width=".25" d="m589.13 217.37.34.76-.12.3.38.26.3.81.28.3.08.5.43 1.02.3 1.37.35.35.13.54-.77-.46-.64.34-.38.78.1.4-.97-.15-.45-.36-.06-.43-.48-.08-.18-.62-.13-.36-.54-.2.1-.46-.47-.47.73-.34.12-.77-.32-.6h-.4l-.4-.62-.16-.52-.46-.15-.21-.33-.57-.28v-.02l.23-.56.65-.07.11-.2 1.01.16.4-.19.5.17.42-.13z" data-originalStrokeWidth="0.25" style="shape-rendering: auto; stroke: rgb(0, 0, 0);"></path>


<path id="Bertolínia" fill="#ccccb8" stroke="#000" stroke-width=".25" d="m564.64 257.21.91 1.23-.43.44-.52.88-.18.1-.52.62-.11.34.34.93-.26 1.51.2.32-.11.84-1.3-.1-1.92.47-.6-7.23.77.14.23-.56.3-.24.52-.78.34-.27.5.31.46-.36.22.12v.65z" data-originalStrokeWidth="0.25" style="shape-rendering: auto; stroke: rgb(0, 0, 0);"></path>


<path id="Betânia_do_Piauí" fill="#ccccb8" stroke="#000" stroke-width=".25" d="m618.52 265.2 1.44.18.86-.1v0l-.4.9-.1.4.25.6-.26.2-.5-.18-.21.33-.98.8-.18.4-.46.04-.5.28-.35-.17-.29-.86-.3-.23-.5.04-.17-.5-.7.12-.83-.56-.3-.19.02-.4.52.16.45-.37.53.3.28-.37-.04-.4 1.19-.47.27.06z" data-originalStrokeWidth="0.25" style="shape-rendering: auto; stroke: rgb(0, 0, 0);"></path>


<path id="Boa_Hora" fill="#ccccb8" stroke="#000" stroke-width=".25" d="M595.63 198.84v1.27l-.47.18-.92.36.37.52-.05.54-1.57.85-.5-.35.2-.2v-.5l-.5-.74.38-.15-.14-.41.07-.41-.27-.51.26-.5.42.09.77-.14.85.14.58-.13z" data-originalStrokeWidth="0.25" style="shape-rendering: auto; stroke: rgb(0, 0, 0);"></path>


<path id="Bocaina" fill="#ccccb8" stroke="#000" stroke-width=".25" d="m607.83 246.88-.64-.07-.82-.64-.1-.77-.22-.06v-.41l.26-.31.7.2.26-.15.43-.21h.86l.21-.4.65-.17.26.43.1.8-.7.7-.07.36-.72.18-.08.3z" data-originalStrokeWidth="0.25" style="shape-rendering: auto; stroke: rgb(0, 0, 0);"></path>


<path id="Bom_Jesus" fill="#ccccb8" stroke="#000" stroke-width=".25" d="m554.91 281.43.23.44-.37.46v.6l1.31 1.14 6.51 3.9 1.54 2.45-.07.08-4.54 2.28-3.09-2.78-3.09-1.17-.63-.32-1.4-.5-.27 1.1-3.59-1.94-1.62 3.42-5.25-2.33-3.49-1.55.94-.8.32-.62.56-.44.5-.93.9-.92.8-.66.4.58 4.67.04 6.5.05 1.01-.04.32.16.38-1.04z" data-originalStrokeWidth="0.25" style="shape-rendering: auto; stroke: rgb(0, 0, 0);"></path>


<path id="Bom_Princípio_do_Piauí" fill="#ccccb8" stroke="#000" stroke-width=".25" d="m601.07 181.78.47-1.04-1.85-2.26 1.3-1.44.44-.48.26.08.97.83.1 1.04 2.35.06.03.63-.85.44-.1.47-.68.34-1.07.83v.27z" data-originalStrokeWidth="0.25" style="shape-rendering: auto; stroke: rgb(0, 0, 0);"></path>


<path id="Bonfim_do_Piauí" fill="#ccccb8" stroke="#000" stroke-width=".25" d="m580.9 286.86-.38.35-.2.5-.57-.43-.3-.46.18-.6-.6-.42-.64-.6-.1-.48 1.05-.41 1.35-.65.48.37.41.82-.28.54.22.47z" data-originalStrokeWidth="0.25" style="shape-rendering: auto; stroke: rgb(0, 0, 0);"></path>


<path id="Boqueirão_do_Piauí" fill="#ccccb8" stroke="#000" stroke-width=".25" d="m595.03 203.38-.17.51.51.2-.36.6.1.35-.5.34-.47-.64-.83-.08-.74.03v-.65l.5.1-.06-.51-.7.3-.5-.29-.52.14-.08-.28 1.77-.94 1.58-.85.1 1.66z" data-originalStrokeWidth="0.25" style="shape-rendering: auto; stroke: rgb(0, 0, 0);"></path>


<path id="Brasileira" fill="#ccccb8" stroke="#000" stroke-width=".25" d="m604.75 194.76 2.63.18.4 1.7-.52-.13-.9.37-.28-.22-.4.58-.72.1-.42-.11-.5-.3-.87-.09-.05-.24-1.4 1.31-1.85-.19-.68-.63-.08.51-2.07-.32.43-1.74-.41-.42.25-.35.89-.03 1.48-.1.6.2v.46l-.4.45 2.28.67.17-1.33 1.18-.05z" data-originalStrokeWidth="0.25" style="shape-rendering: auto; stroke: rgb(0, 0, 0);"></path>


<path id="Brejo_do_Piauí" fill="#ccccb8" stroke="#000" stroke-width=".25" d="m584.9 270.08-.23.3-.04.54-.36 1.19.1 1.36-1 1-.21.48-.34 1.9-.83.1-1.17.04-.98.1-1.1.27-.48-.06-.65-.16-.7-.06-.04-1.4.31-.72.7-1.05.4-.19.47.18.88-.19.92.05.22-.4.04-.66-.55-.55-.42-1.1.06-.84.17-.6-.54-.47v-.42l.45-.95.08-.9.21-.6.22-.16.54-.12.71-.45.53-.08.41-.43.37.06.94.2.35.71.55.74.44.2-.13.77.1 1.16z" data-originalStrokeWidth="0.25" style="shape-rendering: auto; stroke: rgb(0, 0, 0);"></path>


<path id="Buriti_dos_Lopes" fill="#ccccb8" stroke="#000" stroke-width=".25" d="m599.68 178.49 1.85 2.26-.47 1.04.28.18.27 1.09-.19 1.04-.02.78-.28-.52-.38.25-.6-.07.12-.52.04-1.52.1-.24-.37-.39-.79-1.05-.79.23-.24.5-.5.22v.48l-.79-.13-.08-.48.38-.33-.27-.35-.06-.45-.52-.06-.37-.28.13-.4.45-.35.4-.63v-.44l.5-.34.47-.6z" data-originalStrokeWidth="0.25" style="shape-rendering: auto; stroke: rgb(0, 0, 0);"></path>


<path id="Buriti_dos_Montes" fill="#ccccb8" stroke="#000" stroke-width=".25" d="m609.2 208.35-.17.32.06.46-.17.27.38.38-.11.3.24.54.56.03.67.91.47.25.05.32-.2.43.63.1.26.6.98.39.67.51 1.05.58-.05.52.18.46-.25.29.43.42-.27.52.24.2-.09.53-.3.5.42.72-.47.16.02.4h-.38l-.34-.52-.56.14-.47-.19-.8.03-1.07.27-.82-.5-1 .21-.13-.33-.62-.54-.23-.58-.38-.12-.48-.7-.72-.16-.34-.4.3-.66.67-.52-.39-.53-.33.08-.88-.37.05-.64-.43-.47-.18-.4.08-.44-.47-.17 1.02-.6.21-.97.8-.73.63-.33.6.05.2-.33.43.07.18-.74.21-.19z" data-originalStrokeWidth="0.25" style="shape-rendering: auto; stroke: rgb(0, 0, 0);"></path>


<path id="Cabeceiras_do_Piauí" fill="#ccccb8" stroke="#000" stroke-width=".25" d="m592.18 200.76.5.75.01.5-.2.2.5.34-1.78.94-.48.24-.32.04-2.47-1.3.27-.17-.43-.49-.5-.1-1.29-1.27-.2.06.16-.37 1.16-.02.61-.17z" data-originalStrokeWidth="0.25" style="shape-rendering: auto; stroke: rgb(0, 0, 0);"></path>


<path id="Cajazeiras_do_Piauí" fill="#ccccb8" stroke="#000" stroke-width=".25" d="m589 241.34.23.05-.04.62.53.28.27.74-.26.49-.45.1-.17.3-.42.17-.7 1.24-.5.15-.5-.56-.21.04-.7-.32-.46.12-.7-.8v-.28l.64-.36.3-1.13.41-.32.31.24.41-.2.3-.48-.09-.24 1.05.07.17-.16z" data-originalStrokeWidth="0.25" style="shape-rendering: auto; stroke: rgb(0, 0, 0);"></path>


<path id="Cajueiro_da_Praia" fill="#ccccb8" stroke="#000" stroke-width=".25" d="m607.62 174.97.02.53.34.28.55.06.24.57.09.57-.14.33-1.07-.08-1.02.14-1.1.37.2-.7-.07-.62-.2-.7.25-.34-.26-.28.16-.4.67-.04 1.02.42z" data-originalStrokeWidth="0.25" style="shape-rendering: auto; stroke: rgb(0, 0, 0);"></path>


<path id="Caldeirão_Grande_do_Piauí" fill="#ccccb8" stroke="#000" stroke-width=".25" d="m622.05 250.8-.17.93.07.62-.2.34-.32.24-.12 1.07-1.84.72-.75-.72-.26-.09-.33-.67-.04-1.05.27-.78-.27-.03.52-.32.52-.29 1.2.08z" data-originalStrokeWidth="0.25" style="shape-rendering: auto; stroke: rgb(0, 0, 0);"></path>


<path id="Campinas_do_Piauí" fill="#ccccb8" stroke="#000" stroke-width=".25" d="m598.12 256.54.55.29h.94l.4.12.4.6.07 1.77-.56.62.04 1.56h-.31l-.56.19-.61-.25-.53-.7-1.11-.3-.32-.24-.32-.66-.87-.97-.33-.54-.51-.5.09-.17.25-.49.7-.28.78-.12.32.37.62-.05.35-.35z" data-originalStrokeWidth="0.25" style="shape-rendering: auto; stroke: rgb(0, 0, 0);"></path>


<path id="Campo_Alegre_do_Fidalgo" fill="#ccccb8" stroke="#000" stroke-width=".25" d="m600.25 266.3-.65.57.59 1.08-.71.71v.52l.2.68.4.4.94-.5.1-.18.59.44-.35.52.13.4-.07.73-.94.14h-3.72l-.36-.48.59-2.06.57-2.16.92-.27 1.1-.04z" data-originalStrokeWidth="0.25" style="shape-rendering: auto; stroke: rgb(0, 0, 0);"></path>


<path id="Campo_Grande_do_Piauí" fill="#ccccb8" stroke="#000" stroke-width=".25" d="m613.37 249.5.1 1.1.2.29-.2.64-.87.06-.04.37-.42-.08-.31.22-.37-.23-.5.04-.14-.4-.02-.8-.01-.72.2-.77.48.05.69-.98 1.15.35z" data-originalStrokeWidth="0.25" style="shape-rendering: auto; stroke: rgb(0, 0, 0);"></path>


<path id="Campo_Largo_do_Piauí" fill="#ccccb8" stroke="#000" stroke-width=".25" d="m588.59 192.24.19 1.55-.9-.31-.3.5-1 .8-.22-.42-.14-.93-1.4-1.21-.18.12-.42-.15-.45-.8.28-.8-.27-.24-.22-.46.25-.66-.24-.6.48.5 1.14.63.77.8 1.03 1.2 1.33.49z" data-originalStrokeWidth="0.25" style="shape-rendering: auto; stroke: rgb(0, 0, 0);"></path>


<path id="Campo_Maior" fill="#ccccb8" stroke="#000" stroke-width=".25" d="m594.55 205.72.48.47.55.23.92-.21.02-.22.73.08.38.58-.24.16-.52.67-.86.02-.62.74.23.68-.4.44-1.02-.34-.04.26.6.85.13.45-.09.67.13.18 1.02.24.65.53-.62 2.5-.25-.02-.77-.16-.72-.63-.72.26-.36-.23-.34.07-.57-.16.35-.9.37-.07-2.86-2.23-1.02-1.9.62-2.8.7-2.15.32-.04.33.37-.3.23-.17.75.06.95-.62.86.44.04.17.29.45-.05.2-1.36.52.1v.47l.2.49.49-.33.33.33.34-.37.66.33.27-.3.17-.6z" data-originalStrokeWidth="0.25" style="shape-rendering: auto; stroke: rgb(0, 0, 0);"></path>


<path id="Canavieira" fill="#ccccb8" stroke="#000" stroke-width=".25" d="m572.23 254.2-2.63 2.66-.6 2.22 3.6.57-4.13 3.73-.22-.7-3.82-2.82.18-.1.51-.87.43-.44-.9-1.23.22-1.02 1.37-1.44-.52-1.9-1.62.68.91-1.16.26-.65.24.07.62-.4.34.02.15.46.35-.18.67-.01 1.16.4 2.21-.01.12.67-.3.56z" data-originalStrokeWidth="0.25" style="shape-rendering: auto; stroke: rgb(0, 0, 0);"></path>


<path id="Canto_do_Buriti" fill="#ccccb8" stroke="#000" stroke-width=".25" d="m576.86 263.58.39.16.8.71.53 1.1.53.3 1.38.26-.22.16-.2.6-.09.9-.46.96h-.48l-1.12.8-3.95 1.6-.19.27-.1 1.08.01.63-.15.46-.45.75.27.96-.22.43.22.27-.1.76.22.87-3.77.03-4.2.03.04-.26.33-2.08.93-5.93.9-.14 1.03-1.56.05-.35.47-.48 1.41-1.45 1.62.71 3.44-1.94-.2-.57 1.16.36z" data-originalStrokeWidth="0.25" style="shape-rendering: auto; stroke: rgb(0, 0, 0);"></path>


<path id="Capitão_de_Campos" fill="#ccccb8" stroke="#000" stroke-width=".25" d="m600.25 204.1-.1.36-.55 1.74-.75.16-1.08-.3h.28l.13-.67.29-.31-.7-.61-.75-.82-.74-.26h-1.25l-.38-.02-.09-1.66.05-.54-.37-.52.92-.35.34.47.71.42.16.35.52.13.47-.07.25.34.7.23.74.88.91.61z" data-originalStrokeWidth="0.25" style="shape-rendering: auto; stroke: rgb(0, 0, 0);"></path>


<path id="Capitão_Gervásio_Oliveira" fill="#ccccb8" stroke="#000" stroke-width=".25" d="m600.28 277.7-.37-.01-.86-.77-.57.23-.7-.53-.66-.25-.26-.24-.65-.14-.52-.66-.48-.23-.52.2-.47-.44-.55.17-.25-.27-.49-1.66 2.11-.2.87-2.38.48.82.36.47h3.72l-.49.42.75 1.36-.69 1.85z" data-originalStrokeWidth="0.25" style="shape-rendering: auto; stroke: rgb(0, 0, 0);"></path>


<path id="Caracol" fill="#ccccb8" stroke="#000" stroke-width=".25" d="m574.1 289.5-.42.2-.75.14-.14-.34-.76-.57-.31.01-.4-.36-.33-.6-.76-.86-.55-.1-.5.21-.77.63-.01-1.25 1.46-1.97.7.22.07-1.05-.11-.33-.51-.68.1-.85-.14-.97.09-.93.5-1.03-.15-.76-.7-.62 3.78-.03-.13.33-.4.05.08 4.43 1.6 3.44-.48.9-.13 1.2.32.07z" data-originalStrokeWidth="0.25" style="shape-rendering: auto; stroke: rgb(0, 0, 0);"></path>


<path id="Caraúbas_do_Piauí" fill="#ccccb8" stroke="#000" stroke-width=".25" d="m601.4 184.88-.48 1.13-.8.7-.47-.24-.37.91-1.28 1.71-1.02-.77-.02-.69-.28-.42.14-.76.4-.42-.03-.33.3-.15.43.22-.25-.99.38-.3.76-.08.67.21.66-.07.6.07.38-.26z" data-originalStrokeWidth="0.25" style="shape-rendering: auto; stroke: rgb(0, 0, 0);"></path>


<path id="Caridade_do_Piauí" fill="#ccccb8" stroke="#000" stroke-width=".25" d="m616.73 260.62-.35-.44-.46-.2-.85.06-.26.7-.32.28-.3.62-.74-.28-.44-.29-.64-.18-.19-.2-.48-.01-.14-.55.03-.41.53-.74.06-.5 1.03-.2.21-.38h.55l.37-.27.74.04.26.41.6.06.41.72.55.46z" data-originalStrokeWidth="0.25" style="shape-rendering: auto; stroke: rgb(0, 0, 0);"></path>


<path id="Castelo_do_Piauí" fill="#ccccb8" stroke="#000" stroke-width=".25" d="m608.99 218.9-.88.14-.6.68-.68.05-.11.22-.95.2-.34 1.01-1.28.7-.07.4-.72-.17-.9.13-.87-.55-.78-.12-.68-.28-.12-.17.32-.52.64-.39.06-.45-1.04-.72-.43-.5-.22.2-1.25-.68.22-.4.89-.29v-.3l-.91-.44.57-1.14.29-.27.34-.12-.08-.55.17-.6v-.59l.68-.29.12.7-.17.66.2.6.53.01.3-.37.48-.23.3-.5.72-.82.61-.14.92-.6.24-.45.47.17-.08.43.18.41.43.47-.05.64.88.37.33-.08.4.53-.68.52-.3.65.34.41.73.16.48.7.38.12.23.58.62.54z" data-originalStrokeWidth="0.25" style="shape-rendering: auto; stroke: rgb(0, 0, 0);"></path>


<path id="Caxingó" fill="#ccccb8" stroke="#000" stroke-width=".25" d="m600.14 184.54-.67.07-.67-.2-.75.07-.38.3.25 1-.43-.23-.3.15-1.08-.12-.01-.27-.03-1h.36l.54.32.3-.25-.13-.73-.65-.34-.06-.55-.41-.01-.45-.42 1.36-.2.79.13v-.48l.5-.22.24-.5.79-.23.79 1.05.37.39-.1.24-.04 1.52z" data-originalStrokeWidth="0.25" style="shape-rendering: auto; stroke: rgb(0, 0, 0);"></path>


<path id="Cocal" fill="#ccccb8" stroke="#000" stroke-width=".25" d="m607.97 185.06-.31.1-.1.64-.2.34-.53.14-.49-.24-.47-.47-.17.3-1.53.48-.11.71-2.21.6-.51.44-1.2.14-.02-1.53.8-.7.48-1.14.02-.78.2-1.04-.27-1.09-.28-.18 1.38-.24-.01-.27 1.08-.83.68-.34.09-.47.52.85-.37.87.34.33-.04.25.7.43.56.17.26.62.43.25.5-.24.4.01-.05 1.07.14.67z" data-originalStrokeWidth="0.25" style="shape-rendering: auto; stroke: rgb(0, 0, 0);"></path>


<path id="Cocal_de_Telha" fill="#ccccb8" stroke="#000" stroke-width=".25" d="m597.76 206.06-.5.02-.73-.08-.02.2-.92.22-.55-.23-.48-.47.05-.33.5-.34-.1-.35.36-.61-.5-.2.17-.5h1.25l.74.26.75.82.69.6-.3.33-.12.67z" data-originalStrokeWidth="0.25" style="shape-rendering: auto; stroke: rgb(0, 0, 0);"></path>


<path id="Cocal_dos_Alves" fill="#ccccb8" stroke="#000" stroke-width=".25" d="m606.84 186.28-.02.3.43.21.22.6-.18 1 .13.06-.01.13-.73.35-.74.74-.56-.2.02-.7-.16-.57-.53-.28-.65-.85.12-.71 1.53-.5.17-.29.47.48z" data-originalStrokeWidth="0.25" style="shape-rendering: auto; stroke: rgb(0, 0, 0);"></path>


<path id="Coivaras" fill="#ccccb8" stroke="#000" stroke-width=".25" d="m592.25 213.82-.12.47-.52.32-.46.47-.47.78h-.56l-.25 1.1-.44-1.99-.49-.57-.2-.24 1.37-3.54 2.86 2.23-.37.08z" data-originalStrokeWidth="0.25" style="shape-rendering: auto; stroke: rgb(0, 0, 0);"></path>


<path id="Colônia_do_Gurguéia" fill="#ccccb8" stroke="#000" stroke-width=".25" d="m568.8 267.36-.05.35-1.03 1.56-.9.14-.3-.21-3.1.03.17-.35-.08-1.41.4-1.53 1.09-.43.18 2.01 1.97-.14.47-.25.25.4z" data-originalStrokeWidth="0.25" style="shape-rendering: auto; stroke: rgb(0, 0, 0);"></path>


<path id="Colônia_do_Piauí" fill="#ccccb8" stroke="#000" stroke-width=".25" d="m595.78 251.76.7 1.01-4.17 2.07-.52-.04-1.66-.1-.86-.26.9-3.43.25-.86.54.03.6-.68.38-.1.73-.49 1.28.88.78 2.9.45-.23z" data-originalStrokeWidth="0.25" style="shape-rendering: auto; stroke: rgb(0, 0, 0);"></path>


<path id="Conceição_do_Canindé" fill="#ccccb8" stroke="#000" stroke-width=".25" d="m605.23 260.9.5.08.35.3.56.17-.04.57-.58.43-.45.53h-.65l-.58.14-.32.6.4.2.63.64-.42.56-.33.01-2.17.98-1.07-.15-.39-.24-.4-1.2.14-.48.45-.39-.2-1.52.81-.28.91-.7.13-.51.28-.16h.74l.82.8z" data-originalStrokeWidth="0.25" style="shape-rendering: auto; stroke: rgb(0, 0, 0);"></path>


<path id="Coronel_José_Dias" fill="#ccccb8" stroke="#000" stroke-width=".25" d="m591.93 276.21 1.42 1.4-1.28 1.83-.59.55-.03 1.14.21 1.51.8 2.14.66.34 1.3 1.85-.46.37-.7.15-.79-.03-.48.13-.35-.17.3-1.42-.53-.03-1.15-.29h-.43l-.54-.28.04-.26-.34-.59.15-.63.37-.44.17-.46.26-.68-.35-.9-.44-.64-.64.8-1.54-.41-.56-.4-.65.55-.27-.55-.53-3.16 2.28-1.26 2.91.09.34-.57z" data-originalStrokeWidth="0.25" style="shape-rendering: auto; stroke: rgb(0, 0, 0);"></path>


<path id="Corrente" fill="#ccccb8" stroke="#000" stroke-width=".25" d="m546.03 307.68-.1.37-.57.36-.17.53-.67.18-1.3 1.87-1.12-.01.08.7-2.94-1.15-2 .3-1.95.68-.4-.53v-.68l-.16-.26.12-.7-.14-.23.83-.82.08-.32-.4-.23-.18-.32-.03-.96-.47-.37-.6-.67 1.8-1 1.83-.75 1.65-1.01 1.52-.11 1.86-.14 3.65 3.49-.65.22.56 1.16z" data-originalStrokeWidth="0.25" style="shape-rendering: auto; stroke: rgb(0, 0, 0);"></path>


<path id="Cristalândia_do_Piauí" fill="#ccccb8" stroke="#000" stroke-width=".25" d="m545.01 315.75-.59.3-.6.46-.24-.17-.5-.47-.77-.14-.6-.59-.56-.2h-1.33l-.84-.11-.25-.28-.47.09-.2-.2-.2-.63-1.08-.36-.5-.4-.2-.94-.28-.5-.52-.1 1.95-.68 2-.3 2.95 1.14.54.2 1.97 1.52z" data-originalStrokeWidth="0.25" style="shape-rendering: auto; stroke: rgb(0, 0, 0);"></path>


<path id="Cristino_Castro" fill="#ccccb8" stroke="#000" stroke-width=".25" d="m565.88 275.33-.33 2.08-1.6 1.72-1.35 3.61-6.64-2.39-.44-.38-.55-.26.55-.41-.63-.42 1.16-.01 1.07-.76.44-.21.33-.83.48-.08.45-.44.57-.1.56-.71-.15-.2.06-.12 4.53-.35.74.25z" data-originalStrokeWidth="0.25" style="shape-rendering: auto; stroke: rgb(0, 0, 0);"></path>


<path id="Curimatá" fill="#ccccb8" stroke="#000" stroke-width=".25" d="m558.74 300.99-1.22 1.43 1.12 1.08-3.78 1.73-.04-.26-.45-.62-.44-.32-.05-.95-.53-.5v-.48l-.38-.11.06-1.01-.56-.67.03-.57-.74-.31-.02-.56-.33-.3-.87-.18-.42-.7-.57-.44.03-.36-.36-.5.03-.4.47-.03.4-.2 1.84-.51.57-.45.5.3 1.1.21.8-.2 2.04-1.03 1.3 1.35-.08.9.22.4-.58.43.34.63.42.3-.26.22-.37.66.35.25-.14 1.38z" data-originalStrokeWidth="0.25" style="shape-rendering: auto; stroke: rgb(0, 0, 0);"></path>


<path id="Currais" fill="#ccccb8" stroke="#000" stroke-width=".25" d="m545.65 272.29 1.77 1.86 3.73 2.36 3.74 2.37-.86.59.88 1.96-.52.67-.38 1.04-.32-.16-1.02.04-6.49-.05-4.67-.04-.4-.58.43-.41.8-.36.66-.65.4-.83.58-.51.3-.6.02-.34.31-.76.04-2.42.18-.77-.05-.54.5-.6z" data-originalStrokeWidth="0.25" style="shape-rendering: auto; stroke: rgb(0, 0, 0);"></path>


<path id="Curralinhos" fill="#ccccb8" stroke="#000" stroke-width=".25" d="m582.41 221.28-.23 1.49.47.16.01.47-1.4.3-2.16.47-.7-.4.4-.53-.33-.42 1-.04-.48-.7.48-.54.94.1.27-.45.48-.21.14-.41.4.33z" data-originalStrokeWidth="0.25" style="shape-rendering: auto; stroke: rgb(0, 0, 0);"></path>


<path id="Curral_Novo_do_Piauí" fill="#ccccb8" stroke="#000" stroke-width=".25" d="m621.38 264.06-.3.63-.26.58-.86.1-1.44-.18-1.05-.72-.5-.09-1.04-.69-.04-.32-.94-.34-.58-.41-.32-.56.14-.41.3-.62.32-.28.25-.71.85-.06.46.2.35.44.52.19h.8l.53.16.23.5-.09.66.31.3-.25.5.14.39.64.36.88.27.77-.1z" data-originalStrokeWidth="0.25" style="shape-rendering: auto; stroke: rgb(0, 0, 0);"></path>


<path id="Demerval_Lobão" fill="#ccccb8" stroke="#000" stroke-width=".25" d="M585.05 217.88v.02l-.57.73h-.55l-1.14.65-.38-.07v-1.5l1.23-1.18.34.07.47-.52.57.08z" data-originalStrokeWidth="0.25" style="shape-rendering: auto; stroke: rgb(0, 0, 0);"></path>


<path id="Dirceu_Arcoverde" fill="#ccccb8" stroke="#000" stroke-width=".25" d="M589.84 285.69h.43l1.15.29.52.03-.3 1.42-.75.48-.84.1-.17.3-.55.35-.14.52-.95.48-.17.54-.36.38-.58-.04-.2.63-.38.12-.71-.1-.64.04-.22.33-.42-1.27-.89-.76-.8-1.07 1.43-.17 2.62-1.33.55-1.5 1.05.1.58.18z" data-originalStrokeWidth="0.25" style="shape-rendering: auto; stroke: rgb(0, 0, 0);"></path>


<path id="Dom_Expedito_Lopes" fill="#ccccb8" stroke="#000" stroke-width=".25" d="M602.48 245.43v.3l-.28 1.14.25.79-.82-.04-.96-.55-.27.3-.87-.94-.3.42-.2-1.04.8-.13.05-.15 1.01-.21.05.25 1.37-.3z" data-originalStrokeWidth="0.25" style="shape-rendering: auto; stroke: rgb(0, 0, 0);"></path>


<path id="Domingos_Mourão" fill="#ccccb8" stroke="#000" stroke-width=".25" d="m607.78 196.63.33.33.51-.09.28-.4.3.32.65-.16.55.71.53-.19.65.07v.02l-.67.91.3 1.3v.32l-1.94.27-.2.63-2.06-.58-.1-.08-.32 1.68-.83-1.99-.45-.35-.6.04-.14-.5-.53-.33.5-1.34.41.11.73-.1.4-.58.27.22.91-.37z" data-originalStrokeWidth="0.25" style="shape-rendering: auto; stroke: rgb(0, 0, 0);"></path>


<path id="Dom_Inocêncio" fill="#ccccb8" stroke="#000" stroke-width=".25" d="m600.28 277.7.6-.05.4.3.63.2.8.65.98-.28.55.22.74-.23.3-.4h.44l.32.32-1.07 1.21-.28.01-.4.58-.54 1.01-.08.5-.43-.12-.63.04-.49.51-.64.07-.34.42h-.6l-.13.25-.03 1.06-.2.28-1 .78v.3l-.38.52-.3.85-.29-.03-.28-.06-.54.35-.35.38-.9-.53-.5.31-.32-.28-.9.13-1.3-1.85-.65-.34-.8-2.14-.21-1.5.03-1.14.59-.55 1.28-1.83-1.42-1.4.36-1.15.54.1.59-.41.25.28.55-.17.47.44.52-.21.48.23.52.66.65.14.26.24.65.25.7.53.58-.23.86.77z" data-originalStrokeWidth="0.25" style="shape-rendering: auto; stroke: rgb(0, 0, 0);"></path>


<path id="Elesbão_Veloso" fill="#ccccb8" stroke="#000" stroke-width=".25" d="m591.1 228.6 2.04 1.63 1 .34.43-.26.42 1.07-.15.52v.77l.41.39-.12.57-.3.78.53.47-.38 1.4-.99 1.18-.14-.4-.46-.06.02-.7-2.9-1.16.14-.38-.52-.12-.13-1.04-.42-.79-.49-.28-.26-.4.25-.33-.38-.52.67-.67.72.02.2-.6-1.56-1.1.34-.57.84.15z" data-originalStrokeWidth="0.25" style="shape-rendering: auto; stroke: rgb(0, 0, 0);"></path>


<path id="Eliseu_Martins" fill="#ccccb8" stroke="#000" stroke-width=".25" d="m568.47 263.38.79 2.5v1l-.47.48-.93.17-.25-.4-.47.26-1.97.14-.18-2.01-1.09.43-.09-.8.14-.72.12-.84-.2-.32.25-1.51-.34-.93.11-.34.53-.63 3.82 2.82z" data-originalStrokeWidth="0.25" style="shape-rendering: auto; stroke: rgb(0, 0, 0);"></path>


<path id="Esperantina" fill="#ccccb8" stroke="#000" stroke-width=".25" d="M594.75 188.38v1.97l.53.32.45-.18.37.17-.27.38.21.22-.23.48-.94.11-.5.73-.58-.03-.25-.32-.52.1-.36-.25-.62.51-.26-.36-.44.5-.42.22-.37.65-.37.4-.89-.43-.52.21-.19-1.55.41-.39-.3-.77.82.08.95-.9h.52l1-.6.28-.52-.3-.49.54-.15.34-1.43.75-.26v1.45z" data-originalStrokeWidth="0.25" style="shape-rendering: auto; stroke: rgb(0, 0, 0);"></path>


<path id="Fartura_do_Piauí" fill="#ccccb8" stroke="#000" stroke-width=".25" d="m582.87 288.45.8 1.07.9.76.41 1.27-.29.4-1.25.11-.46.15-.74.62-.2.53h-.9l-.14-1.04-.4-.16-.46.18-.48-.6-.7-.12-.28-.73.01-.9.3-.3.9-.06.3-.49.2.07.61-.26.83.13.1-.2.8-.13z" data-originalStrokeWidth="0.25" style="shape-rendering: auto; stroke: rgb(0, 0, 0);"></path>


<path id="Flores_do_Piauí" fill="#ccccb8" stroke="#000" stroke-width=".25" d="m582.27 259.48-.83-.93-1.68 4.15-2.85.47.2-.64.12-2.4.12-.08 2.63-2.02.44-.01 1-1.02-.33-2.26.45-.84 2.05 1.48.06 2.14-.01.57-.87.55z" data-originalStrokeWidth="0.25" style="shape-rendering: auto; stroke: rgb(0, 0, 0);"></path>


<path id="Floresta_do_Piauí" fill="#ccccb8" stroke="#000" stroke-width=".25" d="m600.01 256.94-.4-.1-.94-.01-.55-.3-.08-.84.19-1.03-.14-.23.55-1.29.2.24.69 1.18.69.65.24 1.11z" data-originalStrokeWidth="0.25" style="shape-rendering: auto; stroke: rgb(0, 0, 0);"></path>


<path id="Floriano" fill="#ccccb8" stroke="#000" stroke-width=".25" d="m580.76 241.87.86 1.2-.1 2.5-2.58 3.86.25 1.05 1.38.38.65 1.15-.47 1.32-.76.08-3.35-.8-1.29-1.62-1.38 1.09-2.3-1.4.88-3.76-2.39-.83.43-.97.3-.23.16-.75.83-.65.5.07.8-.16.4-.44h1.23l.54.28.82-.27.25-.31.7.2.65-.03.32-.2.27-.55.54-.28.5-.6.06-.35 1.03.25z" data-originalStrokeWidth="0.25" style="shape-rendering: auto; stroke: rgb(0, 0, 0);"></path>


<path id="Francinópolis" fill="#ccccb8" stroke="#000" stroke-width=".25" d="m592.28 237.53-2.12.82h-.69l1.03-1.95.01-1.25 2.9 1.15-.02.7-.18.75-.65-.41z" data-originalStrokeWidth="0.25" style="shape-rendering: auto; stroke: rgb(0, 0, 0);"></path>


<path id="Francisco_Ayres" fill="#ccccb8" stroke="#000" stroke-width=".25" d="m584.63 243.5-.75.96-2.25-1.38-.86-1.21.89-3.25 2.44-.3.15 1.84.57.97-.62 1.72z" data-originalStrokeWidth="0.25" style="shape-rendering: auto; stroke: rgb(0, 0, 0);"></path>


<path id="Francisco_Macedo" fill="#ccccb8" stroke="#000" stroke-width=".25" d="m618.13 253.25-.8 1-.37.27-.04-.53-.72-.56-.26-.57.07-.75.87-.43.8-.11.42-.18.27.03-.27.78z" data-originalStrokeWidth="0.25" style="shape-rendering: auto; stroke: rgb(0, 0, 0);"></path>


<path id="Francisco_Santos" fill="#ccccb8" stroke="#000" stroke-width=".25" d="m611.47 249.28-.47-.05-.21.77v.72l-.94.2-.16.7-1.04-.57 1.26-1.95.1-2.16.51-2.27.27-2.01.84.1.26 4.26z" data-originalStrokeWidth="0.25" style="shape-rendering: auto; stroke: rgb(0, 0, 0);"></path>


<path id="Fronteiras" fill="#ccccb8" stroke="#000" stroke-width=".25" d="m622.88 248.46-.53.7.09.26-.38 1.38-1.73.06-1.2-.08-.52.29-.29-.32.45-.86-.02-.28-.64-.74-.57-1.4-.5-.37.34-.24.27.36.39.03.68.34 1.55-.95.04-.34.9-.1.12-.15.74-.06.28.24.47-.28.66-.03-.07.24.02 1.5z" data-originalStrokeWidth="0.25" style="shape-rendering: auto; stroke: rgb(0, 0, 0);"></path>


<path id="Geminiano" fill="#ccccb8" stroke="#000" stroke-width=".25" d="m609.91 249.1-1.26 1.95 1.04.57-.06.31h-.73l-.59-.15-.47.36v.35l-1.42-.83-.12.05-1.16-1.34.02-1.16 1.17.1.14-.35.96-.15 1.77.21z" data-originalStrokeWidth="0.25" style="shape-rendering: auto; stroke: rgb(0, 0, 0);"></path>


<path id="Gilbués" fill="#ccccb8" stroke="#000" stroke-width=".25" d="m540.59 288.26-3.9 6.17.61.24-.54.83.09.56.36.44.53.1.45.35.29-.01.94-.36.45.06.98-.16.23.2.87.22.3-.2.54.03.6.26-1.26 2.66-2-.68-2.06-.01-.26.88-1.9-.08-.23-.52-.04-.6-.32-.13-.8-1.03-1-.72-.52-.5.05-.6-.28-.17-1.91 1.13-1.23-.9-.4-.45-.87-.68-.41-.15-.07-.48.23-.61-.31-.42-.07-.56.54-1.04.36-.37.4.35.47.18.47.59.48.19.37-.38.4-.05.55-.34.52.06.94-.37.27-.23.04-.43h1.83l-1.8-5.07 3.53 1.26z" data-originalStrokeWidth="0.25" style="shape-rendering: auto; stroke: rgb(0, 0, 0);"></path>


<path id="Guadalupe" fill="#ccccb8" stroke="#000" stroke-width=".25" d="m569.34 243.9-1.65 2.91-1.41-.09-1.11-.47-1.67-.37-.11.15-.77.05-.82.37-.11-.56.38-.58.66-.43.52-.6-.88-.72-.31-.43-.54-.12.3-.32.52.1.54-.4.59-.14.52-.44.28.22.38-.2.68-.1.32.2.42-.06.62.23.94.67.4-.16.36.72.58.17z" data-originalStrokeWidth="0.25" style="shape-rendering: auto; stroke: rgb(0, 0, 0);"></path>


<path id="Guaribas" fill="#ccccb8" stroke="#000" stroke-width=".25" d="m565.55 277.42-.04.26 4.2-.03.7.62.15.76-.5 1.03-.1.93.14.97-.1.85.51.68.11.33-.07 1.05-.7-.22-1.46 1.97.01 1.25-.67.22-.48.55-.28.35-1.19.85-1.1.26-.55.33-1.54-2.46-1.54-2.47 1.55-2.75 1.35-3.61z" data-originalStrokeWidth="0.25" style="shape-rendering: auto; stroke: rgb(0, 0, 0);"></path>


<path id="Hugo_Napoleão" fill="#ccccb8" stroke="#000" stroke-width=".25" d="m588.68 231.81-.75.23-1.14-1.06-.02-.54-.42-.2-.9-.1-.25-.47.2-1.2.57-.07 1.02-.13-.18.72.35.39.79.6.42 1.56z" data-originalStrokeWidth="0.25" style="shape-rendering: auto; stroke: rgb(0, 0, 0);"></path>


<path id="Ilha_Grande" fill="#ccccb8" stroke="#000" stroke-width=".25" d="m599.5 172.09-.06.2.52 1.28-.36.2-.16.33-.56.23-.3.53-.56-.8.37-1-.06-.53.4-.47.4-.12z" data-originalStrokeWidth="0.25" style="shape-rendering: auto; stroke: rgb(0, 0, 0);"></path>


<path id="Inhuma" fill="#ccccb8" stroke="#000" stroke-width=".25" d="M601.13 238.78h.08l3.07 1.35.29 1.06.28 1.36-1.12-.12-1.13 1.7-.95-.07v-.6l-1.86-.1-.9-1.33-.87-.43-.58-.08-.42-.7-.1-.04.7-.63.48-.07.38-.62 1.95-.18.1-.54z" data-originalStrokeWidth="0.25" style="shape-rendering: auto; stroke: rgb(0, 0, 0);"></path>


<path id="Ipiranga_do_Piauí" fill="#ccccb8" stroke="#000" stroke-width=".25" d="m602.6 244.13-.02.1-.16.69h.08l-.02.5-.16-.15-1.37.3-.05-.26-1.01.21-.06.15-.8.13-.07.2-1.13-1.44-.7-.5-.01-1.59-.28-1.24.19-.42.42.7.58.08.87.43.89 1.33 1.86.1v.6z" data-originalStrokeWidth="0.25" style="shape-rendering: auto; stroke: rgb(0, 0, 0);"></path>


<path id="Isaías_Coelho" fill="#ccccb8" stroke="#000" stroke-width=".25" d="m605.23 260.9-.87.39-.82-.8-.74-.02-.28.16-.13.51-.91.71-1.84-.27v-.09h.31l-.03-1.56.56-.62-.07-1.76-.4-.6.44-.62-.24-1.11-.69-.66 2.67-.54-.17.48.06.91.13.4.01.92-.33 1.33 2.37.9.76.43-.14.93z" data-originalStrokeWidth="0.25" style="shape-rendering: auto; stroke: rgb(0, 0, 0);"></path>


<path id="Itainópolis" fill="#ccccb8" stroke="#000" stroke-width=".25" d="m607.84 252.5-.66 2.1-.51 1.23-.04.34-.36.62-.5-.22-1.12-.2-.25.23-.47.04-.27-.4-1.43.5-.01-.92-.13-.4-.06-.91.17-.48.42-.74-.14-.43.15-.65.72.06.17.2 1.5.13.74-.67.55-.21.12-.05z" data-originalStrokeWidth="0.25" style="shape-rendering: auto; stroke: rgb(0, 0, 0);"></path>


<path id="Itaueira" fill="#ccccb8" stroke="#000" stroke-width=".25" d="m580.75 253.32.78.57-.45.84.34 2.26-1 1.02-.44.01-2.64 2.02-.92-1.1-1.93-1.02-1.59 1.44-.3.28-3.6-.57.6-2.22 2.63-2.65 1.75-2.13 1.38-1.09 1.29 1.63 3.35.8z" data-originalStrokeWidth="0.25" style="shape-rendering: auto; stroke: rgb(0, 0, 0);"></path>


<path id="Jacobina_do_Piauí" fill="#ccccb8" stroke="#000" stroke-width=".25" d="m611.57 260.13.14.55h.48l.19.21.64.18.44.3.73.28-.14.4-.61.3-.41-.24-.55.6.29.6-.55.44-.25-.1-.64.74-.64.08-.21.6-.61.04-.54-.17-.74.19-.73-.05-.67.3h-.37l-.3.3.07.52-.24.25-.55.17-.51-.18.3-.14-.1-.4-.42-.58-.43-.2.42-.55-.63-.64-.4-.21.32-.6.58-.13.64-.01.45-.53.58-.43.04-.57 1.04-.38.15-1.02.96-.13.47.15.4-.3.34.48.67.27.45-.35z" data-originalStrokeWidth="0.25" style="shape-rendering: auto; stroke: rgb(0, 0, 0);"></path>


<path id="Jaicós" fill="#ccccb8" stroke="#000" stroke-width=".25" d="m612.55 251.96.03.44.4 1.25.22.93-1.42.02-.34-.11-.88.14-.03.34-.55.54-.88.13.2.75v.8l-.22.4-.47.32-.17-.59-.34-.04-.12-.67-.44.01-.25-.24-.66-.2.04-.36.5-1.23.66-2.1.01-.35.47-.36.6.15h.73l.06-.3.15-.72.94-.2.02.8.14.4.5-.05.37.23.31-.22z" data-originalStrokeWidth="0.25" style="shape-rendering: auto; stroke: rgb(0, 0, 0);"></path>


<path id="Jardim_do_Mulato" fill="#ccccb8" stroke="#000" stroke-width=".25" d="m588.68 231.81.15.31.26.41.5.28.41.8-2.13.28-.06-.65-1.64.04-.17-.3-1.35-.53-1.12.08.04-.7-.39-1.03.94.02.2.15.2-.88.69-.43.25.48.9.1.42.2.02.54 1.14 1.06z" data-originalStrokeWidth="0.25" style="shape-rendering: auto; stroke: rgb(0, 0, 0);"></path>


<path id="Jatobá_do_Piauí" fill="#ccccb8" stroke="#000" stroke-width=".25" d="m597.76 206.06 1.08.3.75-.15.53.26-.19.54-.28.36-.04.58-.63.3-.29.9-.82.5v.32l-1.27 2.23-.65-.52-1.02-.24-.12-.18.09-.68-.13-.46-.6-.85.04-.26 1.02.35.4-.43-.23-.68.62-.74.86-.02.52-.68.24-.16-.38-.58z" data-originalStrokeWidth="0.25" style="shape-rendering: auto; stroke: rgb(0, 0, 0);"></path>


<path id="Jerumenha" fill="#ccccb8" stroke="#000" stroke-width=".25" d="m569.93 244.34.62-.04.5-.17-.16.76-.3.23-.43.97 2.4.83-.88 3.76 2.3 1.4-1.75 2.13-1.4-.9.3-.56-.12-.67h-2.2l-1.16-.4-.67.01-.35.18-.15-.46h-.34l-.62.39-.24-.08.59-2.3-1-.35-.35-.35-.65-.48.28-.3 1.01-1.68 1.11.47 1.41.09 1.65-2.91z" data-originalStrokeWidth="0.25" style="shape-rendering: auto; stroke: rgb(0, 0, 0);"></path>


<path id="João_Costa" fill="#ccccb8" stroke="#000" stroke-width=".25" d="m592.84 275.18-.54-.11-.36 1.15-1.44-.34-.34.57-2.91-.09-2.28 1.26-2.3 1.27.15-2.05.34-1.89.2-.48 1-1-.1-1.37.37-1.19.04-.54.23-.29 4.86 1.7.65.9 1.87 1.05z" data-originalStrokeWidth="0.25" style="shape-rendering: auto; stroke: rgb(0, 0, 0);"></path>


<path id="Joaquim_Pires" fill="#ccccb8" stroke="#000" stroke-width=".25" d="m593.42 182.47 1.1.87-.28.25-.12.7.5.06.22.46-.14.22.58.24.82.04v.27l1.09.12.03.33-.4.43-.13.76.28.42.02.69-.67.04h-1.56l-1.17-.12v-1.45l-.75.26.09-.3-.66-.61-.26.7-.3.21-.64-.18.32-.2.3-.74v-1.69l.39-.28.13-.56.78-.23.07-.53z" data-originalStrokeWidth="0.25" style="shape-rendering: auto; stroke: rgb(0, 0, 0);"></path>


<path id="Joca_Marques" fill="#ccccb8" stroke="#000" stroke-width=".25" d="m588.58 184.75.58.6-.27.55.09.95-.15.36-.64.25-.57-.06-.46-.42.38-.98-.54-.62.34-.47.39-.1.4-.44z" data-originalStrokeWidth="0.25" style="shape-rendering: auto; stroke: rgb(0, 0, 0);"></path>


<path id="José_de_Freitas" fill="#ccccb8" stroke="#000" stroke-width=".25" d="m589.1 208.74-4.1 1.28-.57.16-1.39-.13-.33-1.45-1-.11.17-.95 1-.92.6-.7 1.3-1.17 1.08-.3.21-.74 1.05-.46.04-.3.78-.47 2.47 1.3-.7 2.15z" data-originalStrokeWidth="0.25" style="shape-rendering: auto; stroke: rgb(0, 0, 0);"></path>


<path id="Juazeiro_do_Piauí" fill="#ccccb8" stroke="#000" stroke-width=".25" d="m606.53 209.66-.79.73-.2.96-1.02.6-.24.45-.92.6-.61.15-.72.82-.31.5-.48.23-.3.37-.53-.01-.2-.6.17-.67-.12-.7-.06-.34.39-1.2h.57l.8-3.18-.21-.61.64-.3 1.04-.25.29.25.31 1.22.93.09.4-.14.27.63z" data-originalStrokeWidth="0.25" style="shape-rendering: auto; stroke: rgb(0, 0, 0);"></path>


<path id="Júlio_Borges" fill="#ccccb8" stroke="#000" stroke-width=".25" d="m560.47 307.49-.31-.22-.36.12-.14.57.18.55-.45.54-.37 1.3-.2.17-.49.14-.5.75-.47.06-.94-.5-.47.22-.38-.07-.42-.47-.43-.7-.52-.13-.13-.97.07-.4 1.1-2.63-.38-.6 3.78-1.72.48.45z" data-originalStrokeWidth="0.25" style="shape-rendering: auto; stroke: rgb(0, 0, 0);"></path>


<path id="Jurema" fill="#ccccb8" stroke="#000" stroke-width=".25" d="m577.62 277.13.05 2.02-1.11-.05-.6 3.2.18 1.82-.14.1.06.8.38.35.05.55-.42.8.34.8.23 1.98-.83-.48-.15.22-.55-.11-.2.54-.37.19-.43-.35.24-1.47-.32-.09.13-1.19.48-.9-1.6-3.44-.08-4.43.4-.05 3.25-.12.3-.75z" data-originalStrokeWidth="0.25" style="shape-rendering: auto; stroke: rgb(0, 0, 0);"></path>


<path id="Lagoinha_do_Piauí" fill="#ccccb8" stroke="#000" stroke-width=".25" d="m585 226.8-1.02.18-.04.54-.26.03.37-1.13.22-.8.48-.5.14-.5.17.6-.18.42.4.74z" data-originalStrokeWidth="0.25" style="shape-rendering: auto; stroke: rgb(0, 0, 0);"></path>


<path id="Lagoa_Alegre" fill="#ccccb8" stroke="#000" stroke-width=".25" d="m587.95 202.47-.78.47-.04.3-1.05.46-.21.75-1.08.3-1.17-1.13.15-1.16 1.6-.88v-.7l.43-.37.2-.06 1.28 1.26.5.1.44.5z" data-originalStrokeWidth="0.25" style="shape-rendering: auto; stroke: rgb(0, 0, 0);"></path>


<path id="Lagoa_do_Barro_do_Piauí" fill="#ccccb8" stroke="#000" stroke-width=".25" d="m604.67 271.25-.12 1.08-.12.27.3.54-.1.6.41.4-.26 1.23-.46 1.02-.16 1.16.5.16.46-.36.67-.8.45.67.34.03-.23.3-.3.89-.32-.32-.45-.01-.3.4-.74.24-.55-.22-.99.27-.8-.65-.63-.2-.39-.3-.6.05-.24-2.26.7-1.85-.75-1.36.49-.41.94-.14.07-.74-.13-.4.35-.52.82.37.66.09.89.87z" data-originalStrokeWidth="0.25" style="shape-rendering: auto; stroke: rgb(0, 0, 0);"></path>


<path id="Lagoa_de_São_Francisco" fill="#ccccb8" stroke="#000" stroke-width=".25" d="m603.4 199.51.35.33.5.05.2.46-.16.76-.31.17-.37-.1-.32.18-.66-.1h-.64l-.3-.24-.16-.73.55-.07.33-.2.16-.65z" data-originalStrokeWidth="0.25" style="shape-rendering: auto; stroke: rgb(0, 0, 0);"></path>


<path id="Lagoa_do_Piauí" fill="#ccccb8" stroke="#000" stroke-width=".25" d="m586.74 221.51-1.22-1.1-.46.4h-1.7l-.3.5-.63-.23-.01-1.88.38.07 1.14-.65.54.01.57-.73.57.28.21.33.46.15.17.52.4.62h.4l.32.6-.12.78z" data-originalStrokeWidth="0.25" style="shape-rendering: auto; stroke: rgb(0, 0, 0);"></path>


<path id="Lagoa_do_Sítio" fill="#ccccb8" stroke="#000" stroke-width=".25" d="m608.34 240.9-1.57-1.01-.98-.5-1.45-.15-.06.9-3.07-1.35h-.08l.35-.53.08-.73 1.6-2.15.21.75.62-.1 1.43-.48 1.02.3-.3 1.24.56 1.2 1.06-.05-.05.44.64.6.3.62v.32z" data-originalStrokeWidth="0.25" style="shape-rendering: auto; stroke: rgb(0, 0, 0);"></path>


<path id="Landri_Sales" fill="#ccccb8" stroke="#000" stroke-width=".25" d="m565.27 251.72-.26.65-.9 1.16-.86-.23-3.6 1.25-1.53 1.36-.2.6-.9-2.05 2-2.65-.34-.88.38-.35.37.38.18.18 2.78-.57.7-1.11 1.2.06-.1-.44.33-.37.35.35 1 .35z" data-originalStrokeWidth="0.25" style="shape-rendering: auto; stroke: rgb(0, 0, 0);"></path>


<path id="Luís_Correia" fill="#ccccb8" stroke="#000" stroke-width=".25" d="m605.62 174.7-.16.4.26.28-.26.34.2.7.08.62-.21.7 1.1-.38 1.02-.14 1.07.08.09.6-.98.85-.3.44.1.34-1.3 2.2-.04.42-.3.38-.55-.17-.7-.43.04-.25-.34-.33.37-.87-.52-.85.85-.44-.03-.63-2.35-.06-.1-1.04-.97-.83-.25-.08-.44.48-.26-.56.56-.5-.05-.55.37-.6-.14-.6.36-.27.66.57.6.18.4-.14.8.22.57-.27z" data-originalStrokeWidth="0.25" style="shape-rendering: auto; stroke: rgb(0, 0, 0);"></path>


<path id="Luzilândia" fill="#ccccb8" stroke="#000" stroke-width=".25" d="m592.08 183.97-.38.28v1.7l-.31.73-.32.2-.02.77-.65.37-.56 1.12v.35l-.7.44-.16-.28-.38.07-.76-.17-.51.43-.32-.23-.52-1.32-.64-.3-.04-.42.54-.45.37-.01.44-.27.46.42.57.06.64-.25.15-.36-.1-.95.28-.55-.58-.6.19-.45.59.02.39-.28.57.3.5-.12.86-.31z" data-originalStrokeWidth="0.25" style="shape-rendering: auto; stroke: rgb(0, 0, 0);"></path>


<path id="Madeiro" fill="#ccccb8" stroke="#000" stroke-width=".25" d="m587.15 186.97-.44.27-.37.01-.54.45.04.42-1.1-.98.12-.43.73-.28.1-.19.16-.38.42-.47.05-.46.35-.22.2-.48.13.48.33.2-.34.46.54.62z" data-originalStrokeWidth="0.25" style="shape-rendering: auto; stroke: rgb(0, 0, 0);"></path>


<path id="Manoel_Emídio" fill="#ccccb8" stroke="#000" stroke-width=".25" d="m563.9 265.94-.4 1.52.08 1.41-.16.35-.04 1.1-.95-.03-.71 1.3-1.66.28-.82-.38-.83-.21-4.9-.06.37-1.25 4.12-.37.54-4.34 2.2-.46 1.92-.48 1.3.1-.15.74z" data-originalStrokeWidth="0.25" style="shape-rendering: auto; stroke: rgb(0, 0, 0);"></path>


<path id="Marcolândia" fill="#ccccb8" stroke="#000" stroke-width=".25" d="m619.47 254.72-.2.28-.67.13-.24.42-.9-.09-.68.16-.01-.87.19-.24.37-.27.8-1 .34.67.26.1z" data-originalStrokeWidth="0.25" style="shape-rendering: auto; stroke: rgb(0, 0, 0);"></path>


<path id="Marcos_Parente" fill="#ccccb8" stroke="#000" stroke-width=".25" d="m565.16 246.25-1 1.7-.28.29.65.47-.33.37.08.44-1.19-.07-.7 1.11-2.78.58-.18-.17.73-2.31.3-1.51.15-.25h.82v-.42l.36-.02.82-.37.77-.05.11-.15z" data-originalStrokeWidth="0.25" style="shape-rendering: auto; stroke: rgb(0, 0, 0);"></path>


<path id="Massapê_do_Piauí" fill="#ccccb8" stroke="#000" stroke-width=".25" d="m613.2 254.57-.19.21.16.85.37.83.1.47.3.58.4.12-.37.27h-.55l-.2.38-1.04.2-1.43-.3-.49-.35-.39-.59-.57-.05v-.8l-.2-.75.88-.13.55-.54.03-.34.88-.14.34.1z" data-originalStrokeWidth="0.25" style="shape-rendering: auto; stroke: rgb(0, 0, 0);"></path>


<path id="Matias_Olímpio" fill="#ccccb8" stroke="#000" stroke-width=".25" d="m585.96 190.56-.77-.8-1.14-.63-.48-.5.15-.38.74-.72.29-.38 1.1.98.64.3.52 1.32-.68.27z" data-originalStrokeWidth="0.25" style="shape-rendering: auto; stroke: rgb(0, 0, 0);"></path>


<path id="Miguel_Alves" fill="#ccccb8" stroke="#000" stroke-width=".25" d="m581.66 193.66.74 1.3.7.64.46.08.44-.28.22.94.54 1.9 1.2 1.9-.16.37-.43.37v.7l-2.3-.52-1.78.01-.43-.1-.88-.5-1.36-.19-.02.12-.02-.68-.34-.68-.03-1.12.77-.94.34-.25.59.04-.18-.67.54-.23.25-.44.19-.74.5-.79z" data-originalStrokeWidth="0.25" style="shape-rendering: auto; stroke: rgb(0, 0, 0);"></path>


<path id="Miguel_Leão" fill="#ccccb8" stroke="#000" stroke-width=".25" d="m584.98 224.31-.1.3-.14.5-.29-.42-.45-.07-.38.2-.37-.47-.4-.14-.37.19-.4-.5-.72.15-.1-.34 1.4-.31z" data-originalStrokeWidth="0.25" style="shape-rendering: auto; stroke: rgb(0, 0, 0);"></path>


<path id="Milton_Brandão" fill="#ccccb8" stroke="#000" stroke-width=".25" d="m608.59 208.38-.18.74-.44-.07-.2.33-.6-.05-.64.33-.9-.4-.28-.63-.39.14-.93-.1-.31-1.21-.3-.25-1.03.26-.64.29-.72-.18-.9-1.12-.53-.26.55-1.74 4.12-.17 3.87-.43-.03 4.57z" data-originalStrokeWidth="0.25" style="shape-rendering: auto; stroke: rgb(0, 0, 0);"></path>


<path id="Monsenhor_Gil" fill="#ccccb8" stroke="#000" stroke-width=".25" d="m586.74 221.51.47.47-.1.46.54.2.13.36-.73.13-.14.32-.57.34.08.75-.39-.03-.5.21-.56-.4-2.3-.92-.01-.47-.47-.16.23-1.5v-.19l.64.23.3-.5h1.7l.46-.4z" data-originalStrokeWidth="0.25" style="shape-rendering: auto; stroke: rgb(0, 0, 0);"></path>


<path id="Monsenhor_Hipólito" fill="#ccccb8" stroke="#000" stroke-width=".25" d="m613.3 248.63-1.15-.34-.69.98.43-2.26-.26-4.25 1.16.1.85.17-.04 1.13.04 1.41-.07 1.31z" data-originalStrokeWidth="0.25" style="shape-rendering: auto; stroke: rgb(0, 0, 0);"></path>


<path id="Monte_Alegre_do_Piauí" fill="#ccccb8" stroke="#000" stroke-width=".25" d="m543.38 296.99-.6-.26-.54-.02-.3.2-.87-.22-.23-.21-.98.16-.45-.06-.94.36-.29.02-.45-.35-.53-.1-.36-.44-.09-.56.55-.83-.6-.24 3.88-6.17 5.25 2.33 2.61 1.6.07.17.13.35-2.62 1.72-.3-.53-.44.38-.04 1.12-.5.8h-.46z" data-originalStrokeWidth="0.25" style="shape-rendering: auto; stroke: rgb(0, 0, 0);"></path>


<path id="Morro_Cabeça_no_Tempo" fill="#ccccb8" stroke="#000" stroke-width=".25" d="m565.73 301.14-.58-.15-.47-.4-.3-.06-.73.18-.4-.05-.88.45-.65.14-.69-.65-.19-.86-.4.28-.44.01-.79.35-.48.6-.56-.39.15-1.38-.35-.25.37-.66.26-.2-.42-.32-.34-.63.58-.42-.22-.4.08-.9-1.31-1.36 2.56-1.29 4.54-2.28-.91 1.2-.26.65.2.42-.01.91.24.18.6 1.02-.06.4.23.61.37.25 1.18.5.57.33.22.36-.44.76-.56.47.33.5-.12.57.56.3-.07.71z" data-originalStrokeWidth="0.25" style="shape-rendering: auto; stroke: rgb(0, 0, 0);"></path>


<path id="Morro_do_Chapéu_do_Piauí" fill="#ccccb8" stroke="#000" stroke-width=".25" d="m592.84 187.06-.34 1.43-.54.15.3.5-.28.5-1 .6h-.52l-.95.91-.82-.08.11-.9.34-.25.7-.44v-.34l.56-1.12.65-.37.02-.77.63.18.3-.2.26-.72.66.61z" data-originalStrokeWidth="0.25" style="shape-rendering: auto; stroke: rgb(0, 0, 0);"></path>


<path id="Murici_dos_Portelas" fill="#ccccb8" stroke="#000" stroke-width=".25" d="m596.92 182.13-1.36.2.45.41.41.01.06.55.65.34.14.73-.3.25-.55-.32-.36.01.03 1-.82-.05-.58-.24.14-.22-.22-.46-.49-.06.12-.69.28-.25-1.1-.87.1-.63-.07-.78.97-.04.5-.3.5.01.48-.45.1-.1.37.27.52.06.06.45.27.35-.38.33z" data-originalStrokeWidth="0.25" style="shape-rendering: auto; stroke: rgb(0, 0, 0);"></path>


<path id="Nazaré_do_Piauí" fill="#ccccb8" stroke="#000" stroke-width=".25" d="m584.63 243.5.3.18v.29l.7.79-.61 1.74-.43.53-.32-.21-.2 1.92.3 1.12-.44.78 1.02 3.13-.32-.48h-.66l-.26-.74-.4-.32.16-.5-.3-1.26-.37-.02-1.04 1.84-.54-.28-.65-1.15-1.38-.39-.25-1.05 2.58-3.86.1-2.49 2.25 1.38z" data-originalStrokeWidth="0.25" style="shape-rendering: auto; stroke: rgb(0, 0, 0);"></path>


<path id="Nazária" fill="#ccccb8" stroke="#000" stroke-width=".25" d="m578.49 221.63-.6-.33.15-.6.4-.43.08-.55.67-.25.35-.77.43-.07.4-.4.68-.4.17-.5.94.33.17.32-.28 1.35-.75 1.17-.7-.12.07.61-1 .1-.11.2-.6-.12z" data-originalStrokeWidth="0.25" style="shape-rendering: auto; stroke: rgb(0, 0, 0);"></path>


<path id="Nossa_Senhora_de_Nazaré" fill="#ccccb8" stroke="#000" stroke-width=".25" d="m594.6 205.38-.05.33-.28.22-.17.6-.27.31-.66-.33-.34.37-.33-.34-.48.33-.21-.49v-.47l-.51-.1-.2 1.36-.45.06-.17-.3-.44-.03.62-.86-.06-.95.17-.75.3-.23-.34-.37.48-.24.08.28.52-.13.5.29.7-.31.06.5-.5-.08v.65l.73-.03.83.08z" data-originalStrokeWidth="0.25" style="shape-rendering: auto; stroke: rgb(0, 0, 0);"></path>


<path id="Nossa_Senhora_dos_Remédios" fill="#ccccb8" stroke="#000" stroke-width=".25" d="m586.59 194.78-.4 1.03-.38.08-.6.5-1-.04-.22-.94-.44.28-.29-.53.22-.43-.15-.96 1.25-1.02.05-.41.18-.12 1.4 1.2.14.94z" data-originalStrokeWidth="0.25" style="shape-rendering: auto; stroke: rgb(0, 0, 0);"></path>


<path id="Novo_Oriente_do_Piauí" fill="#ccccb8" stroke="#000" stroke-width=".25" d="m598.1 240.07-.48.07-.7.63-1.25-.48-1.18.37-1.02.11.63-.14.1-.41.44-.18-.07-1.33.19-.6.65-.34v-.54l-.95.03-.46.2.99-1.17.38-1.41 2.08 1.77.08 2.3z" data-originalStrokeWidth="0.25" style="shape-rendering: auto; stroke: rgb(0, 0, 0);"></path>


<path id="Novo_Santo_Antônio" fill="#ccccb8" stroke="#000" stroke-width=".25" d="m598.09 218.09-.44.28-.7.08-.32.45-.82-.32-.26-.71-.49-.14.04-.58.66-.36-.37-.43.34-1.69.25.03 3.18.44-.02.1-.29.27-.57 1.14.91.43v.31l-.89.3z" data-originalStrokeWidth="0.25" style="shape-rendering: auto; stroke: rgb(0, 0, 0);"></path>


<path id="Oeiras" fill="#ccccb8" stroke="#000" stroke-width=".25" d="m596.92 240.78.1.04-.19.42.28 1.23.01 1.6-.78.47-.03.26-.52.85-.2.56.7.67-.08.4 1.55.18-.32.51-.36.2.33 1.1-.35 1.05-.47.66-1.05.48.24.3-.6.7-.46.23-.78-2.9-1.28-.88-.73.5-.38.1-.6.67-.54-.03-.25.86-1.66-.95-.14-.48.1-.82-.18-.73-.08-1.55-3.06.5-.56.04.43-.53.61-1.74.45-.12.7.32.22-.04.5.56.5-.15.7-1.24.43-.17.17-.29.04.26.86.35.37-.05-.06.72.73-.24.14.56.24.31.88-.27.33-.8.77-.32-.17-.43.24-.24.02-.74-.46-.4-.15-1.59h0l.4.03 1.03-.1 1.18-.38z" data-originalStrokeWidth="0.25" style="shape-rendering: auto; stroke: rgb(0, 0, 0);"></path>


<path id="Olho_D_Água_do_Piauí" fill="#ccccb8" stroke="#000" stroke-width=".25" d="m587.4 227.53.06.28-.48.46-1.02.13v-.2l-.66-.22-.02-.3-.49-.27.21-.61.27-.42-.4-.74.18-.42-.17-.6.1-.3.56.4-.07.54.64.57-.1.76.57.38.47.14z" data-originalStrokeWidth="0.25" style="shape-rendering: auto; stroke: rgb(0, 0, 0);"></path>


<path id="Padre_Marcos" fill="#ccccb8" stroke="#000" stroke-width=".25" d="m616.96 254.51-.2.24.02.87-1.18-.64-.66.74-.48.13.23-.56-.15-.43v-.8l-.18-.65.08-.29-.6-.4-.02-.26.76-.39 1-.37.43.4-.07.76.26.57.72.56z" data-originalStrokeWidth="0.25" style="shape-rendering: auto; stroke: rgb(0, 0, 0);"></path>


<path id="Paes_Landim" fill="#ccccb8" stroke="#000" stroke-width=".25" d="m592.3 259.83.5.43-.66.88-.52 1.56.04.38-.67.06-.4.38-.75.36-.18-.05-.33-2.43-1.03-.96.37-.09.7-.49z" data-originalStrokeWidth="0.25" style="shape-rendering: auto; stroke: rgb(0, 0, 0);"></path>


<path id="Pajeú_do_Piauí" fill="#ccccb8" stroke="#000" stroke-width=".25" d="m583.05 265.1-.37-.06-.4.43-.53.08-.71.45-.54.12-1.38-.26-.54-.3-.53-1.1-.8-.71-.4-.16.07-.42 2.85-.48 1.68-4.15.83.93 1.24 1.36-.46 3.5z" data-originalStrokeWidth="0.25" style="shape-rendering: auto; stroke: rgb(0, 0, 0);"></path>


<path id="Palmeira_do_Piauí" fill="#ccccb8" stroke="#000" stroke-width=".25" d="m545.38 269.42 7.68 3.49 3.6 1.62-.05 1.3 3.19-.3.15.2-.55.71-.57.1-.45.44-.48.08-.33.83-.45.21-1.07.76-1.16.01-3.74-2.37-3.73-2.36-1.77-1.86.25-.83-.15-.83-.38-.36z" data-originalStrokeWidth="0.25" style="shape-rendering: auto; stroke: rgb(0, 0, 0);"></path>


<path id="Palmeirais" fill="#ccccb8" stroke="#000" stroke-width=".25" d="m578.49 221.63.5.44.48.7-1 .04.33.42-.4.54.7.4-.1.26 1.56 2.27.04.4 1.3-.42.58.05-.63 2.01-.55.54.35 1.31-.03.56-3.27.68-.24-.37-.73-.1-.28-.18-.45-.78-.02-.26.47-.5-.03-.44-.6-.57-.04-.68-.16-.17.37-.79-.34-.52.07-.49-.2-.87.46-.4-.22-1.13.15-.4-.27-.6.23-.28.86-.13.16-.54.36-.33z" data-originalStrokeWidth="0.25" style="shape-rendering: auto; stroke: rgb(0, 0, 0);"></path>


<path id="Paquetá" fill="#ccccb8" stroke="#000" stroke-width=".25" d="m602.45 247.66.54-.01-.25 1.2-.31.45-.32.82.44.9-.68.24-.16.7.16.28-.54.2-.55.39-.2-.48.4-1.63-.54-.3.04-.42-.37-.33-.3-.71-.9-.73.66-.52.83-.35.27-.3.96.55z" data-originalStrokeWidth="0.25" style="shape-rendering: auto; stroke: rgb(0, 0, 0);"></path>


<path id="Parnaguá" fill="#ccccb8" stroke="#000" stroke-width=".25" d="m554.86 305.23.38.59-1.1 2.63-.07.4.13.96-.85.9-.64.21-.4-.1-.38.5-.48.26-.49-.05-.34-.3-.55-.06-.87.86-.74.21.13.77-.09.5-.94-1.44-.88-1.97 1.08-1.02-1.73-1.4.12-.4-.56-1.17.65-.22-.03-2.07.33-1.18-.73-2.39.83.05.85.64h.32l.48.31.38.03.3-.64.31-.07.12-.8.54-.98-.25-.7.42-.4.42.7.87.18.33.3.02.55.74.31-.03.57.56.67-.06 1.01.38.11v.5l.53.48.05.95.44.32.45.62z" data-originalStrokeWidth="0.25" style="shape-rendering: auto; stroke: rgb(0, 0, 0);"></path>


<path id="Parnaíba" fill="#ccccb8" stroke="#000" stroke-width=".25" d="m601.84 173.96-.36.27.14.6-.37.6.05.54-.56.5.26.56-1.31 1.45-1.73-1.07.82-.75.46-1-.17-.4-.5-.4.32-.53.56-.23.16-.33.36-.2-.52-1.28.06-.2.18.37.53.5.2-.08.86.78z" data-originalStrokeWidth="0.25" style="shape-rendering: auto; stroke: rgb(0, 0, 0);"></path>


<path id="Passagem_Franca_do_Piauí" fill="#ccccb8" stroke="#000" stroke-width=".25" d="m587.77 223 .18.61.48.08.06.44.44.36.97.15-.14.64-.3.52.22.44.46.32-1.02 1.26-.05.54-.34.57 1.56 1.1-.2.6-.72-.01-.67.67.38.5-.25.33-.15-.3-.31-.28-.42-1.55-.8-.62-.34-.39.18-.72.47-.46-.06-.28.26-.4-.1-.75.27-.52-.12-.7-1-.16-.29-.45-.08-.75.57-.34.14-.32z" data-originalStrokeWidth="0.25" style="shape-rendering: auto; stroke: rgb(0, 0, 0);"></path>


<path id="Patos_do_Piauí" fill="#ccccb8" stroke="#000" stroke-width=".25" d="m609.3 257.2.57.05.4.59.49.34 1.43.3-.07.5-.53.73-.03.41-.44.04-.45.35-.67-.26-.34-.47-.4.29-.47-.15-.96.13-.16 1.02-1.04.38-.56-.17-.35-.3-.5-.08-.34-.57.14-.93.2-.04.48-1.31.6-.73-.03-.52.36-.62.66.2.25.24h.44l.12.67.34.04.17.58.47-.32z" data-originalStrokeWidth="0.25" style="shape-rendering: auto; stroke: rgb(0, 0, 0);"></path>


<path id="Pau_D_Arco_do_Piauí" fill="#ccccb8" stroke="#000" stroke-width=".25" d="m589.88 216.97-.74.4-.75-.3-.42.13-.5-.17-.4.19-1.01-.17-.12.2-.65.08-.23.56-.04-1.72.04-1.02.35-.45 1.72-.01.3.6.36.19.27-.43.58-.27.3-.37.5.57z" data-originalStrokeWidth="0.25" style="shape-rendering: auto; stroke: rgb(0, 0, 0);"></path>


<path id="Paulistana" fill="#ccccb8" stroke="#000" stroke-width=".25" d="m614.04 262.06.32.56.58.42.94.34.06.32 1.04.69.5.09 1.05.71-1.27.02-.27-.06-1.2.47.04.4-.28.36-.53-.29-.45.37-.52-.16-.02.4.3.2-.67.25-.08-.32-.5.02-.25.3h-.35l-.46.51-.36.62-1.2.88-.34.32.32.52.04.42-.65.62-.15.6-.53.33-.06-.39-.46-.2-.45-.48-.9-.08-.06-.2-.75.05-.53-.7.25-.5.52-.36.03-.54-.48-.28-.87-.2-.49-.26.4-.66.3-.25-.32-.49.51.18.55-.17.24-.25-.07-.52.3-.29h.37l.67-.3.73.04.74-.19.54.17.61-.03.21-.6.64-.09.64-.73.25.1.55-.45-.29-.59.55-.6.41.24z" data-originalStrokeWidth="0.25" style="shape-rendering: auto; stroke: rgb(0, 0, 0);"></path>


<path id="Pavussu" fill="#ccccb8" stroke="#000" stroke-width=".25" d="m575.53 263.63.2.57-3.44 1.94-1.62-.71-1.4 1.45-.01-1-.8-2.5 4.13-3.73.31-.28.88 3.07.65-.04.42-.23 1.21.88z" data-originalStrokeWidth="0.25" style="shape-rendering: auto; stroke: rgb(0, 0, 0);"></path>


<path id="Pedro_II" fill="#ccccb8" stroke="#000" stroke-width=".25" d="m611.22 199.76-.53.76-.22.35.03.41-.31.58v.43l-.23.85-.24.23-.31.7-.32.1.3.07-.2.57.54.5.4.62-1.24 1.47.67.27-.37.68-.4-.17-.2.2-.49.06.03-4.57-3.87.43-4.12.17.11-.36.16-.4 1.62-1.5.6-.95.65.1.32-.18.37.1.32-.18.16-.76-.2-.45-.5-.05-.35-.33.64-.95.53.32.13.51.61-.04.45.35.83 2 .31-1.69.11.08 2.06.58.2-.63z" data-originalStrokeWidth="0.25" style="shape-rendering: auto; stroke: rgb(0, 0, 0);"></path>


<path id="Pedro_Laurentino" fill="#ccccb8" stroke="#000" stroke-width=".25" d="m591.65 263.08.95.22.77.7-.09.53-.54.33.33.74-.35.83.1.7-.32.48-.02.63.73.13-.2.52.12.21-.41.47-.33.05-.68-.25-.71-.08.29-.67-.63-.46-1.13-.5-.9-.57-.42-.44.33-.39-.7-.36.34-1.14.76-.14.3-.76.42-.03.18.06.75-.36.4-.38z" data-originalStrokeWidth="0.25" style="shape-rendering: auto; stroke: rgb(0, 0, 0);"></path>


<path id="Nova_Santa_Rita" fill="#ccccb8" stroke="#000" stroke-width=".25" d="m598.48 266.85-.92.27-.57 2.16-1.12.69-1.07-.34-1.58-1.25-.74-.13.02-.63.32-.48-.1-.7.35-.83-.33-.74.54-.33.1-.53.3.23.27-.38.7.43.6-.67-.17.69.66.2.82.47h.8l.82.92-.06.86z" data-originalStrokeWidth="0.25" style="shape-rendering: auto; stroke: rgb(0, 0, 0);"></path>


<path id="Picos" fill="#ccccb8" stroke="#000" stroke-width=".25" d="m605.57 247.06.02.19.56.53.05.26.55.23.7-.12-.02.66-.96.15-.14.34-1.17-.09-.02 1.16-.52-.19-.12-.27-.4-.05-.53.14-.45.5-.25.6-.33-.08-.44-.9.32-.83.31-.45.25-1.2-.54.01-.25-.79.28-1.13v-.3l.02-.5.01-.16 1.25.51-.1.66.56.74.73.3z" data-originalStrokeWidth="0.25" style="shape-rendering: auto; stroke: rgb(0, 0, 0);"></path>


<path id="Pimenteiras" fill="#ccccb8" stroke="#000" stroke-width=".25" d="m615.84 231.25.2.59-.12.39.1.75-.08.37.57.72.17.4.42.32.13.64-.46.9.16.62-.01.75.12.53-5.4 4.53-.84-.1.22-1.7-1.05.15-.12.28-1.37-.02-.14-.48.3-.68v-.32l-.29-.62-.64-.6.05-.44-1.06.05-.56-1.2.3-1.23-1.02-.3-1.42.48-.62.1-.21-.75.95-.46-.02-.47-.7-.24-.01-.2-.82-.03-.45.2-1.78-1.09.32-.88 1.35-1.54.79.34 1.69.38-.16.65 1.64-.38.85.33.09.54.79-.33-.21-.46 1.26-.4 6.23-1.13.6.18z" data-originalStrokeWidth="0.25" style="shape-rendering: auto; stroke: rgb(0, 0, 0);"></path>


<path id="Pio_IX" fill="#ccccb8" stroke="#000" stroke-width=".25" d="m624.46 243.59-.3.47-.73.6-.07.79.13.47-.66.03-.47.28-.28-.24-.74.06-.12.15-.91.1-.04.35-1.55.95-.68-.34-.4-.03-.26-.37-.34.23-.47-.23-.6-.06.39-1-.2-2.34-.14-.2-.62.15-.26-.41-1.5.04-.84-.18-1.16-.1 5.4-4.52.04.4.59.56.32.8.25.3-.18.64.39.4 1.04.04.34.37.53.3 1.5.25.7.05.35.44.1.46.36.5.76-.27z" data-originalStrokeWidth="0.25" style="shape-rendering: auto; stroke: rgb(0, 0, 0);"></path>


<path id="Piracuruca" fill="#ccccb8" stroke="#000" stroke-width=".25" d="m604.05 187.06.65.85.53.28.16.57-.02.71.56.2.74-.74.73-.36.38.85.61.54-3.64 4.8-1.25.28-1.18.05-.17 1.33-2.28-.67.4-.45v-.47l-.6-.2-1.48.12.14-1.18-1.1-.58.12-.95.67-.7.53.02 2.63-.91v-.28l-.47-.18-2.06-.31-.65-.58 1.28-1.71.37-.91.47.24.02 1.53 1.2-.14.5-.44z" data-originalStrokeWidth="0.25" style="shape-rendering: auto; stroke: rgb(0, 0, 0);"></path>


<path id="Piripiri" fill="#ccccb8" stroke="#000" stroke-width=".25" d="m604.53 197.22-.49 1.34-.64.95-.84-.15-.16.66-.33.2-.55.06.16.73.3.25h.64l-.59.95-1.62 1.5-.16.4-.29-.45-.9-.62-.75-.88-.7-.23-.25-.34-.47.07-.52-.13-.16-.35-.7-.42-.35-.47.47-.18v-1.27l.07-.48.31.02.44-.45.62.05-.04-.7 2.07.33.08-.51.69.63 1.85.19 1.4-1.31.05.24.87.08z" data-originalStrokeWidth="0.25" style="shape-rendering: auto; stroke: rgb(0, 0, 0);"></path>


<path id="Porto" fill="#ccccb8" stroke="#000" stroke-width=".25" d="m583.55 195.69-.46-.08-.69-.65-.74-1.3.17-.44.74-.48.31-.76.67-1.42.22-.21.27.25-.28.8.45.79.42.15-.05.4-1.25 1.02.15.97-.22.43z" data-originalStrokeWidth="0.25" style="shape-rendering: auto; stroke: rgb(0, 0, 0);"></path>


<path id="Porto_Alegre_do_Piauí" fill="#ccccb8" stroke="#000" stroke-width=".25" d="m561.51 243.01.54.12.31.43.88.72-.52.6-.66.43-.38.58.11.57-.36.02v.42h-.82l-.15.25-.3 1.5-.73 2.31-.37-.38-1.44-1.45-.3.06-.58-.56-.57-.1-.28-.44h-.48l-.05-.35.52-.66.23-.03.5-.51.12-.66.48-.22.05-.62.54-.35.27-.53.47.08-.3-.6.47-.05.21.32.32-.23.1-.71.35-.14.81-.05.55-.25z" data-originalStrokeWidth="0.25" style="shape-rendering: auto; stroke: rgb(0, 0, 0);"></path>


<path id="Prata_do_Piauí" fill="#ccccb8" stroke="#000" stroke-width=".25" d="m592.88 223.22.7.31.34.6-.14.7.22.62.12.18-2.06-.02v.23l-.52-.45.1-.56-.02-1.26.46-.3z" data-originalStrokeWidth="0.25" style="shape-rendering: auto; stroke: rgb(0, 0, 0);"></path>


<path id="Queimada_Nova" fill="#ccccb8" stroke="#000" stroke-width=".25" d="m605.95 269.98.53.7.75-.06.06.2.9.08.44.48.46.2.06.4.53-.35.02.5-.24.4.2.34.78.21.34.88-.1.22-.3.82-.56.21-.27.91-.67.31h-.63l-.23.37-.65.46h-.38l-.4-.02-.34-.03-.45-.67-.67.8-.46.37-.5-.16.16-1.16.46-1.02.26-1.23-.42-.4.1-.6-.3-.55.13-.27.12-1.08h.23l.16-.52-.2-.25.08-.49.4-.29z" data-originalStrokeWidth="0.25" style="shape-rendering: auto; stroke: rgb(0, 0, 0);"></path>


<path id="Redenção_do_Gurguéia" fill="#ccccb8" stroke="#000" stroke-width=".25" d="m559.52 292.79-2.56 1.29-2.04 1.03-.8.2-1.1-.2-.48-.31-.57.45-1.85.5-.4.21-.47.02-.14-.4.22-.42-.06-1.33-.22-.39.22-.23v-.59l.26-.43-.6-.05-.41.23-.07-.17-2.61-1.6 1.62-3.43 3.59 1.93.27-1.1 1.4.51.63.32 3.09 1.17z" data-originalStrokeWidth="0.25" style="shape-rendering: auto; stroke: rgb(0, 0, 0);"></path>


<path id="Regeneração" fill="#ccccb8" stroke="#000" stroke-width=".25" d="m590 233.6.13 1.04.52.12-.14.38v1.25l-1.03 1.95-.1.2-4.02.02-.2-.5-1.35-3.55-.8-.48-.09-.85h.63l-.02-.64 1.12-.08 1.35.52.17.3 1.64-.03.06.65z" data-originalStrokeWidth="0.25" style="shape-rendering: auto; stroke: rgb(0, 0, 0);"></path>


<path id="Riacho_Frio" fill="#ccccb8" stroke="#000" stroke-width=".25" d="m549.25 295.99-.03.4.35.5-.03.36.58.44-.42.4.25.7-.54.99-.12.8-.31.07-.31.64-.38-.03-.47-.31h-.32l-.85-.64-.83-.05.73 2.39-.33 1.18.03 2.07-3.65-3.5-1.86.15 1.39-2.9 1.26-2.66.89-.78h.46l.5-.8.05-1.12.43-.38.3.54 2.62-1.72-.13-.35.42-.23.6.05-.26.43v.59l-.22.23.23.39.06 1.33-.23.4z" data-originalStrokeWidth="0.25" style="shape-rendering: auto; stroke: rgb(0, 0, 0);"></path>


<path id="Ribeira_do_Piauí" fill="#ccccb8" stroke="#000" stroke-width=".25" d="m585.32 259.08-.27.25.07 2.11.13.86.55.07.23.33-.7.13.48 3.08.59.26.95.43.15 2.28-.55.14-.73-.3-.23.38.18.44-.13.34-.57.21h-.57l.4-1.22-.1-1.16.13-.78-.44-.19-.55-.74-.35-.7-.94-.2v-.78l.46-3.49-1.24-1.36.5-.84.86-.55.01-.57 1.73-.13z" data-originalStrokeWidth="0.25" style="shape-rendering: auto; stroke: rgb(0, 0, 0);"></path>


<path id="Ribeiro_Gonçalves" fill="#ccccb8" stroke="#000" stroke-width=".25" d="m542.88 255.56.19 1.02.99 5.86-3.61-.69-.72.05-.66-.8-.81.24-1.04 1.93 1.3.77-.04.52-1.44 1.3-.7.32-.53-.28-1.11 3.87.38 1.26 1.7-.12-1.34 5.12-.76-1.1-.35-.27-.62-.14-.57-.55-.68-.34-.85-.02-.66-.9-.04-.25-.55-.33-.23-.43.29-.92.4-.83.07-.67.95-.81-.1-.24.56-.61-.07-.5.19-.26-.15-.33.29-.45.1-.45-.25-.26.43-.4-.27-.21.23-.42.28-.94-.04-.35.38-.24-.32-.41.48-.67.03-.41.34-.23.15-.7-.1-.34.32-.26-.01-.43.25-.35 1.02-.54.05-.44.4.07.53-.45.13-.27 1.3-.11.5-.4.31.32.61-.44.46-.52.5.03.72-.21.64.19 1.07-.54z" data-originalStrokeWidth="0.25" style="shape-rendering: auto; stroke: rgb(0, 0, 0);"></path>


<path id="Rio_Grande_do_Piauí" fill="#ccccb8" stroke="#000" stroke-width=".25" d="m576.91 263.17-.06.42-.16.4-1.16-.36.54-.57-1.21-.9-.42.23-.65.05-.88-3.07 1.59-1.44 1.93 1 .92 1.12-.12.09-.12 2.39z" data-originalStrokeWidth="0.25" style="shape-rendering: auto; stroke: rgb(0, 0, 0);"></path>


<path id="Santa_Cruz_do_Piauí" fill="#ccccb8" stroke="#000" stroke-width=".25" d="m601.33 252.44.15.29 1 .13.14.42-.42.74-2.67.54-.7-1.18.5-.07.23-.26-.21-1.2.06-.42-.95-.83-1.4-.27.35-1.07-.33-1.09.36-.2.67-.12.8.38.9.72.3.71.36.33-.04.42.54.31-.4 1.63.2.47z" data-originalStrokeWidth="0.25" style="shape-rendering: auto; stroke: rgb(0, 0, 0);"></path>


<path id="Santa_Cruz_dos_Milagres" fill="#ccccb8" stroke="#000" stroke-width=".25" d="m601.52 228.9-1.7 1-.63-.97-.45.3-.3.45-.73.76-.36.04-1.2.45-1.58-.63 1.08.02.5-.15.1-1.94-.15-.36-.44.12-.56-.34-.32-.45-.09-.54-.27-.2.27-.57-.16-.25-.54-.18-.22-.62.58.08.82.28.35-.03.45.24.05.35.5.2.86-.08.48.3 1.09-.04.46-.24 1.27-.2 1.05 2.55z" data-originalStrokeWidth="0.25" style="shape-rendering: auto; stroke: rgb(0, 0, 0);"></path>


<path id="Santa_Filomena" fill="#ccccb8" stroke="#000" stroke-width=".25" d="m530.13 271.6.23.43.55.33.04.25.65.9.85.03.68.33.57.55.62.14.35.27.76 1.1.37.4.06.48-.23.56.05.65-.12.8.13.48-.19.82-.39.22-.88 1-.18.45-.35.2-.04.37-.64.74-.36.22.16.46.45.5-.1.63.4.54 1.8 5.08h-1.84l-.04.43-.27.23-.94.37-.52-.06-.55.34-.4.05-.37.38-.48-.2-.47-.59-.46-.18-.4-.35.13-.05-.28-1.1-.52-.78-.34-.3-.7-.14-.36-.9.18-1.14v-.85l-.36-.46-.2-.56.11-.66-.32-.62.1-.3-.57-1.09-.42-.48-.06-.4.5-.89-.1-.25.4-.3-.18-.52.38-.5.85-.82.87-.44.37-.92-.04-.28.3-.44.51-.1-.32-.45.4-.3.32-.58-.06-.27.33-.46-.12-.85.26-.43.11-.6z" data-originalStrokeWidth="0.25" style="shape-rendering: auto; stroke: rgb(0, 0, 0);"></path>


<path id="Santa_Luz" fill="#ccccb8" stroke="#000" stroke-width=".25" d="m562.6 282.75-1.55 2.75 1.55 2.47-6.51-3.9-1.31-1.13v-.61l.37-.46-.23-.44-.88-1.96.86-.6.63.43-.55.42.55.26.44.38z" data-originalStrokeWidth="0.25" style="shape-rendering: auto; stroke: rgb(0, 0, 0);"></path>


<path id="Santana_do_Piauí" fill="#ccccb8" stroke="#000" stroke-width=".25" d="m602.58 244.22.45.55 1.29.73h1.2l.1.81.34.73-.4.01-.61-.07-.73-.3-.57-.74.1-.66-1.24-.5-.01.14h-.08z" data-originalStrokeWidth="0.25" style="shape-rendering: auto; stroke: rgb(0, 0, 0);"></path>


<path id="Santa_Rosa_do_Piauí" fill="#ccccb8" stroke="#000" stroke-width=".25" d="m593.22 242.32.46.41-.02.74-.24.24.17.43-.77.33-.33.8-.88.27-.24-.31-.14-.56-.73.24.06-.72-.37.05-.87-.35-.04-.26.45-.11.26-.5-.27-.73.31-.43 1.11.8 1.61.28z" data-originalStrokeWidth="0.25" style="shape-rendering: auto; stroke: rgb(0, 0, 0);"></path>


<path id="Santo_Antônio_de_Lisboa" fill="#ccccb8" stroke="#000" stroke-width=".25" d="m610.8 242.66-.27 2-.51 2.27-.1 2.17-.71-.08-.39-.57-1.1-1.27.1-.3.4-.22.07-.3.72-.19.07-.36.7-.7-.1-.8-.25-.43-.16-.48.57-.44.15-.6-.14-.97.12-.28 1.05-.15z" data-originalStrokeWidth="0.25" style="shape-rendering: auto; stroke: rgb(0, 0, 0);"></path>


<path id="Santo_Antônio_dos_Milagres" fill="#ccccb8" stroke="#000" stroke-width=".25" d="m584.13 230.82-.94-.02-.53-.57-.05-.22.22-.26.61.01.14.18.02.75z" data-originalStrokeWidth="0.25" style="shape-rendering: auto; stroke: rgb(0, 0, 0);"></path>


<path id="Santo_Inácio_do_Piauí" fill="#ccccb8" stroke="#000" stroke-width=".25" d="m598.12 256.54-.52-.1-.35.36-.62.05-.32-.37-.77.12-.71.28-.26.48-2.75.72.81-1.8-.85-1.47.53.04 4.17-2.07 1.41-.55.74.92-.55 1.29.14.23-.19 1.03z" data-originalStrokeWidth="0.25" style="shape-rendering: auto; stroke: rgb(0, 0, 0);"></path>


<path id="São_Braz_do_Piauí" fill="#ccccb8" stroke="#000" stroke-width=".25" d="m580.7 283.65-1.35.65-1.06.41-.62-.74-1.32.02-.2.13-.2-1.83.6-3.19 1.11.05-.05-2.02.65.16.11 1.78.22.6.2 1.3-.07.5.63.63.38.78z" data-originalStrokeWidth="0.25" style="shape-rendering: auto; stroke: rgb(0, 0, 0);"></path>


<path id="São_Félix_do_Piauí" fill="#ccccb8" stroke="#000" stroke-width=".25" d="m594.58 230.3-.43.26-1.01-.34-2.04-1.63.44-.65.08-.47 1.27-.2.15-.43-.2-.37-.8-.18.02-.45v-.23l2.06.02-.12-.17.54.18.16.26-.27.57.27.2.09.54.32.44.56.34.44-.12.14.36-.1 1.94-.5.15z" data-originalStrokeWidth="0.25" style="shape-rendering: auto; stroke: rgb(0, 0, 0);"></path>


<path id="São_Francisco_de_Assis_do_Piauí" fill="#ccccb8" stroke="#000" stroke-width=".25" d="m605.28 266.44.32.49-.3.25-.4.66.5.26.87.2.48.28-.03.54-.52.35-.25.5-.6-.28-.4.3-.07.49.19.25-.16.5-.23.02-.6.1-.9-.87-.65-.1-.82-.35-.58-.44-.11.18-.94.49-.4-.4-.2-.67v-.52l.7-.71-.58-1.08.65-.57.82-.34 1.07.15 2.17-.98.33-.01.43.19.42.58.1.4z" data-originalStrokeWidth="0.25" style="shape-rendering: auto; stroke: rgb(0, 0, 0);"></path>


<path id="São_Francisco_do_Piauí" fill="#ccccb8" stroke="#000" stroke-width=".25" d="m590.16 251.01-.9 3.43-3.02-.75-.66.31-.63-.23-1.02-3.13.45-.77-.31-1.13.2-1.92.32.2.56-.03 3.06-.5.08 1.55.17.73-.1.82.15.48z" data-originalStrokeWidth="0.25" style="shape-rendering: auto; stroke: rgb(0, 0, 0);"></path>


<path id="São_Gonçalo_do_Gurguéia" fill="#ccccb8" stroke="#000" stroke-width=".25" d="m542.13 299.64-1.4 2.9-1.52.11-1.65 1.01-1.81.76-1.81 1-.56-.44-.02-.57-.58-.48.2-.75.6-.23-.07-1.2-.4-.89-.35-.52.14-.7 3.02.11 1.89.08.26-.88 2.07.01z" data-originalStrokeWidth="0.25" style="shape-rendering: auto; stroke: rgb(0, 0, 0);"></path>


<path id="São_Gonçalo_do_Piauí" fill="#ccccb8" stroke="#000" stroke-width=".25" d="m585.2 229.66-.69.43-.19.88-.2-.15-.52-.13-.02-.75-.14-.18h-.6l-.23.26.01-.43.24-.02.14-.79.51-.13.42-.1 1.46-.09z" data-originalStrokeWidth="0.25" style="shape-rendering: auto; stroke: rgb(0, 0, 0);"></path>


<path id="São_João_da_Canabrava" fill="#ccccb8" stroke="#000" stroke-width=".25" d="m607.26 244.66-.26.16-.7-.2-.07-.55-.25-.59.2-.35-.37-.53-.58-.08.28-1.28-.95-.05-.28-1.06.05-.9 1.45.15.98.5 1.57 1.01.14.48-.93 1.28.32.31.1.57-.52.14z" data-originalStrokeWidth="0.25" style="shape-rendering: auto; stroke: rgb(0, 0, 0);"></path>


<path id="São_João_da_Fronteira" fill="#ccccb8" stroke="#000" stroke-width=".25" d="m609.1 188.96-.4.59.13.5-.6.84.3.28.07.44.37.59.3.28.15.52-.15.47-.36.39.17.47 1 .02.25.27.86.06.13.24-.47 1.25.38.79.35.27-.65-.07-.53.19-.55-.71-.66.16-.29-.32-.27.4-.51.09-.33-.33-.4-1.7-2.63-.17 3.64-4.8-.61-.54-.38-.85v-.13h.48l.5.3z" data-originalStrokeWidth="0.25" style="shape-rendering: auto; stroke: rgb(0, 0, 0);"></path>


<path id="São_João_da_Serra" fill="#ccccb8" stroke="#000" stroke-width=".25" d="m600.13 221.31-.18.24-.8.37.63.98-.06.26.02 1.62-.81-.58-1.76-.21-.76-.4-2.83-1.28 1.14-.7.43-.1.52-.59v-.2l.73-1.18.24-.65.32-.45.69-.08.44-.28 1.25.68.23-.2.43.5 1.04.72-.06.45-.64.4-.32.51z" data-originalStrokeWidth="0.25" style="shape-rendering: auto; stroke: rgb(0, 0, 0);"></path>


<path id="São_João_da_Varjota" fill="#ccccb8" stroke="#000" stroke-width=".25" d="m597.13 244.06.7.5 1.13 1.44.08-.2.2 1.04.29-.42.87.95-.83.35-.66.52-.8-.38-.66.12.32-.51-1.56-.2.08-.38-.7-.67.2-.56.53-.86.03-.26z" data-originalStrokeWidth="0.25" style="shape-rendering: auto; stroke: rgb(0, 0, 0);"></path>


<path id="São_João_do_Arraial" fill="#ccccb8" stroke="#000" stroke-width=".25" d="m589.14 189.93-.34.25-.1.9.3.77-.42.39h-.27l-1.33-.48-1.03-1.2.37-.54.68-.27.32.23.51-.43.76.16.38-.07z" data-originalStrokeWidth="0.25" style="shape-rendering: auto; stroke: rgb(0, 0, 0);"></path>


<path id="São_João_do_Piauí" fill="#ccccb8" stroke="#000" stroke-width=".25" d="m593.22 268.38 1.58 1.25 1.07.34 1.12-.7-.6 2.06-.47-.82-.87 2.4-2.11.18.49 1.66-.6.42-.56-1.44-1.86-1.06-.65-.89-4.86-1.7.57.02.57-.21.13-.34-.18-.44.23-.4.73.32.55-.14-.15-2.28-.95-.43 1.44-.27.7.36-.32.39.42.44.89.57 1.13.5.63.46-.3.67.72.08.68.25.33-.05.4-.47-.11-.21z" data-originalStrokeWidth="0.25" style="shape-rendering: auto; stroke: rgb(0, 0, 0);"></path>


<path id="São_José_do_Divino" fill="#ccccb8" stroke="#000" stroke-width=".25" d="m596.99 188.32 1.02.77.65.58 2.06.32.46.18v.28l-2.63.9h-.53l-.67.69.1-1.6-1.47-.22.14-1.67.2-.18z" data-originalStrokeWidth="0.25" style="shape-rendering: auto; stroke: rgb(0, 0, 0);"></path>


<path id="São_José_do_Peixe" fill="#ccccb8" stroke="#000" stroke-width=".25" d="m584.96 253.78.63.23.66-.31 3.02.75.86.25-.12.43-.5.43-.4.65-.4.3-.49-.18-.5.2-.71-.16.1.6-.03 1 .15 1.5-.11 2.37-.46.11-1.34-2.87.05-1.7-1.73.13-.06-2.14-2.05-1.48-.78-.56.47-1.32.54.28 1.04-1.84.36.02.31 1.26-.17.5.41.32.26.74h.66z" data-originalStrokeWidth="0.25" style="shape-rendering: auto; stroke: rgb(0, 0, 0);"></path>


<path id="São_José_do_Piauí" fill="#ccccb8" stroke="#000" stroke-width=".25" d="m606.3 244.62-.26.3v.42l-.53.17h-1.2l-1.29-.73-.45-.55.02-.1 1.13-1.7 1.12.12-.28-1.36.95.05-.29 1.28.58.08.38.54-.2.35.25.59z" data-originalStrokeWidth="0.25" style="shape-rendering: auto; stroke: rgb(0, 0, 0);"></path>


<path id="São_Julião" fill="#ccccb8" stroke="#000" stroke-width=".25" d="m617.03 247.1.5.37.57 1.4.64.73.03.28-.67.01-.82-.45-1.2-.15-.22.38-.45.17-.53-.56-.85-.32.82-.55 1.04-.99.07-.62.6.06z" data-originalStrokeWidth="0.25" style="shape-rendering: auto; stroke: rgb(0, 0, 0);"></path>


<path id="São_Lourenço_do_Piauí" fill="#ccccb8" stroke="#000" stroke-width=".25" d="m589.84 285.69-.73.05-.58-.18-1.06-.1-.55 1.5-2.62 1.33-.76-.75.1-1.02-.07-.53.19-.91.73-1.12.62.5.09-.87 1.28.25.66-.5.06.53.34 1.07.35-1.03.46-.88.62-.28.72.28-.17.46-.37.44-.15.63.34.59-.04.26z" data-originalStrokeWidth="0.25" style="shape-rendering: auto; stroke: rgb(0, 0, 0);"></path>


<path id="São_Luis_do_Piauí" fill="#ccccb8" stroke="#000" stroke-width=".25" d="m609.85 241.4.14.96-.15.6-.57.45.16.48-.65.18-.21.39h-.88l-.43.2.18-.98.52-.14-.1-.57-.32-.31.93-1.28z" data-originalStrokeWidth="0.25" style="shape-rendering: auto; stroke: rgb(0, 0, 0);"></path>


<path id="São_Miguel_da_Baixa_Grande" fill="#ccccb8" stroke="#000" stroke-width=".25" d="M591.6 223.57zl.02 1.26-.1.56.52.45-.02.45.81.18.2.37-.15.43-1.27.2-.08.47-.44.65-1.2-.09-.84-.15.05-.54 1.02-1.26-.46-.32-.22-.44.31-.52.14-.64-.09-.4.38-.78.64-.34z" data-originalStrokeWidth="0.25" style="shape-rendering: auto; stroke: rgb(0, 0, 0);"></path>


<path id="São_Miguel_do_Fidalgo" fill="#ccccb8" stroke="#000" stroke-width=".25" d="m591.83 258.07-.06.12-1.41-.04 1.94 1.68-2.93.03-.7.5-.37.08-1.07-.98-.15-1.49.03-1-.1-.6.7.15.52-.19.49.18.4-.3.39-.66.5-.43.12-.43 1.66.11.85 1.48z" data-originalStrokeWidth="0.25" style="shape-rendering: auto; stroke: rgb(0, 0, 0);"></path>


<path id="São_Miguel_do_Tapuio" fill="#ccccb8" stroke="#000" stroke-width=".25" d="m614.43 219.47.37.52-.23.44-.13.59.07.4.3.27.23.77-.09.6-4.6-.01v2.56l-1.6 1.58v4.15l-1.27.4.21.46-.79.33-.09-.54-.85-.33-1.64.38.16-.65-1.69-.38-.79-.33-.67-.71.2-1.07.2-.65-1.05-2.54-1.27.19-.46.24-1.1.05-.48-.31-.86.09-.49-.21-.05-.35-.45-.24-.35.03-.82-.28-.58-.08.14-.7-.34-.6-.7-.31.27-.14.04-.47.4-.3 2.82 1.27.76.4 1.76.2.81.59-.02-1.62.06-.26-.63-.97.81-.37.18-.24.68.28.78.12.86.55.91-.13.71.17.07-.4 1.28-.7.34-1.01.95-.2.11-.22.68-.05.6-.68.88-.14 1.01-.21.82.5 1.07-.27.8-.03.47.19.56-.14.34.52z" data-originalStrokeWidth="0.25" style="shape-rendering: auto; stroke: rgb(0, 0, 0);"></path>


<path id="São_Pedro_do_Piauí" fill="#ccccb8" stroke="#000" stroke-width=".25" d="m581.25 223.7.11.35.72-.15.4.5.36.5.08 1.25 1.13.27-.36 1.14-.17 1.1-.51.13-.14.79-.24.01-.86.07.09-.92.63-2-.58-.05-1.31.4-.04-.39-1.55-2.26.09-.27z" data-originalStrokeWidth="0.25" style="shape-rendering: auto; stroke: rgb(0, 0, 0);"></path>


<path id="São_Raimundo_Nonato" fill="#ccccb8" stroke="#000" stroke-width=".25" d="m582.82 276.85-.14 2.05 2.29-1.27.53 3.16.27.55.65-.55.56.4 1.53.4.64-.78.44.64.35.9-.26.68-.72-.28-.62.28-.46.88-.35 1.03-.34-1.07-.06-.52-.66.49-1.28-.25-.09.87-.62-.5-.73 1.12-.19.9.07.54-.1 1.02.76.75-1.43.17-.14.3-.8.13.15-1.37-1.09-.14-.09-.52.63-1-.22-.47.28-.54-.4-.82-.49-.37-.97-.77-.38-.78-.63-.64.08-.5-.2-1.3-.22-.6-.1-1.77.46.06 1.11-.26.98-.11 1.17-.03z" data-originalStrokeWidth="0.25" style="shape-rendering: auto; stroke: rgb(0, 0, 0);"></path>


<path id="Sebastião_Barros" fill="#ccccb8" stroke="#000" stroke-width=".25" d="m546.03 307.68 1.73 1.4-1.08 1.03.88 1.97.94 1.44-.25.16-.6-.11-.76.46v.28l-.53.08-.4.68.03.34-.68.61-.3-.28-.31-2.35-1.97-1.52-.54-.2-.08-.7 1.12.01 1.3-1.87.67-.18.16-.53.57-.35z" data-originalStrokeWidth="0.25" style="shape-rendering: auto; stroke: rgb(0, 0, 0);"></path>


<path id="Sebastião_Leal" fill="#ccccb8" stroke="#000" stroke-width=".25" d="m564.1 253.53 1.62-.68.52 1.9-1.37 1.44-.23 1.02-1.16-.64v-.65l-.22-.12-.45.36-.51-.3-.34.26-.52.78-.3.24-.23.56-.76-.14.59 7.23-2.2.46-.54 4.34-4.12.37.83-2.88.96-3.48 2.07-6.92-3.7-2.1-.1-1 .06-.7.3-.54.73-.62.56-.36.15.54 1.28 2.55.9 2.05.2-.59 1.52-1.36 3.6-1.25z" data-originalStrokeWidth="0.25" style="shape-rendering: auto; stroke: rgb(0, 0, 0);"></path>


<path id="Sigefredo_Pacheco" fill="#ccccb8" stroke="#000" stroke-width=".25" d="m600.13 206.47.9 1.1.72.19.2.6-.8 3.2h-.56l-.4 1.19.06.35-.68.29v.59l-.17.6.09.55-.34.12.02-.1-3.18-.44.62-2.51 1.27-2.23v-.31l.82-.5.29-.91.63-.3.04-.58.28-.36z" data-originalStrokeWidth="0.25" style="shape-rendering: auto; stroke: rgb(0, 0, 0);"></path>


<path id="Simões" fill="#ccccb8" stroke="#000" stroke-width=".25" d="m616.78 255.63.68-.16.9.09.18.68.41.69.63.65.34.66.08.47-.24.73-.55.47-.12.62.5.45 1.18.32.42.24.3.68-.15 1.4.04.45-.18-.22-.77.1-.88-.27-.64-.36-.14-.4.25-.5-.3-.28.08-.66-.24-.51-.53-.16h-.79l-.52-.2.18-1.3-.55-.45-.42-.72-.58-.05-.26-.41-.74-.04-.41-.12-.3-.58-.1-.47.83-.46.1-.17.48-.13.66-.73z" data-originalStrokeWidth="0.25" style="shape-rendering: auto; stroke: rgb(0, 0, 0);"></path>


<path id="Simplício_Mendes" fill="#ccccb8" stroke="#000" stroke-width=".25" d="M599.64 261.5v.09l1.84.27-.81.27.2 1.52-.45.4-.8-.49-.8-.04-.63.15-.42-.76-.6-.37-.4.51-1.55.07.04.5-.61.66-.7-.43-.26.38-.31-.23-.77-.7-.95-.22-.04-.38.52-1.56.66-.88-.5-.43-1.94-1.68 1.4.04.07-.12 2.75-.72-.1.17.51.5.33.54.87.97.32.66.33.25 1.1.3.54.7.6.24z" data-originalStrokeWidth="0.25" style="shape-rendering: auto; stroke: rgb(0, 0, 0);"></path>


<path id="Socorro_do_Piauí" fill="#ccccb8" stroke="#000" stroke-width=".25" d="m585.32 259.08 1.34 2.87.46-.1.1-2.39 1.08.98 1.03.96.34 2.43-.42.03-.31.76-.76.14-.34 1.14-1.44.27-.58-.26-.48-3.08.69-.13-.23-.33-.55-.07-.13-.86-.07-2.1z" data-originalStrokeWidth="0.25" style="shape-rendering: auto; stroke: rgb(0, 0, 0);"></path>


<path id="Sussuapara" fill="#ccccb8" stroke="#000" stroke-width=".25" d="m607.83 246.88-.11.3 1.1 1.27.38.58-1.77-.21.03-.66-.7.1-.56-.22-.05-.26-.56-.53-.02-.2h.39l-.33-.73-.11-.81.53-.17.22.06.1.78.82.64z" data-originalStrokeWidth="0.25" style="shape-rendering: auto; stroke: rgb(0, 0, 0);"></path>


<path id="Tamboril_do_Piauí" fill="#ccccb8" stroke="#000" stroke-width=".25" d="m579.52 268.73.01.42.54.47-.17.6-.06.84.42 1.1.55.55-.04.65-.22.4-.92-.04-.88.19-.48-.18-.39.19-.7 1.05-.3.72.04 1.39-.3.75-3.26.12.13-.33-.22-.87.1-.77-.22-.27.22-.43-.27-.96.45-.75.15-.46-.02-.63.1-1.08.2-.26 3.95-1.61 1.12-.8z" data-originalStrokeWidth="0.25" style="shape-rendering: auto; stroke: rgb(0, 0, 0);"></path>


<path id="Tanque_do_Piauí" fill="#ccccb8" stroke="#000" stroke-width=".25" d="m593.07 240.75.15 1.58-.46.6-1.61-.27-1.11-.8-.31.43-.53-.28.04-.61-.23-.05.34-2.62.83-.25.07 1.34 1.77.62.4.39z" data-originalStrokeWidth="0.25" style="shape-rendering: auto; stroke: rgb(0, 0, 0);"></path>


<path id="Teresina" fill="#ccccb8" stroke="#000" stroke-width=".25" d="m585 210.01.01 3.45.04 1.68-.04 1.02-.57-.09-.47.52-.34-.07-1.23 1.18.01 1.5.01 1.89v.19l-.73-.38-.39-.33-.14.4-.48.21-.27.45-.94-.1-.48.54-.5-.44.47-.46.6.12.1-.2 1.01-.1-.08-.6.71.12.75-1.17.28-1.35-.17-.32-.94-.33.06-.63-.3-.77.54-.87-.33-1.56-.32-.5-.16-.88-.33-.99.16-.55-.63-.75-.05-.12 1.36-1.79.48.55 1.01.11.33 1.45 1.4.13z" data-originalStrokeWidth="0.25" style="shape-rendering: auto; stroke: rgb(0, 0, 0);"></path>


<path id="União" fill="#ccccb8" stroke="#000" stroke-width=".25" d="m585.37 201.57-1.6.88-.15 1.16 1.17 1.13-1.31 1.17-.6.7-1 .92-.18.95-.48-.55-1.36 1.8-.08-.8-.73-.6-.2-.7.42-.33-.02-.6-.46-.52.15-.28.5-.36.88-1.5-.15-.49.44-.72-.06-.42-.44-.3.12-.52-.44-.45-.54-.3h-.38l-.28-.44.02-.12 1.36.18.88.5.43.11h1.8z" data-originalStrokeWidth="0.25" style="shape-rendering: auto; stroke: rgb(0, 0, 0);"></path>


<path id="Uruçuí" fill="#ccccb8" stroke="#000" stroke-width=".25" d="m554.75 249.16-.28.75-.07.83-.33.35.95.63-.73.62-.29.53-.06.71.1 1 3.7 2.1-2.07 6.92-.96 3.48-.83 2.89-.37 1.25-.44 1.69-7.69-3.5-.07-.03-1.26-6.93-.99-5.86-.19-1.02 1.1-.24.42-.75.55-.06.37-.63.47-.18.06-.25.65.3.68-.3.2.5.71.1.21-.65.32-.53.8-.36.37-.74.4-.33.11-.35.77-.18.17-.44.68-.48.76-.26.8-.54.37.01.66-.2z" data-originalStrokeWidth="0.25" style="shape-rendering: auto; stroke: rgb(0, 0, 0);"></path>


<path id="Valença_do_Piauí" fill="#ccccb8" stroke="#000" stroke-width=".25" d="m602.12 234.19.45-.21.82.03v.2l.7.23.03.47-.95.46-1.6 2.15-.08.73-.35.53-.6-.05-.1.54-1.96.18-.38.62-.58-1.13-.08-2.3-2.08-1.77-.53-.47.3-.78.12-.57.24-.23.98-.25.7.31.71.08.25.34.57.2.51.43.87-.08.51.27.66-.04.18.17z" data-originalStrokeWidth="0.25" style="shape-rendering: auto; stroke: rgb(0, 0, 0);"></path>


<path id="Várzea_Branca" fill="#ccccb8" stroke="#000" stroke-width=".25" d="m580.9 286.86.09.52 1.09.14-.15 1.37-.1.2-.83-.13-.6.26-.21-.08-.3.5-.9.06-.3.3-.5-.48-.93.23-.34-.31.12-1.11.53-.27 1-.2-.36-.75v-1.07l.35-.4-.16-.44.64.6.6.43-.18.59.3.46.57.44.19-.51z" data-originalStrokeWidth="0.25" style="shape-rendering: auto; stroke: rgb(0, 0, 0);"></path>


<path id="Várzea_Grande" fill="#ccccb8" stroke="#000" stroke-width=".25" d="M593.08 240.75zl-.65.08-.4-.4-1.77-.61-.07-1.34-.01-.12 2.12-.82.06.48.7 1.04-.31.16z" data-originalStrokeWidth="0.25" style="shape-rendering: auto; stroke: rgb(0, 0, 0);"></path>


<path id="Vera_Mendes" fill="#ccccb8" stroke="#000" stroke-width=".25" d="m606.26 256.8.03.52-.59.73-.48 1.3-.2.04-.76-.42-2.37-.9.33-1.33 1.43-.5.27.4.47-.04.25-.23 1.12.2z" data-originalStrokeWidth="0.25" style="shape-rendering: auto; stroke: rgb(0, 0, 0);"></path>


<path id="Vila_Nova_do_Piauí" fill="#ccccb8" stroke="#000" stroke-width=".25" d="m615.58 251.7-1 .38-.76.38-.35-.94.2-.64-.2-.28-.1-1.1.67-.54.85.32.53.56.32.32-.35 1.16z" data-originalStrokeWidth="0.25" style="shape-rendering: auto; stroke: rgb(0, 0, 0);"></path>


<path id="Wall_Ferraz" fill="#ccccb8" stroke="#000" stroke-width=".25" d="m598.84 253.38-.2-.24-.74-.92-1.41.55-.7-1-.24-.3 1.05-.48.46-.66 1.4.27.94.83-.06.43.22 1.2-.22.26z" data-originalStrokeWidth="0.25" style="shape-rendering: auto; stroke: rgb(0, 0, 0);"></path>

</svg>