<?xml version="1.0" standalone="no"?>
<svg xmlns="http://www.w3.org/2000/svg" id="map" version="1.2" width="800" height="800" viewBox="575 150 125 125"> 

<path id="Abaiara" fill="#ccccb8" stroke="#000" stroke-width=".25" d="m649.22 254.62-1.92-.1-.42-1.44.05-.34.32-.36-.02-.57-.17-.16.75.56.86.3.25.48.22.79.22.29z" data-originalStrokeWidth="0.25" style="shape-rendering: auto; stroke: rgb(0, 0, 0);"></path>


<path id="Acarape" fill="#ccccb8" stroke="#000" stroke-width=".25" d="m655.41 196.91.08.35.78.93-.74-.17-.25.4-.46-.03-.6.72-.6-.13.23-.56-.18-1.08.35-.27.78-.25z" data-originalStrokeWidth="0.25" style="shape-rendering: auto; stroke: rgb(0, 0, 0);"></path>


<path id="Acaraú" fill="#ccccb8" stroke="#000" stroke-width=".25" d="m632.01 174-.42 1.14-.14 1.24-.16.29.19 1-.31.37-.06.69.09.48-.14.66.55.71.35.08.68.52-.47.75-1.21-1.69-1.25-1.72-.2-.13.02-.51-.68-.9-.6-.05v-.7l-.27-.14.01-.72.36-.68-.02-.38-.55-.26-.24.06-1.35-.05-.3.1-.62-.25-.65.09-.2-.96.82-.11 1.58.16.85-.05.79.49.3-.3.94.25.24-.05 1.66.3z" data-originalStrokeWidth="0.25" style="shape-rendering: auto; stroke: rgb(0, 0, 0);"></path>


<path id="Acopiara" fill="#ccccb8" stroke="#000" stroke-width=".25" d="m647.78 229.84-.72 1.04.02.17-.9 1.06-2.1-.46-.85.82-.86.9-.6-.07-.47.42v.28l-.83.34.08.78-.29.22-.28-.19-.55.23-.35-.34-.3.22-.6-.4-.56.16-.46.32-.85-.16-.16.22-.2-1.2-.27-.25.35-.78-.63.26-.34-.43-.34.03-.18-.29.05-.75-.48-.39-.28.1-.93-.3.06-.3 1.12-.98.21-.5.43.13.36-.23 1.17-.05.5.3.08-.49.31-.49.73.27.8-.34-.02.43.35.35.2-.48.96.15.3-.13.87.1.6-.22.33.13.76.45.25-.23.5.2.2-.14.95-.1.27-.6.49.06.16-.1.53.5.32-.1.93.46z" data-originalStrokeWidth="0.25" style="shape-rendering: auto; stroke: rgb(0, 0, 0);"></path>


<path id="Aiuaba" fill="#ccccb8" stroke="#000" stroke-width=".25" d="m629.51 235.88.14.57.75.56-.24.32-.2.91.46.7.11.74-.5.51.3.54-.32.56.7-.03.2.26-.09.41-1.26 1.44-.58.46-.55.02.22-.15-.3-.45-.6-.44-.34.26-.68.04-.43.36-.61.17-.31-.1-.58.12-.34-.08-.33-.1-.76.27-.36-.5-.1-.47-.34-.44-.72-.05-1.5-.25-.53-.3-.34-.37-1.04-.04-.39-.4.18-.63-.25-.3 1.1.01.03.18 1.1-.15.21-.16.35-.8.45.02.45-.2 1.32-.26.19-.6.9-.26.4-.45.04-.34.7-.5 2.49-.66.65-.07.66-.2z" data-originalStrokeWidth="0.25" style="shape-rendering: auto; stroke: rgb(0, 0, 0);"></path>


<path id="Alcântaras" fill="#ccccb8" stroke="#000" stroke-width=".25" d="m621.8 185.44-.02.54.8.23-.4.35v.92l-.27.34-.6.08-.7-.26-.35-.76.14-.45.38-.07.42-.5.24-.28z" data-originalStrokeWidth="0.25" style="shape-rendering: auto; stroke: rgb(0, 0, 0);"></path>


<path id="Altaneira" fill="#ccccb8" stroke="#000" stroke-width=".25" d="m636.64 247.34-.63-.24-.55.36-.93-.2.73-.31.4-.35.6-.34.17.23.94-.38.1.4-.45.68z" data-originalStrokeWidth="0.25" style="shape-rendering: auto; stroke: rgb(0, 0, 0);"></path>


<path id="Alto_Santo" fill="#ccccb8" stroke="#000" stroke-width=".25" d="m668.46 219.41-.37 1.14-.57.1-.3.54-.69.34-.15.52-.28.16-.4.8-.8.59-.97.05-1-.75-.35-.01-.62.23-.28-.3-.05-.47-2.92.45-.08-1.45-.4-.57.53-.8.03-.35-.2-.4.24-.18.23-.72.33-.2.94.72.49-.36.93.48.02-.28.52-.03 1.27-.62-.55 1.34h5.47z" data-originalStrokeWidth="0.25" style="shape-rendering: auto; stroke: rgb(0, 0, 0);"></path>


<path id="Amontada" fill="#ccccb8" stroke="#000" stroke-width=".25" d="m638.95 177.75-.28.92-.75.4-.3-.09-.95.61-.03.4-.4.7-.44-.02.46 1.4-.62.6.05.76-.86 1.13-1.24-.2-1.72-.36-.61.14-.74-.06.55-.5.15-.77.85-.55.1-.33.47-.75.33-.87-.24-.29.6-.67v-.8l2.81-1.95-.2-.3.77.07.3.35.71.1.5.75z" data-originalStrokeWidth="0.25" style="shape-rendering: auto; stroke: rgb(0, 0, 0);"></path>


<path id="Antonina_do_Norte" fill="#ccccb8" stroke="#000" stroke-width=".25" d="m633.96 241.75-1.35 1.13-1.37.91-.27-.2-.91.38.03.33-.45.23-.18-.18-1.05-.29.03-.2.55-.03.58-.46 1.26-1.44.09-.4.32-.12.83.56.47-.4.64-.18h.69z" data-originalStrokeWidth="0.25" style="shape-rendering: auto; stroke: rgb(0, 0, 0);"></path>


<path id="Apuiarés" fill="#ccccb8" stroke="#000" stroke-width=".25" d="m645.08 194.85-.42.46-.75.24-.58-.05-.38.12-2.12-2.14-.2.55-.54.1.03-.56.46-.8.5-1.3.27-.45 1.07.26.25.3.56 1.32.26-.29.95-.35.45.8.36.19.2.4-.15.27-.02.65z" data-originalStrokeWidth="0.25" style="shape-rendering: auto; stroke: rgb(0, 0, 0);"></path>


<path id="Aquiraz" fill="#ccccb8" stroke="#000" stroke-width=".25" d="m659.25 190.91.73 1.08 1 .9.55.17.87 1.1-.23.28-.3.1-.7-.12-.36-.2-1 .96-.04.23-.23-.14-1 .01-1.1-.19-.56-.33.3-.42.06-.96.12-.47.37-.2.7-.04.29-.65.28-.11-.12-.63.23-.44z" data-originalStrokeWidth="0.25" style="shape-rendering: auto; stroke: rgb(0, 0, 0);"></path>


<path id="Aracati" fill="#ccccb8" stroke="#000" stroke-width=".25" d="m670.43 201.56.27.2.38.9.35.47.43.31.64.72.87.78 1.11.48-.3 1.38.53.6.41.62.73-.19.81.03.31-.12.77.33-.02 1.12-1.58.41-.37.1-3.06.7.91-2.09-.4-.7-.09-.89-.64-.04-1.62.08-.57-.14-.43-.26-.09-.32-.4-.23-.28.3-1.14-.34-.73-.04-.76-.01-.02-.25.37-.55-.23-.57.1-.75.31-.2 1.7.23.76-.68.63.05.32-.56-.26-.57z" data-originalStrokeWidth="0.25" style="shape-rendering: auto; stroke: rgb(0, 0, 0);"></path>


<path id="Aracoiaba" fill="#ccccb8" stroke="#000" stroke-width=".25" d="m654.1 200.75.42.58.46.04.37-.21.2-.42.66.1.7-.28.02.16-.6.62-.61.13-.51.54-.1.62.23.33.02.54-.49.36.65 1.7.35.3h.34l-1 .55-.56-.67-.47-.18-.2-.7-.32.14-.84.05.32-1.7-.77-.3-.76-.63-.15-.36.01-1.64.32-.83.65.12.39-.27.35.82.6.57z" data-originalStrokeWidth="0.25" style="shape-rendering: auto; stroke: rgb(0, 0, 0);"></path>


<path id="Ararendá" fill="#ccccb8" stroke="#000" stroke-width=".25" d="m619.9 208-.36.32-.3.63-.6.32-.42-.36-.68.43-.14-.49-.48-.42-.5-.08-.32-.45h-.7v-.59l.26-.3-.07-.39.48.11.67-.23.38.12.4-.1.53.15 1.1-.18.18-.33.31.75-.08.32z" data-originalStrokeWidth="0.25" style="shape-rendering: auto; stroke: rgb(0, 0, 0);"></path>


<path id="Araripe" fill="#ccccb8" stroke="#000" stroke-width=".25" d="m632.82 248.78.15.8-.02 3.5-.26-.03-.38.05-1.32.59-.78.1-1.46.03-.52-.18-.68-.24-.82-.71-.44-1.23.28-.33-.02-.5-.3-.47.1-.47.4-.6 1.02-.52.32-.66.5 1.14.72.3.42.29 1.28.1.33-.11 1.12-.9z" data-originalStrokeWidth="0.25" style="shape-rendering: auto; stroke: rgb(0, 0, 0);"></path>


<path id="Aratuba" fill="#ccccb8" stroke="#000" stroke-width=".25" d="m649.2 200.53-.23.23.16 1.03-.34.22-.1.52-.3.42-.23-.1.01-.69-.42-.15-.07-.3-.6-.38-.08-.47.48.22.25-.83.7.38.5-.19z" data-originalStrokeWidth="0.25" style="shape-rendering: auto; stroke: rgb(0, 0, 0);"></path>


<path id="Arneiroz" fill="#ccccb8" stroke="#000" stroke-width=".25" d="m632.97 231.1-.06.3-.16.54.1.27-.54.63-.24-.03-.83.47-.52.05-.2 1-.35-.02-.22.44-.2.91-.23.22-.5-.33-.66.21-.65.07-2.5.66-1.38-1.59 2.53-2.55.1-.32.55-.32.46.23.62-.24.33-.34.65.08.7-.09.4-.23.49-.04.35.16.77-.09.2.07.48-.39z" data-originalStrokeWidth="0.25" style="shape-rendering: auto; stroke: rgb(0, 0, 0);"></path>


<path id="Assaré" fill="#ccccb8" stroke="#000" stroke-width=".25" d="m637.13 243.9.28.44-.3.3.14.53.5.09.18.35-.57.5-.94.38-.16-.23-.6.34-.4.35-.73.32.93.2-.44.68-.62-.42-1 .27h-.46l-.2.28-.74.15-.1-1.17-.32-.14-.57.1-1.3-.06-.16-.4.4-.87-1.17-.82.85-.53.45-.23-.03-.33.91-.4.27.22 1.37-.91.54.07 1.55.6.88.07.58-.36.3.7z" data-originalStrokeWidth="0.25" style="shape-rendering: auto; stroke: rgb(0, 0, 0);"></path>


<path id="Aurora" fill="#ccccb8" stroke="#000" stroke-width=".25" d="m651.23 244.57.64-.04.8.2-.18.65.34.1.4 1.12-.4.35-.29.12-1.31-.4-.94 1.86-.86-.02-1.2 1.2-.44-.2-.5.32-.65-.03-.37-.43.35-.52-.3-.4-.42-.8-.1-.48.25-.4.74-.36.36-.46.77-.66.39-.08.1-.3.89-.29 1.3-.09z" data-originalStrokeWidth="0.25" style="shape-rendering: auto; stroke: rgb(0, 0, 0);"></path>


<path id="Baixio" fill="#ccccb8" stroke="#000" stroke-width=".25" d="m654.47 241.88.29.42.07.46-.51-.03-.68.22-.51-.2-.55-.6-.32.04-.87-.27-.21-.29.27-.45.75-.15 1.52.6z" data-originalStrokeWidth="0.25" style="shape-rendering: auto; stroke: rgb(0, 0, 0);"></path>


<path id="Banabuiú" fill="#ccccb8" stroke="#000" stroke-width=".25" d="m655.42 213.8.1.56-1.14 1.36h-.26l-.29-.45-1.19.06-.6.3-.72 1.2-1.29.7.06 1.59.16.65-.32.53-.82.62-.9-.55-.6.38-.2-.44.28-1-.06-.26-.46-.22.54-1.81.37-.6-.24-.7-.22-.14-.52-.81.1-.38.4-.02.51.24.7-.16.36-.24.27.2 1 .2 1.54-1.72.35.2.56.02.31.28.8-.02.86.5z" data-originalStrokeWidth="0.25" style="shape-rendering: auto; stroke: rgb(0, 0, 0);"></path>


<path id="Barbalha" fill="#ccccb8" stroke="#000" stroke-width=".25" d="m644.13 251.72.9.68-.61 1.08.32.6-.07.3-.48.6v.7l-2.09-.51v2.77l.04.08-.39-.2-.5-.1-.06-.29-.43-.26.05.01-.03-4.18.8-.5.45-.04.51-.7.48-.08z" data-originalStrokeWidth="0.25" style="shape-rendering: auto; stroke: rgb(0, 0, 0);"></path>


<path id="Barreira" fill="#ccccb8" stroke="#000" stroke-width=".25" d="m656.27 198.2.4.64-.1.2.1.7.25.81-.71.28-.67-.1-.2.42-.37.21-.46-.04-.42-.58-.1-.88.22-.76.61-.72.46.04.25-.4z" data-originalStrokeWidth="0.25" style="shape-rendering: auto; stroke: rgb(0, 0, 0);"></path>


<path id="Barro" fill="#ccccb8" stroke="#000" stroke-width=".25" d="m652.84 246.96 1.3.62.3.3.07.03-.13.35.37.44-.38.7-.07.98.66-.06.35.13.08.5-.68.06-.25.16-1.16.1-.63-.04-.15-.15-.27-.14-.77.37-.65-.07-.64.12-.58-1.78.68-1.05.94-1.86 1.32.4z" data-originalStrokeWidth="0.25" style="shape-rendering: auto; stroke: rgb(0, 0, 0);"></path>


<path id="Barroquinha" fill="#ccccb8" stroke="#000" stroke-width=".25" d="m611.52 174.6.27.12.38.95-.2.43-.1.6-.67.8.32.51-.87.55-.3-.34-.06-.35.25-.27-.5-.72-.13-.56-.96-.47-.42-.02-.55-.06-.34-.28-.02-.53.9-.6 1.1.05.58-.07.95.1z" data-originalStrokeWidth="0.25" style="shape-rendering: auto; stroke: rgb(0, 0, 0);"></path>


<path id="Baturité" fill="#ccccb8" stroke="#000" stroke-width=".25" d="m652.83 199.44-.4.27-.63-.12-.32.83-.01 1.64.15.36.76.63.77.3-.33 1.7-.62-.71-.9-2.41-.25-.3-.37.02-1-.78.42-.52-.7-.01.45-.6.31-.56.44-.26.75-.82.32.37.37-.01.25.8z" data-originalStrokeWidth="0.25" style="shape-rendering: auto; stroke: rgb(0, 0, 0);"></path>


<path id="Beberibe" fill="#ccccb8" stroke="#000" stroke-width=".25" d="m669.1 200.78-.23.34-.83.23-.14-.25-.66.07-.46.5.17.57.22.27-.27.64.1.25-.3.2-.1.74-.25.25-.51.01-.96-.19-.71.57-.42-.09-.61.14-.57-.57-.37-.28-1.23-.67-.34-.3-.65-.32.45-.63.27-.58.47.1.04-.39.4-.2.31-.83.41-.14v-2.56l.8-.18.37-.98v-.4l.24-.27.58.83 1.83 1.78.41.2.5.54.94.85z" data-originalStrokeWidth="0.25" style="shape-rendering: auto; stroke: rgb(0, 0, 0);"></path>


<path id="Bela_Cruz" fill="#ccccb8" stroke="#000" stroke-width=".25" d="m628 175.37-.01.72.27.14-.01.7.6.04.68.9-.02.52-.98-.74-.14.6-.93.7-.63.38-.58-.31-.5.95-.4-.2-.58.17-.17-.25-.04-.6-.31-.36-.68-.22-1.32-1.06-.3-1.9 1.8.2v-.27l.49-.06.19.31.72-.02.2-.36.99-.07.48.22z" data-originalStrokeWidth="0.25" style="shape-rendering: auto; stroke: rgb(0, 0, 0);"></path>


<path id="Boa_Viagem" fill="#ccccb8" stroke="#000" stroke-width=".25" d="m635.84 207.28.07.5.8.2.25.34.23 1.1.56.67.26.92-.2.25.3.43-.15.43-.4.35-.09.25.35.48 1.37.6-1.55 2.41-.05.92-.68.98-.38-.07-.73.2-.42-.04-.53.21-.3.35-.76-.53-.6.08-.36.41-.45-.12-.22-.46-.4-.28-.63.03-.5-.39-.11-.55-.37-.3.02-.7.42-.57-.27-.51-.26.03-.76-.37-.71-.03-.41.13 2.87-1.42.7-1.05-.2-1.37.22-.4.98-.36.12-.34-.4-.25-.5-.57-.07-.38.36-.36v-.4l.23.24.55.03.5-.95.58-.11.3-.4 1.14.22.23-.42-.14.7z" data-originalStrokeWidth="0.25" style="shape-rendering: auto; stroke: rgb(0, 0, 0);"></path>


<path id="Brejo_Santo" fill="#ccccb8" stroke="#000" stroke-width=".25" d="m653.67 258.14-.26.12-.19.47-.32-.07-1.12.4.16.34-.23.39-.73-.15-.2.63-.25.06.05-2.47-.96.05-.38-.13-1.05.5-.08-.43.03-1.37-1.03-.84-1.15-.6 1.05.22.22-.1.06-.64 1.92.1h.51l1.03.52 1.9 2.6z" data-originalStrokeWidth="0.25" style="shape-rendering: auto; stroke: rgb(0, 0, 0);"></path>


<path id="Camocim" fill="#ccccb8" stroke="#000" stroke-width=".25" d="m620.57 173.63.28.16.24.48.58.13-.11.47.08.45.32.22.29 1.9-1.21-.8-2.26-.14-2.6.5-.73-.46-1.98.34-1.94 1.13-.32-.5.66-.81.1-.6.2-.43-.38-.95-.27-.12 1.75-.2 1.4-.27.3-.24.86.01.21.42.95-.32.56-.33.55.04 1.05-.13.5.1z" data-originalStrokeWidth="0.25" style="shape-rendering: auto; stroke: rgb(0, 0, 0);"></path>


<path id="Campos_Sales" fill="#ccccb8" stroke="#000" stroke-width=".25" d="m628.43 243.85-.03.21 1.05.3.18.17-.85.53 1.17.82-.4.88-.72.7-.2-.38-1.4.5-.68.54-1.28.4.03.76-.22.04-1.99-.68-.22-.19.56-.79-.02-1.5.07-.25-.13-.47.07-.78.73-.6.3-.48.34.08.58-.13.31.11.61-.17.43-.36.68-.04.34-.26.61.44.3.45z" data-originalStrokeWidth="0.25" style="shape-rendering: auto; stroke: rgb(0, 0, 0);"></path>


<path id="Canindé" fill="#ccccb8" stroke="#000" stroke-width=".25" d="m639.26 195.53-.26.45.11.88-.33.37-.18.67.66.33.46.08.02.44.24.41 2.78-1.7 1.67 1.58.57.11.3.32.42 1.3.11.1H647l.08.47.6.38.07.3.42.15-1 .2.1.25-.08.89.32.44-1.13 1.19-.54.13-.35.34-.89-.04-.13-.17-.79.14-.17.21-.22.78-1.03.55-.07-.24-.07-.13-.53-.55-.43-.12.07-.6-.54-.8.16-.43-.38-.23-.08-.5-.24-.14-.2-.8-.3-.2-.34.32-.57-.3-.8.55-.63.08-1.08.65-.73.03-.4-.38.22-.38.59-.31-.12-.65-.4-.71.72-.48-.05-.47-.36-.36.15-.44-.23-.24.15-.36-.62-.47-.4-1.05.25-.27.29-.28.04-.43.27-.42.56-.16.44-.35.33.01.65-.2.54.42.7.13z" data-originalStrokeWidth="0.25" style="shape-rendering: auto; stroke: rgb(0, 0, 0);"></path>


<path id="Capistrano" fill="#ccccb8" stroke="#000" stroke-width=".25" d="m652.2 204.34-.68-.07-.05-.52-.41.02-.14-.43-.48.03-.87-.71-.54.15-.33-.27.1-.52.34-.23-.16-1.03.23-.23.19-.2.7.01-.42.52 1 .78h.37l.25.29z" data-originalStrokeWidth="0.25" style="shape-rendering: auto; stroke: rgb(0, 0, 0);"></path>


<path id="Caridade" fill="#ccccb8" stroke="#000" stroke-width=".25" d="m649.67 195.87.23.6-.43-.01-.12.54.2.25-.98.53.14.59-.08.28-.75.69.34.34-.23.53-.25.05-.25.83-.48-.22h-1.17l-.12-.1-.42-1.3-.3-.31-.56-.11-1.67-1.6.45-.26 1.84-.05-.02-.8.8-.08.1-.5-.3-.1-.17-.45-.4-.36 2.48.35.64-.06.43-1.26.34.93.49.5z" data-originalStrokeWidth="0.25" style="shape-rendering: auto; stroke: rgb(0, 0, 0);"></path>


<path id="Cariré" fill="#ccccb8" stroke="#000" stroke-width=".25" d="m624.63 194.6-.24 1.06-1.02-.02-.73-.1-.7-.7-.98.01-1.26-.54-.08-.32-.42-.2.23-.53-.2-.3-.84-.38v-.55l.5-.52.1-.28.6-.02.4-.27.72.62 1.43-.14.14-.17.84-.14.53-.5.2 1.8-.05.37.22.68z" data-originalStrokeWidth="0.25" style="shape-rendering: auto; stroke: rgb(0, 0, 0);"></path>


<path id="Caririaçu" fill="#ccccb8" stroke="#000" stroke-width=".25" d="m645.74 245.93.89.13.16.36-.74.35-.24.4.09.49.42.8.3.4-.35.52-.47.03-.55.32-.25-.27-.64-.3-.1-.23-.56-.22-.2.3-.84-.02-.38-.9-1.04.05-.6-.07.04-.84.3-.81.22-.02.5-.7.98-.3-.13.54.86.05.91-.06.2-.13z" data-originalStrokeWidth="0.25" style="shape-rendering: auto; stroke: rgb(0, 0, 0);"></path>


<path id="Cariús" fill="#ccccb8" stroke="#000" stroke-width=".25" d="m641.63 237.6.9.36-.2.42.32.46 1.05-.16-.3.63-.26.4.6.8-.2.8-.52.33-.29.56.6.27.03.24-.48.3-.96-.01-.27-.25-.38.47-.42.14-.36-.22-.27-.4-.3-.06-.26.44-.6-.15-.21.15-1.05.2.29-.52-.31-.3-.43-.05-.11-.95-.33-.84-.54.08-.72-.16.4-.2.65.02 1.33-.65 1.17-.5.43-.57.43-.27h.46l.73-.84z" data-originalStrokeWidth="0.25" style="shape-rendering: auto; stroke: rgb(0, 0, 0);"></path>


<path id="Carnaubal" fill="#ccccb8" stroke="#000" stroke-width=".25" d="m615.08 196.84-1.32 1.26-.45-.62-.3.1h-1l-.44-.34.01-.02-.35-.27-.38-.79.76-.97.5-.29.62.31.93-.2.7.03.88.93.07.58z" data-originalStrokeWidth="0.25" style="shape-rendering: auto; stroke: rgb(0, 0, 0);"></path>


<path id="Cascavel" fill="#ccccb8" stroke="#000" stroke-width=".25" d="m663.75 195.84-.24.27v.4l-.37.98-.8.18v2.56l-.41.14-.32.83-.4.2-.04.38-.46-.1-.27.58-.45.64-.13-.66-1.22-1.42.13-.47.46.03.32-.37-.08-1.32.53.06-.58-.77.19-1.38.17-1.18.04-.23.36.4 1.02.15-.06-.62.56.2.11-.5.36-.38.23-.28.55.59z" data-originalStrokeWidth="0.25" style="shape-rendering: auto; stroke: rgb(0, 0, 0);"></path>


<path id="Catarina" fill="#ccccb8" stroke="#000" stroke-width=".25" d="m634.73 233.03-.14.64-.35.36-.07.44-.47.91v.22l-.84.3-.43-.2-.09-.27-.56-.2-.33.14-.98-.14-.56.63-.4.02.23-.22.2-.9.22-.44.36.02.2-1 .52-.05.83-.47.24.03.54-.63-.1-.27.16-.55.93.3.28-.1.48.4-.05.74z" data-originalStrokeWidth="0.25" style="shape-rendering: auto; stroke: rgb(0, 0, 0);"></path>


<path id="Catunda" fill="#ccccb8" stroke="#000" stroke-width=".25" d="m629.95 206.7-1.06.56-.3 1.15-.84-.51-.46.15-1.11-.4-.11-.31-.45-.35-.2-.44.11-.3-.5-.45.34-.76.45-.4.38.19.43-.1.26-.74-.14-.6-.48-.37.42-.4-.19-.24.82-.12.48.75.34-.06.87.1.19-.3.7-.47.7-.08.38.47-.13.6-.53.99-.34-.18-.3.34-.58.08-.24.32.26.26.07.65.42.34z" data-originalStrokeWidth="0.25" style="shape-rendering: auto; stroke: rgb(0, 0, 0);"></path>


<path id="Caucaia" fill="#ccccb8" stroke="#000" stroke-width=".25" d="m655.97 188.66-.61.11.37.57-.65 1.17-.05.36-.51.11-.32.52-.5.45-.48.94-.17-.13-.7.69-.34-.1-.65.58-.41-.46-1.27-.42-.8-1.33-.2-.6.3-.34.08-.67.38-.18.1-.74-.18-.26.38-.5.39-.3.65.33.87-2.02.45-.4.65.88.38.33.93.48.77.68z" data-originalStrokeWidth="0.25" style="shape-rendering: auto; stroke: rgb(0, 0, 0);"></path>


<path id="Cedro" fill="#ccccb8" stroke="#000" stroke-width=".25" d="m650.07 239.4-.06.8-.77.84-.6-.02-.8.3-.36.54-.7.17-.4-.09-.22-.6-.53-.06-.1-1.06-.56-.09-.52-.43-1.04-.39.3-.63.8-.05.1-.56.38-.12.07-.38 1.06-.38.39.43 1.1-.36 1.8 1.44.73.4z" data-originalStrokeWidth="0.25" style="shape-rendering: auto; stroke: rgb(0, 0, 0);"></path>


<path id="Chaval" fill="#ccccb8" stroke="#000" stroke-width=".25" d="m610.65 178.56-1.53.96-1.5.01-.09-.34.3-.44.97-.85-.09-.6.14-.33-.09-.57-.24-.57.42.02.96.48.13.56.5.72-.25.27.06.35z" data-originalStrokeWidth="0.25" style="shape-rendering: auto; stroke: rgb(0, 0, 0);"></path>


<path id="Choró" fill="#ccccb8" stroke="#000" stroke-width=".25" d="M649.07 205.84h-1l-.1.76-.57.27-.56.63 1 .16-.32.73-.65.54-.66.66-.46.8-.57.71-.47-.08-.52-.75-.82-.68-.06-.64-.5-.16-.15-.76-.05-.36.7-.39-.26-.47-.5.43-.4-.1.04-.3.07.24 1.03-.55.22-.78.18-.2.79-.15.13.17.89.04.35-.35.54-.13.3.27.61-.08 1.48.14z" data-originalStrokeWidth="0.25" style="shape-rendering: auto; stroke: rgb(0, 0, 0);"></path>


<path id="Chorozinho" fill="#ccccb8" stroke="#000" stroke-width=".25" d="m658.63 200.81-.12.45-.5-.33-.39-.03-.7-.35-.25-.8-.1-.72.1-.2-.4-.64.8-.17.53.1.52.25.5-.24.8-.15.57.77-.53-.06.08 1.32-.32.37-.46-.03z" data-originalStrokeWidth="0.25" style="shape-rendering: auto; stroke: rgb(0, 0, 0);"></path>


<path id="Coreaú" fill="#ccccb8" stroke="#000" stroke-width=".25" d="m621.2 185.87-.42.5-.37.07-.14.45.35.76.69.25-1.1-.06-.8 2.6-1.05.16-.15.26-.3.14-.45.61-.41-.46.25-.73-.08-.17-.06-.77.4-.59.48-.36-.58-.72-1.1-.26-1.1.61-.24-1.64.2-.29.64-.4 1.68-.55.98.28.6-.17.04.33h1.97z" data-originalStrokeWidth="0.25" style="shape-rendering: auto; stroke: rgb(0, 0, 0);"></path>


<path id="Crateús" fill="#ccccb8" stroke="#000" stroke-width=".25" d="m623.67 215.75-1.15.8-.79 2.04-.47.21-.07.45h-1.6l-.26.38-.45.04-.05.38-.6-.15-.3.36-.4-.13-.23.3-.4.03-.22-.24-.63-.05-.3.25-.68-.28-.5.28.23-.44-.36-.52-.02-.4.47-.16-.43-.73.3-.49.1-.53-.24-.2.27-.53-.43-.42.25-.29-.18-.45.05-.52-1.05-.58-.67-.52-.98-.39-.26-.6-.63-.09.19-.43 1.25.04 3.95-.85 1.98-.57 1.13.71.28-1.09.69.58.53 1.1.48-.12.6.21.17.21.74.15.1-.2 1.3 1.51z" data-originalStrokeWidth="0.25" style="shape-rendering: auto; stroke: rgb(0, 0, 0);"></path>


<path id="Crato" fill="#ccccb8" stroke="#000" stroke-width=".25" d="m640.68 247.22-.05.84.61.07 1.04-.05.38.9-.06.58-.4.4.05.86.3.94-.51.7-.45.04-.8.5.03 4.18h-.06l-.46.02-.2-.71.52-.55-.09-.54-.74-.13-.77.35-.29-.41-.16-.54-.49-.02v-6.18l.38-.1-.03-.53-.03-.36 1.13-.37.28.17z" data-originalStrokeWidth="0.25" style="shape-rendering: auto; stroke: rgb(0, 0, 0);"></path>


<path id="Croatá" fill="#ccccb8" stroke="#000" stroke-width=".25" d="m616.82 200.13.45.28-.3 1.11-.27.14-.3.48-1.11.23-2.41-.3-.64.33-1 .08-1.05-.19v-.43l.3-.58-.02-.4.22-.36.16.05 2.35-1.72 1.4.3 1.02.6.4-.04z" data-originalStrokeWidth="0.25" style="shape-rendering: auto; stroke: rgb(0, 0, 0);"></path>


<path id="Cruz" fill="#ccccb8" stroke="#000" stroke-width=".25" d="m624.42 173.03.2.96.65-.09.62.26.3-.1 1.34.04.25-.06.55.26.02.38-.36.68-1.18.14-.48-.22-.99.07-.2.36-.72.02-.19-.3-.48.05-.4-.17v-.7l-.35-.2.08-.73-.16-.26.03-.54.82.18z" data-originalStrokeWidth="0.25" style="shape-rendering: auto; stroke: rgb(0, 0, 0);"></path>


<path id="Deputado_Irapuan_Pinheiro" fill="#ccccb8" stroke="#000" stroke-width=".25" d="m643.86 225.18.82.05.29.42.83.18-.34 1.08.15.06.03.73-.14.27.18.72-.5-.05-.26.6-.95.1-.2.14-.5-.2-.26.23-.76-.46.16-.52-.25-.89.47-.88.01-.76.24-.45h.2l.6-.47z" data-originalStrokeWidth="0.25" style="shape-rendering: auto; stroke: rgb(0, 0, 0);"></path>


<path id="Ereré" fill="#ccccb8" stroke="#000" stroke-width=".25" d="m663.53 228.06-.07.25-.68.4-.89.85v.58l-.4.4-.56.39-.57-.17-.5.18-.25-.6-.41.06-.3-.8.43-.31-.25-1.7.16.34 1.22.03.27-.22.77-.26.28.5.48-.05z" data-originalStrokeWidth="0.25" style="shape-rendering: auto; stroke: rgb(0, 0, 0);"></path>


<path id="Eusébio" fill="#ccccb8" stroke="#000" stroke-width=".25" d="m659.12 190.84-.23.44.12.63-.3.1-.29.67-.68.04-.37.2.12-.86.24-.39.68-.5.12-.64z" data-originalStrokeWidth="0.25" style="shape-rendering: auto; stroke: rgb(0, 0, 0);"></path>


<path id="Farias_Brito" fill="#ccccb8" stroke="#000" stroke-width=".25" d="m639.65 243.12-.1.59.25.59.43.06-.1.9 1.14-.04.42.48-.49.7-.23.02-.29.8-.87.07-.28-.18-1.13.37.03.36-.94-.37-.85-.12.37-.16.46-.67-.1-.41.56-.5-.18-.35-.5-.1-.15-.52.31-.3-.28-.44.04-.34.62-.23 1.05-.21.22-.15z" data-originalStrokeWidth="0.25" style="shape-rendering: auto; stroke: rgb(0, 0, 0);"></path>


<path id="Forquilha" fill="#ccccb8" stroke="#000" stroke-width=".25" d="m627.66 193.3-2.06-.46-.25-1.22-.6.18-.3-.22.53-1.38.58.06.05-.67 1.23-.9.84-.03 1.1.09.19 1.5-.2 1.08-.16.17-.05.7z" data-originalStrokeWidth="0.25" style="shape-rendering: auto; stroke: rgb(0, 0, 0);"></path>


<path id="Fortaleza" fill="#ccccb8" stroke="#000" stroke-width=".25" d="m659.25 190.91-.14-.08-.59-.3-.12.63-.68.51-.24.38-.22.11-.5-.62-1.28-.63-.4-.4.65-1.17-.37-.57.6-.1.84.33.8.16.57-.2.4.85z" data-originalStrokeWidth="0.25" style="shape-rendering: auto; stroke: rgb(0, 0, 0);"></path>


<path id="Fortim" fill="#ccccb8" stroke="#000" stroke-width=".25" d="m670.43 201.56-.28.3.26.57-.32.56-.63-.05-.77.68-1.69-.22-.1-.25.27-.64-.23-.26-.17-.57.46-.51.66-.07.14.25.83-.23.23-.34.5.24.82.1z" data-originalStrokeWidth="0.25" style="shape-rendering: auto; stroke: rgb(0, 0, 0);"></path>


<path id="Frecheirinha" fill="#ccccb8" stroke="#000" stroke-width=".25" d="m617.22 190.25-1.13.04-.91-.14.37-1.03-.3-.96 1.1-.6 1.1.25.59.72-.47.36-.41.6z" data-originalStrokeWidth="0.25" style="shape-rendering: auto; stroke: rgb(0, 0, 0);"></path>


<path id="General_Sampaio" fill="#ccccb8" stroke="#000" stroke-width=".25" d="m642.95 195.63-.6.14-.23.2-.64-.25-.7.14-.06.48-.75-.34-.5.12-.36.73-.1-.88.26-.45.52-1.47.3.07.54-.1.2-.54z" data-originalStrokeWidth="0.25" style="shape-rendering: auto; stroke: rgb(0, 0, 0);"></path>


<path id="Graça" fill="#ccccb8" stroke="#000" stroke-width=".25" d="m618.09 193.46.3 1.64.55-.05-.55 1.24-.53-.09-.96.15-.23-.23-.65-.27.06-.69.16-.22-.05-1.16.26-.53 1.15-.07z" data-originalStrokeWidth="0.25" style="shape-rendering: auto; stroke: rgb(0, 0, 0);"></path>


<path id="Granja" fill="#ccccb8" stroke="#000" stroke-width=".25" d="m622.25 177.44-.25.85-1.15.46-3.12-1.5.72 2.87-.31.36-1.88-.44.13.47.09 1.08-.55.35.07.25-.51.7.7-.2.16.17-.35.87-.63 1.26.27.35-.31.22-2.06-1.72-.81-.56-1.36-.58-.41.08-.37-1.33-.13 1.6-.76 1.06-.68.57-.78.38-.3-.14-.12-.67.05-1.07-.4-.01-.51.24-.43-.25-.26-.62.29-.4.04-.41 1.3-2.2h1.5l1.53-.96.87-.55 1.94-1.13 1.98-.34.73.45 2.6-.5 2.26.15z" data-originalStrokeWidth="0.25" style="shape-rendering: auto; stroke: rgb(0, 0, 0);"></path>


<path id="Granjeiro" fill="#ccccb8" stroke="#000" stroke-width=".25" d="m645.74 245.93-1.22-.13-.2.13-.9.06-.86-.05.13-.54 1.28-.42 1.04-.08.38-.24.34.74z" data-originalStrokeWidth="0.25" style="shape-rendering: auto; stroke: rgb(0, 0, 0);"></path>


<path id="Groaíras" fill="#ccccb8" stroke="#000" stroke-width=".25" d="m624.46 191.59.3.22.6-.18.25 1.22-.57.66-.4 1.09-.61-1.14-.22-.68.04-.37-.2-1.8.46-.13z" data-originalStrokeWidth="0.25" style="shape-rendering: auto; stroke: rgb(0, 0, 0);"></path>


<path id="Guaiúba" fill="#ccccb8" stroke="#000" stroke-width=".25" d="m656.2 194.99-.53.08-.14.8.66.05.16.28-.07.1-.77.42-.1.2-.6-.1-.78.25-.35.27-.03-.33-.67-.2-.33.1-.23-.36.59-.25.12-.62.39-.34.95-.6.09-.38.32-.22.24.3.53-.15z" data-originalStrokeWidth="0.25" style="shape-rendering: auto; stroke: rgb(0, 0, 0);"></path>


<path id="Guaraciaba_do_Norte" fill="#ccccb8" stroke="#000" stroke-width=".25" d="m618.4 196.3.03.7-.27.64-.32.37-.6.17-.44.56.26.93-.25.46-.79-.42-.4.03-1.02-.6-1.4-.28-2.36 1.72-.16-.05.53-.76v-.32l-.3-1.3.66-.9.44.33h1l.3-.1.45.63 1.32-1.26.86-.1.33-.62h.4l.24.23.96-.15z" data-originalStrokeWidth="0.25" style="shape-rendering: auto; stroke: rgb(0, 0, 0);"></path>


<path id="Guaramiranga" fill="#ccccb8" stroke="#000" stroke-width=".25" d="m650.6 198.93-.44.26-.3.56-.14-.35-.78-.67-.31-.08.08-.28-.14-.6.99-.53.16.95.68.23z" data-originalStrokeWidth="0.25" style="shape-rendering: auto; stroke: rgb(0, 0, 0);"></path>


<path id="Hidrolândia" fill="#ccccb8" stroke="#000" stroke-width=".25" d="m626.5 202.38.18.24-.42.4.48.38.14.59-.26.75-.43.09-.38-.18-.5-.42-.42.07-.63-.56-1.4-.36-.86-.37-1.4.88-.18-.47.25-.54v-.5l.53-.57-.2-.36.38-.88.38-.26.18-.51.32-.11.28-.5.5-.56 2.62.14-.36.8.05.74.27.61.5.74.33.22z" data-originalStrokeWidth="0.25" style="shape-rendering: auto; stroke: rgb(0, 0, 0);"></path>


<path id="Horizonte" fill="#ccccb8" stroke="#000" stroke-width=".25" d="m659.77 195.41-.17 1.18-1.74-.12-.29.12-.52-.23-.77-.07.07-.1.54-.75v-.67l.56.33 1.1.19 1-.01z" data-originalStrokeWidth="0.25" style="shape-rendering: auto; stroke: rgb(0, 0, 0);"></path>


<path id="Ibaretama" fill="#ccccb8" stroke="#000" stroke-width=".25" d="m656.22 205.87.79.2-.06.52.19.48-.36.35-.54.14-.15.64-.54.61-.67.25-.31.33.49.87-.15.35-.95-.62-3.2.58-.16-.74-.48-.73-.06-.45.83.45 1.29-1.96-1.28-1.1.29-.21.74.09.59-.73.3-.14.84-.05.32-.14.2.7.47.18.56.68z" data-originalStrokeWidth="0.25" style="shape-rendering: auto; stroke: rgb(0, 0, 0);"></path>


<path id="Ibiapina" fill="#ccccb8" stroke="#000" stroke-width=".25" d="m615.58 191.72.33.47 1.35-.21-.34.52-.58.13.12.63-.26.53-.33-.2-.77.31-1.14-.19-1.95.24-.3.18-.47-.32-.85.23-.3.3-1-.02-.17-.47.36-.39.3.08.78-.47.6-.06.57-.21 2.18-.66.82.25.25-.31.42-.02z" data-originalStrokeWidth="0.25" style="shape-rendering: auto; stroke: rgb(0, 0, 0);"></path>


<path id="Ibicuitinga" fill="#ccccb8" stroke="#000" stroke-width=".25" d="m655.3 212.88-.9-.68-.02-.4.54-.45-.01-.75.35-.27-.06-.35.69-.5 1.3.28.48-.17.95-.09.36.8-.13.18-1.46.46.04.47.43.7-.31.62.22.54z" data-originalStrokeWidth="0.25" style="shape-rendering: auto; stroke: rgb(0, 0, 0);"></path>


<path id="Icapuí" fill="#ccccb8" stroke="#000" stroke-width=".25" d="m679.57 208.72-1.84.47.02-1.12-.77-.33-.31.12-.81-.03-.73.2-.41-.64-.53-.59.3-1.38.8-.28.29.31 1.25.51 1.12.27.87.7.24.38z" data-originalStrokeWidth="0.25" style="shape-rendering: auto; stroke: rgb(0, 0, 0);"></path>


<path id="Icó" fill="#ccccb8" stroke="#000" stroke-width=".25" d="m655.75 232.53.23.41.64.58.55-.2-.46.4-.16.33-.44.27.16.25-.2.47.08.49.26.15-.53.4.36.45.36-.1.23.4-.5.55-.06.32-.74.76.03.34-.29-.01-.93.55-.4-.13-.59.26-.7.75-.27-.21-1.13-.07-.38-.27-.8-.26.07-.3-.72-.4-1.81-1.44-1.1.36-.4-.43.29-.6.84-.77.4.4.4-.2.95.06-.02-.43.42-.35.43.1.34-.55.67.32.76-.63.16-1.31.45-1.7.82-.18.55.18-.22.76.16.63.85.09.4-.33.76-.3z" data-originalStrokeWidth="0.25" style="shape-rendering: auto; stroke: rgb(0, 0, 0);"></path>


<path id="Iguatu" fill="#ccccb8" stroke="#000" stroke-width=".25" d="m647.68 233.97.06.66-.73.68-.62 1.3-.28.59-1.06.38-.07.38-.37.12-.1.56-.8.05-1.06.16-.32-.46.2-.42-.9-.36-.16-.41v-.58l-1.15-.61.24-.88-.08-.78.83-.34v-.28l.47-.42.6.07.86-.9.54-.05.1 1.2-.58.53.46.16.38-.14.7-.02v.33l.96.28.5-.28.67-.83.45-.12z" data-originalStrokeWidth="0.25" style="shape-rendering: auto; stroke: rgb(0, 0, 0);"></path>


<path id="Independência" fill="#ccccb8" stroke="#000" stroke-width=".25" d="m628.17 214.63.41-.13.71.03.76.37.26-.03.27.5-.42.57-.02.7.37.31.12.55-.19.38-.4.23-.07.62-.85.98-.1.66.02.8-.25.33-.74-.19-.1.3-1 .55-.12.74.43 1.02-.32.35-1.08.8-.55-.25-.73.02-.6.7-.25.5-.73.33-.6.1-.77-.31-.63.42.04-.95-.12-.54.22-.28-1.05-.1-.07-.4-.57-.69.42-.68-.13-.39.5-.96-.2-.38.88-1.74.27-.22.07-.45.47-.2.8-2.04 1.14-.81 1.8-1.3.15.24.66-.1.41.15.25-.33.68.32z" data-originalStrokeWidth="0.25" style="shape-rendering: auto; stroke: rgb(0, 0, 0);"></path>


<path id="Ipaporanga" fill="#ccccb8" stroke="#000" stroke-width=".25" d="m619.9 208 .2.4 1.33 1.81-1.66.16-.28 1.1-1.13-.71-1.98.57-3.95.84.3-1.08.72-.89.9-.57.23.06.77-.36.17-.2-.19-1 .07-.23h.7l.33.45.49.08.48.42.14.5.68-.43.42.36.6-.32.3-.63z" data-originalStrokeWidth="0.25" style="shape-rendering: auto; stroke: rgb(0, 0, 0);"></path>


<path id="Ipaumirim" fill="#ccccb8" stroke="#000" stroke-width=".25" d="m654.83 242.76.68.45-.05.2-.62.32-.35.63-.07.26-.97.61-.63.25-.34-.1.18-.65-.8-.2-.64.04.8-.22-.2-1.22.47-.16-.59-.43-.32-.62.87.27.32-.05.55.6.51.21.68-.22z" data-originalStrokeWidth="0.25" style="shape-rendering: auto; stroke: rgb(0, 0, 0);"></path>


<path id="Ipu" fill="#ccccb8" stroke="#000" stroke-width=".25" d="m618.86 197.74-.22.63-.07.67.68.46.28-.27.5.22.92.15 1.6-.4-.28.49-.32.1-.19.52-.38.26-.38.88.2.36-.52.57-.01.5-.25.54.19.47-.45-.1-.51-.73-.07-.37-.4-.73-.47.04-.2.58-1.53-1.05.29-1.11-.45-.28.24-.46-.26-.94.44-.56.6-.17.32-.37z" data-originalStrokeWidth="0.25" style="shape-rendering: auto; stroke: rgb(0, 0, 0);"></path>


<path id="Ipueiras" fill="#ccccb8" stroke="#000" stroke-width=".25" d="m616.98 201.53 1.53 1.05.2-.58.48-.04.39.73.07.37.5.73.46.1.09.35-.24.6-.53.17-.6 1.15-.17.33-1.1.18-.53-.15-.4.1-.38-.11-.67.23-.5-.11-.27.07h-1.2l-.13-.5-.42-.5-1.15-.54-.83-.48-.86-.04-.27-.14-.93-.14-.1-.18-.33-.01.32-.1.3-.7.25-.22.23-.85 1.06.19.99-.08.64-.34 2.4.3 1.12-.22.3-.48z" data-originalStrokeWidth="0.25" style="shape-rendering: auto; stroke: rgb(0, 0, 0);"></path>


<path id="Iracema" fill="#ccccb8" stroke="#000" stroke-width=".25" d="m661.96 223.12-.31.58v.35l.32.58-.02.7.4.8v.32l.73.16.6.3.09.57-.23.58-1.28-.13-.48.06-.28-.51-.77.26-.27.22-1.22-.03-.16-.33-.8-.5-.46.24.32-1.11.04-.72-.21-.03-.22-.22.13-.41.5-.57-.13-.57.3-.38.16-.53 2.92-.45.05.48z" data-originalStrokeWidth="0.25" style="shape-rendering: auto; stroke: rgb(0, 0, 0);"></path>


<path id="Irauçuba" fill="#ccccb8" stroke="#000" stroke-width=".25" d="m636.08 187.94.2-.66.09.39-.2.87.32.45.07.55.48.33.34 1.01-.7.2-.44.31-.25.47.04.75.18.42-.05 1.32.27.06.5 1.06h-.33l-.45.34-.56.16-.27.42-.04.43-.29.28-.36-.22-.43-.77-.39-.08-.3-.2.09-.42-.42-.3.08-.27-.8-.2-.08-.76-.34-.1-.23-.4-.8-.58-.13-.56 1.45.83-.91-2.99-.62-.29-.06-.85 1.8.15.24-1.02 1.2-1.06.34.03.55.66z" data-originalStrokeWidth="0.25" style="shape-rendering: auto; stroke: rgb(0, 0, 0);"></path>


<path id="Itaiçaba" fill="#ccccb8" stroke="#000" stroke-width=".25" d="m673.13 206.72-3.04.68v-.48l-.65.23-.09.38h-1.83l-.38-.6.1-1.2.73.04 1.14.34.27-.3.4.23.1.32.43.25.57.14 1.62-.08z" data-originalStrokeWidth="0.25" style="shape-rendering: auto; stroke: rgb(0, 0, 0);"></path>


<path id="Itaitinga" fill="#ccccb8" stroke="#000" stroke-width=".25" d="m657.49 192.06-.12.86-.12.47-.06.96-.3.42v.67l-.54.76-.16-.28-.66-.05.14-.8.53-.09.02-1.03.3-1.59.25-.82.5.62z" data-originalStrokeWidth="0.25" style="shape-rendering: auto; stroke: rgb(0, 0, 0);"></path>


<path id="Itapajé" fill="#ccccb8" stroke="#000" stroke-width=".25" d="m638.13 187.43.52.06.17.38.76.32.02.42.31.5.43.1.51.33.18.68.15.71.16.1-.27.45-.82.04-.04-.72-.26.03.07-1.04-.45-.26-.52.46-.78.95-.9-.06-.34-1-.48-.33-.07-.57-.3-.45.18-.87-.09-.39.42.5.41.08.26-.25.48.1z" data-originalStrokeWidth="0.25" style="shape-rendering: auto; stroke: rgb(0, 0, 0);"></path>


<path id="Itapipoca" fill="#ccccb8" stroke="#000" stroke-width=".25" d="m641.98 179.6-.35.03-.57.4-.8-.19-.57.1.07.68-.32.59.31.4v.76l.42.98.23.1.33.77.41.46.43 1.4-.24.03-.68.58-.9-.19-.72.01-.9.91-.29.28-.48-.1-.26.25-.4-.08-.43-.5-.2.66-.74-.9-.25-.16.3-.6-.6-1.24.04-.47.86-1.13-.05-.77.62-.6-.46-1.39.45.02.4-.7.02-.4.95-.6.3.08.75-.4.28-.92.5.4.63.3.42.44.47.08z" data-originalStrokeWidth="0.25" style="shape-rendering: auto; stroke: rgb(0, 0, 0);"></path>


<path id="Itapiúna" fill="#ccccb8" stroke="#000" stroke-width=".25" d="m648.7 202.53.33.27.54-.15.87.71.48-.03.14.43.4-.01.06.52.68.07.61.7-.3.15-.59.73-.74-.1-.29.22-.15.51-.7.54-.37.02-.37-.64.24-.3-.03-.4-.44.06-.29-.37-1.48-.14-.6.09-.32-.27 1.13-1.2-.32-.43.08-.9-.1-.24 1-.2v.68l.23.1z" data-originalStrokeWidth="0.25" style="shape-rendering: auto; stroke: rgb(0, 0, 0);"></path>


<path id="Itarema" fill="#ccccb8" stroke="#000" stroke-width=".25" d="m632.01 174 .42.03 1.01.56 1.18.92.16-.02 1.15.8.21.31-2.8 1.95-.02.8-.6.67.24.3-.33.86-.68-.52-.35-.08-.55-.7.14-.68-.09-.48.06-.69.31-.37-.18-1 .16-.29.14-1.24z" data-originalStrokeWidth="0.25" style="shape-rendering: auto; stroke: rgb(0, 0, 0);"></path>


<path id="Itatira" fill="#ccccb8" stroke="#000" stroke-width=".25" d="m642.12 206.72-.33.13h-2.12l-1.16.42-.94-.3h-.67l-.46.22-.6.08-.2-.24.14-.7.21-.32-.44-.56-.49-.27 1.48-.97-.32-.57 1.1-.65.62-.08.8-.56.56.31.34-.33.31.21.2.8.23.14.08.5.38.23-.16.42.54.8-.07.61.43.12z" data-originalStrokeWidth="0.25" style="shape-rendering: auto; stroke: rgb(0, 0, 0);"></path>


<path id="Jaguaretama" fill="#ccccb8" stroke="#000" stroke-width=".25" d="m654.13 215.72-.41.73 2.06 1.74 1.44 1.34-.62.47.4.37-.6.32-.1.22.16.8-.4.07-.45.61-.24.94-.37.14-.39.53-.2.89-.34.24-1 .13-.2.27-.75.09-1.34-2.32-.5-1.06.1-2.22-.13-.25-.16-.65-.06-1.6 1.3-.7.71-1.2.6-.3 1.2-.05z" data-originalStrokeWidth="0.25" style="shape-rendering: auto; stroke: rgb(0, 0, 0);"></path>


<path id="Jaguaribara" fill="#ccccb8" stroke="#000" stroke-width=".25" d="m657.97 225.47-.4.07-.6-.43-.53-.23h-2.03l.2-.89.4-.53.37-.14.23-.92.45-.61.4-.08-.16-.8.1-.22.6-.32-.4-.37.62-.47 1.84-1.2-.23.71-.24.2.2.38-.03.35-.52.8.39.57.08 1.45-.15.53-.31.38.13.57-.5.57-.13.41z" data-originalStrokeWidth="0.25" style="shape-rendering: auto; stroke: rgb(0, 0, 0);"></path>


<path id="Jaguaribe" fill="#ccccb8" stroke="#000" stroke-width=".25" d="m657.97 225.47-.2.24.13.5-.08.52-.52.5.15.69.22.15-.45 1.1.4-.05-.46.75-.36.27-.07.55-.3.35-.48 1.26-.2.24-.23-.14-.76.29-.4.33-.86-.1-.16-.62.22-.76-.55-.18-.82.19-.35.26-.75-.03-.24.22-.43-.11-.1-.93-.77-.14-.46.39.24-1.44.44-1.15.33-.12.66-1.2.05-.29.7-.57.04-.36.57-.47.75-.09.2-.27 1-.13.33-.24h2.03l.53.23.6.43z" data-originalStrokeWidth="0.25" style="shape-rendering: auto; stroke: rgb(0, 0, 0);"></path>


<path id="Jaguaruana" fill="#ccccb8" stroke="#000" stroke-width=".25" d="m672.72 210.4-.65 2.23-2.52-1.2-.97-.8-.22-.6.06-.9-.3-.59-.6-1.02h1.83l.1-.38.65-.22v.48l3.04-.68.09.9.4.7z" data-originalStrokeWidth="0.25" style="shape-rendering: auto; stroke: rgb(0, 0, 0);"></path>


<path id="Jardim" fill="#ccccb8" stroke="#000" stroke-width=".25" d="m647.4 258.13-.6-.19-.2 1.2-.52.62-.43-.06-.66-.45-.78.27.05-.38-.3-.33-.7.01-1.11-.8-.04-.08v-2.77l2.08.52 1.05.28.42 1.05z" data-originalStrokeWidth="0.25" style="shape-rendering: auto; stroke: rgb(0, 0, 0);"></path>


<path id="Jati" fill="#ccccb8" stroke="#000" stroke-width=".25" d="m650.53 260.33-.79.14v.58l-.4.93-.07.03.13-.5-.2-.7-.67.01-.9-.49-.16-.33-.87-.86.2-1.2.6.2.48.27.32-.14 1.05-.49.38.13.96-.05z" data-originalStrokeWidth="0.25" style="shape-rendering: auto; stroke: rgb(0, 0, 0);"></path>


<path id="Jijoca_de_Jericoacoara" fill="#ccccb8" stroke="#000" stroke-width=".25" d="m622.96 172.88-.03.54.16.26-.08.72.35.2-.01.71.4.17v.27l-1.8-.2-.32-.23-.08-.45.11-.47-.58-.13-.24-.48-.28-.16.85-.43.38-.52.4-.14z" data-originalStrokeWidth="0.25" style="shape-rendering: auto; stroke: rgb(0, 0, 0);"></path>


<path id="Juazeiro_do_Norte" fill="#ccccb8" stroke="#000" stroke-width=".25" d="m645.25 249.72-.08.6-.27.26-.04.4-.32.07-.42.66-1.1-.04-.48.08-.3-.93-.05-.86.41-.4.06-.58.84.03.2-.3.55.21.11.23.64.3z" data-originalStrokeWidth="0.25" style="shape-rendering: auto; stroke: rgb(0, 0, 0);"></path>


<path id="Jucás" fill="#ccccb8" stroke="#000" stroke-width=".25" d="m640.55 235.13-.24.88 1.15.6.01.58.16.42-.39-.04-.73.84h-.46l-.43.27-.43.57-1.17.5-1.33.65-.65-.01-.4.19.01-.36-.65.2.01-.31.78-1.11-.38-.4.45-.43-.83-.65.12-.3-.19-.57.86-.71.32-.53.16-.22.85.16.46-.32.56-.16.6.4.31-.22.35.34.55-.23.28.19z" data-originalStrokeWidth="0.25" style="shape-rendering: auto; stroke: rgb(0, 0, 0);"></path>


<path id="Lavras_da_Mangabeira" fill="#ccccb8" stroke="#000" stroke-width=".25" d="m650.87 239.66.05.54.53.98-.28.45.21.3.32.61.6.43-.47.16.19 1.22-.8.22-.61-.04-1.31.1-.9.28-.1.3-.38.08-.77.66-.36.46-.16-.36-.9-.13v-.53l-.33-.74.07-.64 1-1.88.3-.1.7-.18.37-.54.8-.3.6.02.77-.84.06-.79z" data-originalStrokeWidth="0.25" style="shape-rendering: auto; stroke: rgb(0, 0, 0);"></path>


<path id="Limoeiro_do_Norte" fill="#ccccb8" stroke="#000" stroke-width=".25" d="m665.27 213.13 1.03.01.6.38.32.62.45.63 1.8.95.7.23-.13.5.09.51h-2.54l-.66-.76-.46-.15-1.37-1.13-1.11.56-1.31-.35-.44.41-.1-.1-.17-.53.15-.78.46-1.62v-1.26l.45.02.68.58.14.42h.37l.8.76z" data-originalStrokeWidth="0.25" style="shape-rendering: auto; stroke: rgb(0, 0, 0);"></path>


<path id="Madalena" fill="#ccccb8" stroke="#000" stroke-width=".25" d="m642.18 206.84-.04.3.41.1.5-.43.27.47-.7.4.04.35-.14.5-.3.46.32.88-.34.65.32.48-.47.23-.35-.8-1.53.86.15.57-.37.38-.16.4-2.23-.18.4-.35.15-.43-.3-.43.2-.25-.26-.92-.56-.67-.23-1.1-.25-.33-.8-.2-.07-.5.6-.09.46-.23h.67l.94.3 1.16-.42h2.12l.33-.13z" data-originalStrokeWidth="0.25" style="shape-rendering: auto; stroke: rgb(0, 0, 0);"></path>


<path id="Maracanaú" fill="#ccccb8" stroke="#000" stroke-width=".25" d="m655.08 190.51.4.4 1.28.63-.78.37-.46.07.02.66-.5.83-.32-.26v-.62l.17-.44-.06-.37-.64-.29.32-.5.51-.11z" data-originalStrokeWidth="0.25" style="shape-rendering: auto; stroke: rgb(0, 0, 0);"></path>


<path id="Maranguape" fill="#ccccb8" stroke="#000" stroke-width=".25" d="m655.03 193.47-.52.64.04.24-.09.38-.95.6-.39.34-.64.02-.88-.38-.1.56-.39.14-.8-.15-.2.27-.44-.27-.23-.55-.49-.5-.34-.93 1.06-.83 1.27.42.41.46.65-.58.34.1.7-.7.17.13.48-.94.5-.45.64.3.06.36-.18.44v.62z" data-originalStrokeWidth="0.25" style="shape-rendering: auto; stroke: rgb(0, 0, 0);"></path>


<path id="Marco" fill="#ccccb8" stroke="#000" stroke-width=".25" d="m629.51 178.4.2.13 1.25 1.72-1.65-.41-.44.05-2.06 1.53-.73-.4.08.74-.56-.11-.22-.24-.4.08-.32-.3-.48-.01-.37-.64-.45-.41-.31-.58-.06-.53-.5-.52-.5-.2.26-.85 1.32 1.06.68.22.3.36.05.6.17.25.58-.17.4.2.5-.95.58.3.63-.36.93-.71.14-.6z" data-originalStrokeWidth="0.25" style="shape-rendering: auto; stroke: rgb(0, 0, 0);"></path>


<path id="Martinópole" fill="#ccccb8" stroke="#000" stroke-width=".25" d="m621.59 180.6-.12.05-2.3.08-1.03-.24.3-.36-.72-2.87 3.12 1.5-.02.54.5.37z" data-originalStrokeWidth="0.25" style="shape-rendering: auto; stroke: rgb(0, 0, 0);"></path>


<path id="Massapê" fill="#ccccb8" stroke="#000" stroke-width=".25" d="m624.96 182.56.1.94.5.1.65 1.28.33.35-.07 1.02-.23.24-.48.3.08.32-.32.24-.91-.11-.95-.85.05-.51-.38-.3-.53-.04-.23-.43-.78.34-.35.14.14-.34-.44-.35.36-.62.38-.97 1.65-.42.52.22.67-.2z" data-originalStrokeWidth="0.25" style="shape-rendering: auto; stroke: rgb(0, 0, 0);"></path>


<path id="Mauriti" fill="#ccccb8" stroke="#000" stroke-width=".25" d="m655.4 250.96.48.49.6-.15.08.22.35.68-.27.43v.36l-.81 1.43.18.34-.31.4-.74.04.25.48-.27.26-.12.9-.53.46-.37.04-.2.72-.04.09-1.03-.4-1.9-2.6.4-1.82 1.37-2.25.15.15.64.04 1.16-.1.25-.16z" data-originalStrokeWidth="0.25" style="shape-rendering: auto; stroke: rgb(0, 0, 0);"></path>


<path id="Meruoca" fill="#ccccb8" stroke="#000" stroke-width=".25" d="m624.6 187.24-.67.2-.11.33-.91-.07-.73-.21v-.92l.4-.35-.8-.23.02-.54.78-.34.23.43.53.05.37.29-.05.5z" data-originalStrokeWidth="0.25" style="shape-rendering: auto; stroke: rgb(0, 0, 0);"></path>


<path id="Milagres" fill="#ccccb8" stroke="#000" stroke-width=".25" d="m650.28 248.53-.68 1.05.58 1.78.65-.12.65.07.77-.37.27.14-1.37 2.24-.4 1.82-1.03-.52h-.5l.14-.56-.22-.29-.22-.79-.25-.47-.86-.3-.75-.56.1-.45 1.08-.7-.01-.79 1.2-1.2z" data-originalStrokeWidth="0.25" style="shape-rendering: auto; stroke: rgb(0, 0, 0);"></path>


<path id="Milhã" fill="#ccccb8" stroke="#000" stroke-width=".25" d="m648.2 220.37-1.49 3.32-.92 2.14-.82-.19-.3-.42-.81-.05.22-.82-.2-.08.2-.64-.31-.06.15-.67.4-.72.46-.46.52-.73h.25l1.08-.32.99.08z" data-originalStrokeWidth="0.25" style="shape-rendering: auto; stroke: rgb(0, 0, 0);"></path>


<path id="Miraíma" fill="#ccccb8" stroke="#000" stroke-width=".25" d="m634.83 184.56-.04.47.59 1.23-.3.61.26.15.74.91-1.21-.23-.55-.65-.33-.03-1.21 1.06-.24 1.02-1.8-.15-.1-.32.2-.82.28-.38.3-.77-.13-.11-1.07.08-.45.23.48-.52-.1-.58.2-.65-.08-.35.24-.68.74.06.61-.14 1.72.36z" data-originalStrokeWidth="0.25" style="shape-rendering: auto; stroke: rgb(0, 0, 0);"></path>


<path id="Missão_Velha" fill="#ccccb8" stroke="#000" stroke-width=".25" d="M648.23 249.72v.79l-1.08.7-.1.44.17.16.02.57-.32.36-.05.34.42 1.44-.06.64-.22.1-1.05-.23-.6.41-.13.52-1.05-.28v-.7l.48-.6.07-.3-.32-.6.61-1.09-.9-.68.42-.67.32-.07.04-.4.27-.26.08-.59.55-.32.47-.03.37.43.65.02.5-.32z" data-originalStrokeWidth="0.25" style="shape-rendering: auto; stroke: rgb(0, 0, 0);"></path>


<path id="Mombaça" fill="#ccccb8" stroke="#000" stroke-width=".25" d="m637.5 222.43.03.29.5.04.27-.33.73.11 1.11.41.77.52-.64.63-.49.51-.95 2.11.2.23-.35 1.77-.8.34-.73-.27-.31.5-.08.49-.5-.3-1.17.05-.36.23-.43-.14-.21.5-1.12.98-.51-.27-.48.4-.2-.08-.07-.26.9-.48.94-1.26.34-.17.04-.63-.65-.54v-.48l-.74.28-.5-.35.3-.71-.68-.38-.23.07-.34-.75-.2-.04v-1.01l-.29-.17-.24-.13-.2-.51.17-.5.45-.38 1.42.15.44.16.24-.21.73-.07.45-.92.15-.11.86.36 1.38.2.28.39z" data-originalStrokeWidth="0.25" style="shape-rendering: auto; stroke: rgb(0, 0, 0);"></path>


<path id="Monsenhor_Tabosa" fill="#ccccb8" stroke="#000" stroke-width=".25" d="M632.26 207.72v.4l-.36.36.07.39.5.57.4.25-.12.34-.98.37-.21.39.19 1.37-.7 1.05-2.87 1.42.44-.63-.04-1-.22-.68.78-.18-.14-.41-.46-.53-.47-.12-.06-.53-.47-.5 1.44-.42.07-.57-.46-.45v-.2l.3-1.15 1.06-.55 2.35.31z" data-originalStrokeWidth="0.25" style="shape-rendering: auto; stroke: rgb(0, 0, 0);"></path>


<path id="Morada_Nova" fill="#ccccb8" stroke="#000" stroke-width=".25" d="m662.57 204.47-.41.48-1.16 1.12-.48-.1-.53.44-.25.52-1.32 1.17-.34.37.57.3.37.52 1.02-.28.37.24.47-.05.52.38.34.08.85 1.6-.01 1.26-.46 1.62-.15.78.18.52-1.1.85-.51.28.02.7-.38.22-.23.4-.56.24-.33.2-1.84 1.2-1.44-1.33-2.06-1.74.4-.73h.26l1.14-1.36-.1-.56-.12-.92 2.46.38-.22-.53.31-.62-.43-.71-.04-.47 1.46-.45.13-.18-.36-.8-.94.09-.48.17-1.3-.29-.7.5.06.35-.35.27.15-.35-.49-.86.31-.33.67-.25.54-.6.15-.66.54-.14.36-.35-.19-.48.06-.52.53-.52.73.04.41-.27.46-.7.5-.36.27-.62-.3-.44.38-.3.65.31.34.31 1.23.67z" data-originalStrokeWidth="0.25" style="shape-rendering: auto; stroke: rgb(0, 0, 0);"></path>


<path id="Moraújo" fill="#ccccb8" stroke="#000" stroke-width=".25" d="m621.08 183.53-.16.57.59.17-.36.62.44.35-.14.34-.24.28-.08-.14h-1.97l-.03-.32-.61.17-.98-.28-1.68.54.32-.44.3-.72-.48-.95.6.16.76-.06.6.27.3-.25-.03-.34.49-.06.54-.7.48-.08.62.2-.36.33.3.43z" data-originalStrokeWidth="0.25" style="shape-rendering: auto; stroke: rgb(0, 0, 0);"></path>


<path id="Morrinhos" fill="#ccccb8" stroke="#000" stroke-width=".25" d="m630.96 180.25 1.2 1.69-.08.33-.85.55-.3-.08-1.16.1-.4-.22.15-.7-.41.07-.7-.27-.68.28-.28-.2-2.48.15v-.46l.4-.08.22.24.56.1-.08-.73.73.4 2.06-1.53.44-.05z" data-originalStrokeWidth="0.25" style="shape-rendering: auto; stroke: rgb(0, 0, 0);"></path>


<path id="Mucambo" fill="#ccccb8" stroke="#000" stroke-width=".25" d="m619 191.24-.1.28-.5.52v.55l.84.37-.2.26-.95.24-.49-.27-1.15.07-.12-.63.58-.13.34-.52-1.35.2-.33-.46.83-.01.64-.55.41.46.45-.61.3-.14z" data-originalStrokeWidth="0.25" style="shape-rendering: auto; stroke: rgb(0, 0, 0);"></path>


<path id="Mulungu" fill="#ccccb8" stroke="#000" stroke-width=".25" d="m649.86 199.75-.46.59-.2.2-.28-.1-.49.2-.7-.38.25-.05.23-.54-.34-.34.75-.69.31.08.78.67z" data-originalStrokeWidth="0.25" style="shape-rendering: auto; stroke: rgb(0, 0, 0);"></path>


<path id="Nova_Olinda" fill="#ccccb8" stroke="#000" stroke-width=".25" d="m638.43 247.84.03.53-.38.1v2.3l-.49-.26-1.17-.43-.87-1.37-.27-.85.18-.4.55-.35.63.24.85.12z" data-originalStrokeWidth="0.25" style="shape-rendering: auto; stroke: rgb(0, 0, 0);"></path>


<path id="Nova_Russas" fill="#ccccb8" stroke="#000" stroke-width=".25" d="m624.25 203.74-1.14 3.24-1.38 2.04-.28-.08-.02 1.28-1.32-1.81-.21-.4-.33-.77.07-.33-.3-.75.59-1.15.53-.17.24-.6-.1-.36 1.4-.88.86.37z" data-originalStrokeWidth="0.25" style="shape-rendering: auto; stroke: rgb(0, 0, 0);"></path>


<path id="Novo_Oriente" fill="#ccccb8" stroke="#000" stroke-width=".25" d="m621.2 219.25-.27.22-.9 1.74.22.38-.5.96.13.4-.42.68.57.69.07.39-.66-.64-.26-.59-.46-.4-.97 1.35-.74.24-.92.65-1.17-.08-.07-.72-.44-.9.42-.25.13-.3.09-.62-.23-.77-.3-.27-.07-.4.13-.59.49-.28.68.28.3-.25.63.05.22.24.4-.04.24-.29.4.13.3-.36.6.15.05-.38.45-.04.25-.38z" data-originalStrokeWidth="0.25" style="shape-rendering: auto; stroke: rgb(0, 0, 0);"></path>


<path id="Ocara" fill="#ccccb8" stroke="#000" stroke-width=".25" d="m658.63 200.81 1.22 1.42.13.66-.38.3.3.44-.28.62-.49.35-.46.71-.4.27-.73-.04-.53.53-.8-.2-.34-.01-.35-.3-.65-1.7.5-.36-.02-.54-.23-.33.09-.62.5-.54.61-.13.6-.62v-.16l.7.35.4.03.5.33z" data-originalStrokeWidth="0.25" style="shape-rendering: auto; stroke: rgb(0, 0, 0);"></path>


<path id="Orós" fill="#ccccb8" stroke="#000" stroke-width=".25" d="m652.2 231.54-.45 1.7-.16 1.3-.76.63-.67-.32-.34.55-.43-.1-.42.35.02.43-.95-.05-.4.2-.4-.4-.84.77.62-1.3.73-.68-.06-.66.94-.69.3-1.12.3-.6-.13-.35.46-.39.77.14.1.93.43.11.24-.22.75.03z" data-originalStrokeWidth="0.25" style="shape-rendering: auto; stroke: rgb(0, 0, 0);"></path>


<path id="Pacajus" fill="#ccccb8" stroke="#000" stroke-width=".25" d="m659.6 196.6-.19 1.38-.79.15-.5.24-.52-.25-.54-.1-.78.17-.78-.93-.08-.35.09-.2.77-.42.78.08.52.23.29-.12z" data-originalStrokeWidth="0.25" style="shape-rendering: auto; stroke: rgb(0, 0, 0);"></path>


<path id="Pacatuba" fill="#ccccb8" stroke="#000" stroke-width=".25" d="m656.2 194.99-.55-.7-.53.16-.24-.31-.32.22-.04-.24.52-.64.5-.83-.01-.66.46-.07.78-.37-.24.82-.31 1.59z" data-originalStrokeWidth="0.25" style="shape-rendering: auto; stroke: rgb(0, 0, 0);"></path>


<path id="Pacoti" fill="#ccccb8" stroke="#000" stroke-width=".25" d="m649.9 196.47.63.16.26.43.45.1.2.8-.09.13-.75.83-.2-.5-.68-.22-.16-.95-.2-.25.12-.54z" data-originalStrokeWidth="0.25" style="shape-rendering: auto; stroke: rgb(0, 0, 0);"></path>


<path id="Pacujá" fill="#ccccb8" stroke="#000" stroke-width=".25" d="m619.7 194.31.1.21-.86.52-.55.06-.3-1.64.95-.24.2-.26.2.3-.23.53.42.2z" data-originalStrokeWidth="0.25" style="shape-rendering: auto; stroke: rgb(0, 0, 0);"></path>


<path id="Palhano" fill="#ccccb8" stroke="#000" stroke-width=".25" d="m666.6 204.34.23.57-.37.55.02.25.76.01-.1 1.2.38.6.6 1.02-1.24.16-1.27.26-.31-.57.2-.6-.21-.43-.42-.4-.2-.49-.91-.7-.62-.74.6-.14.43.1.7-.58.97.2.5-.02z" data-originalStrokeWidth="0.25" style="shape-rendering: auto; stroke: rgb(0, 0, 0);"></path>


<path id="Palmácia" fill="#ccccb8" stroke="#000" stroke-width=".25" d="m653.13 195.68-.12.62-.6.25-.26.34-.9.28-.45-.1-.26-.43-.63-.16-.23-.61.43.27.2-.27.8.15.38-.14.11-.56.88.38z" data-originalStrokeWidth="0.25" style="shape-rendering: auto; stroke: rgb(0, 0, 0);"></path>


<path id="Paracuru" fill="#ccccb8" stroke="#000" stroke-width=".25" d="m649.88 184.57-.1.3-.54.52.18.54-.68.21h-.94l-.9-.38-1.17-.17.03-.26.42-.49.4.1.01-.7.14-.38.46-.3.34-.01.28.1.73-.27.6.24z" data-originalStrokeWidth="0.25" style="shape-rendering: auto; stroke: rgb(0, 0, 0);"></path>


<path id="Paraipaba" fill="#ccccb8" stroke="#000" stroke-width=".25" d="m647.53 183.54-.34.01-.46.31-.14.38-.02.7-.39-.1-.42.5-.03.25-.8-.18-.16-.22-.73-.17.16-1.66-.17-.2.45-.46.57-.05.72-.54.45.35.47.02.38.67z" data-originalStrokeWidth="0.25" style="shape-rendering: auto; stroke: rgb(0, 0, 0);"></path>


<path id="Parambu" fill="#ccccb8" stroke="#000" stroke-width=".25" d="m623.84 234.9 1.38 1.6-.7.5-.04.34-.4.45-.9.26-.2.6-1.3.24-.45.21-.45-.02-.35.8-.21.16-1.1.15-.05-.18-1.09-.02-.32-.8-.59-.55-.04-.4-.12-.54.01-.75-.16-.62.46-.9-.13-.65-.42-.32-.17-.4-.57-.72.1-.37-.11-.75.13-.39-.21-.59h.9l.28-.29.75.04.18-.58.42-.33.46-.5.8-.13.56-.24 1.2.24.2-.18.7-.2.46.61-.26.28.05.34-.28.56-.26 1.08-.4.27.77.76-.2.84-.34.32-.84.41-.4.03-.04.32-.35.46.53.1.13.27.45-.32.36.14.75-.18.88-.07z" data-originalStrokeWidth="0.25" style="shape-rendering: auto; stroke: rgb(0, 0, 0);"></path>


<path id="Paramoti" fill="#ccccb8" stroke="#000" stroke-width=".25" d="m642.76 197.46-2.78 1.7-.24-.4-.02-.44-.46-.08-.66-.33.18-.67.33-.38.36-.73.5-.12.75.34.06-.48.7-.14.64.25.23-.21.6-.14.38-.12.58.05.75-.24.42-.46.39.36.17.45.3.1-.1.5-.8.08.02.79-1.84.05z" data-originalStrokeWidth="0.25" style="shape-rendering: auto; stroke: rgb(0, 0, 0);"></path>


<path id="Pedra_Branca" fill="#ccccb8" stroke="#000" stroke-width=".25" d="m636.91 218.12.17.19-.22.7.43.59.1.47 1.03.55.16.38-.26.27-.19.7-.63.46-.77.27-.28-.38-1.38-.21-.86-.36-.15.1-.45.93-.73.07-.24.2-.44-.16-1.42-.14-.45.39-.17.49.2.5.24.13-.36.03-.55-.83.35-.42-.06-.76-.34-.28.76-.34.35-.79-.25-.5-.46-.05-.08-1.59.07-.62.41-.23.2-.38.48.4.63-.04.4.28.22.46.45.12.36-.4.6-.08.76.52.3-.35.53-.2.42.03.73-.2z" data-originalStrokeWidth="0.25" style="shape-rendering: auto; stroke: rgb(0, 0, 0);"></path>


<path id="Penaforte" fill="#ccccb8" stroke="#000" stroke-width=".25" d="m649.27 262.01-.62-.1-.3-.49-.63.12-.24.4-.36-.16-.26-1.09-.07-.19-.7-.74.5-.62.87.86.16.33.91.5.67-.03.2.71z" data-originalStrokeWidth="0.25" style="shape-rendering: auto; stroke: rgb(0, 0, 0);"></path>


<path id="Pentecoste" fill="#ccccb8" stroke="#000" stroke-width=".25" d="m649.36 188.94.18.26-.1.74-.39.18-.08.67-.29.34.2.6.8 1.33-1.06.83-.43 1.26-.64.06-2.47-.35.2-.3.02-.64.16-.27-.21-.4-.36-.18-.45-.8-.96.34-.26.3-.56-1.34-.25-.29-1.07-.26-.16-.09-.15-.7 1.16-.32.21-.5.57-.13.81.1 1.12-.78 1.24.2 2.51-.34z" data-originalStrokeWidth="0.25" style="shape-rendering: auto; stroke: rgb(0, 0, 0);"></path>


<path id="Pereiro" fill="#ccccb8" stroke="#000" stroke-width=".25" d="m659.08 227.6.25 1.69-.43.32.3.78-.5.37-.14.33-.44.44-.16.63-.92.64.13.52-.55.2-.64-.58-.23-.4.2-.25.48-1.26.3-.35.08-.55.36-.27.46-.75-.4.05.45-1.1-.22-.15-.15-.69.52-.5.08-.52-.13-.49.19-.24.2.03-.03.72-.32 1.11.46-.23z" data-originalStrokeWidth="0.25" style="shape-rendering: auto; stroke: rgb(0, 0, 0);"></path>


<path id="Pindoretama" fill="#ccccb8" stroke="#000" stroke-width=".25" d="m662.17 194.44-.36.38-.1.5-.57-.2.06.61-1.02-.15-.37-.4 1-.96.36.2.7.11z" data-originalStrokeWidth="0.25" style="shape-rendering: auto; stroke: rgb(0, 0, 0);"></path>


<path id="Piquet_Carneiro" fill="#ccccb8" stroke="#000" stroke-width=".25" d="m640.27 224.1.4.64.32-.16 1.9.96-.24.45-.01.76-.47.9.25.88-.16.51-.33-.13-.6.22-.88-.09-.29.13-.96-.15-.2.48-.35-.35.02-.43.35-1.77-.19-.23.95-2.1z" data-originalStrokeWidth="0.25" style="shape-rendering: auto; stroke: rgb(0, 0, 0);"></path>


<path id="Pires_Ferreira" fill="#ccccb8" stroke="#000" stroke-width=".25" d="m623.02 197.72.2.78-.19.13-.49.56-1.6.4-.92-.15-.49-.22-.28.27-.69-.46.07-.67.22-.63 1.44-.02.14-.1.86.23.34.62.23.1z" data-originalStrokeWidth="0.25" style="shape-rendering: auto; stroke: rgb(0, 0, 0);"></path>


<path id="Poranga" fill="#ccccb8" stroke="#000" stroke-width=".25" d="m615.59 206.63.07.38-.26.3v.58l-.06.24.19 1-.17.2-.77.36-.23-.06-.9.57-.72.9-.31 1.07-1.25-.04-.05-.32-.47-.25-.67-.9-.56-.03-.24-.54.1-.3-.37-.38.17-.27-.06-.46.17-.33.37-.68-.67-.27 1.23-1.47-.4-.62-.53-.5.2-.57-.31-.08.34.01.09.18.93.14.27.14.86.04.83.48 1.15.54.42.5.14.5h1.19z" data-originalStrokeWidth="0.25" style="shape-rendering: auto; stroke: rgb(0, 0, 0);"></path>


<path id="Porteiras" fill="#ccccb8" stroke="#000" stroke-width=".25" d="m648.2 258.27-.32.14-.48-.28-1.74-1.12-.42-1.05.13-.52.6-.4 1.15.6 1.03.84-.03 1.36z" data-originalStrokeWidth="0.25" style="shape-rendering: auto; stroke: rgb(0, 0, 0);"></path>


<path id="Potengi" fill="#ccccb8" stroke="#000" stroke-width=".25" d="m629.55 246.76.15.4 1.31.05.57-.1.31.14.11 1.17.74-.15.2-.27.11.65-.24.12-.36-.04-1.12.9-.33.1-1.28-.1-.4-.29-.73-.3-.5-1.14.74-.45z" data-originalStrokeWidth="0.25" style="shape-rendering: auto; stroke: rgb(0, 0, 0);"></path>


<path id="Potiretama" fill="#ccccb8" stroke="#000" stroke-width=".25" d="m664.9 223.6-.12.75.75.32-.2.39-.76.87-.32.5-.06.86-.66.76.23-.58-.08-.56-.6-.3-.74-.17v-.3l-.4-.82.02-.7-.32-.58v-.35l.31-.58.62-.23.35.01 1 .75z" data-originalStrokeWidth="0.25" style="shape-rendering: auto; stroke: rgb(0, 0, 0);"></path>


<path id="Quiterianópolis" fill="#ccccb8" stroke="#000" stroke-width=".25" d="m620.1 224.7 1.05.12-.22.28.12.54-.04.94-.6-.04-.55.26-.21-.23-.51.26-.2.3.18.75-.43-.04-.29.95-.54.23.17.9.34.17-.42.33-.18.58-.74-.04-.3.29h-.9l-.25-.86-.6-.18.05-.45.53-.85-.11-.97-.31-.3.07-.27-.21-.64-.08-1.48 1.17.08.92-.65.74-.24.97-1.35.46.4.26.59z" data-originalStrokeWidth="0.25" style="shape-rendering: auto; stroke: rgb(0, 0, 0);"></path>


<path id="Quixadá" fill="#ccccb8" stroke="#000" stroke-width=".25" d="m650.9 206.04 1.28 1.1-1.3 1.96-.83-.45.06.45.48.73.16.73 3.2-.58.95.62.01.75-.54.45.02.4.91.68.12.92-.56.07-.87-.5-.79.01-.3-.28-.56-.02-.35-.2-1.55 1.72-1-.2-.26-.2-.36.25-.7.16-.51-.24-.4.02-1.16-.13-.21-.45.23-1.01-.4-.16-.82-.75-.3-.6.16-.26.47.08.57-.72.46-.8.66-.66.65-.54.32-.73-1-.16.56-.63.57-.27.1-.76h1l.44-.06.03.39-.24.3.37.65.37-.02.7-.54z" data-originalStrokeWidth="0.25" style="shape-rendering: auto; stroke: rgb(0, 0, 0);"></path>


<path id="Quixelô" fill="#ccccb8" stroke="#000" stroke-width=".25" d="m649.1 231.2.13.36-.3.6-.3 1.12-.94.69-.27-.42-.45.12-.67.83-.5.28-.95-.28-.01-.33-.7.02-.38.14-.46-.16.58-.53-.1-1.21-.54.05.85-.82 2.09.46.9-1.07-.02-.17.73-1.04.57-.36.56.42-.05.84z" data-originalStrokeWidth="0.25" style="shape-rendering: auto; stroke: rgb(0, 0, 0);"></path>


<path id="Quixeramobim" fill="#ccccb8" stroke="#000" stroke-width=".25" d="m644.7 211.03-.16.27.3.59.82.75.4.16-.22 1 .2.45 1.17.13-.1.38.52.81.22.14.24.7-.37.6-.54 1.81.46.22.06.26-.28 1 .2.44-1-.07-1.07.32h-.25l-.52.73-.46.46-.13-.53-.46-.65-.51-.29-1.04.3-1.7-.9-2.03-1.23-.91-.12-.45-.46-.17-.19.68-.98.05-.92 1.55-2.4-1.38-.62-.35-.48.1-.25 2.22.17.16-.39.37-.38-.15-.57 1.53-.87.35.81.47-.23-.32-.48.34-.65-.32-.88.3-.46.14-.5.15.76.5.16.06.64.82.68z" data-originalStrokeWidth="0.25" style="shape-rendering: auto; stroke: rgb(0, 0, 0);"></path>


<path id="Quixeré" fill="#ccccb8" stroke="#000" stroke-width=".25" d="m669.54 211.44 2.52 1.2-.85.32-.15.52-.55.7-.4 1.4.06.37-.7-.23-1.8-.95-.45-.63-.33-.61-.59-.38-1.03-.01.26-.5.5-.5.97-.31.52-.07.56-.38.7-.05.32.25z" data-originalStrokeWidth="0.25" style="shape-rendering: auto; stroke: rgb(0, 0, 0);"></path>


<path id="Redenção" fill="#ccccb8" stroke="#000" stroke-width=".25" d="m652.41 196.54.23.36.33-.1.67.2.03.33.18 1.08-.24.57.6.13-.23.76.11.88-.3.08-.61-.57-.35-.82-.54-.18-.25-.8h-.37l-.32-.37.1-.13-.2-.8.9-.28z" data-originalStrokeWidth="0.25" style="shape-rendering: auto; stroke: rgb(0, 0, 0);"></path>


<path id="Reriutaba" fill="#ccccb8" stroke="#000" stroke-width=".25" d="m622.64 195.54-1.07.22.33.63-.08.56-.47.13-.93.52-.13.1-1.44.03-.7-.09.27-.64-.03-.7.54-1.26.86-.52-.09-.2 1.26.53h.97z" data-originalStrokeWidth="0.25" style="shape-rendering: auto; stroke: rgb(0, 0, 0);"></path>


<path id="Russas" fill="#ccccb8" stroke="#000" stroke-width=".25" d="m668.12 208.54.3.6-.06.9.22.6.97.8-.44.14-.32-.26-.7.05-.57.38-.52.07-.97.31-.5.5-.26.5-.25-.1-.8-.77-.37.01-.14-.42-.68-.58-.44-.02-.85-1.6-.34-.08-.52-.38-.47.05-.37-.24-1.02.3-.37-.53-.57-.3.33-.38 1.32-1.17.25-.52.53-.44.48.1 1.16-1.12.41-.48.57.57.62.74.92.7.2.5.42.4.2.41-.2.61.31.57 1.27-.26z" data-originalStrokeWidth="0.25" style="shape-rendering: auto; stroke: rgb(0, 0, 0);"></path>


<path id="Saboeiro" fill="#ccccb8" stroke="#000" stroke-width=".25" d="m636.14 235.4-.32.53-.86.71.2.58-.12.3.83.65-.45.43.38.4-.78 1.1-.01.33.65-.21-.55.26-.13.52-.62.55-.4.2-.1-.35h-.69l-.64.17-.47.4-.83-.55-.32.1-.2-.25-.7.03.32-.56-.3-.54.5-.51-.1-.75-.48-.7.21-.9.24-.32-.75-.56-.14-.57.4-.02.56-.63.98.14.33-.14.56.19.1.27.42.2.83-.3v-.21l.47-.91.07-.44.35-.36.14-.64.34-.03.34.43.63-.26-.35.78.26.25z" data-originalStrokeWidth="0.25" style="shape-rendering: auto; stroke: rgb(0, 0, 0);"></path>


<path id="Salitre" fill="#ccccb8" stroke="#000" stroke-width=".25" d="m628.84 247.46-.75.45-.32.66-1.02.52-.4.6-.1.47.3.48.01.49-.28.33.44 1.23-.37-.3-.85-.01-.6.5-.28.47-.58.22-.97-.13-1.33-.75.21-.34-.07-.62.17-.94.38-1.38-.09-.25.53-.7.22.18 2 .68.21-.04-.03-.77 1.28-.39.68-.54 1.4-.5z" data-originalStrokeWidth="0.25" style="shape-rendering: auto; stroke: rgb(0, 0, 0);"></path>


<path id="Santana_do_Acaraú" fill="#ccccb8" stroke="#000" stroke-width=".25" d="m631.23 182.81-.16.76-.55.51-.24.68.08.34-.21.65.1.58-.48.52-.73.9-.01.8-.4-.07-.23-.3-.47.09-.17-.35-.52-.5-.05-.43-.27-.42-.68-.08.23-.24.07-1.02-.33-.35-.64-1.28-.51-.1-.1-.94v-.61l2.49-.15.28.2.69-.29.69.27.4-.06-.13.7.39.22 1.17-.1z" data-originalStrokeWidth="0.25" style="shape-rendering: auto; stroke: rgb(0, 0, 0);"></path>


<path id="Santana_do_Cariri" fill="#ccccb8" stroke="#000" stroke-width=".25" d="M638.08 250.76v3.88l-.48-.03-.34-.82-1.07-.76-.62-.19-1.55.1-.5-.12-.57.26.01-3.5-.15-.8.24-.13-.1-.65h.45l1-.28.62.42.44-.68-.18.4.28.84.87 1.37 1.17.43z" data-originalStrokeWidth="0.25" style="shape-rendering: auto; stroke: rgb(0, 0, 0);"></path>


<path id="Santa_Quitéria" fill="#ccccb8" stroke="#000" stroke-width=".25" d="m633.82 196.03.39.08.43.77.36.23-.25.26.4 1.05.62.47-.15.36.23.24-.15.44.36.36.05.47-.72.48.4.7.12.66-.6.3-.22.39.4.38.73-.02.32.57-1.48.97.5.27.44.56-.21.32-.23.42-1.14-.21-.3.39-.57.1-.51.96-.55-.03-.22-.24.04-.7-2.36-.32-.35-.64-.42-.34-.07-.65-.26-.26.24-.32.58-.08.3-.34.34.18.53-.98.13-.61-.37-.47-.7.08-.7.48-.2.3-.87-.11-.33.06-.48-.75-.82.12-.05-.5-.33-.22-.5-.73-.28-.61-.05-.74.36-.8-2.62-.14.2-.13-.2-.78.1-.82.24-.08-.1-.88.1-.31 1.02.02.24-1.06.4-1.1.57-.65 2.06.46.12.27.77 1 1 .5 1.2.52.4-.04.5.63 1.24.37.6-.07z" data-originalStrokeWidth="0.25" style="shape-rendering: auto; stroke: rgb(0, 0, 0);"></path>


<path id="São_Benedito" fill="#ccccb8" stroke="#000" stroke-width=".25" d="m616.2 193.78.05 1.16-.16.22-.06.7.65.26h-.41l-.33.62-.86.1.24-.29-.07-.58-.88-.93-.7-.04-.93.21-.62-.3-.5.29-.76.97.47-1.25-.13-.24-.86-.07-.25-.27.3-.3.85-.24.47.32.3-.17 1.95-.24 1.14.2.77-.32z" data-originalStrokeWidth="0.25" style="shape-rendering: auto; stroke: rgb(0, 0, 0);"></path>


<path id="São_Gonçalo_do_Amarante" fill="#ccccb8" stroke="#000" stroke-width=".25" d="m652.1 186.04-.45.4-.87 2.02-.65-.33-.4.3-.38.5-.7-.47-2.5.33-1.24-.18-.24-.5.03-.61.16-.38-.82-.42-.93-.1.2-.8.3-.17.04-.38.38-.22.73.17.17.22.8.18 1.17.17.9.38h.94l.68-.21-.18-.54.54-.53.1-.3.24.53.46.2.71.62z" data-originalStrokeWidth="0.25" style="shape-rendering: auto; stroke: rgb(0, 0, 0);"></path>


<path id="São_João_do_Jaguaribe" fill="#ccccb8" stroke="#000" stroke-width=".25" d="m663.55 218.03-1.27.62-.52.03-.02.28-.93-.48-.48.37-.94-.72.56-.24.22-.4.38-.22-.02-.7.52-.28 1.1-.85.09.1.4.5-.26.79.3.56.57.26z" data-originalStrokeWidth="0.25" style="shape-rendering: auto; stroke: rgb(0, 0, 0);"></path>


<path id="São_Luís_do_Curu" fill="#ccccb8" stroke="#000" stroke-width=".25" d="m644.9 188.6-1.12.78-.03-1.1-.5-.19-.14-1.49.93.1.82.41-.17.38-.03.61z" data-originalStrokeWidth="0.25" style="shape-rendering: auto; stroke: rgb(0, 0, 0);"></path>


<path id="Senador_Pompeu" fill="#ccccb8" stroke="#000" stroke-width=".25" d="m644.32 222.19-.4.72-.15.67.3.05-.2.64.2.08-.22.82-.18-.1-.58.47h-.2l-1.9-.96-.32.16-.4-.64.64-.63-.77-.52-1.1-.4-.73-.13-.27.33-.5-.04-.03-.29.63-.45.19-.7.26-.27-.16-.38-1.04-.55-.1-.47-.42-.6.22-.7.45.46.9.13 2.04 1.23 1.7.89 1.04-.3.5.3.47.65z" data-originalStrokeWidth="0.25" style="shape-rendering: auto; stroke: rgb(0, 0, 0);"></path>


<path id="Senador_Sá" fill="#ccccb8" stroke="#000" stroke-width=".25" d="m624.98 181.49-.01.46-.01.6-.23.37-.67.19-.52-.22-1.65.42-.38.97-.6-.17.17-.57.36.07.17-.36.45-.37.35-.6.1-.62-.23-.71-.7-.34-.26-.93-.5-.38.02-.54 1.15-.46.5.2.5.52.06.53.3.58.45.4.37.65.48.02z" data-originalStrokeWidth="0.25" style="shape-rendering: auto; stroke: rgb(0, 0, 0);"></path>


<path id="Sobral" fill="#ccccb8" stroke="#000" stroke-width=".25" d="m626.24 186.49.68.08.27.42.04.44.52.49.17.35.47-.1.24.32.4.07v-.81l.73-.9.45-.22 1.07-.08.13.1-.3.78-.28.38-.19.82.1.32.06.85.62.29.9 2.99-1.45-.83.14.56.8.57.22.4.34.1.1.75.78.21-.08.26.42.31-.08.41.3.21-.33.45-.59.07-1.24-.37-.5-.63-.4.04-1.2-.5-1-.52-.77-1-.12-.27.9-1.1.04-.7.16-.18.2-1.08-.19-1.5-1.1-.09-.84.03-1.23.9-.04.67-.58-.05-.53 1.38-.34-1.1-.46.12-.53.51-.84.14-.14.17-1.43.14-.72-.62-.4.27-.6.02-.79-.37.15-.26 1.05-.16.8-2.6 1.1.06.6-.08.27-.34.73.21.91.07.12-.33.67-.2.91.11.32-.24-.08-.3z" data-originalStrokeWidth="0.25" style="shape-rendering: auto; stroke: rgb(0, 0, 0);"></path>


<path id="Solonópole" fill="#ccccb8" stroke="#000" stroke-width=".25" d="m650.25 219.76.12.25-.09 2.22.5 1.06 1.34 2.32-.57.46-.05.36-.69.58-.05.3-.66 1.19-.33.12-.44 1.15-.24 1.44-.23-.47.05-.84-.56-.42-.57.36-.17-.4-.93-.45-.32.1-.53-.5-.16.1-.18-.72.14-.27-.03-.73-.15-.06.34-1.08.93-2.14 1.49-3.32.9.55.82-.62z" data-originalStrokeWidth="0.25" style="shape-rendering: auto; stroke: rgb(0, 0, 0);"></path>


<path id="Tabuleiro_do_Norte" fill="#ccccb8" stroke="#000" stroke-width=".25" d="m670.13 216.97-.46.34-.61.4-.3.61.06.58-.37.52.02-.04H663l.55-1.34-.3-.4-.57-.25-.3-.56.25-.78-.4-.5.44-.41 1.31.35 1.11-.56 1.37 1.13.46.15.66.76z" data-originalStrokeWidth="0.25" style="shape-rendering: auto; stroke: rgb(0, 0, 0);"></path>


<path id="Tamboril" fill="#ccccb8" stroke="#000" stroke-width=".25" d="m625.82 204.65-.45.39-.34.76.5.44-.1.3.19.44.45.35.1.31 1.12.4.46-.15.85.51-.01.21.47.45-.07.57-1.44.42.47.5.05.52.47.12.46.53.14.41-.78.18.22.68.04 1-.44.63-.55.1-.68-.32-.25.33-.41-.15-.66.1-.16-.23-1.8 1.3.7-1.94-1.28-1.5-.11.2-.74-.16-.16-.2-.61-.22-.48.12-.53-1.1-.7-.58 1.68-.16.02-1.28.28.08 1.38-2.04 1.14-3.24.63.56.42-.07z" data-originalStrokeWidth="0.25" style="shape-rendering: auto; stroke: rgb(0, 0, 0);"></path>


<path id="Tarrafas" fill="#ccccb8" stroke="#000" stroke-width=".25" d="m635.64 240.57.72.16.54-.08.33.84.11.95.43.06.31.3-.29.52-.62.23-.04.34-.68.07-.3-.7-.57.36-.88-.06-1.55-.6-.54-.08 1.35-1.13.4-.2.62-.56.13-.52.55-.26z" data-originalStrokeWidth="0.25" style="shape-rendering: auto; stroke: rgb(0, 0, 0);"></path>


<path id="Tauá" fill="#ccccb8" stroke="#000" stroke-width=".25" d="m630.6 224.26.3.17-.01 1.01.2.04.34.75.24-.07.68.38-.3.71.49.35.74-.28v.48l.66.54-.04.64-.34.17-.95 1.26-.9.48.07.26-.77.1-.35-.17-.5.04-.38.23-.71.1-.65-.09-.33.34-.62.24-.46-.23-.55.32-.1.32-2.53 2.55-.53.4-.87.06-.75.18-.36-.14-.45.32-.13-.27-.53-.1.35-.46.03-.32.4-.03.84-.4.34-.33.2-.84-.76-.76.4-.27.26-1.08.28-.56-.05-.34.26-.28-.46-.62-.71.21-.2.18-1.2-.24-.57.24-.79.13-.46.5-.34-.17-.17-.9.54-.23.3-.95.42.04-.18-.74.2-.3.5-.27.21.23.55-.26.6.04.63-.42.76.31.61-.1.73-.33.24-.5.61-.69.73-.02.55.25 1.08-.8.32-.35-.43-1.02.12-.74 1-.56.1-.29.75.2.25-.35-.03-.79.1-.66.85-.98.08 1.6.46.04.25.5-.35.8-.76.33.34.28.06.76-.35.42.55.83z" data-originalStrokeWidth="0.25" style="shape-rendering: auto; stroke: rgb(0, 0, 0);"></path>


<path id="Tejuçuoca" fill="#ccccb8" stroke="#000" stroke-width=".25" d="m641.08 191.47-.5 1.3-.46.8-.03.56-.3-.07-.52 1.47-.44.3-.71-.13-.54-.43-.65.2-.5-1.05-.26-.06.04-1.32-.18-.42-.04-.75.25-.47.45-.32.69-.2.9.07.78-.95.52-.46.45.26-.07 1.04.26-.03.04.7z" data-originalStrokeWidth="0.25" style="shape-rendering: auto; stroke: rgb(0, 0, 0);"></path>


<path id="Tianguá" fill="#ccccb8" stroke="#000" stroke-width=".25" d="m615.86 185.82-.63.41-.21.3.24 1.63.29.96-.37 1.03-.45.1-.58.33-.36.65-.59-.03-.52.16-.33-.16-1.36.07-.53.51-.76.47-.73-.06-.37-.59-.07-.44-.3-.27.6-.84-.13-.5.4-.6.32.1.28-.3 1.02-.09.47.27 1.32-.83.63-.3v-.26l1-.57 1.35-1.2-.17-.22.31-.22-.27-.35.63-1.26.48.95-.3.72z" data-originalStrokeWidth="0.25" style="shape-rendering: auto; stroke: rgb(0, 0, 0);"></path>


<path id="Trairi" fill="#ccccb8" stroke="#000" stroke-width=".25" d="m645.76 182.12-.72.54-.57.05-.45.46.17.2-.16 1.66-.38.22-.05.38-.29.17-.2.8-.63-.1-.42.06.54-.65.22-.69-1.77-1.25-.06-.19-.59-.33-.23-.1-.43-.98.01-.76-.3-.4.32-.6-.07-.68.57-.09.79.2.57-.42.35-.03.25-.18.42.13.33.36.8.33h.36l.52.37.64.78z" data-originalStrokeWidth="0.25" style="shape-rendering: auto; stroke: rgb(0, 0, 0);"></path>


<path id="Tururu" fill="#ccccb8" stroke="#000" stroke-width=".25" d="m642.07 186.56-.28.54.63.96-1.27-.12-.52-.22.62-.3L640 187l-.24-.49.9.2.68-.59.24-.04-.43-1.39-.41-.46-.33-.77.59.33.06.2 1.77 1.24-.22.7z" data-originalStrokeWidth="0.25" style="shape-rendering: auto; stroke: rgb(0, 0, 0);"></path>


<path id="Ubajara" fill="#ccccb8" stroke="#000" stroke-width=".25" d="m615.17 190.16.91.14 1.13-.05.08.17-.25.73-.64.55-.83.01-.38.34-.42.02-.25.31-.82-.25-2.18.66-.57.21-.6.06-.78.48-.3-.08.15-.47-.15-.52-.3-.28.73.06.76-.47.53-.5 1.36-.08.33.16.53-.16.59.03.36-.65.57-.33z" data-originalStrokeWidth="0.25" style="shape-rendering: auto; stroke: rgb(0, 0, 0);"></path>


<path id="Umari" fill="#ccccb8" stroke="#000" stroke-width=".25" d="m654.88 240.49.03.47-.45.92-.75-.24-1.52-.6-.75.15-.53-.98-.05-.54.38.27 1.13.07.27.2.71-.74.6-.26.4.13.93-.55h.29l.05-.04-.64.93.25.4z" data-originalStrokeWidth="0.25" style="shape-rendering: auto; stroke: rgb(0, 0, 0);"></path>


<path id="Umirim" fill="#ccccb8" stroke="#000" stroke-width=".25" d="m643.12 186.6.14 1.5.5.18.03 1.1-.81-.1-.57.14-.21.5-1.17.3-.18-.67-.5-.34-.43-.1-.31-.5-.02-.42 1.04-.46.52.22 1.27.12-.63-.96.28-.54.42-.07z" data-originalStrokeWidth="0.25" style="shape-rendering: auto; stroke: rgb(0, 0, 0);"></path>


<path id="Uruburetama" fill="#ccccb8" stroke="#000" stroke-width=".25" d="m640.63 187.72-1.04.46-.76-.32-.17-.38-.52-.05.9-.91.72-.01.24.49 1.25.43z" data-originalStrokeWidth="0.25" style="shape-rendering: auto; stroke: rgb(0, 0, 0);"></path>


<path id="Uruoca" fill="#ccccb8" stroke="#000" stroke-width=".25" d="m618.13 180.49 1.04.25 2.3-.08.11-.05.7.33.23.71-.1.62-.35.6-.45.37-.18.36-.36-.06-.77.09-.3-.43.36-.33-.62-.2-.48.08-.54.7-.5.06.03.34-.29.25-.6-.27-.75.06-.61-.16.35-.87-.16-.16-.7.2.5-.71-.07-.25.55-.35-.09-1.08-.13-.47z" data-originalStrokeWidth="0.25" style="shape-rendering: auto; stroke: rgb(0, 0, 0);"></path>


<path id="Varjota" fill="#ccccb8" stroke="#000" stroke-width=".25" d="m623.02 197.72-1.17.83-.23-.1-.34-.61-.86-.23.93-.52.47-.13.08-.56-.33-.63 1.07-.22.73.09-.1.3.1.89-.24.08z" data-originalStrokeWidth="0.25" style="shape-rendering: auto; stroke: rgb(0, 0, 0);"></path>


<path id="Várzea_Alegre" fill="#ccccb8" stroke="#000" stroke-width=".25" d="m646.77 242.03-.3.1-1 1.88-.07.64-.38.24-1.04.08-1.3.42-.98.3-.42-.48-1.14.04.09-.9-.43-.06-.25-.59.1-.59.28-.44.3.07.27.4.36.21.42-.14.38-.47.27.25.96.01.48-.3-.03-.24-.6-.27.29-.55.52-.33.19-.8-.6-.8.27-.4 1.04.4.52.42.56.1.1 1.05.53.05.23.61z" data-originalStrokeWidth="0.25" style="shape-rendering: auto; stroke: rgb(0, 0, 0);"></path>


<path id="Viçosa_do_Ceará" fill="#ccccb8" stroke="#000" stroke-width=".25" d="m615.33 185.56.17.2-1.36 1.22-1 .57v.26l-.63.3-1.32.83-.47-.27-1.02.08-.28.3-.33-.1-.7-.2-.5-.3h-.48l-.13-.06.18-1-.22-.6-.43-.21.02-.3.53-.13.2-.35.1-.64.3-.1.78-.38.68-.57.76-1.05.13-1.61.37 1.33.41-.08 1.36.58.81.56z" data-originalStrokeWidth="0.25" style="shape-rendering: auto; stroke: rgb(0, 0, 0);"></path>

</svg>