<?xml version="1.0" standalone="no"?>
<svg xmlns="http://www.w3.org/2000/svg" id="map" version="1.2" width="800" height="800" viewBox="650 190 75 75">

<path id="Acari" fill="#ccccb8" stroke="#000" stroke-width=".25" d="m691.02 234.51.7.4.3.56-.05.31.82.43-.46 1.16.05.48-.31.1-.63-.18-.54.43-1.2 1.42-.42-.72-1.02-.4-.23-.76.23.1.33-1.5-.17-.7.23-.3-.27-.29.2-.23.47-.12.1-.4.52-.15.33.15.54-.17.1.3z" data-originalStrokeWidth="0.25" style="shape-rendering: auto; stroke: rgb(0, 0, 0);"></path>


<path id="Açu" fill="#ccccb8" stroke="#000" stroke-width=".25" d="m685.85 222.38.25.66-.01.74-.17.5-1.2.74-.33.58.05.5-.58.4-.1.6-.36.37v-.01l.73-2.1-.48-.3-.59-.16-.88-1.6-1.2-2.92.52-2.06.07-.67.23-.75h1.32l.4.57 1.77.5 1.28.83.31.05-.38.68-.24.27.08.37-.3.26-.3.64.06.37.31.4z" data-originalStrokeWidth="0.25" style="shape-rendering: auto; stroke: rgb(0, 0, 0);"></path>


<path id="Afonso_Bezerra" fill="#ccccb8" stroke="#000" stroke-width=".25" d="m693.93 218.25-.53 4.04-1.82-.22-.1-.12-.03-.9-2.1-.05v-1.1l-2.85-.38.38-.68.01-.2 5.32.37.38-.2z" data-originalStrokeWidth="0.25" style="shape-rendering: auto; stroke: rgb(0, 0, 0);"></path>


<path id="Água_Nova" fill="#ccccb8" stroke="#000" stroke-width=".25" d="m661.45 232.59.22.5-.12.24-.52.33-1-.42v-.3l.83-.43z" data-originalStrokeWidth="0.25" style="shape-rendering: auto; stroke: rgb(0, 0, 0);"></path>


<path id="Alexandria" fill="#ccccb8" stroke="#000" stroke-width=".25" d="m669.13 235.28.16.15-.43.58-.54-.07-.02.52-.52.2-.4.23-.51-.03-.65.17-.33.75-.18-.31-.6.12-.34-.14-.36-.95.07-.42-.34-.2.39-.2.07-.45.18-.23.58-.11.45.18.84-.2.36-.95 1.44.3-.46.2.12.6z" data-originalStrokeWidth="0.25" style="shape-rendering: auto; stroke: rgb(0, 0, 0);"></path>


<path id="Almino_Afonso" fill="#ccccb8" stroke="#000" stroke-width=".25" d="m671.88 231.31-.37 1.2-.6.21-.6 1.01-.37-.5-.03-.5-.2-.38.16-.25-.16-.7.37-.4.21-.41.35.36.27.59.55.16z" data-originalStrokeWidth="0.25" style="shape-rendering: auto; stroke: rgb(0, 0, 0);"></path>


<path id="Alto_do_Rodrigues" fill="#ccccb8" stroke="#000" stroke-width=".25" d="m692.22 219-5.32-.36-.07-.32.44-.08.1-.45.54-.6.1-.35.37-.32 1.59 1.76 1.93.4z" data-originalStrokeWidth="0.25" style="shape-rendering: auto; stroke: rgb(0, 0, 0);"></path>


<path id="Angicos" fill="#ccccb8" stroke="#000" stroke-width=".25" d="m693.4 222.28 2.88.92.8.52-.2.52-.59-.03-.34.25-.64-.24-1.08-.04-.38-.13-1.4.02-.16-.14-.62 1.18h-1.1l-.49-.28-.3-.64-.5-.08-.5-.3-.35-.66-.09-.43-.27-.3.81-.56.47-.86 2.1.05.02.9.11.12z" data-originalStrokeWidth="0.25" style="shape-rendering: auto; stroke: rgb(0, 0, 0);"></path>


<path id="Antônio_Martins" fill="#ccccb8" stroke="#000" stroke-width=".25" d="m668.3 232.34 1.63.89.37.5-.32.18H669l-.56.3-1.44-.3-1.77-.05.11-1.02.27-.47-.08.2.43.51.51.02.82-.88.91-.13z" data-originalStrokeWidth="0.25" style="shape-rendering: auto; stroke: rgb(0, 0, 0);"></path>


<path id="Apodi" fill="#ccccb8" stroke="#000" stroke-width=".25" d="m672.1 222.9-.3.36-.27 1.2-.23.34-.23 3.03h-.01l-.83.23-2.03.28-.3-.66.72-.44-.14-2.2.42-.11-.44-.9-3.13 1.03.2-.4-.75-.31.12-.75.8-.58.4-.8.28-.16.15-.52.7-.34.29-.55.57-.1.37-1.14.37-.51-.06-.57.29-.61.6-.41 3.03 1.74-.23.3-1.94 2.66.63.23z" data-originalStrokeWidth="0.25" style="shape-rendering: auto; stroke: rgb(0, 0, 0);"></path>


<path id="Areia_Branca" fill="#ccccb8" stroke="#000" stroke-width=".25" d="m686.59 211.22-.77.09-.16.22-1.02-.07v.64h-.8v.36l-.3.3h-.4v.66h-1.08v.5l-.45-.34-.27-.51-.01-.4.38-.42-.1-.45-.18-.53.16-.48.6-.45 1.18.49.6-.37.43.04.34-.23.72.5.72.07z" data-originalStrokeWidth="0.25" style="shape-rendering: auto; stroke: rgb(0, 0, 0);"></path>


<path id="Arês" fill="#ccccb8" stroke="#000" stroke-width=".25" d="m717.43 232.7-.7.55-.34-.07-.58.15-.5.34-.98-.65-.22-.78.68.16h.7l.8-.1.32-.3z" data-originalStrokeWidth="0.25" style="shape-rendering: auto; stroke: rgb(0, 0, 0);"></path>


<path id="Campo_Grande" fill="#ccccb8" stroke="#000" stroke-width=".25" d="m680.13 224.4-.09 1.28.54.6-1.16 1.49 1.74 2-.2.47-1.03-.36h-.44l-.28.5-.4-.1-.71.3-.34.34-.43-.02.03-.76.04-1.45-.46.04-.63.4-.19-1.46-.35-2.66.57-.12 1.12-.41.6-.04.43-.18z" data-originalStrokeWidth="0.25" style="shape-rendering: auto; stroke: rgb(0, 0, 0);"></path>


<path id="Baía_Formosa" fill="#ccccb8" stroke="#000" stroke-width=".25" d="m719.95 238-.42.26-.64.07-.52.38-.66-.53-.31.13.05-1.04-.31-.6 1.14-.89-.08-.28.63-.62.22.97.48.1.3.85z" data-originalStrokeWidth="0.25" style="shape-rendering: auto; stroke: rgb(0, 0, 0);"></path>


<path id="Baraúna" fill="#ccccb8" stroke="#000" stroke-width=".25" d="m673.73 216.63-3.62-1.04.4-1.41.55-.7.15-.52.85-.32.65-2.23 3.06-.71-.45.68-.1 1.27.17.36z" data-originalStrokeWidth="0.25" style="shape-rendering: auto; stroke: rgb(0, 0, 0);"></path>


<path id="Barcelona" fill="#ccccb8" stroke="#000" stroke-width=".25" d="m704.35 227.85.02.03.27.57-1.6 1.12-1.9 1.04.98-.97v-.62l.26-.28-.07-1.1.83.12.26-.2.3.22z" data-originalStrokeWidth="0.25" style="shape-rendering: auto; stroke: rgb(0, 0, 0);"></path>


<path id="Bento_Fernandes" fill="#ccccb8" stroke="#000" stroke-width=".25" d="m706.18 222.66.7.32.19.5 1.15.86-.43.07-2.13-.03-2.88.29.1-.32-.13-.81.3-.57.23-.13.46.04.54-.41.92.2.69.33z" data-originalStrokeWidth="0.25" style="shape-rendering: auto; stroke: rgb(0, 0, 0);"></path>


<path id="Bodó" fill="#ccccb8" stroke="#000" stroke-width=".25" d="m695.8 227.44-.08.3-.59-.2.16 1.3-.52.37-.04.4-.28.15-.68-.17.08.53-1.37.1-.45.17.12-1.18 1.16-1.13.7-.27.2-.24.17-.69.47-.12.36.41.64-.04z" data-originalStrokeWidth="0.25" style="shape-rendering: auto; stroke: rgb(0, 0, 0);"></path>


<path id="Bom_Jesus" fill="#ccccb8" stroke="#000" stroke-width=".25" d="m709.52 230.22-.23.58-1.35-1.13-.05-.7 1.38-.78.3.29.31.83z" data-originalStrokeWidth="0.25" style="shape-rendering: auto; stroke: rgb(0, 0, 0);"></path>


<path id="Brejinho" fill="#ccccb8" stroke="#000" stroke-width=".25" d="m713.2 233.37-.15.44-.75-.08-.35.49-.27-.35.59-.76.38-.92.5.42.24.06z" data-originalStrokeWidth="0.25" style="shape-rendering: auto; stroke: rgb(0, 0, 0);"></path>


<path id="Caiçara_do_Norte" fill="#ccccb8" stroke="#000" stroke-width=".25" d="m701.04 212.62-.1.23.01.78-.32 2.13 1.04.48-.86.74-.93-.2-.86-.53.93-3.18z" data-originalStrokeWidth="0.25" style="shape-rendering: auto; stroke: rgb(0, 0, 0);"></path>


<path id="Caiçara_do_Rio_do_Vento" fill="#ccccb8" stroke="#000" stroke-width=".25" d="m703.02 225.85-.98.06-.58.56-.9.25-.6-.35-.24.22-.06-.58.42-1.07.52-1.65.68.75.95.3h.64l-.1.32.28.55-.26.52z" data-originalStrokeWidth="0.25" style="shape-rendering: auto; stroke: rgb(0, 0, 0);"></path>


<path id="Caicó" fill="#ccccb8" stroke="#000" stroke-width=".25" d="m684.78 232.75.54.45.05.41h.51l-.25.07-.25.91.66.85.23.65.22.16-.24.53-1.47 1.3.11.53.25.98-.77.7.02.43-.42 1.21-.56.43-.53-.47-.67-.4-.12-.5-.44-.12-.28-.42-.52-.22-.68.11-.21-.89.24-.18.07-.57.32-1.42.12-.14.85.18-.01-.36.69-.2.5-.44-.14-.68.1-.82-.1-.3.63-1.18.75-.04.52-.52z" data-originalStrokeWidth="0.25" style="shape-rendering: auto; stroke: rgb(0, 0, 0);"></path>


<path id="Campo_Redondo" fill="#ccccb8" stroke="#000" stroke-width=".25" d="m697.17 232.18.54.1 1.21.05.42.78-.35 1.58-.49-.03-1.03.22-.58-.06-.12.19-.28-.46.11-.28.54-.58-.15-.25.16-.53z" data-originalStrokeWidth="0.25" style="shape-rendering: auto; stroke: rgb(0, 0, 0);"></path>


<path id="Canguaretama" fill="#ccccb8" stroke="#000" stroke-width=".25" d="m718.6 234.4.2.04.03.44-.63.62.08.28-1.14.88.3.61-.05 1.04-.18.44-.4.4v-.35l-.46-1.52-.23-.55-.65.1-.17-.32-.7-.55-.02-.03.64-.37.66.17.56-.09-.02-.57.4-.4.5-.3v.91l.57.11.51-.23-.14-.5z" data-originalStrokeWidth="0.25" style="shape-rendering: auto; stroke: rgb(0, 0, 0);"></path>


<path id="Caraúbas" fill="#ccccb8" stroke="#000" stroke-width=".25" d="m675.77 225 .35 2.66-.8-.15-.72.51-.37.64-.68.4-.98-.72-1.5-.52.23-3.03.23-.34.28-1.2.3-.36 1.69-1.08 1.52-.09.9.36z" data-originalStrokeWidth="0.25" style="shape-rendering: auto; stroke: rgb(0, 0, 0);"></path>


<path id="Carnaúba_dos_Dantas" fill="#ccccb8" stroke="#000" stroke-width=".25" d="m692.38 237.85.04.4.78.33.03.34.66.44.07 1.15-.39.1-.2-.33-.75-.39-.12.3-.52-.05-.66-.41-.86.13-.77-.24 1.2-1.42.54-.42.63.17z" data-originalStrokeWidth="0.25" style="shape-rendering: auto; stroke: rgb(0, 0, 0);"></path>


<path id="Carnaubais" fill="#ccccb8" stroke="#000" stroke-width=".25" d="m688.83 214.8.24.7-.18.26v.58l-.51.18-.37.32-.1.34-.53.61-.1.46-.45.08.07.32-.01.2-.31-.05-1.28-.84-1.78-.5-.4-.56h2.19l-.04-2.88.49.33 1.34.36.53.08.85-.4z" data-originalStrokeWidth="0.25" style="shape-rendering: auto; stroke: rgb(0, 0, 0);"></path>


<path id="Ceará_Mirim" fill="#ccccb8" stroke="#000" stroke-width=".25" d="m714.87 220.84.2.7.29.34.02.65-1.02.22-1.35 1.84-.92.16-.6-.07-.2-.28-.73-.01-.92-.24.06-.27.94-.4-.3-.28-.16-1.27.34-1.51.53-.12.3-.28.64-.22 1.08.22.45.33.6-.03z" data-originalStrokeWidth="0.25" style="shape-rendering: auto; stroke: rgb(0, 0, 0);"></path>


<path id="Cerro_Corá" fill="#ccccb8" stroke="#000" stroke-width=".25" d="m697.75 227.62-.5 1.45-.51 1.1-.37 1.26.12.11-.84-.43-1.21.11-.28-.2-.3-.9-.08-.53.68.18.27-.15.04-.41.52-.37-.16-1.3.6.2.07-.3.24-.43.63-.11.48.1z" data-originalStrokeWidth="0.25" style="shape-rendering: auto; stroke: rgb(0, 0, 0);"></path>


<path id="Coronel_Ezequiel" fill="#ccccb8" stroke="#000" stroke-width=".25" d="m699 234.69.25.53.77 1.6H700l-2.2-.31-.8-.4-.54-.18.34-.53-.03-.4.12-.19.58.06 1.03-.22z" data-originalStrokeWidth="0.25" style="shape-rendering: auto; stroke: rgb(0, 0, 0);"></path>


<path id="Coronel_João_Pessoa" fill="#ccccb8" stroke="#000" stroke-width=".25" d="m659.9 232.44.13.5v.3l-.37.8-.52.54-.87.63-.42-.45-.12-.37.12-.55.58-.54.32.26.22-.3z" data-originalStrokeWidth="0.25" style="shape-rendering: auto; stroke: rgb(0, 0, 0);"></path>


<path id="Cruzeta" fill="#ccccb8" stroke="#000" stroke-width=".25" d="m688.38 235.06.27.28-.23.3.17.7-.34 1.5-.23-.1-.5-.16-.3-.44-.97-.35.24-.53-.22-.16-.23-.65-.66-.85.25-.91.25-.07.61.42.41.12.41.6.73-.1z" data-originalStrokeWidth="0.25" style="shape-rendering: auto; stroke: rgb(0, 0, 0);"></path>


<path id="Currais_Novos" fill="#ccccb8" stroke="#000" stroke-width=".25" d="m696.49 231.54.69.63-.02.73-.16.53.15.25-.54.58-.11.28-.33-.15-.53.34-.33.13-.57-.28-.67 1.22-1.2-.09-.08.5-.82-.43.05-.3-.3-.58-.7-.39.23-.75-.14-.56-.34-.42-.16-.65.1-.42.28-.13.98.3.74-.32.3.25.57-.38.85-.2 1.21-.11z" data-originalStrokeWidth="0.25" style="shape-rendering: auto; stroke: rgb(0, 0, 0);"></path>


<path id="Doutor_Severiano" fill="#ccccb8" stroke="#000" stroke-width=".25" d="m660.36 230.75-.17.81-.44.78-.62.2-.27-.18-.74-.83.45-.44.14-.33.49-.37.4-.06.25.6z" data-originalStrokeWidth="0.25" style="shape-rendering: auto; stroke: rgb(0, 0, 0);"></path>


<path id="Parnamirim" fill="#ccccb8" stroke="#000" stroke-width=".25" d="m716.66 227.57.02.87.57.62h-.16l-.94-.78-.5-.05-.61.34-.08.14-.8-.07.24-1.9.5.27.64.05.74.55z" data-originalStrokeWidth="0.25" style="shape-rendering: auto; stroke: rgb(0, 0, 0);"></path>


<path id="Encanto" fill="#ccccb8" stroke="#000" stroke-width=".25" d="m661.96 232.28-.51.3-.6-.08-.82.44-.13-.5.28-.88.17-.8.58.17.56-.39.24.16-.1.66.31.42z" data-originalStrokeWidth="0.25" style="shape-rendering: auto; stroke: rgb(0, 0, 0);"></path>


<path id="Equador" fill="#ccccb8" stroke="#000" stroke-width=".25" d="m691.8 244.25-.24.3.11.3-.63.99-.9-.04-.57-.04-.4.86-.5-.03-.5-.65.1-.38.53-1.38.07-.35.6.29.29-.28h.74l.4-.31.64.1z" data-originalStrokeWidth="0.25" style="shape-rendering: auto; stroke: rgb(0, 0, 0);"></path>


<path id="Espírito_Santo" fill="#ccccb8" stroke="#000" stroke-width=".25" d="m714.58 235.94.02.03-.68.55-.52-.4-.12-.81.06-.35.17-.02.17-.76-.02-1.14.1-.27.58.25.34 2.1z" data-originalStrokeWidth="0.25" style="shape-rendering: auto; stroke: rgb(0, 0, 0);"></path>


<path id="Extremoz" fill="#ccccb8" stroke="#000" stroke-width=".25" d="m715.78 224.84-.6-.5-.49-.18-.84.6-.85-.17 1.35-1.84 1.02-.22.18.35v.7l.44.51z" data-originalStrokeWidth="0.25" style="shape-rendering: auto; stroke: rgb(0, 0, 0);"></path>


<path id="Felipe_Guerra" fill="#ccccb8" stroke="#000" stroke-width=".25" d="m673.8 221.81-1.7 1.08-.96-.65-.63-.23 1.94-2.65.21.29 1.4.76z" data-originalStrokeWidth="0.25" style="shape-rendering: auto; stroke: rgb(0, 0, 0);"></path>


<path id="Fernando_Pedroza" fill="#ccccb8" stroke="#000" stroke-width=".25" d="m696.88 224.25-.2 2.65-1.26-.18-.58-.95-2.13-.7-.73.24-.3-.2.62-1.18.16.15 1.4-.02.37.13 1.08.04.64.24.34-.25z" data-originalStrokeWidth="0.25" style="shape-rendering: auto; stroke: rgb(0, 0, 0);"></path>


<path id="Florânia" fill="#ccccb8" stroke="#000" stroke-width=".25" d="m688.99 231.06-.21.2.04.77-.45.24-.55.6 1.45.42-.7 1.54-.2.22-.33-.39-.73.1-.4-.6-.42-.12-.6-.42h-.52l-.05-.41-.54-.45 1.16-.25-.04-.55-.54-.24-.17-.76.62-.05.78-.74.76.16.34-.24.48.28.63.01z" data-originalStrokeWidth="0.25" style="shape-rendering: auto; stroke: rgb(0, 0, 0);"></path>


<path id="Francisco_Dantas" fill="#ccccb8" stroke="#000" stroke-width=".25" d="m664.34 228.66.49 1 .55.5-.22.58.6-.3.14.43.3.22-.62.53-1.06-.22-.78-.31-.74-.88.1-.5.7-.81z" data-originalStrokeWidth="0.25" style="shape-rendering: auto; stroke: rgb(0, 0, 0);"></path>


<path id="Frutuoso_Gomes" fill="#ccccb8" stroke="#000" stroke-width=".25" d="m669.88 232.1-.17.25.2.38.03.5-1.63-.9.55-.76-.1-.34.46.28z" data-originalStrokeWidth="0.25" style="shape-rendering: auto; stroke: rgb(0, 0, 0);"></path>


<path id="Galinhos" fill="#ccccb8" stroke="#000" stroke-width=".25" d="m699.96 213.07-.93 3.18-2.2.57v-1.45l-.21-1.47-.35-.39.32-.25.84.15h1.45l.56-.06z" data-originalStrokeWidth="0.25" style="shape-rendering: auto; stroke: rgb(0, 0, 0);"></path>


<path id="Goianinha" fill="#ccccb8" stroke="#000" stroke-width=".25" d="m716.74 233.25-.1.87.18.56-.4.4.01.57-.56.09-.66-.17-.64.37.1-.82-.33-2.1.97.65.5-.34.59-.15z" data-originalStrokeWidth="0.25" style="shape-rendering: auto; stroke: rgb(0, 0, 0);"></path>


<path id="Governador_Dix_Sept_Rosado" fill="#ccccb8" stroke="#000" stroke-width=".25" d="M678.83 220.16h-1.55l-1.06 1.92-.9-.36-1.52.1.26-1.42-1.4-.76-.2-.29.23-.3-3.02-1.75.46-.34-.1-.5.14-.5-.06-.38 3.62 1.04 2.78.58 2.3 1.42.02.68-.13.6z" data-originalStrokeWidth="0.25" style="shape-rendering: auto; stroke: rgb(0, 0, 0);"></path>


<path id="Grossos" fill="#ccccb8" stroke="#000" stroke-width=".25" d="m681.59 210.78-.16.48.19.53-.53.18-.17-.79-.57.38-1.75-.82h.66l.02-.6.85-.52.72.63.4.5z" data-originalStrokeWidth="0.25" style="shape-rendering: auto; stroke: rgb(0, 0, 0);"></path>


<path id="Guamaré" fill="#ccccb8" stroke="#000" stroke-width=".25" d="m696.26 213.51.35.4.21 1.46.01 1.45-1.63-.68-1.1-2.08.42-.93.62.15.7-.04z" data-originalStrokeWidth="0.25" style="shape-rendering: auto; stroke: rgb(0, 0, 0);"></path>


<path id="Ielmo_Marinho" fill="#ccccb8" stroke="#000" stroke-width=".25" d="m711.49 224.68-.43 1.79-.31-.06-.71.89-1.16-.26-.72-1.13-.06-.24-.31-1.27.43-.07h0l1.32.12.1-.3.92.23.73.01z" data-originalStrokeWidth="0.25" style="shape-rendering: auto; stroke: rgb(0, 0, 0);"></path>


<path id="Ipanguaçu" fill="#ccccb8" stroke="#000" stroke-width=".25" d="m689.36 221-.47.85-.81.56.27.3.09.43-1.15-.07-1.44-.7.27-.53-.31-.4-.07-.37.3-.64.3-.26-.08-.37.24-.27 2.84.38z" data-originalStrokeWidth="0.25" style="shape-rendering: auto; stroke: rgb(0, 0, 0);"></path>


<path id="Ipueira" fill="#ccccb8" stroke="#000" stroke-width=".25" d="m682.7 242.72-.93.2-.42.58-.72.5-.74-.03-.36-.24-.05-.56-.2-.31.09-.54 1.06.53.82-.39 1.1-.27z" data-originalStrokeWidth="0.25" style="shape-rendering: auto; stroke: rgb(0, 0, 0);"></path>


<path id="Itajá" fill="#ccccb8" stroke="#000" stroke-width=".25" d="m689.28 224.1-.74.68-.18.33-.6-.06-.85-.33-.21-.22-.79-.23.17-.5.01-.74-.25-.66 1.44.7 1.15.08.34.66z" data-originalStrokeWidth="0.25" style="shape-rendering: auto; stroke: rgb(0, 0, 0);"></path>


<path id="Itaú" fill="#ccccb8" stroke="#000" stroke-width=".25" d="m667.9 227.69-.07-.9-.6.19-.96-.12-.17-.06.7-.67 1.16-.56.12-.6.37-.94.44.9-.42.11.14 2.2z" data-originalStrokeWidth="0.25" style="shape-rendering: auto; stroke: rgb(0, 0, 0);"></path>


<path id="Jaçanã" fill="#ccccb8" stroke="#000" stroke-width=".25" d="m700 236.81-.24.16-.59-.07-.55.1-.92.05-.4.06-.02-.58-.72-.15-.08-.45.54.17.79.4z" data-originalStrokeWidth="0.25" style="shape-rendering: auto; stroke: rgb(0, 0, 0);"></path>


<path id="Jandaíra" fill="#ccccb8" stroke="#000" stroke-width=".25" d="m699.02 216.25.86.52.93.21.24.06.44 1.73.22.3.13.84-.62-.33-.63-.7-1.16.9-.54-.4h-1.12l-.93-2.55z" data-originalStrokeWidth="0.25" style="shape-rendering: auto; stroke: rgb(0, 0, 0);"></path>


<path id="Janduís" fill="#ccccb8" stroke="#000" stroke-width=".25" d="m676.13 227.66.19 1.46.63-.4.46-.04-.04 1.45-1.4.96-1.03-.57-.75-.86-.64-.6.68-.4.37-.64.72-.5z" data-originalStrokeWidth="0.25" style="shape-rendering: auto; stroke: rgb(0, 0, 0);"></path>


<path id="Januário_Cicco" fill="#ccccb8" stroke="#000" stroke-width=".25" d="m709.73 230.34.02.03.24.64-.17.1.1.78-.26 1.02-.3.11-.43.1-.53-.1-.67.3-.06-.43-1.37-.27.34-.18.69-.09.5.16.22-.72.86-.72.39-.28.23-.58z" data-originalStrokeWidth="0.25" style="shape-rendering: auto; stroke: rgb(0, 0, 0);"></path>


<path id="Japi" fill="#ccccb8" stroke="#000" stroke-width=".25" d="m704 235.8.04.37.44-.1-.2 1 .28.31 1.04.54-1.6.1-1.3.08-.38-.16v-1.7l.68-.27.35-.36z" data-originalStrokeWidth="0.25" style="shape-rendering: auto; stroke: rgb(0, 0, 0);"></path>


<path id="Jardim_de_Angicos" fill="#ccccb8" stroke="#000" stroke-width=".25" d="M702.88 224.34h-.64l-.95-.3-.68-.74 1.24-3.4 1.43 2.94-.23.13-.3.57z" data-originalStrokeWidth="0.25" style="shape-rendering: auto; stroke: rgb(0, 0, 0);"></path>


<path id="Jardim_de_Piranhas" fill="#ccccb8" stroke="#000" stroke-width=".25" d="m681.54 232.59-.39.36-.53.19-.5.39.09.2-.05 2.17-.73.63-1.02.9-1.11-.32-.26-.3.12-.52.2-.38v-.44l.26-.39.5-.25.35-.53.74.03.05-.5.65-.68.57-.13.14-.38.34-.08.3-.48.5.1z" data-originalStrokeWidth="0.25" style="shape-rendering: auto; stroke: rgb(0, 0, 0);"></path>


<path id="Jardim_do_Seridó" fill="#ccccb8" stroke="#000" stroke-width=".25" d="m689.7 239.63.19.55-.51.17-.43.47-.75.4-.92.18-.5-.45-.44-.1-.01-.31-.7-.41-.48-.53-.25-.98.8-.08 1.23.37.8-.31.53-.1 1.02.4z" data-originalStrokeWidth="0.25" style="shape-rendering: auto; stroke: rgb(0, 0, 0);"></path>


<path id="João_Câmara" fill="#ccccb8" stroke="#000" stroke-width=".25" d="m704.68 217.12.31 2.8.65-.38.23.16.34.1-.03 2.87-.3.33-.69-.32-.92-.21-.54.4-.46-.03-1.43-2.93-.13-.84-.22-.3.4-.92.25-.27z" data-originalStrokeWidth="0.25" style="shape-rendering: auto; stroke: rgb(0, 0, 0);"></path>


<path id="João_Dias" fill="#ccccb8" stroke="#000" stroke-width=".25" d="m669.13 235.28-1.02-.26-.12-.6.46-.2.56-.31h.98l.32-.18.2.82-.83.01z" data-originalStrokeWidth="0.25" style="shape-rendering: auto; stroke: rgb(0, 0, 0);"></path>


<path id="José_da_Penha" fill="#ccccb8" stroke="#000" stroke-width=".25" d="M661.98 234.5v.78l.4.41-.23.51-.26.58-.1-.23-.5-.24.2-.24-1.08-.07.09-.8-.03-.3.63-.6z" data-originalStrokeWidth="0.25" style="shape-rendering: auto; stroke: rgb(0, 0, 0);"></path>


<path id="Jucurutu" fill="#ccccb8" stroke="#000" stroke-width=".25" d="m685.91 228.94.62.17.17.45-.12.6-.77.74-.62.05.17.76.54.24.04.55-1.16.25-.29.03-.52.52-.75.04-.43.24-.48-.1-.33-.42-.26.03-.18-.5.22-.4-.5-.1-.32-.2.06-.71-.05-.94.21-.47.15-.51.57-.67.98.53.55-1.65.36-.36.1-.6.57-.41.33.7.36.3-.62.75.39.3.26.68z" data-originalStrokeWidth="0.25" style="shape-rendering: auto; stroke: rgb(0, 0, 0);"></path>


<path id="Jundiá" fill="#ccccb8" stroke="#000" stroke-width=".25" d="m713.34 234.96-.32-.13.19-1.46.18-.7.37.1-.1.27.02 1.14-.17.76z" data-originalStrokeWidth="0.25" style="shape-rendering: auto; stroke: rgb(0, 0, 0);"></path>


<path id="Lagoa_d_Anta" fill="#ccccb8" stroke="#000" stroke-width=".25" d="m708.01 235.15.5.43.33.63.74.09.19.47-.25.24-1.03-.07-.97-.21-.17-.43-.03-.58.23-.16-.03-.61z" data-originalStrokeWidth="0.25" style="shape-rendering: auto; stroke: rgb(0, 0, 0);"></path>


<path id="Lagoa_de_Pedras" fill="#ccccb8" stroke="#000" stroke-width=".25" d="m712.64 232.19-.38.92-.59.75-.57-.4-1.75-.44.3-.1.42.02.48-.38.96-.45.03-.24.53-.15z" data-originalStrokeWidth="0.25" style="shape-rendering: auto; stroke: rgb(0, 0, 0);"></path>


<path id="Lagoa_de_Velhos" fill="#ccccb8" stroke="#000" stroke-width=".25" d="m704.85 230.68-1.8-1.1 1.59-1.12.99 1.2-.35.48z" data-originalStrokeWidth="0.25" style="shape-rendering: auto; stroke: rgb(0, 0, 0);"></path>


<path id="Lagoa_Nova" fill="#ccccb8" stroke="#000" stroke-width=".25" d="m694.43 231.22-.85.2-.57.38-.3-.25-.74.33-.98-.3-.28.13-.29-.76 1.61-.57.45-.17 1.37-.1.31.91z" data-originalStrokeWidth="0.25" style="shape-rendering: auto; stroke: rgb(0, 0, 0);"></path>


<path id="Lagoa_Salgada" fill="#ccccb8" stroke="#000" stroke-width=".25" d="m711.54 231.88-.03.24-.96.45-.48.38-.42-.03.27-1.02-.1-.8.16-.1.56.36.61.17z" data-originalStrokeWidth="0.25" style="shape-rendering: auto; stroke: rgb(0, 0, 0);"></path>


<path id="Lajes" fill="#ccccb8" stroke="#000" stroke-width=".25" d="m700.6 223.3-.52 1.64-.42 1.07.07.58-.42.4-.41-.26-.47.14-.2.44-.29-.16-.2.46-.59-.62-.48-.1.2-2.65.2-.52 1.46-3.58-.76-.77 1.12.01.55.4-.21.77-.55.78.5.4v.43z" data-originalStrokeWidth="0.25" style="shape-rendering: auto; stroke: rgb(0, 0, 0);"></path>


<path id="Lajes_Pintadas" fill="#ccccb8" stroke="#000" stroke-width=".25" d="m700.3 231.19.04 1.67-1 .24-.42-.78-1.2-.04.01-.36.9-.39.2-.27.74-.3z" data-originalStrokeWidth="0.25" style="shape-rendering: auto; stroke: rgb(0, 0, 0);"></path>


<path id="Lucrécia" fill="#ccccb8" stroke="#000" stroke-width=".25" d="m669.88 232.1-.65-.6-.46-.28.55-.39-.24-.44 1 .6-.37.41z" data-originalStrokeWidth="0.25" style="shape-rendering: auto; stroke: rgb(0, 0, 0);"></path>


<path id="Luís_Gomes" fill="#ccccb8" stroke="#000" stroke-width=".25" d="m660.5 235.2-.1.8-.19 1.3.06.15h-.5l-.22-.6-.3-.22-.45.08-.37-.2-.63-.23-.09-.5.54-.55.01-.01.87-.64.21.44.04.47z" data-originalStrokeWidth="0.25" style="shape-rendering: auto; stroke: rgb(0, 0, 0);"></path>


<path id="Macaíba" fill="#ccccb8" stroke="#000" stroke-width=".25" d="m714.4 226.74-.24 1.9-1.37.53-3.06 1.17-.2-.12.36-.91-.32-.83-.3-.3.76-.89.71-.88.31.06.7.19 2.18-.16.47-.12z" data-originalStrokeWidth="0.25" style="shape-rendering: auto; stroke: rgb(0, 0, 0);"></path>


<path id="Macau" fill="#ccccb8" stroke="#000" stroke-width=".25" d="m694.51 213.13-.42.93 1.11 2.08-.22.37v.77l-.52.34-.52.63-1.34.57.02-1.77-.5-.01.12-.66-.12-.37-.39-.44-2.9-.76.13-.65-.4-.86.5-.16.48.13.72-.01.6.12.05-.28 1.22.18.02-.21.59-.26.59.13.44-.05z" data-originalStrokeWidth="0.25" style="shape-rendering: auto; stroke: rgb(0, 0, 0);"></path>


<path id="Major_Sales" fill="#ccccb8" stroke="#000" stroke-width=".25" d="m661.28 236.31-.35.6-.72.4.2-1.3 1.08.06z" data-originalStrokeWidth="0.25" style="shape-rendering: auto; stroke: rgb(0, 0, 0);"></path>


<path id="Marcelino_Vieira" fill="#ccccb8" stroke="#000" stroke-width=".25" d="m664.13 235.88-.69.35-.42-.44-.26.33-.62.09.23-.51-.39-.41v-.78l-.2-.25.17-.46.97-.51.43-.47.72-.32 1.27.35-.1 1.02-.6 1.08-.05.28-.07.46z" data-originalStrokeWidth="0.25" style="shape-rendering: auto; stroke: rgb(0, 0, 0);"></path>


<path id="Martins" fill="#ccccb8" stroke="#000" stroke-width=".25" d="m669.09 230.4.23.44-.55.39.09.35-.55.75-.1-.24-.91.13.1-1.08-.7-.42.47-.82.36-.44.65.06.63.41z" data-originalStrokeWidth="0.25" style="shape-rendering: auto; stroke: rgb(0, 0, 0);"></path>


<path id="Maxaranguape" fill="#ccccb8" stroke="#000" stroke-width=".25" d="m714.87 220.84-.74-.53-.6.03-.45-.33-1.09-.22-.64.22-.3.28-.53.12.36-.69 1.42-.29.69-.4.64-.58.58.9.09.5.49.36z" data-originalStrokeWidth="0.25" style="shape-rendering: auto; stroke: rgb(0, 0, 0);"></path>


<path id="Messias_Targino" fill="#ccccb8" stroke="#000" stroke-width=".25" d="m677.37 230.13-.03.76-.26.42-.92.05-.23.58-1.12.12-.98-2.08.36-.32.75.86 1.03.57z" data-originalStrokeWidth="0.25" style="shape-rendering: auto; stroke: rgb(0, 0, 0);"></path>


<path id="Montanhas" fill="#ccccb8" stroke="#000" stroke-width=".25" d="m715.42 238.6-.1.16-.79.24h-.99l-.19-.1.48-1.57.62-.02.07.57z" data-originalStrokeWidth="0.25" style="shape-rendering: auto; stroke: rgb(0, 0, 0);"></path>


<path id="Monte_Alegre" fill="#ccccb8" stroke="#000" stroke-width=".25" d="m712.93 230.37.74-.13.43.42-.48 1.22-.47.73-.5-.43-.58-.46-.53.15-.39-.34-.6-.17-.57-.36-.24-.64.58-.08 1 .5.42-.23.05-.27z" data-originalStrokeWidth="0.25" style="shape-rendering: auto; stroke: rgb(0, 0, 0);"></path>


<path id="Monte_das_Gameleiras" fill="#ccccb8" stroke="#000" stroke-width=".25" d="M705.72 237.93h-.11l-1.04-.54-.28-.32.19-1 1.24.53.16.19z" data-originalStrokeWidth="0.25" style="shape-rendering: auto; stroke: rgb(0, 0, 0);"></path>


<path id="Mossoró" fill="#ccccb8" stroke="#000" stroke-width=".25" d="m676.14 209.6.34.54 1.1-.07.35.48.67.2 1.75.81.57-.38.17.8.53-.19.09.45-.38.42v.4l.27.51.46.34v.74h-.8l.02 2.25h.53l-.23.74-.07.67-.53 2.06-2.15-.22-.13-.26.13-.59-.02-.68-2.3-1.42-2.78-.58 1.67-4.62-.17-.36.1-1.27.45-.68z" data-originalStrokeWidth="0.25" style="shape-rendering: auto; stroke: rgb(0, 0, 0);"></path>


<path id="Natal" fill="#ccccb8" stroke="#000" stroke-width=".25" d="m715.78 224.84.2.68.23.31V227l.45.58-.38.05-.74-.55-.64-.05-.5-.29v-.36l.53-.56.02-.38-.62-.23-.1-.55.46-.5.5.18z" data-originalStrokeWidth="0.25" style="shape-rendering: auto; stroke: rgb(0, 0, 0);"></path>


<path id="Nísia_Floresta" fill="#ccccb8" stroke="#000" stroke-width=".25" d="m717.25 229.06.26.54-.07.54.24.25-.03 1.46-.23-.09-.9.03.1.21-.33.3-.8.1-.1-.15-.03-1.57-.17-.09.15-1.36-.3-.66.6-.34.52.05.94.78z" data-originalStrokeWidth="0.25" style="shape-rendering: auto; stroke: rgb(0, 0, 0);"></path>


<path id="Nova_Cruz" fill="#ccccb8" stroke="#000" stroke-width=".25" d="m713.91 236.51.11.31-.19.51-.48 1.57-.4-.47-.77-.39-.6-.06h-.74l-.5-.17-.94.26-.29-.13v-.25l.4-.69.25-.24.47-.2h1.25l.67-.42.64.42.4.06.24-.23z" data-originalStrokeWidth="0.25" style="shape-rendering: auto; stroke: rgb(0, 0, 0);"></path>


<path id="Olho_d_Água_do_Borges" fill="#ccccb8" stroke="#000" stroke-width=".25" d="m672.14 230.24-.5.05-.37-.17-.34-.5-.55-.2-.03-.71.7-.87.02-.01 1.5.52-.15.9-.31.45z" data-originalStrokeWidth="0.25" style="shape-rendering: auto; stroke: rgb(0, 0, 0);"></path>


<path id="Ouro_Branco" fill="#ccccb8" stroke="#000" stroke-width=".25" d="m687.27 241.4-.46-.08.13.99-1.32.46-.87.47-.25-.45-.08-.64-.45-.21.42-1.21-.02-.43.77-.7.48.53.7.4.01.33.45.09z" data-originalStrokeWidth="0.25" style="shape-rendering: auto; stroke: rgb(0, 0, 0);"></path>


<path id="Paraná" fill="#ccccb8" stroke="#000" stroke-width=".25" d="m662.3 237.94-.48-.01-.57.4-.45-.32-.26-.48-.27-.07-.06-.15.72-.4.35-.6.51.25.1.23.03.27z" data-originalStrokeWidth="0.25" style="shape-rendering: auto; stroke: rgb(0, 0, 0);"></path>


<path id="Paraú" fill="#ccccb8" stroke="#000" stroke-width=".25" d="m683.4 227.46-1.16-.32-.84-.11-.82-.75-.54-.6.1-1.28.77.1.6-.63.67-.56.88 1.59.6.16.48.3z" data-originalStrokeWidth="0.25" style="shape-rendering: auto; stroke: rgb(0, 0, 0);"></path>


<path id="Parazinho" fill="#ccccb8" stroke="#000" stroke-width=".25" d="m701.5 218.76-.44-1.73-.24-.05.85-.75.88-.33 2.13-.48-.15.43.15 1.26-2.54.46-.25.27z" data-originalStrokeWidth="0.25" style="shape-rendering: auto; stroke: rgb(0, 0, 0);"></path>


<path id="Parelhas" fill="#ccccb8" stroke="#000" stroke-width=".25" d="m689.7 239.63.77.23.86-.14.66.41.52.05-.67 1.71.44.47.5.36.07.42-.15.7-.6.44-.3-.03-.25-.61-.64-.11-.41.32-.74-.01-.3.28-.58-.3-.1-.43.35-.68.09-1.3-.37-.38.1-.21.43-.47.5-.17z" data-originalStrokeWidth="0.25" style="shape-rendering: auto; stroke: rgb(0, 0, 0);"></path>


<path id="Rio_do_Fogo" fill="#ccccb8" stroke="#000" stroke-width=".25" d="m712.63 216.49.2.25.28 1.25.51.46-.64.58-.69.4-1.42.3 1.12-2.13z" data-originalStrokeWidth="0.25" style="shape-rendering: auto; stroke: rgb(0, 0, 0);"></path>


<path id="Passa_e_Fica" fill="#ccccb8" stroke="#000" stroke-width=".25" d="m709.51 237-.4.7v.25l-.4-.44-.58-.1-.48-.13-.14-.56.97.21z" data-originalStrokeWidth="0.25" style="shape-rendering: auto; stroke: rgb(0, 0, 0);"></path>


<path id="Passagem" fill="#ccccb8" stroke="#000" stroke-width=".25" d="m712.52 235.1-.66-.06.08-.82.35-.5.77.08z" data-originalStrokeWidth="0.25" style="shape-rendering: auto; stroke: rgb(0, 0, 0);"></path>


<path id="Patu" fill="#ccccb8" stroke="#000" stroke-width=".25" d="m674.8 232.06-.32.25-.52-.18-.83.37-.53.23-.47.02-.63-.24.37-1.2.27-1.08-.04-.54.31-.45.15-.9.98.72.64.6-.36.32z" data-originalStrokeWidth="0.25" style="shape-rendering: auto; stroke: rgb(0, 0, 0);"></path>


<path id="Santa_Maria" fill="#ccccb8" stroke="#000" stroke-width=".25" d="m708.1 225.68-.51.07-.27 1.32-.37-.13-.67.19-.97-.33.3-.69.05-1.74 2.13.03z" data-originalStrokeWidth="0.25" style="shape-rendering: auto; stroke: rgb(0, 0, 0);"></path>


<path id="Pau_dos_Ferros" fill="#ccccb8" stroke="#000" stroke-width=".25" d="m663 230.2.74.89.78.3 1.06.23.03.76-.27.47-1.27-.35-.72.32-.07-.42-.59-.26-.74.15v-.5l-.32-.42.1-.66-.24-.16.4-.4v-.58l.65.25z" data-originalStrokeWidth="0.25" style="shape-rendering: auto; stroke: rgb(0, 0, 0);"></path>


<path id="Pedra_Grande" fill="#ccccb8" stroke="#000" stroke-width=".25" d="m705.4 213.07-.72 2.35-2.13.48.78-3.15.4.13z" data-originalStrokeWidth="0.25" style="shape-rendering: auto; stroke: rgb(0, 0, 0);"></path>


<path id="Pedra_Preta" fill="#ccccb8" stroke="#000" stroke-width=".25" d="m700.6 223.3-1.42-1.14v-.43l-.5-.4.55-.78.2-.77 1.17-.9.63.7.62.32z" data-originalStrokeWidth="0.25" style="shape-rendering: auto; stroke: rgb(0, 0, 0);"></path>


<path id="Pedro_Avelino" fill="#ccccb8" stroke="#000" stroke-width=".25" d="m697.08 223.72-.8-.52-2.87-.92.53-4.04.52-.63.52-.34v-.77l.22-.36 1.63.68.93 2.55.77.77z" data-originalStrokeWidth="0.25" style="shape-rendering: auto; stroke: rgb(0, 0, 0);"></path>


<path id="Pedro_Velho" fill="#ccccb8" stroke="#000" stroke-width=".25" d="m716.82 239.16-.41.1-.45-.14-.53-.51-.9-.72-.07-.57-.62.02.19-.51-.11-.31.68-.55.7.55.17.32.65-.1.23.55.46 1.52z" data-originalStrokeWidth="0.25" style="shape-rendering: auto; stroke: rgb(0, 0, 0);"></path>


<path id="Pendências" fill="#ccccb8" stroke="#000" stroke-width=".25" d="m692.6 218.81-.38.2-.32-.32-1.93-.4-1.6-1.76.51-.18v-.58l.18-.27-.24-.7 2.91.76.4.44.11.37-.12.66.5.01z" data-originalStrokeWidth="0.25" style="shape-rendering: auto; stroke: rgb(0, 0, 0);"></path>


<path id="Pilões" fill="#ccccb8" stroke="#000" stroke-width=".25" d="m664.6 235.22.04-.28.6-1.08 1.77.05-.36.96-.84.2-.45-.18-.59.1z" data-originalStrokeWidth="0.25" style="shape-rendering: auto; stroke: rgb(0, 0, 0);"></path>


<path id="Poço_Branco" fill="#ccccb8" stroke="#000" stroke-width=".25" d="m708.33 220.41-.75.07.17 1.6.3.75.18 1.5h-.02l-1.15-.86-.19-.49-.69-.32.03-2.86 1.13.11z" data-originalStrokeWidth="0.25" style="shape-rendering: auto; stroke: rgb(0, 0, 0);"></path>


<path id="Portalegre" fill="#ccccb8" stroke="#000" stroke-width=".25" d="m666.65 228.82.11.46.4.62-.47.82-.49.36-.3-.22-.14-.42-.6.3.22-.58-.55-.5.34-.2.42.07.3-.3z" data-originalStrokeWidth="0.25" style="shape-rendering: auto; stroke: rgb(0, 0, 0);"></path>


<path id="Porto_do_Mangue" fill="#ccccb8" stroke="#000" stroke-width=".25" d="m686.59 211.22.77.95 1.7.97-.5.16.4.85-.13.65-.35-.4-.85.4-.53-.08-1.34-.36-.5-.34h-.79v-.48l.4-.4h.77l.01-1.61.16-.23z" data-originalStrokeWidth="0.25" style="shape-rendering: auto; stroke: rgb(0, 0, 0);"></path>


<path id="Serra_Caiada" fill="#ccccb8" stroke="#000" stroke-width=".25" d="m708.9 231.07-.86.72-.2.72-.52-.16-.69.1-.19-.54-1.34-.05-.23-.19-.04-.97.01-.03.43-.54.3-.03 1.06.6.62-.03z" data-originalStrokeWidth="0.25" style="shape-rendering: auto; stroke: rgb(0, 0, 0);"></path>


<path id="Pureza" fill="#ccccb8" stroke="#000" stroke-width=".25" d="m712 217.6-1.12 2.13-.36.69-.63.35-.5-.34-.58-.1-.49.08-.98-.5-1.13-.1-.34-.12.81-1.1 1.36-.97 1-.44.08-.17.82.68 1.35-.26z" data-originalStrokeWidth="0.25" style="shape-rendering: auto; stroke: rgb(0, 0, 0);"></path>


<path id="Rafael_Fernandes" fill="#ccccb8" stroke="#000" stroke-width=".25" d="m663.36 232.81-.43.47-.97.51-.41-.47.12-.24-.22-.5.5-.3.74-.15.6.26z" data-originalStrokeWidth="0.25" style="shape-rendering: auto; stroke: rgb(0, 0, 0);"></path>


<path id="Rafael_Godeiro" fill="#ccccb8" stroke="#000" stroke-width=".25" d="m672.14 230.24-.27 1.08-.4.38-.55-.16-.27-.6-.35-.35-.1-.48.19-.7.55.2.34.5.37.17z" data-originalStrokeWidth="0.25" style="shape-rendering: auto; stroke: rgb(0, 0, 0);"></path>


<path id="Riacho_da_Cruz" fill="#ccccb8" stroke="#000" stroke-width=".25" d="m667.9 227.69.3.66-.46.33-.87-.06-.22.2-.76.4-.33-.97.63-.35.38-.53.65-.4.6-.18z" data-originalStrokeWidth="0.25" style="shape-rendering: auto; stroke: rgb(0, 0, 0);"></path>


<path id="Riacho_de_Santana" fill="#ccccb8" stroke="#000" stroke-width=".25" d="m661.54 233.32.41.47-.17.46.2.25-.88-.2-.63.6.03.3-1.11.29-.04-.47-.21-.44.52-.54.37-.8 1 .42z" data-originalStrokeWidth="0.25" style="shape-rendering: auto; stroke: rgb(0, 0, 0);"></path>


<path id="Riachuelo" fill="#ccccb8" stroke="#000" stroke-width=".25" d="m705.65 224.38-.05 1.74-.3.68-.63.98-.3.1-.02-.02-1.32-2-.23-.12.26-.52-.28-.55z" data-originalStrokeWidth="0.25" style="shape-rendering: auto; stroke: rgb(0, 0, 0);"></path>


<path id="Rodolfo_Fernandes" fill="#ccccb8" stroke="#000" stroke-width=".25" d="m664.2 228.43-.28-.16-.45.04.07-.25.66-.76.06-.86.32-.5.75-.88.78 1.75.17.05-1 .83-.73.35z" data-originalStrokeWidth="0.25" style="shape-rendering: auto; stroke: rgb(0, 0, 0);"></path>


<path id="Tibau" fill="#ccccb8" stroke="#000" stroke-width=".25" d="m678.6 210.75-.67-.2-.35-.48-1.1.08-.34-.54 1.58-.41 1.84-.47.57.89-.85.53-.02.6z" data-originalStrokeWidth="0.25" style="shape-rendering: auto; stroke: rgb(0, 0, 0);"></path>


<path id="Ruy_Barbosa" fill="#ccccb8" stroke="#000" stroke-width=".25" d="m703.02 225.85 1.32 2-.64-.07-.3-.23-.26.21-.83-.11-.84-1.17.58-.56z" data-originalStrokeWidth="0.25" style="shape-rendering: auto; stroke: rgb(0, 0, 0);"></path>


<path id="Santa_Cruz" fill="#ccccb8" stroke="#000" stroke-width=".25" d="m703.15 232.26.84 3.53-.64-.18-.35.36-.68.27v1.47l-1.2-3.04-.65.07-1.22.48-.25-.53.35-1.58.99-.26-.04-1.67.85-.57.8.51v.8l.35.5z" data-originalStrokeWidth="0.25" style="shape-rendering: auto; stroke: rgb(0, 0, 0);"></path>


<path id="Santana_do_Matos" fill="#ccccb8" stroke="#000" stroke-width=".25" d="m691.67 225.1.31.2.73-.23 2.12.7.58.94 1.26.18-.63.11-.24.43.04-.3-.64.04-.36-.4-.47.11-.17.7-.19.23-.7.27-1.16 1.12-.12 1.19-1.6.57-.27.4-.28.01-.9-.3-.19-.68-.63-.01-.48-.28-.34.23-.76-.17.12-.6-.17-.45-.62-.17 1.33-1.08.8-.93-.05-1.04.13-.16-.37-.67.61.06.18-.33.74-.68.5.09.3.64.5.28z" data-originalStrokeWidth="0.25" style="shape-rendering: auto; stroke: rgb(0, 0, 0);"></path>


<path id="Santana_do_Seridó" fill="#ccccb8" stroke="#000" stroke-width=".25" d="m688.88 243.82-.07.35-.7.04-.06-.92-1.1-.99-.14-.99.46.08.92-.18.75-.4-.1.21.37.38-.09 1.3-.34.68z" data-originalStrokeWidth="0.25" style="shape-rendering: auto; stroke: rgb(0, 0, 0);"></path>


<path id="Santo_Antônio" fill="#ccccb8" stroke="#000" stroke-width=".25" d="m712.52 235.1-.22.33-.15.7-.67.43h-1.25l-.47.2-.19-.47-.74-.09-.33-.63-.49-.43.2-.3.4.12.28-.27.52-.07.2-.2.48-.02.4.24.6-.42.01-.76.57.4.27.35-.08.82z" data-originalStrokeWidth="0.25" style="shape-rendering: auto; stroke: rgb(0, 0, 0);"></path>


<path id="São_Bento_do_Norte" fill="#ccccb8" stroke="#000" stroke-width=".25" d="m703.34 212.75-.78 3.15-.88.33-1.04-.47.32-2.13-.01-.78.1-.23 1-.17.58.05z" data-originalStrokeWidth="0.25" style="shape-rendering: auto; stroke: rgb(0, 0, 0);"></path>


<path id="São_Bento_do_Trairí" fill="#ccccb8" stroke="#000" stroke-width=".25" d="M702.33 237.72v.23l-.71-.06-.2-.51-.35-.14-.72-.68-.34.26-.77-1.6 1.22-.48.65-.06z" data-originalStrokeWidth="0.25" style="shape-rendering: auto; stroke: rgb(0, 0, 0);"></path>


<path id="São_Fernando" fill="#ccccb8" stroke="#000" stroke-width=".25" d="m683.23 233.34-.62 1.18.1.3-.11.83.15.68-.51.44-.7.19.01.36-.85-.17-.57-.15-.7-.46.72-.64.05-2.17-.09-.2.51-.4.53-.18.4-.36.17.5.26-.03.33.42.48.1z" data-originalStrokeWidth="0.25" style="shape-rendering: auto; stroke: rgb(0, 0, 0);"></path>


<path id="São_Francisco_do_Oeste" fill="#ccccb8" stroke="#000" stroke-width=".25" d="m664.2 228.43.13.24-.53.23-.7.8-.1.5-.46-.38-.65-.25.9-.85.68-.41.45-.04z" data-originalStrokeWidth="0.25" style="shape-rendering: auto; stroke: rgb(0, 0, 0);"></path>


<path id="São_Gonçalo_do_Amarante" fill="#ccccb8" stroke="#000" stroke-width=".25" d="m714.4 226.38-.47.12-2.18.16-.7-.2.43-1.79.6.08.92-.16.85.17.84-.6-.46.5.1.55.61.23-.02.38z" data-originalStrokeWidth="0.25" style="shape-rendering: auto; stroke: rgb(0, 0, 0);"></path>


<path id="São_João_do_Sabugi" fill="#ccccb8" stroke="#000" stroke-width=".25" d="m683.41 242.37-.7.35-.37-.52-1.1.27-.82.39-1.06-.54-.46-.33.11-.34-.54-.09.23-.65.88-.09.6-.48.68-.1.51.21.28.42.44.12.12.5.67.4z" data-originalStrokeWidth="0.25" style="shape-rendering: auto; stroke: rgb(0, 0, 0);"></path>


<path id="São_José_de_Mipibu" fill="#ccccb8" stroke="#000" stroke-width=".25" d="M715.5 232.4h-.7l-.68-.16.22.78-.58-.25-.37-.1-.23-.06.47-.73.48-1.22-.43-.42-.74.13-.3-.6.15-.6 1.37-.52.8.07.08-.14.3.66-.15 1.36.17.09.03 1.57z" data-originalStrokeWidth="0.25" style="shape-rendering: auto; stroke: rgb(0, 0, 0);"></path>


<path id="São_José_do_Campestre" fill="#ccccb8" stroke="#000" stroke-width=".25" d="m706.3 232.62 1.37.27.06.43-.13.3.41 1.53-.5-.2.03.6-.23.17-1.44 1.07-.16-.2-1.24-.52-.44.1-.04-.37.37-.01.81-.76.38-1.26.34-.82z" data-originalStrokeWidth="0.25" style="shape-rendering: auto; stroke: rgb(0, 0, 0);"></path>


<path id="São_José_do_Seridó" fill="#ccccb8" stroke="#000" stroke-width=".25" d="m688.02 237.75.23.76-.53.09-.79.3-1.22-.37-.81.08-.11-.54 1.47-1.28.96.36.3.44z" data-originalStrokeWidth="0.25" style="shape-rendering: auto; stroke: rgb(0, 0, 0);"></path>


<path id="São_Miguel" fill="#ccccb8" stroke="#000" stroke-width=".25" d="m660.18 231.56-.28.88-.94.81-.22.31-.32-.26-.58.54-.12.55.12.38-.19-.16-.89-.16-.49.12-.16-.25.44-.27.15-.32.46-.4-.13-.52.92-.64.16-.63.74.82.27.18.62-.2z" data-originalStrokeWidth="0.25" style="shape-rendering: auto; stroke: rgb(0, 0, 0);"></path>


<path id="São_Miguel_do_Gostoso" fill="#ccccb8" stroke="#000" stroke-width=".25" d="m708.49 213.72-.23 1.5-.41.47-.53.92-.4.3-1-.02-1.23.22-.15-1.26.15-.43.72-2.35 1.44.46.22-.03 1.03.32z" data-originalStrokeWidth="0.25" style="shape-rendering: auto; stroke: rgb(0, 0, 0);"></path>


<path id="São_Paulo_do_Potengi" fill="#ccccb8" stroke="#000" stroke-width=".25" d="m707.32 227.06-.08.9.34 1.14-.72.3-1.23.26-1-1.2-.27-.58.3-.1.64-.99.97.33.67-.19z" data-originalStrokeWidth="0.25" style="shape-rendering: auto; stroke: rgb(0, 0, 0);"></path>


<path id="São_Pedro" fill="#ccccb8" stroke="#000" stroke-width=".25" d="m708.1 225.68.06.24.72 1.13 1.16.25-.76.89-1.38.78-.32.14-.35-1.16.08-.89.27-1.32z" data-originalStrokeWidth="0.25" style="shape-rendering: auto; stroke: rgb(0, 0, 0);"></path>


<path id="São_Rafael" fill="#ccccb8" stroke="#000" stroke-width=".25" d="m687.75 225.06.37.67-.13.16.04 1.04-.79.92-1.33 1.1-.76-.12-.26-.69-.39-.3.62-.74-.36-.3-.33-.7-.05-.5.33-.59 1.2-.74.79.23.2.22z" data-originalStrokeWidth="0.25" style="shape-rendering: auto; stroke: rgb(0, 0, 0);"></path>


<path id="São_Tomé" fill="#ccccb8" stroke="#000" stroke-width=".25" d="m701.47 226.47.84 1.17.07 1.1-.26.28v.62l-.97.97-.85.57-.72-.23-.74.31-.2.27-.9.4-.02.35-.54-.1-.7-.64-.12-.12.37-1.26.51-1.1.5-1.45.2-.46.3.16.19-.44.47-.14.4.26.43-.4.23-.21.6.35z" data-originalStrokeWidth="0.25" style="shape-rendering: auto; stroke: rgb(0, 0, 0);"></path>


<path id="São_Vicente" fill="#ccccb8" stroke="#000" stroke-width=".25" d="m691.02 234.51-.38-.08-.1-.3-.54.17-.33-.15-.51.15-.11.4-.47.12.7-1.54-.18-.27.23-1.06.84-.59.26-.4.29.75-.1.42.16.65.34.42.14.56z" data-originalStrokeWidth="0.25" style="shape-rendering: auto; stroke: rgb(0, 0, 0);"></path>


<path id="Senador_Elói_de_Souza" fill="#ccccb8" stroke="#000" stroke-width=".25" d="m709.3 230.8-.4.27-1.65-.4-.62.03-1.06-.6-.3.03.36-.47 1.23-.27.72-.29.32-.14.05.7z" data-originalStrokeWidth="0.25" style="shape-rendering: auto; stroke: rgb(0, 0, 0);"></path>


<path id="Senador_Georgino_Avelino" fill="#ccccb8" stroke="#000" stroke-width=".25" d="m717.73 232.63-.3.07-.81-.7-.1-.2.9-.04.23.1z" data-originalStrokeWidth="0.25" style="shape-rendering: auto; stroke: rgb(0, 0, 0);"></path>


<path id="Serra_de_São_Bento" fill="#ccccb8" stroke="#000" stroke-width=".25" d="m707.65 237.28-.32.02-.45.38-1.17.24.16-1.13 1.44-1.07.03.58.17.43z" data-originalStrokeWidth="0.25" style="shape-rendering: auto; stroke: rgb(0, 0, 0);"></path>


<path id="Serra_do_Mel" fill="#ccccb8" stroke="#000" stroke-width=".25" d="m685.26 214.03.04 2.88h-2.18l-1.32-.01h-.53v-2.25h.8v-.74l-.02-.5h1.08v-.65h.4l.3-.3v-.37h.8v-.64l1.02.07v1.61l-.78.01-.4.4v.47z" data-originalStrokeWidth="0.25" style="shape-rendering: auto; stroke: rgb(0, 0, 0);"></path>


<path id="Serra_Negra_do_Norte" fill="#ccccb8" stroke="#000" stroke-width=".25" d="m679.96 239.46.22.89-.6.48-.88.08-.23.65-.5.22-1.14-.07-1.37.22.33-.88-.17-.27-.07-.7.09-.72-.13-.3.3-.26.78.01.45-.4.09-1.01.17-.28 1.1.3 1.04 1.23.1.38z" data-originalStrokeWidth="0.25" style="shape-rendering: auto; stroke: rgb(0, 0, 0);"></path>


<path id="Serrinha" fill="#ccccb8" stroke="#000" stroke-width=".25" d="m709.36 233.03 1.75.44-.01.76-.6.42-.4-.25-.5.01-.19.21-.52.07-.28.27-.4-.12-.2.3-.4-1.53.12-.3.67-.3.53.11z" data-originalStrokeWidth="0.25" style="shape-rendering: auto; stroke: rgb(0, 0, 0);"></path>


<path id="Serrinha_dos_Pintos" fill="#ccccb8" stroke="#000" stroke-width=".25" d="m667.3 232.22-.82.88-.52-.02-.43-.5.08-.2-.03-.76.62-.53.5-.36.7.42z" data-originalStrokeWidth="0.25" style="shape-rendering: auto; stroke: rgb(0, 0, 0);"></path>


<path id="Severiano_Melo" fill="#ccccb8" stroke="#000" stroke-width=".25" d="m666.1 226.8-.78-1.75 3.13-1.02-.37.93-.13.61-1.16.57z" data-originalStrokeWidth="0.25" style="shape-rendering: auto; stroke: rgb(0, 0, 0);"></path>


<path id="Sítio_Novo" fill="#ccccb8" stroke="#000" stroke-width=".25" d="m704.85 230.68-.01.03-1.68 1.56-.86.16-.35-.51v-.8l-.8-.5 1.9-1.04z" data-originalStrokeWidth="0.25" style="shape-rendering: auto; stroke: rgb(0, 0, 0);"></path>


<path id="Taboleiro_Grande" fill="#ccccb8" stroke="#000" stroke-width=".25" d="m665.9 229.22-.31.31-.42-.07-.34.2-.5-1-.13-.24.35-.39.74-.35.99-.83.95.12-.65.4-.38.52-.63.35z" data-originalStrokeWidth="0.25" style="shape-rendering: auto; stroke: rgb(0, 0, 0);"></path>


<path id="Taipu" fill="#ccccb8" stroke="#000" stroke-width=".25" d="m710.51 220.41-.34 1.51.16 1.27.31.3-.95.38-.06.27-.1.31-1.3-.12-.19-1.5-.3-.76-.17-1.59.75-.07.5-.09.58.11.49.33z" data-originalStrokeWidth="0.25" style="shape-rendering: auto; stroke: rgb(0, 0, 0);"></path>


<path id="Tangará" fill="#ccccb8" stroke="#000" stroke-width=".25" d="m706.63 232.44-.34.17-.4.33-.34.82-.38 1.26-.8.76-.37.01-.84-3.53 1.68-1.56.03.97.23.18 1.34.05z" data-originalStrokeWidth="0.25" style="shape-rendering: auto; stroke: rgb(0, 0, 0);"></path>


<path id="Tenente_Ananias" fill="#ccccb8" stroke="#000" stroke-width=".25" d="m664.13 235.88.34.2-.07.41.36.95.34.14-.44.53-.03.25-.4.26-.44-.5-.83.07-.66-.26-.39-.88-.03-.27.26-.58.62-.09.26-.33.42.44z" data-originalStrokeWidth="0.25" style="shape-rendering: auto; stroke: rgb(0, 0, 0);"></path>


<path id="Tenente_Laurentino_Cruz" fill="#ccccb8" stroke="#000" stroke-width=".25" d="m690.16 231.37-.84.59-.23 1.06.18.27-1.45-.42.55-.6.44-.23-.04-.77.21-.2.9.3z" data-originalStrokeWidth="0.25" style="shape-rendering: auto; stroke: rgb(0, 0, 0);"></path>


<path id="Tibau_do_Sul" fill="#ccccb8" stroke="#000" stroke-width=".25" d="m718.8 234.44-.2-.04-.55-.32-.73.28-.5.31-.18-.55.1-.87.7-.55.29-.07.56.75.47.17z" data-originalStrokeWidth="0.25" style="shape-rendering: auto; stroke: rgb(0, 0, 0);"></path>


<path id="Timbaúba_dos_Batistas" fill="#ccccb8" stroke="#000" stroke-width=".25" d="m680.7 237.15-.12.14-.32 1.42-.07.56-.24.18-.4-.43-.11-.38-1.04-1.22 1.02-.89.71.46z" data-originalStrokeWidth="0.25" style="shape-rendering: auto; stroke: rgb(0, 0, 0);"></path>


<path id="Touros" fill="#ccccb8" stroke="#000" stroke-width=".25" d="m712.63 216.49-.63 1.1-.7-.15-1.35.26-.83-.68-.09.17-.99.44-1.36.96-.8 1.1-.24-.15-.65.39-.3-2.81 1.22-.22h1l.4-.29.53-.92.41-.46.23-1.5.8.36 1.45.4.54.7.75.43z" data-originalStrokeWidth="0.25" style="shape-rendering: auto; stroke: rgb(0, 0, 0);"></path>


<path id="Triunfo_Potiguar" fill="#ccccb8" stroke="#000" stroke-width=".25" d="m683.4 227.46-.55 1.65-.98-.53-.57.67-.14.51-1.74-2 1.16-1.49.82.75.84.11z" data-originalStrokeWidth="0.25" style="shape-rendering: auto; stroke: rgb(0, 0, 0);"></path>


<path id="Umarizal" fill="#ccccb8" stroke="#000" stroke-width=".25" d="m670.38 229.41-.19.7.1.47-.2.41-1-.6-.29-.46-.63-.4-.65-.07.22-.79.45-.33 2.03-.28.83-.23-.7.87z" data-originalStrokeWidth="0.25" style="shape-rendering: auto; stroke: rgb(0, 0, 0);"></path>


<path id="Upanema" fill="#ccccb8" stroke="#000" stroke-width=".25" d="m682.18 223.3-.67.56-.6.64-.77-.1-1.64-.15-.44.18-.6.04-1.12.41-.57.12.44-2.92 1.06-1.92h1.55l2.15.22z" data-originalStrokeWidth="0.25" style="shape-rendering: auto; stroke: rgb(0, 0, 0);"></path>


<path id="Várzea" fill="#ccccb8" stroke="#000" stroke-width=".25" d="m713.34 234.96-.06.35.12.82.52.39-.48-.14-.24.23-.4-.06-.64-.42.15-.7.22-.34.53-1.29.15-.44-.2 1.46z" data-originalStrokeWidth="0.25" style="shape-rendering: auto; stroke: rgb(0, 0, 0);"></path>


<path id="Venha_Ver" fill="#ccccb8" stroke="#000" stroke-width=".25" d="m656.41 235.68-.26-.15-.09-.5.21-.47.5-.12.89.16.19.16.42.45-.01.01-.32.06-.5.4-.5-.26z" data-originalStrokeWidth="0.25" style="shape-rendering: auto; stroke: rgb(0, 0, 0);"></path>


<path id="Vera_Cruz" fill="#ccccb8" stroke="#000" stroke-width=".25" d="m712.93 230.37-1.14-.1-.05.27-.43.24-.98-.5-.58.08-.02-.03 3.06-1.17-.15.62z" data-originalStrokeWidth="0.25" style="shape-rendering: auto; stroke: rgb(0, 0, 0);"></path>


<path id="Viçosa" fill="#ccccb8" stroke="#000" stroke-width=".25" d="m667.75 228.68-.22.79-.36.44-.4-.62-.11-.46.22-.22z" data-originalStrokeWidth="0.25" style="shape-rendering: auto; stroke: rgb(0, 0, 0);"></path>


<path id="Vila_Flor" fill="#ccccb8" stroke="#000" stroke-width=".25" d="m718.6 234.4-.34.25.14.51-.5.23-.58-.1v-.93l.73-.28z" data-originalStrokeWidth="0.25" style="shape-rendering: auto; stroke: rgb(0, 0, 0);"></path>

</svg>