<?xml version="1.0" standalone="no"?>
<svg xmlns="http://www.w3.org/2000/svg" id="map" version="1.2" width="800" height="800" viewBox="650 210 75 75">

<path id="Água_Branca" fill="#ccccb8" stroke="#000" stroke-width=".25" d="m673.92 255.7-.67.35-.18.32-.63-.05-.47.44-.43.04v.34l-.38.18-.11.3-.28-.7.36-.28.5-1.43-.43-.38.03-.92.06-.07.88-.1.55.6.78.1.46.67z" data-originalStrokeWidth="0.25" style="shape-rendering: auto; stroke: rgb(0, 0, 0);"></path>


<path id="Aguiar" fill="#ccccb8" stroke="#000" stroke-width=".25" d="m664.78 247.28.54 1.35-.29-.1-1.26.1-.22.33-.32.02-.98.42.12.4.93.11-.45.25-.19-.17-1.23.23-.3-.42-.17-.46-.44.24-.24-.66.42-.13-.06-.62.37-.28.21-.45.46-.5 1.11.3 1.21-.04z" data-originalStrokeWidth="0.25" style="shape-rendering: auto; stroke: rgb(0, 0, 0);"></path>


<path id="Alagoa_Grande" fill="#ccccb8" stroke="#000" stroke-width=".25" d="m710.3 247.6.4.73-.05.38-.53.24-.15.24-.54.01-1.13.2-.88.24-.51-.75-.1-.26.56-.85-.13-.19.5-.39.18-.36.83-.31.15-.36.33.19z" data-originalStrokeWidth="0.25" style="shape-rendering: auto; stroke: rgb(0, 0, 0);"></path>


<path id="Alagoa_Nova" fill="#ccccb8" stroke="#000" stroke-width=".25" d="m707.24 247.6.13.19-.56.85-.45.28-1.33-.04-.24-.57-.51-.04v-.3l.3-.45.53.12.48-.1.3.12.52-.22z" data-originalStrokeWidth="0.25" style="shape-rendering: auto; stroke: rgb(0, 0, 0);"></path>


<path id="Alagoinha" fill="#ccccb8" stroke="#000" stroke-width=".25" d="m711.27 246.41-.97 1.2-1.07-1.26-.33-.19.16-.49.34-.22.6.24 1.05.02z" data-originalStrokeWidth="0.25" style="shape-rendering: auto; stroke: rgb(0, 0, 0);"></path>


<path id="Alcantil" fill="#ccccb8" stroke="#000" stroke-width=".25" d="m702.49 258.6-.34.5.02.35-.84 1.94-.84-.52-1.03.06.01-.23.4-.94-.46-.84.04-.58 1-.6.35-.21.98-.04z" data-originalStrokeWidth="0.25" style="shape-rendering: auto; stroke: rgb(0, 0, 0);"></path>


<path id="Algodão_de_Jandaíra" fill="#ccccb8" stroke="#000" stroke-width=".25" d="m705.07 244.66.13.04-.08.14-.7-.3-.4.05-.64.5-.55.01-.3.41-1.02.6-.27.51-.9-.08-.58-.68 1.34-.93 1.1-.42.84-.66.2-.42h.28l.18.01 1.06 1.11z" data-originalStrokeWidth="0.25" style="shape-rendering: auto; stroke: rgb(0, 0, 0);"></path>


<path id="Alhandra" fill="#ccccb8" stroke="#000" stroke-width=".25" d="m721.9 253.13-.23.38-.7.82.52.11.53.4-.17.26-.44.1-.56-.3-.66-.66.03-.3-.26-.39.2-.3-.45-.43-1.1-.83.8-.2.6.27.3-.16.08-.45.1.44.38.2-.05.33.47.22z" data-originalStrokeWidth="0.25" style="shape-rendering: auto; stroke: rgb(0, 0, 0);"></path>


<path id="São_João_do_Rio_do_Peixe" fill="#ccccb8" stroke="#000" stroke-width=".25" d="m660.3 239.75-.1.5.08.74-.23.5.21.92-.25.07.1.56.03.28-.47 1.04.47.7-.21.43-.35.3-.8.05.14-1.95-1.27-.24-1.39-.15.46-.14.48.09.41-.2.11-.7-.08-.42-.48-.3-.05-.55.47-.17.23-.06.26-.73.22-.1.33-.66.1.25.6.17.47-.5z" data-originalStrokeWidth="0.25" style="shape-rendering: auto; stroke: rgb(0, 0, 0);"></path>


<path id="Amparo" fill="#ccccb8" stroke="#000" stroke-width=".25" d="m682.68 257.67-.42-.01.16-.52.06-.83.15-.11.94-.34.01-.01.24.13.6.7-.41.43.07 1z" data-originalStrokeWidth="0.25" style="shape-rendering: auto; stroke: rgb(0, 0, 0);"></path>


<path id="Aparecida" fill="#ccccb8" stroke="#000" stroke-width=".25" d="m666.07 241.24.6.44-.73.45.02.77.13.49.35.5-.26.55.18.39-.26.18-.2-.12-.78-.02-1.23.51-.24-.17.35-.64.23-.17-.4-1.19.08-.49.7-.53.16-.55.44-.26z" data-originalStrokeWidth="0.25" style="shape-rendering: auto; stroke: rgb(0, 0, 0);"></path>


<path id="Araçagi" fill="#ccccb8" stroke="#000" stroke-width=".25" d="m713.22 243.09.59.26-.16.63.35.14.15.32-.37.16.25.4.25 1 .45.28-.91.54-.47-.57-.68-.39-.17-1.49-.51-.26-.25-.35-.56-.02.98-.82.62-.15.06-.03z" data-originalStrokeWidth="0.25" style="shape-rendering: auto; stroke: rgb(0, 0, 0);"></path>


<path id="Arara" fill="#ccccb8" stroke="#000" stroke-width=".25" d="m707.17 243.85-.34.33.31.4.63.15.2.27-.07.49-.56-.36-1.55-.2-.6-.23-.13-.04v-.43l.5-.25.15.1.6-.3.34.19z" data-originalStrokeWidth="0.25" style="shape-rendering: auto; stroke: rgb(0, 0, 0);"></path>


<path id="Araruna" fill="#ccccb8" stroke="#000" stroke-width=".25" d="m708.13 237.41-.29.67-.36.27-.27.77-.57.27.21.4.35.05-.49.19-.27.3-.15-.38-.85-.21-1.38-.72-.05-1 1.6-.1h.1l1.18-.23.45-.38.32-.02z" data-originalStrokeWidth="0.25" style="shape-rendering: auto; stroke: rgb(0, 0, 0);"></path>


<path id="Areia" fill="#ccccb8" stroke="#000" stroke-width=".25" d="m707.9 245.49 1.16.19-.16.49-.15.36-.83.3-.18.38-.5.39-.82-.16-.52.22-.3-.12.06-.1.04-1.05-.24-.3.05-.66-.4-.6.08-.13.6.23 1.55.2z" data-originalStrokeWidth="0.25" style="shape-rendering: auto; stroke: rgb(0, 0, 0);"></path>


<path id="Areia_de_Baraúnas" fill="#ccccb8" stroke="#000" stroke-width=".25" d="m685.52 248.49-.12.15-.14 1.08-.07.4-1.05.14-.47.18.46-.42-.12-.74.14-.1-.25-1.2.5.12.64-.31.36.2z" data-originalStrokeWidth="0.25" style="shape-rendering: auto; stroke: rgb(0, 0, 0);"></path>


<path id="Areial" fill="#ccccb8" stroke="#000" stroke-width=".25" d="M703.52 248.47zl-1.23-.17.26-.76-.07-.18.51-.02.42.41z" data-originalStrokeWidth="0.25" style="shape-rendering: auto; stroke: rgb(0, 0, 0);"></path>


<path id="Aroeiras" fill="#ccccb8" stroke="#000" stroke-width=".25" d="m709.07 255.03-.25 1.79-.03.66.2.27-1.2.22-.4.39-.57.06-.42-.35.08-.28-.26-.4-.9-.86-.35-.2-.24-.52.07-.61v-.01l.5.22h.73l.56-.11.66.2.23-.3 1.05-.18z" data-originalStrokeWidth="0.25" style="shape-rendering: auto; stroke: rgb(0, 0, 0);"></path>


<path id="Assunção" fill="#ccccb8" stroke="#000" stroke-width=".25" d="m689.32 247.2.45.15.34.6-.2.5.13.9-.53-.07-.41.24-.21-.2-.64-.11-.3-.22.4-.44.04-.73.17-.24.33-.4z" data-originalStrokeWidth="0.25" style="shape-rendering: auto; stroke: rgb(0, 0, 0);"></path>


<path id="Baía_da_Traição" fill="#ccccb8" stroke="#000" stroke-width=".25" d="m720 240.04.22 1.23.4.28-.01.58-1.22-.28-.47.05-.22-.58.32-1 .28-.36z" data-originalStrokeWidth="0.25" style="shape-rendering: auto; stroke: rgb(0, 0, 0);"></path>


<path id="Bananeiras" fill="#ccccb8" stroke="#000" stroke-width=".25" d="m710.09 240.8-.08.51-.33.63.5.85-.17.22-.5.14-.15.24-1.36-.3-.06-.3-.5-.54.08-.35-.28-.46.07-.4.36-.43.64.37.3-.07.57-.8.66-.19.28.21z" data-originalStrokeWidth="0.25" style="shape-rendering: auto; stroke: rgb(0, 0, 0);"></path>


<path id="Baraúna" fill="#ccccb8" stroke="#000" stroke-width=".25" d="m697.62 239.94-.18.8-.15.77-.32.1-.14-.63.09-.85-.5-.8.84.3z" data-originalStrokeWidth="0.25" style="shape-rendering: auto; stroke: rgb(0, 0, 0);"></path>


<path id="Barra_de_Santana" fill="#ccccb8" stroke="#000" stroke-width=".25" d="m703.91 256.1-.17.54.47.1.43.5-.58.24-.2.42.2.44-.03.44-.35.02-.74.34-.46-.53-.7-1.12-.98.04-.36.22-.27-.06-.1-.33-.39-.18.97-.93.18-.63.71-.53.28.1.55.56.72.4.12-.13z" data-originalStrokeWidth="0.25" style="shape-rendering: auto; stroke: rgb(0, 0, 0);"></path>


<path id="Barra_de_Santa_Rosa" fill="#ccccb8" stroke="#000" stroke-width=".25" d="m703.05 242.13.45.4.01.9h-.28l-.2.42-.83.66-1.1.42-1.35.93-.87.25-.82-.75-.97-1.19 2.74-2.97 1.48-.67.97-.8-.68 1.54.44.54.6-.09z" data-originalStrokeWidth="0.25" style="shape-rendering: auto; stroke: rgb(0, 0, 0);"></path>


<path id="Barra_de_São_Miguel" fill="#ccccb8" stroke="#000" stroke-width=".25" d="m698.35 258.4.05.26.49.57-.13.28.23.94.49.24-.01.23h-1l-.25.11-.33-.46-.67.57.25.37-.41.25-.68-.4-1.08-.05-.64.08-.16-.84-.67-1.6 1.57.04-.18-.52.33-.82.49.21.33-.25.26-.52.57-.43.13-.28.47.3.08.92z" data-originalStrokeWidth="0.25" style="shape-rendering: auto; stroke: rgb(0, 0, 0);"></path>


<path id="Bayeux" fill="#ccccb8" stroke="#000" stroke-width=".25" d="m721.3 248.72-.04.5-.45.24.05.55h-.35l-.3-.32.23-.45.48-.15z" data-originalStrokeWidth="0.25" style="shape-rendering: auto; stroke: rgb(0, 0, 0);"></path>


<path id="Belém" fill="#ccccb8" stroke="#000" stroke-width=".25" d="m711.92 241.19-.43.16-.9.99.43.14.54.22-.6.37-.35.06-.43-.33-.5-.86.33-.63.08-.52.27.04z" data-originalStrokeWidth="0.25" style="shape-rendering: auto; stroke: rgb(0, 0, 0);"></path>


<path id="Belém_do_Brejo_do_Cruz" fill="#ccccb8" stroke="#000" stroke-width=".25" d="m680.96 230.24.05.94-.07.72.31.19-.3.48-.34.08-.14.38-.57.13-.66-.5-.55.06-.58-.34-.75.11-.15.18-.75.2-1 .8-1-.03-.72.17-.54.4-.2-.43.12-.31.01-.96.83-.37.52.18.32-.25 1.13-.12.23-.58.92-.06.26-.42.43.02.33-.34.7-.3.42.1.28-.49h.44z" data-originalStrokeWidth="0.25" style="shape-rendering: auto; stroke: rgb(0, 0, 0);"></path>


<path id="Bernardino_Batista" fill="#ccccb8" stroke="#000" stroke-width=".25" d="m656.84 236.84.29.42.2.2-.2.63-.2.34-.6-.03-.7.34-.07.05-.03-.34.74-.76.06-.32z" data-originalStrokeWidth="0.25" style="shape-rendering: auto; stroke: rgb(0, 0, 0);"></path>


<path id="Boa_Ventura" fill="#ccccb8" stroke="#000" stroke-width=".25" d="m663.87 254.09.36.49.36.99-.86.1-.18-.37-1.26.39h-.46l-.06-.58.3-.55-.19-.55.23-.5.65.21.52-.15z" data-originalStrokeWidth="0.25" style="shape-rendering: auto; stroke: rgb(0, 0, 0);"></path>


<path id="Boa_Vista" fill="#ccccb8" stroke="#000" stroke-width=".25" d="m699.52 253.47-.34-.11-.58-.16-.36.25-.7.14-.66-.19-.16.2-1.13-.05.27-1.05.08-2.1 1.81.16.97.06.47-.6.84-.23.06.85-.42 1.21z" data-originalStrokeWidth="0.25" style="shape-rendering: auto; stroke: rgb(0, 0, 0);"></path>


<path id="Bom_Jesus" fill="#ccccb8" stroke="#000" stroke-width=".25" d="m656.26 243.5-.63.32-.54.64-.17.45-.43-.55.35-.63.62-.33.05-.19z" data-originalStrokeWidth="0.25" style="shape-rendering: auto; stroke: rgb(0, 0, 0);"></path>


<path id="Bom_Sucesso" fill="#ccccb8" stroke="#000" stroke-width=".25" d="m667.77 236.66.43.2.55.47-.67 1.62-.68-.29-.7.08-.58-.02-.2-.24.14-.42-.18-.29.33-.75.65-.17.51.04z" data-originalStrokeWidth="0.25" style="shape-rendering: auto; stroke: rgb(0, 0, 0);"></path>


<path id="Bonito_de_Santa_Fé" fill="#ccccb8" stroke="#000" stroke-width=".25" d="m659.17 250.7.03.8-.27.27-.06.8.17.52-.34-.01-.17.34-.6.27-.75-.14-.11-.32-.43-.24v-.36l.27-.43-.35-.68.19-.24 1.35-.52.69.3z" data-originalStrokeWidth="0.25" style="shape-rendering: auto; stroke: rgb(0, 0, 0);"></path>


<path id="Boqueirão" fill="#ccccb8" stroke="#000" stroke-width=".25" d="m699.18 253.35.34.11.43.5-.05.5.13.67.8.49-.18.63-.97.93.38.18.11.33-.27.02-.76.42-.22.24-.58.04-.47-.8-.08-.92.08-1.75.4-.36v-.5l.35-.29.5.2z" data-originalStrokeWidth="0.25" style="shape-rendering: auto; stroke: rgb(0, 0, 0);"></path>


<path id="Igaracy" fill="#ccccb8" stroke="#000" stroke-width=".25" d="m665.33 248.63-.3 1.1.44.66-.23.6-.5.22-1.13-.23-.04-.56-.26-.5-.93-.11-.12-.42.98-.4.32-.03.22-.33 1.26-.1z" data-originalStrokeWidth="0.25" style="shape-rendering: auto; stroke: rgb(0, 0, 0);"></path>


<path id="Borborema" fill="#ccccb8" stroke="#000" stroke-width=".25" d="m710.01 243.01-.8.64-.56.1-.6-.2-.04-.47 1.36.31.15-.24z" data-originalStrokeWidth="0.25" style="shape-rendering: auto; stroke: rgb(0, 0, 0);"></path>


<path id="Brejo_do_Cruz" fill="#ccccb8" stroke="#000" stroke-width=".25" d="m675.46 233.68.27.5.53.32.56.01.65-.15.65.47-.5.25-.26.4v.43l-.2.38-1.34.1-.83.3-.2-.1-.97.25-.39-.59-.13-.55-.04-.8.2-.38-.27-.32.54-.4.72-.17z" data-originalStrokeWidth="0.25" style="shape-rendering: auto; stroke: rgb(0, 0, 0);"></path>


<path id="Brejo_dos_Santos" fill="#ccccb8" stroke="#000" stroke-width=".25" d="m669.6 237.31-.48-.15-.37.17-.55-.48-.43-.19.53-.2.02-.53.54.07.43-.58-.16-.15.74.4.1.18z" data-originalStrokeWidth="0.25" style="shape-rendering: auto; stroke: rgb(0, 0, 0);"></path>


<path id="Caaporã" fill="#ccccb8" stroke="#000" stroke-width=".25" d="m722.02 254.84-.09 1.25.04.52-.59-.06-.53.1-.28-.24-.49.18-.43-.68.07-.78.47-.88.66.65.56.3.44-.1z" data-originalStrokeWidth="0.25" style="shape-rendering: auto; stroke: rgb(0, 0, 0);"></path>


<path id="Cabaceiras" fill="#ccccb8" stroke="#000" stroke-width=".25" d="m699.18 253.35-.06.63-.5-.19-.35.3v.48l-.4.36-.08 1.75-.47-.3-.13.28-.57.43-.26.52-.86-.86-.43-.6-1.14-.65 1.93-3-.27 1.05 1.13.04.16-.19.66.2.7-.15.36-.25z" data-originalStrokeWidth="0.25" style="shape-rendering: auto; stroke: rgb(0, 0, 0);"></path>


<path id="Cabedelo" fill="#ccccb8" stroke="#000" stroke-width=".25" d="m722.17 248.06-.37.08.08-.55.52.02z" data-originalStrokeWidth="0.25" style="shape-rendering: auto; stroke: rgb(0, 0, 0);"></path>


<path id="Cachoeira_dos_Índios" fill="#ccccb8" stroke="#000" stroke-width=".25" d="m654.92 244.91.2.7-.18 1.17-.38.56-.11.54-.31-.3-1.3-.63.4-.35-.41-1.12.62-.25.97-.6.07-.27z" data-originalStrokeWidth="0.25" style="shape-rendering: auto; stroke: rgb(0, 0, 0);"></path>


<path id="Cacimba_de_Areia" fill="#ccccb8" stroke="#000" stroke-width=".25" d="m682.5 248.99-.19.18.13.89-.19-.05-.77.45-.44.08-.1.56-1-.53-.29.01.23-1.1-.19-.48.24-.39.76-.5.38.12z" data-originalStrokeWidth="0.25" style="shape-rendering: auto; stroke: rgb(0, 0, 0);"></path>


<path id="Cacimba_de_Dentro" fill="#ccccb8" stroke="#000" stroke-width=".25" d="m706.45 240.32-.61.14.44.88-.31.25h-.37l-.85-.25-.66.05-.2-1.79.17-.59 1.38.72.86.21z" data-originalStrokeWidth="0.25" style="shape-rendering: auto; stroke: rgb(0, 0, 0);"></path>


<path id="Cacimbas" fill="#ccccb8" stroke="#000" stroke-width=".25" d="m683.67 250.44-.26-.03.36 1.06-.58.12-.5-.38-1.19.2-.57-.3.11-.56.44-.1.77-.44.2.05.63-.23z" data-originalStrokeWidth="0.25" style="shape-rendering: auto; stroke: rgb(0, 0, 0);"></path>


<path id="Caiçara" fill="#ccccb8" stroke="#000" stroke-width=".25" d="m713.58 240.38-.52-.1-.04.29-.95.77-.14-.15-1.57-.35.39-.47.62-.15.43.09.44-1.62-.05-.64.76.39-.55.9.06.5 1.17.2z" data-originalStrokeWidth="0.25" style="shape-rendering: auto; stroke: rgb(0, 0, 0);"></path>


<path id="Cajazeiras" fill="#ccccb8" stroke="#000" stroke-width=".25" d="m658.78 245.84.08.63.65.38-.72-.04-1.3.1-.91.73-.47.05-.23.38-1.3-.35-.07.18-.07-.02.12-.54.38-.56.18-1.18-.2-.69.17-.46.54-.64.63-.32 1.4.15 1.26.26z" data-originalStrokeWidth="0.25" style="shape-rendering: auto; stroke: rgb(0, 0, 0);"></path>


<path id="Cajazeirinhas" fill="#ccccb8" stroke="#000" stroke-width=".25" d="m670.15 244.94.55.18.23 1.1.35.78.48-.64.3.19-.04.8-.57.1-1.78-.05-.46.07-.55-.11-.65-.46-.25-.37.6-.49.2-.6.32-.16.33-.5z" data-originalStrokeWidth="0.25" style="shape-rendering: auto; stroke: rgb(0, 0, 0);"></path>


<path id="Caldas_Brandão" fill="#ccccb8" stroke="#000" stroke-width=".25" d="m714.28 249-.3.6-.34.2-.11.35-.02.08-.28.28-.15-.64.16-.64-.27-.78-.22-.02-.02-.78 1.09 1.46z" data-originalStrokeWidth="0.25" style="shape-rendering: auto; stroke: rgb(0, 0, 0);"></path>


<path id="Camalaú" fill="#ccccb8" stroke="#000" stroke-width=".25" d="m688.87 260.79.6 1.1.24.12.52.65.55.28.8.67-4.3.4-1.12 1.03-.2-.08-.68.43.07-.44-.1-2.49-.53-.7 2.52-.17.62.1z" data-originalStrokeWidth="0.25" style="shape-rendering: auto; stroke: rgb(0, 0, 0);"></path>


<path id="Campina_Grande" fill="#ccccb8" stroke="#000" stroke-width=".25" d="m701.26 250 .68-.1.41.61.41-.03.03-.31.56.08.4-.15.42.64.46-.21.36.2-.48.76.53.13.84.41.57-.06.48-.3-.55 1.11-.39.05-.72-.14-.7.22-.06-.47-.6-.08-.22-.23-1.07-.12-.49.44-.1 1.04-.36.35-.64-.3-1.5-.08.14-1.6.42-1.22-.06-.85.53.2z" data-originalStrokeWidth="0.25" style="shape-rendering: auto; stroke: rgb(0, 0, 0);"></path>


<path id="Capim" fill="#ccccb8" stroke="#000" stroke-width=".25" d="m716.5 244.43.1.76.6.04.44.77-.61.05-.77.16.05-.41-.3-.12-.53-.58-.16-.33.22-.18z" data-originalStrokeWidth="0.25" style="shape-rendering: auto; stroke: rgb(0, 0, 0);"></path>


<path id="Caraúbas" fill="#ccccb8" stroke="#000" stroke-width=".25" d="m693.26 258.6.56.34.67 1.61.16.84-.54.3v1.05l-.29.53-.6.15-1-.42-.55-.74.24-.92-1.18-.98.03-.82.74.1.46-.4.1-.36-.74-.59.2-.18.73.27.73-.06z" data-originalStrokeWidth="0.25" style="shape-rendering: auto; stroke: rgb(0, 0, 0);"></path>


<path id="Carrapateira" fill="#ccccb8" stroke="#000" stroke-width=".25" d="m661.23 247.44-.21.45-.37.28.06.62-.43.13-.43-1.04.13-1 .42.05.18.37z" data-originalStrokeWidth="0.25" style="shape-rendering: auto; stroke: rgb(0, 0, 0);"></path>


<path id="Casserengue" fill="#ccccb8" stroke="#000" stroke-width=".25" d="m705.6 241.6-.15 1.04-.34.3.08.37.37.66-.5.25v.43l-.3-.1-1.06-1.1-.18-.02-.01-.9-.45-.4.47-.28.06-.23.5-.23.66-.04z" data-originalStrokeWidth="0.25" style="shape-rendering: auto; stroke: rgb(0, 0, 0);"></path>


<path id="Catingueira" fill="#ccccb8" stroke="#000" stroke-width=".25" d="m674.85 247.1.13 1.92-.54-.02.86 2.07-.47.61-.06.44-.3.07-.51.46-.52-.82-.24.02-1.06-1.04-.12-.7-.42.05.66-.35-.23-2.45.93-.45z" data-originalStrokeWidth="0.25" style="shape-rendering: auto; stroke: rgb(0, 0, 0);"></path>


<path id="Catolé_do_Rocha" fill="#ccccb8" stroke="#000" stroke-width=".25" d="m673.2 234.2.26.33-.2.37.04.8.13.56.4.59-.2.36-.62-.34-1.96-.58.02 1.7-.26-.41-.42-.14-.39.14-.4-.26.37-1.46-.1-.2-.75-.38.55-.71.84-.01-.2-.82.6-1.01.6-.21.62.24.47-.02.53-.23v.96l-.13.3z" data-originalStrokeWidth="0.25" style="shape-rendering: auto; stroke: rgb(0, 0, 0);"></path>


<path id="Caturité" fill="#ccccb8" stroke="#000" stroke-width=".25" d="m699.52 253.47 1.51.07.64.3-.13 1.24-.7.53-.8-.49-.13-.67.05-.48z" data-originalStrokeWidth="0.25" style="shape-rendering: auto; stroke: rgb(0, 0, 0);"></path>


<path id="Conceição" fill="#ccccb8" stroke="#000" stroke-width=".25" d="m659.04 253.09.06 1.04.17.44h-.5l-1.1.24.26 1.4.32.3.63.3-.29.7-.15.49.15.34-.2.54.28.92-.4-.04-.36-.71.12-.53-.57.08-.38-.44-.07-.55-1.23.13-.63-.3-.87-.14.53-.46.12-.9.27-.26-.25-.48.74-.04.31-.4-.18-.34.82-1.43.42.24.11.32.75.14.61-.27.17-.34z" data-originalStrokeWidth="0.25" style="shape-rendering: auto; stroke: rgb(0, 0, 0);"></path>


<path id="Condado" fill="#ccccb8" stroke="#000" stroke-width=".25" d="m672.41 242.15.32.05.64.1.05 1.2.43.25-.1 1.1.17.82.57.46-.09.39.44.58-1.89-.2-.93.46.04-.81-.3-.2.31-.27-.14-.45.3-.62.56-.44.17-.58-.09-.34.17-.41-.14-.42z" data-originalStrokeWidth="0.25" style="shape-rendering: auto; stroke: rgb(0, 0, 0);"></path>


<path id="Conde" fill="#ccccb8" stroke="#000" stroke-width=".25" d="m722.83 251.38.12.6-.06.7.14.26-.15.98-.28-.67-.7-.13-.6-.48-.47-.21.05-.33-.38-.2-.1-.44.24-.4.3-.23.4.03.84.39.2-.15z" data-originalStrokeWidth="0.25" style="shape-rendering: auto; stroke: rgb(0, 0, 0);"></path>


<path id="Congo" fill="#ccccb8" stroke="#000" stroke-width=".25" d="m690.1 259.19.67.36-.03.82 1.18.98-.24.92.55.74-.63.05-.02.55-.8-.67-.55-.28-.52-.65-.24-.11-.6-1.11-.68-.85.72-.48z" data-originalStrokeWidth="0.25" style="shape-rendering: auto; stroke: rgb(0, 0, 0);"></path>


<path id="Coremas" fill="#ccccb8" stroke="#000" stroke-width=".25" d="m668.66 247.35.83.77.05.67-.7-.05-.44-.2-1.13.1-.56.61-.2.88-.75-.1.04-.54-.32-.23-.16-.64-.54-1.35.21-.06.05-.62.62.03.58-.56 1.35.92.92.41z" data-originalStrokeWidth="0.25" style="shape-rendering: auto; stroke: rgb(0, 0, 0);"></path>


<path id="Coxixola" fill="#ccccb8" stroke="#000" stroke-width=".25" d="m690.76 259.55-.67-.36-.77-.15-.26-1.52 2.07-.13.19.9.74.6-.1.35-.46.4z" data-originalStrokeWidth="0.25" style="shape-rendering: auto; stroke: rgb(0, 0, 0);"></path>


<path id="Cruz_do_Espírito_Santo" fill="#ccccb8" stroke="#000" stroke-width=".25" d="m718.2 251.1-.76.03-.67-.44-.4-.16-.28-.33.6-.45.62-1.45-.71-.76 1.75.96.33 1.1z" data-originalStrokeWidth="0.25" style="shape-rendering: auto; stroke: rgb(0, 0, 0);"></path>


<path id="Cubati" fill="#ccccb8" stroke="#000" stroke-width=".25" d="m697.13 243.7-.04.48-.77 1.83-.43-.1-.56-.4-.68-.76-.1-.24 1.13-1.06.4-.14.58.37z" data-originalStrokeWidth="0.25" style="shape-rendering: auto; stroke: rgb(0, 0, 0);"></path>


<path id="Cuité" fill="#ccccb8" stroke="#000" stroke-width=".25" d="m702.33 237.94.37.16 1.3-.08.05 1-.17.58-.03-.27-1.57.4-.97.8-1.48.67-.52.2-.69-.04-.54-.2-.65-.43.18-.8.12-.66.8-1.58.1-.69.54-.1.6.07.23-.16h.01l.34-.26.71.68.35.14.2.51z" data-originalStrokeWidth="0.25" style="shape-rendering: auto; stroke: rgb(0, 0, 0);"></path>


<path id="Cuitegi" fill="#ccccb8" stroke="#000" stroke-width=".25" d="m711.05 245.72-1.06-.02-.59-.24v-.4l.54-.27.61.14z" data-originalStrokeWidth="0.25" style="shape-rendering: auto; stroke: rgb(0, 0, 0);"></path>


<path id="Cuité_de_Mamanguape" fill="#ccccb8" stroke="#000" stroke-width=".25" d="m715.32 244.76.16.33.53.58.3.13-.05.4-.48-.18-.57.26h-.49l-.45-.29-.25-1-.25-.39.37-.15.55-.07z" data-originalStrokeWidth="0.25" style="shape-rendering: auto; stroke: rgb(0, 0, 0);"></path>


<path id="Curral_de_Cima" fill="#ccccb8" stroke="#000" stroke-width=".25" d="m715.37 241.56.22.44-.08.68-.2.17-.16-.16h-.83l-1.1.4-.39-.34.4-.1.26-.84.24.1.38.16.64-.14.34-.24z" data-originalStrokeWidth="0.25" style="shape-rendering: auto; stroke: rgb(0, 0, 0);"></path>


<path id="Curral_Velho" fill="#ccccb8" stroke="#000" stroke-width=".25" d="m664.59 255.56.47.83-.54.75-.78.53-.62.24-.71-.39-.43-.4.27-.58-.42-.85h.46l1.26-.4.18.39z" data-originalStrokeWidth="0.25" style="shape-rendering: auto; stroke: rgb(0, 0, 0);"></path>


<path id="Damião" fill="#ccccb8" stroke="#000" stroke-width=".25" d="m704.09 241.4-.5.23-.06.23-.47.27-.42-.4-.6.09-.43-.54.68-1.55 1.57-.4.03.27z" data-originalStrokeWidth="0.25" style="shape-rendering: auto; stroke: rgb(0, 0, 0);"></path>


<path id="Desterro" fill="#ccccb8" stroke="#000" stroke-width=".25" d="m683.77 251.47.05.6-.28.07-.45 1.64-.25.07-.33-.45-.87-.2-.58-.26-.16-.4.53-.82.07-.3 1.18-.21.51.38z" data-originalStrokeWidth="0.25" style="shape-rendering: auto; stroke: rgb(0, 0, 0);"></path>


<path id="Vista_Serrana" fill="#ccccb8" stroke="#000" stroke-width=".25" d="m674.25 243.1-.01.44-.38.2-.43-.24-.05-1.2-.64-.1 1.14-.07.97-.17-.3.14-.05.5z" data-originalStrokeWidth="0.25" style="shape-rendering: auto; stroke: rgb(0, 0, 0);"></path>


<path id="Diamante" fill="#ccccb8" stroke="#000" stroke-width=".25" d="m660.65 252.9 1.23 1.1.2.56-.31.55.06.59.42.85-.27.58-.35.09-.45-.73-.3-.25-.31-.72.22-.37-1.1-.67-.42.09-.16-.44-.06-1.04.54-.3 1.04-.04z" data-originalStrokeWidth="0.25" style="shape-rendering: auto; stroke: rgb(0, 0, 0);"></path>


<path id="Dona_Inês" fill="#ccccb8" stroke="#000" stroke-width=".25" d="m709.53 239.03-.13.36.43.54-.66.18-.56.8-.3.08-.64-.37-.36.43h-.54l-.5.3-.43-.88.6-.14.27-.3.5-.2.8-.31.35-.4z" data-originalStrokeWidth="0.25" style="shape-rendering: auto; stroke: rgb(0, 0, 0);"></path>


<path id="Duas_Estradas" fill="#ccccb8" stroke="#000" stroke-width=".25" d="m713.23 242.65-.4.1-.06.03-.66-.44-.4-.44.36-.56.25.6.4.17z" data-originalStrokeWidth="0.25" style="shape-rendering: auto; stroke: rgb(0, 0, 0);"></path>


<path id="Emas" fill="#ccccb8" stroke="#000" stroke-width=".25" d="m672.02 247.35.23 2.45-.66.36h-.63l-.37-.62-.28.04-.53-.33-.23-.46-.05-.67-.83-.77.55.11.46-.07 1.78.07z" data-originalStrokeWidth="0.25" style="shape-rendering: auto; stroke: rgb(0, 0, 0);"></path>


<path id="Esperança" fill="#ccccb8" stroke="#000" stroke-width=".25" d="m705.65 247.44-.06.1-.48.1-.53-.12-.3.44-.53.06-.22.45-.11-.7-.42-.42-.52.02-.36-.55.48-.47.12-.38.64-.05.38.45.3-.05.97.43-.05.3.3.33z" data-originalStrokeWidth="0.25" style="shape-rendering: auto; stroke: rgb(0, 0, 0);"></path>


<path id="Fagundes" fill="#ccccb8" stroke="#000" stroke-width=".25" d="m706.38 252.78.12.24h.45l-.93 2.4-.71-.01-.5-.22-.23-.34.29-.41-.3-.46v-1.06l.7-.22.73.14z" data-originalStrokeWidth="0.25" style="shape-rendering: auto; stroke: rgb(0, 0, 0);"></path>


<path id="Frei_Martinho" fill="#ccccb8" stroke="#000" stroke-width=".25" d="m695.63 234.74-.42 1-.09.62-.3.32-.38-.14-.46.37-.04.52.37.33-.7.8-.41.03-.78-.34-.04-.4-.05-.47.47-1.16.08-.5 1.19.09.67-1.22.57.28z" data-originalStrokeWidth="0.25" style="shape-rendering: auto; stroke: rgb(0, 0, 0);"></path>


<path id="Gado_Bravo" fill="#ccccb8" stroke="#000" stroke-width=".25" d="m706.82 258.42-.81.15-.11-.22-.9.4h-.33l-.63.02.03-.44-.2-.43.2-.42.58-.24-.43-.5-.47-.1.17-.54.38-.07.5-.84-.07.61.24.52.35.2.9.87.26.4-.08.27z" data-originalStrokeWidth="0.25" style="shape-rendering: auto; stroke: rgb(0, 0, 0);"></path>


<path id="Guarabira" fill="#ccccb8" stroke="#000" stroke-width=".25" d="m712.66 245.87-.82.06-.57.49-.22-.7-.5-.78-.62-.14.56-.91.31-.02.37-.12.56.02.25.35.51.26z" data-originalStrokeWidth="0.25" style="shape-rendering: auto; stroke: rgb(0, 0, 0);"></path>


<path id="Gurinhém" fill="#ccccb8" stroke="#000" stroke-width=".25" d="m712.73 247.65.02.78.22.02.27.78-.16.64.15.64-.61.28.16.5h-.8l-.5.31-.64-.38-.14-.52-.41-.04-.45-.86.33-.29-.2-.32.15-.24.53-.24.04-.38.7.04z" data-originalStrokeWidth="0.25" style="shape-rendering: auto; stroke: rgb(0, 0, 0);"></path>


<path id="Gurjão" fill="#ccccb8" stroke="#000" stroke-width=".25" d="m691.75 250.28 1.38.11 1.18.22.4.39 1.23-.6-.08 2.1-.32.1-.57-.28-.76.1-.87.22-.05.14-.94.26v.2l-1.27.04.44-.49.36-.06-.2-1.33.33-.2-.04-.8z" data-originalStrokeWidth="0.25" style="shape-rendering: auto; stroke: rgb(0, 0, 0);"></path>


<path id="Ibiara" fill="#ccccb8" stroke="#000" stroke-width=".25" d="m660.88 256.24-.3.22-1.02.07-.08 1.06-.88-.08.29-.7-.63-.3-.32-.3-.28-1.4 1.1-.24h.51l.42-.1 1.1.68-.22.37z" data-originalStrokeWidth="0.25" style="shape-rendering: auto; stroke: rgb(0, 0, 0);"></path>


<path id="Imaculada" fill="#ccccb8" stroke="#000" stroke-width=".25" d="m677.01 252.51.2.85h-.82l-1.13.15.15.43-.6.9-.1.44-.79.42.04-.6-.46-.67-.79-.09-.55-.6-.88.1.38-.8.54-.3.75.17.7.04.3-.3.95.04 1.07-.1.4.2.26-.4z" data-originalStrokeWidth="0.25" style="shape-rendering: auto; stroke: rgb(0, 0, 0);"></path>


<path id="Ingá" fill="#ccccb8" stroke="#000" stroke-width=".25" d="m709.8 250.63.05.64-.23.33-.16.8.43 1.48-.7-.39-.74-.55-.39.16-1.1-.08h-.46l-.12-.24.55-1.12.37.18.55-.13.3-.23.15-.43-.78-.3.22-.33.95-.37-.16.26.33.31.5-.24z" data-originalStrokeWidth="0.25" style="shape-rendering: auto; stroke: rgb(0, 0, 0);"></path>


<path id="Itabaiana" fill="#ccccb8" stroke="#000" stroke-width=".25" d="m713.72 252.25.2.52.32-.03.36.75-.16.42-.51.38-.42.11-.17.12-.36.37-.75-.6-.21-.7.22-.66-.5-.25h.57l-.38-.8.77-.36.1.19z" data-originalStrokeWidth="0.25" style="shape-rendering: auto; stroke: rgb(0, 0, 0);"></path>


<path id="Itaporanga" fill="#ccccb8" stroke="#000" stroke-width=".25" d="m663.3 249.91.26.51.04.56 1.13.23.1 1.06.6.41-.08.57-.23.12-1.26.71-.58-.5-.52.14-.65-.2-.23.48-1.23-1.1.93-.54.4-.5-.52-.15.2-.5-.1-.43-.33-.16.2-.4 1.23-.23.2.17z" data-originalStrokeWidth="0.25" style="shape-rendering: auto; stroke: rgb(0, 0, 0);"></path>


<path id="Itapororoca" fill="#ccccb8" stroke="#000" stroke-width=".25" d="m715.3 242.84.58.84.62.74-.97.18-.22.17-.62-.4-.55.07-.15-.33-.35-.14.16-.63-.59-.26 1.1-.4h.83z" data-originalStrokeWidth="0.25" style="shape-rendering: auto; stroke: rgb(0, 0, 0);"></path>


<path id="Itatuba" fill="#ccccb8" stroke="#000" stroke-width=".25" d="m709.9 253.88.05.15-.22.7-.67.3-.54-.02-1.05.2-.23.3-.66-.21-.56.11.94-2.39 1.1.08.4-.15.74.55z" data-originalStrokeWidth="0.25" style="shape-rendering: auto; stroke: rgb(0, 0, 0);"></path>


<path id="Jacaraú" fill="#ccccb8" stroke="#000" stroke-width=".25" d="m715.42 238.6.53.51-.13.83 1.1 1.04-.65.1-.9.47-.27.13-.25-.48.2-.14-.51-.54-.96-.15.05-.34-1.17-.19-.06-.5.55-.9.4.47.2.1h.99l.79-.24z" data-originalStrokeWidth="0.25" style="shape-rendering: auto; stroke: rgb(0, 0, 0);"></path>


<path id="Jericó" fill="#ccccb8" stroke="#000" stroke-width=".25" d="m669.6 237.31.4.26.4-.14.42.14.25.42-.15.01-.4 1.2-.62.32-.05.38-.51-.06.07-.58-.65-.25-.67-.06.67-1.62.37-.17z" data-originalStrokeWidth="0.25" style="shape-rendering: auto; stroke: rgb(0, 0, 0);"></path>


<path id="João_Pessoa" fill="#ccccb8" stroke="#000" stroke-width=".25" d="m722.17 248.06.22.3-.03.48.18.51.5.44-.03.7-.19.9-.45-.3-.19.15-.85-.39-.4-.03-.3.23-.1-.2-.59.01-.04-.73.61-.13h.35l-.05-.55.45-.24.04-.49.5-.59z" data-originalStrokeWidth="0.25" style="shape-rendering: auto; stroke: rgb(0, 0, 0);"></path>


<path id="Juarez_Távora" fill="#ccccb8" stroke="#000" stroke-width=".25" d="m710.28 250.66-.49-.04-.43-.24-.5.24-.33-.3.16-.26-.4-.65 1.14-.2.54-.01.2.32-.33.29z" data-originalStrokeWidth="0.25" style="shape-rendering: auto; stroke: rgb(0, 0, 0);"></path>


<path id="Juazeirinho" fill="#ccccb8" stroke="#000" stroke-width=".25" d="m691.88 245.2 1.48.97-.08.8-.23.7.27 1.69-.25.65.06.39-1.38-.11-.5-.16-.37-.77h-.85l-.13-.9.2-.5-.34-.62.73.08.28-.45.43-.33-.04-.67.46-.38z" data-originalStrokeWidth="0.25" style="shape-rendering: auto; stroke: rgb(0, 0, 0);"></path>


<path id="Junco_do_Seridó" fill="#ccccb8" stroke="#000" stroke-width=".25" d="m690.13 245.8-.24.8-.58.6-.43-.01-.33.39-.37.22-.57-.05-1.2.42-.18-.74 1.8-1.88h.24l-.1.38.5.65.5.03.4-.86z" data-originalStrokeWidth="0.25" style="shape-rendering: auto; stroke: rgb(0, 0, 0);"></path>


<path id="Juripiranga" fill="#ccccb8" stroke="#000" stroke-width=".25" d="m715.97 252.56.22.72.56.35-.07.37-.66.1-.46-.3-.56-.12-.56.23.16-.42.92-1.14z" data-originalStrokeWidth="0.25" style="shape-rendering: auto; stroke: rgb(0, 0, 0);"></path>


<path id="Juru" fill="#ccccb8" stroke="#000" stroke-width=".25" d="m671.23 253.9-.03.92.44.38-.51 1.43-.36.28.28.71-.2.21-.14.3-.82-.19-1.13-.92-.59-.02-.03-.46-.38-1.08 1.21-.74.2-.29.7-.25.45-.02z" data-originalStrokeWidth="0.25" style="shape-rendering: auto; stroke: rgb(0, 0, 0);"></path>


<path id="Lagoa" fill="#ccccb8" stroke="#000" stroke-width=".25" d="m668.09 238.96.67.06.65.25-.07.58.5.06.26.05.1.78-1.4-.06-.7-.36-.75.14-.45-.23-.08-.53.18-.24-.3-.71.7-.08z" data-originalStrokeWidth="0.25" style="shape-rendering: auto; stroke: rgb(0, 0, 0);"></path>


<path id="Lagoa_de_Dentro" fill="#ccccb8" stroke="#000" stroke-width=".25" d="m713.58 240.38-.2.48.36.38v.67l-.24-.1-.27.83-.51-.54-.4-.16-.25-.6.95-.78.04-.29z" data-originalStrokeWidth="0.25" style="shape-rendering: auto; stroke: rgb(0, 0, 0);"></path>


<path id="Lagoa_Seca" fill="#ccccb8" stroke="#000" stroke-width=".25" d="m704.76 249.26.74.2v.27l-.7.41-.17.38-.46.21-.42-.64-.4.15-.48-.8.07-.47.62-.4.49.46z" data-originalStrokeWidth="0.25" style="shape-rendering: auto; stroke: rgb(0, 0, 0);"></path>


<path id="Lastro" fill="#ccccb8" stroke="#000" stroke-width=".25" d="m664.24 238.63-.58.59-.03.32.48.4-.64.44-.35-.42-1.3.17.7-.58.36-.43-.57-1.19.66.26.83-.07z" data-originalStrokeWidth="0.25" style="shape-rendering: auto; stroke: rgb(0, 0, 0);"></path>


<path id="Livramento" fill="#ccccb8" stroke="#000" stroke-width=".25" d="m688.16 252.47-.19.25.05.95-.98.07-.2-.08-1.26.26-.3-.1-.8.1-.69.28-.2-.32-.5-.1.45-1.65.28-.06-.05-.6.92.65 1.88.63 1.03.16.34-.53z" data-originalStrokeWidth="0.25" style="shape-rendering: auto; stroke: rgb(0, 0, 0);"></path>


<path id="Logradouro" fill="#ccccb8" stroke="#000" stroke-width=".25" d="m711.58 237.99.6.06.06.64-.44 1.62-.43-.1.1-.17.39-1.58z" data-originalStrokeWidth="0.25" style="shape-rendering: auto; stroke: rgb(0, 0, 0);"></path>


<path id="Lucena" fill="#ccccb8" stroke="#000" stroke-width=".25" d="m721.17 244.7.2.3.6.37-.21.47.19.53-.24.3-.72-.48-.14.09-1.5-.76 1.22-.4.37-.43z" data-originalStrokeWidth="0.25" style="shape-rendering: auto; stroke: rgb(0, 0, 0);"></path>


<path id="Mãe_d_Água" fill="#ccccb8" stroke="#000" stroke-width=".25" d="m677.2 250 .49.65.45.24-.01.2-1.18.54-.14.2.5.43-.3.25-.37-.12-.26.4-.4-.2-1.07.1-.95-.04.52-.46.29-.07.06-.44.47-.6.37-.5.79-.3.04-.33z" data-originalStrokeWidth="0.25" style="shape-rendering: auto; stroke: rgb(0, 0, 0);"></path>


<path id="Malta" fill="#ccccb8" stroke="#000" stroke-width=".25" d="m675.5 245.57.51.8-.56.17-.39-.2-.25.24.04.51-.44-.58.09-.39-.57-.46-.17-.82.1-1.1.38-.2v-.44l.54-.11.32.21v.57l-.38.12.48.72.05.68z" data-originalStrokeWidth="0.25" style="shape-rendering: auto; stroke: rgb(0, 0, 0);"></path>


<path id="Mamanguape" fill="#ccccb8" stroke="#000" stroke-width=".25" d="m717.84 240.44-.6.4.13.55-.1.82-.23.35v.39l.64 1.5-.08.66-.4.11-.6-.04-.1-.76-.62-.73-.58-.84.2-.17.08-.68-.22-.44.9-.48.65-.1-1.09-1.03.13-.83.45.14.41-.1.4-.4.18-.44-.08.65-.27.26.06.54h.45l-.03.33z" data-originalStrokeWidth="0.25" style="shape-rendering: auto; stroke: rgb(0, 0, 0);"></path>


<path id="Manaíra" fill="#ccccb8" stroke="#000" stroke-width=".25" d="m664.03 261.13-.58-.28-1.02.71-.3.18-.65.07-.32-.2-.16-.56.12-.29-.26-.64.65-.77.42-.19.03-.42.31-.24.91-.13-.07-.46.62-.24.78-.53-.45.6-.08.43.46.58-.4 1.32.3.2z" data-originalStrokeWidth="0.25" style="shape-rendering: auto; stroke: rgb(0, 0, 0);"></path>


<path id="Marcação" fill="#ccccb8" stroke="#000" stroke-width=".25" d="m720.6 242.13.11.82h-.49l-.3.46-.52.08-.8-.4h-.23l-.61-.65.18-.3.98-.23.47-.05z" data-originalStrokeWidth="0.25" style="shape-rendering: auto; stroke: rgb(0, 0, 0);"></path>


<path id="Mari" fill="#ccccb8" stroke="#000" stroke-width=".25" d="m714.28 249-.47.1-1.09-1.45.36-.77.73-.05.91-.55.16.4-.02.78.13.32-.1.48z" data-originalStrokeWidth="0.25" style="shape-rendering: auto; stroke: rgb(0, 0, 0);"></path>


<path id="Marizópolis" fill="#ccccb8" stroke="#000" stroke-width=".25" d="m660.62 244.87-.48.19-.47-.7.47-1.04-.03-.28 1.12-.1-.48 1.08z" data-originalStrokeWidth="0.25" style="shape-rendering: auto; stroke: rgb(0, 0, 0);"></path>


<path id="Massaranduba" fill="#ccccb8" stroke="#000" stroke-width=".25" d="m707.03 250.94-.1.73-.48.3-.57.06-.84-.4-.53-.14.48-.76-.36-.2.17-.38.7-.41 1.4-.84.51.75-.62.43z" data-originalStrokeWidth="0.25" style="shape-rendering: auto; stroke: rgb(0, 0, 0);"></path>


<path id="Mataraca" fill="#ccccb8" stroke="#000" stroke-width=".25" d="m719.95 238 .06 2.05-.7-.08-.78.07-.7.4-.3-.33.03-.35h-.45l-.07-.54.27-.26.08-.65.31-.13.66.53.52-.39.64-.06z" data-originalStrokeWidth="0.25" style="shape-rendering: auto; stroke: rgb(0, 0, 0);"></path>


<path id="Matinhas" fill="#ccccb8" stroke="#000" stroke-width=".25" d="m706.8 248.63.1.26-1.4.84v-.27l-.74-.2.26-.39 1.33.04z" data-originalStrokeWidth="0.25" style="shape-rendering: auto; stroke: rgb(0, 0, 0);"></path>


<path id="Mato_Grosso" fill="#ccccb8" stroke="#000" stroke-width=".25" d="m672.3 239.07-1.4.52-.2.33-.6.04-.26-.05.05-.38.62-.33.41-1.2h.15l.58.5.61.37z" data-originalStrokeWidth="0.25" style="shape-rendering: auto; stroke: rgb(0, 0, 0);"></path>


<path id="Maturéia" fill="#ccccb8" stroke="#000" stroke-width=".25" d="m678.49 252.18-.25-.02-.51.58.13.25-.64.38-.2-.85.3-.25-.52-.44.14-.2 1.18-.53.4.5z" data-originalStrokeWidth="0.25" style="shape-rendering: auto; stroke: rgb(0, 0, 0);"></path>


<path id="Mogeiro" fill="#ccccb8" stroke="#000" stroke-width=".25" d="m710.28 250.66.41.04.14.52.64.38.45.28.38.8h-.56l-.4.2.14.33-.3.23-.91.28-.32.31-.05-.15-.43-1.49.16-.79.22-.34-.05-.64z" data-originalStrokeWidth="0.25" style="shape-rendering: auto; stroke: rgb(0, 0, 0);"></path>


<path id="Montadas" fill="#ccccb8" stroke="#000" stroke-width=".25" d="m702.95 248.97-.63.09-.24-.22.2-.52 1.24.17.05.08z" data-originalStrokeWidth="0.25" style="shape-rendering: auto; stroke: rgb(0, 0, 0);"></path>


<path id="Monte_Horebe" fill="#ccccb8" stroke="#000" stroke-width=".25" d="m659.14 250.65.03.06-.39.35-.69-.3-1.35.52-.19.24-.08-.22-.6.15-.48-.5-.08-.5-.35-.13 1.28-.01.6-.28.35.27 1.1.02.28.27z" data-originalStrokeWidth="0.25" style="shape-rendering: auto; stroke: rgb(0, 0, 0);"></path>


<path id="Monteiro" fill="#ccccb8" stroke="#000" stroke-width=".25" d="m684.73 261.75.53.71.1 2.5-.07.44-.63.4-1.1-.32-.2.04-.52-.2-.5.34-.96-.5-.19-.47-1.04-.43-1.28-.14-.86.26-.17-.55.73-.26.1-.53h.29l.75-.53-.05-.48.43-.19.1-.52.6-.28.22.17.33-.36 1.3-.3.93-.82.22.58z" data-originalStrokeWidth="0.25" style="shape-rendering: auto; stroke: rgb(0, 0, 0);"></path>


<path id="Mulungu" fill="#ccccb8" stroke="#000" stroke-width=".25" d="m712.66 245.87.68.39.47.57-.73.04-.36.77-1.33.74-.7-.04-.39-.73.97-1.2.57-.48z" data-originalStrokeWidth="0.25" style="shape-rendering: auto; stroke: rgb(0, 0, 0);"></path>


<path id="Natuba" fill="#ccccb8" stroke="#000" stroke-width=".25" d="m710.63 255.62-.12.5-.34.51-.28.7.33.42-.23.3.08.41-.58.3-.49-.2-.57.22-.29-.54-.36-.27 1.2-.22-.2-.27.03-.66.25-1.8.67-.28-.05.6z" data-originalStrokeWidth="0.25" style="shape-rendering: auto; stroke: rgb(0, 0, 0);"></path>


<path id="Nazarezinho" fill="#ccccb8" stroke="#000" stroke-width=".25" d="m661.84 245.38.32.57-.47.98-.46.5-.64-.13-.18-.37-.42-.05-.47-.03-.65-.38-.08-.63.79-.05.35-.3.2-.44.49-.19.23.43.63.2z" data-originalStrokeWidth="0.25" style="shape-rendering: auto; stroke: rgb(0, 0, 0);"></path>


<path id="Nova_Floresta" fill="#ccccb8" stroke="#000" stroke-width=".25" d="m698.63 237-.1.7-.8 1.58-.03-2.22z" data-originalStrokeWidth="0.25" style="shape-rendering: auto; stroke: rgb(0, 0, 0);"></path>


<path id="Nova_Olinda" fill="#ccccb8" stroke="#000" stroke-width=".25" d="m664.95 253.96.5.08.05.4.92.54.45.92.26-.02-.44.49-.7.07-.46-.3.18-.16-.23-.47.07-.45z" data-originalStrokeWidth="0.25" style="shape-rendering: auto; stroke: rgb(0, 0, 0);"></path>


<path id="Nova_Palmeira" fill="#ccccb8" stroke="#000" stroke-width=".25" d="m696.74 241.38-.47.12-.52.46-.11.54-.43-.07-.6.32-1-.67-.9.08-.44.2-.44-.46.67-1.71.12-.3.75.4.2.32.4-.1.61.58.68-1.1 1.01.82z" data-originalStrokeWidth="0.25" style="shape-rendering: auto; stroke: rgb(0, 0, 0);"></path>


<path id="Olho_d_Água" fill="#ccccb8" stroke="#000" stroke-width=".25" d="m671.6 250.16.42-.05.12.7 1.06 1.04.23-.02.52.82-.3.3-.7-.04-.75-.18-.54.3-.38.8-.06.07-.9.26-.45.02-.7.25-.27-.14-.17-1.13-.49-.13-.13-.55 1.31-1.36.32-1.25.57-.3.29-.03.37.62z" data-originalStrokeWidth="0.25" style="shape-rendering: auto; stroke: rgb(0, 0, 0);"></path>


<path id="Olivedos" fill="#ccccb8" stroke="#000" stroke-width=".25" d="m698.88 246.12.14.4-.44.2-.4.87-.02.6-.71.2.15.54-.87-.24-1.07-2.46.23-.31.43.1.77-1.85.97 1.2z" data-originalStrokeWidth="0.25" style="shape-rendering: auto; stroke: rgb(0, 0, 0);"></path>


<path id="Ouro_Velho" fill="#ccccb8" stroke="#000" stroke-width=".25" d="m682.26 257.65.27.77-.4-.05-.68.5-.26.53-.6-.8-.05-.3.6-1.08.8-.7.7-.33-.15.11-.06.83z" data-originalStrokeWidth="0.25" style="shape-rendering: auto; stroke: rgb(0, 0, 0);"></path>


<path id="Parari" fill="#ccccb8" stroke="#000" stroke-width=".25" d="M689.22 251.84h.76l.23.28.69-.03.43.16.56.49-.36.06-.44.49v.46l-.52.26-.78-.18-.63-.06-.54-.55-.65-.5.2-.25.34-.02.3-.76z" data-originalStrokeWidth="0.25" style="shape-rendering: auto; stroke: rgb(0, 0, 0);"></path>


<path id="Passagem" fill="#ccccb8" stroke="#000" stroke-width=".25" d="m683.9 247.97.25 1.2-.14.1.12.74-.46.42-.6-.6-.63.22-.13-.89.2-.18.06-.64.35-.03z" data-originalStrokeWidth="0.25" style="shape-rendering: auto; stroke: rgb(0, 0, 0);"></path>


<path id="Patos" fill="#ccccb8" stroke="#000" stroke-width=".25" d="m680.98 246.76-.97.64.09.6.6.1-.76.51-.24.4-.73-.59-.47.15-.42.97-.74.24-.17-.1-.04-.33.54-.05.27-.5-.1-.76-.38-1.02-.68.15-1.18-.25-.75.17-.04-.5.26-.25.39.2.56-.17-.51-.8.7.05.54.28 2.41-.38 1.11-.14.6.33-.04.7z" data-originalStrokeWidth="0.25" style="shape-rendering: auto; stroke: rgb(0, 0, 0);"></path>


<path id="Paulista" fill="#ccccb8" stroke="#000" stroke-width=".25" d="m675.82 238.8-.31.26.13.3-.1.72.08.7.18.27-.33.88-.62.02-.97.18-1.14.07-.32-.05-2.22-1.42-.1-.78.6-.03.2-.33 1.4-.52.44-.33.42-.04.73.43.6-.1.54-.34.39-.29z" data-originalStrokeWidth="0.25" style="shape-rendering: auto; stroke: rgb(0, 0, 0);"></path>


<path id="Pedra_Branca" fill="#ccccb8" stroke="#000" stroke-width=".25" d="m664.95 253.96.6 1.1-.06.46.23.47-.18.16-.03.6-1 .4.55-.75-.47-.83-.36-1-.36-.48 1.26-.71z" data-originalStrokeWidth="0.25" style="shape-rendering: auto; stroke: rgb(0, 0, 0);"></path>


<path id="Pedra_Lavrada" fill="#ccccb8" stroke="#000" stroke-width=".25" d="m696.74 241.38.23.23.32-.1-.15 2.18h-.48l-.58-.38-.4.14-1.12 1.06-.2-.1h-1.56l-.7-.14.6-.43.15-.7-.06-.43-.51-.36.44-.19.89-.08 1 .67.6-.32.43.07.1-.54.53-.46z" data-originalStrokeWidth="0.25" style="shape-rendering: auto; stroke: rgb(0, 0, 0);"></path>


<path id="Pedras_de_Fogo" fill="#ccccb8" stroke="#000" stroke-width=".25" d="m718.2 251.1.41.9 1.1.82.45.43-.2.3.26.38-.03.31-.47.88-.07.78v-.67l-.78-.63-.72-.48-.66.12-.81-.23.07-.37-.56-.35-.22-.72.38-.6.05-.45.38-.82.67.44z" data-originalStrokeWidth="0.25" style="shape-rendering: auto; stroke: rgb(0, 0, 0);"></path>


<path id="Piancó" fill="#ccccb8" stroke="#000" stroke-width=".25" d="m669.54 248.8.23.45.54.32-.57.3-.32 1.24-1.3 1.36-1.04.2-.9-.56-.76.57-.59-.4-.1-1.06.5-.23.23-.6-.44-.66.3-1.1.16.64.32.23-.04.53.75.1.2-.87.56-.61 1.13-.11.44.2z" data-originalStrokeWidth="0.25" style="shape-rendering: auto; stroke: rgb(0, 0, 0);"></path>


<path id="Picuí" fill="#ccccb8" stroke="#000" stroke-width=".25" d="m696.48 235.94.08.45.72.15.02.58.4-.06.03 2.22-.12.66-.36-.3-.84-.3.5.78-.09.85.14.64-.23-.23-.46-.57-1-.83-.69 1.11-.62-.58-.07-1.15-.66-.44-.04-.34.41-.03.7-.8-.37-.33.04-.52.46-.36.38.14.31-.32.1-.62.41-1 .53-.35.33.15.28.46.04.4z" data-originalStrokeWidth="0.25" style="shape-rendering: auto; stroke: rgb(0, 0, 0);"></path>


<path id="Pilar" fill="#ccccb8" stroke="#000" stroke-width=".25" d="m715.27 250.69-.16.64.4 1.02-.92 1.14-.36-.75-.3.03-.21-.52.38-.05.22-.46-.3-.87 1.18-.08z" data-originalStrokeWidth="0.25" style="shape-rendering: auto; stroke: rgb(0, 0, 0);"></path>


<path id="Pilões" fill="#ccccb8" stroke="#000" stroke-width=".25" d="m709 244.22.4.83v.4l-.34.23-1.16-.2.07-.48-.2-.26.02-.11z" data-originalStrokeWidth="0.25" style="shape-rendering: auto; stroke: rgb(0, 0, 0);"></path>


<path id="Pilõezinhos" fill="#ccccb8" stroke="#000" stroke-width=".25" d="m709.93 244.8-.54.25-.4-.83.21-.28 1.6-.08-.3.02z" data-originalStrokeWidth="0.25" style="shape-rendering: auto; stroke: rgb(0, 0, 0);"></path>


<path id="Pirpirituba" fill="#ccccb8" stroke="#000" stroke-width=".25" d="m711.55 242.7.6.23-.98.81-.37.12-1.6.08.01-.29.8-.64.17-.21.43.33.35-.06z" data-originalStrokeWidth="0.25" style="shape-rendering: auto; stroke: rgb(0, 0, 0);"></path>


<path id="Pitimbu" fill="#ccccb8" stroke="#000" stroke-width=".25" d="m721.9 253.13.7.13.28.67-.2 1.78.09.36-.44.7-.36-.16-.04-.53.1-1.25-.53-.39-.53-.12.7-.82z" data-originalStrokeWidth="0.25" style="shape-rendering: auto; stroke: rgb(0, 0, 0);"></path>


<path id="Pocinhos" fill="#ccccb8" stroke="#000" stroke-width=".25" d="m702.72 245.97-.12.38-.48.47.36.55.07.18-.26.76-.21.52-.81 1.17h-.7l-.53-.2-.84.22-.47.6-.97-.05.09-.65-.24-1-.16-.52.7-.2.03-.61.4-.87.44-.2-.13-.4.87-.25.59.68.89.08.27-.51 1.03-.6z" data-originalStrokeWidth="0.25" style="shape-rendering: auto; stroke: rgb(0, 0, 0);"></path>


<path id="Poço_Dantas" fill="#ccccb8" stroke="#000" stroke-width=".25" d="m658.43 236.51-.26.2-.47.43-.58.11-.29-.42-.23-.4-.36.1-.36-.45.53-.4.53-.25.5.26.5-.4.31-.06-.54.55.1.5z" data-originalStrokeWidth="0.25" style="shape-rendering: auto; stroke: rgb(0, 0, 0);"></path>


<path id="Poço_de_José_de_Moura" fill="#ccccb8" stroke="#000" stroke-width=".25" d="m658.62 239.56-.33.66-.22.1-.26.73-.23.05-.52-.48-.2-.69-.05-.83.15-.42.47-.15.05.2.14.74.67-.02z" data-originalStrokeWidth="0.25" style="shape-rendering: auto; stroke: rgb(0, 0, 0);"></path>


<path id="Pombal" fill="#ccccb8" stroke="#000" stroke-width=".25" d="m670.2 240.74 2.22 1.4.49.68.14.42-.17.4-1.82-.13-.3.25v.45l-.6.16v.56l-.95-.16-.33.51-.31.15-.2.61-.6.5.25.37.65.45-.15.03-.92-.4-1.35-.93-.15-1.05.26-.19 1-.02.4-.5.53-.05.24-.27-.1-.6-.33-.12-.06-.9-1.42.26-.67.27-.02-.77.75-.45-.61-.44-.01-.42.85-.59.45.23.75-.14.7.36z" data-originalStrokeWidth="0.25" style="shape-rendering: auto; stroke: rgb(0, 0, 0);"></path>


<path id="Prata" fill="#ccccb8" stroke="#000" stroke-width=".25" d="m682.68 257.67.24.29 1.03.69-.38 1.09-.93.82-1.3.29.23-.6-.2-.51-.19-.33.26-.53.68-.5.41.05-.27-.77z" data-originalStrokeWidth="0.25" style="shape-rendering: auto; stroke: rgb(0, 0, 0);"></path>


<path id="Princesa_Isabel" fill="#ccccb8" stroke="#000" stroke-width=".25" d="m666.7 256.37-.06.24.95.55-.5.39v.78l.4.63.58.45-.32.26-.64.93-.23.2-.53.03-.7-.55-.52.43-.18-.7.33-.69.08-.73-.5-.19.05-.93-.4-.33 1-.39.03-.6.46.28z" data-originalStrokeWidth="0.25" style="shape-rendering: auto; stroke: rgb(0, 0, 0);"></path>


<path id="Puxinanã" fill="#ccccb8" stroke="#000" stroke-width=".25" d="m702.95 248.97-.07.47.48.8-.56-.08-.03.31-.41.04-.41-.6-.68.1.8-1.18.25.22z" data-originalStrokeWidth="0.25" style="shape-rendering: auto; stroke: rgb(0, 0, 0);"></path>


<path id="Queimadas" fill="#ccccb8" stroke="#000" stroke-width=".25" d="M704.57 252.91v1.06l.3.46-.3.41.23.34v.01l-.5.84-.38.07-.7-.09-.12.13-.72-.4-.55-.55-.28-.1.13-1.25.36-.35.1-1.04.49-.44 1.07.12.2.23.62.08z" data-originalStrokeWidth="0.25" style="shape-rendering: auto; stroke: rgb(0, 0, 0);"></path>


<path id="Quixaba" fill="#ccccb8" stroke="#000" stroke-width=".25" d="m683.9 247.97-.98.34-.36.03-.06.64-1.43-.76-.38-.12-.6-.1-.09-.6.97-.64 1.24.7.5-.15.28.45z" data-originalStrokeWidth="0.25" style="shape-rendering: auto; stroke: rgb(0, 0, 0);"></path>


<path id="Remígio" fill="#ccccb8" stroke="#000" stroke-width=".25" d="m705.12 244.84.4.59-.05.67.23.29-.04 1.05-.4-.05-.3-.33.05-.3-.96-.44-.31.05-.38-.45-.64.05-.18-.46.29-.4.55-.02.64-.5.4-.06z" data-originalStrokeWidth="0.25" style="shape-rendering: auto; stroke: rgb(0, 0, 0);"></path>


<path id="Pedro_Régis" fill="#ccccb8" stroke="#000" stroke-width=".25" d="m715.1 241.69-.34.24-.64.14-.38-.15v-.67l-.36-.4.2-.47.96.15.5.54-.2.14z" data-originalStrokeWidth="0.25" style="shape-rendering: auto; stroke: rgb(0, 0, 0);"></path>


<path id="Riachão" fill="#ccccb8" stroke="#000" stroke-width=".25" d="m709.53 239.03-1.17.1-.35.39-.8.31-.35-.04-.21-.4.57-.27.27-.77.36-.27 1.22.53z" data-originalStrokeWidth="0.25" style="shape-rendering: auto; stroke: rgb(0, 0, 0);"></path>


<path id="Riachão_do_Bacamarte" fill="#ccccb8" stroke="#000" stroke-width=".25" d="m706.93 251.66.1-.73.5-.18.78.3-.15.43-.3.24-.55.13z" data-originalStrokeWidth="0.25" style="shape-rendering: auto; stroke: rgb(0, 0, 0);"></path>


<path id="Riachão_do_Poço" fill="#ccccb8" stroke="#000" stroke-width=".25" d="m714.77 249.5.05.47-.4.43-.9-.24.11-.35.34-.21.31-.6z" data-originalStrokeWidth="0.25" style="shape-rendering: auto; stroke: rgb(0, 0, 0);"></path>


<path id="Riacho_de_Santo_Antônio" fill="#ccccb8" stroke="#000" stroke-width=".25" d="m700.45 257.75-1 .59-.04.58.46.83-.4.94-.48-.24-.23-.94.13-.28-.5-.57-.04-.26.58-.04.22-.24.76-.42.27-.02z" data-originalStrokeWidth="0.25" style="shape-rendering: auto; stroke: rgb(0, 0, 0);"></path>


<path id="Riacho_dos_Cavalos" fill="#ccccb8" stroke="#000" stroke-width=".25" d="m675.02 238.7-.54.34-.6.1-.73-.43-.42.03-.44.33-.03-.2-.6-.37-.58-.5-.03-1.71 1.96.58.61.34.45.5.5.07z" data-originalStrokeWidth="0.25" style="shape-rendering: auto; stroke: rgb(0, 0, 0);"></path>


<path id="Rio_Tinto" fill="#ccccb8" stroke="#000" stroke-width=".25" d="m719.3 239.97-.28.36-.33 1 .22.58-.98.24-.18.29.61.65h.24l.8.4.53-.08.3-.46h.48l.18.35.06.7.22.7-.24-.02-.37.43-1.22.4-1.09.37-.6.11-.45-.77.4-.1.07-.67-.64-1.5v-.4l.23-.35.11-.8-.13-.55.6-.41.68-.4z" data-originalStrokeWidth="0.25" style="shape-rendering: auto; stroke: rgb(0, 0, 0);"></path>


<path id="Salgadinho" fill="#ccccb8" stroke="#000" stroke-width=".25" d="m688.55 247.57-.17.24-.03.73-.4.44-.43.62-.27-.07-1.1.36-.88-.17.14-1.08.12-.15.89-.32 1.2-.42.57.05z" data-originalStrokeWidth="0.25" style="shape-rendering: auto; stroke: rgb(0, 0, 0);"></path>


<path id="Salgado_de_São_Félix" fill="#ccccb8" stroke="#000" stroke-width=".25" d="m712.98 254.9-.4.12-.7.44-.18-.07-.28-.31-.78.54-.95-.27.05-.61.2-.7.32-.31.93-.28.29-.23-.14-.33.4-.2.5.25-.22.66.2.69z" data-originalStrokeWidth="0.25" style="shape-rendering: auto; stroke: rgb(0, 0, 0);"></path>


<path id="Santa_Cecília" fill="#ccccb8" stroke="#000" stroke-width=".25" d="m704.03 258.77.63-.02.08.66-.16.4.21.5-.98.1v.2l-.3.4-.8.01-.27-.04-.78.45-.33-.05.84-1.93-.02-.35.34-.5.46.53.74-.34z" data-originalStrokeWidth="0.25" style="shape-rendering: auto; stroke: rgb(0, 0, 0);"></path>


<path id="Santa_Cruz" fill="#ccccb8" stroke="#000" stroke-width=".25" d="m665.88 237.78.18.29-.15.42.21.23.57.02.31.71-.18.25.08.53-.41.16-.72-.03-.34-.65-.45-.01-.52.38-.35-.13-.48-.41.03-.32.58-.6.4-.25.03-.25.44-.53.6-.12z" data-originalStrokeWidth="0.25" style="shape-rendering: auto; stroke: rgb(0, 0, 0);"></path>


<path id="Santa_Helena" fill="#ccccb8" stroke="#000" stroke-width=".25" d="m657.16 241.82.48.3.08.43-.1.7-.41.2-.48-.1-.46.14-.76-.28-.68-.45-.07-.47-.3-.42.45-.92-.02-.46.96.8.27.55.6-.11z" data-originalStrokeWidth="0.25" style="shape-rendering: auto; stroke: rgb(0, 0, 0);"></path>


<path id="Santa_Inês" fill="#ccccb8" stroke="#000" stroke-width=".25" d="m658.27 259.75-.59.3-.1.27-.83-.02-.37.14-.52-.05-.25-.26-.32-.77-1.08-1.08-.5-.22.2-.72.37-.04.87.13.63.3 1.23-.13.07.55.38.44.57-.08-.12.53z" data-originalStrokeWidth="0.25" style="shape-rendering: auto; stroke: rgb(0, 0, 0);"></path>


<path id="Santa_Luzia" fill="#ccccb8" stroke="#000" stroke-width=".25" d="m688.02 245.56-1.79 1.88.18.74-.89.3-.12-.48-.36-.21-.3-.2.43-.34-.1-.88-.46.1.07-.56h-.43l-.83-.56.43-.57.94-.97-.04-.58.87-.47.17 1.07.65.41-.02.3.6.5h.6z" data-originalStrokeWidth="0.25" style="shape-rendering: auto; stroke: rgb(0, 0, 0);"></path>


<path id="Santana_de_Mangueira" fill="#ccccb8" stroke="#000" stroke-width=".25" d="m661.98 257.13.43.4.7.39.07.45-.9.13-.31.24-.03.42-.42.2-.65.76-.03-.4-.25-.4-.5-.27-.97.92-.44-.18-.28-.92.2-.54-.15-.34.15-.49.88.08.08-1.06 1.02-.07.3-.22.3.25.45.73z" data-originalStrokeWidth="0.25" style="shape-rendering: auto; stroke: rgb(0, 0, 0);"></path>


<path id="Santana_dos_Garrotes" fill="#ccccb8" stroke="#000" stroke-width=".25" d="m668.12 252.47.13.55.49.13.17 1.14.27.14-.2.3-1.22.73-.63.41-.26.02-.45-.92-.92-.54-.05-.4-.5-.08.17-.58.22-.12.08-.57.76-.58.9.56z" data-originalStrokeWidth="0.25" style="shape-rendering: auto; stroke: rgb(0, 0, 0);"></path>


<path id="Joca_Claudino" fill="#ccccb8" stroke="#000" stroke-width=".25" d="m657.49 238.72-.05-.19-.3-.44.2-.64-.21-.2.58-.1.47-.43.24.53-.03.96-.28.55z" data-originalStrokeWidth="0.25" style="shape-rendering: auto; stroke: rgb(0, 0, 0);"></path>


<path id="Santa_Rita" fill="#ccccb8" stroke="#000" stroke-width=".25" d="m719.35 245.51 1.5.76.14-.09.72.5-.1.15.27.75-.08.55-.5.6-.38.36-.48.15-.24.45.31.32-.6.13.03.73.58-.03.11.21-.24.4-.09.45-.3.16-.6-.27-.79.2-.4-.89.46-1.5-.33-1.1-1.75-.96.5-.33-.27-.59.2-.58.62-.05.61-.1z" data-originalStrokeWidth="0.25" style="shape-rendering: auto; stroke: rgb(0, 0, 0);"></path>


<path id="Santa_Teresinha" fill="#ccccb8" stroke="#000" stroke-width=".25" d="m677.16 249.69.03.32-.7-.05-.04.32-.79.3-.37.5-.86-2.07h.54l-.13-1.91.75-.17 1.2.25.68-.15.37 1.02.1.75-.28.5-.54.06z" data-originalStrokeWidth="0.25" style="shape-rendering: auto; stroke: rgb(0, 0, 0);"></path>


<path id="Santo_André" fill="#ccccb8" stroke="#000" stroke-width=".25" d="m691.75 250.28.22.11.04.8-.34.22.21 1.33-.56-.5-.43-.15-.68.03-.23-.28h-.76l.6-.66v-.46l.3-.34-.09-1.02h.85l.36.77z" data-originalStrokeWidth="0.25" style="shape-rendering: auto; stroke: rgb(0, 0, 0);"></path>


<path id="São_Bento" fill="#ccccb8" stroke="#000" stroke-width=".25" d="m677.15 236.3-.12.51.26.3-.17.28-.09 1.02-.45.4h-.77l-.4-.4-.39.29-.46-.91-.49-.07-.45-.51.2-.36.96-.26.21.1.83-.3z" data-originalStrokeWidth="0.25" style="shape-rendering: auto; stroke: rgb(0, 0, 0);"></path>


<path id="São_Bentinho" fill="#ccccb8" stroke="#000" stroke-width=".25" d="m672.88 243.65.09.34-.17.58-.57.44-.3.62.15.45-.31.28-.48.64-.35-.78-.23-1.1-.55-.18v-.56l.6-.16v-.45l.3-.25z" data-originalStrokeWidth="0.25" style="shape-rendering: auto; stroke: rgb(0, 0, 0);"></path>


<path id="São_Domingos_do_Cariri" fill="#ccccb8" stroke="#000" stroke-width=".25" d="m696.37 257.62-.33.25-.5-.21-.33.82.18.52-1.57-.05-.56-.34.67-3.1 1.14.64.43.6z" data-originalStrokeWidth="0.25" style="shape-rendering: auto; stroke: rgb(0, 0, 0);"></path>


<path id="São_Domingos" fill="#ccccb8" stroke="#000" stroke-width=".25" d="m666.36 244.82-.18-.39.26-.54-.35-.5-.13-.5.67-.26 1.42-.27.05.9.32.12.11.6-.24.27-.53.05-.4.5z" data-originalStrokeWidth="0.25" style="shape-rendering: auto; stroke: rgb(0, 0, 0);"></path>


<path id="São_Francisco" fill="#ccccb8" stroke="#000" stroke-width=".25" d="m666.9 240.22-.85.6.01.42-.86.14-.44.26-.25-.86-.06-.7.52-.39.45.01.34.65.72.03z" data-originalStrokeWidth="0.25" style="shape-rendering: auto; stroke: rgb(0, 0, 0);"></path>


<path id="São_João_do_Cariri" fill="#ccccb8" stroke="#000" stroke-width=".25" d="m695.87 252.5-1.93 3-.67 3.1-.3-.28-.72.07-.72-.27-.21.18-.2-.91 1.22-.98-1.77-2.4.51-.26v-.46l1.27-.04v-.2l.94-.27.06-.14.87-.22.76-.1.57.29z" data-originalStrokeWidth="0.25" style="shape-rendering: auto; stroke: rgb(0, 0, 0);"></path>


<path id="São_João_do_Tigre" fill="#ccccb8" stroke="#000" stroke-width=".25" d="m689.57 267.5-1.11.35-.21.37-.46-.12-.44.28-.88.3-.82.54-.26.3-.42.13-.14.39-.24-.57.22-.31-.16-.51.14-.4-.13-.31.45-.32.06-.5.65-.78.15-.68.23-.15-.04-.47 1.12-1.03 4.3-.4-.25.4-.45-.16-.27.66-.02 1.25-.44.23.11.37.33.35-.64.22-.5.3z" data-originalStrokeWidth="0.25" style="shape-rendering: auto; stroke: rgb(0, 0, 0);"></path>


<path id="São_José_da_Lagoa_Tapada" fill="#ccccb8" stroke="#000" stroke-width=".25" d="m666.1 245.01.15 1.05-.58.56-.62-.03-.05.62-.21.06-.78-.08-1.21.04-1.11-.3.46-.98-.32-.57-.15-.35 1.73-.23.24.41.24.17 1.23-.5.78.02z" data-originalStrokeWidth="0.25" style="shape-rendering: auto; stroke: rgb(0, 0, 0);"></path>


<path id="São_José_de_Caiana" fill="#ccccb8" stroke="#000" stroke-width=".25" d="m661.43 250.22-.2.4.33.16.1.43-.2.5.51.14-.39.51-.93.53-.03-.15-1.04.04-.54.3-.16-.5.39-.33.28-.5.58-.56.39-.97.28-.26.34-.16z" data-originalStrokeWidth="0.25" style="shape-rendering: auto; stroke: rgb(0, 0, 0);"></path>


<path id="São_José_de_Espinharas" fill="#ccccb8" stroke="#000" stroke-width=".25" d="m679.37 242.32-.1.53.2.31.05.56.36.24.22.31.17 1.11-1.1.15-2.41.38-.54-.28-.71-.05-.26-.29-.05-.68-.48-.72.38-.12v-.57l-.32-.22-.54.11.25-.49.05-.5.3-.14.62-.02 1.37-.22 1.14.07.5-.22.54.09-.1.34z" data-originalStrokeWidth="0.25" style="shape-rendering: auto; stroke: rgb(0, 0, 0);"></path>


<path id="São_José_dos_Ramos" fill="#ccccb8" stroke="#000" stroke-width=".25" d="m714.01 250.88.3.87-.22.46-.38.05-.9-.55-.11-.2-.78.38-.45-.28.51-.31.8-.01-.17-.5.61-.28.28-.27z" data-originalStrokeWidth="0.25" style="shape-rendering: auto; stroke: rgb(0, 0, 0);"></path>


<path id="São_José_de_Piranhas" fill="#ccccb8" stroke="#000" stroke-width=".25" d="m659.51 246.85.47.03-.13 1 .43 1.04.24.66.44-.25.17.46-.34.16-1.65.7-.57-.07-.29-.27-1.09-.02-.36-.27-.59.28-1.28.01-.66.06.07-.97.38-.7-.37-.45.13-.35.07-.18 1.3.35.23-.38.47-.05.9-.73 1.31-.1z" data-originalStrokeWidth="0.25" style="shape-rendering: auto; stroke: rgb(0, 0, 0);"></path>


<path id="São_José_de_Princesa" fill="#ccccb8" stroke="#000" stroke-width=".25" d="m665.13 260.71-.13 1.03-.76-.2-.2-.4.3-.88-.3-.2.4-1.32-.46-.58.08-.42.45-.6.4.33-.04.93.49.2-.08.72-.33.68z" data-originalStrokeWidth="0.25" style="shape-rendering: auto; stroke: rgb(0, 0, 0);"></path>


<path id="São_José_do_Bonfim" fill="#ccccb8" stroke="#000" stroke-width=".25" d="m679.7 249 .19.48-.23 1.1-1.08-.04-.44.35-.45-.24-.5-.65-.03-.32.17.1.74-.24.42-.97.47-.15z" data-originalStrokeWidth="0.25" style="shape-rendering: auto; stroke: rgb(0, 0, 0);"></path>


<path id="São_José_do_Brejo_do_Cruz" fill="#ccccb8" stroke="#000" stroke-width=".25" d="m679.9 233.16-.65.68-.05.5-.74-.03-.34.53-.65-.47-.66.15-.55-.01-.53-.32-.27-.51 1-.8.76-.2.15-.18.75-.11.58.34.55-.06z" data-originalStrokeWidth="0.25" style="shape-rendering: auto; stroke: rgb(0, 0, 0);"></path>


<path id="São_José_do_Sabugi" fill="#ccccb8" stroke="#000" stroke-width=".25" d="m688.8 244.18-.53 1.38h-.25l-.4-.52h-.6l-.6-.5.02-.3-.65-.4-.17-1.07 1.32-.46 1.11.99.06.92z" data-originalStrokeWidth="0.25" style="shape-rendering: auto; stroke: rgb(0, 0, 0);"></path>


<path id="São_José_dos_Cordeiros" fill="#ccccb8" stroke="#000" stroke-width=".25" d="m689.8 253.82-.5.12-.42.3-.26.54-1.93 1.1-.5.7-1.76-1.49-.13.38-.68-.74.18-.53.69-.29.8-.1.3.11 1.26-.26.2.08.98-.07-.05-.94.65.49.54.55z" data-originalStrokeWidth="0.25" style="shape-rendering: auto; stroke: rgb(0, 0, 0);"></path>


<path id="São_Mamede" fill="#ccccb8" stroke="#000" stroke-width=".25" d="m683.86 244.78-.43.57.83.56h.43l-.07.56.46-.1.09.88-.43.34.3.2-.63.3-.5-.12-.92-.2-.28-.46-.5.15-1.23-.7-.14-.35.04-.7-.6-.33-.17-1.1-.22-.32.74.03.72-.5.33-.09.88.4.46.5z" data-originalStrokeWidth="0.25" style="shape-rendering: auto; stroke: rgb(0, 0, 0);"></path>


<path id="São_Miguel_de_Taipu" fill="#ccccb8" stroke="#000" stroke-width=".25" d="m716.77 250.7-.38.82-.05.45-.38.6-.45-.21-.4-1.04.16-.64.12-.23.7-.24.28.33z" data-originalStrokeWidth="0.25" style="shape-rendering: auto; stroke: rgb(0, 0, 0);"></path>


<path id="São_Sebastião_de_Lagoa_de_Roça" fill="#ccccb8" stroke="#000" stroke-width=".25" d="m705.02 248.88-.26.39-.72-.25-.48-.45-.05-.09h.01l.22-.45.53-.06v.3l.51.04z" data-originalStrokeWidth="0.25" style="shape-rendering: auto; stroke: rgb(0, 0, 0);"></path>


<path id="São_Sebastião_do_Umbuzeiro" fill="#ccccb8" stroke="#000" stroke-width=".25" d="m686.16 265.04.04.47-.23.15-.15.68-.65.78-.06.5-.45.32.13.32-.14.39.16.5-.22.31.24.57-.65.06-.52-.23-.34-.42-.75-.07.03-.7-.35.2-.39-.44-.07-.62-.59-.06.02-.56.26-.24.67.04.54-.45.84-.03-.17-.99.2-.04 1.1.31.62-.4.68-.43z" data-originalStrokeWidth="0.25" style="shape-rendering: auto; stroke: rgb(0, 0, 0);"></path>


<path id="Sapé" fill="#ccccb8" stroke="#000" stroke-width=".25" d="m716.25 246.2.77-.15-.2.58.26.59-.49.33.71.76-.6 1.45-.62.45-.72-.3-.2-.52-.39.1-.49-.5.6-.72.11-.48-.13-.32.02-.8-.16-.38.48-.01.57-.26z" data-originalStrokeWidth="0.25" style="shape-rendering: auto; stroke: rgb(0, 0, 0);"></path>


<path id="São_Vicente_do_Seridó" fill="#ccccb8" stroke="#000" stroke-width=".25" d="m694.55 244.51.1.24.68.76.56.4-.23.31-.59.38-1.79.36.08-.8-1.48-.97-.2-.34-.11-.3.23-.3.3.02.7.14h1.56z" data-originalStrokeWidth="0.25" style="shape-rendering: auto; stroke: rgb(0, 0, 0);"></path>


<path id="Serra_Branca" fill="#ccccb8" stroke="#000" stroke-width=".25" d="m689.8 253.82.78.18 1.76 2.4-1.22.98-2.06.13.26 1.52.77.15-1.19.27-.72.48-.55-.96.18-.29-.3-.28-.4-.66-.3-.14.18-.86-.8-.16.5-.7 1.93-1.1.26-.55.42-.29z" data-originalStrokeWidth="0.25" style="shape-rendering: auto; stroke: rgb(0, 0, 0);"></path>


<path id="Serra_da_Raiz" fill="#ccccb8" stroke="#000" stroke-width=".25" d="m711.72 241.9-.1.25-.6.33-.43-.14.9-1 .43-.15.14.15z" data-originalStrokeWidth="0.25" style="shape-rendering: auto; stroke: rgb(0, 0, 0);"></path>


<path id="Serra_Grande" fill="#ccccb8" stroke="#000" stroke-width=".25" d="m658.88 252.57.06-.8.26-.28-.03-.79-.03-.06 1.65-.69-.28.26-.39.97-.58.56-.28.51z" data-originalStrokeWidth="0.25" style="shape-rendering: auto; stroke: rgb(0, 0, 0);"></path>


<path id="Serra_Redonda" fill="#ccccb8" stroke="#000" stroke-width=".25" d="m708.3 249.4.4.65-.96.37-.22.34-.49.18-.24-.86.62-.43z" data-originalStrokeWidth="0.25" style="shape-rendering: auto; stroke: rgb(0, 0, 0);"></path>


<path id="Serraria" fill="#ccccb8" stroke="#000" stroke-width=".25" d="m709.22 243.66-.01.29-.21.28-1.2.4-.02.1-.63-.14-.31-.4.34-.33.87-.32.6.2z" data-originalStrokeWidth="0.25" style="shape-rendering: auto; stroke: rgb(0, 0, 0);"></path>


<path id="Sertãozinho" fill="#ccccb8" stroke="#000" stroke-width=".25" d="m712.77 242.78-.62.15-.6-.23-.54-.22.6-.33.1-.25.4.44z" data-originalStrokeWidth="0.25" style="shape-rendering: auto; stroke: rgb(0, 0, 0);"></path>


<path id="Sobrado" fill="#ccccb8" stroke="#000" stroke-width=".25" d="m716.09 250.2-.7.26-.12.23-.08.1-1.18.09-.5-.64.02-.08.9.24.4-.43-.06-.47.4-.11.2.53z" data-originalStrokeWidth="0.25" style="shape-rendering: auto; stroke: rgb(0, 0, 0);"></path>


<path id="Solânea" fill="#ccccb8" stroke="#000" stroke-width=".25" d="m707.3 241.04-.07.4.28.46-.08.35.51.54.06.3.04.45-.87.31-.53.11-.34-.18-.6.3-.15-.1-.37-.66-.08-.37.34-.31.15-1.04h.37l.31-.25.5-.3z" data-originalStrokeWidth="0.25" style="shape-rendering: auto; stroke: rgb(0, 0, 0);"></path>


<path id="Soledade" fill="#ccccb8" stroke="#000" stroke-width=".25" d="m697.75 250.56-1.8-.16-1.24.6-.4-.4-1.17-.2-.06-.4.25-.64-.27-1.68.23-.71 1.79-.36.59-.39 1.07 2.46.87.24.24 1z" data-originalStrokeWidth="0.25" style="shape-rendering: auto; stroke: rgb(0, 0, 0);"></path>


<path id="Sossêgo" fill="#ccccb8" stroke="#000" stroke-width=".25" d="m699.84 241.2-2.74 2.98.04-.48.15-2.2.15-.76.64.43.54.2.7.04z" data-originalStrokeWidth="0.25" style="shape-rendering: auto; stroke: rgb(0, 0, 0);"></path>


<path id="Sousa" fill="#ccccb8" stroke="#000" stroke-width=".25" d="m664.76 241.65-.15.55-.7.53-.08.49.4 1.19-.23.17-.35.64-.24-.41-1.73.23.15.35-.36.1-.63-.2-.23-.43.13-.85.48-1.07-1.12.1-.09-.56.25-.07-.2-.92.22-.5-.09-.74.6-.02.47.48.22-.06.34-.52 1.3-.17.34.42.64-.44.35.13.06.71z" data-originalStrokeWidth="0.25" style="shape-rendering: auto; stroke: rgb(0, 0, 0);"></path>


<path id="Sumé" fill="#ccccb8" stroke="#000" stroke-width=".25" d="m686.18 256.58.81.16-.18.86.3.14.4.66.3.29-.18.29.55.96.68.85-1 .9-.62-.1-2.52.17-.93-1.44-.22-.58.38-1.1-1.03-.68-.24-.3 1.4.45-.08-1 .41-.43-.59-.7-.24-.13.4-.01.31-.36.13-.38z" data-originalStrokeWidth="0.25" style="shape-rendering: auto; stroke: rgb(0, 0, 0);"></path>


<path id="Tacima" fill="#ccccb8" stroke="#000" stroke-width=".25" d="m709.12 237.94.29.13.93-.26.5.17h.73l.28.47-.39 1.6-.1.16-.62.15-.39.47-.27-.04.03-.66-.28-.2-.43-.54.13-.36-.47-.42-1.22-.53.3-.67.57.1z" data-originalStrokeWidth="0.25" style="shape-rendering: auto; stroke: rgb(0, 0, 0);"></path>


<path id="Taperoá" fill="#ccccb8" stroke="#000" stroke-width=".25" d="m690.03 249.35.1 1.02-.3.34-.01.46-.6.67-.4-.14-.31.76-.34.02-.22-.1-.34.54-1.03-.16-1.88-.63-.92-.66-.36-1.06.26.03.47-.18 1.05-.14.07-.4.88.18 1.1-.36.27.07.43-.62.3.22.64.12.2.19.41-.24z" data-originalStrokeWidth="0.25" style="shape-rendering: auto; stroke: rgb(0, 0, 0);"></path>


<path id="Tavares" fill="#ccccb8" stroke="#000" stroke-width=".25" d="m670.72 258.13.16.5-.4.05-.33-.56-.43.32-.83.14-.42.56-.4.26-.57-.45-.4-.63v-.78l.49-.39-.95-.54.06-.24.43-.5.63-.4.38 1.08.03.46.6.02 1.13.92z" data-originalStrokeWidth="0.25" style="shape-rendering: auto; stroke: rgb(0, 0, 0);"></path>


<path id="Teixeira" fill="#ccccb8" stroke="#000" stroke-width=".25" d="m679.65 250.59.3-.01.98.53.57.3-.07.3-.53.83-.66-.32-.35-.31h-.47l-.49.26h-.45l.03-.57-.39-.5.01-.2.44-.35z" data-originalStrokeWidth="0.25" style="shape-rendering: auto; stroke: rgb(0, 0, 0);"></path>


<path id="Tenório" fill="#ccccb8" stroke="#000" stroke-width=".25" d="m689.76 247.34-.45-.14.58-.6.24-.8.91.03.63-.98.21.34-.26.4-.46.38.04.67-.43.33-.28.45z" data-originalStrokeWidth="0.25" style="shape-rendering: auto; stroke: rgb(0, 0, 0);"></path>


<path id="Triunfo" fill="#ccccb8" stroke="#000" stroke-width=".25" d="m657.43 238.53-.47.15-.15.42.05.83.2.7.52.48-.47.16.05.55-.44-.1-.6.11-.28-.54-.96-.8.35-.41-.25-.4.64-.93.7-.34.6.03.21-.34z" data-originalStrokeWidth="0.25" style="shape-rendering: auto; stroke: rgb(0, 0, 0);"></path>


<path id="Uiraúna" fill="#ccccb8" stroke="#000" stroke-width=".25" d="m660.27 237.46.27.07.26.48.45.32-.42.36.25.64-.44.35-.34.07-.52-.27-.46.5-.6-.18-.1-.25-.33-.1-.67.01-.14-.74.62.03.28-.55.03-.96-.24-.53.26-.2.37.2.45-.09.3.22.22.6z" data-originalStrokeWidth="0.25" style="shape-rendering: auto; stroke: rgb(0, 0, 0);"></path>


<path id="Umbuzeiro" fill="#ccccb8" stroke="#000" stroke-width=".25" d="m708.43 258.77-.2.33-.86.4-.28-.17-.73.27-.94.55-.63.16-.2-.5.15-.4-.08-.66h.34l.9-.4.1.21.81-.15.57-.06.4-.39.36.27z" data-originalStrokeWidth="0.25" style="shape-rendering: auto; stroke: rgb(0, 0, 0);"></path>


<path id="Várzea" fill="#ccccb8" stroke="#000" stroke-width=".25" d="m684.75 243.24.04.58-.94.97-.84-.5-.46-.5-.88-.38-.33.09.43-.58.93-.2.71-.35.56-.43.45.2.08.65z" data-originalStrokeWidth="0.25" style="shape-rendering: auto; stroke: rgb(0, 0, 0);"></path>


<path id="Vieirópolis" fill="#ccccb8" stroke="#000" stroke-width=".25" d="m662.3 237.94.57 1.19-.36.43-.69.58-.34.52-.22.06-.48-.48-.59.02.11-.5.34-.07.44-.35-.25-.64.42-.37.57-.4z" data-originalStrokeWidth="0.25" style="shape-rendering: auto; stroke: rgb(0, 0, 0);"></path>


<path id="Zabelê" fill="#ccccb8" stroke="#000" stroke-width=".25" d="m683.37 265.52.17 1-.84.03-.55.44-.67-.04.01-.66-.26-.65.15-.48.96.5.5-.34z" data-originalStrokeWidth="0.25" style="shape-rendering: auto; stroke: rgb(0, 0, 0);"></path>
</svg>