<?xml version="1.0" standalone="no"?>
<svg xmlns="http://www.w3.org/2000/svg" id="map" version="1.2" width="800" height="800" viewBox="650 285 50 50">

<path id="Amparo_do_São_Francisco" fill="#ccccb8" stroke="#000" stroke-width=".25" d="m685.49 302.3.1.25.51.15-1.07 1.41.15-1.88z" data-originalStrokeWidth="0.25" style="shape-rendering: auto; stroke: rgb(0, 0, 0);"></path>


<path id="Aquidabã" fill="#ccccb8" stroke="#000" stroke-width=".25" d="m685.03 304.12.25-.08-.4.77.33.17-.4.25-.94.22-.15.52-.8-.05-.68.69-.41.12-.5-.14-.2-.48.24-.33v-.57l.22-.18-.04-.57-.18-.2.24-.73-.31-.17.08-.37v0l2.36.49.39-.24.4.48.19.55z" data-originalStrokeWidth="0.25" style="shape-rendering: auto; stroke: rgb(0, 0, 0);"></path>


<path id="Aracaju" fill="#ccccb8" stroke="#000" stroke-width=".25" d="m683.33 315.73-.07.46.17.83-.02.4-.4.46-1.2 1.71-.5 1.04-.18-.2-.03-.8-.13-.44.22-.39.39.08.84-2.15-.2-.43-.09-.2.43-.74.3.23.57-.11z" data-originalStrokeWidth="0.25" style="shape-rendering: auto; stroke: rgb(0, 0, 0);"></path>


<path id="Arauá" fill="#ccccb8" stroke="#000" stroke-width=".25" d="m674.78 323.06-.46.08-.96.7-1.06-.93.02-.67-.13-.24.15-.36 1.14-.09v-.18l.9-.67.2.42-.04.6.2.54.3.38z" data-originalStrokeWidth="0.25" style="shape-rendering: auto; stroke: rgb(0, 0, 0);"></path>


<path id="Areia_Branca" fill="#ccccb8" stroke="#000" stroke-width=".25" d="m679.72 313.86-1.3.94v0l-.01.04-.37.24-.86.07-.27-.45.02-.01.7-1.53.46-.3.49.23.48-.26.16.58z" data-originalStrokeWidth="0.25" style="shape-rendering: auto; stroke: rgb(0, 0, 0);"></path>


<path id="Barra_dos_Coqueiros" fill="#ccccb8" stroke="#000" stroke-width=".25" d="m686.63 313.25-1.77 1.9-1.44 1.87-.17-.83.07-.46 1.27-.9.16-.46 1.06-.61.47-.55z" data-originalStrokeWidth="0.25" style="shape-rendering: auto; stroke: rgb(0, 0, 0);"></path>


<path id="Boquim" fill="#ccccb8" stroke="#000" stroke-width=".25" d="m674.38 320.7-.9.67-.74-.09-.94-.47-.23.36-.04-.31 1.07-.85-.05-.31.49-.73 1-.49-.05-.26.66-.52.04 1.02-.43 1.53z" data-originalStrokeWidth="0.25" style="shape-rendering: auto; stroke: rgb(0, 0, 0);"></path>


<path id="Brejo_Grande" fill="#ccccb8" stroke="#000" stroke-width=".25" d="m693.12 309.57-.23-.4-1.52-.24 1-.59.69-.74.05-.03.42-.26.57.38.62 1.2-.23.28-.5.06z" data-originalStrokeWidth="0.25" style="shape-rendering: auto; stroke: rgb(0, 0, 0);"></path>


<path id="Campo_do_Brito" fill="#ccccb8" stroke="#000" stroke-width=".25" d="m675.18 312.26.77.6.15.45v.74l.3.74.52-.1h-.02l-.93 1-.4-.74-.32-.14-.49-.24.08-.46-.67-.2-.03-.43-.5-.62-.12-.47.16-.26.6.3z" data-originalStrokeWidth="0.25" style="shape-rendering: auto; stroke: rgb(0, 0, 0);"></path>


<path id="Canhoba" fill="#ccccb8" stroke="#000" stroke-width=".25" d="m685.49 302.3-.3-.07-.15 1.88-.32.15-.18-.55-.41-.48-.4.24-2.35-.49 1.48-.48.62-.22.72-.68.75-.28.02.1z" data-originalStrokeWidth="0.25" style="shape-rendering: auto; stroke: rgb(0, 0, 0);"></path>


<path id="Canindé_de_São_Francisco" fill="#ccccb8" stroke="#000" stroke-width=".25" d="m668.23 291.95.92.71.42.24.44.5.11.3.7-.24.66.1.56.32.22.31-2.92.66-.39 1.31-.43 2.32-.43.18-.75.42-.54-.1-.5-.57.2-.19-.26-.45.2-.4-.1-.53-.3-.23-.26-.57-.21-1.28.44-1.07-.55-.28-.18-.6.42-.11.29-.34-.03-.38.34-.45.25.22 1.28.38z" data-originalStrokeWidth="0.25" style="shape-rendering: auto; stroke: rgb(0, 0, 0);"></path>


<path id="Capela" fill="#ccccb8" stroke="#000" stroke-width=".25" d="m683.72 305.96.3-.07.1.54.28.35-.05.47.37.67.47.13-.38 1.3-.34.32-.63 1.76-.44-.28-.63-.17.1-.4-.14-.62.15-.48h-.66l.01-.34-.23-.52-.42-.21.05-.32.4-.33-.08-.42-.13-.61.41-.12.7-.7z" data-originalStrokeWidth="0.25" style="shape-rendering: auto; stroke: rgb(0, 0, 0);"></path>


<path id="Carira" fill="#ccccb8" stroke="#000" stroke-width=".25" d="m673.49 304.52-.26.48.59.91.04.73-.86.75-1 1.2-.74.53-.13.1-.76-.17-.74.2-.11-.6-.47-.71-.1-.65.24-.45.71-.31.22-.28.77-.17-.03-.43-.42-.44h.33l.06-.9-.33-.74.79-.15 1.19.54.44.4z" data-originalStrokeWidth="0.25" style="shape-rendering: auto; stroke: rgb(0, 0, 0);"></path>


<path id="Carmópolis" fill="#ccccb8" stroke="#000" stroke-width=".25" d="m685.38 312.06.42.28-.3-.13h-1.02l-.65-.16v-.62l.75-.18.1.27.55.14z" data-originalStrokeWidth="0.25" style="shape-rendering: auto; stroke: rgb(0, 0, 0);"></path>


<path id="Cedro_de_São_João" fill="#ccccb8" stroke="#000" stroke-width=".25" d="m685.75 305.82-.59-.3.04-.54-.33-.18.41-.77 1.1.1.33.21.07.38-.74.7z" data-originalStrokeWidth="0.25" style="shape-rendering: auto; stroke: rgb(0, 0, 0);"></path>


<path id="Cristinápolis" fill="#ccccb8" stroke="#000" stroke-width=".25" d="m672.5 326.3.36.63-.53.32-.35.46-.83-.18-.53-.47-.72-.07-.16-.45-.43-.24.3-.26.27-.7.22-.28.47-.11.55-.07.43.2.53.58v.45z" data-originalStrokeWidth="0.25" style="shape-rendering: auto; stroke: rgb(0, 0, 0);"></path>


<path id="Cumbe" fill="#ccccb8" stroke="#000" stroke-width=".25" d="m681.13 306.1.2.48.5.15.13.6-.52.16-.63-.04-.45-.24-.56-.75-.17-.73.17-.37-.31-.5-.52-.24.45-.3.68 1.05.38-.03.47.24z" data-originalStrokeWidth="0.25" style="shape-rendering: auto; stroke: rgb(0, 0, 0);"></path>


<path id="Divina_Pastora" fill="#ccccb8" stroke="#000" stroke-width=".25" d="m680.37 310.83.52.32.49-.08.29.53.73-.17.04.24-.56.84-.37-.04-.15.68-.18.23v-.3l-.78-.54.12-.48.22-.75-.31-.18z" data-originalStrokeWidth="0.25" style="shape-rendering: auto; stroke: rgb(0, 0, 0);"></path>


<path id="Estância" fill="#ccccb8" stroke="#000" stroke-width=".25" d="m679.43 322.9-.7 1.3-.22 1.05-.5.34-.48.3-.73-.62.08-.64.26-.27.17-.81-.46-.43-.97.16-1.1-.21.26-.42-.3-.38-.2-.55.03-.6-.2-.41 1.54-.34.4-.35-.03-.7.88-.6.66.66.35.83-.32 1.05.31.26.07.47z" data-originalStrokeWidth="0.25" style="shape-rendering: auto; stroke: rgb(0, 0, 0);"></path>


<path id="Feira_Nova" fill="#ccccb8" stroke="#000" stroke-width=".25" d="m679.8 305.37-.61.15-.5.49-.69.88-.38-1-.36-.22-.25-1.04.24-.68.9-.13 1.26.5-.45.3.52.23z" data-originalStrokeWidth="0.25" style="shape-rendering: auto; stroke: rgb(0, 0, 0);"></path>


<path id="Frei_Paulo" fill="#ccccb8" stroke="#000" stroke-width=".25" d="m674.65 311.51-.5-.47-1.44-.26-.85-1.28-.6-.39.73-.52 1-1.2.86-.74.31 1.3.2.32.63.78.16.38.5.69-.63 1.05z" data-originalStrokeWidth="0.25" style="shape-rendering: auto; stroke: rgb(0, 0, 0);"></path>


<path id="Gararu" fill="#ccccb8" stroke="#000" stroke-width=".25" d="m681.66 298.57.85.67.37.51.56.12.66-.27.61.43.14.48-.94.26-.4.34-.58.08-.72-.2-1.2-.02-.29-.19-.2.75-.32.4-.07.57-.9.5-.75-.19-.57.05.25-.49-1.39-1.13-.17-.05.67-.43.21-.54.37.1.62-.2.51.14.24-.7.67-.2.14-1.08 1.13-.05z" data-originalStrokeWidth="0.25" style="shape-rendering: auto; stroke: rgb(0, 0, 0);"></path>


<path id="General_Maynard" fill="#ccccb8" stroke="#000" stroke-width=".25" d="m685.5 312.21-.59.48-.2-.15-.78-.14-.1-.35.65.16z" data-originalStrokeWidth="0.25" style="shape-rendering: auto; stroke: rgb(0, 0, 0);"></path>


<path id="Gracho_Cardoso" fill="#ccccb8" stroke="#000" stroke-width=".25" d="m681.38 302.99-.08.37.3.17-.24.74.18.19.04.57-.22.18.01.57-.24.33-.19-.52-.47-.24-.38.03-.68-1.06-1.26-.5.33-1 .75.19.9-.51.7.68z" data-originalStrokeWidth="0.25" style="shape-rendering: auto; stroke: rgb(0, 0, 0);"></path>


<path id="Ilha_das_Flores" fill="#ccccb8" stroke="#000" stroke-width=".25" d="m693.05 307.6-.69.74-1 .6-.26-.05v-.34l.31-.71.36-.4.48.27z" data-originalStrokeWidth="0.25" style="shape-rendering: auto; stroke: rgb(0, 0, 0);"></path>


<path id="Indiaroba" fill="#ccccb8" stroke="#000" stroke-width=".25" d="m676.8 325.26.73.62-1.15.93-.45.22-.82.03-.28.43-1.46-.17-.52-.38-.36-.63.9-1.66.66.4.7.18.31-.14.21.5.31.14.56-.15.21-.3z" data-originalStrokeWidth="0.25" style="shape-rendering: auto; stroke: rgb(0, 0, 0);"></path>


<path id="Itabaiana" fill="#ccccb8" stroke="#000" stroke-width=".25" d="m677.05 310.4.11.82h.34l.26.48.45-.05.15.68-.28.52-.45.3-.7 1.53-.52.11-.31-.74v-.74l-.15-.46-.77-.59-.52-.75.37-.35.62-1.05.26.5.66-.33z" data-originalStrokeWidth="0.25" style="shape-rendering: auto; stroke: rgb(0, 0, 0);"></path>


<path id="Itabaianinha" fill="#ccccb8" stroke="#000" stroke-width=".25" d="m671.53 320.86.04.3.62.84.13.24-.02.66-.5.33v1.02l-.67.63-.55.07-.52-.8-.02-.24-1.9-1.27-.27.25-.38-.35.55-.85.69-.22-.18-.4.52-.46.94-.49.98.3z" data-originalStrokeWidth="0.25" style="shape-rendering: auto; stroke: rgb(0, 0, 0);"></path>


<path id="Itabi" fill="#ccccb8" stroke="#000" stroke-width=".25" d="m682.93 301.19-.1.54.02.78-1.48.48v0l-.55.19-.69-.68.07-.57.32-.4.2-.74.3.19 1.2.02z" data-originalStrokeWidth="0.25" style="shape-rendering: auto; stroke: rgb(0, 0, 0);"></path>


<path id="Itaporanga_d_Ajuda" fill="#ccccb8" stroke="#000" stroke-width=".25" d="m678.4 314.85-.2 1.7.03.79.43.19.03.4.46.39.82.16.21.68.91.48.03.8.18.2-.2.37-.73.7-.94 1.19-1.2-.91-.07-.47-.3-.26.31-1.05-.35-.83-.66-.66-.28-.33-.38-.8-.53-.21-.84-1.35.23.04.61-.38.93-1 .27.45.86-.07z" data-originalStrokeWidth="0.25" style="shape-rendering: auto; stroke: rgb(0, 0, 0);"></path>


<path id="Japaratuba" fill="#ccccb8" stroke="#000" stroke-width=".25" d="m687.9 310.26-2 1.52-.52.28-.16-.4-.55-.14-.08-.27-.75.18.63-1.76.34-.32.38-1.3.05-.41.46-.17.05-.26.3-.12.3.4-.1.33.1.8.55.45.1.42.4.3.01.46z" data-originalStrokeWidth="0.25" style="shape-rendering: auto; stroke: rgb(0, 0, 0);"></path>


<path id="Japoatã" fill="#ccccb8" stroke="#000" stroke-width=".25" d="m689.25 307.18.02.45-.3 1.09v.7l-.4.12-.17.3.1.45-.18.24-.42-.27h-.48l-.02-.46-.4-.3-.1-.42-.55-.46-.1-.8.1-.34-.3-.39-.3.13.2-.3.55-.05.26-.23.02-.5.57-.27-.1-.5.4-.27.14.32.92.5.04.6z" data-originalStrokeWidth="0.25" style="shape-rendering: auto; stroke: rgb(0, 0, 0);"></path>


<path id="Lagarto" fill="#ccccb8" stroke="#000" stroke-width=".25" d="m673.12 312.7-.2.53.47.74-.15.48.6.47.56-.06.46.17.4-.21.3.14.41.73-.6.38-.24-.04.84 1.35-1.13-.3-.2.63-.66.52.06.25-1 .48-.96-.82-.29.1-.3-.4-.6-.25.03.38-.62-.1-.24.12-.57-.15-.3-.6.08-.32-.22-.32-.49-.26.16-.41-.17-.56.26.1.57-.18.42-.35 1.28-.74.41-.76.03-.3.53-.4.26.03.21-.19z" data-originalStrokeWidth="0.25" style="shape-rendering: auto; stroke: rgb(0, 0, 0);"></path>


<path id="Laranjeiras" fill="#ccccb8" stroke="#000" stroke-width=".25" d="M682.48 313.94v.27l.4.43-.65-.09-.29.25h-.67l-.43.41-1.11-.37-1.31-.04 1.3-.94.5-.23.97-.24.69.6z" data-originalStrokeWidth="0.25" style="shape-rendering: auto; stroke: rgb(0, 0, 0);"></path>


<path id="Macambira" fill="#ccccb8" stroke="#000" stroke-width=".25" d="m674.65 311.51.53.75-.9.16-.6-.29-.16.26-.4.3-.6-.1-.2.19-.1-.73.5-1.27 1.43.26z" data-originalStrokeWidth="0.25" style="shape-rendering: auto; stroke: rgb(0, 0, 0);"></path>


<path id="Malhada_dos_Bois" fill="#ccccb8" stroke="#000" stroke-width=".25" d="m685.52 307.06-.95-1-.7-.62.93-.22.4-.25-.04.54.6.31.03.46z" data-originalStrokeWidth="0.25" style="shape-rendering: auto; stroke: rgb(0, 0, 0);"></path>


<path id="Malhador" fill="#ccccb8" stroke="#000" stroke-width=".25" d="m679.96 312.01.03.5h-.53l-.4.32-.48.26-.5-.23.28-.53-.15-.68.05-.54.53-.39.66.85z" data-originalStrokeWidth="0.25" style="shape-rendering: auto; stroke: rgb(0, 0, 0);"></path>


<path id="Maruim" fill="#ccccb8" stroke="#000" stroke-width=".25" d="M682.83 313.31v.36l-.36.27-.6.05-.69-.6.18-.23.15-.69.37.04.55-.84.03.48.53.17z" data-originalStrokeWidth="0.25" style="shape-rendering: auto; stroke: rgb(0, 0, 0);"></path>


<path id="Moita_Bonita" fill="#ccccb8" stroke="#000" stroke-width=".25" d="m678.37 309.64.32.61.7.08.26.27-.53-.14-.32.26-.53.4-.05.53-.45.05-.26-.48h-.34l-.11-.83.84-.74z" data-originalStrokeWidth="0.25" style="shape-rendering: auto; stroke: rgb(0, 0, 0);"></path>


<path id="Monte_Alegre_de_Sergipe" fill="#ccccb8" stroke="#000" stroke-width=".25" d="m676.6 301.2-.79.52-.54.1-.65.3-.34-.03-.58-.32-.5.02-.58.27-.3.32h-.62l-1.55-.6.2.88-.5-.57.35-1.23-.14-.19 1.06-.15.5-.18.32.25.32-.22.9.2.92-.5 1.65.42z" data-originalStrokeWidth="0.25" style="shape-rendering: auto; stroke: rgb(0, 0, 0);"></path>


<path id="Muribeca" fill="#ccccb8" stroke="#000" stroke-width=".25" d="m683.87 305.44.7.62.95 1 .23.16-.05.25-.46.17-.05.4-.47-.12-.37-.67.05-.46-.28-.35-.1-.54-.3.07z" data-originalStrokeWidth="0.25" style="shape-rendering: auto; stroke: rgb(0, 0, 0);"></path>


<path id="Neópolis" fill="#ccccb8" stroke="#000" stroke-width=".25" d="M689.3 304.88h.32l.53.9 1.17-.35.28.25.26 1.08-.09.68-.36.4-.3.7v.34l-.15-1.35-.7-.37-1.02.01-.5-.65-.04-.6-.92-.5-.14-.33.16-.36.48-.14.48.44z" data-originalStrokeWidth="0.25" style="shape-rendering: auto; stroke: rgb(0, 0, 0);"></path>


<path id="Nossa_Senhora_Aparecida" fill="#ccccb8" stroke="#000" stroke-width=".25" d="m676.9 305.25-.14.66.01 1.55-.18-.26-.95 1.03-1.29.04-.19-.32-.3-1.3-.04-.73-.6-.91.26-.48.26-.15.33.32.41-.02.06.35.51.2.33-.13.53.08.5.31z" data-originalStrokeWidth="0.25" style="shape-rendering: auto; stroke: rgb(0, 0, 0);"></path>


<path id="Nossa_Senhora_da_Glória" fill="#ccccb8" stroke="#000" stroke-width=".25" d="m678.49 302.81-.33 1.01-.9.13-.24.68-.11.62-.5.24-.5-.3-.53-.08-.33.13-.5-.21-.06-.35-.41.02-.33-.32-.26.15-.57-.16-.44-.42-1.2-.54-.79.15-.3-.3.15-.6-.19-.89 1.55.6h.62l.3-.32.57-.27.5-.02.58.32.34.03.65-.3.55-.1.8-.52.16.05 1.4 1.13-.26.5z" data-originalStrokeWidth="0.25" style="shape-rendering: auto; stroke: rgb(0, 0, 0);"></path>


<path id="Nossa_Senhora_das_Dores" fill="#ccccb8" stroke="#000" stroke-width=".25" d="m679.8 305.37-.17.36.17.73.56.75.44.24.63.04.52-.15.08.42-.4.33-.05.32-.02.66-.72.98.18.14-.65.65.06.3-.78-.53-.25-.27-.71-.08-.33-.61-.69-1 .18.14 1.32-.45-.52-.66-.76-.58.11-.21.7-.88.48-.5z" data-originalStrokeWidth="0.25" style="shape-rendering: auto; stroke: rgb(0, 0, 0);"></path>


<path id="Nossa_Senhora_de_Lourdes" fill="#ccccb8" stroke="#000" stroke-width=".25" d="m682.86 302.5-.02-.78.1-.54.57-.08.4-.34.95-.25-.05.54.14.28-.75.28-.72.68z" data-originalStrokeWidth="0.25" style="shape-rendering: auto; stroke: rgb(0, 0, 0);"></path>


<path id="Nossa_Senhora_do_Socorro" fill="#ccccb8" stroke="#000" stroke-width=".25" d="m682.88 314.64.34.05.31.38-.1.4-.57.11-.3-.23-.43.74.1.21-.77.21-.5-.52-.8-.39-.58-.39-.81-.13-.35-.28v0l1.3.04 1.11.38.44-.41h.68l.29-.25z" data-originalStrokeWidth="0.25" style="shape-rendering: auto; stroke: rgb(0, 0, 0);"></path>


<path id="Pacatuba" fill="#ccccb8" stroke="#000" stroke-width=".25" d="m691.1 308.88.26.05 1.52.23.23.41-2.23.93-1.07.75-1.5-.71.18-.24-.1-.45.17-.3.41-.13v-.7l.3-1.1-.03-.44 1.01-.01.71.37z" data-originalStrokeWidth="0.25" style="shape-rendering: auto; stroke: rgb(0, 0, 0);"></path>


<path id="Pedra_Mole" fill="#ccccb8" stroke="#000" stroke-width=".25" d="m672.32 312.77-.26-.03-.1-.49-.48-.28.21-.43-.15-.26-.2-.27.4-.62.12-.88.85 1.28-.5 1.26z" data-originalStrokeWidth="0.25" style="shape-rendering: auto; stroke: rgb(0, 0, 0);"></path>


<path id="Pedrinhas" fill="#ccccb8" stroke="#000" stroke-width=".25" d="M673.49 321.38v.18l-1.14.09-.15.36-.62-.84.23-.36.94.48z" data-originalStrokeWidth="0.25" style="shape-rendering: auto; stroke: rgb(0, 0, 0);"></path>


<path id="Pinhão" fill="#ccccb8" stroke="#000" stroke-width=".25" d="m671.25 309.12.61.39-.12.88-.4.62.2.28-.58-.02-.48-.45-.7-.1-.43-.29.03-.78.25-.4.74-.2.76.17z" data-originalStrokeWidth="0.25" style="shape-rendering: auto; stroke: rgb(0, 0, 0);"></path>


<path id="Pirambu" fill="#ccccb8" stroke="#000" stroke-width=".25" d="m688.32 310.54 1.5.7-1.1.5-.88.53-1.2.99-.35-.05.04-.6-.53-.27-.42-.28.52-.28 2-1.51z" data-originalStrokeWidth="0.25" style="shape-rendering: auto; stroke: rgb(0, 0, 0);"></path>


<path id="Poço_Redondo" fill="#ccccb8" stroke="#000" stroke-width=".25" d="m675.8 295.64-.76 1.24-1.74 2.66-.6.18-.43.36-.02.3-.32.22-.3-.25-.51.18-1.06.15-.4-.01-.35-.23-1.34-1.4.12-.37.44-.18.43-2.32.39-1.31 2.92-.66.1.2.1.16 1.44.92z" data-originalStrokeWidth="0.25" style="shape-rendering: auto; stroke: rgb(0, 0, 0);"></path>


<path id="Poço_Verde" fill="#ccccb8" stroke="#000" stroke-width=".25" d="m666.85 313.49.04 1.19-1.02-.17-1.04.12-.71.52.13.3-.37.57-.25-.01-.46.76-.53-.21-.31-.3-.15-.57.07-.73-.22-.31.12-.41.5-.75-.12-.54.2-.3.5-.09.57.23.82-.1.54.05.46-.26.29.44z" data-originalStrokeWidth="0.25" style="shape-rendering: auto; stroke: rgb(0, 0, 0);"></path>


<path id="Porto_da_Folha" fill="#ccccb8" stroke="#000" stroke-width=".25" d="m678.8 297.1.63.35.27.74.33.1-.14 1.08-.67.19-.24.7-.5-.14-.62.2-.37-.1-.21.54-.67.44-.88-.7-1.65-.42-.91.49-.91-.2.02-.28.42-.36.6-.18 1.74-2.66.76-1.24 1.03.28.25.26.83.21.37.46z" data-originalStrokeWidth="0.25" style="shape-rendering: auto; stroke: rgb(0, 0, 0);"></path>


<path id="Propriá" fill="#ccccb8" stroke="#000" stroke-width=".25" d="m686.77 303.44.33.4.44.03.18.24.76.02.5.65.33.1-.54.15-.48-.44-.48.14-.16.36-.4.27-.32-.12-.14-.52-.07-.38-.34-.2v-.4z" data-originalStrokeWidth="0.25" style="shape-rendering: auto; stroke: rgb(0, 0, 0);"></path>


<path id="Riachão_do_Dantas" fill="#ccccb8" stroke="#000" stroke-width=".25" d="m673.03 318.96-.48.73.05.31-1.07.85-.55-.44-.98-.29-.88-.42-.92-1.2-.9-.8.23-.42-.39-.64-.3-.97h.63l1.09-.3.17.55-.16.41.49.26.22.32-.1.32.32.61.57.15.24-.12.62.1-.04-.39.6.25.3.41.3-.1z" data-originalStrokeWidth="0.25" style="shape-rendering: auto; stroke: rgb(0, 0, 0);"></path>


<path id="Riachuelo" fill="#ccccb8" stroke="#000" stroke-width=".25" d="m681.18 313.38-.97.24-.5.23-.5-.45-.16-.57.4-.32h.53l-.03-.5.56.06-.12.48.8.54z" data-originalStrokeWidth="0.25" style="shape-rendering: auto; stroke: rgb(0, 0, 0);"></path>


<path id="Ribeirópolis" fill="#ccccb8" stroke="#000" stroke-width=".25" d="m678.37 309.64-.47.01-.84.74-.5-.1-.66.31-.26-.49-.49-.69-.16-.38-.64-.78 1.3-.04.95-1.03.18.27.68.54.21.64z" data-originalStrokeWidth="0.25" style="shape-rendering: auto; stroke: rgb(0, 0, 0);"></path>


<path id="Rosário_do_Catete" fill="#ccccb8" stroke="#000" stroke-width=".25" d="m683.84 312.05.1.36.78.14.2.15-.6.42-.58-.26-.92.46.17-1-.53-.16-.03-.49-.03-.24.37-.46.63.18.44.28z" data-originalStrokeWidth="0.25" style="shape-rendering: auto; stroke: rgb(0, 0, 0);"></path>


<path id="Salgado" fill="#ccccb8" stroke="#000" stroke-width=".25" d="m677.16 318.71-.88.6.02.7-.39.35-1.54.34-.12-.45.43-1.53-.04-1.02.2-.62 1.13.3.53.2.38.82z" data-originalStrokeWidth="0.25" style="shape-rendering: auto; stroke: rgb(0, 0, 0);"></path>


<path id="Santa_Luzia_do_Itanhy" fill="#ccccb8" stroke="#000" stroke-width=".25" d="m672.3 322.9 1.06.93.96-.69.46-.08 1.1.21.97-.16.46.43-.16.81-.26.27-.08.64-.45.01-.21.3-.56.15-.31-.14-.21-.49-.32.14-.7-.18-.67-.4-.95-.86-.15-.14-.19-.17-.14-.12-.16-.14z" data-originalStrokeWidth="0.25" style="shape-rendering: auto; stroke: rgb(0, 0, 0);"></path>


<path id="Santana_do_São_Francisco" fill="#ccccb8" stroke="#000" stroke-width=".25" d="m691.33 305.43-1.17.35-.53-.9.46-.04.46-.28.18.07z" data-originalStrokeWidth="0.25" style="shape-rendering: auto; stroke: rgb(0, 0, 0);"></path>


<path id="Santa_Rosa_de_Lima" fill="#ccccb8" stroke="#000" stroke-width=".25" d="m679.64 310.6.78.53.31.18-.22.75-.56-.05-.5-.44-.66-.85.32-.26z" data-originalStrokeWidth="0.25" style="shape-rendering: auto; stroke: rgb(0, 0, 0);"></path>


<path id="Santo_Amaro_das_Brotas" fill="#ccccb8" stroke="#000" stroke-width=".25" d="m685.8 312.35.52.26-.04.6-.47.55-1.06.6-.16.47-1.27.9.11-.25.1-.4-.3-.38-.34-.05-.4-.43-.01-.27.36-.27-.01-.36.92-.46.58.26.59-.42.59-.48z" data-originalStrokeWidth="0.25" style="shape-rendering: auto; stroke: rgb(0, 0, 0);"></path>


<path id="São_Cristóvão" fill="#ccccb8" stroke="#000" stroke-width=".25" d="m682.23 316.3.19.43-.84 2.15-.4-.08-.21.4.13.44-.91-.48-.21-.69-.82-.16-.46-.39-.04-.4-.43-.19-.04-.79.21-1.7.02-.04.35.28.8.13.58.4.8.38.5.52z" data-originalStrokeWidth="0.25" style="shape-rendering: auto; stroke: rgb(0, 0, 0);"></path>


<path id="São_Domingos" fill="#ccccb8" stroke="#000" stroke-width=".25" d="m673.51 312.4.12.47.5.62.04.43.67.2-.08.46.5.24-.4.22-.46-.17-.56.06-.6-.47.15-.48-.47-.76.2-.53z" data-originalStrokeWidth="0.25" style="shape-rendering: auto; stroke: rgb(0, 0, 0);"></path>


<path id="São_Francisco" fill="#ccccb8" stroke="#000" stroke-width=".25" d="m687.25 305.37.1.5-.57.27-.02.5-.26.23-.55.05-.2.3-.22-.16.26-.77-.03-.46.29-.41.74-.7.14.52z" data-originalStrokeWidth="0.25" style="shape-rendering: auto; stroke: rgb(0, 0, 0);"></path>


<path id="São_Miguel_do_Aleixo" fill="#ccccb8" stroke="#000" stroke-width=".25" d="m678 306.88-.1.21.76.58.52.66-1.32.45-.19-.14-.22-.64-.68-.54v-1.55l.14-.66.1-.62.25 1.04.36.22z" data-originalStrokeWidth="0.25" style="shape-rendering: auto; stroke: rgb(0, 0, 0);"></path>


<path id="Simão_Dias" fill="#ccccb8" stroke="#000" stroke-width=".25" d="m671.54 311.29.15.26-.2.43.47.28.1.49-.53.4-.03.29-.41.76-1.28.74-.42.35-.57.18-.26-.1-1.1.3h-.63l.05-1-.04-1.19h.47l.65-.73 1.1-.3.59-.52.18-.32-.13-.46.08-.43.7.1.48.46z" data-originalStrokeWidth="0.25" style="shape-rendering: auto; stroke: rgb(0, 0, 0);"></path>


<path id="Siriri" fill="#ccccb8" stroke="#000" stroke-width=".25" d="m682.76 310.98-.37.46-.73.17-.29-.53-.49.08-.52-.32.65-.65-.18-.14.73-.98.03-.66.42.2.23.52-.01.34h.66l-.15.48.14.62z" data-originalStrokeWidth="0.25" style="shape-rendering: auto; stroke: rgb(0, 0, 0);"></path>


<path id="Telha" fill="#ccccb8" stroke="#000" stroke-width=".25" d="m686.67 303.25.1.18-.39.3v.4l-1.1-.1-.25.08 1.07-1.4.2-.03z" data-originalStrokeWidth="0.25" style="shape-rendering: auto; stroke: rgb(0, 0, 0);"></path>


<path id="Tobias_Barreto" fill="#ccccb8" stroke="#000" stroke-width=".25" d="m666.88 314.68-.05.99.31.97.4.64-.23.42.9.8.91 1.2.88.43-.94.49-.52.46.18.4-.69.22-.55.85-.25.65-.57.73-.2-.08.04-.54-.25-.47.32-.26-.1-.56.28-.32-.07-.4-.73-.37-.43.06-.43-.7.11-.32-.42-.15.24-.68-.47-.57v-.5l-1.18-.47-.3-.5.1-.33.45-.76h.25l.37-.56-.13-.3.71-.52 1.04-.12z" data-originalStrokeWidth="0.25" style="shape-rendering: auto; stroke: rgb(0, 0, 0);"></path>


<path id="Tomar_do_Geru" fill="#ccccb8" stroke="#000" stroke-width=".25" d="m667.49 322.55.38.35.27-.25 1.9 1.27.02.24.52.79-.48.1-.22.29-.27.7-.3.26-.36-.27-.3-.56-.49.05-.34-.62-.34.33-.57-.56-.25-.74.57-.73z" data-originalStrokeWidth="0.25" style="shape-rendering: auto; stroke: rgb(0, 0, 0);"></path>


<path id="Umbaúba" fill="#ccccb8" stroke="#000" stroke-width=".25" d="m672.1 323.49.19.17.15.14.95.85-.9 1.66-.41-.2v-.44l-.52-.58-.43-.21.67-.63v-1.02l.16.14z" data-originalStrokeWidth="0.25" style="shape-rendering: auto; stroke: rgb(0, 0, 0);"></path>

</svg>