<?xml version="1.0" standalone="no"?>
<svg xmlns="http://www.w3.org/2000/svg" id="map" version="1.2" width="800" height="800" viewBox="540 475 75 75"> 

<path id="Angra_dos_Reis" fill="#ccccb8" stroke="#000" stroke-width=".25" d="m556.2 531.24.43.4.1.39.95.09.18.62.3-.12.46.38-.42.2-.23-.3-.5.05-.84.37-.7.15-.44-.38h-.7l-.4.77-.3-.17.2-.42-.67-.31.93-.32.33-.58.43.24.16-.31.4-.14zm-1.53-4.07 1 .05.42.42-.07.72.47.34.4-.05.52 1.4-.04.45-.36.28-.28-.2-.64.32-.17-.14.3-.6-.36-.3-.93.1-.75.43-.3-.2.3-.44.6-.22-.15-.76-.31-.22-.5.65-1-.17-.2.22-.1.7-.78.1-.33.34h-.33l-.45-.2.04-.61-.35-.46-1.02-.3-.3-.42.17-.17.39-.34.92.04 1.06-.73.5.68.59-.3.19-.32.74.14.84-.27z" data-originalStrokeWidth="0.25" style="shape-rendering: auto; stroke: rgb(0, 0, 0);"></path>


<path id="Aperibé" fill="#ccccb8" stroke="#000" stroke-width=".25" d="m593.52 505.19.51.49.6.14-.32.38-1.1.82-.23-.23-.6-.2-.33-.67z" data-originalStrokeWidth="0.25" style="shape-rendering: auto; stroke: rgb(0, 0, 0);"></path>


<path id="Araruama" fill="#ccccb8" stroke="#000" stroke-width=".25" d="m592.42 522 .9 1.78-.63.47-.9 1.6-.63.39.3 1.26-.82.65.03.69-1.78-.06-.09-.72.3-1.06-1.36-.22.1-1.63.37.1 1.56-.56.31-1 .7-.75.5.13.84-.65.22-.36z" data-originalStrokeWidth="0.25" style="shape-rendering: auto; stroke: rgb(0, 0, 0);"></path>


<path id="Areal" fill="#ccccb8" stroke="#000" stroke-width=".25" d="m577.13 515.91-.82.6.07.34-.3.35-.36-.1-.33.5-.64-.05.08-.64.31-1.27.94.1.91-.58-.07.43z" data-originalStrokeWidth="0.25" style="shape-rendering: auto; stroke: rgb(0, 0, 0);"></path>


<path id="Armação_dos_Búzios" fill="#ccccb8" stroke="#000" stroke-width=".25" d="m596.18 526.77-.56-.48-.15-.3.64-.86.9.74.3-.25.7.08-.3.36-.43-.07-.45.56z" data-originalStrokeWidth="0.25" style="shape-rendering: auto; stroke: rgb(0, 0, 0);"></path>


<path id="Arraial_do_Cabo" fill="#ccccb8" stroke="#000" stroke-width=".25" d="m593.49 528.28.6.43.9.01-.01.6-.64-.2-2.23-.22-1.43-.07-.03-.69.8-.65.45.25.7-.07.35.35z" data-originalStrokeWidth="0.25" style="shape-rendering: auto; stroke: rgb(0, 0, 0);"></path>


<path id="Barra_do_Piraí" fill="#ccccb8" stroke="#000" stroke-width=".25" d="m564.74 519.36-.51.69.4.32-.2-.02-.07 1.04-.5.6-.38-.1.14-.58-.75.07-.26.2-.8-.14-1.56-.17-.5-.25-.72-.65 1.16-.94-1.39-.44.37-.86.65-.64.31.23.64.04.03.34.36.32.65.09.47-.43.6-.3-.08.85.23.4.55-.5.5.08z" data-originalStrokeWidth="0.25" style="shape-rendering: auto; stroke: rgb(0, 0, 0);"></path>


<path id="Barra_Mansa" fill="#ccccb8" stroke="#000" stroke-width=".25" d="M560.18 519.42h-1.47l-.94.5-.22.5-.02.94.35.37.81-.13.1.28-.22.9.2.78-1.09.2-.32.37-.33-.64-1.09-.54-.66-.05-1.04-.25.37-.7-.2-1 .55-.78.85.64.54-.13-.04-.41.3-1.2.92-.25-.18-.83.32.1 1.02-.1 1.13-.5-.65.64-.37.86z" data-originalStrokeWidth="0.25" style="shape-rendering: auto; stroke: rgb(0, 0, 0);"></path>


<path id="Belford_Roxo" fill="#ccccb8" stroke="#000" stroke-width=".25" d="m572.14 525.6-.99.19-.2.19-.25-.17-.4-.77.17-.36 1.03-.33.81.43z" data-originalStrokeWidth="0.25" style="shape-rendering: auto; stroke: rgb(0, 0, 0);"></path>


<path id="Bom_Jardim" fill="#ccccb8" stroke="#000" stroke-width=".25" d="m590.45 514.25.25.48-.31.17.3.66-.1.22.84.58-.86 1.03-1 .21-.26-.04-2.04-1.36.04-.23-.9-.91 1-.52-.08-.31 1.3.12.86-.21z" data-originalStrokeWidth="0.25" style="shape-rendering: auto; stroke: rgb(0, 0, 0);"></path>


<path id="Bom_Jesus_do_Itabapoana" fill="#ccccb8" stroke="#000" stroke-width=".25" d="m600.36 493.56.29.17.13.66-.22.33.1.67-.35.98.33.05 1.27.67.58.24.41-.13.2.35.37.07.66.25.6-.13.3.4-.01.5-.46.25-1.02.9-.56.38-.78-1.11-.22-.17-.77.07-.35-.51-.43-.92-.61.14v-.35l-.67-.21.05-.36-.71-.75-.2-.35.77-.94.1-.38.2-.37-.4-.4.52-.72.74-.53.27.35.07.48z" data-originalStrokeWidth="0.25" style="shape-rendering: auto; stroke: rgb(0, 0, 0);"></path>


<path id="Cabo_Frio" fill="#ccccb8" stroke="#000" stroke-width=".25" d="m595.8 522.8-.11.2v1.03l.17.77.25.32-.64.86.15.31.56.48-.29.5-.07.57-.54.1-.3.78h-.9l-.6-.43.6-.76h.83l.3-1.22-1.9-2.52-.89-1.78.85-.2.24.3 1.07.02.9.22z" data-originalStrokeWidth="0.25" style="shape-rendering: auto; stroke: rgb(0, 0, 0);"></path>


<path id="Cachoeiras_de_Macacu" fill="#ccccb8" stroke="#000" stroke-width=".25" d="m585.91 520.28-.23.21-.53 1.17-.18.12.7 1.41-.36.1-.75.56-.72-.37-.45.12-.28.48-.67.28-.75-.92-.98.03-1.1.34.13-.3-.14-.66.74-.52-.36-.4-.66-1.4.1-.32.58.04.6-.65.72-.2.3-.53.47.16.7-.51.77.66.5-.11.37.11.4-.2.49-.47.35.07.22.33-.08.8-.32.27z" data-originalStrokeWidth="0.25" style="shape-rendering: auto; stroke: rgb(0, 0, 0);"></path>


<path id="Cambuci" fill="#ccccb8" stroke="#000" stroke-width=".25" d="m598.9 500.35.66 1.1-.04.19 1.26.98-.58.15-1.47.3.16.16-.49.7-.92.78-.72.4-1.29.75-.3-.2-.54.15-.6-.14-.5-.49.26.01.92-.99-.04-.35 1-.66.43-.25.42-.75.82-.55.16-.34.71-.66z" data-originalStrokeWidth="0.25" style="shape-rendering: auto; stroke: rgb(0, 0, 0);"></path>


<path id="Carapebus" fill="#ccccb8" stroke="#000" stroke-width=".25" d="m603.74 516.38-2.05.86-.54.3-.34-.63.07-.22-1.18-1.27 1.36-1.28 2.12.53.35.36.25.7-.23.08z" data-originalStrokeWidth="0.25" style="shape-rendering: auto; stroke: rgb(0, 0, 0);"></path>


<path id="Comendador_Levy_Gasparian" fill="#ccccb8" stroke="#000" stroke-width=".25" d="m572.2 512.37.43.24.38-.18.82.06.12.25.45.16.57-.28.68.13v.1l-.26.19-1.22.45-.77.57-.26-.48-1.3-.35v-.93z" data-originalStrokeWidth="0.25" style="shape-rendering: auto; stroke: rgb(0, 0, 0);"></path>


<path id="Campos_dos_Goytacazes" fill="#ccccb8" stroke="#000" stroke-width=".25" d="m608.43 498.8-.6 1.23.25.1.85-.04-.28.36v.54l.37.05-.42.72.16.25.04.93.2.47-.18.98.6.38.7.25-.07.79-.2.8.34.13.34-.26.42.06-.2.3-.66.5.2.45-.1.49.5.78-.06 1.12.44.5 2.58-.02.12.53-.1.88-.41.54-1.3.65-1 .66-.32.07-1.36-.07-.5.06-.36-.6-2.83-1.39-1.33.5-.68.72-1.17-.17-.74.18-.75-.08-.86.62-.3-1 .89-.86-.07-.65.2-.89-.2-.13-.97.06-.36-.2-.94.15-.61-.26-.07-.18 1.6-1.17.13-.25.7.14.23-.41.57-.33.16-.6.73-.37.33-.43.79-.1.94-.74.37.25.49.7 1.1-1.04.44-.26.03-.33.72-.69-.4-.96-.52-.43-.03-.5-.63-.69-1.8.54-.6-1.97.56-.37 1.02-.9.46-.25v-.5l.6.22.35-.27.49-.02 1.28.25z" data-originalStrokeWidth="0.25" style="shape-rendering: auto; stroke: rgb(0, 0, 0);"></path>


<path id="Cantagalo" fill="#ccccb8" stroke="#000" stroke-width=".25" d="m591.46 506.88.53 1.53.7 1.32-.75.5-.6 1.51-.22.28-.7-.2-.4.35-.68.21-.49-.17-.54.68-1.66-2.3 1.37-.7-.38-.28.22-.43-.47-.46.13-.3 1.14-.4.3-.23.78-.06.48-.3.71-.25z" data-originalStrokeWidth="0.25" style="shape-rendering: auto; stroke: rgb(0, 0, 0);"></path>


<path id="Cardoso_Moreira" fill="#ccccb8" stroke="#000" stroke-width=".25" d="m603.8 505.55-.1-.1.05-.98-1.52.62-.53-2.06 1.13-.2.75-.7 1.8-.53.62.69.03.5.53.43.4.96-.73.69-.03.33-.44.26-1.1 1.03-.49-.7z" data-originalStrokeWidth="0.25" style="shape-rendering: auto; stroke: rgb(0, 0, 0);"></path>


<path id="Carmo" fill="#ccccb8" stroke="#000" stroke-width=".25" d="m586.64 510.6-.33-.02-.3.39-.21.65.16.6-2.54-.54.5-.95-.03-.75.9-.3.15-.17 2.51-1.06.06-.03-.13.3.47.46-.22.43.38.28z" data-originalStrokeWidth="0.25" style="shape-rendering: auto; stroke: rgb(0, 0, 0);"></path>


<path id="Casimiro_de_Abreu" fill="#ccccb8" stroke="#000" stroke-width=".25" d="m592.01 518.75-.25.65.33.44.66-.05.7-.4.47.08-.14.48.34.05.4-.3.8.13-.16.46.16.43.48.4.22 1.06-.22.63-.32-.45-.9-.22-1.07-.02-.24-.3-.85.19-.08.05-.45-.3-.67.13-.26-.41-.1-.66-.6-.5.47-.98-.29-.17.96-.54z" data-originalStrokeWidth="0.25" style="shape-rendering: auto; stroke: rgb(0, 0, 0);"></path>


<path id="Conceição_de_Macabu" fill="#ccccb8" stroke="#000" stroke-width=".25" d="m600.05 513.75.86-.62.75.08-1 .56.4.37-1.36 1.28-.96-.6.1.7-.37.22-.35 1.25-.33.1-.69-1.11.28-.38-.3-.48-.73-.2-.25-.32.3-.32-.08-.68.45-.37.48.2.38-.33.88.4.28.47h.67z" data-originalStrokeWidth="0.25" style="shape-rendering: auto; stroke: rgb(0, 0, 0);"></path>


<path id="Cordeiro" fill="#ccccb8" stroke="#000" stroke-width=".25" d="m590.88 513.8.08.58-.52-.13-.95-.12-.89-.85-.29-.39.55-.68.49.17.68-.2.1 1.07.23.44z" data-originalStrokeWidth="0.25" style="shape-rendering: auto; stroke: rgb(0, 0, 0);"></path>


<path id="Duas_Barras" fill="#ccccb8" stroke="#000" stroke-width=".25" d="m586.64 510.6 1.67 2.3.3.39.88.85-.86.2-1.3-.12.08.31-1 .52-.63.07-.37-.42h-.56l.12-1 .53-.34-.09-.3.26-.32-.15-.26.43-.25-.16-.61.21-.65.31-.4z" data-originalStrokeWidth="0.25" style="shape-rendering: auto; stroke: rgb(0, 0, 0);"></path>


<path id="Duque_de_Caxias" fill="#ccccb8" stroke="#000" stroke-width=".25" d="m573.99 522.2.55 1.04-.42.54.06 1.32-.77.5-.34.41.07.53-.55-.16-.48.03.03-.82.17-.82-.8-.43-.64-.59.35-.39-.52-.34-.1-.27.51-.36-.24-.74 1.24-.26.61-.76 1.03.64-.4.77.1.3z" data-originalStrokeWidth="0.25" style="shape-rendering: auto; stroke: rgb(0, 0, 0);"></path>


<path id="Engenheiro_Paulo_de_Frontin" fill="#ccccb8" stroke="#000" stroke-width=".25" d="m568.03 521.08-.63 1.2-.46-.51-.73.16-.18.33-.65-.31.2-.22.21-1.31.02-.08 1.87-.03.18.08z" data-originalStrokeWidth="0.25" style="shape-rendering: auto; stroke: rgb(0, 0, 0);"></path>


<path id="Guapimirim" fill="#ccccb8" stroke="#000" stroke-width=".25" d="m579.41 520.2-.09.32.66 1.4.36.42-.74.52.14.66-.13.3-.09.3-.59.65-.53.4-.55-.3-.35.2-.23-.6.52-1-.14-1.94-.32-.58-.47-.16.26-.42.33.01.51-.03.42.2.82-.4z" data-originalStrokeWidth="0.25" style="shape-rendering: auto; stroke: rgb(0, 0, 0);"></path>


<path id="Iguaba_Grande" fill="#ccccb8" stroke="#000" stroke-width=".25" d="m591.9 527.75-.45-.25-.3-1.26.8-.12.3.64.27.1z" data-originalStrokeWidth="0.25" style="shape-rendering: auto; stroke: rgb(0, 0, 0);"></path>


<path id="Itaboraí" fill="#ccccb8" stroke="#000" stroke-width=".25" d="m582.43 524.37.03.29-.39.63-.49-.02.21.67-.27.43.72-.06.43.79-.59.03-1.67.6-.43-.16-.36-.9-.23.06-.42-.44.04-.33-.84-.48-.16-.28-.52.16.01-.3.35-.2.55.3.53-.39.6-.66.09-.3 1.09-.34.98-.03z" data-originalStrokeWidth="0.25" style="shape-rendering: auto; stroke: rgb(0, 0, 0);"></path>


<path id="Itaguaí" fill="#ccccb8" stroke="#000" stroke-width=".25" d="m566.16 530.85-2.22.19V531l1.54-.15.7-.18zm-1.5-6.24.13.42-.34.1-.16.7-.27.05.1.53 1.95 1.1h-.43l-1.21.54-.53.4-.64.24-.86-.28-.08-.53-.95-.08 1.16-1.27.72-.27.22-.3-.32-.33.1-.5.84-.65z" data-originalStrokeWidth="0.25" style="shape-rendering: auto; stroke: rgb(0, 0, 0);"></path>


<path id="Italva" fill="#ccccb8" stroke="#000" stroke-width=".25" d="m602.98 500.17.6 1.97-.75.7-1.13.19.53 2.06-.92-1.41-1.11-.91.58-.15-1.26-.98.24-.04.79-.54.74-.34.58-.05.33.17.35-.42z" data-originalStrokeWidth="0.25" style="shape-rendering: auto; stroke: rgb(0, 0, 0);"></path>


<path id="Itaocara" fill="#ccccb8" stroke="#000" stroke-width=".25" d="m596.75 507.65-.2-.19-.64.05-.64.35-.4.5-.78.37-.6.6-.35.07-.08.37-.38-.03-.7-1.33-.53-1.53.93-.28.6.19.22.23 1.11-.82.32-.38.54-.15.3.2 1.3-.76z" data-originalStrokeWidth="0.25" style="shape-rendering: auto; stroke: rgb(0, 0, 0);"></path>


<path id="Itaperuna" fill="#ccccb8" stroke="#000" stroke-width=".25" d="m598.49 496 .7.75-.05.36.68.2v.35l.6-.14.44.93.35.5.77-.06.22.17.78 1.1-.43.26-.35.43-.33-.17-.58.05-.74.34-.8.53-.24.04.04-.2-.66-1.1-.4-.7-.35.28-1.04-.14-.22.28-.97.03-.27.28-.6.25-.68.22-.35-.2.29-.35v-.8l.73-.73-.01-.48-.2-.5-.6-.1-.7.32-.55-.6-.38.27-.4-.29.36-.5.2-.55.42.04.37-.5.42-.66.26-.13.47.15.26.5.35.3-.3.52 1.08.3.57.4.77-.3.52-.62z" data-originalStrokeWidth="0.25" style="shape-rendering: auto; stroke: rgb(0, 0, 0);"></path>


<path id="Itatiaia" fill="#ccccb8" stroke="#000" stroke-width=".25" d="m550.67 518.1-.1.45-.69.09-.4.33.25.3 1.95.67.12.39-.59.28-.39.38-.74.38-.15.77-.54-.07-.19-.4.11-.45-.63-.48.34-.86-.44-.93.61-.63.62-.39z" data-originalStrokeWidth="0.25" style="shape-rendering: auto; stroke: rgb(0, 0, 0);"></path>


<path id="Japeri" fill="#ccccb8" stroke="#000" stroke-width=".25" d="M568.14 524.25v.17l-.95.06-.52.48-.24-.7.2-.53-.53.04.18-.59.67.4.53-.4.44.07.45.78z" data-originalStrokeWidth="0.25" style="shape-rendering: auto; stroke: rgb(0, 0, 0);"></path>


<path id="Laje_do_Muriaé" fill="#ccccb8" stroke="#000" stroke-width=".25" d="m594 500.64-.48-.22-.4-.46-.3.2-.65-.04-.48.4-.24-.35.16-.63.69-.56-.23-.52.14-.33-.24-.42.23-.33.4.3.38-.28.54.6.7-.32.6.1.2.5v.48l-.72.73v.8z" data-originalStrokeWidth="0.25" style="shape-rendering: auto; stroke: rgb(0, 0, 0);"></path>


<path id="Macaé" fill="#ccccb8" stroke="#000" stroke-width=".25" d="m596.1 514.6.25.32.73.2.3.48-.28.38.7 1.1.33-.08.35-1.25.36-.22-.1-.71.96.6 1.18 1.27-.07.22.34.63-1.5 1.13-.01.48-.77.46-.18-.16-.9.18-.5-.32-1-.21-.56.2-.5-.21-.7.62-.41.29-.34-.05.15-.48-.47-.07-.7.4-.66.05-.33-.45.25-.65-.2-.49-.84-.46.22-.16.04-.2 1-.9.79-.58.99-.17-.06-.37.34-.29.9-.13.8-.53z" data-originalStrokeWidth="0.25" style="shape-rendering: auto; stroke: rgb(0, 0, 0);"></path>


<path id="Macuco" fill="#ccccb8" stroke="#000" stroke-width=".25" d="m591.76 512.4-.4.51-.3.11-.17.78-.52-.12-.23-.44-.11-1.07.4-.35.7.2.22-.28z" data-originalStrokeWidth="0.25" style="shape-rendering: auto; stroke: rgb(0, 0, 0);"></path>


<path id="Magé" fill="#ccccb8" stroke="#000" stroke-width=".25" d="m577.27 524.48-.74-.23-.6.3-.34.32-.47-.1-.95.32-.06-1.32.42-.54-.55-1.04.75-.19 1.84-.7.3-.5.46.16.32.57.14 1.94z" data-originalStrokeWidth="0.25" style="shape-rendering: auto; stroke: rgb(0, 0, 0);"></path>


<path id="Mangaratiba" fill="#ccccb8" stroke="#000" stroke-width=".25" d="M563.95 531v.04l-1.57.19-1.28.22-.6.27-.4-.42.67-.6 1.3.42.36-.1-.04-.36.93.28zm-2.58-3.2.95.08.08.53-.52.27-.7-.07-1 .27-.43.4-.3-.4-.48.18-.19.71-.5.54-.7.26-.22-.07.04-.45-.52-1.4.31-.02.18-.43.94-.69.41.34h.77l.47-.23.5-.48.45.75z" data-originalStrokeWidth="0.25" style="shape-rendering: auto; stroke: rgb(0, 0, 0);"></path>


<path id="Maricá" fill="#ccccb8" stroke="#000" stroke-width=".25" d="m583.98 527.41-.33.66.79.41-.14.32-.7.17-.05.21-.77-.05-2.72.2-.7.14-1.42-.1-.22.12.02-.45.37-.19.62-.7.53-.33.72-.26.43.16 1.67-.6.6-.03.3.23z" data-originalStrokeWidth="0.25" style="shape-rendering: auto; stroke: rgb(0, 0, 0);"></path>


<path id="Mendes" fill="#ccccb8" stroke="#000" stroke-width=".25" d="m565.8 520.41-.21 1.31-.2.22-1.08.9v.1l-.07-.69-.38-.27.5-.6.06-1.04.2.02.37.4.33-.49z" data-originalStrokeWidth="0.25" style="shape-rendering: auto; stroke: rgb(0, 0, 0);"></path>


<path id="Mesquita" fill="#ccccb8" stroke="#000" stroke-width=".25" d="m570.7 525.8.24.17-.24.25-1.03.86-.36-.44-.03-.23 1.05-.64z" data-originalStrokeWidth="0.25" style="shape-rendering: auto; stroke: rgb(0, 0, 0);"></path>


<path id="Miguel_Pereira" fill="#ccccb8" stroke="#000" stroke-width=".25" d="m569.27 519.65.86.41.11.55.5-.07.68-.33.88.13.42.3-.6.75-1.25.26-.32.1-.47-.23-.93.51-.2.3-.56-.1-.78.3-.76.76.1.3-.67-.4 1.12-.92.63-1.2.4-.87.39-.08z" data-originalStrokeWidth="0.25" style="shape-rendering: auto; stroke: rgb(0, 0, 0);"></path>


<path id="Miracema" fill="#ccccb8" stroke="#000" stroke-width=".25" d="m594 500.64.35.2.68-.22.11.61-.53 1-.74.3-.42.4-1.39-.1-1.28-.73-.05-.23.7-.19-.23-.29.38-.36-.1-.42.2-.09.5-.4.65.04.29-.2.4.46z" data-originalStrokeWidth="0.25" style="shape-rendering: auto; stroke: rgb(0, 0, 0);"></path>


<path id="Natividade" fill="#ccccb8" stroke="#000" stroke-width=".25" d="m599.16 494.32-.1.38-.77.94.2.35-.55.34-.52.61-.76.3-.57-.39-1.08-.3.3-.53-.35-.3-.27-.49-.47-.15-.08-.12.27.08 1.2-.28.05-.8.78-.16.76-.5-.1.3.45.48.56-.05.04-.27.63-.03z" data-originalStrokeWidth="0.25" style="shape-rendering: auto; stroke: rgb(0, 0, 0);"></path>


<path id="Nilópolis" fill="#ccccb8" stroke="#000" stroke-width=".25" d="m571.07 526.62-.44.14-.28.3-.67.02 1.03-.86z" data-originalStrokeWidth="0.25" style="shape-rendering: auto; stroke: rgb(0, 0, 0);"></path>


<path id="Niterói" fill="#ccccb8" stroke="#000" stroke-width=".25" d="m578.74 528.15-.62.7-.37.2-.02.45-.46-.04-.58-.31-.68-.06-.03-.32.31-.26-.7-.7.54-.44.64.24 1.3.32.25.37z" data-originalStrokeWidth="0.25" style="shape-rendering: auto; stroke: rgb(0, 0, 0);"></path>


<path id="Nova_Friburgo" fill="#ccccb8" stroke="#000" stroke-width=".25" d="m586.41 515.05.9.91-.04.23 2.04 1.37.26.04 1-.2.63.24-.22.16.84.46.2.5-.61-.14-.96.54.28.17-.66.4-.7.08-.57-.13-1.67.35-.54-.12-.44.41-.24-.04-.43-.3.32-.27.08-.8-.22-.33-.35-.07-.48.47-.4.2-.37-.12-.5.11-.77-.66.02-.66.27-.55-.06-.36.67-.47.13-.34.47-.2v-.38l.54.15.31-.32.37.04.27-.3z" data-originalStrokeWidth="0.25" style="shape-rendering: auto; stroke: rgb(0, 0, 0);"></path>


<path id="Nova_Iguaçu" fill="#ccccb8" stroke="#000" stroke-width=".25" d="m570.88 521.65.24.74-.51.36.09.27.52.34-.35.4.64.59-1.04.33-.17.36.4.77-.38-.03-1.05.64.04.23-1.23.24-.51.17-.14.34-.84-.04-.52.15.89-.66-.21-.77.37-.6.95.15.44-.11-.13-.65.38-.36-.61-.26.23-.21-.45-.78-.44-.07-.53.4-.1-.3.76-.75.78-.3.56.1.2-.3.93-.51.46.22z" data-originalStrokeWidth="0.25" style="shape-rendering: auto; stroke: rgb(0, 0, 0);"></path>


<path id="Paracambi" fill="#ccccb8" stroke="#000" stroke-width=".25" d="m567.4 522.27-1.12.91-.18.6-.58-.15-.6.52-.27.46-.57-.13-.6-.23.03-.24-.4-.3 1.2-.76v-.11l1.07-.9.65.31.18-.33.73-.16z" data-originalStrokeWidth="0.25" style="shape-rendering: auto; stroke: rgb(0, 0, 0);"></path>


<path id="Paraíba_do_Sul" fill="#ccccb8" stroke="#000" stroke-width=".25" d="m573.4 514.05.28.5.74.81.04.41.68-.14-.3 1.27-.08.65-.53-.03-.64.21-.72 1.05-.65-1.63-1.33-1.1-.64-2.76.25-.09 1.34-.9v.92l1.3.35z" data-originalStrokeWidth="0.25" style="shape-rendering: auto; stroke: rgb(0, 0, 0);"></path>


<path id="Paraty" fill="#ccccb8" stroke="#000" stroke-width=".25" d="m551.08 530.4-.6.16-.41.3-.26-.13h-.92l-.7.44-.25.88v.94l-.4.48.47.55.67-.49.1.53.57.12.56-.17.13.68.93.03-.15.35-.54.54-.11.41-.32.3-.86-.56-.56.25-.53-.09-.46.23.05.25-.94-.53-.18-.68-.65-.13-.06-.37-1.1-.78.13-.42.14-.32.89-.39-.02-.34.26-.5-.14-.42.29-.75.19-1.19.47.03.38-.64.53-.3.47.04.85-.32.3.42 1.02.3.35.46-.04.61z" data-originalStrokeWidth="0.25" style="shape-rendering: auto; stroke: rgb(0, 0, 0);"></path>


<path id="Paty_do_Alferes" fill="#ccccb8" stroke="#000" stroke-width=".25" d="m572.87 518.78-.52.23-.35.55-.41.08-.16.57-.68.33-.5.08-.11-.55-.86-.41-.28-.33.35-.5-.34-.72.06-.37 3.15-.58z" data-originalStrokeWidth="0.25" style="shape-rendering: auto; stroke: rgb(0, 0, 0);"></path>


<path id="Petrópolis" fill="#ccccb8" stroke="#000" stroke-width=".25" d="m578.3 516.9-.16.25-.82.53.24.84-.18 1.36.07.5h-.33l-.26.42-.29.5-1.84.7-.75.2-.54.15-.09-.3.4-.77-1.03-.64-.42-.3-.87-.12.16-.57.4-.08.35-.55.52-.23.72-1.05.64-.21.53.03.64.05.33-.5.36.1.3-.35-.07-.34.82-.6.33-.1.54.4z" data-originalStrokeWidth="0.25" style="shape-rendering: auto; stroke: rgb(0, 0, 0);"></path>


<path id="Pinheiral" fill="#ccccb8" stroke="#000" stroke-width=".25" d="m561.82 521.43-.73.84-1.06.32-.16-.1-.8.21.27-.75.28-.03.13-.9.5.25z" data-originalStrokeWidth="0.25" style="shape-rendering: auto; stroke: rgb(0, 0, 0);"></path>


<path id="Piraí" fill="#ccccb8" stroke="#000" stroke-width=".25" d="m563.87 521.99.38.27.07.69-1.21.76.4.3-.04.24.61.23-.84.65-.1.5.32.33-.22.3-.72.27-.3-.32.08-.49-.24-.2.37-.67-1.01-.06-.37-.5-.05-.33-.48.1-.53-.5h-.57l-.53.44-.12-.44.3-.85.8-.22.16.1 1.06-.32.72-.84.8.14.26-.2.75-.07-.14.58z" data-originalStrokeWidth="0.25" style="shape-rendering: auto; stroke: rgb(0, 0, 0);"></path>


<path id="Porciúncula" fill="#ccccb8" stroke="#000" stroke-width=".25" d="m598.4 490.62.49.42.73-.02-.96.79-.71.28-.53-.08-.22 1.29-.76.5-.78.16-.05.8-1.2.28-.27-.08-.99-.53-.18-.33.23-.25.91-.36.85-.21.67-.01.4.14.2-.32.11-.6.54-.7.03-.87.41.06.53-.56z" data-originalStrokeWidth="0.25" style="shape-rendering: auto; stroke: rgb(0, 0, 0);"></path>


<path id="Porto_Real" fill="#ccccb8" stroke="#000" stroke-width=".25" d="m554.97 520.17-.55.78-.32-.03-.41-.54 1.06-1.05.67.04z" data-originalStrokeWidth="0.25" style="shape-rendering: auto; stroke: rgb(0, 0, 0);"></path>


<path id="Quatis" fill="#ccccb8" stroke="#000" stroke-width=".25" d="m557.67 518.09-.32-.1.18.83-.92.25-.3 1.2.04.4-.54.14-.85-.63.45-.8-.67-.04-.46-.35-.03-.38.37-.44.47-.27h.37l.3-.5-.06-.43.4-.04.84-.45.6.3.18.74z" data-originalStrokeWidth="0.25" style="shape-rendering: auto; stroke: rgb(0, 0, 0);"></path>


<path id="Queimados" fill="#ccccb8" stroke="#000" stroke-width=".25" d="m566.75 526.08-.18-.82.1-.3.52-.49.95-.06v-.16l.62.26-.38.36.13.65-.44.1-.95-.14z" data-originalStrokeWidth="0.25" style="shape-rendering: auto; stroke: rgb(0, 0, 0);"></path>


<path id="Quissamã" fill="#ccccb8" stroke="#000" stroke-width=".25" d="m610.96 513.91-1.45.74-.86.3-3.3.85-1.61.57-.2-.57.23-.08-.25-.69-.35-.36-2.12-.53-.4-.37 1.01-.56.74-.17 1.17.17.68-.72 1.33-.5 2.83 1.4.36.58.5-.06 1.36.07z" data-originalStrokeWidth="0.25" style="shape-rendering: auto; stroke: rgb(0, 0, 0);"></path>


<path id="Resende" fill="#ccccb8" stroke="#000" stroke-width=".25" d="m555.7 516.97.06.43-.3.5h-.37l-.47.27-.37.44.03.38.46.35-1.06 1.05.42.54.32.03.2 1-.37.68-.34.4.02-.54-.4-.14-.41.46h-.42l-.65.3-.25-.08-.53.5-.36-.17-.27-.4-.67.3-.23-.25-.86-.11.02-.85-.41-.03-.36-.58-.63-.8.08-.22-.4-.68-.24-.17-.95-.18v-.02l.1-.2 1.3-.57 1.13.2.07.15.44.93-.34.86.63.48-.11.45.19.39.54.07.15-.77.74-.38.39-.38.59-.28-.12-.4-1.95-.65-.25-.31.4-.33.69-.08.1-.45.83-.51 1.13-.92.67.13.63-.08.75.09.45-.3.5.03z" data-originalStrokeWidth="0.25" style="shape-rendering: auto; stroke: rgb(0, 0, 0);"></path>


<path id="Rio_Bonito" fill="#ccccb8" stroke="#000" stroke-width=".25" d="m587.84 525.14-.1 1.63-.46-.04-.47.18-1.24-.47-1.06.52-.27.38-.2-.47-.48-.6.14-.36-.59-.9-.68-.65.67-.28.28-.48.45-.12.72.36.75-.56.36-.09.65.2-.04 1.52z" data-originalStrokeWidth="0.25" style="shape-rendering: auto; stroke: rgb(0, 0, 0);"></path>


<path id="Rio_Claro" fill="#ccccb8" stroke="#000" stroke-width=".25" d="m562.52 526.53-1.16 1.27-.45.1-.45-.75-.5.48-.47.22h-.77l-.4-.34-.95.7-.18.43-.3.02-.4.05-.47-.35.07-.72-.41-.43-1.01-.05.39-.3.5.02.1-.4.39-.26-.31-.44.54-.58.94-.56.15-.5.32-.37 1.08-.21.12.44.53-.44h.57l.53.5.48-.1.05.32.37.51 1 .06-.36.67.24.2-.08.5z" data-originalStrokeWidth="0.25" style="shape-rendering: auto; stroke: rgb(0, 0, 0);"></path>


<path id="Rio_das_Flores" fill="#ccccb8" stroke="#000" stroke-width=".25" d="m570.25 513.3.64 2.76-.46.35-.55-.35-.47.59-.54-.23-.17.69-.65-.2-.5.42.03-.44-.36-.09-.01-.6-.88-.49-.14-.44.13-1.2-.16-.32.4-.38.43.33.53-.49.45.56.7-.26h1.09z" data-originalStrokeWidth="0.25" style="shape-rendering: auto; stroke: rgb(0, 0, 0);"></path>


<path id="Rio_das_Ostras" fill="#ccccb8" stroke="#000" stroke-width=".25" d="m598.87 519.6-.65.58-.17.49-.45.16-.76.9-.51-.06-.31.5-.22-1.05-.48-.4-.16-.43.16-.46-.8-.12.7-.62.5.2.57-.2 1 .22.5.32.9-.18z" data-originalStrokeWidth="0.25" style="shape-rendering: auto; stroke: rgb(0, 0, 0);"></path>


<path id="Rio_de_Janeiro" fill="#ccccb8" stroke="#000" stroke-width=".25" d="m566.16 530.85.02-.18.93-.21.04.34zm6.98-4.3.5.55.6 1 .53-.04.33.39-.16.27.38.32-.62.42-1.07.47-.51.02-.5.25-.6-.1-1.48.11-1.29.32-.99.46-1.4-.96-.46-.12-.36-.35-.29.16-.96-.75-.9-.52.53-.4 1.21-.53.43-.01.52-.15.84.04.14-.34.51-.17 1.23-.24.37.44.67-.02.28-.31.44-.14.44-.17.61-.03.48-.03zm1.78-.6-.1.47.1.4-.78-.14-.4.3-.46-.4.16-.25.62-.23.54.2z" data-originalStrokeWidth="0.25" style="shape-rendering: auto; stroke: rgb(0, 0, 0);"></path>


<path id="Santa_Maria_Madalena" fill="#ccccb8" stroke="#000" stroke-width=".25" d="m597.7 509.98.6.26.95-.14.36.2.98-.06.19.13-.2.89.07.65-.9.85.3 1-.58.22h-.67l-.28-.47-.88-.41-.38.34-.48-.2-.45.37-.47-.35h-1.14l-.9-.15.07-.35-.65-.1.38-.7.32-.18.05-.57.54-.4.5-.58.7-1.1.43-.39.1.44.5.8.7.1z" data-originalStrokeWidth="0.25" style="shape-rendering: auto; stroke: rgb(0, 0, 0);"></path>


<path id="Santo_Antônio_de_Pádua" fill="#ccccb8" stroke="#000" stroke-width=".25" d="m594.62 502.23.63.04.24-.14.27.53-.08.54-1 .66.03.35-.93.99-.26-.01-1.47.74.33.67-.93.28-.52.3-.11-.64-.5-.4-.67.09-.46-.24-.06-.5.29-.47.1-.16.39-.23.49-.82.2.08.5-.81-.61-.4.29-.57 1.29.73 1.39.09.42-.4z" data-originalStrokeWidth="0.25" style="shape-rendering: auto; stroke: rgb(0, 0, 0);"></path>


<path id="São_Francisco_de_Itabapoana" fill="#ccccb8" stroke="#000" stroke-width=".25" d="M614.01 499.88v1.05l-.38.55-.32.22-.35.67-.66.65-.27.83.47 1.43-.03.2-.84.59-.04.34-.65.12-.42-.06-.33.26-.34-.12.2-.8.08-.8-.71-.25-.6-.38.18-.98-.2-.47-.04-.93-.16-.25.42-.72-.37-.05v-.54l.28-.36-.85.04-.25-.1.6-1.23.62-.35.9.5.9-.19.04-.18.84-.14.54.27.34.36.62-.04.18.6z" data-originalStrokeWidth="0.25" style="shape-rendering: auto; stroke: rgb(0, 0, 0);"></path>


<path id="São_Fidélis" fill="#ccccb8" stroke="#000" stroke-width=".25" d="m600.2 502.76 1.12.91.92 1.41 1.52-.61-.05.99.1.09-.94.73-.8.1-.33.44-.73.37-.16.6-.57.32-.23.4-.7-.13-.13.25-1.6 1.17.07.18-.23.1-.7-.1-.5-.8-.1-.43.6-1.1v-2.54l.72-.4.92-.77.5-.71-.17-.15z" data-originalStrokeWidth="0.25" style="shape-rendering: auto; stroke: rgb(0, 0, 0);"></path>


<path id="São_Gonçalo" fill="#ccccb8" stroke="#000" stroke-width=".25" d="m579.99 527.57-.72.26-.53.33-.41.14-.26-.37-1.3-.32-.63-.24.15-.4.53-.55-.3-.22.32-.44.66-.4.52-.16.16.28.84.47-.04.33.42.45.23-.05z" data-originalStrokeWidth="0.25" style="shape-rendering: auto; stroke: rgb(0, 0, 0);"></path>


<path id="São_João_da_Barra" fill="#ccccb8" stroke="#000" stroke-width=".25" d="m612.48 505.48.62.1-.21 1.68.1.76.65 2.64-2.58.02-.44-.5.06-1.12-.5-.78.1-.5-.2-.43.66-.51.2-.3.65-.13.04-.34z" data-originalStrokeWidth="0.25" style="shape-rendering: auto; stroke: rgb(0, 0, 0);"></path>


<path id="São_João_de_Meriti" fill="#ccccb8" stroke="#000" stroke-width=".25" d="m572.12 526.41-.61.03-.44.17-.37-.39.24-.25.21-.19 1-.19z" data-originalStrokeWidth="0.25" style="shape-rendering: auto; stroke: rgb(0, 0, 0);"></path>


<path id="São_José_de_Ubá" fill="#ccccb8" stroke="#000" stroke-width=".25" d="m598.9 500.35-.68.3-.71.66-.16.34-.82.55-.42.75-.43.25.08-.54-.27-.53-.24.14-.63-.04.53-1-.11-.6.6-.26.27-.28.97-.03.22-.28 1.04.14.35-.27z" data-originalStrokeWidth="0.25" style="shape-rendering: auto; stroke: rgb(0, 0, 0);"></path>


<path id="São_José_do_Vale_do_Rio_Preto" fill="#ccccb8" stroke="#000" stroke-width=".25" d="m582.28 514.33.2.16-.58.05-.67.59-.94.48-.42-.02-.26.62-.63.16-.68.54-.3-.68-.54-.41-.33.1.47-.82 1.17-.41-.26-.9.24-.06.48.34.59.12.42-.16.13.44-.18.5.39.13 1.04-.71z" data-originalStrokeWidth="0.25" style="shape-rendering: auto; stroke: rgb(0, 0, 0);"></path>


<path id="São_Pedro_da_Aldeia" fill="#ccccb8" stroke="#000" stroke-width=".25" d="m593.49 528.28-.54-.26-.34-.35-.7.07.62-.88-.28-.1-.3-.64-.8.12.64-.4.9-1.59.62-.47 1.9 2.52-.3 1.23h-.82z" data-originalStrokeWidth="0.25" style="shape-rendering: auto; stroke: rgb(0, 0, 0);"></path>


<path id="São_Sebastião_do_Alto" fill="#ccccb8" stroke="#000" stroke-width=".25" d="m596.75 507.65-.6 1.1-.42.38-.7 1.1-.5.57-.54.41-.05.57-.32.18-.38.7-.67-.36-.16.2-.64-.1-.42-.66.59-1.5.75-.5.38.02.08-.37.35-.07.59-.6.78-.37.4-.49.64-.35.64-.05z" data-originalStrokeWidth="0.25" style="shape-rendering: auto; stroke: rgb(0, 0, 0);"></path>


<path id="Sapucaia" fill="#ccccb8" stroke="#000" stroke-width=".25" d="m583.42 511.69-.1.56-.65.85v.8l-.44.1.05.32-.67.06-1.04.71-.39-.13.18-.5-.13-.44-.42.16-.59-.12-.48-.34-.24.07-.83-.05.25-.93 1.64-.74.5-.55 1.65-.53 2.17-1 .03.75z" data-originalStrokeWidth="0.25" style="shape-rendering: auto; stroke: rgb(0, 0, 0);"></path>


<path id="Saquarema" fill="#ccccb8" stroke="#000" stroke-width=".25" d="m587.75 526.77 1.36.22-.3 1.06.09.72-3.48-.06-1.11.1.13-.32-.8-.41.34-.66.27-.07.27-.38 1.06-.52 1.24.47.47-.18z" data-originalStrokeWidth="0.25" style="shape-rendering: auto; stroke: rgb(0, 0, 0);"></path>


<path id="Seropédica" fill="#ccccb8" stroke="#000" stroke-width=".25" d="m566.1 523.77.53-.04-.2.52.24.71-.1.3.17.82.21.77-.89.66-1.95-1.1-.09-.53.27-.05.15-.7.34-.1-.13-.42.27-.46.6-.52z" data-originalStrokeWidth="0.25" style="shape-rendering: auto; stroke: rgb(0, 0, 0);"></path>


<path id="Silva_Jardim" fill="#ccccb8" stroke="#000" stroke-width=".25" d="m592.35 522.05-.22.36-.85.65-.5-.13-.7.75-.3 1-1.56.56-.38-.1-1.56-.23.04-1.52-.65-.2-.7-1.4.18-.13.53-1.17.23-.2.24.03.44-.4.54.11 1.67-.35.57.13.7-.08.66-.4-.47 1 .6.48.1.66.26.41.67-.13z" data-originalStrokeWidth="0.25" style="shape-rendering: auto; stroke: rgb(0, 0, 0);"></path>


<path id="Sumidouro" fill="#ccccb8" stroke="#000" stroke-width=".25" d="m585.96 512.23-.43.25.15.26-.26.33.09.3-.53.34-.12 1h.56l.37.42-.27.3-.37-.04-.31.32-.54-.15v.38l-.47.19-.13.34-.67.47-.53-.57.18-.41-.32-.43-.07-.52.2-.52-.2-.16-.06-.32.44-.11v-.8l.66-.85.1-.56z" data-originalStrokeWidth="0.25" style="shape-rendering: auto; stroke: rgb(0, 0, 0);"></path>


<path id="Tanguá" fill="#ccccb8" stroke="#000" stroke-width=".25" d="m582.43 524.37.68.65.6.9-.15.36.48.6.2.47-.27.07-.99-.1-.3-.23-.43-.78-.72.07.27-.44-.21-.68.49.02.39-.63z" data-originalStrokeWidth="0.25" style="shape-rendering: auto; stroke: rgb(0, 0, 0);"></path>


<path id="Teresópolis" fill="#ccccb8" stroke="#000" stroke-width=".25" d="m582.49 514.49-.2.52.07.52.32.43-.18.4.53.57.05.37-.27.55-.02.66-.7.51-.47-.16-.3.53-.71.2-.61.65-.58-.04-.21-.06-.83.41-.42-.2-.5.03-.08-.5.18-1.36-.24-.84.82-.53.16-.25.68-.54.63-.16.26-.62.42.02.94-.48.67-.59z" data-originalStrokeWidth="0.25" style="shape-rendering: auto; stroke: rgb(0, 0, 0);"></path>


<path id="Trajano_de_Moraes" fill="#ccccb8" stroke="#000" stroke-width=".25" d="m593.24 512.66.65.1-.07.35.9.15h1.13l.47.35.07.68-.29.3-.1-.12-.8.53-.9.13-.34.3.06.36-1 .17-.79.58-.99.9-.04.2-.64-.25.87-1.03-.84-.58.1-.22-.3-.66.3-.17-.25-.48.52.13-.08-.58.17-.78.31-.1.4-.52.64.1.16-.2z" data-originalStrokeWidth="0.25" style="shape-rendering: auto; stroke: rgb(0, 0, 0);"></path>


<path id="Três_Rios" fill="#ccccb8" stroke="#000" stroke-width=".25" d="m577.92 512.82-.25.93.83.05.26.89-1.17.4-.47.82-.2-.33.07-.43-.9.6-.94-.11-.7.14-.04-.41-.74-.81-.28-.5.77-.57 1.22-.45.27-.2-.04.41-.36.3.2.52.63-.38.55.18.75-.48-.1-.38z" data-originalStrokeWidth="0.25" style="shape-rendering: auto; stroke: rgb(0, 0, 0);"></path>


<path id="Valença" fill="#ccccb8" stroke="#000" stroke-width=".25" d="m565.43 513.57.72.19.16.32-.13 1.2.14.44.88.49.01.6.36.09-.02.43-.29.34-.86.08-.19.56-.49.3-.15.4-.34-.13-.5.48-.65-.75-.5-.08-.55.5-.23-.4.07-.84-.59.29-.47.43-.65-.1-.36-.31-.03-.34-.64-.04-.3-.23-1.13.5-1.02.1.04-.57-.18-.74-.6-.3.17-.21.44-.02.95-.94 1.2-.38.63.06.37-.18.42-.07 1.08-.5.2-.22.69-.04 1.16-.59.79.54z" data-originalStrokeWidth="0.25" style="shape-rendering: auto; stroke: rgb(0, 0, 0);"></path>


<path id="Varre_Sai" fill="#ccccb8" stroke="#000" stroke-width=".25" d="m599.62 491.01.63.31-.03.98-.74.53-.52.73.4.4-.2.37-.38-.6-.63.02-.04.27-.56.06-.45-.48.1-.3.22-1.3.53.08.7-.28z" data-originalStrokeWidth="0.25" style="shape-rendering: auto; stroke: rgb(0, 0, 0);"></path>


<path id="Vassouras" fill="#ccccb8" stroke="#000" stroke-width=".25" d="m570.88 516.05 1.33 1.1-3.15.58-.05.37.34.72-.35.5.28.33-.46.48-.4.08-.38.87-.18-.7-.18-.07-1.87.03-.01.08-.47-.14-.33.48-.37-.4-.4-.31.5-.7.5-.48.35.13.15-.4.49-.3.19-.55.86-.08.29-.34.49-.42.65.2.17-.7.54.24.47-.6.55.36z" data-originalStrokeWidth="0.25" style="shape-rendering: auto; stroke: rgb(0, 0, 0);"></path>


<path id="Volta_Redonda" fill="#ccccb8" stroke="#000" stroke-width=".25" d="m560.18 519.42-1.16.94.72.65-.13.91-.28.03-.26.75-.3.85-.2-.78.21-.89-.08-.28-.81.13-.35-.37.02-.94.22-.5.94-.5z" data-originalStrokeWidth="0.25" style="shape-rendering: auto; stroke: rgb(0, 0, 0);"></path>

</svg>