<?xml version="1.0" standalone="no"?>
<svg xmlns="http://www.w3.org/2000/svg" id="map" version="1.2" width="1200" height="800" viewBox="310 425 125 125"> 

<path id="Água_Clara" fill="#ccccb8" stroke="#000" stroke-width=".25" d="m409.75 468.93.7 1.07-.56.34-.68.1-.48.8-.27.22-.15.96-.29.75-.55.25-.7-.03-.5.16-1.23 1.03-.05.3.73-.05.28.53.2 1.55-.03.39.34 1-.57.38-.1.36.18.57.44.74-.46.52-.15.48.21.68.84 1.38.93.68.2.42.83.73.43.56.23.52.47.28.2.56.5.53.4 1.08.21.2.34.9.44.43.08.4.34.34.08.5-.16.96-.4-.1-.47-.4-1.22-.54-.45-.46-.36-.07-1.57-1.59-.87-.56-.37-.48-.85-.55-.44-.76-1-.55-.39-.42-.52-1.12-.57-.15-1.25-1.45-1.7-1.12-.26-.3-.29-.76.1-.63-.26-.6-.77-.58-.47-1.04-.04-.35-1.4-1.04-1.2-1.98-.69-.19-.28-.5-.08-.5-.32-.5-.35-.14-.6-.97-.15-.54-.44-.3.07-.75.17-.29-.13-.65.5-.35.84-.8.45-.14.67-1.13.33.83 3.31-.72.83.08-.08-.66.44-.08.95.2.62.57 1.34.63.85.7.72.01 1-.19.91.44.31-.45.67-.64.62-1.24.8-.13.21.66.63.64z" data-originalStrokeWidth="0.25" style="shape-rendering: auto; stroke: rgb(0, 0, 0);"></path>


<path id="Alcinópolis" fill="#ccccb8" stroke="#000" stroke-width=".25" d="m394.05 441.38.4.3.8-.03.78-.2.96.2.03.78.16.44.12.89-.51.59-.3.08-.5.57-.35.22-.77-.28-.31.27.8.53-.31.32-.77-.29-.83.24-.4.42.52.87-.31.41.24.57-.47.37-.65-.04-1.45.63-1 .32-1.3-.15-.91.14-.33.51-.68-.12-.37-.32-1.01.8-.58.34-.67.07-.23.28-1.12-.72-.64.24.06-.49-.15-.43.12-.3-.24-.58.04-1-.5-.15-.38-.3-.66.04.67-.59.17-.3-.18-.57.06-.5-.1-1.12-.6-.83-.47-.37.77.03.14.13.76.02.48-.66.53-1.5.33-.47.92-.33.5-.33.5.07.45-.2.78.3.75.6.67.73.66-.1.78.22.72-.54.63.04.46.55 1.28.19.55.35.32-.1.58-.9z" data-originalStrokeWidth="0.25" style="shape-rendering: auto; stroke: rgb(0, 0, 0);"></path>


<path id="Amambai" fill="#ccccb8" stroke="#000" stroke-width=".25" d="m370.49 527.93.88.02.43.46.63.11.8.82.41.16.49-.07.14.48.93.88-.71.71-.26.42-.7.3-.44.43-.78.15-.37.4-.13.45.16.92.17.2-.52.63-.61-.41-.4.1-.77-.03-.3.27-.41-.01-.48 1 .03.53-.45.3-.32.56.54.51.7 1.34-.9.05-1.02.31-.85-.44-.88-.77-1.22-.48-.3-.48-.71-.6-.17-.52-.18-.4-.77-.39-.73-.6-.9-.33-.72-.39-.3-.7-.77-1.27-.3-.32-.26-.72.26-.94.7-.29.74-.57.38.1.34-.2.33-.47 1.37-.25.36-.27.52.23.67-.24.55.1.16-.27.7.06.65-.23.34.58.48-.24.5-.06.26-.5.6-.23.43.11.63-.29.8.31z" data-originalStrokeWidth="0.25" style="shape-rendering: auto; stroke: rgb(0, 0, 0);"></path>


<path id="Anastácio" fill="#ccccb8" stroke="#000" stroke-width=".25" d="m346.36 484.29 4.76.73.63.39.8.16 1.18-.17.69-.01.79.66.25-.16.23.2-.2 1.54.32.55.25.78.46.37.02.64.62.29.48.44.23.74.56.26v.43l.43.58-.1.28.36.27.64 1.17.39.26.25.57-.2.2-.77-.3-.28.2-.73.15-.94-.6-.23.03-.54-.5-.71-.05-.5.11-.64-.39-.32-.47-.84-.54-.03-.55-.67-1.1.1-.48-.35-.6-.54.01-.27-.27-1.05-.28v.37l-.8.94-.84.26-.52-.04-.72-.32-.55-.63h-.8l-.77-.84-.31-.85-.1-.92.4-.23-.18-1.04.1-.82-.2-.1-.12-.76-.44-.37z" data-originalStrokeWidth="0.25" style="shape-rendering: auto; stroke: rgb(0, 0, 0);"></path>


<path id="Anaurilândia" fill="#ccccb8" stroke="#000" stroke-width=".25" d="m411.94 514.25-.28.48-.85.77-.56.56-1.75.7-1.21.82-.71.21-1.82 1.13-.74.66-.26.42-1.65.6-.82-.77.1-.17-.43-1.41-.52-.67-.1-.62-.52-.9-.55-1.32-.07-.68.1-.5-.16-1.12-.32-.65-.27-.01 1.38-2.4.75.3 1.2.09 1.59.34 4.2-.84.46 1.5 1.02.84.5.27.43.46.49.14.34.36.8-.11.45.12.15.58-.4.58z" data-originalStrokeWidth="0.25" style="shape-rendering: auto; stroke: rgb(0, 0, 0);"></path>


<path id="Angélica" fill="#ccccb8" stroke="#000" stroke-width=".25" d="m387.19 510.86.03.34.53.38.11.4.7.65.48.3-.1.26.36.37.14.61.65.22.11.4.45.05.13.83-.38-.06-1.3.71-.8.1h-.86l-.95-.48-.8-.04-.46-.2-.5-.57-.85-.29-.33.18.07-.67-1.66-.65.03-.83-.14-.93-.56-.67-.12-.29.61-.29.3.28.46-.48.5-.09.92.25 1.06-.23.28-.27.87.35.18-.1.5.41z" data-originalStrokeWidth="0.25" style="shape-rendering: auto; stroke: rgb(0, 0, 0);"></path>


<path id="Antônio_João" fill="#ccccb8" stroke="#000" stroke-width=".25" d="m352.27 519.02-.65-.2-.3-.49-.4-1.03-.24-.1-.85.06-.55-.08-.59.2-.42-.17-.28.2-.95-.28-.45.15-.61-.24-.23.24-1.35-.17-.65-.66-.63-.12-.57-.3-.5-.6.74.09.17-.38 1.6.15.03-1.18 1.2.12.37.26.32-.13.27-.55.47.47.2-.47.38.1.1-.6.78.67.54-.05 1.1.95.77-.16.61.18.47-.16.17-.4.5.08.39-.18.38.32.74-.06-.3.57-.42.36-.4.85.06.32-.64.62-.25.72.21.4z" data-originalStrokeWidth="0.25" style="shape-rendering: auto; stroke: rgb(0, 0, 0);"></path>


<path id="Aparecida_do_Taboado" fill="#ccccb8" stroke="#000" stroke-width=".25" d="m436.54 478.38-.01.2-.36.66-.84 2.06-.71.53-.91.45-2.4.4-.83.48-.34-.63-.96-.5-.55-.55-.95-.35-.4-.41-.67-.5-.34-.55-.75-.67-.08-.3-.72-.77-.34-.22.2-.62.63-.32.05-.2 1.48-.3 1.4-.12.8-.49.19-.43.36-.05.3-.43.44-.3.36.04.25-.27.85-.04.72.27.6-.14.7.14.69-.75.97-.17.59-.36.17.23.08 1.18.35.63-.38.94.27.65-.01.52-.21.41z" data-originalStrokeWidth="0.25" style="shape-rendering: auto; stroke: rgb(0, 0, 0);"></path>


<path id="Aquidauana" fill="#ccccb8" stroke="#000" stroke-width=".25" d="m358.79 451.8-.77 7.4-.4 3.86.25.08.59.66.75-.05.43.1.1-.34.45-.04.26.29.49-.16.48.05.45.53.36.06.59.74.58.32.33-.27.3.09-.38.32.2.3-.9.59-.72.24-.4 1.4-.26.44-.44 1.14-.4.38-.3 1.15-.32.37-.4 1.2-.85.71.29.86.7.52.15.8.35.41-.24.55.93.38.21-.24.63-.14.42.27 1.07-.14.72.6.04.45.58 1.11-.06.42-.3.4-.95-.17-.97.5-.63.49-.32.45-1.75-1.17-.22.26h-.68l-.5-.53-.4.13-.7-.05v.31l-.42.55-.2.8.06.65.52.36.65.13-.14.46.26 1.06-.08.97-.67.3-.33-.18-.65.6-.18.33-.6.02-.25.16-.79-.66-.69.01-1.18.17-.8-.16-.63-.39-4.76-.73-.07-.7-.98-.85-.54-.17-.63-.58-.18-.5.25-.2-.27-.94.4-.39-.45-.74-.15-.48.1-.39-.07-.8-.23-.89-.49-.17-.6-.9h-.48l-1.04-.95-.78-.34-.59-.59-1.6-.1-.97.33-.3-.75-.87-.45-.36.28-.7-.04-.47.31-.74-.37-.54-1.05-.33.06-.42-.66-1.06.11-.4-.15-.2-.3.14-.43-.17-.32 1.3-.15.96.14.27-.26 4.12-1.63.68-4.17 10.74.02.02 3.31h.4l.51-.77.4-.1.13-.44.96-.73.28-.4-.05-.74.58-.5.41-.83.03-.3.5-.58.23-.66.36-.55.62-.62 2.5-2.07z" data-originalStrokeWidth="0.25" style="shape-rendering: auto; stroke: rgb(0, 0, 0);"></path>


<path id="Aral_Moreira" fill="#ccccb8" stroke="#000" stroke-width=".25" d="m359.63 524.75.79.53-.05.3.56.38.79 1.24.3.26.9.41.17.52.42.11.46-.5.49.05.09.4-.16.25-.55-.09-.67.24-.53-.23-.36.27-1.37.25-.33.47-.34.2-.38-.1-.73.57-.7.3-.26.93-.81.68-.3.62.05.63-.47.7-.34.03-.02-.36.3-.4-.34-.3.02-.45-.56-.22-.41.16.01-.59-.28-.75v-.5l-.49-.4.1-.6-.3-1.85-.27-.62.27-1.08.54-.67.11-1.07.71.55.35.5.5.22.25-.7.9-.5.64.1.62-.2.06.24z" data-originalStrokeWidth="0.25" style="shape-rendering: auto; stroke: rgb(0, 0, 0);"></path>


<path id="Bandeirantes" fill="#ccccb8" stroke="#000" stroke-width=".25" d="m375.9 468.98.56.76.73.05.34.2.93.2.83-.02.53-.14.67.26.7.58.51.04.65-.5.78-.01.1.4.4.53.1.65-.08.74.2.2.31 1.5.26.11.51.8.4 1.3-.36.21-.6.02-.13.56-.35.32-1.34.36-.09.32-.72.54-.29-.26-.6-.1-.52-.24-.08-.34-.7-.39-.63.04-.54-.3-.5.1-.93-.19-.68.16.28-.63-.98-.29-.19-.66.14-.29-.12-.66-.56-.38-.96.11-.69-.09-.55.23-.36-.09-.27-1.79-.62-.35-.15.3h-.7l.13-1.06-.08-.45-.25-.17-.14-.66.53-.75.3-.13.52.11.63-.32.23-.32.68.08.67-.6.7.13.47.41.28-.38z" data-originalStrokeWidth="0.25" style="shape-rendering: auto; stroke: rgb(0, 0, 0);"></path>


<path id="Bataguassu" fill="#ccccb8" stroke="#000" stroke-width=".25" d="m401.24 505.74.42.38.62.19.98-.14.77.28.37-.08 1.49 1.03.74.23 1.13-.55.82-.03.62.1.98-.4 1.68-.33 1.05-.55.48-.15.4.23.54-.21 1.05.64.34.49.02.58.28.73-.4.78-.1.52-1.04 1.03-.47.22-.47.48-.32.53-.35 1.34-.68 1.04-.26.14-.02-.25.4-.58-.16-.58-.44-.13-.8.11-.35-.36-.49-.14-.43-.46-.5-.27-1.02-.84-.46-1.5-4.2.84-1.58-.34-1.2-.09-.75-.3-.16-.67.3-.59.48-1.38-.04-1.08.24-.21z" data-originalStrokeWidth="0.25" style="shape-rendering: auto; stroke: rgb(0, 0, 0);"></path>


<path id="Batayporã" fill="#ccccb8" stroke="#000" stroke-width=".25" d="m402.1 520.6-.89.35-.27.49-.45.12-.6.38-.6.82.04.47-.4.54-1.01 1.17-.38.22-.6.04-1.53.55-.34-.3.24-.3.67-.12.34-.68v-.65l-.11-1.31-.46-.63-.1-.7-.37-.76-.08-1.7-.3-.46 3.65-6.36h.27l.32.66.17 1.12-.11.5.07.68.55 1.32.53.9.09.62.52.67.44 1.4-.11.17z" data-originalStrokeWidth="0.25" style="shape-rendering: auto; stroke: rgb(0, 0, 0);"></path>


<path id="Bela_Vista" fill="#ccccb8" stroke="#000" stroke-width=".25" d="M346.62 510.37v.32l.45.44-.35.3.01.3.58.02.35.37-.32.75.6.21-.05.23-.09.6-.38-.1-.2.47-.47-.47-.27.55-.32.13-.37-.26-1.2-.12-.03 1.18-1.6-.15-.17.38-.74-.08-.5-.68-.33-.75v-.37l-.74.1-.65-.1-.84.51-.17.7-.36.31-.13.52-.83.44-.04.21-.83.44-.36-.13-.2-.5-.64.63-.42-.27-.57.34-.31-.32-.2.74-.7.3-.64-.45-.13-.54-.5.18h-.54l-.2-.3-.51.07-.17-.35-.94.17.24-.55-.02-.92.52-.2-.28-.77.57-.24 1-.22.28-.3.37.32.2-.45.6-.22-.21-.77.09-1.14.38-.44.16-.57.42-.41-.1-.26.39-.27-.21-.65.42-.8.32-.9-.64-.41-.06-1.31-.16-.27.78-.3 1.07-.12.74.8.52-.52 1.62-.57.2.5.1.9.47.38 1.02.18 1.32-.21.87.54.58.14v.37l.4 1.08.14.6.83-.01.8.53.14.29v.72l.68.08z" data-originalStrokeWidth="0.25" style="shape-rendering: auto; stroke: rgb(0, 0, 0);"></path>


<path id="Bodoquena" fill="#ccccb8" stroke="#000" stroke-width=".25" d="m341.27 485.44-.06.63-.3.72.07.33-.47.37-1.29.45.16.56-.68.27-.84.74.1.38-.7.44.1.57-.52.3-.79.68-.22.66h-2.88l-.25-.5.27-.4.22-.75-.39-.51-.06-.63-.37-.78.42-.8-.08-1.03-.58-.83-.3-.75.05-.47-.32-.4-.05-.47-.82-.02-.33-1.3 1.02-.13.05-.52-.4-.54.2-.5-.18-.4-.54-.6.9-.03.73.88.5.36.92.26-.15.74.03.78.47.6.5.45.45-.25.85.04.37-.32.05-.52 1.99-.02.37.1.54-.1.13-.22.66-.27.27-.26.49.09.59.38.08.29-.28.52.18.6-.12.34z" data-originalStrokeWidth="0.25" style="shape-rendering: auto; stroke: rgb(0, 0, 0); filter: none;"></path>


<path id="Bonito" fill="#ccccb8" stroke="#000" stroke-width=".25" d="m345.48 487.8.1.92.3.85.78.85-.55.1-.36.28.46.47-.35.84-.59-.26.11.68-.52.24.48.89-.94.85.1.46.4.4.14.45-.3.22-.38-.08-.3.47.28.67v.59l.38.43-.6.34.37.37.13.7-.49.17-.15.84-.4.38-.34-.15-.3.45.09.46-.32.24-1.08-.1-.81.37-1.48.14-.73-.24-.98.09-.28.19-.79-.21-2.32.33-.29-.25-.2-.57.2-.92-.15-.43.42-.6-.15-1.11-.6-1.37-.5-.67.25-.68-.4-.55-.04-.46.16-.63-.35-.92.36-.78 2.88-.01.22-.66.8-.68.52-.3-.1-.56.69-.44-.1-.38.84-.74.68-.27-.16-.56 1.3-.45.47-.37-.07-.33.3-.72.06-.63.55.96.19.1 1.1 1.28.07.34.9.38.3-.3.05-.66.46.5z" data-originalStrokeWidth="0.25" style="shape-rendering: auto; stroke: rgb(0, 0, 0);"></path>


<path id="Brasilândia" fill="#ccccb8" stroke="#000" stroke-width=".25" d="m412.43 492.5.33.3.19.45.45.46 1.05.5.49-.15 1.12.73.93.45 1.17.81.23.35.62.43-.03.3.89.7.92-.05.2.28.56 1.2-.15.41-.07.83-.14.3-.55.42-.32.61-.2.79-.41.3-.17.35-.67.42-1.01-.23-.36.2-.44.7v.26l-.51.17h-.58l-.12-.3-.94-.45v-.3l-1-.67-.67-.19-.53-.32-.63-.8-1.25-.6-.47-.42-.13-.36-.46-.47-.14-.42-.56-.65-.21-.7-.4-.22-.42-.7-1.18-.85-.55-.65-2.61-2.04-.48-.15-.8-.58-.54-.64-.6-.2-.46-.85.02-.55-.35-.82-1.55-.82.44-.27.32.11.82-.48.97-.05.74-.38.78-.28 1.42-1.28 1 .56.44.76.85.55.37.48.87.56 1.57 1.59.36.07.45.46 1.22.54.46.39z" data-originalStrokeWidth="0.25" style="shape-rendering: auto; stroke: rgb(0, 0, 0);"></path>


<path id="Caarapó" fill="#ccccb8" stroke="#000" stroke-width=".25" d="m373.35 519.38.77.15.36.7.48.54.22.44.06.91-.07.56.32.53-.41.2-.4-.4-.63-.05-1.1.49-.9-.01-.97-.3.35.95.47.4-1 .48-.2.54-.36.4.1.62-.16.66.2.75-.53.02-.81-.31-.16-.41-.51-.17-.96-.73-.33-.35-.7-.4-.64-.95-.37-.05-.35-.42-.61-.07-.91-.54-.02-.6.46-.44.07-.6.5-.16.38-.6.4-.02.8-1.13.25-.72.02-.62.61.22h.7l.25.17.97.2.12-.16.94.65.27-.17.44.45.95-.38.38.29.37-.32z" data-originalStrokeWidth="0.25" style="shape-rendering: auto; stroke: rgb(0, 0, 0);"></path>


<path id="Camapuã" fill="#ccccb8" stroke="#000" stroke-width=".25" d="m394.43 458.2-.08.67-.26.44.58.26.52.52-.95.5-.52.61-.1.8-.23.32-.48.15-.89-.08-.39.1-1.08-.12-.4 1.37-.23.17.55.63.07.48.43.5.27 1 .27.58-.15.18.49.65.43 1.32.33.33.13.65-.17.28-.07.74.44.31.15.54.6.97-.55.24-.67-.07-.7-.22h-.56l-.66-.21-.66-.65-.15-.42-1.13-.51-.14-.25-1.12-.87-.22-.64-.49-.52-.7-.37-.74 3.04-.34.2-.42-.1-.32.25h-.4l-.09-.65-.4-.52-.1-.4h-.78l-.65.5-.5-.03-.7-.58-.67-.25-.54.14-.83.02-.93-.2-.34-.21-.73-.05-.56-.76-.12-.55.14-.81.52-.12.4-.43.17-.57.9-.03-.01-1.53.76-.2-.04-.27.72-.83.38.05.27-.58-.23-.22.08-.7-.21-.2.07-.56-.54-1.02.02-.61.48.1.57-.3.58-.11.49.06.44.79.3.05.45.6.57.02.6-.45.27-1.01.37-.28 1.08.15 1.14-.27.68.22.54-.08.53-.28.79.22.49-.28 1.13-.25.57-.77 1.22-.57.07-.81.47.43.12.36.35.03.38.33.24.46z" data-originalStrokeWidth="0.25" style="shape-rendering: auto; stroke: rgb(0, 0, 0);"></path>


<path id="Campo_Grande" fill="#ccccb8" stroke="#000" stroke-width=".25" d="m369.7 479.93.2.33 1.13.2.8.4.22.42.73.03 1.2.4.39.2.34.84.13 1.04.72.07.68.46.39.1.78.82.75.12.13.22.55.04 1.07-.27.31-.26.06.44-.22.9.31.97-.33 1.08-.19.3.17.62.4.3.03.44.26.37.53.3.64.17.5.68.72.32.33.72-.02.48.66.6.92.04.38.28.68.26.16.32-.04.58.85.6.72.1.43.5.19.67.73.62.02.75.63 1.16.18.84.36.46v.97l-.33.51-.03.38.44.2-.01.7.15.44-.27.53-.34.1-.56-.48-.44.1-.7.4-1.61-.42-.57.12-1.87-.54-.73-.35-.6-.7-1.15-.78-.2-.45-.45-.3-.27-.4-.74-.52-.14-.66-.56-.46-.5-.65.1-.53-.32-.53-.3-.02.08-.57-.8-.36-.15-.2-.65-.17-.54-1.07-.71-.3-.18-.24-.77-.27-.34-.5-.71-.26-.63-.8-.51.08-.24-.27-.52-.13-.44-.7-.17-.96.18-.43-.34-.5-.08-.46-.53-.4-.3.03-.84.83h-.2l-.27-.94.5-.47.3.02.22-.56.3-.28-.23-.29-.3-.72v-.85l.62-.5v-2.75l-1.02-.48v-.25l-1.22-.3-.57-.65.16-.43.9-.12.07-.49z" data-originalStrokeWidth="0.25" style="shape-rendering: auto; stroke: rgb(0, 0, 0);"></path>


<path id="Caracol" fill="#ccccb8" stroke="#000" stroke-width=".25" d="m333.88 504.58.16.27.06 1.31.64.41-.32.9-.42.8.2.65-.39.27.1.26-.42.41-.16.57-.38.44-.09 1.14.21.77-.6.22-.2.45-.37-.3-.27.29-1 .22-.57.24.28.77-.52.2.02.92-.24.55-.17.17-.74.12-.14-.3-.7.04-1.16-.17-.42.48-1.04-.53-.5.3-.9-.17-.24-.42-.98-.31-.68.08-.59-.33.15-.26.76-.48.2-.48-.03-.41.45-.21.21-.76.5-.47.22-.54.65-.11.6-.56.92.16.51-.7.6-.25v-.85l.3-.63.3-.23-.16-.56.87-.92.45-.67.87-.27.54-.51.4.2.56-.01.37-.81.42.02.45-.37.82-.18z" data-originalStrokeWidth="0.25" style="shape-rendering: auto; stroke: rgb(0, 0, 0);"></path>


<path id="Cassilândia" fill="#ccccb8" stroke="#000" stroke-width=".25" d="m411.58 454.68.08.23.95.76.16.4.7.3.21-.2h.53l.2.19 1.14.12.65.84.7.09.1.47.46.45h.63l.52.45.62-.04.5.12.18-.23.77.46.37.65.42.38.65.05 1.56.93.6.17.6.3.44-.07.45.2.3-.27.66.1.28.18-.27.65.01.53-.58 1.15-.9-.09-.26-.24-1.29-.27-.43-.53-.85.2-.23.24-.38-.17-.64-.05-1.2-.17-.74-.38-.75.13-.54.5-.1.42-.6.06-.29-.43-.98-.56-1.05.68.43.27.3.62.32.34.92-.09.37.06.2.31-.85.91-.44-.42-.89-.06-.3.51-.77-.2-1.18.03-1.02-.52h-.96l-.39-.09-.29-.43-.14-.84-.97-.62.25-2.85-.88-.7-.25-1.03.46-.27.51-.57.34.12.01.58.65.1-.19-.7.36-.07-.43-.65.44-.82-.2-.88z" data-originalStrokeWidth="0.25" style="shape-rendering: auto; stroke: rgb(0, 0, 0);"></path>


<path id="Chapadão_do_Sul" fill="#ccccb8" stroke="#000" stroke-width=".25" d="m403.43 452.94.48.37.64.02 1.1.43.56-.01.5-.23.94.23.8-.08.4-.4.62-.12.52.32.95.29.64.92-1.24.74.21.88-.44.82.43.65-.36.08.2.7-.66-.11v-.58l-.35-.12-.5.57-.46.28.25 1.03.88.68-.25 2.85.97.63.14.84.29.43.39.1-.05.47-.42.51-.1.5.19.68-.47 1.25-.48.36-.23-1.12-.63-.64-.2-.66-.03-.24-.84-.85-.33.03-.68-.4-.08-.47-.7-.63-.51.01-1.63-.55-.92.2-.6-.95-.11-.83-.5-.14-.08-.56.6-.02.32-.27.56-.16.24-.29.74-1.86.07-.62-.8-.63-.43-1.86h-1.07l-.33.2-1.2.01.15-.94-.1-.38.39-.48.07-.44.47-.06 1.13-.8.1-.16.15.5z" data-originalStrokeWidth="0.25" style="shape-rendering: auto; stroke: rgb(0, 0, 0);"></path>


<path id="Corguinho" fill="#ccccb8" stroke="#000" stroke-width=".25" d="m370.74 469.76-.53.75.14.66.25.17.08.46-.14 1.06-.86.45-.62.74-.36.07-.01.57-.22.5-.56.34-.2.43v.52l-.63 1.04-.14.58-.62.4-.42.6-.58-.02-.34.27.11.28-.38.17-.35-.2.29-.39.06-.42-.58-1.1-.03-.46-.72-.6-1.07.14-.42-.27-.63.14-.21.24-.93-.38.24-.55-.35-.4-.15-.8-.71-.53-.3-.86.86-.72.4-1.19.32-.37.3-1.15.4-.38.45-1.14.29.22.89 1.08.49.34 1.09.3.49-.39.34.11-.15.87.33.6 1.19-.25.46.18.55-.25.18-.49.96-.09v-.7l.25-.25.21-1.02-.06-.88.36-.55.18.33.73.44-.06.71.22.08z" data-originalStrokeWidth="0.25" style="shape-rendering: auto; stroke: rgb(0, 0, 0);"></path>


<path id="Coronel_Sapucaia" fill="#ccccb8" stroke="#000" stroke-width=".25" d="m363.1 536.63-.86.34-1.21 3.01-.45-1.05-1.17-.1-.25-.21-.7-.01-.21-.56-1.5.5-.82-.1.27-.1v-.5l.51-.7.2-.55-.53-.8-.38-.3.05-.65.54-.35-.28-.32.34-.03.47-.7-.05-.63.29-.62.8-.68.26.72.3.32.78 1.26.3.7.73.4.89.33.73.6.77.39z" data-originalStrokeWidth="0.25" style="shape-rendering: auto; stroke: rgb(0, 0, 0);"></path>


<path id="Corumbá" fill="#ccccb8" stroke="#000" stroke-width=".25" d="m355.15 430.32.02.01.34.27-.09.55 1.3 1.24.57-.09.9.58.48.01.91.34.4.32.55-.15.65.42.2.5 2 .98-1.13 4.03-1.83 6.58-.03.01-1.6 5.88-2.29 6.34-2.49 2.07-.62.62-.36.55-.24.66-.49.57-.03.31-.4.82-.59.51.05.74-.28.4-.96.73-.13.44-.4.1-.5.76-.4.01-.02-3.3-10.74-.03-.68 4.17-4.12 1.63-.27.26-.96-.14-1.3.15-.13.83-1.15 6.14h.7l.46.61-.02 1.1.29.36-.2 1 .54.6-.92.88-.53.14-.61-.23-.23.15-.6-.05-.43-.48-.4-.2-.48.08-.78-.54-.4-.52-.5.2-.13.24.02 1.18-.56.27.18.42-.52.22-1.03.7-.14.93-.62 1-.22.03-.3 1.27.68.34-.3.48h-.34l-.97.57-.36-.24-.25.35-.54-.05-.23.41-.4.28-.08.74-.45.38-.74-.05-.38.46-.01.52-.2.3-.83.14-.6.4.13.7-.35.44.1.75-.52.22-.41-.7-.75-.24 1-.74.23-.5-.6-.6-.85.17-.32-.06.18-.57.27-.34 1.07.08-.08-.65-.63-.76-.41-.02-.23.5-.55.14-.13-.34.32-.75-.45-.22-.31-.42.29-.63-.41-1.03.12-.6.26-.44-.1-.5-.36-.48-.86-.2-.37-.66-.16-.53.22-.64-.1-.55-.41-.08-.44.4-.26-.15-.13-.48.22-.37.39-.15-.01-.44h-.47l.18-.54.6-.14.3-.5.96-.29.12-.48.25-.24h.65l.48-.64.55.02.4.36.76-1.02.07-.26-4.83-3.76 1.75-3.64 2.59-5.38 1.8-3.78 1.3-.02.25-.58-.4-.4-.01-1.38h-.83l3.69-11.65 1.84-.16-.47-.43-.44-.11-1.23-1.21-.45-1.52-.56-1.07-1.57-2.8.67.02v-.36l-.66-.64.19-.74-.38-.2-.55-1.03-.37-.43.15-.17-.3-.7-.02-.55.7.15.23-.5.49.13.03.4.32 1.08.37.66-.23.92.37.24.4-.22.32.33.24 1.09.56.04.14.29.69.4.26.42.54-.01.45.66.6-.76.73-.23.08-.3.53.18.69-.34.49-.08.33.13.7-.66.25.1.64-.22 1.3-.07.46-.63.49-.07.25-.67.36-.4.44-.23.42-.66-.31-.22.15-.51.48-.46.65-.4.6.02.52-.93.1-.68.29-.33-.08-.6.76-.03.32-.41.17-.67.62-.32.7.14.19.32.93-.22.14.17 1.08-.16.92-.58.85.65 1.1-.44.5-.37.43.16.4-.36.28.13.25-.53.45-.16.12-.33.68.12.5-.55.98-.27.3-.23.52.2.68-.11.5.33.07.82.92.24 1.3.6.3-.17.43.42.7.2.28.3.5-.05.74.44 1.09-.17.16.34zm-35.39 28.86-.47.58-.13.91-.38.08-.29.87.2.53 1.04.32.97.18.41.42.4-.17.08-1.55.19-.47.6-.8-.15-.4-.78-.15-.18-.15-.53.1z" data-originalStrokeWidth="0.25" style="shape-rendering: auto; stroke: rgb(0, 0, 0);"></path>


<path id="Costa_Rica" fill="#ccccb8" stroke="#000" stroke-width=".25" d="m399.92 442.12-.06.3-.85.14-.35.45.24.96v.4l.35 1.03.18 1.66.5.5.86.14.16-.41.86-.49.53-.04 1.1.32.92-.07.8.32.3.6-.44.45-.26.47-.71.15-.67.13-.08.61-.32.2-.37.6-.4.11-.35.42.19.64.54.65-.1.15-1.13.81-.47.06-.07.44-.4.48.1.38-.14.94-.26.2-.86 1.26-.58.33-.04.32-.4.48v.67l-.64-.49-.8-.3-.38-.56-.38-.28-.47.06-1.14.88-.33-.04-.24-.46-.38-.33-.35-.03-.12-.36-.47-.43.02-.22 2.53-1.1-.57-.6-.07-.32.16-.7-.75-.53-.35-.4-.61-.22-.06-.7-.5-1.02-.27-.1-.6-.68-.16-.38-.38-.33 1.45-.63.65.04.47-.37-.24-.57.3-.4-.51-.88.4-.42.83-.24.77.3.3-.33-.8-.53.31-.27.77.28.35-.22.5-.57.3-.09.52-.59-.12-.89-.16-.44-.03-.77.69.23.43.38z" data-originalStrokeWidth="0.25" style="shape-rendering: auto; stroke: rgb(0, 0, 0);"></path>


<path id="Coxim" fill="#ccccb8" stroke="#000" stroke-width=".25" d="m371.33 440.01.2.87-.02.77-.37 2.05.6.65.2.45.73-.18.25.24v.84l.27.25.61-.74.46-.34h.36l1.24-.96.42-.05.37.25.93-.27.57.07 1.16-.7.62-.08.48.37.6.83.09 1.12-.06.51.18.57-.17.3-.67.6.66-.06.38.31.5.14-.04 1.01.24.58-.12.3.15.43-.06.5-.35-.09-.34.33-.61.08-.4.82-.86-.08-.25.15-.54-.09-.32-.23-.5.03-.45 1.08-.66.84-.24.5-.53.1-.4.33-1.53-.07-.74-.23-.71-.72-.15-.78-.48-.12-.52-.3-.83-.26-.41-.7-.27-.79.14-.25-1.24-.83-.34-.33-.78.42-.78-.2-.95-.83-.5-.83-.68-.5.17-.46-.81-.2-.33-.57-.9-.25-.33.11-.33-.27-.26.28-.4-.16-.82.5-.43-.17 1.83-6.58 1.12-4.03.04.04-.36 1.66.4.24-.01.73.16.56h.29l.66.72.78.34.66-.16.86.6.15.56 1 .87.67.11.7-.35.82-.18.25-.59z" data-originalStrokeWidth="0.25" style="shape-rendering: auto; stroke: rgb(0, 0, 0);"></path>


<path id="Deodápolis" fill="#ccccb8" stroke="#000" stroke-width=".25" d="m381.3 511.27.56.67.14.93-.03.83 1.66.65-.07.67-.28.12-1.41 2.9-.4.48-2.92-1.12.33-.72-.73-.28.03-.24.59-.5-.11-.26.83-.73-.22-.28-.05-.7.23-.26.43-1.05-.28-.24-.19-.73.77-.53.42.27z" data-originalStrokeWidth="0.25" style="shape-rendering: auto; stroke: rgb(0, 0, 0);"></path>


<path id="Dois_Irmãos_do_Buriti" fill="#ccccb8" stroke="#000" stroke-width=".25" d="m361.49 480.88-.4.38-.04.69.4-.03.03.63-1.28.12-.66.37v.66l-.56.42-.07.4.43.18.76-.66.36.45.57.34-.02.4.42.25-.13.28.4.6.3.13.2.72.1.43-.28.74-.1.66.32.6.46.24.46 1.18-.23 1.03-.66.63v1.16l.2.62-.3.08v.6l-.82-.36-.22-.3-.61.41-.12.32-.25-.57-.4-.26-.64-1.17-.36-.27.1-.28-.42-.57v-.43l-.56-.26-.23-.74-.48-.44-.63-.3-.02-.63-.46-.37-.25-.78-.32-.55.2-1.54-.23-.2.6-.03.18-.33.65-.6.33.19.67-.31.08-.97-.26-1.06.14-.46-.65-.13-.52-.36-.07-.65.21-.8.42-.54v-.31l.7.05.4-.13.5.53.69-.01.22-.26z" data-originalStrokeWidth="0.25" style="shape-rendering: auto; stroke: rgb(0, 0, 0);"></path>


<path id="Douradina" fill="#ccccb8" stroke="#000" stroke-width=".25" d="m374.7 511.06-.3 1.5-.5.67-.08.58-.57.71-.8-.66-.96.03-.07-.49.37-.42-.02-.39.69-1.39-.03-.3.9-.01.78-.22.29.47z" data-originalStrokeWidth="0.25" style="shape-rendering: auto; stroke: rgb(0, 0, 0);"></path>


<path id="Dourados" fill="#ccccb8" stroke="#000" stroke-width=".25" d="m365.64 510.23-.19.6.22.3-.26.48-.7.18-.63.54-.11.52.34.68-.1.86.89-.3.43.65.68.18.4.45.6.27.9.15 1.75-1.1.48-.46.69-.28.4-.55.07.5.96-.03.8.66.57-.71.08-.6.5-.67.29-1.49.09-.37.35-.36.78.18-.11.38.6.06.67.34h.6l.86-.22-.02.31.54.17.36-.14.19.73.28.24-.43 1.05-.23.25.05.71.22.28-.84.73.1.26-.58.5-.03.24-.23.27-.78.1-.8 1.08-2 .55-.2-.55-.64-.42-1.34 1.04.12.26.77.29.3.36-.88.24-.37.32-.38-.3-.95.39-.44-.45-.27.17-.94-.65-.12.17-.97-.21-.25-.16-.7-.01-.61-.22-.37-.12-.4-.24-.83-.86-.42-.57-.86-.36-.4-.34-.95.32-.33-.34-.53.08-.37-.18-.36-.43-.7.23-.42-.04-.48-.5-.14-.52-.97.05-.31-.4-.43-.05-.16-.46-.02-1.1-.43-.89.63-.21.18-.3.69-.34.47-.74.9-.22.2.21 1.06.2.36.23.74.14.6-.2.58.11 1.02-.28 1.22-.1z" data-originalStrokeWidth="0.25" style="shape-rendering: auto; stroke: rgb(0, 0, 0);"></path>


<path id="Eldorado" fill="#ccccb8" stroke="#000" stroke-width=".25" d="m378.65 539.88 1.13.19.4.47.47.12.36.33.61.24h.81l-.02.72.2.1-.01.6-.42.78-.14.72-.01 1.05-.55.69-.7.39-.92-.03-.8-.5-.39-.62-2.06-.83-.46-.45.07-.26.62-.9-.18-.31.69-1.93.33-.74z" data-originalStrokeWidth="0.25" style="shape-rendering: auto; stroke: rgb(0, 0, 0);"></path>


<path id="Fátima_do_Sul" fill="#ccccb8" stroke="#000" stroke-width=".25" d="m378.14 516.4.73.28-.33.72-.79 1.77-1.9-.74-.17.36-.48-.18-.73 1.63-.36-.71-.77-.15-.3-.36-.77-.3-.12-.26 1.34-1.04.64.43.2.55 2-.55.8-1.08.78-.1z" data-originalStrokeWidth="0.25" style="shape-rendering: auto; stroke: rgb(0, 0, 0);"></path>


<path id="Figueirão" fill="#ccccb8" stroke="#000" stroke-width=".25" d="m390.93 449.25.38.33.16.38.6.67.28.1.49 1.01.06.71.6.21.36.41.75.52-.16.71.07.31.57.61-2.53 1.1-.02.22-.07.81-1.22.57-.57.77-1.13.25-.5.28-.78-.22-.53.28-.54.08-.68-.22-1.14.27-1.08-.15-.37.28-.27 1.01-.6.45h-.57l-.45-.62-.3-.05-.44-.79-.5-.06-.57.11-.47-2.45-.48-.4-.34-.49-.03-.75-.31-.29-.35-.62-.63-.34-.6-.03-.45-.24.24-.5.66-.84.45-1.08.5-.03.32.23.54.1.25-.16.86.08.4-.82.6-.08.35-.33.35.08.64-.24 1.12.72.23-.28.67-.07.58-.35 1-.79.38.32.68.12.33-.5.9-.15 1.3.15z" data-originalStrokeWidth="0.25" style="shape-rendering: auto; stroke: rgb(0, 0, 0);"></path>


<path id="Glória_de_Dourados" fill="#ccccb8" stroke="#000" stroke-width=".25" d="m383.02 521.85-1.46.33-.08-.5-4.13-1.61.4-.9.8-1.77 2.93 1.12-.03.37.36 1.12.7.65z" data-originalStrokeWidth="0.25" style="shape-rendering: auto; stroke: rgb(0, 0, 0);"></path>


<path id="Guia_Lopes_da_Laguna" fill="#ccccb8" stroke="#000" stroke-width=".25" d="m351.04 503.13.63.53-.24.5.45.48.28.5.38.38-1.02-.06-.02.45-.33.36-.45.2-.86-.29-.08.45-.43-.12-.35.21.4.95.69-.04-.03.37-.42.27h-.36l-.31.3.25.3.8.02-.9.12-.7-.16.06-.5-.52-.57-.08-.29-.59-.35-1.34-1.5-.17-.85.52-.62-.24-1.19-.5-.57-.88-.22v-.46l-.37-.5.25-.4-.43-1.14.5-.17.15.47.68.46.6.27 1.2-.05.6.24.97.74.57.13.16.5.75.21.38.48z" data-originalStrokeWidth="0.25" style="shape-rendering: auto; stroke: rgb(0, 0, 0);"></path>


<path id="Iguatemi" fill="#ccccb8" stroke="#000" stroke-width=".25" d="m375.25 530.63.7.32.28.51 1.36.22-.54.88-.23.59.02.7-.34.37.37 1.12.57.35.36.43.65.38.8.8.06.57-.32.94.03.57-.37.5-.98-.17-.33.74-.69 1.93.18.32-.62.89-.06.26-.7-.1-.25-.58-.4.07-.32-.27-1.09-.06-.53-.16-.68.08-.15-.22-.44-1.26-1.3-1.2h-.3l-.85-.58-.7-1.34-.54-.52.32-.56.45-.3-.03-.53.48-1h.41l.3-.25.78.03.4-.11.6.4.52-.62-.17-.2-.16-.91.13-.46.37-.4.78-.14.44-.44.7-.3.26-.41.71-.71z" data-originalStrokeWidth="0.25" style="shape-rendering: auto; stroke: rgb(0, 0, 0);"></path>


<path id="Inocência" fill="#ccccb8" stroke="#000" stroke-width=".25" d="m421.2 463.13.32.78-.22.34.28.45.37 1.43v.56l.3.27.53.83-.3 1.46.56.5.57.3.66.97.14.53.3.13.48.81.54.11.05.57.78.7.26.62.7.35.39 1.18.23.13-1.4.11-1.49.31-.05.2-.62.32-.2.62-1.05-.28-.26-.24.08-.5-.4-1.12-1.19 1.4-.4-.05-.45.38-1.38-.06-1.05.37-.33.47-.74.31-.47.8-.45-.4-.37-.87-.6-.47.08-.25-.39-.92-.04-.84.18-.29-.06-.6-.89-.98-.58-.53-.12-.59-.56-.39-.1-.9-.86-.77-.62-.1-.92-.3-.69-1.07.47-.36.47-1.25-.19-.68.1-.5.42-.5.05-.49h.96l1.02.52 1.18-.04.77.21.3-.5.9.05.43.42.84-.9-.19-.32-.37-.06-.92.1-.32-.35-.3-.62-.43-.27 1.05-.68.98.56.28.43.6-.06.11-.42.54-.5.75-.13.73.38z" data-originalStrokeWidth="0.25" style="shape-rendering: auto; stroke: rgb(0, 0, 0);"></path>


<path id="Itaporã" fill="#ccccb8" stroke="#000" stroke-width=".25" d="m368.85 509.25.54-.1.3.42.35.94.52-.41.8-.15-.21.8.22.45.4.03.66-.34.03.31-.68 1.4.02.39-.37.42-.4.55-.7.27-.47.45-1.74 1.1-.9-.15-.6-.27-.41-.45-.68-.18-.43-.65-.88.3.09-.86-.34-.68.1-.52.64-.54.7-.17.26-.48-.22-.3.2-.6.35-.54.17-.65.63-.2.4.28.79.02.54.36z" data-originalStrokeWidth="0.25" style="shape-rendering: auto; stroke: rgb(0, 0, 0);"></path>


<path id="Itaquiraí" fill="#ccccb8" stroke="#000" stroke-width=".25" d="m384.21 537.75-.48.4-.3.8-.05.58-.3.73-.12.75v.31l-.36.73-.19-.1.02-.73h-.8l-.62-.24-.36-.33-.48-.12-.39-.47-1.13-.19.37-.5-.03-.57.32-.94-.07-.57-.79-.8-.65-.38-.36-.43-.57-.35-.37-1.12.34-.37-.02-.7.23-.59.54-.87.22-.16.65.31.46.4.56-.02.86.3-.04.37 1.16-.04.7-.57 1.31.42.98.2.4.3.56.08.67.48.07.64.46.64-.35.68-.54.41-.68.93z" data-originalStrokeWidth="0.25" style="shape-rendering: auto; stroke: rgb(0, 0, 0);"></path>


<path id="Ivinhema" fill="#ccccb8" stroke="#000" stroke-width=".25" d="m390.79 515.67-.04.25.47.36-.2.3.34 1.11.39.43-.08.73.43.5.13.58.4.25-.64 1.52-.5.16-.23.44-1.04-.24-.75.27-1.1-.34-1.37-.32-.96-.6-.37-.67-.74-.49-1.78 1.9-.13.03-.52-1.19-.7-.65-.36-1.12.03-.37.4-.48 1.4-2.89.28-.12.33-.18.84.3.51.56.46.2.8.03.95.48.85.01.8-.1 1.31-.7z" data-originalStrokeWidth="0.25" style="shape-rendering: auto; stroke: rgb(0, 0, 0);"></path>


<path id="Japorã" fill="#ccccb8" stroke="#000" stroke-width=".25" d="m376.15 543.85.46.45-.52.67.31.45.58.17-.49.6-.53.18-.23-.47-1.33-.34-1.3-.81-1.03-.1-.38-.3-.27.23-.32-.84-.14-.82 1.08-.32.15.22.68-.08.53.16 1.09.06.31.27.4-.07.24.6z" data-originalStrokeWidth="0.25" style="shape-rendering: auto; stroke: rgb(0, 0, 0);"></path>


<path id="Jaraguari" fill="#ccccb8" stroke="#000" stroke-width=".25" d="m376.27 477.44.68-.16.93.18.5-.09.54.3.63-.04.7.4.08.34.51.23.61.1.3.26.55.55.14.66.92.93.43.77-.1.38.65.48 1.16.6-2.01.59-.85.46-.7.2h-.42l-.44.34-.25-.14-.6.31-.31.26-1.07.27-.55-.04-.13-.22-.76-.12-.78-.83-.4-.09-.67-.46-.72-.07-.13-1.04-.34-.84-.4-.2-1.2-.4-.72-.03-.22-.41-.8-.4-1.13-.21-.2-.33.34-2.26.42.02.5-.53h.34l.75-.26.46.22.8.14.5-.2.47.17.32-.33z" data-originalStrokeWidth="0.25" style="shape-rendering: auto; stroke: rgb(0, 0, 0);"></path>


<path id="Jardim" fill="#ccccb8" stroke="#000" stroke-width=".25" d="m350.02 508.9-.67.25-.44-.08-.58.29-.35-.12.25 1.06-.52-.12-.54.32-.56-.13-.45-.4-.68-.08v-.72l-.14-.3-.8-.53-.83.03-.14-.61-.4-1.08v-.37l-.58-.14-.87-.54-1.32.2-1.02-.18-.47-.38-.1-.89-.2-.5-1.62.58-.52.52-.74-.8-1.07.11-.78.3-.6-.15-.82.18-.45.37-.42-.02.08-.47.5-.72.92-1.04h.48l.68-.26 2.32-.33.79.21.28-.19.97-.09.73.24 1.48-.14.8-.36 1.09.1.32-.25-.1-.46.3-.45.36.15.4-.38.15-.84.43 1.14-.25.4.37.5-.01.46.88.22.5.57.24 1.2-.52.61.18.84 1.34 1.51.59.35.08.3.52.55-.06.51.69.16z" data-originalStrokeWidth="0.25" style="shape-rendering: auto; stroke: rgb(0, 0, 0);"></path>


<path id="Jateí" fill="#ccccb8" stroke="#000" stroke-width=".25" d="m383.02 521.85.8.76.76.9.24.44 1.1.4 1.37.77.6-.01.84-.26h.47l1-.33.46-.57.65.06.42.95v.42l.51.34-.33.52-.62.3-.17.46-.73.4-.2.77-.53.31.04.6-.12.5-.58-.73-.63-.06-.7-.64-1.04-.04-.83-.4-1.25-.22-.68-.5v-.17l-.8-.72-.55-.14-.62-.33-.7-.67-.69-.13-.35.18-.67-.21-1.75-2.23-.49.45-.63.38-.72-.1 1.45-3.23 4.13 1.6.08.5z" data-originalStrokeWidth="0.25" style="shape-rendering: auto; stroke: rgb(0, 0, 0);"></path>


<path id="Juti" fill="#ccccb8" stroke="#000" stroke-width=".25" d="m381.9 525.63-.62.3-.84-.1-4.46.92.16.8-.21.22-.05 1.4-.21.31-.42 1.15-.05.16-.93-.88-.14-.48-.48.07-.41-.16-.82-.82-.63-.1-.43-.47-.88-.02-.2-.75.16-.66-.1-.62.37-.4.19-.54 1-.47-.47-.4-.36-.95.98.3h.9l1.1-.49.63.05.4.41.4-.2.42.08.72.11.63-.38.5-.46 1.75 2.23.67.21.35-.18.69.13z" data-originalStrokeWidth="0.25" style="shape-rendering: auto; stroke: rgb(0, 0, 0);"></path>


<path id="Ladário" fill="#ccccb8" stroke="#000" stroke-width=".25" d="m319.76 459.19.97.3.53-.1.2.15.78.14.14.4-.6.8-.2.47-.08 1.55-.39.17-.4-.42-.98-.18-1.05-.32-.19-.53.3-.87.37-.08.13-.9z" data-originalStrokeWidth="0.25" style="shape-rendering: auto; stroke: rgb(0, 0, 0);"></path>


<path id="Laguna_Carapã" fill="#ccccb8" stroke="#000" stroke-width=".25" d="m366.46 518.66-.02.62-.25.72-.8 1.13-.4.02-.38.6-.5.16-.07.6-.46.44.02.6.9.55.62.07.35.42.37.05.65.95.69.4.33.35.96.73.5.17.16.4-.62.3-.43-.12-.6.23-.25.5-.51.06-.48.24-.34-.58-.65.23-.7-.06-.1-.39-.48-.05-.46.5-.42-.1-.17-.52-.9-.41-.3-.26-.8-1.24-.55-.4.05-.3-.8-.52.05-.61-.22-.6.08-.43-.14-.93.33-.38.12-.57-.2-.4.48-.06.19.27 1.69-.6.2-.3.52-.13.96-.54.56.29.63-.23.19-.77.56.02.48-.23z" data-originalStrokeWidth="0.25" style="shape-rendering: auto; stroke: rgb(0, 0, 0);"></path>


<path id="Maracaju" fill="#ccccb8" stroke="#000" stroke-width=".25" d="m361.35 494.82-.28-.1-.43 1.04-.22.2-.01.96-.33.62.17.61-.06.68.36.15.05.72.26.46-.28.5.22.15.18.57.32.4.69.26.13.33.77.33-.1.34.83.47.36.82.83.18.03.4h.5l.04.43.29.26.39-.04.03.7.45.14.35.52.03.33.76.72.88.36.3.32-.02.6-.32.24-.54-.36-.79-.02-.4-.28-.63.21-.17.65-.35.53-.4.22-1.23.11-1.02.28-.58-.1-.6.2-.74-.15-.36-.24-1.06-.19-.2-.2-.9.21-.17-.46-.7.04-.33-.34h-.5l-.02-.36-1.07-.6-.35.2-.39-.39-.48.02-.67-.4-.66-.16-.33.43-.35-.28-.14-.47-.4-.32-.2-.45-.62-.55.33-.36.02-.45 1.02.06-.39-.38-.28-.5-.45-.49.24-.49-.63-.53.13-.43.6-.07.24-.48.91.5-.03-.59.43.17.1.54.88.04-.53-.68.33-.5-.35-.34.23-.69h-.43l.5-.96-.65-.63.46-.33.51-.07.26-.52.28-1.1-.39-.75.55-.16.3-.38.42.14.4-.47.37.71.55-.2.08-.36-.23-.28.3-.3.22-.03.94.6.73-.15.28-.2.77.3.2-.2.12-.32.61-.41z" data-originalStrokeWidth="0.25" style="shape-rendering: auto; stroke: rgb(0, 0, 0);"></path>


<path id="Miranda" fill="#ccccb8" stroke="#000" stroke-width=".25" d="m346.36 484.29-1.32.2.44.37.12.76.2.1-.1.82.18 1.04-.4.23-.58.25-.46-.51-.05.66-.3.3-.9-.38-.07-.34-1.1-1.27-.2-.11-.54-.96-.25-.8.12-.33-.18-.61.28-.52-.08-.3-.6-.37-.48-.1-.27.27-.66.27-.13.22-.54.1-.37-.1-2 .02-.05.52-.36.32-.85-.04-.45.25-.5-.45-.48-.6-.03-.78.15-.74-.92-.26-.49-.36-.73-.88-.9.04.2-1-.29-.36.02-1.1-.46-.61h-.7l1.15-6.14.13-.83.17.32-.14.42.2.3.4.16 1.06-.11.42.66.33-.06.54 1.05.74.37.47-.31.7.04.36-.28.87.45.3.75.97-.33 1.6.1.6.59.78.34 1.04.95h.48l.6.9.49.17.23.89.06.8-.1.39.16.48.45.74-.4.39.27.93-.25.2.18.5.63.59.54.17.98.85z" data-originalStrokeWidth="0.25" style="shape-rendering: auto; stroke: rgb(0, 0, 0);"></path>


<path id="Mundo_Novo" fill="#ccccb8" stroke="#000" stroke-width=".25" d="m382.02 545.2.06.47-.37 1.07-.68.65-.5.18-1.42 1-.66.22-.42-.38-.25-.75-.5.07-1.1-.88-.22-.48.53-.18.5-.6-.59-.17-.3-.45.51-.67 2.06.83.4.62.78.5.93.03.7-.4z" data-originalStrokeWidth="0.25" style="shape-rendering: auto; stroke: rgb(0, 0, 0);"></path>


<path id="Naviraí" fill="#ccccb8" stroke="#000" stroke-width=".25" d="m389.58 529.58.4.39.07.18-.12 1.97-.32.34-.26.7-.53.9-.27.86-.19.48-.65.87-.23.28-.71.18-1.07.6-.98.47-.5-.05.83-.7.68-.92.54-.41.35-.68-.46-.64-.07-.64-.67-.48-.56-.08-.4-.31-.98-.2-1.31-.41-.7.57-1.16.04.04-.37-.86-.3h-.56l-.46-.38-.65-.31-.22.16-1.36-.22-.28-.51-.71-.32.42-1.15.2-.31.06-1.4.22-.22-.16-.8 4.46-.93.84.1.62-.3.62.33.55.14.79.72v.17l.69.5 1.25.22.83.4 1.04.05.7.64.63.06z" data-originalStrokeWidth="0.25" style="shape-rendering: auto; stroke: rgb(0, 0, 0);"></path>


<path id="Nioaque" fill="#ccccb8" stroke="#000" stroke-width=".25" d="m357.25 494.94-.3.3.23.28-.08.36-.55.2-.37-.72-.4.47-.42-.14-.3.38-.55.16.4.75-.29 1.11-.26.53-.5.07-.46.33.64.63-.5.95h.43l-.23.7.35.33-.32.5.53.68-.88-.04-.1-.54-.43-.17.03.58-.92-.49-.24.48-.6.07-.13.43-.35-.16-.38-.48-.75-.2-.16-.5-.56-.14-.97-.74-.6-.24-1.2.05-.6-.27-.69-.46-.15-.47-.13-.7-.37-.37.6-.34-.39-.43v-.59l-.28-.67.3-.47.38.08.3-.22-.14-.44-.4-.4-.1-.47.95-.85-.48-.89.52-.24-.1-.68.57.26.35-.84-.46-.47.36-.28.55-.1h.8l.55.63.72.32.52.04.84-.26.8-.94v-.37l1.05.28.27.27.54-.02.35.61-.1.48.67 1.1.03.55.84.54.32.47.64.4.5-.12.71.05z" data-originalStrokeWidth="0.25" style="shape-rendering: auto; stroke: rgb(0, 0, 0);"></path>


<path id="Nova_Alvorada_do_Sul" fill="#ccccb8" stroke="#000" stroke-width=".25" d="m390.23 504.7.2.3-.31.4-1.9.14.08.83-.23.27.17.82-.09 1.04.18.3-.4.35-.71 1.11-.03.6-.33-.05-.5-.4-.18.1-.87-.36-.3-.34-.7-.23-.13-.62-.31-.19-.23-.48-.26.12-.63-.19-.85-.5-.33.13-1.32-.36-.5-.25-.2-.53-.73-.17-1.23-1.1-.35-.67.3-.33.07-.76-.36.07-.52.38-.37.47-.36.17-.2.37-.41-.44-.47-.14-.17-.44-.32-.26-.9-.45-.65-.22-.36.55-.5.44-.64-.47-.07-.47.43-.19-.05-.29-.69-.63.34-.34-.23-.55v-.4l.36-.19.16-.72.5-.03 1.24-1.13.76-.46.11-.4-.62-.74.63-.36.73-.1-.47-1.99.04-.28.77.27.18.24.71.3.54 1.06.65.17.15.21.8.36-.08.57.3.02.33.53-.1.53.5.65.55.46.14.66.74.52.27.4.46.3.2.45 1.14.78.6.7.73.35 1.87.54.57-.12 1.61.42.7-.4.44-.1.56.48z" data-originalStrokeWidth="0.25" style="shape-rendering: auto; stroke: rgb(0, 0, 0);"></path>


<path id="Nova_Andradina" fill="#ccccb8" stroke="#000" stroke-width=".25" d="m400.75 505.44-.24.22.04 1.08-.47 1.38-.31.59.16.67-1.38 2.4-3.65 6.36-2.55 4.43-1.08-.27.23-.44.49-.16.64-1.52-.4-.25-.13-.58-.43-.5.08-.73-.4-.43-.33-1.1.2-.3-.47-.36.04-.25-.13-.83-.45-.06-.11-.4-.65-.22-.14-.6-.36-.38.1-.26-.48-.3-.7-.65-.11-.4-.54-.38-.03-.34.03-.6.72-1.1.39-.36-.17-.3.09-1.04-.17-.82.23-.27-.08-.84 1.89-.13.3-.4.38.29.69-.01.68-.34.37.02.38-.27.37.04.16-.36.65.1 1.45.65.93-.25.6.17.42-.4.46.42.74-.33.39.3.24-.14.87.46z" data-originalStrokeWidth="0.25" style="shape-rendering: auto; stroke: rgb(0, 0, 0);"></path>


<path id="Novo_Horizonte_do_Sul" fill="#ccccb8" stroke="#000" stroke-width=".25" d="m391.26 522.3 1.08.26-.43.51.21.33-.8.61-.66-.07-.46.57-1 .33h-.47l-.84.26-.6.01-1.38-.77-1.09-.39-.24-.44-.76-.9-.8-.76.13-.04 1.78-1.9.74.5.37.67.96.6 1.36.32 1.11.34.75-.27z" data-originalStrokeWidth="0.25" style="shape-rendering: auto; stroke: rgb(0, 0, 0);"></path>


<path id="Paraíso_das_Águas" fill="#ccccb8" stroke="#000" stroke-width=".25" d="m408.69 466.5-.8.13-.62 1.24-.67.64-.32.45-.9-.44-1 .2-.73-.03-.85-.69-1.34-.63-.62-.57-.95-.2-.44.08.08.66-.83-.07-3.3.72-.34-.83-.67 1.13-.45.13-.84.8-.5.36-.33-.33-.43-1.32-.49-.65.15-.18-.27-.57-.27-1-.43-.5-.07-.48-.55-.63.24-.17.4-1.37 1.08.12.4-.1.87.08.48-.15.23-.32.1-.8.52-.61.95-.51-.52-.52-.58-.26.26-.44.08-.67 1.14-.88.47-.06.38.28.38.55.8.3.65.5v-.67l.4-.48.03-.32.58-.33.86-1.27.26-.2 1.2-.01.33-.2h1.07l.43 1.87.8.63-.07.62-.74 1.86-.24.29-.56.16-.32.27-.6.02.08.56.5.14.12.83.6.94.91-.2 1.63.56.52-.01.7.63.08.47.68.4.33-.03.84.85z" data-originalStrokeWidth="0.25" style="shape-rendering: auto; stroke: rgb(0, 0, 0);"></path>


<path id="Paranaíba" fill="#ccccb8" stroke="#000" stroke-width=".25" d="m428.62 462.04.5.1.46.53.43.06.1.4.97-.08.03.27.55.49.6.15.3-.18.69.2.3.29h.45l.3.29.62.08.82.63.45.77.57.38.04.37.6.24.3.44-.51.33v.25l.58.74.12.68-.4.19-.26-.17-.46.13-.05.28-.85 1.53-.13.77.32.37-.1.6-.6.36-.96.17-.68.75-.7-.14-.61.14-.72-.27-.85.04-.25.27-.36-.04-.43.3-.31.43-.36.05-.18.43-.8.5-.24-.13-.4-1.18-.7-.35-.26-.63-.78-.7-.04-.57-.54-.1-.48-.81-.3-.13-.14-.53-.66-.98-.57-.3-.56-.5.3-1.46-.53-.83-.3-.26v-.56l-.37-1.43-.29-.45.22-.34-.32-.78.64.05.38.17.23-.24.85-.2.43.53 1.3.27.25.24.9.09.59-1.15-.01-.53.27-.65.2-.06.5.39.46-.12z" data-originalStrokeWidth="0.25" style="shape-rendering: auto; stroke: rgb(0, 0, 0);"></path>


<path id="Paranhos" fill="#ccccb8" stroke="#000" stroke-width=".25" d="m361.02 539.99.06.34.46.49-.02.43.41.4.34.07.47.51.15.68.67.24-.06.33-1.05.41-.16.2-.8.03-.6.4.1.4.44.49.22.77-.62.1.17 1.16-.99-.52-.32.54-.24.01-.67-.46-.58-.18-.13-.55-.33-.17.2-.79-.11-.76-.21-.16.4-.52-.23-.43-.2-.86-.2-.24-.14-.94-1-.4-.13-.63.2-.44-.6-1.5.82.11 1.5-.5.22.56h.7l.25.21 1.17.11z" data-originalStrokeWidth="0.25" style="shape-rendering: auto; stroke: rgb(0, 0, 0);"></path>


<path id="Pedro_Gomes" fill="#ccccb8" stroke="#000" stroke-width=".25" d="m387.8 435.74-.74-.04-1 .57-.1.32-.47.5-.44 1.04-.5.57-.26.76.07.58-.5.32-.92.33-.33.46-.53 1.51-.48.66-.76-.02-.14-.14-.77-.03-.62.08-1.16.7-.57-.07-.93.27-.36-.25-.42.05-1.24.95-.36.01-.46.34-.61.74-.27-.25v-.84l-.25-.24-.73.18-.2-.45-.6-.65.37-2.05.02-.77-.2-.87-.05-.58-.23-.57-.45-.54-.29-.62-.19-.92.26-.14 1.27-.16.6-.28.76.03.67.2.33-.09.2.9.35-.38.34.27.67-.34.2.54.8-.06.54.42.37-.3.46-.03.28.38.05.44.6.07 1.3-.99.84-.22-.23-.62.64.06v-.57l.48.06.25-.63.8-.16.33.2.41-.28 1.01.23.22.4.55.01.78-.6.52.4.53-.17z" data-originalStrokeWidth="0.25" style="shape-rendering: auto; stroke: rgb(0, 0, 0);"></path>


<path id="Ponta_Porã" fill="#ccccb8" stroke="#000" stroke-width=".25" d="m351.18 506.27.62.55.19.45.4.32.15.47.35.28.33-.43.66.15.67.41.48-.02.39.38.35-.2 1.07.61.02.35.5.02.32.34.7-.04.18.45-.47.74-.7.34-.17.3-.63.21.43.9.02 1.09.16.47.43.05.3.39.98-.04.14.52.48.49.43.04.69-.23.36.44.37.18.53-.08.33.34.96-.32.39.33.86.36.42.56.83.86.4.24-.48.23-.56-.02-.2.77-.63.23-.56-.29-.96.54-.51.13-.2.31-1.7.6-.18-.26-.47.06.19.38-.12.57-.33.38.14.93-.08.44.22.6-.04.6-.61-.06-.06-.23-.62.19-.64-.1-.9.5-.26.7-.5-.22-.34-.5-.71-.54-.01-.66-.2-.48-1.01-.7-.28-.45-.44-.2-.42-.82-.07-.54.3-.6-.26-1.03-.32.02.34-.68-.21-.4.25-.72.64-.62-.07-.32.4-.85.43-.36.29-.58-.74.06-.38-.32-.4.18-.48-.07-.17.4-.47.15-.61-.18-.77.16-1.1-.95-.55.05-.78-.66.05-.23-.6-.2.32-.76-.35-.37-.58-.02-.02-.3.35-.3-.45-.45v-.32l.56.13.54-.32.52.12-.25-1.06.35.12.58-.29.44.08.67-.25-.8-.02-.26-.3.3-.3h.37l.42-.27.03-.37-.7.04-.4-.95.36-.2.44.11.08-.45.86.28z" data-originalStrokeWidth="0.25" style="shape-rendering: auto; stroke: rgb(0, 0, 0);"></path>


<path id="Porto_Murtinho" fill="#ccccb8" stroke="#000" stroke-width=".25" d="m331.06 480.81.18.4-.2.5.39.54-.05.52-1.02.13.33 1.3.82.02.05.46.32.4-.05.47.3.75.58.83.08 1.03-.42.8.37.78.06.63.4.51-.23.75-.27.4.25.51-.36.78.35.92-.16.63.04.46.4.55-.25.68.5.67.6 1.37.15 1.12-.42.6.14.42-.2.92.21.57.3.25-.69.26h-.48l-.9 1.03-.52.72-.08.47-.37.81-.56.02-.4-.2-.54.5-.87.27-.45.67-.87.92.15.56-.3.23-.3.63v.85l-.59.25-.5.7-.93-.16-.6.56-.65.11-.22.54-.5.47-.2.76-.46.21.03.42-.2.48-.76.48-.15.26-.42.14-.7-.11-.1-.54-.48-.6-.9-.07-.48-.32-.4.26-.6.63-.56-.25-.46.44-.5-.54-.54.22-1.16-.2-.22-.66-.88.13.07-.55-.32-.5.55-.27.17-.56.5-1-.2-.48.57-.42-.77-.41.5-.51.4-.9-.56-.27v-.45l1.01-.77-.83-.56-.23-.51.51-.58-.08-.24-.76-.35-.12-.48.14-.45.46-.45.13-.61.62-1.27.55-.48.11-.6-.7-.17-.46-.4.25-.34.94-.68.08-.7-.29-.9.34-.7-.35-.53v-.5l.85-1.03-.28-.78-.1-.75.34-.45-.12-.7.6-.4.83-.14.2-.3v-.51l.38-.46.74.05.45-.38.1-.74.38-.28.23-.41.54.05.25-.35.36.24.97-.57h.34l.3-.48-.67-.34.3-1.27.21-.03.62-1 .14-.93 1.03-.7.52-.22-.18-.42.56-.27-.02-1.18.14-.25.5-.2.4.53.77.54.48-.08.4.2.44.48.6.05.22-.15.61.23.53-.14z" data-originalStrokeWidth="0.25" style="shape-rendering: auto; stroke: rgb(0, 0, 0); filter: none;"></path>


<path id="Ribas_do_Rio_Pardo" fill="#ccccb8" stroke="#000" stroke-width=".25" d="m393.69 473.07.35.13.32.51.08.5.28.5.67.2 1.21 1.97 1.4 1.04.04.35.47 1.05.77.58.26.6-.1.63.3.75.24.3 1.71 1.13 1.25 1.45.57.15.52 1.12.4.42-1.43 1.28-.78.28-.74.38-.97.05-.82.48-.32-.11-.44.27-.64-.05-.26.66.2.52-.15 1.22-1.1 1-.36.11-.63 1.17.42.64.42.15.07.29.92.98.08.45.85 1.03.1 1.37.4 1.5.24.63.76 1-.14.4.24.8.35.37.44 1.73.1.68-.5-.3-.55-.09-.87-.45-.24.15-.39-.31-.74.33-.46-.41-.4.39-.62-.18-.93.25-1.45-.65-.65-.1-.16.36-.37-.04-.38.27-.37-.02-.68.34-.69.01-.37-.29-.2-.3.27-.53-.15-.44.01-.7-.44-.2.03-.38.33-.5v-.98l-.36-.46-.18-.84-.63-1.16-.02-.75-.73-.62-.19-.68-.43-.5-.72-.09-.85-.6.05-.58-.16-.32-.68-.27-.38-.28-.92-.03-.66-.6.02-.48-.33-.72-.73-.32-.49-.68-.64-.17-.53-.3-.26-.37-.04-.45-.39-.29-.17-.63.2-.29.32-1.08-.3-.97.21-.9-.06-.44.6-.3.25.12.44-.34.42.01.7-.2.85-.47 2.01-.59-1.16-.59-.64-.48.1-.38-.44-.77-.92-.93-.14-.66-.55-.55.72-.54.1-.32 1.33-.36.35-.32.12-.56.61-.02.36-.2-.4-1.3-.5-.8-.27-.12-.32-1.5-.19-.2.07-.75h.4l.32-.26.42.1.34-.2.74-3.04.7.37.5.52.21.64 1.12.87.14.25 1.13.51.15.42.66.65.66.22h.56l.7.21.66.07z" data-originalStrokeWidth="0.25" style="shape-rendering: auto; stroke: rgb(0, 0, 0);"></path>


<path id="Rio_Brilhante" fill="#ccccb8" stroke="#000" stroke-width=".25" d="M371.12 500.83v.41l.23.55-.34.34.69.63.05.3-.43.19.07.47.64.47.5-.44.36-.55.64.22.9.45.33.26.16.44.47.14.4.44.22-.37.36-.17.37-.47.52-.38.36-.07-.07.76-.31.33.35.66 1.23 1.1.73.17.2.54.5.25 1.32.36.33-.13.85.5.63.19.26-.12.23.48.3.19.14.62.7.23.3.34-.28.27-1.06.23-.92-.25-.51.09-.46.48-.3-.28-.6.29.12.29-.7-.12-.41-.27-.77.53-.36.14-.54-.17.02-.31-.86.2-.6.02-.66-.34-.61-.06.1-.38-.77-.18-.35.36-.1.37-.3.07-.28-.47-.78.22h-.9l-.66.34-.4-.03-.22-.45.2-.8-.8.15-.51.4-.35-.93-.3-.42-.54.1v-.6l-.28-.31-.88-.36-.76-.72-.03-.33-.36-.52-.45-.15-.03-.7-.4.05-.28-.26-.03-.43.15-.4.1-1.4 2.14-2.6.5-.01.49.28.33-.26.6.14-.05.34.29.23z" data-originalStrokeWidth="0.25" style="shape-rendering: auto; stroke: rgb(0, 0, 0);"></path>


<path id="Rio_Negro" fill="#ccccb8" stroke="#000" stroke-width=".25" d="m369.27 462.75.51.31.62.18-.13.65.67.66-.24.2-.32.88-.7 1.11-.22.5-.36.55.05.88-.2 1.02-.25.25-.01.7-.96.1-.18.48-.55.25-.46-.18-1.2.24-.32-.59.15-.87-.34-.1-.5.37-1.08-.29-.5-.34-.88-1.08-.3-.22.27-.45.39-1.4.72-.24.9-.59-.2-.3.39-.32.79.3.19-.45.5-.46-.04-.31.47-.82 1.42-.02.74-.84z" data-originalStrokeWidth="0.25" style="shape-rendering: auto; stroke: rgb(0, 0, 0);"></path>


<path id="Rio_Verde_de_Mato_Grosso" fill="#ccccb8" stroke="#000" stroke-width=".25" d="m373.37 454.12-.08.4.27.55.6.3.22.65-.07.47 1.23.95.07.28.68.65.14.6-.58-.25-.93.11-1.27-.43-.43.35-.47.07-.72.5-.73.32-.12.39-.45.46.03.42-.63 1.13-.54.2-.31.52-1.17-.25-.75.84-1.42.01-.47.82.05.31-.5.46-.2.45-.79-.29-.3-.09-.34.27-.58-.32-.59-.74-.36-.06-.45-.53-.48-.05-.49.16-.26-.29-.44.05-.1.34-.44-.1-.75.05-.59-.66-.25-.08.4-3.86.77-7.4 1.61-5.88.03-.02.43.17.83-.5.4.16.25-.28.33.27.33-.1.9.24.33.57.81.2-.17.45.7.51.48.83.95.83.78.2.78-.42.34.33 1.24.83-.14.25.27.8.41.7.83.24.52.31.48.12.15.78z" data-originalStrokeWidth="0.25" style="shape-rendering: auto; stroke: rgb(0, 0, 0);"></path>


<path id="Rochedo" fill="#ccccb8" stroke="#000" stroke-width=".25" d="m376.27 477.44-1.68-.55-.32.33-.47-.16-.49.2-.8-.15-.47-.22-.75.27h-.33l-.5.52-.42-.02-.35 2.26h-1.35l-.07.48-.9.12-.82-.69-.25.1-.63-.3h-.58l-.1-.28.34-.27.58.01.41-.6.62-.39.14-.58.63-1.04v-.52l.2-.43.55-.34.22-.5.01-.57.36-.07.62-.74.86-.45.72-.01.15-.3.62.35.27 1.8.35.09.55-.23.7.09.96-.11.55.37.12.66-.14.3.2.66.98.29z" data-originalStrokeWidth="0.25" style="shape-rendering: auto; stroke: rgb(0, 0, 0);"></path>


<path id="Santa_Rita_do_Pardo" fill="#ccccb8" stroke="#000" stroke-width=".25" d="m398.94 489.07 1.55.82.35.82-.02.55.47.85.59.2.54.64.8.58.48.15 2.6 2.04.56.65 1.18.84.42.71.4.22.2.7.57.65.14.42.46.47.13.36.47.41 1.25.61.63.8.53.32.67.2 1 .67v.3l.94.45.12.29h.58l.52-.17.58.5.35.8-.11.6-.37.67-.48.56-.78.24-.24.19-.28-.73-.02-.58-.34-.5-1.05-.63-.53.2-.41-.22-.48.15-1.05.55-1.68.33-.98.4-.62-.1-.82.03-1.13.55-.74-.23-1.5-1.03-.36.08-.77-.28-.98.14-.62-.2-.42-.38-.1-.68-.43-1.73-.35-.37-.24-.8.14-.4-.76-1-.25-.63-.4-1.5-.1-1.37-.84-1.03-.08-.45-.92-.98-.07-.3-.42-.15-.42-.62.63-1.17.36-.11 1.1-1.01.14-1.22-.2-.52.27-.66z" data-originalStrokeWidth="0.25" style="shape-rendering: auto; stroke: rgb(0, 0, 0);"></path>


<path id="São_Gabriel_do_Oeste" fill="#ccccb8" stroke="#000" stroke-width=".25" d="m380.23 459.6-.57.3-.48-.1-.02.6.54 1.03-.07.57.2.19-.07.7.23.22-.27.58-.38-.05-.72.83.04.26-.76.2.02 1.53-.91.03-.16.57-.41.43-.52.12-.14.81.12.55-.68-.23-.28.38-.48-.4-.7-.14-.66.6-.68-.08-.23.32-.63.32-.53-.1-.3.12-.2-.96-.22-.08.06-.7-.73-.45-.18-.33.22-.5.7-1.1.32-.89.24-.2-.67-.66.13-.65-.62-.18-.5-.3.3-.53.54-.2.63-1.13-.03-.42.45-.46.12-.39.73-.32.73-.5.47-.07.43-.35 1.27.44.93-.1.58.24-.14-.6-.68-.66-.07-.28-1.23-.95.08-.47-.22-.65-.61-.3-.27-.55.08-.4.74.23 1.54.07.39-.34.53-.09.45.24.6.03.63.34.35.62.3.3.04.75.34.49.48.4z" data-originalStrokeWidth="0.25" style="shape-rendering: auto; stroke: rgb(0, 0, 0);"></path>


<path id="Sete_Quedas" fill="#ccccb8" stroke="#000" stroke-width=".25" d="m370.96 542.92.14.82.32.84-.38.61-1.55.06-.38.4-.39-.11-.42.37-.86.1-.32.24.03.63-.73.1-.57-.15-1.12.63-.5-.19-.29-.3-.39.32-.88.19-.89.36-.58-.4-.17-1.16.62-.1-.22-.77-.45-.5-.1-.4.61-.38.8-.03.16-.2 1.05-.41.67.63.42.6.43.06.87.64 1.27-.6.46-.34.34.17 1.97-1.08z" data-originalStrokeWidth="0.25" style="shape-rendering: auto; stroke: rgb(0, 0, 0);"></path>


<path id="Selvíria" fill="#ccccb8" stroke="#000" stroke-width=".25" d="m424.38 477.71.34.22.71.76.08.31.75.67.34.54.68.5.4.42.94.35.55.56.96.5.34.63-.6.8-.38.79-.35.34-.54.3-.77 1.14-.13.38-.58.5-.6.38-.28-.38-.57-.32-.17-.43-.9-1.1-.43-.03-.39-.62-.52-.35-.66.24-.78-.1-.48.31-.22.36-.4-.03-.55.68-.39-.06-.34-.54-.33-.02-.46-.44.12-.47-.33-.46-.77-.76-.05-.64-.37-.8-.08-.48.18-.52-.06-.72-.2-.13-.13-.57-.22-.23.47-.8.74-.3.33-.47 1.05-.38 1.38.06.44-.38.41.05 1.18-1.4.41 1.11-.08.51.26.24z" data-originalStrokeWidth="0.25" style="shape-rendering: auto; stroke: rgb(0, 0, 0);"></path>


<path id="Sidrolândia" fill="#ccccb8" stroke="#000" stroke-width=".25" d="m369.08 489.96.84-.83.3-.03.53.41.08.47.34.49-.18.44.17.96.44.69.52.13.24.27.51-.08.63.8.71.26.34.5-.04.28.47 2-.73.1-.63.36.62.73-.1.4-.77.47-1.25 1.13-.49.03-.16.72-.36.18-1.22.4-.29-.23.05-.34-.6-.14-.33.26-.49-.28-.5.02-2.14 2.59-.1 1.4-.15.4h-.5l-.04-.4-.83-.18-.36-.82-.83-.47.1-.35-.77-.33-.13-.33-.69-.26-.32-.4-.18-.56-.22-.15.28-.5-.26-.46-.05-.72-.36-.15.06-.68-.17-.61.33-.62.01-.96.22-.2.43-1.05.28.1.82.37.01-.6.3-.08-.2-.62v-1.17l.65-.63.23-1.03-.46-1.18-.46-.24-.3-.6.08-.65.28-.74-.09-.43.52.34.28-.04.4.32.35.05.62.84-.06.23.35 1.05 1.21.26.4.33.32-.12.54.25.55-.3.4.24.87-.03z" data-originalStrokeWidth="0.25" style="shape-rendering: auto; stroke: rgb(0, 0, 0);"></path>


<path id="Sonora" fill="#ccccb8" stroke="#000" stroke-width=".25" d="m389.17 428.33-.23 4.35-.2 2.85-.94.2-.49-.36-.53.16-.51-.38-.78.6-.55-.02-.22-.4-1.01-.22-.41.27-.34-.2-.8.17-.25.63-.48-.06v.57l-.64-.06.23.62-.83.22-1.31.99-.6-.07-.04-.44-.28-.38-.46.03-.37.3-.55-.42-.8.06-.2-.54-.66.34-.34-.27-.35.37-.2-.9-.33.09-.67-.2-.76-.02-.6.28-1.27.16-.26.14.19.92.29.62.45.54.22.57.05.58-.9.43-.24.59-.82.18-.7.35-.66-.11-1.01-.87-.15-.56-.86-.6-.66.16-.78-.34-.66-.72h-.3l-.15-.56.02-.73-.41-.24.36-1.66 1.13-.33.45.16 1.84-.56.73.05.73.2.63-.24.43-.47.74-.3.2-.81 1.02-.3.95-.13 1.16-.4.29.28.32-.2.6.05.49.3.1.53.75.17.6.59.27.65-.2.44.8.42.72.1.49-.13.55-.45.92-.41.6-.01.4.24h.89l.2-.54.38-.45.1-.45-.21-.42.62-.64.88-.1.74-.57.3-.44.79-.8.68-.25-.07-.28.27-.8.6-.11.4-.72.47-.26.56-.07z" data-originalStrokeWidth="0.25" style="shape-rendering: auto; stroke: rgb(0, 0, 0);"></path>


<path id="Tacuru" fill="#ccccb8" stroke="#000" stroke-width=".25" d="m363.1 536.63.17.52.7.6.3.48 1.23.48.88.77.85.44 1.03-.3.89-.05.85.59h.29l1.3 1.19.45 1.26-1.07.32-1.03.65-1.97 1.08-.34-.17-.46.34-1.27.59-.87-.64-.43-.05-.42-.61-.67-.63.06-.33-.67-.24-.15-.68-.47-.51-.34-.07-.41-.41.02-.43-.46-.5-.06-.33 1.2-3.01z" data-originalStrokeWidth="0.25" style="shape-rendering: auto; stroke: rgb(0, 0, 0);"></path>


<path id="Taquarussu" fill="#ccccb8" stroke="#000" stroke-width=".25" d="m395.4 525.75-.65.34-.28.37-.54.16-.34.34-.97.55-1.1.46-.42.68-.64.4-.47.92-.4-.4.12-.49-.04-.6.52-.3.2-.77.73-.4.17-.46.62-.3.33-.52-.5-.34v-.42l-.42-.95.8-.61-.2-.33.43-.52 2.55-4.43.3.47.08 1.7.37.76.1.7.46.63.12 1.3-.01.65-.34.68-.67.13-.24.3z" data-originalStrokeWidth="0.25" style="shape-rendering: auto; stroke: rgb(0, 0, 0);"></path>


<path id="Terenos" fill="#ccccb8" stroke="#000" stroke-width=".25" d="m364.36 479.6.35.2.39-.17h.58l.63.3.25-.1.82.7-.16.43.56.65 1.23.3v.24l1.02.48v2.75l-.62.5v.85l.3.72.24.3-.31.28-.21.56-.31-.02-.5.47.28.93h.19l-.13.67-.88.03-.4-.24-.55.3-.54-.25-.33.12-.39-.33-1.2-.26-.35-1.05.06-.23-.62-.84-.36-.05-.4-.32-.28.04-.52-.34-.2-.72-.3-.14-.4-.6.13-.27-.42-.25.02-.41-.57-.34-.36-.45-.76.66-.43-.18.07-.4.56-.42v-.66l.65-.37 1.28-.12-.02-.63-.4.03.03-.7.4-.37.32-.45.63-.5.97-.5z" data-originalStrokeWidth="0.25" style="shape-rendering: auto; stroke: rgb(0, 0, 0);"></path>


<path id="Três_Lagoas" fill="#ccccb8" stroke="#000" stroke-width=".25" d="m416.75 479.19.22.23.13.57.2.13.06.72-.18.52.08.49.37.79.05.64.77.76.33.46-.12.47.45.44.33.02.34.54.4.07.53-.68.41.03.22-.36.48-.31.78.1.66-.24.52.35.4.62.41.03.91 1.1.17.43.57.32.27.38-.14.09-.5.68-.37.9-.18.73.22.4-.19.78.08.84.24.3-.15 1.04-.76.46-.83.01-.81.9-.23.51-.3.9-.6.44-.74.07-.24.31-.01.88-.21-.28-.92.05-.9-.7.03-.3-.62-.42-.23-.35-1.17-.8-.93-.46-1.12-.73-.49.15-1.05-.5-.45-.46-.19-.45-.33-.3.16-.96-.08-.5-.34-.35-.08-.39-.43-.44-.34-.89-.22-.2-.4-1.09-.5-.53-.2-.56-.46-.28-.23-.52-.43-.56-.83-.73-.2-.42-.93-.68-.84-1.37-.21-.68.15-.48.46-.52-.44-.74-.18-.57.1-.36.57-.38-.34-1 .03-.4-.2-1.55-.28-.53-.73.06.04-.3 1.23-1.03.5-.16.7.03.56-.26.29-.75.15-.96.26-.22.48-.79.68-.1.56-.35.92.3.62.1.85.77.1.9.57.4.12.58.58.53.89.98.06.6-.18.3.04.83.39.92-.08.25.6.47.37.87z" data-originalStrokeWidth="0.25" style="shape-rendering: auto; stroke: rgb(0, 0, 0);"></path>


<path id="Vicentina" fill="#ccccb8" stroke="#000" stroke-width=".25" d="m377.75 519.16-.4.9-1.45 3.23-.41-.08-.32-.53.07-.56-.06-.9-.22-.44-.48-.54.72-1.63.48.18.16-.36z" data-originalStrokeWidth="0.25" style="shape-rendering: auto; stroke: rgb(0, 0, 0);"></path>

</svg>