<?xml version="1.0" standalone="no"?>
<svg xmlns="http://www.w3.org/2000/svg" id="map" version="1.2" width="800" height="800" viewBox="480 390 25 25">

<path id="Brasília" fill="#ccccb8" stroke="#000" stroke-width=".25" d="m501.77 406.8.03.24h-17.14l.1-.69.37-.98-.08-.4-.33-.4-.2-1.15.09-.26.24-.38.44-.2.6-.84.02-.56-.6-.22.13-.82.29-.63.32-.01v-2.13h6.1l6.34-.01h1.37v.78l.22.02.5.5.54.06.45.34-.21.55.13.41-.1.55.35.25-.15.37.1.5-.45.85-.46.58-.22 1.06.3.74-.26.58.12.69.39.1z" data-originalStrokeWidth="0.25" style="shape-rendering: auto; stroke: rgb(0, 0, 0);"></path>

</svg>